<?xml version="1.0" encoding="utf-8"?>
<!-- Generator: Adobe Illustrator 24.0.1, SVG Export Plug-In . SVG Version: 6.00 Build 0)  -->
<svg version="1.1" id="Layer_1" xmlns="http://www.w3.org/2000/svg" xmlns:xlink="http://www.w3.org/1999/xlink" x="0px" y="0px"
	 viewBox="0 0 489 123" style="enable-background:new 0 0 489 123;" xml:space="preserve">
<style type="text/css">
	.st0{fill:#231F20;}
	.st1{enable-background:new    ;}
	.st2{fill:#05B4E9;}
	.st3{fill:#FFFFFF;}
	.st4{fill:#FFC60B;}
	.st5{fill:#59AA47;}
	.st6{fill:#EF4123;}
	.st7{fill:#FCBC80;}
</style>
<title>argentina-presidencia-logo-linea</title>
<g>
	<path class="st0" d="M124.5,84.9l-3-9.1c-0.1-0.3-0.4-0.5-0.7-0.5h-12.6c-0.3,0-0.6,0.2-0.7,0.5l-3,9.1c-0.1,0.3-0.4,0.5-0.7,0.5
		h-4.6c-0.4,0-0.8-0.3-0.8-0.8c0-0.1,0-0.2,0-0.2l11.3-33.7c0.1-0.3,0.4-0.5,0.7-0.5h8.1c0.3,0,0.6,0.2,0.7,0.5l11.3,33.7
		c0.1,0.4-0.1,0.8-0.5,1c-0.1,0-0.2,0-0.2,0h-4.7C124.9,85.4,124.6,85.2,124.5,84.9 M110.3,70.2h8.3c0.4,0,0.8-0.3,0.8-0.8
		c0-0.1,0-0.2,0-0.2l-4.2-12.8c-0.1-0.4-0.6-0.6-1-0.5c-0.2,0.1-0.4,0.3-0.5,0.5l-4.2,12.8c-0.1,0.4,0.1,0.8,0.5,1
		C110.2,70.2,110.2,70.2,110.3,70.2"/>
</g>
<g>
	<path class="st0" d="M135.3,59.5h3.7c0.4,0,0.7,0.3,0.8,0.7l0.4,2.7h0.3c0.7-1.2,1.8-2.1,3-2.8c1.3-0.6,2.7-0.9,4.1-0.9
		c0.5,0,0.9,0,1.4,0.1c0.4,0.1,0.7,0.4,0.7,0.8v4.1c0,0.4-0.3,0.8-0.7,0.8c0,0,0,0-0.1,0c-0.5,0-1-0.1-1.6-0.1
		c-1.3,0-2.5,0.3-3.6,0.8c-1,0.4-1.9,1.1-2.6,2c-0.1,0.1-0.2,0.3-0.2,0.5v16.6c0,0.4-0.3,0.8-0.8,0.8h-4.7c-0.4,0-0.8-0.3-0.8-0.8
		V60.2C134.5,59.8,134.9,59.5,135.3,59.5"/>
</g>
<g>
	<path class="st0" d="M157.2,96.1c-1.2-0.1-2.4-0.4-3.5-0.7c-0.3-0.1-0.6-0.4-0.6-0.8v-3.4c0-0.4,0.3-0.8,0.8-0.8c0.1,0,0.2,0,0.2,0
		c2.3,0.6,4.6,0.9,6.9,0.9c1.5,0.1,2.9-0.2,4.3-0.7c1.1-0.4,1.9-1.2,2.5-2.2c0.6-1.2,0.9-2.6,0.8-4v-2h-0.3c-0.8,0.9-1.8,1.7-3,2.2
		c-2.9,1.2-6.3,1-9-0.6c-1.6-1-2.9-2.5-3.6-4.2c-1-2.2-1.4-4.7-1.4-7.1c0-4.6,1.2-8,3.6-10.4c2.4-2.3,5.9-3.5,10.6-3.5
		c1.6,0,3.2,0.1,4.8,0.4c1.3,0.2,2.6,0.5,3.9,0.8c0.3,0.1,0.5,0.4,0.5,0.7v22.6c0.1,2.5-0.4,5-1.5,7.3c-1,1.8-2.5,3.3-4.4,4.1
		c-2.4,1-4.9,1.4-7.5,1.3C160,96.3,158.6,96.2,157.2,96.1 M166.4,80c0.8-0.3,1.4-0.8,2-1.3c0.1-0.1,0.2-0.3,0.2-0.5V64.9
		c0-0.4-0.3-0.7-0.6-0.8c-1-0.2-2-0.3-3-0.3c-2-0.2-4.1,0.6-5.5,2c-1.2,1.4-1.8,3.5-1.9,6.5c0,3,0.5,5.1,1.6,6.3
		c1.1,1.2,2.7,1.9,4.4,1.8C164.5,80.5,165.4,80.3,166.4,80"/>
</g>
<g>
	<path class="st0" d="M201.3,74.3h-14.5c-0.4,0-0.8,0.3-0.8,0.8c0,0,0,0.1,0,0.1c0.1,1.1,0.4,2.2,0.9,3.2c0.6,1,1.5,1.8,2.6,2.2
		c1.5,0.5,3.1,0.7,4.6,0.7c1.9,0,3.8-0.3,5.6-0.7c0.4-0.1,0.8,0.2,0.9,0.6c0,0.1,0,0.1,0,0.2v3.2c0,0.4-0.2,0.7-0.6,0.8
		c-2.2,0.5-4.5,0.8-6.8,0.8c-2.6,0.1-5.2-0.4-7.6-1.4c-1.9-0.9-3.5-2.4-4.5-4.4c-1.1-2.4-1.6-5.1-1.5-7.7c-0.1-2.5,0.4-5,1.4-7.3
		c0.8-1.9,2.1-3.5,3.9-4.5c1.9-1.1,4-1.6,6.2-1.5c3.5,0,6.2,1.1,8.1,3.4c1.8,2.3,2.8,5.7,2.8,10.1v0.9C202,74,201.7,74.3,201.3,74.3
		 M187.3,64.8c-0.9,1.5-1.4,3.2-1.3,4.9c0,0.4,0.3,0.8,0.7,0.8c0,0,0,0,0,0h8.7c0.4,0,0.8-0.4,0.8-0.8c0,0,0,0,0,0
		c0-1.7-0.4-3.4-1.3-4.9c-0.9-1.2-2.3-1.8-3.7-1.7C189.7,63,188.3,63.7,187.3,64.8"/>
</g>
<g>
	<path class="st0" d="M207.5,59.5h3.8c0.4,0,0.7,0.3,0.8,0.6l0.3,2.1h0.3c1-1,2.2-1.8,3.5-2.3c1.4-0.5,2.8-0.8,4.3-0.8
		c2.4-0.1,4.7,0.7,6.4,2.4c1.6,1.6,2.3,4.1,2.3,7.5v15.8c0,0.4-0.3,0.8-0.8,0.8h-4.7c-0.4,0-0.8-0.3-0.8-0.8V69.3
		c0.1-1.3-0.3-2.7-1.1-3.7c-0.9-0.8-2-1.2-3.2-1.1c-1.1,0-2.1,0.2-3.1,0.7c-0.9,0.4-1.7,1-2.4,1.7c-0.1,0.1-0.2,0.3-0.2,0.5v17.3
		c0,0.4-0.3,0.8-0.8,0.8h-4.7c-0.4,0-0.8-0.3-0.8-0.8V60.2C206.7,59.8,207.1,59.5,207.5,59.5"/>
</g>
<g>
	<path class="st0" d="M250.5,81.3v3.5c0,0.4-0.3,0.7-0.6,0.8c-1.3,0.3-2.6,0.4-3.9,0.4c-6.1,0-9.2-3.1-9.2-9.3V65.2
		c0-0.4-0.3-0.8-0.8-0.8h-3c-0.4,0-0.8-0.3-0.8-0.8v-3.5c0-0.4,0.3-0.8,0.7-0.8c0,0,0,0,0,0h3c0.4,0,0.7-0.3,0.8-0.7l0.9-7.9
		c0-0.4,0.4-0.7,0.8-0.7h3.7c0.4,0,0.8,0.3,0.8,0.7c0,0,0,0.1,0,0.1v7.7c0,0.4,0.3,0.8,0.8,0.8h5.7c0.4,0,0.8,0.3,0.8,0.7
		c0,0,0,0,0,0v3.5c0,0.4-0.3,0.8-0.8,0.8h-5.7c-0.4,0-0.8,0.3-0.8,0.8v10.4c0,1,0.1,2,0.5,3c0.3,0.7,0.8,1.3,1.5,1.6
		c0.8,0.4,1.7,0.5,2.6,0.5c0.7,0,1.3-0.1,2-0.2c0.4-0.1,0.8,0.2,0.9,0.6C250.5,81.2,250.5,81.2,250.5,81.3"/>
</g>
<g>
	<path class="st0" d="M255.1,54.1c-1.3-1.4-1.3-3.6,0-5c1.8-1.2,4.1-1.2,5.9,0c1.3,1.4,1.3,3.6,0,5
		C259.2,55.3,256.9,55.3,255.1,54.1 M254.9,84.7V60.2c0-0.4,0.3-0.8,0.7-0.8c0,0,0,0,0,0h4.7c0.4,0,0.8,0.3,0.8,0.7c0,0,0,0,0,0
		v24.4c0,0.4-0.3,0.8-0.8,0.8l0,0h-4.7C255.3,85.4,254.9,85.1,254.9,84.7"/>
</g>
<g>
	<path class="st0" d="M267,59.5h3.8c0.4,0,0.7,0.3,0.8,0.6l0.3,2.1h0.3c1-1,2.2-1.8,3.5-2.3c1.4-0.5,2.8-0.8,4.3-0.8
		c2.4-0.1,4.7,0.7,6.4,2.4c1.6,1.6,2.3,4.1,2.3,7.5v15.8c0,0.4-0.3,0.8-0.8,0.8l0,0h-4.7c-0.4,0-0.8-0.3-0.8-0.8c0,0,0,0,0,0V69.3
		c0.1-1.3-0.3-2.7-1.1-3.7c-0.9-0.8-2-1.2-3.2-1.1c-1.1,0-2.1,0.2-3.1,0.7c-0.9,0.4-1.7,1-2.4,1.7c-0.1,0.1-0.2,0.3-0.2,0.5v17.3
		c0,0.4-0.3,0.8-0.8,0.8l0,0H267c-0.4,0-0.8-0.3-0.8-0.8c0,0,0,0,0,0V60.2C266.2,59.8,266.6,59.5,267,59.5"/>
</g>
<g>
	<path class="st0" d="M309.7,60c1.6,0.6,2.9,1.8,3.7,3.2c0.9,1.9,1.3,4,1.2,6.1v15.3c0,0.4-0.3,0.8-0.8,0.8l0,0H310
		c-0.4,0-0.7-0.3-0.8-0.6l-0.3-2h-0.3c-0.8,1-1.8,1.8-3,2.3c-1.3,0.5-2.7,0.8-4.1,0.8c-1.5,0-3-0.3-4.4-0.9
		c-1.2-0.6-2.2-1.4-2.8-2.6c-0.7-1.2-1-2.5-1-3.9c-0.1-2.2,0.8-4.2,2.5-5.6c1.6-1.3,4.3-2.1,7.8-2.4l4.9-0.4V69
		c0.1-1.1-0.2-2.1-0.6-3.1c-0.4-0.8-1.2-1.3-2-1.6c-1.2-0.3-2.4-0.5-3.6-0.5c-1.2,0-2.3,0.1-3.5,0.3c-0.9,0.1-1.8,0.3-2.6,0.5
		c-0.4,0.1-0.8-0.1-1-0.5c0-0.1,0-0.2,0-0.2v-3.2c0-0.3,0.2-0.6,0.5-0.7c1.1-0.3,2.3-0.5,3.4-0.7c1.4-0.2,2.7-0.3,4.1-0.3
		C305.4,58.9,307.5,59.3,309.7,60 M306.1,80.9c0.8-0.3,1.5-0.8,2.1-1.4c0.1-0.1,0.2-0.3,0.2-0.5v-4.3c0-0.4-0.3-0.8-0.8-0.8
		c0,0,0,0-0.1,0l-3.4,0.3c-1.3,0-2.5,0.4-3.6,1.2c-0.8,0.7-1.2,1.6-1.1,2.6c-0.1,1,0.3,1.9,1,2.6c0.8,0.7,1.9,1,3,0.9
		C304.3,81.4,305.2,81.3,306.1,80.9"/>
</g>
<g class="st1">
	<path class="st0" d="M331.9,64c2.1-0.4,4.2-0.6,6.2-0.6c3.2,0,5.5,0.6,7.1,1.9c1.6,1.3,2.3,3.2,2.3,5.8c0,2.5-0.8,4.5-2.3,5.8
		s-3.9,2-7,2c-0.5,0-1.3,0-2.4-0.1v6.7h-3.9V64z M342.4,74.7c0.9-0.7,1.3-1.9,1.3-3.6c0-1.6-0.4-2.9-1.3-3.6c-0.8-0.8-2.2-1.1-4-1.1
		c-0.9,0-1.8,0.1-2.6,0.2v9.1c0.7,0.1,1.5,0.1,2.4,0.1C340.1,75.8,341.5,75.4,342.4,74.7z"/>
</g>
<g class="st1">
	<path class="st0" d="M351,69.4h3.2l0.3,2.1h0.2c0.5-0.8,1.1-1.3,1.9-1.7s1.6-0.6,2.5-0.6c0.4,0,0.8,0,1.3,0.1v3.5
		c-0.4-0.1-0.9-0.1-1.5-0.1c-0.8,0-1.5,0.2-2.3,0.5c-0.7,0.3-1.3,0.8-1.7,1.3v10.9H351V69.4z"/>
</g>
<g class="st1">
	<path class="st0" d="M375.7,78.5h-9.9c0,1,0.2,1.9,0.6,2.5c0.3,0.6,0.9,1.1,1.6,1.3c0.7,0.3,1.7,0.4,2.9,0.4c1.2,0,2.5-0.2,4-0.6
		v2.9c-1.5,0.4-3.1,0.6-4.6,0.6c-1.9,0-3.5-0.3-4.7-0.9c-1.2-0.6-2.2-1.5-2.8-2.7s-0.9-2.8-0.9-4.8c0-1.8,0.3-3.3,0.8-4.5
		c0.6-1.2,1.4-2.2,2.4-2.8s2.3-0.9,3.8-0.9c2.2,0,3.9,0.7,5,2.1s1.7,3.5,1.7,6.3V78.5z M366.6,72.7c-0.5,0.7-0.8,1.9-0.9,3.5h6.3
		c0-1.7-0.3-2.8-0.8-3.5c-0.5-0.7-1.3-1.1-2.3-1.1C367.9,71.6,367.1,72,366.6,72.7z"/>
	<path class="st0" d="M378.4,85v-2.9c1.6,0.5,3.2,0.7,4.9,0.7c1.1,0,2-0.2,2.5-0.5c0.5-0.3,0.8-0.8,0.8-1.5c0-0.5-0.1-0.9-0.4-1.2
		c-0.3-0.3-0.7-0.5-1.4-0.6l-2.4-0.5c-1.5-0.3-2.6-0.8-3.2-1.6c-0.7-0.7-1-1.7-1-3c0-1,0.3-1.9,0.8-2.6s1.3-1.3,2.4-1.7
		c1.1-0.4,2.4-0.6,4-0.6c1.5,0,2.8,0.2,4.1,0.5v2.9c-1.3-0.3-2.6-0.5-4-0.5c-2.4,0-3.6,0.7-3.6,2c0,0.5,0.1,0.8,0.4,1.1
		s0.7,0.5,1.4,0.6l2.4,0.5c1.5,0.3,2.6,0.8,3.2,1.5c0.7,0.7,1,1.7,1,3c0,1-0.3,1.9-0.8,2.7c-0.5,0.7-1.3,1.3-2.3,1.7
		c-1,0.4-2.3,0.6-3.7,0.6C381.5,85.7,379.8,85.5,378.4,85z"/>
	<path class="st0" d="M393.3,66.1c-0.4-0.4-0.6-0.9-0.6-1.6s0.2-1.2,0.6-1.6c0.4-0.4,1-0.5,1.8-0.5s1.4,0.2,1.8,0.5
		c0.4,0.4,0.6,0.9,0.6,1.6s-0.2,1.2-0.6,1.6s-1,0.5-1.8,0.5S393.7,66.4,393.3,66.1z M393.2,85.4V69.4h3.9v16.1H393.2z"/>
</g>
<g class="st1">
	<path class="st0" d="M404,84.9c-1-0.5-1.8-1.4-2.3-2.6s-0.9-2.7-0.9-4.5c0-2.8,0.7-5,2.2-6.4c1.4-1.5,3.6-2.2,6.3-2.2
		c0.7,0,1.4,0.1,2.2,0.2v-7.6h3.9v23.8h-3.3l-0.2-1.7h-0.2c-0.5,0.6-1.1,1.1-1.8,1.4s-1.6,0.5-2.5,0.5C406.1,85.7,405,85.4,404,84.9
		z M410.1,82.1c0.5-0.2,1-0.6,1.4-1.1v-8.8c-0.7-0.1-1.4-0.2-2.2-0.2c-1.6,0-2.7,0.4-3.5,1.3c-0.8,0.8-1.1,2.2-1.1,4.1
		c0,1.9,0.3,3.2,1,4c0.6,0.8,1.5,1.2,2.7,1.2C409,82.5,409.6,82.4,410.1,82.1z"/>
</g>
<g class="st1">
	<path class="st0" d="M432.7,78.5h-9.9c0,1,0.2,1.9,0.6,2.5c0.3,0.6,0.9,1.1,1.6,1.3c0.7,0.3,1.7,0.4,2.9,0.4c1.2,0,2.5-0.2,4-0.6
		v2.9c-1.5,0.4-3.1,0.6-4.6,0.6c-1.9,0-3.5-0.3-4.7-0.9s-2.2-1.5-2.8-2.7s-0.9-2.8-0.9-4.8c0-1.8,0.3-3.3,0.8-4.5
		c0.6-1.2,1.4-2.2,2.4-2.8c1.1-0.6,2.3-0.9,3.8-0.9c2.2,0,3.9,0.7,5,2.1c1.1,1.4,1.7,3.5,1.7,6.3V78.5z M423.6,72.7
		c-0.5,0.7-0.8,1.9-0.9,3.5h6.3c0-1.7-0.3-2.8-0.8-3.5c-0.5-0.7-1.3-1.1-2.3-1.1C424.9,71.6,424.1,72,423.6,72.7z"/>
</g>
<g class="st1">
	<path class="st0" d="M436,69.4h3.2l0.3,1.7h0.2c0.6-0.6,1.3-1.1,2.2-1.4c0.8-0.3,1.7-0.5,2.7-0.5c1.7,0,3,0.5,3.9,1.5
		c1,1,1.4,2.5,1.4,4.6v10.2H446v-10c0-1.1-0.2-1.8-0.7-2.3c-0.5-0.5-1.1-0.7-2-0.7c-0.6,0-1.3,0.1-1.9,0.4s-1.2,0.7-1.6,1.2v11.3
		H436V69.4z"/>
</g>
<g class="st1">
	<path class="st0" d="M455.3,83.7c-1.3-1.4-2-3.5-2-6.2c0-2.8,0.7-4.9,2.1-6.3c1.4-1.4,3.5-2,6.3-2c1.2,0,2.4,0.1,3.5,0.4v3.1
		c-1.1-0.2-2.1-0.3-3-0.3c-1.1,0-2.1,0.2-2.8,0.5c-0.7,0.3-1.3,0.9-1.6,1.6c-0.4,0.8-0.5,1.7-0.5,3c0,1.9,0.4,3.2,1.1,4
		s1.9,1.2,3.4,1.2c0.5,0,1,0,1.6-0.1c0.5-0.1,1.2-0.2,1.9-0.4v3.1c-1.3,0.4-2.6,0.6-4,0.6C458.6,85.7,456.6,85,455.3,83.7z"/>
</g>
<g class="st1">
	<path class="st0" d="M468.5,66.1c-0.4-0.4-0.6-0.9-0.6-1.6s0.2-1.2,0.6-1.6c0.4-0.4,1-0.5,1.8-0.5s1.4,0.2,1.8,0.5
		c0.4,0.4,0.6,0.9,0.6,1.6s-0.2,1.2-0.6,1.6s-1,0.5-1.8,0.5S468.9,66.4,468.5,66.1z M468.4,85.4V69.4h3.9v16.1H468.4z"/>
</g>
<g class="st1">
	<path class="st0" d="M485.8,69.7c1,0.4,1.8,1.1,2.3,2c0.5,0.9,0.7,2.2,0.7,3.8v9.9h-3.2l-0.3-1.7h-0.2c-0.5,0.6-1.1,1.1-1.9,1.4
		c-0.8,0.3-1.6,0.5-2.5,0.5c-1,0-2-0.2-2.7-0.6c-0.8-0.4-1.4-0.9-1.8-1.6c-0.4-0.7-0.6-1.5-0.6-2.4c0-1.5,0.5-2.6,1.5-3.5
		c1-0.8,2.6-1.3,4.8-1.5l3-0.3v-0.6c0-0.8-0.1-1.5-0.4-1.9c-0.3-0.5-0.7-0.8-1.2-1s-1.3-0.3-2.2-0.3c-0.7,0-1.4,0.1-2.1,0.2
		c-0.8,0.1-1.5,0.3-2.2,0.5v-3c0.7-0.2,1.5-0.4,2.4-0.5c0.9-0.1,1.7-0.2,2.6-0.2C483.5,69.1,484.8,69.3,485.8,69.7z M483.6,82.6
		c0.5-0.2,1-0.6,1.4-1v-3.4l-2.6,0.2c-1,0.1-1.8,0.3-2.2,0.7s-0.7,0.9-0.7,1.6c0,0.7,0.2,1.2,0.6,1.6s1,0.6,1.8,0.6
		C482.5,83,483.1,82.8,483.6,82.6z"/>
</g>
<g>
	<path class="st2" d="M38.1,59.8h-6.7c-1,0.1-2-0.3-2.7-1.1c-0.4-0.5-0.6-1-0.7-1.7c0,0,0-0.1,0-0.2c-0.1-0.7,0-1.3,0.1-2
		c0.6-3.3,2-6.5,4.1-9.1c-0.2,0-0.3-0.1-0.5-0.2c-0.9-0.6-1.4-1.7-1.2-2.8c0.3-1.2,1-2.3,1.9-3.2c1.6-1.7,3.8-2.8,6.2-2.8
		c3.1-0.1,6,1.6,7.4,4.5c2.2,4.4,3.6,9.2,4.2,14.1v0.2c0.1,0.5,0.1,1.1-0.1,1.7c0,0,0,0.1,0,0.2c-0.1,0.4-0.4,0.8-0.7,1.2
		c-0.7,0.7-1.6,1.2-2.6,1.3c-0.4,0.1-0.8,0.1-1.2,0.1h-5.5v9.5H70c0-5.4-0.8-10.8-2.4-16c-1.5-4.7-3.7-9.1-6.7-13
		c-2.6-3.6-6-6.5-9.8-8.7c-7.4-4.3-16.5-4.3-23.9,0c-3.8,2.2-7.2,5.2-9.8,8.7c-2.9,3.9-5.2,8.3-6.7,13c-1.6,5.2-2.5,10.6-2.4,16
		h29.9L38.1,59.8z"/>
</g>
<g>
	<path class="st3" d="M8.2,69.3c0,4.1,0.5,8.2,1.4,12.3C23,80.1,31,78.5,33.4,76.9c1.3-1.1,3-1.8,4.8-1.8v-5.8H8.2z"/>
</g>
<g>
	<path class="st3" d="M40.1,75.3c1.1,0.2,2.1,0.5,3.1,1h0.3c1.8,0,3.6,0.4,5.2,1.2c0.5,0.2,1.2,0.4,1.9,0.7c0.3,0.1,9.9,3.1,18,3.6
		c1-4.1,1.5-8.2,1.5-12.4H40.1V75.3z"/>
</g>
<g>
	<path class="st0" d="M37.2,23.1"/>
</g>
<g>
	<path class="st3" d="M52.3,88.4c-0.1,0.3-0.3,0.6-0.5,0.8c-0.5,0.5-1.3,0.8-2,0.8c-0.1,0.3-0.3,0.5-0.5,0.8c-0.7,0.7-1.6,1.1-2.6,1
		c-0.1,0.3-0.3,0.5-0.5,0.7c-0.7,0.7-1.6,1-2.5,0.8c-0.3,0.3-0.6,0.5-1,0.6c-0.8,0.3-1.6,0.4-2.4,0.2v8c0,0.6-0.4,1-1,1s-1-0.4-1-1
		v-7.6c-0.4,0.2-0.8,0.2-1.3,0.2c-0.2,0-0.4,0-0.5,0c-0.6-0.1-1.1-0.4-1.4-0.9c-0.9,0.2-1.9,0.1-2.7-0.4c-0.3-0.2-0.6-0.6-0.8-0.9
		c-0.3,0-0.6-0.1-0.9-0.2c-0.8-0.2-1.4-0.7-1.8-1.5l-0.7-0.1c-0.8-0.1-1.6-0.5-2-1.3C26,89.3,26,89.1,26,88.9
		c-4.3,2.2-9.1,4.4-11.3,5.3c0.8,1.4,1.8,2.8,2.8,4.2c2.6,3.5,5.9,6.4,9.8,8.6c1.7,0.9,3.4,1.7,5.3,2.2c0.2-0.3,0.5-0.6,0.8-0.9
		c1.7-1.1,5-0.3,5.9,0c0.9-0.3,4.2-1.1,5.9,0c0.3,0.2,0.6,0.5,0.8,0.9c1.8-0.5,3.6-1.3,5.3-2.2c3.8-2.2,7.2-5.2,9.8-8.7
		c0.9-1.2,1.8-2.5,2.6-3.9C61.1,93.4,55.8,91,52.3,88.4"/>
</g>
<g>
	<path class="st2" d="M41.9,115.5c0.1-0.2,0.1-0.5,0.1-0.7c0-0.2,0-0.4-0.1-0.6c1.3-0.2,2.6-0.8,3.5-1.8c0.5-0.6,0.8-1.4,0.7-2.3
		c-0.1-0.7-0.5-1.4-1.1-1.7c-1.7-1.1-5-0.3-5.9,0c-0.9-0.3-4.2-1.1-5.9,0c-0.6,0.4-1,1-1.1,1.8c-0.1,0.8,0.1,1.6,0.7,2.3
		c1,1,2.2,1.6,3.6,1.8c0,0.2-0.1,0.4-0.1,0.6c0,0.2,0,0.5,0.1,0.7c-1.8,1.7-4.1,2.8-6.5,3.2l0,0c0.3,0.4,0.6,0.9,1,1.2
		c2.3-0.5,4.4-1.5,6.2-3.2c0.1,0.1,0.2,0.2,0.3,0.3c-0.2,0.8-1.1,3-4.8,3.9c0.7,0.3,1.5,0.5,2.2,0.6c1.8-0.7,3.2-2.2,3.8-4
		c0.2,0,0.4,0.1,0.6,0.1c0.2,0,0.4,0,0.5,0c0.6,1.8,2,3.3,3.8,4c0.8-0.1,1.5-0.3,2.2-0.6c-3.7-0.9-4.6-3-4.8-3.9
		c0.1-0.1,0.2-0.2,0.3-0.3c1.7,1.6,3.9,2.7,6.2,3.1c0.4-0.3,0.7-0.8,1-1.2C45.9,118.4,43.6,117.3,41.9,115.5"/>
</g>
<g>
	<path class="st3" d="M44.3,109.5c0.3,0.2,0.4,0.5,0.5,0.8c0.1,0.5-0.1,0.9-0.4,1.3c-0.5,0.5-1.1,0.9-1.7,1.1c0.3-0.6,0.4-1.3,0.1-2
		c-0.2-0.6-0.6-1.1-1.1-1.4C42.6,109.1,43.5,109.2,44.3,109.5"/>
</g>
<g>
	<path class="st3" d="M36.7,111.1c0.5-1.3,2.4-1.4,2.5-1.4l0,0c0.4,0,0.7,0.1,1.1,0.2c0.6,0.2,1.1,0.6,1.4,1.2
		c0.1,0.6-0.1,1.2-0.6,1.6c-1.1-1-2.7-1-3.7,0C36.8,112.3,36.6,111.7,36.7,111.1"/>
</g>
<g>
	<path class="st3" d="M35.6,112.6c-0.7-0.2-1.3-0.6-1.7-1.1c-0.3-0.3-0.4-0.8-0.4-1.3c0-0.3,0.2-0.6,0.5-0.8
		c0.5-0.3,1.1-0.4,1.7-0.4c0.3,0,0.6,0,0.9,0c-0.5,0.4-0.9,0.8-1.1,1.4C35.2,111.2,35.2,112,35.6,112.6"/>
</g>
<g>
	<path class="st3" d="M37.7,114.8c0-0.8,0.7-1.5,1.5-1.5c0.8,0,1.5,0.7,1.5,1.5c0,0.8-0.7,1.5-1.5,1.5l0,0
		C38.3,116.3,37.7,115.7,37.7,114.8"/>
</g>
<g>
	<path class="st3" d="M47.4,119.9c-2.3-0.5-4.4-1.5-6.2-3.1c-0.1,0.1-0.2,0.2-0.3,0.3c0.2,0.8,1.1,3,4.8,3.9
		C46.3,120.7,46.9,120.3,47.4,119.9"/>
</g>
<g>
	<path class="st3" d="M37,116.7c-1.7,1.6-3.9,2.7-6.2,3.1c0.5,0.4,1.1,0.8,1.7,1.1c3.7-0.9,4.6-3.1,4.8-3.9
		C37.2,116.9,37.1,116.8,37,116.7"/>
</g>
<g>
	<path class="st0" d="M76.5,77.3c0-0.2-0.1-0.4-0.2-0.6c-0.1-0.1-0.3-0.2-0.4-0.2c0.1-0.3,0.2-0.6,0.3-0.8c0.5-1.4,0.8-2.9,0.8-4.3
		c0-0.4-0.3-0.7-0.6-0.7c0,0,0,0-0.1,0c0.1-0.3,0.2-0.5,0.2-0.8c0.4-1.4,0.4-2.9,0.3-4.4c0-0.2-0.1-0.4-0.3-0.5
		c-0.1-0.1-0.3-0.1-0.5-0.1c0.1-0.3,0.2-0.7,0.2-1c0.2-1.5,0.2-3-0.1-4.4C76,59.2,75.7,59,75.4,59c0-0.2,0.1-0.5,0.1-0.7
		c0.1-1.5,0-3-0.3-4.4c-0.1-0.3-0.4-0.6-0.8-0.5c-0.1,0-0.1,0.1-0.2,0.1l0,0c0-0.4,0-0.7,0-1.1c-0.1-1.5-0.4-2.9-0.9-4.3
		c-0.1-0.2-0.3-0.4-0.5-0.4c-0.2,0-0.3,0-0.5,0.1c0-0.3,0-0.7-0.1-1c-0.2-1.5-0.7-2.9-1.4-4.2c-0.1-0.2-0.3-0.3-0.5-0.3
		c-0.2,0-0.3,0-0.5,0.2c0-0.3-0.1-0.6-0.2-0.9c-0.4-1.4-1-2.8-1.9-4c-0.1-0.2-0.3-0.3-0.5-0.3c-0.2,0-0.4,0.1-0.5,0.3
		c-0.1-0.4-0.2-0.7-0.4-1.1c-0.6-1.3-1.5-2.6-2.5-3.7c-0.2-0.2-0.4-0.2-0.6-0.2c-0.2,0-0.3,0.1-0.4,0.2c-0.2-0.3-0.4-0.7-0.6-1
		c-0.8-1.2-1.8-2.3-3-3.2c-0.2-0.1-0.4-0.2-0.6-0.1c-0.2,0.1-0.3,0.2-0.4,0.3c-0.9-1.2-2.1-2-3.5-2.5c0.3,0,0.5,0,0.8,0.1
		c1,0.1,2.1,0,3.1-0.3c0.4-0.1,0.6-0.5,0.6-0.9c0-0.4-0.4-0.7-0.8-0.7c-1.3,0-2.5-0.3-3.6-1c-0.2-0.1-0.4-0.2-0.5-0.3l4.5-0.7
		c0.4,0,0.8-0.5,0.7-0.9c0-0.4-0.3-0.7-0.7-0.7l-4.5-0.6c0.5-0.1,1.1-0.3,1.8-0.5c1-0.3,1.9-0.8,2.7-1.5c0.3-0.3,0.3-0.8,0-1.1
		c-0.2-0.2-0.5-0.3-0.8-0.2c-1.2,0.5-2.4,0.7-3.7,0.5l-0.6-0.1l3.9-2.4c0.3-0.2,0.5-0.6,0.3-1c-0.2-0.4-0.6-0.6-1-0.5l-4.4,1.1
		c0.4-0.3,0.9-0.7,1.4-1.2c0.8-0.7,1.5-1.5,2-2.4c0.2-0.3,0.1-0.8-0.2-1c-0.3-0.2-0.7-0.2-1,0c-0.9,0.9-2,1.5-3.2,1.8l-0.6,0.2
		l2.7-3.7c0.2-0.3,0.2-0.7-0.1-1c-0.3-0.3-0.7-0.3-1.1-0.1l-3.7,2.8c0.3-0.5,0.6-1,0.9-1.6c0.5-0.9,0.8-1.9,0.9-2.9
		c0.1-0.4-0.2-0.8-0.6-0.9c-0.4-0.1-0.8,0.1-1,0.4c-0.5,1.2-1.3,2.2-2.3,3l-0.5,0.4l1.1-4.4c0.1-0.4-0.2-0.9-0.6-1
		c-0.3-0.1-0.7,0.1-0.9,0.4l-2.4,4c0.1-0.6,0.1-1.2,0.2-1.9c0.1-1,0-2.1-0.3-3.1c-0.2-0.4-0.6-0.7-1-0.5c-0.3,0.1-0.5,0.4-0.5,0.7
		c0,1.3-0.3,2.5-1,3.6l-0.3,0.5l-0.7-4.5c-0.1-0.4-0.4-0.7-0.8-0.7l0,0c-0.4,0-0.7,0.3-0.8,0.7l-0.6,4.5c-0.1-0.5-0.3-1.1-0.5-1.7
		c-0.3-1-0.8-2-1.4-2.8c-0.3-0.3-0.8-0.4-1.1-0.1c-0.3,0.2-0.4,0.6-0.3,0.9c0.5,1.2,0.6,2.4,0.5,3.7c0,0.2,0,0.4-0.1,0.6l-2.4-3.9
		c-0.2-0.3-0.6-0.5-1-0.3c-0.4,0.2-0.6,0.6-0.5,1L32,8.5c-0.3-0.4-0.7-0.9-1.2-1.4c-0.7-0.8-1.5-1.5-2.4-2c-0.4-0.2-0.9-0.1-1.1,0.3
		c-0.2,0.3-0.1,0.7,0.1,1c0.9,0.9,1.5,2,1.8,3.2l0.2,0.6l-3.7-2.7c-0.3-0.2-0.8-0.2-1.1,0.1c-0.3,0.3-0.3,0.7-0.1,1l2.7,3.7
		c-0.5-0.3-1-0.6-1.6-0.9c-0.9-0.5-2-0.8-3-0.9c-0.4-0.1-0.9,0.2-1,0.6c-0.1,0.4,0.2,0.9,0.6,1c1.2,0.5,2.2,1.3,2.9,2.3l0.4,0.5
		l-4.5-1.1c-0.4-0.1-0.9,0.2-1,0.6c-0.1,0.3,0.1,0.7,0.4,0.9l4,2.4c-0.5-0.1-1.2-0.1-1.9-0.2c-1-0.1-2.1,0-3.1,0.3
		c-0.4,0.1-0.7,0.6-0.6,1c0.1,0.3,0.4,0.6,0.8,0.6c1.3,0,2.5,0.3,3.6,1c0.2,0.1,0.3,0.2,0.5,0.3l-4.5,0.7c-0.4,0-0.8,0.5-0.7,0.9
		c0,0.4,0.3,0.7,0.7,0.7l4.5,0.7c-0.5,0.1-1.1,0.3-1.8,0.5c-1,0.3-1.9,0.8-2.7,1.5c-0.3,0.3-0.4,0.8-0.1,1.1
		c0.2,0.2,0.6,0.3,0.9,0.2c0.8-0.3,1.6-0.5,2.4-0.5c-0.7,0.6-1.4,1.3-2,2c-0.2,0.2-0.4,0.5-0.5,0.7c-0.1-0.1-0.2-0.2-0.3-0.3
		c-0.2-0.1-0.4,0-0.6,0.1c-1.2,0.9-2.2,2-3,3.2c-0.2,0.3-0.4,0.7-0.6,1c-0.2-0.3-0.6-0.4-0.9-0.2c0,0-0.1,0.1-0.1,0.1
		c-1,1.1-1.9,2.3-2.5,3.7c-0.1,0.3-0.3,0.7-0.4,1c-0.2-0.3-0.6-0.3-0.9,0c0,0-0.1,0.1-0.1,0.1c-0.9,1.2-1.6,2.5-2,3.9
		c-0.1,0.3-0.2,0.7-0.2,1c-0.1-0.1-0.3-0.2-0.5-0.2c-0.2,0-0.4,0.1-0.5,0.3C6.8,44,6.3,45.4,6,46.9c0,0.3-0.1,0.7-0.1,1
		c-0.2-0.1-0.4-0.2-0.5-0.1c-0.2,0-0.4,0.2-0.5,0.4C4.4,49.6,4.1,51,4,52.5c0,0.3,0,0.7,0,1c-0.3-0.2-0.7-0.1-0.9,0.1
		C3.1,53.7,3,53.8,3,53.9c-0.4,1.4-0.5,2.9-0.3,4.4c0,0.2,0.1,0.5,0.1,0.8c-0.1,0-0.2,0-0.3,0c-0.2,0.1-0.3,0.3-0.4,0.5
		c-0.3,1.5-0.3,3,0,4.5c0,0.3,0.1,0.7,0.2,1c-0.1,0-0.2,0-0.3,0c-0.2,0.1-0.3,0.3-0.4,0.5c-0.2,1.5-0.2,3,0.1,4.4
		c0.1,0.3,0.1,0.6,0.2,0.8c-0.1,0-0.3,0-0.4,0.1c-0.2,0.1-0.3,0.3-0.3,0.5c-0.1,1.5,0.2,3,0.6,4.4c0.1,0.4,0.3,0.7,0.4,1.1H2.2
		c-0.3-0.1-0.7,0.1-0.8,0.4c0,0.1,0,0.2,0,0.3c0.2,1.5,0.7,2.9,1.4,4.2c0.1,0.2,0.2,0.4,0.4,0.7c-0.1,0-0.2,0.1-0.3,0.2
		c-0.2,0.2-0.2,0.4-0.2,0.6c0.3,1.4,0.9,2.8,1.7,4.1C4.6,87.5,4.8,87.8,5,88c-0.2,0-0.3,0.1-0.4,0.2c-0.1,0.2-0.2,0.4-0.1,0.6
		c0.5,1.4,1.2,2.7,2.1,3.9C6.8,93,7,93.2,7.2,93.4c-0.2,0-0.3,0.1-0.4,0.3c-0.1,0.2-0.1,0.4,0,0.6c0.7,1.3,1.5,2.6,2.6,3.6
		c0.2,0.2,0.4,0.4,0.6,0.6c-0.1,0.1-0.3,0.2-0.3,0.3c-0.1,0.2-0.1,0.4,0,0.6c0.8,1.3,1.8,2.4,2.9,3.3c0.3,0.3,0.6,0.5,1,0.7h-0.1
		c-0.2,0.1-0.4,0.2-0.4,0.5c-0.1,0.2,0,0.4,0.2,0.6c1,1.1,2.2,2,3.4,2.7c0.9,0.5,1.8,0.9,2.8,1.1c0.8,0.1,1.5,0.1,2.3,0
		c0,0,0.1,0,0.1,0c2,1.4,4.1,2.6,6.3,3.5c1.8,0.8,3.7,1.3,5.6,1.8l1.1,0.2c-0.8-0.3-1.6-0.7-2.1-1.4c-0.1-0.1-0.2-0.2-0.2-0.4
		c-1.3-0.4-2.6-0.8-3.8-1.3c-2.1-0.9-4.1-2-6-3.3v-0.1c0-0.7,0-1.3-0.2-2c1.3,1,2.6,2,4,2.8c1.8,1,3.7,1.8,5.7,2.4
		c0-0.1,0-0.2,0-0.3c0-0.3,0.1-0.6,0.3-0.9c-1.8-0.5-3.6-1.3-5.2-2.2c-3.8-2.2-7.2-5.2-9.8-8.7c-1-1.3-1.9-2.7-2.8-4.2
		c2.2-1,7-3.2,11.3-5.3c0,0.2,0.1,0.4,0.2,0.6c0.4,0.7,1.2,1.2,2,1.3l0.7,0.1c0.3,0.7,1,1.3,1.8,1.5c0.3,0.1,0.6,0.2,0.9,0.2
		c0.1,0.4,0.4,0.7,0.7,0.9c0.8,0.4,1.8,0.6,2.7,0.4c0.4,0.4,0.9,0.8,1.4,0.9c0.2,0,0.4,0,0.5,0c0.4,0,0.9-0.1,1.3-0.2v7.7
		c0,0.6,0.4,1,1,1s1-0.4,1-1v-8c0.8,0.2,1.6,0.1,2.4-0.2c0.4-0.1,0.7-0.3,1-0.6c0.9,0.2,1.9-0.1,2.5-0.8c0.2-0.2,0.4-0.5,0.5-0.7
		c1,0.1,2-0.3,2.6-1c0.2-0.2,0.4-0.5,0.5-0.8c0.7,0,1.5-0.3,2-0.8c0.2-0.2,0.4-0.5,0.5-0.8c3.4,2.7,8.8,5,11.2,6
		c-0.8,1.3-1.7,2.6-2.6,3.9c-2.6,3.5-5.9,6.5-9.8,8.7c-1.7,0.9-3.4,1.7-5.3,2.2c0.1,0.3,0.2,0.6,0.3,0.9c0,0.1,0,0.2,0,0.3
		c2-0.6,3.9-1.4,5.7-2.4c1.4-0.8,2.7-1.8,4-2.8c-0.2,0.7-0.3,1.3-0.2,2c0,0,0,0.1,0,0.1c-1.4,1-2.9,1.9-4.4,2.7
		c-1.7,0.8-3.5,1.5-5.3,2l-0.2,0.1c-0.1,0.1-0.1,0.2-0.2,0.3c-0.6,0.7-1.3,1.1-2.2,1.4c1-0.2,2-0.4,3-0.6c1.9-0.5,3.7-1.2,5.5-2.1
		c1.6-0.8,3.2-1.7,4.6-2.8h0.1c0.8,0.1,1.5,0.1,2.3,0c1-0.2,1.9-0.6,2.8-1.1c1.3-0.7,2.5-1.7,3.5-2.8c0.2-0.2,0.2-0.4,0.2-0.6
		c-0.1-0.2-0.2-0.4-0.4-0.5h-0.1c0.3-0.2,0.7-0.4,1-0.7c1.2-0.9,2.2-2.1,2.9-3.3c0.1-0.2,0.1-0.4,0-0.6c-0.1-0.1-0.2-0.3-0.3-0.3
		c0.2-0.2,0.4-0.4,0.6-0.6c1.1-1,1.9-2.3,2.6-3.6c0.1-0.2,0.1-0.4,0-0.6c-0.1-0.2-0.3-0.3-0.5-0.3c0.2-0.2,0.4-0.5,0.7-0.7
		c0.9-1.2,1.6-2.5,2.1-3.9c0.1-0.3,0-0.7-0.4-0.8c-0.1,0-0.1,0-0.2,0l0,0c0.2-0.2,0.4-0.5,0.5-0.7c0.8-1.2,1.4-2.6,1.7-4.1
		c0.1-0.3-0.1-0.7-0.4-0.8c-0.1,0-0.1,0-0.2,0c0.2-0.3,0.3-0.6,0.5-0.9C76,80.2,76.4,78.8,76.5,77.3 M75.8,72.3L75.8,72.3
		c-0.1,1-0.3,2-0.6,3c-0.3,0.9-0.8,1.7-1.3,2.3c-0.4,0.5-1,1-1.6,1.3l0,0l0,0c-0.9-1.3-1.4-2.8-1.3-4.4c0-0.6,0.1-1.1,0.2-1.7l0,0
		l0,0c0.5,0.7,0.9,1.5,1.2,2.3c0.1,0.2,0.2,0.3,0.4,0.3c0.2,0,0.4-0.1,0.5-0.3C73.8,74.1,74.7,73.1,75.8,72.3L75.8,72.3 M75.6,66.5
		L75.6,66.5L75.6,66.5c0,1-0.1,2-0.3,3c-0.2,0.9-0.5,1.7-1,2.5c-0.4,0.6-0.9,1.1-1.4,1.5l0,0c-1.6-1.8-1.7-4.4-1.7-5.8l0,0l0,0
		c0.5,0.6,1,1.3,1.4,2c0.1,0.2,0.3,0.3,0.4,0.3c0.2,0,0.4-0.1,0.4-0.3C73.9,68.4,74.7,67.3,75.6,66.5 M75,60.7L75,60.7L75,60.7
		c0.1,1,0.1,2.1,0,3.1c-0.1,0.9-0.4,1.8-0.8,2.6c-0.3,0.6-0.8,1.2-1.3,1.6l0,0c-1.6-1.3-2-4-2.2-5.6l0,0l0,0
		c0.6,0.6,1.1,1.2,1.6,1.9c0.1,0.3,0.3,0.4,0.6,0.4s0.4-0.3,0.4-0.6C73.5,62.7,74.1,61.6,75,60.7 M74.1,55.1L74.1,55.1L74.1,55.1
		c0.2,1,0.2,2,0.1,3.1c-0.1,0.9-0.3,1.8-0.7,2.6c-0.3,0.6-0.7,1.2-1.2,1.7l0,0c-1.1-1-1.9-2.4-2.2-3.9c-0.1-0.5-0.2-1.1-0.3-1.6l0,0
		l0,0c0.6,0.5,1.2,1.2,1.7,1.8c0.1,0.2,0.3,0.2,0.5,0.2c0.2,0,0.3-0.2,0.4-0.4C72.6,57.3,73.2,56.1,74.1,55.1 M29.7,55.5
		c0-0.1,0-0.2,0-0.2c0.5-2.9,1.7-5.6,3.4-7.9c0.6-0.8,1.3-1.5,2-2.2c0.1-0.1,0.2-0.2,0.4-0.3c0.4-0.3,0.4-0.9,0.1-1.2
		c-0.3-0.4-0.8-0.5-1.2-0.2l-0.4,0.3c-0.8,0.6-1.3,0.4-1.5,0.3c-0.3-0.2-0.4-0.6-0.3-1c0.3-0.9,0.8-1.6,1.4-2.3l0,0
		c1.3-1.4,3-2.2,4.9-2.2h0.1c0.7,0,1.4,0.1,2.1,0.3c1.7,0.5,3,1.7,3.8,3.2c1.2,2.3,2.1,4.6,2.7,7.1c-1.1-0.4-2.1-1-3-1.7
		c-0.4-0.3-1-0.3-1.3,0.1c-0.2,0.2-0.2,0.4-0.2,0.7c0,0.2,0.1,0.5,0.3,0.6c1.4,1.1,3,1.9,4.7,2.3c0.2,0.8,0.3,1.7,0.5,2.7
		c-0.8-0.4-1.6-0.6-2.5-0.8c-0.5-0.1-0.9-0.3-1.4-0.4c-1.1-0.5-2.2-1.1-3.2-1.8c-0.4-0.3-1-0.2-1.3,0.2c-0.3,0.4-0.2,1,0.2,1.3
		c1.1,0.8,2.3,1.5,3.6,2.1c0.5,0.2,1.1,0.4,1.6,0.5c2.2,0.6,3.1,1,3.2,2.1c-0.1,0.2-0.2,0.3-0.3,0.5c-0.8,0.6-1.8,0.9-2.7,0.8h-2.1
		c-1.5,0-3-0.5-4.3-1.2c-4.6-3-6.7-2.5-9.3-1.4 M37.6,58.1h-6.2c-0.5,0-1-0.1-1.3-0.5c-0.1-0.1-0.1-0.2-0.1-0.2
		C32.5,56.2,33.9,55.8,37.6,58.1 M40.1,69.3v-9.5h5.5c0.4,0,0.8,0,1.2-0.1c1-0.1,1.9-0.6,2.6-1.3c0.3-0.3,0.5-0.7,0.7-1.2
		c0,0,0-0.1,0-0.2c0.1-0.5,0.1-1.1,0.1-1.7v-0.2c-0.5-4.9-2-9.7-4.2-14.1c-1.4-2.9-4.3-4.6-7.5-4.5c-2.4,0.1-4.6,1.1-6.2,2.8
		c-0.9,0.9-1.5,2-1.9,3.2c-0.3,1.1,0.2,2.2,1.2,2.8c0.1,0.1,0.3,0.2,0.5,0.2c-2.1,2.7-3.5,5.8-4.1,9.2c-0.1,0.7-0.2,1.3-0.1,2
		c0,0,0,0.1,0,0.2c0.1,0.6,0.3,1.2,0.7,1.7c0.7,0.8,1.7,1.2,2.7,1.1h6.7v15.3c-1.7,0-3.4,0.7-4.8,1.8C31,78.5,23,80.1,9.6,81.6
		c-0.9-4-1.4-8.1-1.4-12.3c0-5.4,0.8-10.8,2.4-16c1.5-4.7,3.7-9.1,6.7-13c2.6-3.6,6-6.5,9.8-8.7c7.4-4.3,16.5-4.3,23.9,0
		c3.8,2.2,7.2,5.2,9.8,8.7c2.9,3.9,5.2,8.3,6.7,13c1.6,5.2,2.5,10.6,2.4,16c0,4.2-0.5,8.4-1.4,12.4c-8.1-0.5-17.8-3.5-18-3.6
		c-0.7-0.2-1.3-0.5-1.9-0.7c-1.6-0.7-3.4-1.1-5.2-1.2h-0.3c-1-0.5-2-0.8-3.1-1L40.1,69.3z M52.8,26.5c-0.7,0.3-1.4,0.5-2.1,0.6
		c-0.5,0.1-1,0.1-1.6,0.1c-1.1,0-2.1-0.3-3-0.9l0,0l0,0c0.5-0.3,1.1-0.6,1.8-0.7c0.8-0.2,1.7-0.2,2.5-0.1
		C51.2,25.8,52,26.1,52.8,26.5L52.8,26.5L52.8,26.5 M53.9,29.8L53.9,29.8L53.9,29.8c-0.5,0.2-1,0.3-1.5,0.3h-0.2
		c-1.5,0-2.9-0.6-4-1.5l0,0l0,0c0.6-0.2,1.1-0.3,1.7-0.3C51.4,28.1,52.9,28.7,53.9,29.8 M47.6,24.7c-0.9,0.4-1.9,0.7-2.9,0.8
		c-0.2,0-0.4,0.2-0.4,0.4c0,0.2,0,0.4,0.2,0.5c0.7,0.5,1.3,1.1,1.9,1.8l0,0l0,0l0,0c-2.2,0-4.2-0.9-5.6-2.6l0,0
		c0.4-0.4,1-0.7,1.5-0.9C44,24,45.9,24,47.6,24.7L47.6,24.7L47.6,24.7 M41.6,23.6c-0.8,0.6-1.8,1.1-2.8,1.4
		c-0.2,0.1-0.3,0.2-0.3,0.5c0,0.2,0.1,0.4,0.3,0.5c0.8,0.3,1.5,0.7,2.2,1.3l0,0l0,0c-0.3,0-0.7,0.1-1.2,0.1
		c-1.7,0.1-3.4-0.4-4.8-1.3l0,0c0.3-0.5,0.8-0.9,1.3-1.2c1.6-0.9,3.5-1.2,5.3-1l0,0l0,0 M35.4,23.8c-0.7,0.8-1.5,1.5-2.4,1.9
		c-0.2,0.1-0.3,0.4-0.2,0.6c0.1,0.1,0.2,0.2,0.3,0.3c0.8,0.2,1.6,0.4,2.4,0.8l0,0l0,0c-0.5,0.2-1,0.3-1.6,0.4
		c-0.5,0.1-1.1,0.1-1.7,0.1c-1,0-2-0.2-2.9-0.6l0,0c0.2-0.6,0.6-1.1,1-1.5C31.8,24.6,33.6,23.9,35.4,23.8L35.4,23.8L35.4,23.8
		 M27.5,27.5c-0.2,0.1-0.2,0.3-0.1,0.5c0.1,0.2,0.3,0.3,0.5,0.3l0,0c0.4,0,0.8,0,1.2,0.1c0.4,0.1,0.9,0.1,1.3,0.3l0,0l0,0
		c-0.5,0.2-1,0.5-1.5,0.6c-0.9,0.3-1.9,0.5-2.9,0.5c-0.6,0-1.1-0.1-1.7-0.2l0,0c0.2-1,1.1-3.5,5.4-5l0,0l0,0c-0.5,1.1-1.2,2-2.2,2.8
		 M71.2,53.1c0.1-1.3,0.5-2.6,1.2-3.7l0,0l0,0c0.3,1,0.5,2,0.6,3c0,0.9-0.1,1.8-0.4,2.7c-0.2,0.7-0.6,1.3-1,1.8l0,0
		c-1.3-0.9-2.3-2.1-2.8-3.6c-0.2-0.5-0.4-1-0.5-1.6l0,0l0,0c0.7,0.4,1.4,1,2,1.6c0.1,0.1,0.3,0.2,0.5,0.1
		C71,53.5,71.1,53.3,71.2,53.1 M69.2,47.9c-0.1-1.3,0.2-2.6,0.8-3.8l0,0l0,0c0.5,0.9,0.8,1.9,1,2.9c0.1,0.9,0.1,1.8-0.1,2.7
		c-0.1,0.7-0.4,1.3-0.8,1.9l0,0l0,0c-1.4-0.7-2.5-1.9-3.1-3.3c-0.2-0.5-0.5-1-0.6-1.5l0,0l0,0c0.8,0.4,1.5,0.8,2.1,1.4
		c0.2,0.2,0.5,0.1,0.7-0.1C69.2,48.1,69.3,47.9,69.2,47.9 M66.6,43.3L66.6,43.3c0.2-0.1,0.3-0.3,0.2-0.5c-0.2-1.3-0.1-2.6,0.3-3.9
		l0,0l0,0c0.5,0.9,0.9,1.8,1.2,2.8c0.2,0.9,0.3,1.8,0.2,2.7c-0.1,0.7-0.3,1.4-0.6,2l0,0c-1.5-0.5-2.8-1.6-3.6-2.9
		c-0.3-0.5-0.6-1-0.8-1.5l0,0l0,0c0.8,0.3,1.6,0.7,2.3,1.2C66.2,43.4,66.4,43.4,66.6,43.3 M63,38.8c0.2,0.1,0.4,0.1,0.6,0
		c0.2-0.1,0.2-0.3,0.2-0.5c-0.4-1.2-0.4-2.5-0.2-3.8l0,0l0,0c0.7,0.8,1.2,1.6,1.7,2.6c0.4,0.8,0.6,1.7,0.7,2.6c0,0.7,0,1.4-0.2,2
		l0,0l0,0c-1.5-0.3-2.9-1.1-3.9-2.3c-0.4-0.4-0.8-0.8-1.1-1.3l0,0l0,0C61.4,38.1,62.2,38.4,63,38.8 M59.4,34.7
		c0.2,0.1,0.5,0.1,0.7-0.2c0.1-0.2,0.1-0.4-0.1-0.6c-0.6-1.1-0.9-2.4-0.9-3.7l0,0l0,0c0.8,0.7,1.4,1.4,2,2.3
		c0.5,0.7,0.9,1.6,1.2,2.5c0.2,0.7,0.2,1.4,0.1,2.1l0,0h-0.1c-1.5-0.1-2.9-0.7-4-1.6c-0.5-0.4-0.9-0.8-1.4-1.2l0,0l0,0h0.2
		C57.9,34.3,58.7,34.4,59.4,34.7 M58,30.9c0.3,0.7,0.4,1.5,0.4,2.3l0,0h-0.2c-2,0-4.2-1.3-5.5-2.1l0,0l0,0c0.8-0.1,1.6-0.1,2.4,0
		c0.2,0.1,0.4,0,0.5-0.2c0.1-0.2,0.1-0.4,0-0.5c-0.7-0.9-1.2-1.8-1.5-2.9l0,0l0,0C55.9,28,57.3,29.3,58,30.9 M22.3,25.1l0.3-0.1
		c0.9-0.3,1.9-0.6,2.8-0.8c0.8-0.2,1.5-0.5,2.2-0.9c0.1-0.1,0.2-0.2,0.2-0.4c0-0.1-0.1-0.2-0.3-0.2l-5.7-0.8l5.7-0.8
		c0.2,0,0.3-0.2,0.3-0.4c0-0.1-0.1-0.2-0.3-0.3c-0.9-0.2-1.7-0.4-2.5-0.8c-0.4-0.2-0.7-0.4-1-0.5c-0.5-0.3-1.1-0.5-1.6-0.7h0.3
		c1,0.1,1.9,0.2,2.9,0.3c0.8,0.1,1.6,0.1,2.4,0c0.1,0,0.2-0.1,0.3-0.3c0-0.1,0-0.3-0.2-0.3l-4.9-2.9l5.6,1.4c0.2,0,0.3,0,0.4-0.2
		c0.1-0.2,0-0.3-0.1-0.4c-0.7-0.5-1.4-1-2-1.7c-0.3-0.3-0.5-0.6-0.7-0.9c-0.4-0.5-0.8-0.9-1.2-1.2l0.3,0.1c0.9,0.4,1.7,0.9,2.5,1.4
		c0.7,0.4,1.4,0.8,2.2,1c0.1,0,0.3,0,0.4-0.1c0.1-0.1,0.1-0.3,0-0.4l-3.4-4.6l4.6,3.4c0.1,0.1,0.4,0.1,0.5-0.1
		c0.1-0.1,0.1-0.3,0-0.4c-0.5-0.7-0.9-1.5-1.2-2.3c-0.1-0.4-0.2-0.7-0.4-1.1c-0.1-0.6-0.4-1.1-0.6-1.7c0.1,0.1,0.1,0.1,0.2,0.2
		c0.6,0.7,1.3,1.5,1.8,2.3c0.5,0.6,1,1.2,1.6,1.7c0.1,0.1,0.3,0.1,0.4,0c0.1-0.1,0.2-0.2,0.1-0.4L32.5,6l3,4.9
		c0.1,0.1,0.3,0.2,0.4,0.1c0.1-0.1,0.2-0.2,0.2-0.4c-0.2-0.9-0.3-1.8-0.3-2.7c0-0.4,0-0.8,0.1-1.1C36,6.3,36,5.7,36,5.1
		c0,0.1,0.1,0.2,0.1,0.3c0.3,0.9,0.6,1.9,0.8,2.8c0.2,0.8,0.5,1.5,0.9,2.2c0.1,0.1,0.2,0.2,0.3,0.1c0.1,0,0.2-0.1,0.3-0.3l0.8-5.6
		l0.9,5.6c0,0.2,0.2,0.3,0.3,0.3c0.2,0,0.3-0.1,0.3-0.3c0.2-0.9,0.4-1.7,0.8-2.5c0.2-0.4,0.3-0.7,0.5-1c0.3-0.5,0.6-1.1,0.7-1.6
		c0,0.1,0,0.2,0,0.3c-0.1,1-0.2,1.9-0.3,2.9c-0.1,0.8-0.1,1.6,0,2.4c0,0.1,0.1,0.2,0.3,0.3c0.1,0,0.3,0,0.3-0.1L45.7,6l-1.4,5.6
		c0,0.2,0.1,0.4,0.2,0.4c0.1,0,0.3,0,0.4-0.1c0.5-0.7,1-1.4,1.7-2c0.3-0.3,0.6-0.5,0.8-0.7c0.5-0.4,0.9-0.8,1.3-1.2l-0.1,0.3
		c-0.4,0.9-0.9,1.7-1.4,2.6c-0.4,0.7-0.8,1.4-1,2.2c0,0.1,0,0.3,0.1,0.3c0.1,0.1,0.3,0.1,0.4,0l4.6-3.4l-3.4,4.6
		c-0.1,0.1-0.1,0.3,0,0.5c0.1,0.1,0.3,0.1,0.5,0l0,0c0.7-0.5,1.5-0.9,2.3-1.2c0.4-0.1,0.7-0.2,1.1-0.3c0.6-0.2,1.1-0.4,1.7-0.6
		l-0.2,0.2c-0.7,0.6-1.5,1.3-2.3,1.8c-0.7,0.5-1.2,1-1.7,1.6c-0.1,0.1-0.1,0.3,0,0.4c0.1,0.1,0.2,0.2,0.3,0.1l5.5-1.4l-4.9,2.9
		C50,18.4,50,18.6,50,18.7c0.1,0.2,0.2,0.2,0.4,0.2c0.9-0.2,1.7-0.3,2.6-0.3c0.4,0,0.8,0,1.1,0.1c0.6,0.1,1.2,0.1,1.8,0.1l-0.3,0.1
		c-0.9,0.3-1.9,0.6-2.8,0.8c-0.8,0.2-1.5,0.5-2.2,0.9c-0.1,0.1-0.2,0.2-0.1,0.3c0,0.1,0.1,0.2,0.3,0.3l5.7,0.8l-5.7,0.9
		c-0.2,0-0.3,0.2-0.3,0.3c0,0.2,0.1,0.3,0.3,0.3c0.9,0.2,1.7,0.4,2.5,0.8c0.4,0.2,0.7,0.3,1,0.5c0.5,0.3,1.1,0.5,1.6,0.7h-0.3
		c-1-0.1-1.9-0.2-2.9-0.4h-0.2c-1-0.4-2.1-0.7-3.1-0.7l0,0c0-0.2-0.2-0.4-0.4-0.5c-1.4-0.5-2.8-0.8-4.3-0.8c-0.5,0-0.9,0-1.4,0.1
		c0-0.1,0-0.1-0.1-0.2c-0.1-0.2-0.3-0.3-0.5-0.4c-1.4-0.2-2.9-0.2-4.4,0.1c-0.5,0.1-1,0.2-1.5,0.4c0-0.1-0.1-0.3-0.2-0.4
		c-0.1-0.1-0.3-0.2-0.5-0.2c-1.5,0.1-2.9,0.4-4.2,1c-0.3,0.1-0.6,0.3-0.9,0.5c0-0.2-0.1-0.3-0.2-0.4c-0.2-0.1-0.4-0.2-0.6-0.1
		c-1.4,0.4-2.8,1-4,1.8l-0.1,0c-0.3,0-0.6,0-0.9,0l-1.1-0.1C23.5,25.2,22.9,25.2,22.3,25.1 M23.9,26.8L23.9,26.8L23.9,26.8
		c-0.1,1.3-0.5,2.5-1.2,3.6c-0.1,0.2-0.1,0.4,0,0.5c0.1,0.2,0.3,0.2,0.5,0.2C24,31,24.8,31,25.6,31l0,0l0,0
		c-1.5,1.3-3.4,2.1-5.4,2.2H20l0,0C19.9,32.2,20.2,29.4,23.9,26.8 M16.1,35c0.2-0.9,0.6-1.7,1.1-2.5c0.6-0.9,1.3-1.6,2-2.3l0,0l0,0
		c0.1,1.3-0.2,2.6-0.8,3.8c-0.1,0.2-0.1,0.4,0.1,0.5c0.1,0.1,0.3,0.2,0.5,0.2c0.8-0.3,1.6-0.4,2.4-0.4l0,0l0,0
		c-0.4,0.5-0.9,0.9-1.4,1.3c-1.1,0.9-2.4,1.5-3.8,1.6H16l0,0C15.9,36.5,15.9,35.7,16.1,35 M14.8,34.4L14.8,34.4L14.8,34.4
		c0.2,1.3,0.1,2.6-0.3,3.8c-0.1,0.2,0,0.4,0.2,0.5c0.2,0.1,0.4,0.1,0.6,0c0.7-0.5,1.5-0.7,2.4-0.8l0,0l0,0c-0.9,1.2-2.7,3.3-5,3.7
		l0,0l0,0C12.3,40.6,11.9,37.8,14.8,34.4 M9.8,41.8c0.3-1,0.8-1.9,1.3-2.8l0,0l0,0c0.4,1.2,0.5,2.6,0.2,3.8c0,0.2,0.1,0.4,0.2,0.5
		c0.2,0.1,0.4,0.1,0.6-0.1c0.7-0.6,1.5-1,2.3-1.1l0,0l0,0c-0.3,0.5-0.6,1.1-0.9,1.6c-0.8,1.3-2,2.3-3.5,2.8l0,0l0,0
		c-0.3-0.6-0.4-1.3-0.5-2c0-0.9,0.1-1.8,0.4-2.7 M7.1,47c0.2-1,0.4-2,0.9-2.9l0,0l0,0l0,0c0.6,1.2,0.8,2.5,0.8,3.8
		c0,0.3,0.2,0.5,0.5,0.5c0.1,0,0.2,0,0.3-0.1c0.7-0.6,1.4-1,2.2-1.4l0,0l0,0c-0.1,0.5-0.3,1-0.5,1.4c-0.7,1.5-1.9,2.7-3.3,3.4l0,0
		l0,0c-0.4-0.6-0.6-1.2-0.8-1.9C7,48.8,7,47.9,7.1,47 M5.7,49.4L5.7,49.4L5.7,49.4c0.8,1.1,1.2,2.3,1.3,3.6c0,0.2,0.1,0.4,0.3,0.4
		c0.2,0.1,0.4,0,0.5-0.1c0.6-0.7,1.2-1.2,2-1.7l0,0l0,0c-0.1,0.5-0.2,1-0.3,1.5c-0.5,1.6-1.6,2.9-3,3.8l0,0c-0.4-0.5-0.8-1.2-1-1.8
		c-0.3-0.9-0.4-1.8-0.4-2.7C5.1,51.4,5.3,50.4,5.7,49.4 M4,55L4,55L4,55c0.8,1,1.4,2.2,1.7,3.5c0,0.2,0.2,0.3,0.4,0.4
		c0.2,0,0.4,0,0.5-0.2c0.5-0.7,1.1-1.3,1.8-1.9l0,0l0,0c0,0.5-0.1,1-0.2,1.5c-0.3,1.6-1.2,3-2.4,4.1l0,0c-0.5-0.5-0.9-1-1.2-1.7
		c-0.4-0.8-0.6-1.7-0.7-2.6C3.7,57,3.8,56,4,55 M3.2,60.6L3.2,60.6L3.2,60.6c0.9,0.9,1.6,2.1,1.9,3.4c0,0.2,0.2,0.3,0.4,0.4
		c0.2,0,0.4-0.1,0.5-0.2c0.4-0.8,0.9-1.4,1.5-2l0,0l0,0c0,0.6,0,1.1-0.1,1.7c-0.2,1.5-0.9,2.9-2,4l0,0c-0.5-0.4-1-0.9-1.3-1.5
		c-0.4-0.8-0.7-1.7-0.8-2.6C3,62.7,3,61.7,3.2,60.6 M2.7,66.6L2.7,66.6L2.7,66.6l0.4,0.4c0.8,0.8,1.3,1.8,1.7,2.9
		c0.1,0.2,0.3,0.3,0.5,0.3c0.2,0,0.4-0.2,0.4-0.4l0,0c0.2-0.8,0.7-1.6,1.3-2.2l0,0l0,0c0.1,0.9,0.1,1.9,0,2.8
		c-0.2,1.2-0.8,2.4-1.6,3.2l0,0C4.5,73,2.5,71,2.7,66.6 M2.5,72.3L2.5,72.3c0.1,0.1,0.3,0.2,0.4,0.3c0.9,0.8,1.5,1.7,2,2.7
		c0.1,0.2,0.2,0.3,0.4,0.3l0,0c0.2,0,0.4-0.1,0.4-0.3c0.3-0.8,0.8-1.6,1.4-2.3l0,0l0,0c0.4,2.1-0.1,4.3-1.4,6l0,0
		C4.8,78.5,2.6,76.7,2.5,72.3L2.5,72.3 M2.7,78.2L2.7,78.2L2.7,78.2c1.2,0.6,2.2,1.5,3,2.6C5.8,81,6,81.1,6.2,81
		c0.2,0,0.3-0.2,0.4-0.4l0,0c0.2-0.9,0.6-1.7,1-2.5l0,0l0,0c0.2,0.5,0.4,1,0.5,1.5c0.3,1.6,0.1,3.3-0.8,4.7h0
		c-0.7-0.3-1.3-0.6-1.8-1.1c-0.7-0.6-1.2-1.3-1.7-2.1c-0.5-0.9-0.8-1.9-1-2.9 M4.2,83.8L4.2,83.8L4.2,83.8L4.6,84
		c1,0.5,1.9,1.3,2.6,2.2c0.2,0.2,0.5,0.2,0.7,0.1C8,86.2,8.1,86.1,8.1,86c0.1-0.9,0.4-1.7,0.7-2.5l0,0l0,0c0.9,1.9,1,4.1,0.2,6.1
		l0,0l0,0C8,89.3,5.4,88.1,4.2,83.8 M7.5,92c-0.6-0.8-1.2-1.7-1.6-2.6l0,0l0,0l0.5,0.2c1.1,0.4,2,1,2.8,1.8c0.2,0.2,0.5,0.2,0.7,0
		c0.1-0.1,0.1-0.2,0.1-0.3c0-0.9,0.2-1.7,0.4-2.5l0,0l0,0c0.3,0.5,0.6,1,0.8,1.5c0.6,1.4,0.7,3,0.2,4.6l0,0l0,0
		c-0.7-0.1-1.4-0.4-2-0.7C8.7,93.3,8.1,92.7,7.5,92 M8.3,94.7L8.3,94.7L8.3,94.7c1.3,0.2,2.5,0.8,3.5,1.6c0.2,0.1,0.4,0.1,0.5,0
		c0.2-0.1,0.3-0.3,0.2-0.5c-0.1-0.8,0-1.7,0.1-2.5l0,0l0,0c0.3,0.5,0.6,0.9,0.8,1.4c0.7,1.3,1,2.9,0.8,4.4l0,0l0,0
		c-0.7-0.1-1.4-0.2-2-0.5c-0.8-0.4-1.6-0.9-2.2-1.5C9.4,96.4,8.8,95.5,8.3,94.7 M19.3,104.2c-0.3-0.8-0.5-1.6-0.6-2.4l0,0l0,0
		c1.1,0.9,3,2.9,2.9,5.4l0,0c-0.2,0-0.5,0.1-0.7,0.1c-0.4,0-0.8,0-1.1-0.1c-1.9-0.5-3.6-1.4-4.9-2.8l0,0l0,0c1.3-0.2,2.6,0,3.9,0.5
		c0.2,0.1,0.4,0,0.5-0.1C19.3,104.6,19.3,104.4,19.3,104.2 M15,100.8c0.2,0.1,0.4,0.1,0.5,0c0.2-0.1,0.2-0.3,0.2-0.5
		c-0.2-0.8-0.2-1.6-0.2-2.4l0,0l0,0c0.9,1.1,2.4,3.3,2.3,5.6l0,0h-0.2c-0.6,0-1.2-0.1-1.8-0.3c-0.9-0.3-1.7-0.7-2.4-1.3
		c-0.8-0.6-1.5-1.4-2.1-2.2l0,0l0,0C12.6,99.7,13.9,100.1,15,100.8 M33.7,88.2c-0.2,0.1-0.3,0.2-0.4,0.3c-0.9,0.5-1.5,1.3-1.9,2.3
		L31,90.7c-0.8-0.2-0.8-0.7-0.8-0.8c0-0.4,0.2-0.8,0.8-1.3c0.5-0.5,1.1-0.9,1.8-1c0.2,0,0.4,0,0.5,0.1c0.2,0.1,0.4,0.2,0.5,0.4
		C33.7,88.1,33.7,88.2,33.7,88.2 M34.7,92.2c-0.5,0.1-1.1,0.1-1.6-0.1c-0.1-0.1-0.2-0.3-0.2-0.4c-0.1-0.7,0.8-1.4,1.3-1.7
		c0.5-0.5,1.2-0.7,1.9-0.9c0.2,0,0.5,0.1,0.6,0.3c0.2,0.1,0.2,0.3,0.2,0.4c-0.1,0.3-0.3,0.5-0.5,0.7C35.6,90.8,35.1,91.5,34.7,92.2
		 M38.7,92.4c-0.6,0.5-1.3,0.7-2.1,0.7c-0.2,0-0.4-0.1-0.5-0.3c0.4-0.7,1-1.3,1.8-1.6c0.9-0.5,1.3-0.2,1.3-0.2
		c0.3,0.2,0.2,0.4,0.2,0.4C39.5,91.8,39,92.2,38.7,92.4L38.7,92.4 M30.2,87.1l-0.4,0.3c-0.5,0.5-0.9,1.1-1.2,1.8h-0.3
		c-0.5-0.1-0.8-0.2-0.9-0.4s-0.1-0.3,0.2-0.7c0.5-0.6,1.3-1,2.1-1h0.2L30.2,87.1 M50.7,88.1c-0.3,0.2-0.7,0.4-1.1,0.4
		c-1.2-1.7-2.8-3.1-4.7-4.1c-0.2-0.1-0.4-0.1-0.6,0c-0.4,0.1-0.6,0.6-0.5,1c0.1,0.2,0.2,0.4,0.4,0.5c1.6,0.9,2.9,2.1,4,3.6
		c-0.1,0.1-0.1,0.3-0.2,0.4c-0.3,0.4-0.8,0.5-1.3,0.5c-0.3-0.6-0.6-1.1-1.1-1.5c-0.6-0.7-1.3-1.3-2.1-1.8c-0.2-0.1-0.4-0.2-0.6-0.1
		c-0.2,0-0.4,0.2-0.5,0.3c-0.1,0.2-0.2,0.4-0.1,0.6c0,0.2,0.2,0.4,0.3,0.5c0.6,0.5,1.3,1,1.8,1.5c0.3,0.4,0.6,0.7,0.8,1.2
		c-0.1,0.2-0.2,0.4-0.4,0.5c-0.3,0.3-0.7,0.4-1.1,0.3c-0.4-0.8-0.9-1.5-1.5-2.2c-0.3-0.3-0.8-0.4-1.1-0.1c0,0,0,0,0,0
		c-0.3,0.3-0.4,0.8-0.1,1.1c0,0,0,0,0,0c0.4,0.5,0.8,1,1.1,1.6c-0.1,0.1-0.3,0.2-0.4,0.2c-0.4,0.2-0.8,0.2-1.3,0.2
		c0.2-0.3,0.3-0.6,0.3-1c0.1-0.7-0.2-1.3-0.7-1.8c-0.5-0.5-1.2-0.7-1.9-0.5c-0.1-0.5-0.3-1-0.7-1.3c-0.7-0.6-1.6-0.8-2.5-0.5l0,0
		c-0.2-0.5-0.7-1-1.2-1.2c-0.7-0.3-1.4-0.4-2.1-0.2c-0.5-0.4-1.1-0.6-1.8-0.7c-1.2-0.1-2.4,0.4-3.3,1.2c-4.6,2.4-10.4,5.1-12.8,6.1
		c-1.3-2.4-2.3-4.9-3.2-7.5c-0.2-0.7-0.4-1.5-0.7-2.2c6.7-0.8,12.1-1.6,16-2.3c4.1-0.8,6.8-1.7,8.1-2.6c1.6-1.1,2.6-1.7,4.1-1.5
		c0.3,0,0.7,0.1,1,0.1c-0.3,0.1-0.6,0.3-0.8,0.4c-0.6,0.4-1,0.8-1.3,1c-0.3,0.3-0.7,0.5-1,0.8c-0.4,0.2-0.7,0.4-1.1,0.6
		c-0.9,0.4-1.7,0.8-1.9,1.4c-0.3,0.7-0.2,1.4,0.3,2c0.7,0.8,1.8,1.1,2.8,0.9c1.1-0.1,2.2-0.4,3.2-1c0.3-0.2,0.6-0.4,0.9-0.6
		c0.3-0.2,0.6-0.4,1-0.6l0,0c0.9-0.2,1.9-0.1,2.8,0.3c1,0.4,2,0.9,2.9,1.5c1.5,1,2.9,2.3,4.1,3.8C51.1,87.6,50.9,87.9,50.7,88.1
		 M53.6,87.5c-0.5-0.4-1-0.8-1.4-1.2l0,0l0,0L52.1,86c-1.2-1.5-2.6-2.7-4.2-3.8c-1.5-0.9-4.2-2.7-6.8-2c-0.6,0.2-1.1,0.4-1.5,0.8
		c-0.2,0.2-0.5,0.3-0.8,0.5c-0.8,0.4-1.6,0.7-2.5,0.8c-0.8,0-1.2,0-1.4-0.2s-0.2-0.3-0.1-0.4c0.4-0.2,0.7-0.4,1.1-0.6
		c0.4-0.2,0.9-0.4,1.3-0.7c0.4-0.3,0.8-0.6,1.2-0.9c0.3-0.3,0.7-0.6,1.3-1c0.9-0.5,2-0.7,3-0.6h0.7h0.5c1.6,0.1,3.2,0.4,4.6,1.1
		c0.5,0.2,1.2,0.4,1.9,0.7c0.1,0,2.7,0.8,6.2,1.7c3.9,1,7.8,1.6,11.8,1.9c-0.2,0.7-0.4,1.4-0.6,2c-0.9,2.7-2,5.3-3.3,7.8
		C60.5,91.5,57,89.7,53.6,87.5 M63.5,104.4c-1.3,1.4-3,2.3-4.9,2.8c-0.4,0.1-0.8,0.1-1.1,0.1c-0.3,0-0.5,0-0.8-0.1l0,0
		c-0.1-1.6,0.5-3.1,1.6-4.3c0.4-0.4,0.8-0.8,1.2-1.2l0,0l0,0c-0.1,0.8-0.3,1.6-0.6,2.4c-0.1,0.2,0,0.4,0.1,0.5
		c0.1,0.1,0.3,0.2,0.5,0.1c1.2-0.5,2.5-0.7,3.8-0.5l0,0l0,0 M67,99.5c-0.6,0.9-1.2,1.6-2,2.3c-0.7,0.6-1.5,1-2.4,1.3
		c-0.6,0.2-1.2,0.3-1.8,0.3h-0.2l0,0c-0.1-1.5,0.4-3.1,1.3-4.3c0.3-0.5,0.6-0.9,1-1.3l0,0l0,0c0.1,0.8,0,1.7-0.1,2.5
		c0,0.2,0,0.4,0.2,0.5c0.2,0.1,0.4,0.1,0.5,0C64.5,100.1,65.8,99.7,67,99.5L67,99.5L67,99.5 M68.2,97.1c-0.7,0.6-1.4,1.2-2.2,1.5
		c-0.6,0.3-1.3,0.5-2,0.5l0,0l0,0c-0.2-1.5,0.1-3.1,0.8-4.4c0.2-0.5,0.5-1,0.8-1.4l0,0l0,0c0.2,0.8,0.2,1.7,0.1,2.5
		c0,0.2,0.1,0.4,0.2,0.5c0.2,0.1,0.4,0.1,0.5,0c1-0.8,2.2-1.4,3.5-1.6l0,0l0,0C69.5,95.5,68.9,96.3,68.2,97.1 M70.8,92
		c-0.6,0.7-1.2,1.3-2,1.8c-0.6,0.4-1.3,0.6-2,0.7l0,0l0,0c-0.4-1.5-0.3-3.1,0.3-4.6c0.2-0.5,0.4-1,0.7-1.4l0,0l0,0
		c0.2,0.8,0.4,1.6,0.5,2.5c0,0.2,0.1,0.4,0.3,0.4c0.2,0.1,0.4,0,0.5-0.1c0.8-0.9,1.7-1.5,2.8-1.9c0.2-0.1,0.3-0.1,0.5-0.2l0,0l0,0
		C72,90.2,71.5,91.2,70.8,92 M72.8,86.6c-0.5,0.8-1.1,1.4-1.9,2c-0.6,0.4-1.2,0.7-1.9,0.9l0,0l0,0c-0.5-1.5-0.6-3.1-0.2-4.6
		c0.1-0.5,0.3-1.1,0.5-1.6l0,0l0,0l0,0c0.3,0.8,0.6,1.7,0.7,2.6c0,0.3,0.3,0.4,0.5,0.4c0.1,0,0.2-0.1,0.3-0.2c0.8-1,1.9-1.8,3.1-2.3
		l0,0l0,0C73.8,84.8,73.3,85.8,72.8,86.6 M74.3,81c-0.4,0.8-0.9,1.6-1.6,2.2c-0.5,0.5-1.1,0.8-1.8,1.1l0,0l0,0c-0.7-1.4-1-3-0.8-4.6
		c0.1-0.5,0.2-1.1,0.3-1.6l0,0l0,0c0.4,0.8,0.8,1.6,1,2.5c0,0.2,0.2,0.3,0.4,0.4c0.2,0,0.4-0.1,0.5-0.2c0.7-1.1,1.7-2.1,2.8-2.7l0,0
		l0,0C75,79,74.7,80,74.3,81"/>
</g>
<g>
	<path class="st4" d="M49.4,24.4c1.1,0,2.1,0.3,3.1,0.7h0.2c1,0.2,1.9,0.3,2.9,0.4h0.3c-0.6-0.2-1.1-0.4-1.6-0.7
		c-0.3-0.2-0.6-0.3-1-0.5c-0.8-0.4-1.6-0.6-2.5-0.8c-0.2,0-0.3-0.1-0.3-0.3c0-0.2,0.1-0.3,0.3-0.3l5.7-0.9l-5.7-0.8
		c-0.1,0-0.2-0.1-0.3-0.3c0-0.1,0-0.3,0.1-0.3c0.7-0.4,1.4-0.7,2.2-0.9c1-0.2,1.9-0.5,2.8-0.8l0.3-0.1c-0.6,0-1.2,0-1.8-0.1
		c-0.3,0-0.7-0.1-1.1-0.1c-0.9,0-1.8,0.1-2.6,0.2c-0.2,0-0.3,0-0.4-0.2c-0.1-0.1,0-0.3,0.1-0.4l4.9-2.9l-5.5,1.4
		c-0.1,0-0.3,0-0.3-0.1c-0.1-0.1-0.1-0.3,0-0.4c0.5-0.6,1.1-1.2,1.7-1.6c0.8-0.6,1.6-1.2,2.3-1.8l0.2-0.2c-0.5,0.3-1.1,0.5-1.7,0.6
		c-0.3,0.1-0.7,0.2-1.1,0.3c-0.8,0.3-1.6,0.7-2.3,1.2c-0.1,0.1-0.3,0.1-0.4,0c-0.1-0.1-0.1-0.3,0-0.4l3.4-4.6l-4.6,3.4
		c-0.1,0.1-0.3,0.1-0.4,0c-0.1-0.1-0.2-0.2-0.1-0.3c0.2-0.8,0.6-1.5,1-2.2c0.5-0.8,1-1.7,1.4-2.5l0.1-0.3c-0.4,0.5-0.9,0.9-1.4,1.2
		c-0.3,0.2-0.6,0.4-0.8,0.7c-0.6,0.6-1.2,1.3-1.7,2c-0.1,0.2-0.3,0.2-0.5,0.1c-0.1-0.1-0.2-0.2-0.1-0.4L45.7,6l-2.9,4.9
		c-0.1,0.1-0.2,0.2-0.3,0.1c-0.1,0-0.2-0.1-0.3-0.3c-0.1-0.8-0.1-1.6,0-2.4c0.2-1,0.3-1.9,0.3-2.9c0-0.1,0-0.2,0-0.3
		c-0.2,0.6-0.4,1.1-0.7,1.6c-0.2,0.3-0.3,0.6-0.5,1c-0.4,0.8-0.6,1.6-0.8,2.5c0,0.2-0.2,0.3-0.3,0.3c-0.2,0-0.3-0.1-0.3-0.3
		l-0.8-5.6l-0.8,5.6c0,0.1-0.1,0.2-0.3,0.3c-0.1,0-0.3,0-0.3-0.1C37.3,9.8,37,9,36.8,8.3c-0.2-1-0.5-1.9-0.8-2.8
		c0-0.1-0.1-0.2-0.1-0.3c0,0.6,0,1.2-0.1,1.8c0,0.3-0.1,0.7-0.1,1.1c0,0.9,0.1,1.8,0.2,2.6c0,0.2-0.1,0.3-0.2,0.4
		c-0.1,0.1-0.3,0-0.4-0.1l-3-4.9l1.4,5.5c0,0.1,0,0.3-0.1,0.4c-0.1,0.1-0.3,0.1-0.4,0c-0.6-0.5-1.2-1.1-1.6-1.7
		c-0.5-0.8-1.1-1.6-1.7-2.3c-0.1-0.1-0.1-0.2-0.2-0.2c0.3,0.5,0.5,1.1,0.6,1.7c0.1,0.3,0.2,0.7,0.4,1.1c0.3,0.8,0.7,1.6,1.2,2.3
		c0.1,0.1,0.1,0.4-0.1,0.5c-0.1,0.1-0.3,0.1-0.4,0l-4.6-3.4l3.4,4.6c0.1,0.1,0.1,0.3,0,0.4c-0.1,0.1-0.2,0.2-0.4,0.1
		c-0.8-0.2-1.5-0.6-2.2-1c-0.8-0.5-1.7-1-2.5-1.4L25,12.3c0.4,0.4,0.9,0.8,1.2,1.3c0.2,0.3,0.5,0.6,0.7,0.9c0.6,0.6,1.3,1.2,2,1.7
		c0.1,0.1,0.2,0.3,0.1,0.4c-0.1,0.1-0.2,0.2-0.4,0.2l-5.6-1.4l4.9,2.9c0.1,0.1,0.2,0.2,0.2,0.3c0,0.1-0.1,0.2-0.3,0.3
		c-0.8,0.1-1.6,0.1-2.4,0c-1-0.2-1.9-0.3-2.9-0.3h-0.3c0.6,0.2,1.1,0.4,1.6,0.7c0.3,0.2,0.6,0.3,1,0.5c0.8,0.4,1.6,0.6,2.5,0.8
		c0.2,0,0.3,0.2,0.3,0.4c0,0.1-0.1,0.2-0.3,0.3L21.8,22l5.7,0.8c0.1,0,0.3,0.1,0.3,0.2c0,0.1,0,0.3-0.1,0.4
		c-0.7,0.4-1.4,0.7-2.2,0.9c-1,0.2-1.9,0.5-2.8,0.8l-0.3,0.1c0.6,0,1.2,0,1.8,0.1l1.1,0.1c0.3,0,0.6,0,0.9,0l0.1,0
		c1.2-0.8,2.6-1.4,4-1.8c0.2-0.1,0.4,0,0.6,0.1c0.1,0.1,0.2,0.3,0.2,0.4c0.3-0.2,0.7-0.4,1-0.5c1.4-0.6,2.8-0.9,4.2-1
		c0.2,0,0.4,0.1,0.5,0.2c0.1,0.1,0.2,0.2,0.2,0.4c0.5-0.2,0.9-0.3,1.4-0.4c1.4-0.3,2.9-0.3,4.4-0.1c0.2,0,0.4,0.2,0.5,0.4
		c0,0.1,0,0.1,0.1,0.2c0.5-0.1,0.9-0.1,1.4-0.1c1.5,0,2.9,0.3,4.3,0.8C49.2,23.9,49.4,24.1,49.4,24.4L49.4,24.4"/>
</g>
<g>
	<path class="st0" d="M41.1,17.2c5.5-0.9,6.1,0.7,6.1,0.7c0.1,0.2,0.4,0.3,0.6,0.2c0,0,0.4,0,0.2-0.5c0,0-0.6-1.8-3.5-2.1
		c-1.1-0.1-2.1-0.1-3.2,0.1c-0.5,0.1-0.6,1.2-0.6,1.2C40.6,17.3,41.1,17.2,41.1,17.2"/>
</g>
<g>
	<path class="st0" d="M36.4,18.3C35.7,18.1,35,18,34.2,18c-2.5,0.1-3.1,1.6-3.1,1.6c-0.2,0.5,0.2,0.6,0.2,0.6c0.3,0.1,0.6,0,0.7-0.3
		c0,0,0.1-0.4,1.2-0.7c-0.3,0.7,0,1.4,0.7,1.7c0.7,0.3,1.4,0,1.7-0.7c0.1-0.2,0.1-0.3,0.1-0.5c0-0.2,0-0.3-0.1-0.5
		c0.4,0.1,0.7,0.4,0.9,0.8c0.1,0.2,0.3,0.3,0.8,0.3s0.4-0.3,0.4-0.3C37.5,19.3,37,18.6,36.4,18.3"/>
</g>
<g>
	<path class="st0" d="M41,20.3c0.5,0,0.7-0.1,0.8-0.3c0.2-0.4,0.5-0.7,0.9-0.8c-0.1,0.2-0.1,0.3-0.1,0.5c0,0.7,0.5,1.3,1.3,1.3
		c0.7,0,1.3-0.5,1.3-1.3c0-0.2,0-0.4-0.1-0.5c1,0.2,1.2,0.7,1.2,0.7c0.1,0.3,0.4,0.4,0.7,0.3c0,0,0.4,0,0.2-0.6c0,0-0.7-1.5-3.1-1.6
		c-0.7,0-1.5,0-2.2,0.2c-0.6,0.4-1,1-1.1,1.7C40.6,20,40.5,20.3,41,20.3"/>
</g>
<g>
	<path class="st0" d="M30.4,18.2c0.2,0.1,0.5,0,0.6-0.2c0,0,0.6-1.6,6.1-0.7c0,0,0.5,0.1,0.4-0.4c0,0-0.1-1.1-0.6-1.2
		c-1-0.2-2.1-0.2-3.2-0.1c-2.9,0.3-3.5,2.1-3.5,2.1C30,18.1,30.4,18.2,30.4,18.2"/>
</g>
<g>
	<path class="st5" d="M63.5,104.4c-1.3-0.2-2.6,0-3.8,0.5c-0.2,0.1-0.4,0-0.5-0.1c-0.1-0.1-0.2-0.3-0.1-0.5c0.3-0.8,0.5-1.6,0.6-2.4
		l0,0l0,0c-0.5,0.3-0.9,0.7-1.3,1.1c-1.1,1.1-1.7,2.7-1.7,4.2l0,0c0.2,0,0.5,0.1,0.8,0.1c0.4,0,0.8,0,1.1-0.1
		C60.4,106.7,62.1,105.7,63.5,104.4L63.5,104.4L63.5,104.4"/>
</g>
<g>
	<path class="st5" d="M18.8,101.8L18.8,101.8L18.8,101.8c0.1,0.8,0.3,1.7,0.6,2.4c0.1,0.2,0,0.4-0.1,0.5c-0.1,0.1-0.3,0.2-0.5,0.1
		c-1.2-0.5-2.6-0.7-3.9-0.5l0,0l0,0c1.3,1.4,3,2.3,4.9,2.8c0.4,0.1,0.8,0.1,1.1,0.1c0.2,0,0.5,0,0.7,0l0,0
		C21.8,104.7,19.9,102.7,18.8,101.8"/>
</g>
<g>
	<path class="st5" d="M67.1,99.6c-1.3,0.1-2.6,0.5-3.7,1.2c-0.2,0.1-0.5,0.1-0.7-0.1c-0.1-0.1-0.1-0.2-0.1-0.4
		c0.1-0.8,0.2-1.7,0.1-2.5l0,0l0,0c-0.4,0.4-0.7,0.9-1,1.3c-0.9,1.3-1.3,2.8-1.3,4.3l0,0h0.2c0.6,0,1.2-0.1,1.8-0.3
		c0.9-0.3,1.7-0.7,2.4-1.3C65.8,101.2,66.5,100.4,67.1,99.6L67.1,99.6L67.1,99.6"/>
</g>
<g>
	<path class="st5" d="M70,94.6c-1.3,0.2-2.5,0.8-3.5,1.6c-0.2,0.1-0.4,0.1-0.5,0c-0.2-0.1-0.3-0.3-0.2-0.5c0.1-0.8,0-1.7-0.1-2.5
		l0,0l0,0c-0.3,0.4-0.6,0.9-0.8,1.4c-0.7,1.4-1,2.9-0.8,4.4l0,0l0,0c0.7,0,1.4-0.2,2-0.5c0.8-0.4,1.6-0.9,2.2-1.5
		C68.9,96.3,69.5,95.5,70,94.6L70,94.6L70,94.6"/>
</g>
<g>
	<path class="st5" d="M72.4,89.2c-0.2,0-0.3,0.1-0.5,0.2c-1.1,0.4-2.1,1.1-2.8,1.9c-0.1,0.1-0.3,0.2-0.5,0.1
		c-0.2-0.1-0.3-0.2-0.3-0.4c-0.1-0.8-0.2-1.7-0.4-2.5l0,0l0,0c-0.3,0.5-0.5,0.9-0.7,1.4c-0.6,1.5-0.7,3.1-0.3,4.6l0,0l0,0
		c0.7-0.1,1.4-0.4,2-0.7c0.8-0.5,1.4-1.1,2-1.8C71.5,91.1,72.1,90.2,72.4,89.2L72.4,89.2L72.4,89.2"/>
</g>
<g>
	<path class="st5" d="M74.1,83.8c-1.2,0.5-2.3,1.3-3.1,2.3c-0.2,0.2-0.5,0.2-0.7,0.1c-0.1-0.1-0.1-0.2-0.2-0.3
		c-0.1-0.9-0.4-1.7-0.7-2.6l0,0l0,0c-0.2,0.5-0.4,1.1-0.5,1.6c-0.4,1.5-0.3,3.1,0.2,4.6l0,0l0,0c0.7-0.2,1.3-0.5,1.8-0.9
		c0.7-0.6,1.4-1.2,1.9-2C73.4,85.7,73.9,84.8,74.1,83.8L74.1,83.8L74.1,83.8"/>
</g>
<g>
	<path class="st5" d="M75.2,78c-1.1,0.6-2.1,1.6-2.8,2.7c-0.1,0.2-0.3,0.3-0.5,0.2c-0.2,0-0.3-0.2-0.4-0.4c-0.2-0.9-0.6-1.7-1-2.5
		l0,0l0,0c-0.1,0.5-0.3,1.1-0.3,1.6c-0.3,1.6,0,3.2,0.7,4.6l0,0l0,0c0.6-0.3,1.2-0.7,1.7-1.1c0.7-0.6,1.2-1.3,1.6-2.2
		C74.8,80.1,75.1,79.1,75.2,78L75.2,78L75.2,78"/>
</g>
<g>
	<path class="st5" d="M73.3,75.2c-0.1,0.2-0.3,0.3-0.5,0.3c-0.2,0-0.4-0.1-0.4-0.3c-0.3-0.8-0.7-1.6-1.2-2.3l0,0l0,0
		C71.1,73.4,71,74,71,74.5c-0.1,1.6,0.4,3.1,1.3,4.4l0,0l0,0c0.6-0.3,1.1-0.8,1.6-1.3c0.6-0.7,1-1.5,1.3-2.3c0.3-1,0.5-2,0.6-3l0,0
		l0,0C74.7,73,73.9,74.1,73.3,75.2"/>
</g>
<g>
	<path class="st5" d="M73.1,70c-0.2,0-0.4-0.1-0.4-0.3c-0.4-0.7-0.9-1.4-1.4-2l0,0l0,0c-0.1,1.4,0.1,4,1.7,5.8l0,0
		c0.6-0.4,1.1-0.9,1.4-1.5c0.5-0.8,0.9-1.6,1.1-2.5c0.2-1,0.3-2,0.3-3l0,0l0,0c-1,0.9-1.7,2-2.2,3.2C73.5,69.9,73.3,70,73.1,70"/>
</g>
<g>
	<path class="st5" d="M72.8,64.4c-0.2,0-0.4-0.1-0.5-0.2c-0.4-0.7-1-1.3-1.6-1.9l0,0l0,0c0.1,1.5,0.6,4.3,2.2,5.6l0,0
		c0.5-0.5,1-1,1.3-1.6c0.4-0.8,0.7-1.7,0.8-2.6c0.1-1,0.1-2.1,0-3.1l0,0l0,0c-0.9,0.9-1.6,2.1-1.9,3.4C73.2,64.2,73,64.3,72.8,64.4"
		/>
</g>
<g>
	<path class="st5" d="M72.1,58.9c-0.2,0-0.4,0-0.5-0.2c-0.5-0.7-1.1-1.3-1.7-1.8l0,0l0,0c0.1,0.5,0.2,1.1,0.3,1.6
		c0.3,1.5,1.1,2.8,2.2,3.9l0,0c0.5-0.5,0.9-1,1.2-1.7c0.4-0.8,0.6-1.7,0.7-2.6c0.1-1,0.1-2.1-0.1-3.1l0,0l0,0
		c-0.9,1-1.4,2.2-1.7,3.5C72.5,58.7,72.3,58.9,72.1,58.9"/>
</g>
<g>
	<path class="st5" d="M70.8,53.6c-0.2,0.1-0.4,0-0.5-0.1c-0.6-0.6-1.3-1.2-2-1.6l0,0l0,0c0.1,0.5,0.3,1.1,0.5,1.6
		c0.5,1.5,1.5,2.7,2.8,3.6l0,0c0.4-0.5,0.8-1.2,1-1.8c0.3-0.9,0.4-1.8,0.4-2.7c0-1-0.2-2-0.6-3l0,0l0,0c-0.7,1.1-1.1,2.4-1.2,3.7
		C71.2,53.4,71.1,53.5,70.8,53.6"/>
</g>
<g>
	<path class="st5" d="M68.5,48.2c-0.6-0.6-1.4-1-2.1-1.4l0,0l0,0c0.2,0.5,0.4,1,0.6,1.5c0.7,1.4,1.8,2.6,3.1,3.3l0,0l0,0
		c0.4-0.6,0.6-1.2,0.8-1.9c0.2-0.9,0.2-1.8,0.1-2.7c-0.1-1-0.4-2-0.9-3l0,0l0,0c-0.6,1.2-0.9,2.5-0.8,3.8c0,0.2-0.1,0.4-0.3,0.5
		C68.9,48.3,68.7,48.3,68.5,48.2"/>
</g>
<g>
	<path class="st5" d="M63.7,42.1L63.7,42.1c0.2,0.5,0.5,1,0.8,1.5c0.8,1.4,2.1,2.4,3.6,2.9l0,0c0.3-0.6,0.5-1.3,0.6-2
		c0.1-0.9,0-1.8-0.2-2.7c-0.3-1-0.6-1.9-1.2-2.8l0,0l0,0c-0.4,1.2-0.6,2.5-0.3,3.8c0,0.2-0.1,0.4-0.2,0.5c-0.2,0.1-0.4,0.1-0.5,0
		C65.4,42.8,64.6,42.4,63.7,42.1L63.7,42.1"/>
</g>
<g>
	<path class="st5" d="M60.5,37.9L60.5,37.9c0.3,0.5,0.7,0.9,1.1,1.4c1,1.2,2.4,2,3.9,2.3l0,0l0,0c0.2-0.6,0.3-1.3,0.2-2
		c-0.1-0.9-0.3-1.8-0.6-2.6c-0.4-0.9-1-1.8-1.6-2.6l0,0l0,0c-0.2,1.3-0.1,2.6,0.2,3.8c0.1,0.2,0,0.4-0.2,0.5c-0.2,0.1-0.4,0.1-0.6,0
		C62.3,38.3,61.5,38,60.5,37.9L60.5,37.9"/>
</g>
<g>
	<path class="st5" d="M60,34.5c-0.1,0.1-0.3,0.2-0.5,0.1c-0.7-0.3-1.5-0.4-2.3-0.4H57l0,0l0,0c0.4,0.4,0.9,0.9,1.4,1.2
		c1.1,0.9,2.5,1.5,4,1.6h0.1l0,0c0.1-0.7,0-1.4-0.1-2.1c-0.2-0.9-0.6-1.7-1.1-2.5c-0.6-0.8-1.2-1.6-2-2.3l0,0l0,0
		c-0.1,1.3,0.2,2.6,0.8,3.8C60.1,34.2,60.1,34.4,60,34.5"/>
</g>
<g>
	<path class="st5" d="M17.6,103.4h0.2l0,0c0.1-2.3-1.4-4.5-2.3-5.6l0,0l0,0c-0.1,0.8,0,1.6,0.2,2.4c0.1,0.2,0,0.4-0.2,0.5
		c-0.2,0.1-0.4,0.1-0.5,0c-1.1-0.7-2.4-1.2-3.7-1.2l0,0l0,0c0.6,0.8,1.3,1.6,2.1,2.2c0.7,0.6,1.5,1,2.4,1.3
		C16.4,103.3,17,103.4,17.6,103.4"/>
</g>
<g>
	<path class="st5" d="M14.4,99.2L14.4,99.2L14.4,99.2c0.2-1.5-0.1-3-0.8-4.4c-0.2-0.5-0.5-1-0.8-1.4l0,0l0,0
		c-0.2,0.8-0.2,1.7-0.1,2.5c0,0.2-0.1,0.4-0.2,0.5c-0.2,0.1-0.4,0.1-0.5,0c-1-0.8-2.2-1.4-3.5-1.6l0,0l0,0c0.5,0.9,1.1,1.7,1.9,2.4
		c0.6,0.6,1.4,1.2,2.2,1.5C13.1,98.9,13.8,99.1,14.4,99.2"/>
</g>
<g>
	<path class="st5" d="M11.5,94.6L11.5,94.6L11.5,94.6c0.4-1.5,0.4-3.1-0.2-4.6c-0.2-0.5-0.4-1-0.7-1.5l0,0l0,0
		c-0.3,0.8-0.4,1.6-0.5,2.5c0,0.3-0.2,0.5-0.5,0.5c-0.1,0-0.2-0.1-0.3-0.1c-0.8-0.8-1.8-1.4-2.8-1.8l-0.5-0.2l0,0l0,0
		c0.4,1,0.9,1.8,1.5,2.7c0.6,0.7,1.2,1.3,2,1.8C10.1,94.2,10.8,94.4,11.5,94.6"/>
</g>
<g>
	<path class="st5" d="M9.1,89.6L9.1,89.6L9.1,89.6c0.8-2,0.7-4.2-0.2-6.1l0,0l0,0c-0.3,0.8-0.6,1.6-0.7,2.5c0,0.3-0.3,0.4-0.5,0.4
		c-0.1,0-0.2-0.1-0.3-0.2c-0.7-0.9-1.6-1.7-2.6-2.2l-0.5-0.2l0,0l0,0C5.4,88.1,8,89.3,9.1,89.6"/>
</g>
<g>
	<path class="st5" d="M5.5,83.3c0.5,0.5,1.1,0.8,1.8,1.1h0.1c0.9-1.4,1.1-3.1,0.8-4.7c-0.1-0.5-0.3-1-0.5-1.5l0,0l0,0
		c-0.4,0.8-0.8,1.6-1,2.5l0,0c0,0.2-0.2,0.3-0.4,0.4c-0.2,0-0.4-0.1-0.5-0.2c-0.7-1.1-1.7-2-2.9-2.6l0,0l0,0c0.2,1,0.5,2,1,2.9
		C4.3,82,4.8,82.7,5.5,83.3"/>
</g>
<g>
	<path class="st5" d="M5.8,79.1L5.8,79.1c1.3-1.7,1.8-3.9,1.4-6l0,0l0,0c-0.6,0.7-1,1.5-1.4,2.3c-0.1,0.2-0.3,0.3-0.4,0.3l0,0
		c-0.2,0-0.4-0.1-0.4-0.3c-0.5-1-1.1-2-2-2.7c-0.1-0.1-0.3-0.2-0.4-0.3l0,0l0,0C2.7,76.9,4.9,78.6,5.8,79.1"/>
</g>
<g>
	<path class="st5" d="M5.3,73.7L5.3,73.7c0.9-0.9,1.5-2,1.7-3.2c0.1-0.9,0.1-1.9,0-2.8l0,0l0,0c-0.6,0.6-1,1.3-1.2,2.1
		c0,0.3-0.3,0.4-0.6,0.4c-0.2,0-0.3-0.2-0.4-0.3c-0.3-1.1-0.9-2.1-1.7-2.9l-0.4-0.4l0,0l0,0C2.5,71.1,4.5,73,5.3,73.7"/>
</g>
<g>
	<path class="st5" d="M4,66.3c0.3,0.6,0.8,1.2,1.3,1.6l0,0l0,0c1.1-1.1,1.8-2.5,2-4c0.1-0.6,0.1-1.1,0.1-1.7l0,0l0,0
		c-0.6,0.6-1.1,1.2-1.5,2c-0.1,0.2-0.3,0.3-0.5,0.3c-0.2,0-0.4-0.2-0.4-0.5c-0.3-1.3-0.9-2.4-1.8-3.4l0,0l0,0c-0.1,1-0.1,2,0,3.1
		C3.3,64.6,3.6,65.5,4,66.3"/>
</g>
<g>
	<path class="st5" d="M4.6,60.7c0.3,0.6,0.7,1.2,1.2,1.7l0,0c1.2-1.1,2.1-2.5,2.4-4.1c0.1-0.5,0.2-1,0.2-1.5l0,0l0,0
		c-0.7,0.5-1.3,1.2-1.8,1.9c-0.1,0.2-0.3,0.2-0.5,0.2c-0.2,0-0.3-0.2-0.4-0.4C5.5,57.2,5,56,4.1,55l0,0l0,0c-0.2,1-0.2,2-0.1,3.1
		C4,59,4.3,59.9,4.6,60.7"/>
</g>
<g>
	<path class="st5" d="M6.6,56.9L6.6,56.9c1.4-0.8,2.5-2.2,3-3.8c0.2-0.5,0.3-1,0.3-1.5l0,0l0,0c-0.8,0.5-1.4,1-2,1.7
		c-0.1,0.1-0.3,0.2-0.5,0.1c-0.2,0-0.4-0.2-0.4-0.4c-0.1-1.3-0.5-2.6-1.2-3.7l0,0l0,0c-0.3,1-0.5,2-0.5,3c0,0.9,0.1,1.8,0.4,2.7
		C5.9,55.7,6.2,56.4,6.6,56.9"/>
</g>
<g>
	<path class="st5" d="M8,51.6L8,51.6L8,51.6c1.5-0.7,2.7-1.9,3.4-3.4c0.2-0.4,0.4-0.9,0.5-1.4l0,0l0,0c-0.8,0.4-1.6,0.9-2.2,1.4
		c-0.1,0.1-0.3,0.2-0.5,0.1c-0.2-0.1-0.3-0.3-0.3-0.5c0.1-1.3-0.2-2.6-0.8-3.8l0,0l0,0l0,0C7.7,45,7.3,46,7.1,47
		C7,47.9,7,48.8,7.2,49.7C7.3,50.4,7.6,51,8,51.6"/>
</g>
<g>
	<path class="st5" d="M10,46.5L10,46.5L10,46.5c1.5-0.5,2.8-1.4,3.6-2.7c0.4-0.5,0.7-1,0.9-1.6l0,0l0,0c-0.9,0.2-1.7,0.5-2.3,1.1
		c-0.2,0.2-0.5,0.2-0.7,0c-0.1-0.1-0.1-0.3-0.1-0.4c0.3-1.3,0.2-2.6-0.2-3.8l0,0l0,0c-0.6,0.9-1,1.8-1.3,2.8
		c-0.3,0.9-0.4,1.8-0.4,2.7C9.6,45.2,9.8,45.9,10,46.5"/>
</g>
<g>
	<path class="st5" d="M12.8,41.7L12.8,41.7c2.3-0.4,4.1-2.5,5-3.7l0,0l0,0c-0.9,0.1-1.7,0.4-2.4,0.8c-0.2,0.1-0.5,0.1-0.7-0.1
		c-0.1-0.1-0.1-0.3-0.1-0.4c0.4-1.2,0.5-2.6,0.3-3.8l0,0l0,0C12,37.9,12.5,40.7,12.8,41.7L12.8,41.7"/>
</g>
<g>
	<path class="st5" d="M16,37.2h0.2c1.4-0.1,2.8-0.7,3.8-1.6c0.5-0.4,1-0.8,1.4-1.2l0,0l0,0c-0.8,0-1.6,0.2-2.4,0.4
		c-0.3,0.1-0.5,0-0.6-0.3c0-0.1,0-0.3,0-0.4c0.6-1.1,0.9-2.4,0.9-3.7l0,0l0,0c-0.8,0.7-1.5,1.5-2,2.3c-0.5,0.7-0.9,1.5-1.2,2.4
		C15.9,35.7,15.9,36.4,16,37.2L16,37.2"/>
</g>
<g>
	<path class="st5" d="M25.6,31c-0.8,0-1.7,0-2.5,0.1c-0.2,0-0.4,0-0.5-0.2c-0.1-0.2-0.1-0.4,0-0.5c0.7-1.1,1.2-2.3,1.2-3.6l0,0l0,0
		c-3.7,2.6-3.9,5.4-3.9,6.5l0,0h0.2C22.3,33.1,24.2,32.4,25.6,31L25.6,31L25.6,31"/>
</g>
<g>
	<path class="st5" d="M30.4,28.8c-0.4-0.1-0.9-0.2-1.3-0.3c-0.4-0.1-0.8-0.1-1.2-0.1l0,0c-0.3,0-0.5-0.2-0.5-0.5
		c0-0.1,0.1-0.3,0.2-0.4c0.9-0.7,1.7-1.7,2.2-2.8l0,0l0,0c-4.3,1.5-5.2,4-5.4,5l0,0C24.8,30,25.4,30,26,30c1,0,2-0.2,2.9-0.5
		c0.5-0.2,1-0.4,1.5-0.6l0,0l0,0"/>
</g>
<g>
	<path class="st5" d="M35.5,27.4c-0.8-0.4-1.6-0.6-2.4-0.8c-0.3,0-0.4-0.3-0.4-0.6c0-0.1,0.1-0.3,0.3-0.3c1-0.4,1.8-1.1,2.5-1.9l0,0
		l0,0c-1.9,0.2-3.6,0.9-5,2.1c-0.4,0.4-0.8,0.9-1,1.5l0,0c0.9,0.4,1.9,0.6,2.9,0.6c0.6,0,1.1-0.1,1.7-0.1
		C34.5,27.7,35,27.6,35.5,27.4L35.5,27.4L35.5,27.4"/>
</g>
<g>
	<path class="st5" d="M38.8,25.9c-0.2-0.1-0.3-0.3-0.3-0.5c0-0.2,0.1-0.4,0.3-0.5c1-0.3,1.9-0.7,2.7-1.3l0,0l0,0
		c-1.8-0.2-3.7,0.1-5.3,1c-0.5,0.3-0.9,0.7-1.3,1.2l0,0c1.4,1,3.1,1.4,4.8,1.4c0.5,0,0.8,0,1.2-0.1l0,0l0,0
		C40.3,26.7,39.6,26.2,38.8,25.9"/>
</g>
<g>
	<path class="st5" d="M44.4,26.3c-0.2-0.1-0.2-0.3-0.2-0.5c0.1-0.2,0.2-0.3,0.4-0.4c1-0.1,2-0.4,2.9-0.8l0,0l0,0
		c-1.7-0.6-3.6-0.6-5.3,0c-0.6,0.2-1.1,0.5-1.5,0.9l0,0c1.4,1.6,3.5,2.5,5.6,2.6l0,0l0,0l0,0C45.7,27.5,45.1,26.9,44.4,26.3"/>
</g>
<g>
	<path class="st5" d="M58.4,33.3L58.4,33.3c0-0.8-0.1-1.6-0.4-2.4c-0.7-1.7-2.1-3-3.9-3.5l0,0l0,0c0.3,1,0.9,2,1.5,2.9
		c0.1,0.2,0.1,0.4,0,0.5c-0.1,0.2-0.3,0.3-0.5,0.2c-0.8-0.1-1.6-0.1-2.4,0l0,0l0,0c1.2,0.8,3.5,2.1,5.5,2.1L58.4,33.3"/>
</g>
<g>
	<path class="st5" d="M54,29.8L54,29.8c-1-1.1-2.5-1.7-4.1-1.6c-0.6,0-1.2,0.2-1.7,0.3l0,0l0,0c1.1,0.9,2.5,1.5,4,1.5h0.2
		C53,30.1,53.5,30,54,29.8L54,29.8"/>
</g>
<g>
	<path class="st5" d="M46.1,26.4L46.1,26.4c0.9,0.6,1.9,0.9,3,0.9c0.5,0,1.1-0.1,1.6-0.1c0.7-0.1,1.4-0.3,2.1-0.6l0,0l0,0
		c-0.7-0.4-1.5-0.7-2.4-0.9c-0.8-0.1-1.7-0.1-2.5,0.1C47.2,25.8,46.6,26.1,46.1,26.4L46.1,26.4"/>
</g>
<g>
	<path class="st6" d="M30.1,57.6c0.4,0.4,0.8,0.5,1.3,0.5h6.2c-3.7-2.3-5.1-1.9-7.7-0.7C30,57.5,30,57.5,30.1,57.6"/>
</g>
<g>
	<path class="st6" d="M45.2,54.8c-0.5-0.1-1.1-0.3-1.6-0.5c-1.3-0.5-2.5-1.2-3.6-2.1c-0.4-0.3-0.5-0.9-0.2-1.3
		c0.3-0.4,0.9-0.5,1.3-0.1c1,0.7,2,1.4,3.2,1.8c0.5,0.2,0.9,0.3,1.4,0.4c0.9,0.2,1.7,0.5,2.5,0.9c-0.2-1-0.3-1.9-0.5-2.7
		c-1.7-0.4-3.3-1.2-4.7-2.3c-0.2-0.2-0.3-0.4-0.3-0.6c0-0.2,0.1-0.5,0.2-0.7c0.3-0.4,0.9-0.4,1.3-0.1c0.9,0.7,1.9,1.3,3,1.7
		c-0.7-2.5-1.6-4.8-2.7-7.1c-0.7-1.5-2.1-2.7-3.7-3.3c-0.7-0.2-1.4-0.3-2.1-0.3h-0.1c-1.9,0.1-3.6,0.9-4.9,2.3l0,0
		c-0.6,0.6-1.1,1.4-1.4,2.3c-0.1,0.4,0,0.8,0.3,1c0.1,0.1,0.6,0.3,1.5-0.3l0.4-0.3c0.4-0.3,0.9-0.2,1.2,0.2c0.3,0.4,0.2,0.9-0.1,1.2
		c-0.1,0.1-0.2,0.2-0.4,0.3c-0.7,0.6-1.4,1.4-2,2.2c-1.7,2.4-2.9,5.1-3.4,7.9c0,0.1,0,0.2,0,0.2c2.6-1.1,4.7-1.6,9.3,1.4
		c1.3,0.8,2.8,1.2,4.3,1.2h2.1c1,0.1,2-0.2,2.7-0.8c0.1-0.1,0.2-0.3,0.3-0.5C48.4,55.8,47.4,55.3,45.2,54.8"/>
</g>
<g>
	<path class="st7" d="M36.3,90.3c0.3-0.2,0.4-0.4,0.5-0.7c0-0.1-0.1-0.2-0.2-0.4C36.4,89.1,36.2,89,36,89c-0.7,0.1-1.3,0.4-1.8,0.9
		c-0.5,0.4-1.4,1.1-1.3,1.7c0,0.2,0.1,0.3,0.2,0.4c0.5,0.2,1.1,0.3,1.6,0.1C35.1,91.5,35.6,90.8,36.3,90.3"/>
</g>
<g>
	<path class="st7" d="M39.5,91.4c0,0,0-0.2-0.2-0.4c0,0-0.4-0.3-1.3,0.2c-0.7,0.3-1.4,0.9-1.8,1.6c0.1,0.1,0.3,0.2,0.5,0.3
		c0.8,0,1.5-0.3,2.1-0.7h0.1C39,92.2,39.4,91.8,39.5,91.4"/>
</g>
<g>
	<path class="st7" d="M29.8,87h-0.2c-0.8,0-1.5,0.4-2.1,1c-0.3,0.4-0.2,0.6-0.2,0.7s0.3,0.3,0.9,0.4h0.3c0.2-0.7,0.6-1.3,1.2-1.7
		l0.4-0.3L29.8,87L29.8,87"/>
</g>
<g>
	<path class="st7" d="M30.1,89.9c0,0.2,0.1,0.6,0.8,0.8l0.4,0.1c0.4-0.9,1-1.7,1.9-2.3c0.1-0.1,0.3-0.2,0.4-0.3c0,0,0-0.1,0-0.2
		c-0.1-0.2-0.3-0.3-0.5-0.4c-0.2-0.1-0.3-0.1-0.5-0.1c-0.7,0.1-1.3,0.5-1.8,1C30.3,89.1,30.1,89.5,30.1,89.9"/>
</g>
<g>
	<path class="st7" d="M49.6,88.4c0.4,0,0.8-0.1,1.1-0.4c0.2-0.2,0.3-0.5,0.4-0.7c-1.2-1.4-2.5-2.7-4.1-3.8c-0.9-0.6-1.8-1.1-2.8-1.5
		c-0.9-0.4-1.8-0.5-2.8-0.3l0,0c-0.4,0.1-0.7,0.3-1,0.6c-0.3,0.2-0.5,0.4-0.9,0.6c-1,0.6-2.1,0.9-3.2,1c-1,0.3-2.2-0.1-2.9-0.9
		c-0.5-0.6-0.6-1.3-0.3-2c0.2-0.6,1-1,1.9-1.4c0.4-0.2,0.8-0.3,1.1-0.6c0.3-0.2,0.7-0.5,1-0.8c0.3-0.3,0.7-0.6,1.3-1
		c0.3-0.2,0.5-0.3,0.8-0.4l-1-0.1c-1.5-0.1-2.6,0.4-4.1,1.5c-1.3,0.9-4,1.8-8.1,2.6c-3.9,0.8-9.3,1.6-16,2.3
		c0.2,0.7,0.4,1.5,0.7,2.2c0.8,2.6,1.9,5.1,3.2,7.5c2.4-1.1,8.2-3.7,12.8-6.1c0.9-0.9,2.1-1.3,3.4-1.3c0.6,0.1,1.2,0.3,1.8,0.7
		c0.7-0.2,1.5-0.2,2.1,0.2c0.5,0.2,1,0.7,1.2,1.2l0,0c0.9-0.3,1.8-0.1,2.5,0.5c0.4,0.3,0.7,0.8,0.8,1.3c0.7-0.1,1.4,0.1,1.9,0.5
		c0.5,0.4,0.8,1.1,0.7,1.8c0,0.4-0.2,0.7-0.3,1c0.5,0.1,0.9,0,1.3-0.2c0.1-0.1,0.3-0.1,0.4-0.2c-0.3-0.6-0.7-1.1-1.1-1.6
		c-0.1-0.2-0.2-0.4-0.2-0.6c0-0.2,0.1-0.4,0.3-0.6c0.3-0.3,0.8-0.3,1.1,0.1c0,0,0,0,0,0c0.6,0.7,1.1,1.4,1.5,2.2
		c0.4,0.1,0.8-0.1,1-0.3c0.1-0.1,0.3-0.3,0.4-0.5c-0.2-0.4-0.5-0.8-0.8-1.2c-0.6-0.6-1.2-1.1-1.8-1.5c-0.2-0.1-0.3-0.3-0.3-0.5
		c0-0.2,0-0.4,0.1-0.6c0.1-0.2,0.3-0.3,0.5-0.3c0.2,0,0.4,0,0.6,0.1c0.8,0.5,1.5,1.1,2.1,1.8c0.4,0.5,0.8,1,1.1,1.5
		c0.5,0,1-0.1,1.3-0.5c0.1-0.1,0.2-0.2,0.2-0.4c-1.1-1.5-2.4-2.7-4-3.6c-0.4-0.2-0.5-0.7-0.4-1.1c0.1-0.2,0.3-0.3,0.5-0.4
		c0.2-0.1,0.4-0.1,0.6,0C46.9,85.3,48.4,86.7,49.6,88.4"/>
</g>
<g>
	<path class="st7" d="M39.5,81c0.5-0.4,1-0.6,1.5-0.8c2.6-0.7,5.4,1.1,6.8,2c1.6,1,3,2.3,4.2,3.8l0.1,0.1l0,0l0,0
		c0.4,0.5,0.9,0.9,1.4,1.2c3.3,2.3,6.9,4.2,10.6,5.7c1.3-2.5,2.4-5.1,3.3-7.8c0.2-0.7,0.4-1.3,0.6-2c-4-0.3-7.9-1-11.8-2
		c-3.5-0.8-6.1-1.7-6.2-1.7l-1.9-0.7c-1.4-0.7-3-1-4.6-1.1h-0.5h-0.7c-1-0.1-2.1,0.1-3,0.6c-0.6,0.4-1,0.7-1.3,1
		c-0.4,0.3-0.8,0.6-1.2,0.9c-0.4,0.3-0.8,0.5-1.3,0.7c-0.4,0.2-0.8,0.4-1.1,0.6c0,0.1,0,0.2,0.1,0.4s0.7,0.3,1.4,0.2
		c0.9-0.1,1.8-0.3,2.5-0.8C38.9,81.3,39.2,81.2,39.5,81"/>
</g>
</svg>
