<svg xmlns="http://www.w3.org/2000/svg" viewBox="0 0 100 100"><defs><style>.cls-1{isolation:isolate;}.cls-2,.cls-3,.cls-5{fill:#1460aa;}.cls-2{opacity:0.63;}.cls-4{fill:#51b7d6;}.cls-5{opacity:0.1;mix-blend-mode:multiply;}.cls-6{fill:#aceaf9;}.cls-7{fill:#fff;}</style></defs><title>iconos gama azules</title><g class="cls-1"><g id="Layer_2" data-name="Layer 2"><path class="cls-2" d="M77.84,14.82H26.72a9.19,9.19,0,0,0,0,18.37H77.84a9.19,9.19,0,0,0,0-18.37Z"/><path class="cls-3" d="M77.84,14.82H26.72a9.19,9.19,0,0,0,0,18.37H77.84a9.19,9.19,0,0,0,0-18.37Zm0,14.83H26.72a5.65,5.65,0,1,1,0-11.29H77.84a5.65,5.65,0,1,1,0,11.29Z"/><path class="cls-4" d="M37.76,77.57A2.58,2.58,0,0,1,35.18,75V17.16H73.31V75a2.57,2.57,0,0,1-2.58,2.58Z"/><path class="cls-3" d="M72.06,18.41V75a1.32,1.32,0,0,1-1.33,1.33h-33A1.33,1.33,0,0,1,36.43,75V18.41H72.06m2.5-2.5H33.93V75a3.83,3.83,0,0,0,3.83,3.83h33A3.82,3.82,0,0,0,74.56,75V15.91Z"/><path class="cls-5" d="M72.06,57.63V18.41H36.43v16C53.21,34.22,66.71,37.27,72.06,57.63Z"/><path class="cls-6" d="M32.5,18.41H68.14a0,0,0,0,1,0,0v52.9a1.33,1.33,0,0,1-1.33,1.33h-33a1.33,1.33,0,0,1-1.33-1.33V18.41A0,0,0,0,1,32.5,18.41Z"/><path class="cls-3" d="M68.14,18.41v52.9a1.34,1.34,0,0,1-1.33,1.33h-33a1.34,1.34,0,0,1-1.33-1.33V18.41H68.14m2.5-2.5H30v55.4a3.84,3.84,0,0,0,3.83,3.83h33a3.84,3.84,0,0,0,3.83-3.83V15.91Z"/><path class="cls-5" d="M68.14,47.4v-29H32.5v5.73C49.29,24,62.78,27,68.14,47.4Z"/><ellipse class="cls-3" cx="50.32" cy="45.09" rx="7.42" ry="11.17"/><path class="cls-3" d="M50.32,34.51c3.76,0,6.83,4.74,6.83,10.58s-3.07,10.57-6.83,10.57-6.83-4.74-6.83-10.57,3.06-10.58,6.83-10.58m0-1.19c-4.43,0-8,5.27-8,11.77s3.59,11.76,8,11.76,8-5.27,8-11.76-3.59-11.77-8-11.77Z"/><path class="cls-7" d="M50.49,37.7a.72.72,0,0,1,.73.73v.38a6.17,6.17,0,0,1,2.65.93.93.93,0,0,1,.51.82.94.94,0,0,1-1,.94,1,1,0,0,1-.51-.15,5.85,5.85,0,0,0-1.75-.75v3.27c2.59.65,3.7,1.69,3.7,3.52s-1.47,3.12-3.64,3.33v1a.73.73,0,0,1-.73.74.75.75,0,0,1-.75-.74V50.68a7.25,7.25,0,0,1-3.5-1.33.94.94,0,0,1-.46-.82.94.94,0,0,1,1.5-.75,6.18,6.18,0,0,0,2.53,1.15V45.56c-2.5-.65-3.66-1.58-3.66-3.51S47.6,39,49.74,38.79v-.36A.74.74,0,0,1,50.49,37.7Zm-.68,5.82v-3c-1.1.1-1.64.68-1.64,1.43S48.49,43.09,49.81,43.52Zm1.35,2.37V49c1.09-.12,1.68-.66,1.68-1.48S52.47,46.3,51.16,45.89Z"/></g></g></svg>