<svg xmlns="http://www.w3.org/2000/svg" viewBox="0 0 100 100"><defs><style>.cls-1{isolation:isolate;}.cls-2{fill:#fff;}.cls-3,.cls-5,.cls-6{fill:#51b7d6;}.cls-3{opacity:0.6;}.cls-3,.cls-5,.cls-6,.cls-9{mix-blend-mode:multiply;}.cls-4{fill:#1460aa;}.cls-5{opacity:0.4;}.cls-6,.cls-9{opacity:0.15;}.cls-7{fill:#2fb9ea;}.cls-8{fill:#1393ce;}.cls-10{fill:none;}</style></defs><title>iconos gama azules</title><g class="cls-1"><g id="Layer_2" data-name="Layer 2"><rect class="cls-2" x="14.65" y="14.62" width="63.26" height="43.81" rx="3.52" ry="3.52"/><rect class="cls-3" x="14.36" y="14.71" width="63.84" height="42.97" rx="2.42" ry="2.42"/><path class="cls-4" d="M74.88,12.65H17.65A4.67,4.67,0,0,0,13,17.32V54.89a4.66,4.66,0,0,0,4.66,4.66H74.88a4.66,4.66,0,0,0,4.66-4.66V17.32A4.67,4.67,0,0,0,74.88,12.65Zm2,42.24a2,2,0,0,1-2,2H17.65a2,2,0,0,1-2-2V17.32a2,2,0,0,1,2-2H74.88a2,2,0,0,1,2,2Z"/><rect class="cls-2" x="28.15" y="21.44" width="63.26" height="43.81" rx="3.52" ry="3.52"/><rect class="cls-5" x="27.86" y="21.53" width="63.84" height="42.97" rx="2.42" ry="2.42"/><path class="cls-4" d="M88.38,19.48H31.16a4.67,4.67,0,0,0-4.67,4.66V61.72a4.67,4.67,0,0,0,4.67,4.66H88.38A4.66,4.66,0,0,0,93,61.72V24.14A4.66,4.66,0,0,0,88.38,19.48Zm2,42.24a2,2,0,0,1-2,2H31.16a2,2,0,0,1-2-2V24.14a2,2,0,0,1,2-2H88.38a2,2,0,0,1,2,2Z"/><rect class="cls-2" x="21.12" y="28.48" width="63.26" height="43.81" rx="3.52" ry="3.52"/><rect class="cls-6" x="21.12" y="28.48" width="63.84" height="42.97" rx="2.42" ry="2.42"/><path class="cls-6" d="M51,65.55c-24.26-.23-25.93-12.7-29.88-24.81V69a2.43,2.43,0,0,0,2.42,2.42h59A2.43,2.43,0,0,0,85,69V65.54S58.33,65.62,51,65.55Z"/><path class="cls-4" d="M81.35,26.52H24.12a4.66,4.66,0,0,0-4.66,4.66V68.75a4.66,4.66,0,0,0,4.66,4.66H81.35A4.66,4.66,0,0,0,86,68.75V31.18A4.66,4.66,0,0,0,81.35,26.52Zm2,42.23a2,2,0,0,1-2,2H24.12a2,2,0,0,1-2-2V31.18a2,2,0,0,1,2-2H81.35a2,2,0,0,1,2,2Z"/><path class="cls-7" d="M29.77,61.61v-.14h18.4v.14c0-5.62-4.12-10.19-9.2-10.19S29.77,56,29.77,61.61Z"/><path class="cls-8" d="M44.34,44.68A5.37,5.37,0,1,0,39,50.06,5.37,5.37,0,0,0,44.34,44.68Z"/><g class="cls-9"><path class="cls-4" d="M40.88,51.65A7.67,7.67,0,0,1,42.8,58.2a6.41,6.41,0,0,1-2,3.27h7.4C48.1,56.64,45,52.61,40.88,51.65Z"/><path class="cls-4" d="M40.9,39.71a9.52,9.52,0,0,1,.5,3A11.65,11.65,0,0,1,38.8,50l.17,0A5.35,5.35,0,0,0,40.9,39.71Z"/></g><path class="cls-10" d="M29.77,61.61v-.14h18.4v.14c0-5.62-4.12-10.19-9.2-10.19S29.77,56,29.77,61.61Z"/><path class="cls-7" d="M44.34,44.68A5.37,5.37,0,1,0,39,50.06,5.37,5.37,0,0,0,44.34,44.68Z"/><path class="cls-4" d="M52.41,55.13H74.17a1.36,1.36,0,1,0,0-2.71H52.41a1.36,1.36,0,1,0,0,2.71Z"/><path class="cls-4" d="M52.41,48.44H74.17a1.36,1.36,0,1,0,0-2.71H52.41a1.36,1.36,0,1,0,0,2.71Z"/><path class="cls-4" d="M52.41,61.47H74.17a1.36,1.36,0,1,0,0-2.71H52.41a1.36,1.36,0,1,0,0,2.71Z"/></g></g></svg>