<svg xmlns="http://www.w3.org/2000/svg" viewBox="0 0 100 100"><defs><style>.cls-1{isolation:isolate;}.cls-2{fill:#77c9e9;}.cls-3{fill:#89d0ec;}.cls-4{fill:#51b7d6;opacity:0.21;mix-blend-mode:multiply;}.cls-5{fill:#1460aa;}.cls-6{fill:#fff;}.cls-7{fill:#12b5e1;}</style></defs><title>iconos gama azules</title><g class="cls-1"><g id="Layer_2" data-name="Layer 2"><polygon class="cls-2" points="60.12 19.54 60.26 26.5 67.19 26.5 60.12 19.54"/><path class="cls-3" d="M63.63,11.26H28.71a4.06,4.06,0,0,0-4.05,4.05V66.83a4.06,4.06,0,0,0,4.05,4H69.8a4.06,4.06,0,0,0,4-4V21.74c-1.81-1.57-7.32,1.52-9-.21S65.27,13.14,63.63,11.26Z"/><path class="cls-4" d="M67.88,21.53V55.68a4.06,4.06,0,0,1-4,4H25.13a3.75,3.75,0,0,1-.47,0v7.16a4.06,4.06,0,0,0,4.05,4H69.8a4.06,4.06,0,0,0,4-4V21.74C70.86,19.15,70.52,24.48,67.88,21.53Z"/><path class="cls-5" d="M59.8,69.14h-30a3.89,3.89,0,0,1-3.89-3.89V16a3.89,3.89,0,0,1,3.89-3.89H62l.06,10.09a1.77,1.77,0,0,0,1.8,1.73c.62,0,4.91.05,8.73,0V56l.42,0a13.4,13.4,0,0,1,2.63.26l-.12-35v-.15L64.29,9.11,64.19,9H29.79a7,7,0,0,0-7,7V65.25a7,7,0,0,0,7,7H60.18a12.91,12.91,0,0,1-.38-3.07ZM70.25,20.45c-1.79,0-3.51,0-4.71,0l0-5.17Z"/><path class="cls-5" d="M63.17,31.7H35.45a1.55,1.55,0,1,0,0,3.09H63.17a1.55,1.55,0,1,0,0-3.09Z"/><path class="cls-5" d="M63.17,38.23H35.45a1.55,1.55,0,1,0,0,3.09H63.17a1.55,1.55,0,1,0,0-3.09Z"/><path class="cls-5" d="M63.17,44.76H35.45a1.55,1.55,0,1,0,0,3.09H63.17a1.55,1.55,0,1,0,0-3.09Z"/><path class="cls-5" d="M63.17,51.29H35.45a1.55,1.55,0,1,0,0,3.09H63.17a1.55,1.55,0,1,0,0-3.09Z"/><path class="cls-6" d="M72.42,53.53A14.07,14.07,0,1,0,86.48,67.6,14.08,14.08,0,0,0,72.42,53.53Z"/><path class="cls-5" d="M72.42,56.12A11.48,11.48,0,1,0,83.9,67.6,11.49,11.49,0,0,0,72.42,56.12Zm0,20.74a9.27,9.27,0,1,1,9.26-9.26A9.27,9.27,0,0,1,72.42,76.86Z"/><polygon class="cls-7" points="77.63 62.15 71.04 67.97 67.31 64.21 65.23 66.05 71.13 73.39 71.13 73.39 79.61 63.88 77.63 62.15"/></g></g></svg>