<svg xmlns="http://www.w3.org/2000/svg" viewBox="0 0 100 100"><defs><style>.cls-1{isolation:isolate;}.cls-12,.cls-2,.cls-3,.cls-4,.cls-5{fill:#51b7d6;}.cls-2{opacity:0.5;}.cls-3{opacity:0.2;}.cls-11,.cls-3,.cls-4,.cls-5{mix-blend-mode:multiply;}.cls-11,.cls-4{opacity:0.15;}.cls-5{opacity:0.7;}.cls-6{fill:#009dd8;stroke:#1460aa;stroke-linecap:round;stroke-linejoin:round;stroke-width:2px;}.cls-7{fill:#1460aa;}.cls-10,.cls-8{fill:#60bbe1;}.cls-8{opacity:0.54;}.cls-9{fill:#7bcbea;}</style></defs><title>iconos gama azules</title><g class="cls-1"><g id="Layer_2" data-name="Layer 2"><circle class="cls-2" cx="53.46" cy="43.51" r="6.61"/><circle class="cls-2" cx="83.66" cy="43.51" r="6.61"/><path class="cls-3" d="M51.3,45.33A10.2,10.2,0,0,1,59.56,41a6.61,6.61,0,1,0-9.51,8.2A8.54,8.54,0,0,1,51.3,45.33Z"/><path class="cls-4" d="M79.56,48.69a15.58,15.58,0,0,1,9.8-8.52,6.61,6.61,0,1,0-9.8,8.52Z"/><path class="cls-5" d="M53.53,31.48S62.16,17.92,71.9,17A19.28,19.28,0,0,1,92.78,31.48Z"/><path class="cls-4" d="M75.91,22.12c6.9.16,11.13,4.42,14.78,9.36h2.09A19.28,19.28,0,0,0,71.9,17c-9.74,1-18.37,14.51-18.37,14.51h2.39C62.85,25.39,69.65,22,75.91,22.12Z"/><path class="cls-6" d="M95.06,34c0-3-1.88-20.17-21.32-19-14.12.87-17.45,12.44-23.88,14.66-12.68,4.36-7.29,16.76-7.29,16.76h2.8a8.67,8.67,0,0,0,16.32,0H75.75A8.68,8.68,0,0,0,92.46,45l2.85.11s0-6.72-.25-10.91ZM56.58,46.56a4.25,4.25,0,1,1,1.29-3.05A4.16,4.16,0,0,1,56.58,46.56Zm17.14-16-16.94.12c5.23-6,9.54-10.94,16.94-11.44ZM87,46.56a4.25,4.25,0,1,1,1.29-3.05A4.14,4.14,0,0,1,87,46.56Zm-10.69-16V19.27c10.18.54,12.53,7.45,13.57,11.2Z"/><path class="cls-7" d="M39.87,48.91a1.07,1.07,0,0,0,.31-.06.64.64,0,0,0,.26-.18.75.75,0,0,0,.23-.55.79.79,0,0,0-.23-.56.82.82,0,0,0-.87-.17.62.62,0,0,0-.25.17.8.8,0,0,0-.24.56.76.76,0,0,0,.24.55A.72.72,0,0,0,39.87,48.91Z"/><path class="cls-8" d="M18.15,70.29a5.49,5.49,0,1,0,5.49,5.49A5.49,5.49,0,0,0,18.15,70.29Z"/><path class="cls-9" d="M18.15,66a9.69,9.69,0,0,0-7.31,3.32l1.6,1.11a7.85,7.85,0,0,1,13.48,4.13l1.88,0A9.74,9.74,0,0,0,18.15,66Z"/><path class="cls-8" d="M29.2,47.53c0-.76-1.12-1.57-2.16-1.82v3.64C28.08,49.1,29.2,48.3,29.2,47.53Z"/><path class="cls-9" d="M59,62.6l-.08-.05H48.13a.8.8,0,0,1,0-1.59h9.73c-.6-1.08-1.27-2.26-1.51-2.58a1.47,1.47,0,0,0-1.2-.61h0l-12.43,0a1,1,0,0,0-.9,1.41,9.53,9.53,0,0,1-8.74,13.5h0A9.43,9.43,0,0,1,29.69,72a12.17,12.17,0,0,1,.5,2.5l35.76,0C65.41,65.83,59.07,62.63,59,62.6Z"/><path class="cls-8" d="M58,80a4.1,4.1,0,0,1-3.94-3H52.66a5.48,5.48,0,0,0,10.71,0H61.94A4.23,4.23,0,0,1,58,80Z"/><path class="cls-10" d="M58,78.4A2.64,2.64,0,0,0,60.27,77H55.73A2.54,2.54,0,0,0,58,78.4Z"/><path class="cls-9" d="M20.38,63.79a12.08,12.08,0,0,1,3.56,1.26,9.15,9.15,0,0,1,.52-5.21,49.08,49.08,0,0,1,4.9-8.32.43.43,0,0,1,0-.07l-.77.72C25.15,55.37,21,59.26,20.38,63.79Z"/><path class="cls-7" d="M46.38,61a.81.81,0,0,0-.61,0,1,1,0,0,0-.27.17.83.83,0,0,0-.22.57.78.78,0,0,0,.22.55.83.83,0,0,0,.57.23.81.81,0,0,0,.31,0,.72.72,0,0,0,.25-.18.8.8,0,0,0,.24-.55.82.82,0,0,0-.49-.74Z"/><path class="cls-7" d="M18.15,71.74a4.11,4.11,0,0,0,0,8.22,4.22,4.22,0,0,0,4.11-4.11A4.11,4.11,0,0,0,18.15,71.74Zm0,6.66a2.55,2.55,0,1,1,2.56-2.55A2.66,2.66,0,0,1,18.15,78.4Z"/><g class="cls-11"><path class="cls-12" d="M39.87,48.91a1.07,1.07,0,0,0,.31-.06.64.64,0,0,0,.26-.18.75.75,0,0,0,.23-.55.79.79,0,0,0-.23-.56.82.82,0,0,0-.87-.17.62.62,0,0,0-.25.17.8.8,0,0,0-.24.56.76.76,0,0,0,.24.55A.72.72,0,0,0,39.87,48.91Z"/><path class="cls-12" d="M18.15,70.29a5.21,5.21,0,0,0-2,.41c2.3.25,4.77,1.61,5.65,3.17,1.39,2.47.6,4.63-.87,6.61a5.43,5.43,0,0,0,2.73-4.7A5.49,5.49,0,0,0,18.15,70.29Z"/><path class="cls-12" d="M53.14,59.11c-2.14.33-4.25.82-5,1.86h9.76c-.47-.85-1-1.76-1.3-2.26C55.43,58.87,54.29,59,53.14,59.11Z"/><path class="cls-12" d="M61.74,71.07a10,10,0,0,1,.91,3.51H66c-.54-8.76-6.88-12-6.94-12l-.08-.05H51.87C56.11,64.06,59.82,66.74,61.74,71.07Z"/><path class="cls-12" d="M62.34,77a9.42,9.42,0,0,1-3.67,4.24A5.47,5.47,0,0,0,63.37,77Z"/><path class="cls-12" d="M28.46,52.86a24.46,24.46,0,0,0-3.21,4c-.91,1.6-1.41,3.41-2.47,4.93a8.7,8.7,0,0,1-2,2.05,11.93,11.93,0,0,1,3.17,1.17,9.15,9.15,0,0,1,.52-5.21A43.07,43.07,0,0,1,28.46,52.86Z"/></g><circle class="cls-10" cx="18.15" cy="75.81" r="2.95"/><path class="cls-7" d="M39.87,48.91a1.07,1.07,0,0,0,.31-.06.64.64,0,0,0,.26-.18.75.75,0,0,0,.23-.55.79.79,0,0,0-.23-.56.82.82,0,0,0-.87-.17.62.62,0,0,0-.25.17.8.8,0,0,0-.24.56.76.76,0,0,0,.24.55A.72.72,0,0,0,39.87,48.91Z"/><path class="cls-7" d="M60.41,60.65c-.5-.91-1.68-3.08-2.15-3.7a3.89,3.89,0,0,0-3.11-1.56H42.72A3.38,3.38,0,0,0,39.88,57a3.35,3.35,0,0,0-.23,3.23,7.15,7.15,0,0,1-6.49,10.13h-.07a7,7,0,0,1-5.78-3.13,6.82,6.82,0,0,1-.65-6.44,48.29,48.29,0,0,1,4.68-7.9,11.83,11.83,0,0,0,1.36-2.49l4.24,2.4a1.1,1.1,0,0,0,.58.16,1.2,1.2,0,0,0,1-.6,1.19,1.19,0,0,0-.45-1.63L35,48.91h2.84a.79.79,0,0,0,.79-.79.8.8,0,0,0-.79-.8H32.37l.44-5.93.74-.51v1.57a.8.8,0,0,0,.8.79.79.79,0,0,0,.79-.79V37.37a.79.79,0,0,0-.79-.79.79.79,0,0,0-.8.79v1.57l-2,1.37a.77.77,0,0,0-.34.59l-.4,5.47a5.14,5.14,0,0,0-4.41-2.67,3.1,3.1,0,0,0-.49,0,1,1,0,0,0-.84,1v5.66a1,1,0,0,0,.91,1h0c-3.57,3.33-7.48,7.31-8,12.25a12.1,12.1,0,0,0-9.83,5.27,1.21,1.21,0,0,0,.3,1.67l2.63,1.82a7.77,7.77,0,0,0-.8,3.44,7.87,7.87,0,0,0,15.66,1.14l24.3,0a7.86,7.86,0,0,0,15.55,0h1.39a1.27,1.27,0,0,0,.84-.41,1.36,1.36,0,0,0,.35-.91C68.37,65.83,62,61.57,60.41,60.65ZM27,45.71c1,.25,2.16,1.06,2.16,1.82S28.08,49.1,27,49.35Zm1.59,6.46.77-.72a.43.43,0,0,0,0,.07,49.08,49.08,0,0,0-4.9,8.32,9.15,9.15,0,0,0-.52,5.21,12.08,12.08,0,0,0-3.56-1.26C21,59.26,25.15,55.37,28.63,52.17ZM18.15,81.27a5.49,5.49,0,1,1,5.49-5.49A5.49,5.49,0,0,1,18.15,81.27Zm7.77-6.76a7.85,7.85,0,0,0-13.48-4.13l-1.6-1.11a9.72,9.72,0,0,1,17,5.22ZM58,81.27A5.49,5.49,0,0,1,52.66,77h1.42A4.1,4.1,0,0,0,58,80a4.23,4.23,0,0,0,3.92-3h1.43A5.49,5.49,0,0,1,58,81.27ZM55.73,77h4.54A2.64,2.64,0,0,1,58,78.4,2.54,2.54,0,0,1,55.73,77ZM30.19,74.54a12.17,12.17,0,0,0-.5-2.5,9.43,9.43,0,0,0,3.39.66h0a9.53,9.53,0,0,0,8.74-13.5,1,1,0,0,1,.9-1.41l12.43,0h0a1.47,1.47,0,0,1,1.2.61c.24.32.91,1.5,1.51,2.58H48.13a.8.8,0,0,0,0,1.59h10.8l.08.05c.06,0,6.4,3.23,6.94,12Z"/><path class="cls-7" d="M46.38,61a.81.81,0,0,0-.61,0,1,1,0,0,0-.27.17.83.83,0,0,0-.22.57.78.78,0,0,0,.22.55.83.83,0,0,0,.57.23.81.81,0,0,0,.31,0,.72.72,0,0,0,.25-.18.8.8,0,0,0,.24-.55.82.82,0,0,0-.49-.74Z"/><path class="cls-7" d="M18.15,71.74a4.11,4.11,0,0,0,0,8.22,4.22,4.22,0,0,0,4.11-4.11A4.11,4.11,0,0,0,18.15,71.74Zm0,6.66a2.55,2.55,0,1,1,2.56-2.55A2.66,2.66,0,0,1,18.15,78.4Z"/></g></g></svg>