<svg id="Layer_1" data-name="Layer 1" xmlns="http://www.w3.org/2000/svg" viewBox="0 0 158.75 66.75"><defs><style>.cls-1{fill:#fff;}.cls-2{fill:#ffc20e;}.cls-3{fill:#231f20;}.cls-4{fill:#0095d5;}.cls-5{fill:#ef4123;}.cls-6{fill:#fcbc80;}.cls-7{fill:#2da44a;}</style></defs><title>MockUp-LogosPRESIDENCIA-PBA</title><path class="cls-1" d="M48.62,18.24h5.12c3,0,4.94,1.73,4.94,4.34v0c0,2.91-2.34,4.43-5.2,4.43H50.9v4.17H48.62ZM53.56,25c1.73,0,2.8-1,2.8-2.32v0c0-1.52-1.09-2.32-2.8-2.32H50.9V25Z"/><path class="cls-1" d="M60.85,21.43h2.25v2.21a3.47,3.47,0,0,1,3.47-2.39v2.38h-.13c-2,0-3.34,1.28-3.34,3.88v3.73H60.85Z"/><path class="cls-1" d="M68,26.37v0a4.86,4.86,0,0,1,4.79-5.1c3.12,0,4.69,2.45,4.69,5.27,0,.2,0,.41,0,.63h-7.2a2.73,2.73,0,0,0,2.82,2.49,3.56,3.56,0,0,0,2.65-1.17l1.32,1.17a5,5,0,0,1-4,1.84A4.89,4.89,0,0,1,68,26.37Zm7.25-.72a2.54,2.54,0,0,0-2.49-2.58,2.65,2.65,0,0,0-2.54,2.58Z"/><path class="cls-1" d="M79.09,30l1-1.52a5.54,5.54,0,0,0,3.21,1.21c1,0,1.52-.41,1.52-1.06v0c0-.76-1-1-2.19-1.37-1.45-.41-3.06-1-3.06-2.88v0c0-1.86,1.54-3,3.49-3a6.79,6.79,0,0,1,3.6,1.11L85.77,24A5.69,5.69,0,0,0,83,23c-.87,0-1.37.41-1.37,1v0c0,.72,1.06,1,2.21,1.39,1.43.45,3,1.09,3,2.86v0c0,2.06-1.6,3.08-3.64,3.08A6.88,6.88,0,0,1,79.09,30Z"/><path class="cls-1" d="M89.31,17.8h2.41v2.13H89.31Zm.09,3.64h2.25v9.8H89.41Z"/><path class="cls-1" d="M94.18,26.35v0c0-3.25,2.21-5.08,4.55-5.08A4,4,0,0,1,102.06,23V17.69h2.25V31.23h-2.25V29.6a3.92,3.92,0,0,1-3.34,1.84C96.42,31.43,94.18,29.6,94.18,26.35Zm7.92,0v0a2.94,2.94,0,0,0-2.84-3.14,2.87,2.87,0,0,0-2.82,3.14v0a2.91,2.91,0,0,0,2.82,3.14A3,3,0,0,0,102.1,26.35Z"/><path class="cls-1" d="M106.66,26.37v0a4.86,4.86,0,0,1,4.79-5.1c3.12,0,4.69,2.45,4.69,5.27,0,.2,0,.41,0,.63h-7.2a2.73,2.73,0,0,0,2.82,2.49,3.56,3.56,0,0,0,2.65-1.17l1.32,1.17a5,5,0,0,1-4,1.84A4.89,4.89,0,0,1,106.66,26.37Zm7.25-.72a2.54,2.54,0,0,0-2.49-2.58,2.65,2.65,0,0,0-2.54,2.58Z"/><path class="cls-1" d="M118.5,21.43h2.25v1.5a3.55,3.55,0,0,1,3.06-1.71c2.21,0,3.49,1.48,3.49,3.75v6.25h-2.25V25.66c0-1.52-.76-2.39-2.1-2.39a2.18,2.18,0,0,0-2.21,2.43v5.53H118.5Z"/><path class="cls-1" d="M129.56,26.39v0a5.06,5.06,0,0,1,5.1-5.12,5,5,0,0,1,3.92,1.69l-1.41,1.5a3.29,3.29,0,0,0-2.52-1.22,3,3,0,0,0-2.84,3.12v0a3,3,0,0,0,2.93,3.14,3.43,3.43,0,0,0,2.54-1.21l1.35,1.34a5.14,5.14,0,0,1-9.07-3.23Z"/><path class="cls-1" d="M140.82,17.8h2.41v2.13h-2.41Zm.09,3.64h2.25v9.8h-2.25Z"/><path class="cls-1" d="M145.54,28.41v0c0-2.12,1.65-3.15,4-3.15a8.18,8.18,0,0,1,2.63.41v-.24c0-1.39-.85-2.13-2.43-2.13a6.82,6.82,0,0,0-2.8.61l-.59-1.76a8.36,8.36,0,0,1,3.69-.8,4.39,4.39,0,0,1,3.25,1.09,4.07,4.07,0,0,1,1.06,3v5.81H152.2V30A4,4,0,0,1,149,31.43C147.17,31.43,145.54,30.38,145.54,28.41Zm6.72-.71V27a6.22,6.22,0,0,0-2.23-.39c-1.45,0-2.3.61-2.3,1.63v0c0,.95.83,1.48,1.91,1.48C151.12,29.8,152.25,28.95,152.25,27.71Z"/><path class="cls-1" d="M47.49,46.06v0c0-3.25,2.21-5.08,4.55-5.08a4,4,0,0,1,3.34,1.73V37.39h2.25V50.94H55.38V49.31A3.92,3.92,0,0,1,52,51.14C49.73,51.14,47.49,49.31,47.49,46.06Zm7.92,0v0a2.94,2.94,0,0,0-2.84-3.14A2.87,2.87,0,0,0,49.75,46v0a2.91,2.91,0,0,0,2.82,3.14A3,3,0,0,0,55.41,46.06Z"/><path class="cls-1" d="M59.25,46.08v0A4.86,4.86,0,0,1,64,40.94c3.12,0,4.69,2.45,4.69,5.27,0,.2,0,.41,0,.63H61.5a2.73,2.73,0,0,0,2.82,2.49A3.56,3.56,0,0,0,67,48.16l1.32,1.17a5,5,0,0,1-4,1.84A4.89,4.89,0,0,1,59.25,46.08Zm7.25-.72A2.54,2.54,0,0,0,64,42.77a2.65,2.65,0,0,0-2.54,2.58Z"/><path class="cls-1" d="M75.43,37.39h2.25V50.94H75.43Z"/><path class="cls-1" d="M79.31,48.12v0c0-2.12,1.65-3.15,4-3.15a8.18,8.18,0,0,1,2.63.41v-.24C86,43.7,85.14,43,83.56,43a6.82,6.82,0,0,0-2.8.61l-.59-1.76a8.36,8.36,0,0,1,3.69-.8,4.39,4.39,0,0,1,3.25,1.09,4.07,4.07,0,0,1,1.06,3v5.81H86V49.71a4,4,0,0,1-3.19,1.43C80.95,51.14,79.31,50.08,79.31,48.12ZM86,47.41v-.67a6.22,6.22,0,0,0-2.23-.39c-1.45,0-2.3.61-2.3,1.63v0c0,.95.83,1.48,1.91,1.48C84.9,49.51,86,48.66,86,47.41Z"/><path class="cls-1" d="M95.42,38h2.12l7,9V38h2.25v13h-1.91L97.66,41.7v9.24H95.42Z"/><path class="cls-1" d="M108.52,48.12v0c0-2.12,1.65-3.15,4-3.15a8.18,8.18,0,0,1,2.63.41v-.24c0-1.39-.85-2.13-2.43-2.13a6.82,6.82,0,0,0-2.8.61l-.59-1.76a8.36,8.36,0,0,1,3.69-.8,4.39,4.39,0,0,1,3.25,1.09,4.07,4.07,0,0,1,1.06,3v5.81h-2.19V49.71A4,4,0,0,1,112,51.14C110.15,51.14,108.52,50.08,108.52,48.12Zm6.72-.71v-.67a6.22,6.22,0,0,0-2.23-.39c-1.45,0-2.3.61-2.3,1.63v0c0,.95.83,1.48,1.91,1.48C114.1,49.51,115.24,48.66,115.24,47.41Z"/><path class="cls-1" d="M118.89,46.1v0a5.06,5.06,0,0,1,5.1-5.12,5,5,0,0,1,3.92,1.69l-1.41,1.5A3.29,3.29,0,0,0,124,42.9,3,3,0,0,0,121.14,46v0a3,3,0,0,0,2.93,3.14A3.43,3.43,0,0,0,126.61,48L128,49.32a5.14,5.14,0,0,1-9.07-3.23Z"/><path class="cls-1" d="M129.41,37.5h2.41v2.13h-2.41Zm.09,3.64h2.25v9.8h-2.25Z"/><path class="cls-1" d="M133.5,46.1v0a5.22,5.22,0,0,1,10.45,0v0a5.12,5.12,0,0,1-5.25,5.1A5.07,5.07,0,0,1,133.5,46.1Zm8.2,0v0a3,3,0,0,0-3-3.15,2.94,2.94,0,0,0-3,3.12v0a3,3,0,0,0,3,3.14A2.94,2.94,0,0,0,141.7,46.1Zm-1.95-9.24,2,.91-2.28,2.13h-1.69Z"/><path class="cls-1" d="M145.59,41.14h2.25v1.5a3.55,3.55,0,0,1,3.06-1.71c2.21,0,3.49,1.48,3.49,3.75v6.25h-2.25V45.37c0-1.52-.76-2.39-2.1-2.39a2.18,2.18,0,0,0-2.21,2.43v5.53h-2.25Z"/><path class="cls-2" d="M15.37,13.06l-3,.45,3,.44a.09.09,0,0,1,.08.07.09.09,0,0,1,0,.09,3.42,3.42,0,0,1-1,.39,12.26,12.26,0,0,0-1.3.37,4.31,4.31,0,0,0-.57.25,3.42,3.42,0,0,1,1.28,0l.52,0h.43l0,0a6.06,6.06,0,0,1,1.85-.82.23.23,0,0,1,.3.24.52.52,0,0,1,0,.07,4,4,0,0,1,.52-.27,6.17,6.17,0,0,1,1.94-.45.24.24,0,0,1,.25.27v0a3.85,3.85,0,0,1,.75-.22,6.18,6.18,0,0,1,2,0,.23.23,0,0,1,.18.13.21.21,0,0,1,0,.12,4,4,0,0,1,.7-.05,6.12,6.12,0,0,1,2,.37.24.24,0,0,1,.15.17.4.4,0,0,1,0,.06,3.64,3.64,0,0,1,1.48.32H27a12,12,0,0,0,1.34.16,4.39,4.39,0,0,0,.62,0,3.41,3.41,0,0,1-1.2-.45l-.46-.24a5.16,5.16,0,0,0-1.17-.36A.09.09,0,0,1,26,14a.09.09,0,0,1,.08-.09l3-.45-3-.43A.09.09,0,0,1,26,13a.09.09,0,0,1,0-.09,3.54,3.54,0,0,1,1-.39,12.08,12.08,0,0,0,1.3-.37,4.49,4.49,0,0,0,.57-.24,3.4,3.4,0,0,1-1.28,0l-.51,0a5.11,5.11,0,0,0-1.22.12.08.08,0,0,1-.1-.05.09.09,0,0,1,0-.11l2.63-1.58-3,.76a.08.08,0,0,1-.09,0,.09.09,0,0,1,0-.1,3.4,3.4,0,0,1,.77-.75,12.24,12.24,0,0,0,1.06-.84,4.47,4.47,0,0,0,.43-.45,3.42,3.42,0,0,1-1.16.53L26,9.58a5.1,5.1,0,0,0-1.08.57.09.09,0,0,1-.11,0,.09.09,0,0,1,0-.12l1.83-2.46L24.21,9.4a.09.09,0,0,1-.1,0,.09.09,0,0,1,0-.09,3.52,3.52,0,0,1,.43-1,13.31,13.31,0,0,0,.66-1.18,4.57,4.57,0,0,0,.23-.58,3.46,3.46,0,0,1-.87.94l-.4.34a5.09,5.09,0,0,0-.78.95.09.09,0,0,1-.16-.07l.75-3L22.37,8.38a.09.09,0,0,1-.09,0,.08.08,0,0,1-.07-.07,3.46,3.46,0,0,1,0-1.07,13.07,13.07,0,0,0,.16-1.34,4.63,4.63,0,0,0,0-.62,3.39,3.39,0,0,1-.44,1.2c-.08.14-.16.29-.24.46a5.1,5.1,0,0,0-.35,1.17.09.09,0,0,1-.09.08.09.09,0,0,1-.09-.08l-.44-3-.43,3a.09.09,0,0,1-.16,0,3.4,3.4,0,0,1-.39-1,11.83,11.83,0,0,0-.37-1.3,4.29,4.29,0,0,0-.24-.57,3.4,3.4,0,0,1,0,1.28c0,.16,0,.33,0,.52a5.09,5.09,0,0,0,.12,1.21.09.09,0,0,1-.16.07L17.51,5.75l.76,3a.09.09,0,0,1-.14.09A3.37,3.37,0,0,1,17.4,8,12,12,0,0,0,16.56,7a4.19,4.19,0,0,0-.45-.44,3.42,3.42,0,0,1,.53,1.16c0,.16.09.32.16.49a4.92,4.92,0,0,0,.57,1.08.09.09,0,0,1,0,.12.09.09,0,0,1-.12,0L14.79,7.57,16.63,10a.09.09,0,0,1,0,.1.08.08,0,0,1-.09,0,3.4,3.4,0,0,1-1-.43,12.58,12.58,0,0,0-1.18-.66,4.38,4.38,0,0,0-.58-.23,3.39,3.39,0,0,1,.94.87c.1.13.21.26.34.39a5.07,5.07,0,0,0,.95.78A.08.08,0,0,1,16,11a.09.09,0,0,1-.1.05l-3-.75,2.64,1.57a.09.09,0,0,1,0,.16,3.43,3.43,0,0,1-1.08,0,11.81,11.81,0,0,0-1.34-.16,4.11,4.11,0,0,0-.62,0,3.38,3.38,0,0,1,1.2.44c.14.08.29.16.46.23a5,5,0,0,0,1.17.36.09.09,0,0,1,.08.09.09.09,0,0,1-.08.09"/><path class="cls-3" d="M21.65,11.33c2.54-.4,2.82.33,2.82.33a.22.22,0,0,0,.27.11s.17,0,.09-.22c0,0-.28-.83-1.63-1a5.43,5.43,0,0,0-1.46,0c-.23,0-.29.54-.29.54,0,.22.2.18.2.18"/><path class="cls-3" d="M19.49,11.82a3.14,3.14,0,0,0-1-.11,1.53,1.53,0,0,0-1.45.75c-.1.24.1.26.1.26a.25.25,0,0,0,.32-.13s.07-.2.54-.32a.57.57,0,0,0,0,.22.59.59,0,1,0,1.17,0,.62.62,0,0,0,0-.23.75.75,0,0,1,.42.38c0,.08.13.12.35.12s.18-.15.18-.15a1.13,1.13,0,0,0-.52-.78"/><path class="cls-3" d="M21.6,12.76c.22,0,.31,0,.35-.12a.75.75,0,0,1,.42-.38.59.59,0,0,0,.54.82.59.59,0,0,0,.59-.59.6.6,0,0,0,0-.22c.47.12.54.32.54.32a.26.26,0,0,0,.32.13s.2,0,.1-.26A1.53,1.53,0,0,0,23,11.71a3.15,3.15,0,0,0-1,.11,1.13,1.13,0,0,0-.52.78s-.06.15.18.15"/><path class="cls-3" d="M16.69,11.77a.22.22,0,0,0,.27-.11s.28-.73,2.82-.33c0,0,.23,0,.2-.18,0,0-.06-.5-.29-.54a5.43,5.43,0,0,0-1.46,0c-1.35.14-1.63,1-1.63,1-.09.21.09.22.09.22"/><path class="cls-4" d="M20.26,31H17.18a1.52,1.52,0,0,1-1.24-.51,1.59,1.59,0,0,1-.32-.76.25.25,0,0,1,0-.07,2.89,2.89,0,0,1,0-.94,9.64,9.64,0,0,1,1.88-4.21l-.22-.09a1.19,1.19,0,0,1-.54-1.28,3.37,3.37,0,0,1,.86-1.47,4,4,0,0,1,2.84-1.31,3.63,3.63,0,0,1,3.44,2.08,19.16,19.16,0,0,1,1.91,6.49V29a1.83,1.83,0,0,1,0,.76.26.26,0,0,1,0,.07,1.44,1.44,0,0,1-.31.54,2,2,0,0,1-1.21.58,3.38,3.38,0,0,1-.54,0H21.19v4.36H35A24.07,24.07,0,0,0,33.84,28a19.93,19.93,0,0,0-3.07-6,14.71,14.71,0,0,0-4.53-4,11.09,11.09,0,0,0-11,0,14.71,14.71,0,0,0-4.53,4,20,20,0,0,0-3.07,6,24.07,24.07,0,0,0-1.13,7.37H20.26Z"/><path class="cls-1" d="M6.48,35.34A24.49,24.49,0,0,0,7.14,41c6.16-.7,9.84-1.43,10.93-2.16A3.46,3.46,0,0,1,20.26,38V35.34Z"/><path class="cls-1" d="M21.19,38.11a5,5,0,0,1,1.41.48h.14a6.08,6.08,0,0,1,2.39.54l.86.3a40.4,40.4,0,0,0,8.32,1.65A24.36,24.36,0,0,0,35,35.34H21.19Z"/><path class="cls-5" d="M16.53,30a.66.66,0,0,1-.09-.15c1.31-.6,1.93-.76,3.73.38h-3a.78.78,0,0,1-.64-.23"/><path class="cls-5" d="M23.63,30.21h-1a4.05,4.05,0,0,1-2-.58c-2.08-1.34-3-1.17-4.3-.61,0-.06,0-.11,0-.17A9.12,9.12,0,0,1,18,25.17a5.92,5.92,0,0,1,.92-1l.16-.13a.38.38,0,0,0-.47-.6l-.18.14c-.32.23-.57.23-.71.15a.44.44,0,0,1-.16-.49,2.66,2.66,0,0,1,.66-1.07l0,0a3.31,3.31,0,0,1,2.28-1.06h0a2.73,2.73,0,0,1,1,.14,2.93,2.93,0,0,1,1.72,1.52,16.4,16.4,0,0,1,1.28,3.34,5.29,5.29,0,0,1-1.46-.81.38.38,0,1,0-.49.59,5.7,5.7,0,0,0,2.15,1.06c.1.48.18.93.25,1.36a5.49,5.49,0,0,0-1.21-.43,6,6,0,0,1-.66-.2,6.82,6.82,0,0,1-1.47-.85.38.38,0,0,0-.47.6,7.49,7.49,0,0,0,1.66,1,6.77,6.77,0,0,0,.74.23c1,.27,1.48.48,1.5,1a.68.68,0,0,1-.13.23,1.85,1.85,0,0,1-1.29.38"/><path class="cls-6" d="M19.58,44.49c-.29-.25-.6-.11-1.18.29-.25.17-.66.51-.62.84a.29.29,0,0,0,.13.24,1.21,1.21,0,0,0,.77.07,2.13,2.13,0,0,1,.76-.87.68.68,0,0,0,.26-.36.28.28,0,0,0-.12-.2"/><path class="cls-6" d="M19.29,46.18a.44.44,0,0,0,.26.15,1.55,1.55,0,0,0,1-.35h0l0,0h0c.1-.07.32-.25.34-.42s0-.11-.12-.24-.22-.16-.64.09a2,2,0,0,0-.85.78"/><path class="cls-6" d="M16.45,43.48a1.37,1.37,0,0,0-1.07.48c-.15.2-.1.32-.08.36s.2.16.42.19l.19,0a1.77,1.77,0,0,1,.54-.81l.22-.2-.2,0h0"/><path class="cls-6" d="M18,43.79c-.3-.15-.65,0-1.1.41-.28.27-.38.45-.37.65s0,.28.41.4l.21.05A2,2,0,0,1,18,44.24l.22-.15a.17.17,0,0,0,0-.1.43.43,0,0,0-.23-.2"/><path class="cls-6" d="M26.27,43.64a8.59,8.59,0,0,0-1.9-1.75,7.18,7.18,0,0,0-1.29-.71A2.06,2.06,0,0,0,21.76,41h0a1.79,1.79,0,0,0-.47.26l-.41.26a3.6,3.6,0,0,1-1.48.45,1.31,1.31,0,0,1-1.26-.39.86.86,0,0,1-.14-.86h0c.1-.28.44-.44.86-.64a5.34,5.34,0,0,0,.51-.27,5.56,5.56,0,0,0,.49-.36c.16-.13.33-.27.62-.47a1.94,1.94,0,0,1,.5-.26l-.59-.07a2.74,2.74,0,0,0-1.93.71h0a11.65,11.65,0,0,1-3.73,1.17c-1.82.36-4.31.73-7.42,1.08q.14.54.31,1.06a21,21,0,0,0,1.48,3.51c1.09-.48,3.81-1.71,5.93-2.84a2,2,0,0,1,1.51-.55,1.46,1.46,0,0,1,.8.32,1.24,1.24,0,0,1,1,.06,1,1,0,0,1,.55.58h0A1.12,1.12,0,0,1,20,44a.93.93,0,0,1,.35.62,1,1,0,0,1,.89.22.94.94,0,0,1,.32.78,1,1,0,0,1-.19.48,1.25,1.25,0,0,0,.67-.07,1.14,1.14,0,0,0,.22-.12,3.32,3.32,0,0,0-.53-.78.33.33,0,0,1,.49-.44,4,4,0,0,1,.67,1,.61.61,0,0,0,.54-.16,1,1,0,0,0,.18-.26,2.41,2.41,0,0,0-.4-.57A5.92,5.92,0,0,0,22.4,44a.33.33,0,1,1,.38-.54,6.63,6.63,0,0,1,1,.82,3.07,3.07,0,0,1,.49.72.8.8,0,0,0,.66-.25.81.81,0,0,0,.12-.2,5.94,5.94,0,0,0-1.87-1.69.33.33,0,1,1,.29-.59,6.5,6.5,0,0,1,2.12,1.89.77.77,0,0,0,.53-.17.64.64,0,0,0,.18-.37"/><path class="cls-6" d="M28.64,40.83c-1.66-.39-2.85-.77-2.87-.78h0l-.87-.31a5.59,5.59,0,0,0-2.13-.5h-.52a2.33,2.33,0,0,0-1.4.28c-.27.19-.44.33-.59.45a6.24,6.24,0,0,1-.55.41,5.74,5.74,0,0,1-.58.31,3,3,0,0,0-.54.3c0,.06,0,.1.06.23s.33.14.69.12A2.93,2.93,0,0,0,20.53,41l.37-.24a2.07,2.07,0,0,1,.69-.35c1.21-.33,2.46.49,3.13.93a9.05,9.05,0,0,1,1.94,1.74l.06.06v0h0a3.71,3.71,0,0,0,.65.58,25.38,25.38,0,0,0,4.93,2.59,21,21,0,0,0,1.54-3.63c.11-.32.2-.65.29-1a34.27,34.27,0,0,1-5.49-.89"/><path class="cls-1" d="M26.8,44.13a1.14,1.14,0,0,1-.25.36,1.36,1.36,0,0,1-.93.36,1.39,1.39,0,0,1-.23.36,1.44,1.44,0,0,1-1.21.47,1.58,1.58,0,0,1-.24.33,1.28,1.28,0,0,1-1.17.36,1.85,1.85,0,0,1-.48.28,1.94,1.94,0,0,1-1.11.09v3.65a.46.46,0,1,1-.93,0v-3.5a1.75,1.75,0,0,1-.6.12l-.24,0a1.11,1.11,0,0,1-.65-.4,1.79,1.79,0,0,1-1.23-.18.92.92,0,0,1-.34-.43,2.32,2.32,0,0,1-.44-.09,1.21,1.21,0,0,1-.81-.68l-.32,0a1.16,1.16,0,0,1-.94-.58.85.85,0,0,1-.07-.26c-2,1-4.21,2-5.21,2.47a18.87,18.87,0,0,0,1.27,1.91,14.71,14.71,0,0,0,4.53,4,11.8,11.8,0,0,0,2.43,1,1.08,1.08,0,0,1,.36-.39c.79-.52,2.29-.14,2.72,0,.42-.12,1.93-.5,2.72,0a1.05,1.05,0,0,1,.36.39,11.77,11.77,0,0,0,2.44-1,14.71,14.71,0,0,0,4.53-4A18.42,18.42,0,0,0,32,46.91a25.13,25.13,0,0,1-5.17-2.78"/><path class="cls-3" d="M37.87,38.75a.3.3,0,0,0-.21-.07c.06-.12.11-.25.16-.39a5.91,5.91,0,0,0,.34-2,.3.3,0,0,0-.33-.3,3.73,3.73,0,0,0,.12-.38,6,6,0,0,0,.13-2,.29.29,0,0,0-.15-.23.29.29,0,0,0-.21,0c0-.15.07-.3.09-.45a6.11,6.11,0,0,0-.06-2,.29.29,0,0,0-.18-.22.28.28,0,0,0-.15,0c0-.1,0-.21,0-.31a6,6,0,0,0-.16-2,.3.3,0,0,0-.46-.17,3.55,3.55,0,0,0,0-.49,6,6,0,0,0-.43-2,.3.3,0,0,0-.21-.18.29.29,0,0,0-.23,0c0-.15,0-.3,0-.45a6,6,0,0,0-.64-1.93.29.29,0,0,0-.23-.16.3.3,0,0,0-.22.07q0-.21-.09-.42a6.09,6.09,0,0,0-.86-1.85.3.3,0,0,0-.25-.13.29.29,0,0,0-.24.13,4.66,4.66,0,0,0-.18-.49,6.06,6.06,0,0,0-1.15-1.68.29.29,0,0,0-.45,0,4.91,4.91,0,0,0-.27-.48A6,6,0,0,0,30,16.66a.3.3,0,0,0-.45.1,3.41,3.41,0,0,0-1.62-1.15l.37,0a4.33,4.33,0,0,0,1.42-.13.37.37,0,0,0-.09-.73,3.18,3.18,0,0,1-1.66-.46l-.25-.14,2.1-.31a.38.38,0,0,0,.32-.37.38.38,0,0,0-.32-.37l-2.08-.3c.24-.06.52-.15.81-.25a4.38,4.38,0,0,0,1.26-.66.37.37,0,0,0-.37-.64,3.15,3.15,0,0,1-1.7.21l-.28,0,1.81-1.09A.37.37,0,0,0,29,9.7l-2,.52c.2-.15.43-.34.66-.54a4.39,4.39,0,0,0,.91-1.1.37.37,0,0,0-.58-.45A3.17,3.17,0,0,1,26.4,9l-.27.08,1.26-1.69a.37.37,0,0,0-.53-.52L25.17,8.11c.13-.22.27-.48.4-.76A4.32,4.32,0,0,0,26,6a.37.37,0,0,0-.71-.19,3.17,3.17,0,0,1-1.05,1.36L24,7.32l.51-2A.37.37,0,0,0,23.85,5L22.76,6.82c0-.25.06-.55.08-.86a4.47,4.47,0,0,0-.13-1.42.37.37,0,0,0-.73.09,3.16,3.16,0,0,1-.45,1.66l-.13.24-.3-2.08a.38.38,0,0,0-.37-.32h0a.37.37,0,0,0-.37.32l-.29,2.07c-.07-.24-.15-.51-.24-.8a4.38,4.38,0,0,0-.67-1.26.37.37,0,0,0-.64.36,3.18,3.18,0,0,1,.21,1.7c0,.09,0,.19,0,.29L17.6,5a.37.37,0,0,0-.68.29l.52,2c-.15-.2-.34-.42-.54-.65a4.24,4.24,0,0,0-1.1-.91.37.37,0,0,0-.47.1.37.37,0,0,0,0,.48,3.17,3.17,0,0,1,.85,1.49c0,.09.05.18.08.27L14.58,6.84a.37.37,0,0,0-.52.53l1.26,1.69c-.22-.13-.47-.27-.75-.4a4.32,4.32,0,0,0-1.36-.42.37.37,0,0,0-.19.71A3.14,3.14,0,0,1,14.37,10l.18.22L12.5,9.7a.37.37,0,0,0-.28.68L14,11.47c-.25,0-.54-.06-.85-.08a4.33,4.33,0,0,0-1.42.13.37.37,0,0,0,.09.73,3.17,3.17,0,0,1,1.65.45l.24.13-2.09.31a.37.37,0,0,0,0,.74l2.11.31c-.24.07-.53.15-.82.25a4.31,4.31,0,0,0-1.26.67.37.37,0,0,0,.37.64,3.5,3.5,0,0,1,1.11-.25,8.15,8.15,0,0,0-.94.91l-.24.33a.29.29,0,0,0-.43-.08,6,6,0,0,0-1.4,1.48,4.26,4.26,0,0,0-.27.47.29.29,0,0,0-.2-.13.3.3,0,0,0-.27.09,6.07,6.07,0,0,0-1.15,1.68,4.23,4.23,0,0,0-.17.46.29.29,0,0,0-.44,0,6,6,0,0,0-.94,1.81,4.66,4.66,0,0,0-.11.47.29.29,0,0,0-.48.06A6,6,0,0,0,5.47,25a4.45,4.45,0,0,0,0,.46A.3.3,0,0,0,5,25.6a6,6,0,0,0-.41,2,4.45,4.45,0,0,0,0,.45.3.3,0,0,0-.44.19,6,6,0,0,0-.16,2A3.39,3.39,0,0,0,4,30.6a.28.28,0,0,0-.13,0,.29.29,0,0,0-.17.22,6,6,0,0,0-.06,2,4.06,4.06,0,0,0,.1.46l-.12,0a.3.3,0,0,0-.16.23,5.93,5.93,0,0,0,.06,2,4,4,0,0,0,.11.39.3.3,0,0,0-.19,0,.29.29,0,0,0-.14.24,6,6,0,0,0,.28,2,4.91,4.91,0,0,0,.2.5h0a.29.29,0,0,0-.27.07.29.29,0,0,0-.09.27A5.91,5.91,0,0,0,4,41.08l.18.31a.33.33,0,0,0-.14.08.31.31,0,0,0-.07.27,6,6,0,0,0,.77,1.88A3.75,3.75,0,0,0,5,44a.29.29,0,0,0-.2.12.3.3,0,0,0,0,.28,6,6,0,0,0,1,1.78c.09.11.18.21.27.3a.3.3,0,0,0-.17.14.29.29,0,0,0,0,.28A6,6,0,0,0,7,48.54l.29.26a.3.3,0,0,0-.15.15.29.29,0,0,0,0,.28,6.09,6.09,0,0,0,1.36,1.53,4.25,4.25,0,0,0,.46.32l-.06,0a.3.3,0,0,0-.11.48,7,7,0,0,0,1.58,1.26,4.22,4.22,0,0,0,1.3.49,2.86,2.86,0,0,0,1,0h.06a15.57,15.57,0,0,0,2.9,1.61,14.08,14.08,0,0,0,2.57.81l.52.1a2.28,2.28,0,0,1-1-.64L17.7,55a14,14,0,0,1-1.77-.61,14.94,14.94,0,0,1-2.77-1.54v0a3,3,0,0,0-.1-.9,12.82,12.82,0,0,0,1.83,1.28,12.22,12.22,0,0,0,2.61,1.09,1.4,1.4,0,0,1,0-.16,1.14,1.14,0,0,1,.13-.41,11.81,11.81,0,0,1-2.43-1,14.71,14.71,0,0,1-4.53-4,18.82,18.82,0,0,1-1.27-1.91c1-.45,3.25-1.45,5.21-2.46a.85.85,0,0,0,.07.26,1.16,1.16,0,0,0,.94.58l.32,0a1.21,1.21,0,0,0,.81.68,2.41,2.41,0,0,0,.44.09.92.92,0,0,0,.34.43,1.8,1.8,0,0,0,1.23.18,1.11,1.11,0,0,0,.65.4l.24,0a1.75,1.75,0,0,0,.6-.12v3.5a.46.46,0,1,0,.93,0V46.73a1.94,1.94,0,0,0,1.11-.09,1.87,1.87,0,0,0,.48-.28A1.28,1.28,0,0,0,23.94,46a1.57,1.57,0,0,0,.24-.33,1.44,1.44,0,0,0,1.21-.47,1.42,1.42,0,0,0,.23-.36,1.36,1.36,0,0,0,.93-.36,1.12,1.12,0,0,0,.25-.36A25.14,25.14,0,0,0,32,46.91a18.41,18.41,0,0,1-1.2,1.79,14.7,14.7,0,0,1-4.53,4,11.8,11.8,0,0,1-2.44,1,1.13,1.13,0,0,1,.13.41,1.28,1.28,0,0,1,0,.16,12.27,12.27,0,0,0,2.62-1.09,13.3,13.3,0,0,0,1.85-1.29,2.85,2.85,0,0,0-.11.91.24.24,0,0,0,0,0,12.5,12.5,0,0,1-2,1.24,13.35,13.35,0,0,1-2.43.91l-.1,0-.1.14a2.3,2.3,0,0,1-1,.65A13.32,13.32,0,0,0,24,55.58a14.16,14.16,0,0,0,2.53-1,12.77,12.77,0,0,0,2.13-1.3l0,0a2.85,2.85,0,0,0,1.06,0,4.22,4.22,0,0,0,1.3-.49,7,7,0,0,0,1.58-1.26.29.29,0,0,0,.07-.27.3.3,0,0,0-.19-.21h0a4.63,4.63,0,0,0,.47-.32,6.08,6.08,0,0,0,1.35-1.53.3.3,0,0,0-.13-.43l.3-.26a6,6,0,0,0,1.19-1.66.29.29,0,0,0,0-.28.3.3,0,0,0-.21-.14,3.82,3.82,0,0,0,.3-.33,6,6,0,0,0,1-1.79.31.31,0,0,0,0-.27.3.3,0,0,0-.23-.13h0c.09-.11.17-.22.25-.34a6,6,0,0,0,.8-1.87.29.29,0,0,0-.07-.27.3.3,0,0,0-.24-.09c.08-.13.16-.26.23-.4A6,6,0,0,0,38,39a.29.29,0,0,0-.1-.26M37.56,34h0a5.23,5.23,0,0,1-.14,1.41,3.45,3.45,0,0,1-.51,1.14,2.66,2.66,0,0,1-.67.68h0a3.92,3.92,0,0,1-.77-2.68h0a4.63,4.63,0,0,1,.65.94.22.22,0,0,0,.4,0,3.55,3.55,0,0,1,1-1.47m-.29-2.69h0a5.2,5.2,0,0,1,0,1.41A3.51,3.51,0,0,1,36.91,34a2.67,2.67,0,0,1-.61.75h0a4.07,4.07,0,0,1-1-2.58h0A4.77,4.77,0,0,1,36,33a.22.22,0,0,0,.4-.06,3.56,3.56,0,0,1,.85-1.56m-.42-2.56h0a5.14,5.14,0,0,1,.06,1.41,3.45,3.45,0,0,1-.33,1.2,2.67,2.67,0,0,1-.57.77h0a3.42,3.42,0,0,1-1-1.79,5.29,5.29,0,0,1-.13-.75h0a4.73,4.73,0,0,1,.78.84.22.22,0,0,0,.23.09.22.22,0,0,0,.17-.17,3.49,3.49,0,0,1,.77-1.6M16.37,29c0-.06,0-.11,0-.17A9.11,9.11,0,0,1,18,25.17a5.93,5.93,0,0,1,.92-1l.16-.13a.38.38,0,0,0-.47-.6l-.18.14c-.32.23-.57.23-.71.15a.44.44,0,0,1-.16-.49,2.66,2.66,0,0,1,.66-1.07l0,0a3.31,3.31,0,0,1,2.28-1.05h0a2.76,2.76,0,0,1,1,.14,2.93,2.93,0,0,1,1.72,1.52,16.42,16.42,0,0,1,1.28,3.34,5.26,5.26,0,0,1-1.46-.81.38.38,0,1,0-.49.59,5.7,5.7,0,0,0,2.15,1.07c.1.48.18.93.25,1.36a5.47,5.47,0,0,0-1.21-.43,6.13,6.13,0,0,1-.66-.2,6.86,6.86,0,0,1-1.47-.85.38.38,0,0,0-.47.6,7.49,7.49,0,0,0,1.66,1,6.9,6.9,0,0,0,.74.23c1,.27,1.48.48,1.5,1a.68.68,0,0,1-.13.22,1.85,1.85,0,0,1-1.29.38h-1a4,4,0,0,1-2-.58c-2.08-1.34-3-1.17-4.3-.61m3.79,1.19h-3a.78.78,0,0,1-.64-.23.67.67,0,0,1-.09-.15c1.31-.6,1.93-.76,3.73.38m1,5.13V31h2.53a3.55,3.55,0,0,0,.54,0,2,2,0,0,0,1.21-.58,1.43,1.43,0,0,0,.31-.54.26.26,0,0,0,0-.07,1.83,1.83,0,0,0,0-.76V28.9a19.16,19.16,0,0,0-1.91-6.49,3.63,3.63,0,0,0-3.44-2.08,4,4,0,0,0-2.84,1.31,3.38,3.38,0,0,0-.86,1.47,1.19,1.19,0,0,0,.54,1.28l.22.09a9.68,9.68,0,0,0-1.88,4.21,3,3,0,0,0,0,.93.26.26,0,0,0,0,.07,1.59,1.59,0,0,0,.32.76,1.52,1.52,0,0,0,1.24.51h3.09v7a3.46,3.46,0,0,0-2.19.83C17,39.57,13.3,40.3,7.14,41a24.5,24.5,0,0,1-.65-5.66A24.07,24.07,0,0,1,7.61,28a20,20,0,0,1,3.07-6,14.71,14.71,0,0,1,4.53-4,11.09,11.09,0,0,1,11,0,14.7,14.7,0,0,1,4.53,4,19.91,19.91,0,0,1,3.07,6A24,24,0,0,1,35,35.34a24.36,24.36,0,0,1-.67,5.74A40.39,40.39,0,0,1,26,39.43l-.86-.3a6.08,6.08,0,0,0-2.39-.54H22.6a5,5,0,0,0-1.41-.48ZM27,15.61a5.57,5.57,0,0,1-1,.29,3.86,3.86,0,0,1-.72.07,2.33,2.33,0,0,1-1.38-.4h0a0,0,0,0,1,0,0,3.13,3.13,0,0,1,.81-.32,3,3,0,0,1,1.17,0,3.46,3.46,0,0,1,1.1.4v0h0m.54,1.52a0,0,0,0,1,0,0h0a2.5,2.5,0,0,1-.71.13h-.11a3,3,0,0,1-1.86-.7s0,0,0,0h0a3.26,3.26,0,0,1,.8-.15,2.27,2.27,0,0,1,1.87.72m-2.95-2.36a4.44,4.44,0,0,1-1.34.35.22.22,0,0,0-.19.17.22.22,0,0,0,.09.23,4.7,4.7,0,0,1,.88.82,0,0,0,0,1,0,0h0a3.49,3.49,0,0,1-2.59-1.18,0,0,0,0,1,0,0,2.12,2.12,0,0,1,.71-.43,4.07,4.07,0,0,1,2.45,0h0v0m-2.76-.45a3.84,3.84,0,0,1-1.26.61.22.22,0,0,0,0,.42,3.91,3.91,0,0,1,1,.58,0,0,0,0,1,0,0h0c-.15,0-.34,0-.55,0a3.67,3.67,0,0,1-2.21-.63,0,0,0,0,1,0,0,2,2,0,0,1,.6-.56,4.06,4.06,0,0,1,2.43-.48h0s0,0,0,0m-2.83,0a3.07,3.07,0,0,1-1.14.87.22.22,0,0,0,.06.41A4.88,4.88,0,0,1,19,16h0a5.37,5.37,0,0,1-.73.18,4.45,4.45,0,0,1-.76.07A3.15,3.15,0,0,1,16.23,16a0,0,0,0,1,0,0,2,2,0,0,1,.46-.68,4.07,4.07,0,0,1,2.32-1h0a0,0,0,0,1,0,0m-2.65.47a3.57,3.57,0,0,1-1,1.27.22.22,0,0,0,.15.39,4.58,4.58,0,0,1,.56,0,3.48,3.48,0,0,1,.59.12h0v0a5.43,5.43,0,0,1-.7.3,4.08,4.08,0,0,1-1.33.24,2.89,2.89,0,0,1-.79-.1,0,0,0,0,1,0,0c.09-.46.52-1.62,2.5-2.28h0a0,0,0,0,1,0,0M36,26.2h0a5.08,5.08,0,0,1,.26,1.39,3.49,3.49,0,0,1-.16,1.23,2.66,2.66,0,0,1-.46.84h0A3.29,3.29,0,0,1,34.4,28a5.19,5.19,0,0,1-.22-.72,0,0,0,0,1,0,0h0a4.73,4.73,0,0,1,.9.74.22.22,0,0,0,.38-.13A3.5,3.5,0,0,1,36,26.2m-1.55-.55a.22.22,0,0,0,.13-.21A3.5,3.5,0,0,1,35,23.72h0a5.17,5.17,0,0,1,.4,1.36,3.47,3.47,0,0,1,0,1.24,2.62,2.62,0,0,1-.36.88h0a3.31,3.31,0,0,1-1.45-1.51,5.11,5.11,0,0,1-.29-.69,0,0,0,0,1,0,0h0a4.75,4.75,0,0,1,1,.64.21.21,0,0,0,.24,0m-1.1-2.28h0a.22.22,0,0,0,.11-.23,3.47,3.47,0,0,1,.16-1.76h0a5.16,5.16,0,0,1,.56,1.3,3.43,3.43,0,0,1,.11,1.24,2.61,2.61,0,0,1-.26.91h0a3.26,3.26,0,0,1-1.66-1.35,4.57,4.57,0,0,1-.36-.68,0,0,0,0,1,0,0h0a3.53,3.53,0,0,1,1.07.55.22.22,0,0,0,.25,0m-1.65-2.12a.22.22,0,0,0,.34-.24A3.86,3.86,0,0,1,32,19.27h0a5.27,5.27,0,0,1,.75,1.18A3.48,3.48,0,0,1,33,21.65a2.6,2.6,0,0,1-.11.94h0a3.34,3.34,0,0,1-1.81-1.06,4.87,4.87,0,0,1-.51-.63,0,0,0,0,1,0,0h0a2.52,2.52,0,0,1,1.12.38m-1.65-1.89a.22.22,0,0,0,.28-.31A3.52,3.52,0,0,1,30,17.35h0a5.26,5.26,0,0,1,.92,1,3.66,3.66,0,0,1,.5,1.15,2.82,2.82,0,0,1,.06,1H31.4a3.19,3.19,0,0,1-1.85-.74,5.79,5.79,0,0,1-.64-.57,0,0,0,0,1,0,0H29a3.36,3.36,0,0,1,1.07.2m-.65-1.72a2.92,2.92,0,0,1,.19,1.08h-.13a5.23,5.23,0,0,1-2.52-1,0,0,0,0,1,0,0h0a3,3,0,0,1,1.13,0,.22.22,0,0,0,.22-.35,4.54,4.54,0,0,1-.7-1.32,0,0,0,0,1,0,0h0a2.73,2.73,0,0,1,1.79,1.59m-16.9-2.54a4.29,4.29,0,0,1,.57-.25,12.17,12.17,0,0,1,1.3-.37,3.45,3.45,0,0,0,1-.39.09.09,0,0,0,0-.09.09.09,0,0,0-.07-.07l-3-.44,3-.45a.09.09,0,0,0,.08-.09.09.09,0,0,0-.08-.09,5.09,5.09,0,0,1-1.17-.36c-.17-.08-.32-.16-.46-.23a3.37,3.37,0,0,0-1.2-.44,4.08,4.08,0,0,1,.62,0A12.17,12.17,0,0,1,14.5,12a3.44,3.44,0,0,0,1.07,0,.09.09,0,0,0,.07-.07.09.09,0,0,0,0-.09L13,10.3l3,.75A.09.09,0,0,0,16,11a.09.09,0,0,0,0-.11,5,5,0,0,1-.95-.78c-.13-.14-.24-.27-.34-.39a3.36,3.36,0,0,0-.94-.87,4.43,4.43,0,0,1,.58.23,12.6,12.6,0,0,1,1.18.66,3.39,3.39,0,0,0,1,.43.08.08,0,0,0,.09,0,.09.09,0,0,0,0-.1L14.79,7.57,17.26,9.4a.09.09,0,0,0,.12,0,.09.09,0,0,0,0-.12,4.81,4.81,0,0,1-.57-1.08c-.07-.18-.12-.34-.16-.49a3.44,3.44,0,0,0-.53-1.16,4.21,4.21,0,0,1,.45.44A12,12,0,0,1,17.4,8a3.4,3.4,0,0,0,.75.77.09.09,0,0,0,.1,0,.09.09,0,0,0,0-.09l-.76-3L19.1,8.38a.09.09,0,0,0,.11,0,.09.09,0,0,0,.05-.1,5.07,5.07,0,0,1-.12-1.22c0-.19,0-.36,0-.52a3.4,3.4,0,0,0,0-1.28,4.33,4.33,0,0,1,.24.57,12.48,12.48,0,0,1,.37,1.3,3.41,3.41,0,0,0,.39,1,.09.09,0,0,0,.16,0l.43-3,.44,3a.09.09,0,0,0,.09.07.08.08,0,0,0,.09-.07A5.2,5.2,0,0,1,21.7,7c.08-.17.16-.32.24-.46a3.44,3.44,0,0,0,.44-1.2,4.82,4.82,0,0,1,0,.62,13.39,13.39,0,0,1-.16,1.34,3.42,3.42,0,0,0,0,1.07.08.08,0,0,0,.07.07.09.09,0,0,0,.09,0l1.57-2.63-.75,3a.09.09,0,0,0,.16.07,5.09,5.09,0,0,1,.78-.95c.14-.13.27-.23.4-.34a3.44,3.44,0,0,0,.87-.94,5.5,5.5,0,0,1-.23.58,12.88,12.88,0,0,1-.66,1.18,3.51,3.51,0,0,0-.43,1,.09.09,0,0,0,0,.09.09.09,0,0,0,.1,0l2.46-1.83L24.83,10a.09.09,0,0,0,0,.11.09.09,0,0,0,.11,0A5.06,5.06,0,0,1,26,9.58l.49-.16a3.42,3.42,0,0,0,1.16-.53,4.85,4.85,0,0,1-.43.45,12.35,12.35,0,0,1-1.06.84,3.44,3.44,0,0,0-.77.75.09.09,0,0,0,0,.1.08.08,0,0,0,.09,0l3-.76-2.63,1.58a.09.09,0,0,0,0,.11.08.08,0,0,0,.1.05,5.13,5.13,0,0,1,1.22-.12l.51,0a3.41,3.41,0,0,0,1.28,0,4.51,4.51,0,0,1-.57.24,12.24,12.24,0,0,1-1.3.37,3.51,3.51,0,0,0-1,.39A.09.09,0,0,0,26,13a.09.09,0,0,0,.07.07l3,.43-3,.45A.09.09,0,0,0,26,14a.09.09,0,0,0,.08.09,5.1,5.1,0,0,1,1.17.36c.17.08.32.16.46.24a3.42,3.42,0,0,0,1.2.45,4.52,4.52,0,0,1-.62,0A12,12,0,0,1,27,15h-.08a3.65,3.65,0,0,0-1.48-.32.19.19,0,0,0,0-.06.24.24,0,0,0-.15-.17,6.61,6.61,0,0,0-1.6-.36h-.36a4,4,0,0,0-.69.05h0a.23.23,0,0,0,0-.1v0a.23.23,0,0,0-.18-.13l-.14,0H22a5.74,5.74,0,0,0-1.57.07L20,14h0l-.06,0h0l-.08,0-.18.07h0v0h0a.24.24,0,0,0-.06-.2l0,0h0a.23.23,0,0,0-.17-.05,6.15,6.15,0,0,0-1.94.45,4.07,4.07,0,0,0-.52.27V14.5h0a.23.23,0,0,0-.09-.2h0a.24.24,0,0,0-.16,0,6.06,6.06,0,0,0-1.85.82l0,0h-.43l-.52,0a3.43,3.43,0,0,0-1.28,0m1.16.62h0a3.49,3.49,0,0,1-.57,1.67.22.22,0,0,0,.23.34,4.71,4.71,0,0,1,1.14-.07h0a0,0,0,0,1,0,0,4.32,4.32,0,0,1-2.49,1h-.13a3.54,3.54,0,0,1,1.79-3m-3.59,3.8a3.53,3.53,0,0,1,.5-1.14,5.19,5.19,0,0,1,.95-1.07h0a3.49,3.49,0,0,1-.41,1.72.22.22,0,0,0,.27.31,4.34,4.34,0,0,1,1.11-.2h0a0,0,0,0,1,0,0,7,7,0,0,1-.65.57,3.14,3.14,0,0,1-1.74.75h-.09a2.66,2.66,0,0,1,0-1m-.58-.3h0A3.47,3.47,0,0,1,9.42,21a.22.22,0,0,0,.33.25,2.57,2.57,0,0,1,1.1-.38h0a0,0,0,0,1,0,0,4,4,0,0,1-2.3,1.7h0a3.5,3.5,0,0,1,1-3.35m-2.3,3.45a5.1,5.1,0,0,1,.61-1.28h0A3.48,3.48,0,0,1,8,23.18a.22.22,0,0,0,.37.2,2.14,2.14,0,0,1,1.07-.53h0a0,0,0,0,1,0,0A5,5,0,0,1,9,23.6,3.19,3.19,0,0,1,7.3,24.86h0a2.68,2.68,0,0,1-.22-.93,3.54,3.54,0,0,1,.16-1.23M6,25.07a5.25,5.25,0,0,1,.42-1.36h0a3.51,3.51,0,0,1,.35,1.74.21.21,0,0,0,.12.21.22.22,0,0,0,.24,0,4.54,4.54,0,0,1,1-.65h0a0,0,0,0,1,0,0,3.48,3.48,0,0,1-.24.65,3.38,3.38,0,0,1-1.57,1.56h0A2.67,2.67,0,0,1,6,26.31a3.49,3.49,0,0,1,0-1.24m-.91,2.51a5.25,5.25,0,0,1,.24-1.4h0a3.47,3.47,0,0,1,.57,1.68.22.22,0,0,0,.39.12,4,4,0,0,1,.94-.78h0a3.69,3.69,0,0,1-.15.69,3.17,3.17,0,0,1-1.37,1.74h0a2.62,2.62,0,0,1-.47-.83,3.56,3.56,0,0,1-.18-1.23m-.52,1.19h0a3.49,3.49,0,0,1,.77,1.6.22.22,0,0,0,.4.08,4.5,4.5,0,0,1,.81-.87h0a4.24,4.24,0,0,1-.09.69A3.49,3.49,0,0,1,5.4,32.14h0a2.63,2.63,0,0,1-.56-.76,3.47,3.47,0,0,1-.33-1.2,5.07,5.07,0,0,1,.06-1.41m-.39,2.59h0A3.54,3.54,0,0,1,5,32.91a.22.22,0,0,0,.19.17A.22.22,0,0,0,5.44,33,3.29,3.29,0,0,1,6.13,32h0v0a4.81,4.81,0,0,1-.06.78,3.14,3.14,0,0,1-.92,1.86h0a2.68,2.68,0,0,1-.6-.74,3.43,3.43,0,0,1-.39-1.18,5.13,5.13,0,0,1,0-1.41m-.22,2.72H4l.17.17a3.58,3.58,0,0,1,.78,1.34.22.22,0,0,0,.43,0,1.92,1.92,0,0,1,.57-1h0a4,4,0,0,1,0,1.29,2.62,2.62,0,0,1-.76,1.49h0a3.51,3.51,0,0,1-1.21-3.28m-.11,2.64h0l.18.15A3.61,3.61,0,0,1,5,38.13a.21.21,0,0,0,.2.13h0a.22.22,0,0,0,.2-.14,4.53,4.53,0,0,1,.63-1H6a3.41,3.41,0,0,1-.62,2.78h0a3.54,3.54,0,0,1-1.54-3.13h0M4,39.48v0H4a3.56,3.56,0,0,1,1.32,1.19.22.22,0,0,0,.4-.08h0a4.52,4.52,0,0,1,.45-1.15h0a3.18,3.18,0,0,1,.24.7,3,3,0,0,1-.37,2.16H6a2.71,2.71,0,0,1-.83-.5,3.47,3.47,0,0,1-.77-1A5.21,5.21,0,0,1,4,39.48M4.6,42a0,0,0,0,1,0,0h0l.21.1a3.63,3.63,0,0,1,1.2,1,.22.22,0,0,0,.23.08A.22.22,0,0,0,6.42,43a4.62,4.62,0,0,1,.34-1.14h0a3.43,3.43,0,0,1,.1,2.82h0A3.55,3.55,0,0,1,4.6,42m1.54,3.78a5.23,5.23,0,0,1-.72-1.22,0,0,0,0,1,0,0h0l.22.07A3.66,3.66,0,0,1,7,45.5a.22.22,0,0,0,.38-.15,4.62,4.62,0,0,1,.2-1.16h0a4.75,4.75,0,0,1,.32.68A3.23,3.23,0,0,1,8,47H8a2.73,2.73,0,0,1-.9-.34,3.56,3.56,0,0,1-.94-.82M6.51,47a0,0,0,0,1,0,0h0a3.59,3.59,0,0,1,1.63.74.22.22,0,0,0,.24,0,.22.22,0,0,0,.11-.22,4.09,4.09,0,0,1,.06-1.14h0a5.32,5.32,0,0,1,.39.66,3.41,3.41,0,0,1,.37,2h0a2.71,2.71,0,0,1-.93-.23,3.56,3.56,0,0,1-1-.71A5.33,5.33,0,0,1,6.51,47m5.08,4.42a4.15,4.15,0,0,1-.27-1.12v0h0a3.27,3.27,0,0,1,1.32,2.52v0a2,2,0,0,1-.34,0,2.64,2.64,0,0,1-.52-.05,4.79,4.79,0,0,1-2.26-1.29,0,0,0,0,1,0,0h0a3.61,3.61,0,0,1,1.78.24.22.22,0,0,0,.28-.29m-2-1.59a.22.22,0,0,0,.25,0,.23.23,0,0,0,.09-.23,3.57,3.57,0,0,1-.07-1.13h0a4,4,0,0,1,1.05,2.59l0,0h-.1a2.76,2.76,0,0,1-.85-.14,3.61,3.61,0,0,1-1.11-.6,5.31,5.31,0,0,1-1-1,0,0,0,0,1,0,0h0a3.61,3.61,0,0,1,1.7.57m6.32-5.32-.19,0c-.22,0-.39-.11-.42-.19s-.07-.16.08-.36a1.37,1.37,0,0,1,1.07-.48h0l.2,0-.22.2a1.76,1.76,0,0,0-.54.81m1.25.76-.21-.05c-.38-.12-.4-.32-.41-.4s.09-.37.37-.65c.45-.43.8-.56,1.1-.41a.43.43,0,0,1,.23.2.16.16,0,0,1,0,.1l-.22.15a2,2,0,0,0-.86,1.05m1.52.63a1.21,1.21,0,0,1-.77-.07.29.29,0,0,1-.13-.23c0-.33.37-.66.62-.84.58-.41.89-.54,1.18-.29a.28.28,0,0,1,.12.2.67.67,0,0,1-.26.36,2.14,2.14,0,0,0-.76.87m2.23-.38c0,.16-.23.35-.34.41h0l0,0h0a1.55,1.55,0,0,1-1,.35.45.45,0,0,1-.26-.16,2,2,0,0,1,.85-.78c.43-.25.63-.11.65-.09s.13.21.12.24M26.08,44a.76.76,0,0,1-.53.17,6.5,6.5,0,0,0-2.12-1.89.33.33,0,1,0-.29.59A6,6,0,0,1,25,44.58a.82.82,0,0,1-.12.2.8.8,0,0,1-.66.24,3.08,3.08,0,0,0-.49-.72,6.63,6.63,0,0,0-1-.82.33.33,0,1,0-.38.54,5.92,5.92,0,0,1,.84.71,2.41,2.41,0,0,1,.4.57,1,1,0,0,1-.18.26.61.61,0,0,1-.54.16,4,4,0,0,0-.67-1,.33.33,0,0,0-.49.44,3.33,3.33,0,0,1,.53.78,1.11,1.11,0,0,1-.22.12,1.26,1.26,0,0,1-.67.07,1,1,0,0,0,.19-.48.94.94,0,0,0-.32-.78,1,1,0,0,0-.89-.22A.93.93,0,0,0,20,44a1.12,1.12,0,0,0-1.12-.23h0a1,1,0,0,0-.55-.58,1.24,1.24,0,0,0-1-.06,1.46,1.46,0,0,0-.8-.32,2,2,0,0,0-1.51.55c-2.12,1.13-4.85,2.36-5.93,2.84a21,21,0,0,1-1.48-3.51c-.11-.35-.22-.71-.31-1.06,3.11-.35,5.6-.72,7.42-1.08a11.65,11.65,0,0,0,3.73-1.17h0a2.74,2.74,0,0,1,1.93-.71l.59.07a2,2,0,0,0-.5.26c-.29.2-.47.35-.62.48a5.64,5.64,0,0,1-.49.36,5.73,5.73,0,0,1-.51.27c-.42.21-.75.37-.86.64h0a.87.87,0,0,0,.14.86,1.31,1.31,0,0,0,1.26.39,3.59,3.59,0,0,0,1.48-.45l.41-.26a1.77,1.77,0,0,1,.47-.26h0a2.07,2.07,0,0,1,1.31.13,7.25,7.25,0,0,1,1.29.71,8.6,8.6,0,0,1,1.9,1.76.64.64,0,0,1-.18.37m1.29-.28h0a3.74,3.74,0,0,1-.65-.58h0v0l-.05-.06a9.07,9.07,0,0,0-1.94-1.74c-.67-.44-1.92-1.25-3.13-.93a2.08,2.08,0,0,0-.69.35l-.37.23a2.91,2.91,0,0,1-1.19.36c-.36,0-.59,0-.69-.12s-.08-.17-.06-.23a3,3,0,0,1,.54-.3,5.64,5.64,0,0,0,.58-.31,6.25,6.25,0,0,0,.55-.41c.15-.12.32-.26.59-.45a2.33,2.33,0,0,1,1.4-.28h.52a5.59,5.59,0,0,1,2.14.5l.87.31h0s1.21.38,2.87.78a34.27,34.27,0,0,0,5.49.89c-.09.33-.19.65-.29,1a21,21,0,0,1-1.54,3.63,25.38,25.38,0,0,1-4.93-2.59m4.58,7.79a4.72,4.72,0,0,1-2.26,1.29,2.63,2.63,0,0,1-.52.05,2.1,2.1,0,0,1-.34,0h0a2.77,2.77,0,0,1,.76-2,4.5,4.5,0,0,1,.56-.55h0v0a4.54,4.54,0,0,1-.28,1.1.22.22,0,0,0,0,.24.22.22,0,0,0,.24.05,3.63,3.63,0,0,1,1.78-.24h0a0,0,0,0,1,0,0m1.66-2.21a5.36,5.36,0,0,1-1,1,3.63,3.63,0,0,1-1.11.6,2.81,2.81,0,0,1-.85.14h-.1v0a3.27,3.27,0,0,1,.58-2,5,5,0,0,1,.46-.61h0a4.43,4.43,0,0,1-.06,1.15.22.22,0,0,0,.33.24,3.61,3.61,0,0,1,1.69-.57h0a0,0,0,0,1,0,0M35,47a5.23,5.23,0,0,1-.86,1.12,3.53,3.53,0,0,1-1,.71,2.75,2.75,0,0,1-.93.23h0a3.26,3.26,0,0,1,.37-2,5.11,5.11,0,0,1,.39-.65h0A4.61,4.61,0,0,1,33,47.55a.22.22,0,0,0,.12.22.22.22,0,0,0,.24,0A3.58,3.58,0,0,1,35,47h0a0,0,0,0,1,0,0m1.1-2.5a5.28,5.28,0,0,1-.74,1.25,3.57,3.57,0,0,1-.94.83,2.74,2.74,0,0,1-.9.34h0a3.3,3.3,0,0,1,.12-2.1,4.38,4.38,0,0,1,.3-.66h0a5.13,5.13,0,0,1,.2,1.14.23.23,0,0,0,.15.2.22.22,0,0,0,.24-.06,3.2,3.2,0,0,1,1.3-.89l.24-.07h0a0,0,0,0,1,0,0M36.87,42a5.17,5.17,0,0,1-.6,1.28,3.59,3.59,0,0,1-.85.91,2.73,2.73,0,0,1-.86.43h0a3.49,3.49,0,0,1-.09-2.11,5.38,5.38,0,0,1,.24-.74h0A5,5,0,0,1,35,43a.22.22,0,0,0,.39.11A3.58,3.58,0,0,1,36.85,42h0a0,0,0,0,1,0,0M37,40.72a3.55,3.55,0,0,1-.74,1,2.67,2.67,0,0,1-.8.53h0A3.42,3.42,0,0,1,35,40.12a4.89,4.89,0,0,1,.15-.74h0a4.93,4.93,0,0,1,.46,1.15.22.22,0,0,0,.18.16.22.22,0,0,0,.22-.1,3.55,3.55,0,0,1,1.28-1.24h0a0,0,0,0,1,0,0A5.06,5.06,0,0,1,37,40.72m.39-2.62a3.46,3.46,0,0,1-.62,1.08,2.65,2.65,0,0,1-.74.61h0a3.23,3.23,0,0,1-.6-2,4.51,4.51,0,0,1,.08-.76h0a3.91,3.91,0,0,1,.57,1,.22.22,0,0,0,.19.15.21.21,0,0,0,.21-.12A3.54,3.54,0,0,1,37.6,36.7h0s0,0,0,0a5,5,0,0,1-.28,1.39"/><path class="cls-7" d="M31.94,51.5a3.62,3.62,0,0,0-1.78.24.22.22,0,0,1-.24-.05.22.22,0,0,1,0-.24,4.52,4.52,0,0,0,.28-1.1v0h0a4.47,4.47,0,0,0-.56.55,2.77,2.77,0,0,0-.76,2v0a2,2,0,0,0,.34,0,2.63,2.63,0,0,0,.52-.05,4.72,4.72,0,0,0,2.26-1.29,0,0,0,0,0,0,0h0"/><path class="cls-7" d="M11.34,50.31h0a4.15,4.15,0,0,0,.27,1.12.22.22,0,0,1-.28.29,3.61,3.61,0,0,0-1.78-.24h0a0,0,0,0,0,0,0,4.78,4.78,0,0,0,2.26,1.29,2.64,2.64,0,0,0,.52.05,2,2,0,0,0,.34,0h0a3.28,3.28,0,0,0-1.32-2.52"/><path class="cls-7" d="M33.6,49.28a3.61,3.61,0,0,0-1.69.57.22.22,0,0,1-.24,0,.22.22,0,0,1-.09-.23,4.51,4.51,0,0,0,.06-1.15h0a5,5,0,0,0-.46.61,3.26,3.26,0,0,0-.58,2v0h.1a2.8,2.8,0,0,0,.85-.14,3.63,3.63,0,0,0,1.11-.6,5.44,5.44,0,0,0,1-1,0,0,0,0,0,0,0h0"/><path class="cls-7" d="M35,47a3.58,3.58,0,0,0-1.62.74.22.22,0,0,1-.36-.19,4.66,4.66,0,0,0-.06-1.16h0a5.06,5.06,0,0,0-.39.65,3.26,3.26,0,0,0-.37,2h0a2.75,2.75,0,0,0,.93-.23,3.53,3.53,0,0,0,1-.71A5.22,5.22,0,0,0,35,47a0,0,0,0,0,0,0h0"/><path class="cls-7" d="M36.06,44.51l-.24.07a3.21,3.21,0,0,0-1.3.89.22.22,0,0,1-.24.06.23.23,0,0,1-.15-.2,5.14,5.14,0,0,0-.2-1.14h0a4.38,4.38,0,0,0-.3.66,3.29,3.29,0,0,0-.12,2.1h0a2.77,2.77,0,0,0,.9-.34,3.56,3.56,0,0,0,.94-.83,5.3,5.3,0,0,0,.74-1.25,0,0,0,0,0,0,0h0"/><path class="cls-7" d="M36.85,42a3.58,3.58,0,0,0-1.43,1.07.22.22,0,0,1-.23.07A.22.22,0,0,1,35,43a5,5,0,0,0-.32-1.18h0a5.4,5.4,0,0,0-.24.74,3.49,3.49,0,0,0,.09,2.11h0a2.73,2.73,0,0,0,.86-.43,3.61,3.61,0,0,0,.86-.91,5.22,5.22,0,0,0,.6-1.28,0,0,0,0,0,0,0h0"/><path class="cls-7" d="M37.37,39.35a3.55,3.55,0,0,0-1.28,1.24.22.22,0,0,1-.4-.06,4.91,4.91,0,0,0-.46-1.15h0a4.91,4.91,0,0,0-.15.75,3.42,3.42,0,0,0,.36,2.12h0a2.65,2.65,0,0,0,.8-.53,3.55,3.55,0,0,0,.74-1,5.05,5.05,0,0,0,.43-1.34,0,0,0,0,0,0,0h0"/><path class="cls-7" d="M36.46,38.06a.22.22,0,0,1-.41,0,3.91,3.91,0,0,0-.57-1h0a4.57,4.57,0,0,0-.08.76,3.23,3.23,0,0,0,.6,2h0a2.65,2.65,0,0,0,.74-.61,3.48,3.48,0,0,0,.62-1.08,5,5,0,0,0,.28-1.39s0,0,0,0h0a3.54,3.54,0,0,0-1.14,1.37"/><path class="cls-7" d="M36.37,35.66a.22.22,0,0,1-.21-.12,4.62,4.62,0,0,0-.65-.95h0a3.93,3.93,0,0,0,.77,2.68h0a2.68,2.68,0,0,0,.67-.68,3.45,3.45,0,0,0,.51-1.14,5.26,5.26,0,0,0,.14-1.41h0a3.54,3.54,0,0,0-1,1.47.21.21,0,0,1-.19.14"/><path class="cls-7" d="M36.25,33.08A.22.22,0,0,1,36,33a4.79,4.79,0,0,0-.72-.86h0a4.07,4.07,0,0,0,1,2.58h0a2.66,2.66,0,0,0,.61-.75,3.51,3.51,0,0,0,.39-1.18,5.2,5.2,0,0,0,0-1.41h0a3.56,3.56,0,0,0-.85,1.56.22.22,0,0,1-.18.16"/><path class="cls-7" d="M35.91,30.56a.22.22,0,0,1-.23-.09,4.73,4.73,0,0,0-.78-.84h0a5.27,5.27,0,0,0,.13.75,3.41,3.41,0,0,0,1,1.79h0a2.66,2.66,0,0,0,.57-.77,3.45,3.45,0,0,0,.33-1.2,5.14,5.14,0,0,0-.06-1.41h0a3.49,3.49,0,0,0-.77,1.6.22.22,0,0,1-.17.17"/><path class="cls-7" d="M35.35,28.09a.22.22,0,0,1-.24-.06,4.73,4.73,0,0,0-.9-.74h0a0,0,0,0,0,0,0,5.19,5.19,0,0,0,.22.72,3.29,3.29,0,0,0,1.28,1.65h0a2.66,2.66,0,0,0,.46-.84,3.5,3.5,0,0,0,.17-1.23,5.1,5.1,0,0,0-.26-1.39h0a3.49,3.49,0,0,0-.55,1.69.22.22,0,0,1-.15.19"/><path class="cls-7" d="M34.25,25.62a4.76,4.76,0,0,0-1-.64h0a0,0,0,0,0,0,0,5.11,5.11,0,0,0,.29.69A3.31,3.31,0,0,0,35,27.21h0a2.62,2.62,0,0,0,.36-.88,3.47,3.47,0,0,0,0-1.24,5.18,5.18,0,0,0-.4-1.36h0a3.5,3.5,0,0,0-.37,1.73.22.22,0,0,1-.37.17"/><path class="cls-7" d="M32.06,22.81a0,0,0,0,0,0,0,4.6,4.6,0,0,0,.36.68,3.26,3.26,0,0,0,1.66,1.35h0a2.63,2.63,0,0,0,.26-.91,3.44,3.44,0,0,0-.11-1.24,5.17,5.17,0,0,0-.56-1.3h0a3.5,3.5,0,0,0-.16,1.77.22.22,0,0,1-.35.21,3.54,3.54,0,0,0-1.07-.55h0"/><path class="cls-7" d="M30.6,20.88a0,0,0,0,0,0,0,4.87,4.87,0,0,0,.51.63,3.34,3.34,0,0,0,1.81,1.06h0a2.59,2.59,0,0,0,.11-.94,3.47,3.47,0,0,0-.31-1.21A5.27,5.27,0,0,0,32,19.26h0A3.86,3.86,0,0,0,32.07,21a.22.22,0,0,1-.34.24,2.51,2.51,0,0,0-1.12-.38h0"/><path class="cls-7" d="M30.33,19.32a.22.22,0,0,1-.25.06,3.38,3.38,0,0,0-1.07-.2h-.1a0,0,0,0,0,0,0,5.72,5.72,0,0,0,.64.57,3.19,3.19,0,0,0,1.85.74h.05a2.82,2.82,0,0,0-.06-1,3.66,3.66,0,0,0-.5-1.15,5.24,5.24,0,0,0-.92-1h0a3.52,3.52,0,0,0,.41,1.72.22.22,0,0,1,0,.25"/><path class="cls-7" d="M10.8,51.08h.1l0,0a4,4,0,0,0-1.05-2.59h0a3.56,3.56,0,0,0,.07,1.13.23.23,0,0,1-.09.23.22.22,0,0,1-.25,0,3.6,3.6,0,0,0-1.7-.57h0a0,0,0,0,0,0,0,5.31,5.31,0,0,0,1,1,3.61,3.61,0,0,0,1.11.6,2.79,2.79,0,0,0,.85.14"/><path class="cls-7" d="M9.34,49.1h0a3.41,3.41,0,0,0-.37-2,5.32,5.32,0,0,0-.39-.66h0a4.09,4.09,0,0,0-.06,1.14.22.22,0,0,1-.11.22.22.22,0,0,1-.24,0A3.58,3.58,0,0,0,6.53,47h0a0,0,0,0,0,0,0,5.31,5.31,0,0,0,.86,1.13,3.55,3.55,0,0,0,1,.71,2.71,2.71,0,0,0,.93.23"/><path class="cls-7" d="M8,47H8a3.23,3.23,0,0,0-.11-2.1,4.69,4.69,0,0,0-.32-.68h0a4.6,4.6,0,0,0-.2,1.15A.22.22,0,0,1,7,45.5a3.64,3.64,0,0,0-1.31-.85l-.22-.07h0a0,0,0,0,0,0,0,5.22,5.22,0,0,0,.72,1.22,3.56,3.56,0,0,0,.94.82A2.72,2.72,0,0,0,8,47"/><path class="cls-7" d="M6.87,44.69h0a3.44,3.44,0,0,0-.1-2.82h0A4.62,4.62,0,0,0,6.42,43a.22.22,0,0,1-.16.18A.22.22,0,0,1,6,43.11a3.63,3.63,0,0,0-1.2-1L4.62,42h0a0,0,0,0,0,0,0,3.55,3.55,0,0,0,2.28,2.66"/><path class="cls-7" d="M5.22,41.8a2.71,2.71,0,0,0,.83.5h0a3,3,0,0,0,.37-2.16,3.19,3.19,0,0,0-.24-.7h0a4.53,4.53,0,0,0-.45,1.15h0a.22.22,0,0,1-.4.08A3.57,3.57,0,0,0,4,39.46H4a0,0,0,0,0,0,0,5.2,5.2,0,0,0,.48,1.33,3.47,3.47,0,0,0,.77,1"/><path class="cls-7" d="M5.37,39.87h0A3.4,3.4,0,0,0,6,37.09H6a4.54,4.54,0,0,0-.63,1,.22.22,0,0,1-.2.14h0a.22.22,0,0,1-.2-.13A3.6,3.6,0,0,0,4,36.88l-.18-.15h0a3.54,3.54,0,0,0,1.54,3.13"/><path class="cls-7" d="M5.15,37.36h0a2.62,2.62,0,0,0,.76-1.49,4,4,0,0,0,0-1.29h0a1.92,1.92,0,0,0-.57,1,.22.22,0,0,1-.43,0,3.57,3.57,0,0,0-.78-1.34L4,34.07h0a3.51,3.51,0,0,0,1.21,3.28"/><path class="cls-7" d="M4.55,34a2.72,2.72,0,0,0,.6.74h0a3.14,3.14,0,0,0,.92-1.86,4.8,4.8,0,0,0,.06-.78v0h0a3.3,3.3,0,0,0-.69.91.22.22,0,0,1-.22.13A.23.23,0,0,1,5,32.91a3.55,3.55,0,0,0-.85-1.56h0a5.12,5.12,0,0,0,0,1.41A3.43,3.43,0,0,0,4.55,34"/><path class="cls-7" d="M4.82,31.38a2.64,2.64,0,0,0,.56.76h0a3.49,3.49,0,0,0,1.09-1.87,4.18,4.18,0,0,0,.09-.69h0a4.53,4.53,0,0,0-.81.87.22.22,0,0,1-.23.09.22.22,0,0,1-.17-.17,3.49,3.49,0,0,0-.77-1.6h0a5.07,5.07,0,0,0-.06,1.41,3.47,3.47,0,0,0,.33,1.2"/><path class="cls-7" d="M5.72,29.64h0a3.17,3.17,0,0,0,1.37-1.74,3.7,3.7,0,0,0,.15-.69h0a4,4,0,0,0-.94.78.22.22,0,0,1-.39-.12,3.47,3.47,0,0,0-.57-1.68h0a5.36,5.36,0,0,0-.24,1.4,3.56,3.56,0,0,0,.18,1.23,2.62,2.62,0,0,0,.47.83"/><path class="cls-7" d="M6.36,27.19h0A3.37,3.37,0,0,0,8,25.64,3.45,3.45,0,0,0,8.19,25a0,0,0,0,0,0,0h0a4.61,4.61,0,0,0-1,.65.22.22,0,0,1-.36-.18,3.51,3.51,0,0,0-.35-1.74h0A5.25,5.25,0,0,0,6,25.07a3.49,3.49,0,0,0,0,1.24,2.66,2.66,0,0,0,.35.88"/><path class="cls-7" d="M7.28,24.85h0A3.19,3.19,0,0,0,9,23.6a5,5,0,0,0,.43-.72,0,0,0,0,0,0,0h0a2.13,2.13,0,0,0-1.07.53.22.22,0,0,1-.37-.2,3.47,3.47,0,0,0-.09-1.77h0a5.1,5.1,0,0,0-.61,1.28,3.54,3.54,0,0,0-.16,1.23,2.68,2.68,0,0,0,.22.93"/><path class="cls-7" d="M8.58,22.6h0a4,4,0,0,0,2.3-1.7,0,0,0,0,0,0,0h0a2.56,2.56,0,0,0-1.1.38A.22.22,0,0,1,9.42,21a3.46,3.46,0,0,0,.13-1.76h0a3.5,3.5,0,0,0-1,3.35h0"/><path class="cls-7" d="M10.08,20.52h.08a3.14,3.14,0,0,0,1.74-.75,7,7,0,0,0,.65-.57,0,0,0,0,0,0,0h0a4.36,4.36,0,0,0-1.11.2.22.22,0,0,1-.27-.31,3.5,3.5,0,0,0,.41-1.72h0a5.23,5.23,0,0,0-.95,1.07,3.52,3.52,0,0,0-.5,1.14,2.65,2.65,0,0,0,0,1h0"/><path class="cls-7" d="M14.51,17.7a4.73,4.73,0,0,0-1.14.07.22.22,0,0,1-.23-.34,3.49,3.49,0,0,0,.57-1.67h0a3.54,3.54,0,0,0-1.79,3H12a4.32,4.32,0,0,0,2.49-1,0,0,0,0,0,0,0h0"/><path class="cls-7" d="M16.68,16.65a3.59,3.59,0,0,0-.59-.12,4.68,4.68,0,0,0-.56,0,.22.22,0,0,1-.14-.39,3.57,3.57,0,0,0,1-1.27,0,0,0,0,0,0,0h0c-2,.67-2.4,1.82-2.5,2.28a0,0,0,0,0,0,0,2.89,2.89,0,0,0,.79.1A4.07,4.07,0,0,0,16,17a5.33,5.33,0,0,0,.7-.3h0v0"/><path class="cls-7" d="M19,16a4.88,4.88,0,0,0-1.1-.37.22.22,0,0,1-.06-.41A3.06,3.06,0,0,0,19,14.37a0,0,0,0,0,0,0h0a4.07,4.07,0,0,0-2.32,1,2.05,2.05,0,0,0-.47.68,0,0,0,0,0,0,0,3.15,3.15,0,0,0,1.32.27,4.51,4.51,0,0,0,.76-.07A5.47,5.47,0,0,0,19,16h0"/><path class="cls-7" d="M20.58,15.35a.22.22,0,0,1,0-.42,3.86,3.86,0,0,0,1.26-.61s0,0,0,0h0a4.06,4.06,0,0,0-2.43.48,2,2,0,0,0-.6.56,0,0,0,0,0,0,0A3.67,3.67,0,0,0,21,16c.21,0,.39,0,.55,0h0a0,0,0,0,0,0,0,4,4,0,0,0-1-.58"/><path class="cls-7" d="M23.17,15.52a.22.22,0,0,1-.09-.23.22.22,0,0,1,.19-.17,4.43,4.43,0,0,0,1.34-.35h0s0,0,0,0a4.06,4.06,0,0,0-2.45,0,2.12,2.12,0,0,0-.71.43,0,0,0,0,0,0,0A3.49,3.49,0,0,0,24,16.36h0a0,0,0,0,0,0,0,4.74,4.74,0,0,0-.88-.82"/><path class="cls-7" d="M29.61,18.75h0a2.93,2.93,0,0,0-.19-1.08,2.73,2.73,0,0,0-1.79-1.59h0a0,0,0,0,0,0,0,4.53,4.53,0,0,0,.7,1.32.22.22,0,0,1-.22.35,3,3,0,0,0-1.13,0h0a0,0,0,0,0,0,0,5.23,5.23,0,0,0,2.52,1h.12"/><path class="cls-7" d="M27.56,17.15s0,0,0,0a2.27,2.27,0,0,0-1.87-.72,3.26,3.26,0,0,0-.8.15h0s0,0,0,0a3,3,0,0,0,1.86.7h.11a2.48,2.48,0,0,0,.71-.13h0"/><path class="cls-7" d="M23.93,15.56h0a2.33,2.33,0,0,0,1.38.4A3.91,3.91,0,0,0,26,15.9a5.59,5.59,0,0,0,1-.29h0v0a3.46,3.46,0,0,0-1.1-.4,3,3,0,0,0-1.17,0,3.06,3.06,0,0,0-.81.32h0"/><path class="cls-4" d="M22,56.64a1.39,1.39,0,0,0,0-.32A1.38,1.38,0,0,0,22,56a2.9,2.9,0,0,0,1.63-.83,1.34,1.34,0,0,0,.3-1,1.07,1.07,0,0,0-.49-.81c-.79-.52-2.29-.14-2.72,0-.42-.12-1.93-.5-2.72,0a1.07,1.07,0,0,0-.49.81,1.34,1.34,0,0,0,.3,1,2.93,2.93,0,0,0,1.64.83,1.2,1.2,0,0,0,0,.29,1.32,1.32,0,0,0,0,.31,5.27,5.27,0,0,1-3,1.46,2.25,2.25,0,0,0,.46.55,5.9,5.9,0,0,0,2.84-1.45l.15.14a2.71,2.71,0,0,1-2.22,1.8,3.85,3.85,0,0,0,1,.29,3,3,0,0,0,1.76-1.83l.25,0,.24,0a3,3,0,0,0,1.76,1.83,3.88,3.88,0,0,0,1-.29,2.7,2.7,0,0,1-2.22-1.8l.15-.14a5.86,5.86,0,0,0,2.83,1.44A2.28,2.28,0,0,0,25,58.1a5.27,5.27,0,0,1-3-1.45"/><path class="cls-1" d="M23.11,53.88a.46.46,0,0,1,.21.36.74.74,0,0,1-.16.58,1.78,1.78,0,0,1-.79.48,1.14,1.14,0,0,0,.06-.92,1.4,1.4,0,0,0-.49-.65,2,2,0,0,1,1.17.14"/><path class="cls-1" d="M19.6,54.6c.23-.62,1.09-.63,1.13-.63a1.78,1.78,0,0,1,.49.08.92.92,0,0,1,.63.54.78.78,0,0,1-.26.75,1.3,1.3,0,0,0-.86-.33,1.29,1.29,0,0,0-.86.33.78.78,0,0,1-.27-.76"/><path class="cls-1" d="M19.09,55.31a1.79,1.79,0,0,1-.79-.48.75.75,0,0,1-.17-.58.46.46,0,0,1,.22-.36,1.48,1.48,0,0,1,.78-.16l.4,0a1.41,1.41,0,0,0-.49.65,1.14,1.14,0,0,0,.06.92"/><path class="cls-1" d="M20,56.33a.69.69,0,1,1,.69.69.69.69,0,0,1-.69-.69"/><path class="cls-1" d="M24.52,58.65a5.86,5.86,0,0,1-2.83-1.44l-.15.14a2.7,2.7,0,0,0,2.22,1.8,3,3,0,0,0,.76-.49"/><path class="cls-1" d="M19.77,57.2a5.89,5.89,0,0,1-2.84,1.45,2.94,2.94,0,0,0,.76.49,2.71,2.71,0,0,0,2.22-1.8l-.15-.14"/></svg>