<svg id="Capa_1" data-name="Capa 1" xmlns="http://www.w3.org/2000/svg" viewBox="0 0 493.71 272.81"><defs><style>.cls-1{fill:#fff;}.cls-2{fill:#3c6ba7;}.cls-3,.cls-5{fill:#df6117;}.cls-3{stroke:#df6117;stroke-miterlimit:10;stroke-width:0.75px;}.cls-4{fill:#e48b39;}</style></defs><title>header-logo</title><rect class="cls-1" width="493.71" height="272.81" rx="10" ry="10"/><path class="cls-2" d="M71.68,63.79V58.85H88.59v4.94l-4.37.84V76.41h16.66V64.63l-4.37-.84V58.85h16.91v4.94l-4.37.84V93.94l4.38,0.84v4.91H96.5V94.78l4.37-.84V82.72H84.21V93.94l4.38,0.84v4.91H71.68V94.78L76,93.94V64.63Z"/><path class="cls-2" d="M120.4,94.78l2.92-.42,12.42-35.5h8.38l12.34,35.5,2.92,0.42v4.91H145.48V94.78l2.83-.5-1.79-5.61H133.28l-1.79,5.61,2.83,0.5v4.91H120.4V94.78Zm14.81-12.14h9.37L140,68.25h-0.17Z"/><path class="cls-2" d="M198.1,72.62H192l-0.84-5.44a8.55,8.55,0,0,0-3-1.91,12.14,12.14,0,0,0-4.33-.7,9.61,9.61,0,0,0-8.2,3.87q-2.88,3.87-2.87,10.1V80q0,6.23,2.86,10.12a9.43,9.43,0,0,0,8.08,3.9,13.31,13.31,0,0,0,4.42-.7,7.37,7.37,0,0,0,3.1-1.91L192,85.94h6.09V94a17.56,17.56,0,0,1-6.3,4.56,20.92,20.92,0,0,1-8.57,1.7,17.48,17.48,0,0,1-13.46-5.69q-5.24-5.69-5.24-14.61V78.6q0-8.89,5.22-14.61a17.42,17.42,0,0,1,13.49-5.72A20.53,20.53,0,0,1,191.79,60a18.34,18.34,0,0,1,6.31,4.56v8.08Z"/><path class="cls-2" d="M206.11,94.78l4.35-.84V64.63l-4.35-.84V58.85H222.8v4.94l-4.15.84V75.54h3.56l7.85-11.41-2.41-.34V58.85h16.18v4.94l-4.43.76L229.36,78l11.27,16.13,4.09,0.7v4.91H228.55V94.78l2.52-.34-7.85-11.81h-4.57v11.3l4.15,0.84v4.91H206.11V94.78Z"/><path class="cls-2" d="M251,94.78l2.92-.42,12.42-35.5h8.38l12.34,35.5L290,94.78v4.91H276.07V94.78l2.83-.5-1.79-5.61H263.87l-1.79,5.61,2.83,0.5v4.91H251V94.78Zm14.81-12.14h9.37l-4.6-14.39h-0.17Z"/><path class="cls-2" d="M328.67,58.85V69.73h-6.28l-0.34-4.57h-7.52V93.94l4.38,0.84v4.91H302V94.78l4.38-.84V65.16h-7.49l-0.34,4.57h-6.25V58.85h36.4Z"/><path class="cls-2" d="M372.13,79.58q0,9-5.13,14.84a18.24,18.24,0,0,1-26.8,0q-5.09-5.86-5.09-14.84V79q0-8.92,5.08-14.81a16.77,16.77,0,0,1,13.35-5.89A17,17,0,0,1,367,64.15Q372.13,70,372.13,79v0.62ZM364,78.9q0-6.34-2.64-10.29a8.76,8.76,0,0,0-7.8-4,8.54,8.54,0,0,0-7.7,3.93q-2.54,3.93-2.54,10.32v0.67q0,6.45,2.57,10.39a8.58,8.58,0,0,0,7.7,3.94,8.73,8.73,0,0,0,7.8-3.94Q364,86,364,79.58V78.9Z"/><path class="cls-2" d="M421.39,58.85v4.94l-4.37.84V99.69h-8.16L392.36,72.2l-0.17,0V93.94l4.38,0.84v4.91H379.66V94.78l4.35-.84V64.63l-4.35-.84V58.85h12.54l16.49,27.48,0.17,0V64.63l-4.37-.84V58.85h16.91Z"/><path class="cls-3" d="M71.69,123.22v-3.56H86.33v3.56l-4.57.79v24l4.57,0.79v3.53H71.69V148.8l4.57-.79V124Z"/><path class="cls-3" d="M128.42,119.66v3.56l-4.57.79v28.33h-5.5l-16.55-24.09-0.17.06V148l4.57,0.79v3.53H91.54V148.8l4.57-.79V124l-4.57-.79v-3.56h10.1l16.55,24.09,0.17-.06V124l-4.57-.79v-3.56h14.64Z"/><path class="cls-3" d="M170.51,119.66v3.56l-4.57.79v28.33h-5.5L143.9,128.24l-0.17.06V148l4.57,0.79v3.53H133.63V148.8l4.57-.79V124l-4.57-.79v-3.56h10.1l16.55,24.09,0.17-.06V124l-4.57-.79v-3.56h14.64Z"/><path class="cls-3" d="M206.69,136.77q0,7.18-4.05,11.61a14.8,14.8,0,0,1-21.13,0q-4.07-4.44-4.07-11.6v-1.51q0-7.12,4-11.58a14.75,14.75,0,0,1,21.13,0q4.08,4.46,4.08,11.58v1.51Zm-5.53-1.54q0-5.5-2.45-8.61a8.06,8.06,0,0,0-6.69-3.11,7.94,7.94,0,0,0-6.65,3.11q-2.41,3.11-2.41,8.61v1.54q0,5.55,2.44,8.67a8.7,8.7,0,0,0,13.33,0q2.43-3.11,2.43-8.67v-1.54Z"/><path class="cls-3" d="M225.28,123.22l-3.06.53L229.71,144l0.65,2.3h0.17l0.64-2.24,7.49-20.3-3.06-.53v-3.56h12v3.56l-3.14.45L233,152.34h-5.19l-11.44-28.66-3.11-.45v-3.56h12v3.56Z"/><path class="cls-3" d="M252.08,148.8l2.27-.39,11.58-28.75h5.19l11.55,28.75L285,148.8v3.53H274V148.8l3-.5-1.35-3.48H261.39L260,148.3l3,0.5v3.53h-11V148.8Zm11-8.3H274l-5.41-14H268.4Z"/><path class="cls-3" d="M318.71,141.65l0.06,0.17q0.11,5.3-3.37,8.15a13.8,13.8,0,0,1-9,2.85,13.22,13.22,0,0,1-10.11-4.29q-4-4.29-4-11.75v-1q0-7.68,4-12.13a13,13,0,0,1,10.12-4.45q5.69,0,9.12,2.85t3.31,8.09l-0.06.17h-5.33a6.59,6.59,0,0,0-1.86-5.1,7.87,7.87,0,0,0-11.34,1.63q-2.41,3.34-2.41,8.92v1a13.93,13.93,0,0,0,2.41,8.57,7.4,7.4,0,0,0,6.17,3.21,7.31,7.31,0,0,0,5.16-1.71,6.73,6.73,0,0,0,1.85-5.19h5.33Z"/><path class="cls-3" d="M326.25,123.22v-3.56h14.64v3.56l-4.57.79v24l4.57,0.79v3.53H326.25V148.8l4.57-.79V124Z"/><path class="cls-3" d="M377.07,136.77q0,7.18-4.05,11.61a14.8,14.8,0,0,1-21.13,0q-4.07-4.44-4.07-11.6v-1.51q0-7.12,4-11.58a14.75,14.75,0,0,1,21.13,0q4.08,4.46,4.08,11.58v1.51Zm-5.52-1.54q0-5.5-2.45-8.61a8.06,8.06,0,0,0-6.69-3.11,7.94,7.94,0,0,0-6.65,3.11q-2.41,3.11-2.41,8.61v1.54q0,5.55,2.44,8.67a8.7,8.7,0,0,0,13.33,0q2.43-3.11,2.43-8.67v-1.54Zm-7.68-24.9h6.45l0.06,0.17-7.54,7.29H358.7Z"/><path class="cls-3" d="M420.84,119.66v3.56l-4.57.79v28.33h-5.5l-16.55-24.09-0.17.06V148l4.57,0.79v3.53H384V148.8l4.57-.79V124l-4.57-.79v-3.56h10.1l16.55,24.09,0.17-.06V124l-4.57-.79v-3.56h14.64Z"/><path class="cls-3" d="M71.79,201.45l4.57-.79v-24l-4.57-.79v-3.56H99.28v9H94.54l-0.42-4.74H81.89v10H95.18v4.32H81.89v9.73l4.57,0.79V205H71.79v-3.53Z"/><path class="cls-3" d="M107.24,175.87v-3.56h14.64v3.56l-4.57.79v24l4.57,0.79V205H107.24v-3.53l4.57-.79v-24Z"/><path class="cls-3" d="M165.23,172.31v3.56l-4.57.79V205h-5.5l-16.55-24.09-0.17.06v19.72l4.57,0.79V205H128.36v-3.53l4.57-.79v-24l-4.57-.79v-3.56h10.1L155,196.4l0.17-.06V176.66l-4.57-.79v-3.56h14.64Z"/><path class="cls-3" d="M171.29,201.45l2.27-.39,11.58-28.75h5.19l11.55,28.75,2.27,0.39V205h-11v-3.53l3-.5-1.35-3.48H180.6l-1.35,3.48,3,0.5V205h-11v-3.53Zm11-8.3h10.94l-5.41-14h-0.17Z"/><path class="cls-3" d="M247.35,172.31v3.56l-4.57.79V205h-5.5l-16.55-24.09-0.17.06v19.72l4.57,0.79V205H210.47v-3.53l4.57-.79v-24l-4.57-.79v-3.56h10.1l16.55,24.09,0.17-.06V176.66l-4.57-.79v-3.56h14.64Z"/><path class="cls-3" d="M282.54,194.3l0.06,0.17q0.11,5.3-3.37,8.15a13.8,13.8,0,0,1-9,2.85,13.22,13.22,0,0,1-10.11-4.29q-4-4.29-4-11.75v-1q0-7.68,4-12.13a13,13,0,0,1,10.12-4.45q5.69,0,9.12,2.85t3.31,8.09l-0.06.17h-5.33a6.59,6.59,0,0,0-1.86-5.1A7.87,7.87,0,0,0,264,179.49q-2.41,3.34-2.41,8.92v1A13.93,13.93,0,0,0,264,198a7.4,7.4,0,0,0,6.17,3.21,7.31,7.31,0,0,0,5.16-1.71,6.73,6.73,0,0,0,1.85-5.19h5.33Z"/><path class="cls-3" d="M291.34,175.87v-3.56H306v3.56l-4.57.79v24l4.57,0.79V205H291.34v-3.53l4.57-.79v-24Z"/><path class="cls-3" d="M335.79,190.12H322.56v10.6h12.17l0.45-4.74h4.71v9H312.46v-3.53l4.57-.79v-24l-4.57-.79v-3.56h27.43v9h-4.74l-0.42-4.74H322.56v9.2h13.24v4.32Z"/><path class="cls-3" d="M366.56,172.31q5.75,0,8.9,2.52a8.54,8.54,0,0,1,3.16,7.07,6.69,6.69,0,0,1-1.39,4.26,9.68,9.68,0,0,1-4.08,2.86,7,7,0,0,1,4.19,2.86,9.12,9.12,0,0,1,1.28,5V201l2.78,0.48V205h-7.8a5.29,5.29,0,0,1-.42-2q-0.08-1.37-.08-2.83v-3.25a5.17,5.17,0,0,0-1.47-3.93,5.89,5.89,0,0,0-4.22-1.4h-8.25v9.11l4.57,0.79V205H349.06v-3.53l4.57-.79v-24l-4.57-.79v-3.56h17.5Zm-7.4,14.92h7.4a7.6,7.6,0,0,0,4.94-1.32,4.66,4.66,0,0,0,1.57-3.79,5.26,5.26,0,0,0-1.58-4.05,7,7,0,0,0-4.92-1.47h-7.4v10.63Z"/><path class="cls-3" d="M388,201.45l2.27-.39,11.58-28.75h5.19l11.55,28.75,2.27,0.39V205h-11v-3.53l3-.5-1.35-3.48H397.35L396,200.95l3,0.5V205H388v-3.53Zm11-8.3h10.94l-5.41-14h-0.17Z"/><path class="cls-2" d="M430.73,260.7H63a37.46,37.46,0,0,1-37.42-37.42,4.51,4.51,0,0,1,9,0A28.43,28.43,0,0,0,63,251.68H430.73a28.43,28.43,0,0,0,28.4-28.4v-67.1a4.51,4.51,0,1,1,9,0v67.1A37.46,37.46,0,0,1,430.73,260.7Z"/><path class="cls-2" d="M30.07,117.09a4.51,4.51,0,0,1-4.51-4.51V49.52A37.46,37.46,0,0,1,63,12.11H430.73a37.46,37.46,0,0,1,37.42,37.42,4.51,4.51,0,0,1-9,0,28.43,28.43,0,0,0-28.4-28.4H63a28.43,28.43,0,0,0-28.4,28.4v63.06A4.51,4.51,0,0,1,30.07,117.09Z"/><path class="cls-4" d="M30.07,142.59a17.26,17.26,0,1,1,17.26-17.26A17.28,17.28,0,0,1,30.07,142.59Zm0-25.5a8.24,8.24,0,1,0,8.24,8.24A8.25,8.25,0,0,0,30.07,117.09Z"/><circle class="cls-5" cx="30.07" cy="180.69" r="7.48"/><circle class="cls-5" cx="463.64" cy="90.1" r="7.48"/><path class="cls-4" d="M463.64,160.69a17.26,17.26,0,1,1,17.26-17.26A17.28,17.28,0,0,1,463.64,160.69Zm0-25.5a8.24,8.24,0,1,0,8.24,8.24A8.25,8.25,0,0,0,463.64,135.19Z"/></svg>