<?xml version="1.0" encoding="utf-8"?>
<!-- Generator: Adobe Illustrator 24.2.1, SVG Export Plug-In . SVG Version: 6.00 Build 0)  -->
<svg version="1.1" id="Capa_1" xmlns="http://www.w3.org/2000/svg" xmlns:xlink="http://www.w3.org/1999/xlink" x="0px" y="0px"
	 viewBox="0 0 845.4 155" style="enable-background:new 0 0 845.4 155;" xml:space="preserve">
<style type="text/css">
	.st0{fill:#231F20;}
	.st1{fill:#37BBED;}
	.st2{fill:none;}
</style>
<g transform="translate(16556 11472)">
	<path class="st0" d="M-16429.1-11413c3.8,4,5.7,10.1,5.7,18.3v38.6h-18.3v-37.3c0.3-2.7-0.4-5.5-2-7.7c-1.6-1.6-3.7-2.5-6-2.3
		c-1.8,0-3.6,0.3-5.3,1c-1.7,0.7-3.2,1.9-4.3,3.3c0,1.3,0.3,2.7,0.3,4v38.9h-17.6v-37.3c0.3-2.7-0.4-5.4-2-7.7
		c-1.5-1.6-3.5-2.4-5.7-2.3c-2,0-3.9,0.5-5.7,1.3c-1.8,0.9-3.3,2.3-4.3,4v41.9h-18.3v-61.6h15l1,6h1c4.4-4.9,10.7-7.6,17.3-7.3
		c3.2-0.1,6.4,0.6,9.3,2c2.8,1.3,5.1,3.4,6.7,6c2.4-2.6,5.4-4.7,8.7-6c3.2-1.3,6.6-2,10-2c5.6-0.2,11.1,1.9,15,6"/>
	<path class="st0" d="M-16410.8-11429.3c-1.9-1.8-2.9-4.4-2.7-7c-0.2-2.6,0.8-5.2,2.7-7c2.4-1.8,5.4-2.6,8.3-2.3
		c3-0.3,5.9,0.6,8.3,2.3c1.9,1.8,2.9,4.4,2.7,7c0.2,2.6-0.8,5.2-2.7,7c-2.4,1.8-5.4,2.6-8.3,2.3
		C-16405.4-11426.8-16408.4-11427.6-16410.8-11429.3 M-16411.5-11418h18v61.9h-18V-11418z"/>
	<path class="st1" d="M-16301-11357.8l-8.7-26.6c-0.3-0.9-1.1-1.6-2-1.7h-37.3c-0.9,0.1-1.7,0.8-2,1.7l-8.7,26.6
		c-0.3,0.9-1.1,1.6-2,1.7h-13.6c-1.3-0.1-2.2-1.3-2.1-2.5c0-0.2,0-0.3,0.1-0.4l33.3-98.5c0.3-0.9,1.1-1.6,2-1.7h23.6
		c0.9,0.1,1.7,0.8,2,1.7l33.3,98.5c0.4,1.2-0.3,2.5-1.6,2.9c-0.1,0-0.3,0.1-0.4,0.1h-14
		C-16299.9-11356.2-16300.7-11356.9-16301-11357.8 M-16342.6-11400.7h24.3c1.3-0.1,2.2-1.3,2.1-2.5c0-0.2,0-0.3-0.1-0.4l-12-37.3
		c-0.5-1.2-1.8-1.8-3-1.3c-0.6,0.2-1.1,0.7-1.3,1.3l-12.3,37.3c-0.4,1.2,0.3,2.5,1.6,2.9c0.1,0,0.3,0.1,0.4,0.1"/>
	<path class="st1" d="M-16269.7-11432h11c1.2,0,2.2,0.8,2.3,2l1,8h1c2.1-3.4,5.1-6.2,8.7-8c3.7-1.8,7.8-2.7,12-2.7h4
		c1.2,0.2,2,1.2,2,2.3v12c0,1.3-1,2.3-2.3,2.3l0,0h-4.7c-3.7,0.1-7.3,0.8-10.7,2.3c-3,1.1-5.6,3-7.7,5.3c-0.2,0.4-0.4,0.9-0.3,1.3
		v48.6c0,1.3-1,2.3-2.3,2.3l0,0h-14c-1.3,0-2.3-1-2.3-2.3l0,0v-71.6c0-1.3,1-2.3,2.3-2.3l0,0"/>
	<path class="st1" d="M-16205.4-11324.8l-10.3-2c-1-0.3-1.7-1.3-1.7-2.3v-10c0.2-1.3,1.3-2.2,2.6-2c0,0,0,0,0.1,0
		c6.6,1.7,13.5,2.6,20.3,2.7c4.3,0.1,8.6-0.5,12.7-2c3.1-1.1,5.7-3.4,7.3-6.3c1.7-3.6,2.5-7.6,2.3-11.6v-5.6h-1
		c-2.4,2.7-5.3,4.9-8.7,6.3c-3.7,1.6-7.6,2.4-11.7,2.3c-5.2,0-10.2-1.4-14.6-4c-4.6-3-8.2-7.3-10.3-12.3c-2.9-6.6-4.2-13.8-4-21
		c0-13.3,3.4-23.4,10.3-30.3s17.2-10.3,31-10.3c4.7,0,9.4,0.3,14,1l11.3,2.3c0.9,0.3,1.6,1.1,1.7,2v66.6c0.3,7.3-1.2,14.6-4.3,21.3
		c-2.8,5.4-7.4,9.6-13,12c-6.9,2.8-14.2,4.2-21.6,4L-16205.4-11324.8 M-16178.5-11372.1c2.3-0.9,4.3-2.2,6-4c0.4-0.4,0.7-1,0.7-1.7
		v-38.3c0-1.1-0.6-2-1.7-2.3l-8.7-0.7c-6.1-0.5-12,1.7-16.3,6c-3.6,4-5.3,10.3-5.3,19s1.6,14.8,4.7,18.3c3.3,3.7,8.1,5.6,13,5.3
		c2.7,0,5.5-0.6,8-1.7"/>
	<path class="st1" d="M-16076.3-11388.7h-42.3c-1.3,0-2.3,1-2.4,2.3c0,0.1,0,0.2,0,0.4c0.2,3.3,1.1,6.4,2.7,9.3
		c1.7,3,4.4,5.2,7.7,6.3c4.4,1.5,9,2.2,13.6,2c5.5-0.1,11-0.7,16.3-2c1.3-0.2,2.5,0.7,2.7,2l0,0v9.3c0,1.1-0.6,2-1.7,2.3
		c-6.5,1.5-13.2,2.3-20,2.3c-7.6,0.3-15.2-1.1-22.3-4c-5.7-2.6-10.2-7.1-13-12.7c-3.2-7.1-4.6-14.9-4.3-22.7
		c-0.2-7.4,1.1-14.8,4-21.6c2.4-5.6,6.4-10.2,11.6-13.3c5.6-3.1,11.9-4.6,18.3-4.3c10.4,0,18.3,3.3,23.6,10s8,16.5,8,29.6v2.7
		c0,1.3-1,2.3-2.3,2.3 M-16116.9-11416c-2.7,4.3-4.1,9.3-4,14.3c0,1.3,1,2.3,2.3,2.3l0,0h25.3c1.3,0,2.3-1,2.3-2.3l0,0
		c0.1-5-1.1-10-3.7-14.3c-2.6-3.4-6.7-5.3-11-5C-16109.9-11421.3-16114.1-11419.5-16116.9-11416"/>
	<path class="st1" d="M-16058.3-11432h11c1.2,0,2.2,0.8,2.3,2l1,6h1c2.9-3,6.4-5.4,10.3-7c4-1.6,8.3-2.4,12.7-2.3
		c6.9-0.4,13.7,2.2,18.6,7c4.7,4.7,7,12,7,22v45.9c0,1.3-1,2.3-2.3,2.3h-13.6c-1.3,0-2.3-1-2.3-2.3v-45c0.4-4-0.8-7.9-3.3-11
		c-2.5-2.3-5.9-3.5-9.3-3.3c-3.1,0-6.2,0.7-9,2c-2.7,1.1-5.1,2.8-7,5c-0.4,0.4-0.6,0.8-0.7,1.3v50.9c0,1.3-1,2.3-2.3,2.3h-13.6
		c-1.3,0-2.3-1-2.3-2.3v-71.6c0-1.3,1-2.3,2.3-2.3"/>
	<path class="st1" d="M-15932.1-11368.1v10.3c0,1.1-0.6,2-1.7,2.3c-3.7,0.7-7.5,1-11.3,1c-18,0-27-9.1-27-27.3v-33.3
		c0-1.3-1-2.3-2.3-2.3h-8.7c-1.3,0-2.3-1-2.3-2.3v-10c0-1.3,1-2.3,2.3-2.3h9c1.2,0,2.2-0.8,2.3-2l2.7-23.3c0.2-1.2,1.2-2,2.3-2h11
		c1.3,0,2.3,1,2.3,2.3v22.6c0,1.3,1,2.3,2.3,2.3h16.6c1.3,0,2.3,1,2.3,2.3v10c0,1.3-1,2.3-2.3,2.3h-16.6c-1.3,0-2.3,1-2.3,2.3v30.3
		c-0.2,3.1,0.3,6.1,1.3,9c0.8,2,2.4,3.7,4.3,4.7c2.4,1,5,1.5,7.7,1.3l6-0.7c1.3-0.2,2.5,0.7,2.6,2c0,0.1,0,0.2,0,0.4"/>
	<path class="st1" d="M-15918.8-11447.6c-2-1.9-3.1-4.6-3-7.3c-0.1-2.8,1-5.4,3-7.3c5.3-3.4,12-3.4,17.3,0c2,1.9,3.1,4.6,3,7.3
		c0.1,2.8-1,5.4-3,7.3C-15906.8-11444.2-15913.5-11444.2-15918.8-11447.6 M-15919.1-11358.4v-71.6c0-1.3,1-2.3,2.3-2.3h14
		c1.3,0,2.3,1,2.3,2.3v71.6c0,1.3-1,2.3-2.3,2.3h-14C-15918.1-11356.1-15919.1-11357.1-15919.1-11358.4"/>
	<path class="st1" d="M-15883.8-11432h11c1.2,0,2.2,0.8,2.3,2l1,6h1c2.9-3,6.4-5.4,10.3-7c4-1.6,8.3-2.4,12.7-2.3
		c6.9-0.4,13.7,2.2,18.6,7c4.7,4.7,7,12,7,22v45.9c0,1.3-1,2.3-2.3,2.3h-13.6c-1.3,0-2.3-1-2.3-2.3v-45c0.4-4-0.8-7.9-3.3-11
		c-2.5-2.3-5.9-3.5-9.3-3.3c-3.1,0-6.2,0.7-9,2c-2.7,1.1-5.1,2.8-7,5c-0.4,0.4-0.6,0.8-0.7,1.3v50.9c0,1.3-1,2.3-2.3,2.3h-13.6
		c-1.3,0-2.3-1-2.3-2.3v-71.6c0-1.3,1-2.3,2.3-2.3"/>
	<path class="st1" d="M-15759-11430.3c4.6,1.8,8.4,5.2,10.7,9.7c2.6,5.6,3.9,11.8,3.7,18v44.3c0,1.3-1,2.3-2.3,2.3h-11
		c-1.2,0-2.2-0.8-2.3-2l-1-6h-1c-2.2,3.1-5.2,5.5-8.7,7c-3.8,1.6-7.9,2.4-12,2.3c-4.5,0.1-8.9-0.8-13-2.7c-3.4-1.6-6.3-4.1-8.3-7.3
		c-2-3.4-3.1-7.3-3-11.3c-0.3-6.3,2.4-12.4,7.3-16.3c4.9-3.8,12.5-6.1,23-7l14.3-1.3v-3c0.1-3.1-0.6-6.2-2-9
		c-1.3-2.2-3.3-3.9-5.7-4.7c-3.5-1-7.1-1.5-10.7-1.3l-10,0.7l-7.7,1.7c-1.2,0.4-2.5-0.3-2.9-1.5c0-0.1-0.1-0.3-0.1-0.4v-10
		c0.1-0.9,0.8-1.7,1.7-2l10-2l12-1c6.3-0.2,12.7,0.8,18.6,3 M-15769.7-11369.1c2.3-1,4.3-2.5,6-4.3c0.4-0.4,0.7-1,0.7-1.7v-12.7
		c0-1.3-1-2.3-2.3-2.3l-10,1c-3.7,0.1-7.3,1.3-10.3,3.3c-2.3,1.9-3.5,4.7-3.3,7.7c-0.2,2.9,0.9,5.7,3,7.7c2.5,1.9,5.5,2.9,8.7,2.7
		c2.7,0,5.5-0.6,8-1.7"/>
	<rect x="-16512.7" y="-11465" class="st2" width="768" height="140.9"/>
</g>
</svg>
