<?xml version="1.0" encoding="utf-8"?>
<!-- Generator: Adobe Illustrator 24.2.1, SVG Export Plug-In . SVG Version: 6.00 Build 0)  -->
<svg version="1.1" id="Capa_1" xmlns="http://www.w3.org/2000/svg" xmlns:xlink="http://www.w3.org/1999/xlink" x="0px" y="0px"
	 viewBox="0 0 837.8 155" style="enable-background:new 0 0 837.8 155;" xml:space="preserve">
<style type="text/css">
	.st0{fill:#231F20;}
	.st1{fill:#FFFFFF;}
	.st2{fill:none;}
</style>
<g transform="translate(16556 11472)">
	<path class="st0" d="M-16458.8-11414.9c4.1,4.3,6.1,10.8,6.1,19.5v41.2h-19.5v-39.8c0.3-2.9-0.4-5.9-2.1-8.2
		c-1.7-1.7-3.9-2.7-6.4-2.5c-1.9,0-3.8,0.3-5.7,1.1c-1.8,0.7-3.4,2-4.6,3.5c0,1.4,0.3,2.9,0.3,4.3v41.5h-18.8v-39.8
		c0.3-2.9-0.4-5.8-2.1-8.2c-1.6-1.7-3.7-2.6-6.1-2.5c-2.1,0-4.2,0.5-6.1,1.4c-1.9,1-3.5,2.5-4.6,4.3v44.7h-19.5v-65.7h16l1.1,6.4
		h1.1c4.7-5.2,11.4-8.1,18.5-7.8c3.4-0.1,6.8,0.6,9.9,2.1c3,1.4,5.4,3.6,7.1,6.4c2.6-2.8,5.8-5,9.3-6.4c3.4-1.4,7-2.1,10.7-2.1
		c6-0.2,11.8,2,16,6.4"/>
	<path class="st0" d="M-16439.3-11432.2c-2-1.9-3.1-4.7-2.9-7.5c-0.2-2.8,0.9-5.5,2.9-7.5c2.6-1.9,5.8-2.8,8.9-2.5
		c3.2-0.3,6.3,0.6,8.9,2.5c2,1.9,3.1,4.7,2.9,7.5c0.2,2.8-0.9,5.5-2.9,7.5c-2.6,1.9-5.8,2.8-8.9,2.5
		C-16433.5-11429.6-16436.7-11430.4-16439.3-11432.2 M-16440-11420.2h19.2v66h-19.2V-11420.2z"/>
	<path class="st1" d="M-16322.1-11356l-9.3-28.4c-0.3-1-1.2-1.7-2.1-1.8h-39.8c-1,0.1-1.8,0.9-2.1,1.8l-9.3,28.4
		c-0.3,1-1.2,1.7-2.1,1.8h-14.5c-1.4-0.1-2.3-1.4-2.2-2.7c0-0.2,0-0.3,0.1-0.4l35.5-105.1c0.3-1,1.2-1.7,2.1-1.8h25.2
		c1,0.1,1.8,0.9,2.1,1.8l35.5,105.1c0.4,1.3-0.3,2.7-1.7,3.1c-0.1,0-0.3,0.1-0.4,0.1h-14.9
		C-16321-11354.3-16321.8-11355-16322.1-11356 M-16366.5-11401.7h25.9c1.4-0.1,2.3-1.4,2.2-2.7c0-0.2,0-0.3-0.1-0.4l-12.8-39.8
		c-0.5-1.3-1.9-1.9-3.2-1.4c-0.6,0.2-1.2,0.7-1.4,1.4l-13.1,39.8c-0.4,1.3,0.3,2.7,1.7,3.1c0.1,0,0.3,0.1,0.4,0.1"/>
	<path class="st1" d="M-16288.8-11435.1h11.7c1.3,0,2.3,0.9,2.5,2.1l1.1,8.5h1.1c2.2-3.6,5.4-6.6,9.3-8.5c3.9-1.9,8.3-2.9,12.8-2.9
		h4.3c1.3,0.2,2.1,1.3,2.1,2.5v12.8c0,1.4-1.1,2.5-2.5,2.5l0,0h-5c-3.9,0.1-7.8,0.9-11.4,2.5c-3.2,1.2-6,3.2-8.2,5.7
		c-0.2,0.4-0.4,1-0.3,1.4v51.8c0,1.4-1.1,2.5-2.5,2.5l0,0h-14.9c-1.4,0-2.5-1.1-2.5-2.5l0,0v-76.4c0-1.4,1.1-2.5,2.5-2.5l0,0"/>
	<path class="st1" d="M-16220.2-11320.8l-11-2.1c-1.1-0.3-1.8-1.4-1.8-2.5v-10.7c0.2-1.4,1.4-2.3,2.8-2.1c0,0,0,0,0.1,0
		c7,1.8,14.4,2.8,21.7,2.9c4.6,0.1,9.2-0.5,13.5-2.1c3.3-1.2,6.1-3.6,7.8-6.7c1.8-3.8,2.7-8.1,2.5-12.4v-6h-1.1
		c-2.6,2.9-5.7,5.2-9.3,6.7c-3.9,1.7-8.1,2.6-12.5,2.5c-5.5,0-10.9-1.5-15.6-4.3c-4.9-3.2-8.7-7.8-11-13.1c-3.1-7-4.5-14.7-4.3-22.4
		c0-14.2,3.6-25,11-32.3c7.4-7.4,18.4-11,33.1-11c5,0,10,0.3,14.9,1.1l12.1,2.5c1,0.3,1.7,1.2,1.8,2.1v71.1
		c0.3,7.8-1.3,15.6-4.6,22.7c-3,5.8-7.9,10.2-13.9,12.8c-7.4,3-15.2,4.5-23,4.3L-16220.2-11320.8 M-16191.5-11371.2
		c2.5-1,4.6-2.3,6.4-4.3c0.4-0.4,0.7-1.1,0.7-1.8v-40.9c0-1.2-0.6-2.1-1.8-2.5l-9.3-0.7c-6.5-0.5-12.8,1.8-17.4,6.4
		c-3.8,4.3-5.7,11-5.7,20.3s1.7,15.8,5,19.5c3.5,3.9,8.6,6,13.9,5.7c2.9,0,5.9-0.6,8.5-1.8"/>
	<path class="st1" d="M-16082.4-11388.9h-45.1c-1.4,0-2.5,1.1-2.6,2.5c0,0.1,0,0.2,0,0.4c0.2,3.5,1.2,6.8,2.9,9.9
		c1.8,3.2,4.7,5.5,8.2,6.7c4.7,1.6,9.6,2.3,14.5,2.1c5.9-0.1,11.7-0.7,17.4-2.1c1.4-0.2,2.7,0.7,2.9,2.1l0,0v9.9
		c0,1.2-0.6,2.1-1.8,2.5c-6.9,1.6-14.1,2.5-21.3,2.5c-8.1,0.3-16.2-1.2-23.8-4.3c-6.1-2.8-10.9-7.6-13.9-13.5
		c-3.4-7.6-4.9-15.9-4.6-24.2c-0.2-7.9,1.2-15.8,4.3-23c2.6-6,6.8-10.9,12.4-14.2c6-3.3,12.7-4.9,19.5-4.6
		c11.1,0,19.5,3.5,25.2,10.7c5.7,7.1,8.5,17.6,8.5,31.6v2.9c0,1.4-1.1,2.5-2.5,2.5 M-16125.7-11418.1c-2.9,4.6-4.4,9.9-4.3,15.3
		c0,1.4,1.1,2.5,2.5,2.5l0,0h27c1.4,0,2.5-1.1,2.5-2.5l0,0c0.1-5.3-1.2-10.7-3.9-15.3c-2.8-3.6-7.1-5.7-11.7-5.3
		C-16118.3-11423.7-16122.7-11421.8-16125.7-11418.1"/>
	<path class="st1" d="M-16063.2-11435.1h11.7c1.3,0,2.3,0.9,2.5,2.1l1.1,6.4h1.1c3.1-3.2,6.8-5.8,11-7.5c4.3-1.7,8.9-2.6,13.5-2.5
		c7.4-0.4,14.6,2.3,19.8,7.5c5,5,7.5,12.8,7.5,23.5v49c0,1.4-1.1,2.5-2.5,2.5h-14.5c-1.4,0-2.5-1.1-2.5-2.5v-48
		c0.4-4.3-0.9-8.4-3.5-11.7c-2.7-2.5-6.3-3.7-9.9-3.5c-3.3,0-6.6,0.7-9.6,2.1c-2.9,1.2-5.4,3-7.5,5.3c-0.4,0.4-0.6,0.9-0.7,1.4v54.3
		c0,1.4-1.1,2.5-2.5,2.5h-14.5c-1.4,0-2.5-1.1-2.5-2.5v-76.4c0-1.4,1.1-2.5,2.5-2.5"/>
	<path class="st1" d="M-15928.6-11367v11c0,1.2-0.6,2.1-1.8,2.5c-3.9,0.7-8,1.1-12.1,1.1c-19.2,0-28.8-9.7-28.8-29.1v-35.5
		c0-1.4-1.1-2.5-2.5-2.5h-9.3c-1.4,0-2.5-1.1-2.5-2.5v-10.7c0-1.4,1.1-2.5,2.5-2.5h9.6c1.3,0,2.3-0.9,2.5-2.1l2.9-24.9
		c0.2-1.3,1.3-2.1,2.5-2.1h11.7c1.4,0,2.5,1.1,2.5,2.5v24.1c0,1.4,1.1,2.5,2.5,2.5h17.7c1.4,0,2.5,1.1,2.5,2.5v10.7
		c0,1.4-1.1,2.5-2.5,2.5h-17.7c-1.4,0-2.5,1.1-2.5,2.5v32.3c-0.2,3.3,0.3,6.5,1.4,9.6c0.9,2.1,2.6,3.9,4.6,5
		c2.6,1.1,5.3,1.6,8.2,1.4l6.4-0.7c1.4-0.2,2.7,0.7,2.8,2.1c0,0.1,0,0.2,0,0.4"/>
	<path class="st1" d="M-15914.4-11451.8c-2.1-2-3.3-4.9-3.2-7.8c-0.1-3,1.1-5.8,3.2-7.8c5.7-3.6,12.8-3.6,18.5,0
		c2.1,2,3.3,4.9,3.2,7.8c0.1,3-1.1,5.8-3.2,7.8C-15901.6-11448.1-15908.7-11448.1-15914.4-11451.8 M-15914.7-11356.6v-76.4
		c0-1.4,1.1-2.5,2.5-2.5h14.9c1.4,0,2.5,1.1,2.5,2.5v76.4c0,1.4-1.1,2.5-2.5,2.5h-14.9
		C-15913.6-11354.2-15914.7-11355.2-15914.7-11356.6"/>
	<path class="st1" d="M-15877-11435.1h11.7c1.3,0,2.3,0.9,2.5,2.1l1.1,6.4h1.1c3.1-3.2,6.8-5.8,11-7.5c4.3-1.7,8.9-2.6,13.5-2.5
		c7.4-0.4,14.6,2.3,19.8,7.5c5,5,7.5,12.8,7.5,23.5v49c0,1.4-1.1,2.5-2.5,2.5h-14.5c-1.4,0-2.5-1.1-2.5-2.5v-48
		c0.4-4.3-0.9-8.4-3.5-11.7c-2.7-2.5-6.3-3.7-9.9-3.5c-3.3,0-6.6,0.7-9.6,2.1c-2.9,1.2-5.4,3-7.5,5.3c-0.4,0.4-0.6,0.9-0.7,1.4v54.3
		c0,1.4-1.1,2.5-2.5,2.5h-14.5c-1.4,0-2.5-1.1-2.5-2.5v-76.4c0-1.4,1.1-2.5,2.5-2.5"/>
	<path class="st1" d="M-15743.9-11433.3c4.9,1.9,9,5.5,11.4,10.3c2.8,6,4.2,12.6,3.9,19.2v47.3c0,1.4-1.1,2.5-2.5,2.5h-11.7
		c-1.3,0-2.3-0.9-2.5-2.1l-1.1-6.4h-1.1c-2.3,3.3-5.5,5.9-9.3,7.5c-4.1,1.7-8.4,2.6-12.8,2.5c-4.8,0.1-9.5-0.9-13.9-2.9
		c-3.6-1.7-6.7-4.4-8.9-7.8c-2.1-3.6-3.3-7.8-3.2-12.1c-0.3-6.7,2.6-13.2,7.8-17.4c5.2-4.1,13.3-6.5,24.5-7.5l15.3-1.4v-3.2
		c0.1-3.3-0.6-6.6-2.1-9.6c-1.4-2.3-3.5-4.2-6.1-5c-3.7-1.1-7.6-1.6-11.4-1.4l-10.7,0.7l-8.2,1.8c-1.3,0.4-2.7-0.3-3.1-1.6
		c0-0.1-0.1-0.3-0.1-0.4v-10.7c0.1-1,0.9-1.8,1.8-2.1l10.7-2.1l12.8-1.1c6.7-0.2,13.5,0.9,19.8,3.2 M-15755.3-11368
		c2.5-1.1,4.6-2.7,6.4-4.6c0.4-0.4,0.7-1.1,0.7-1.8v-13.5c0-1.4-1.1-2.5-2.5-2.5l-10.7,1.1c-3.9,0.1-7.8,1.4-11,3.5
		c-2.5,2-3.7,5-3.5,8.2c-0.2,3.1,1,6.1,3.2,8.2c2.7,2,5.9,3.1,9.3,2.9c2.9,0,5.9-0.6,8.5-1.8"/>
	<rect x="-16548" y="-11470.3" class="st2" width="819.4" height="150.3"/>
</g>
</svg>
