<?xml version="1.0" encoding="utf-8"?>
<!-- Generator: Adobe Illustrator 23.1.1, SVG Export Plug-In . SVG Version: 6.00 Build 0)  -->
<svg version="1.1" id="Capa_1" xmlns="http://www.w3.org/2000/svg" xmlns:xlink="http://www.w3.org/1999/xlink" x="0px" y="0px"
	 viewBox="0 0 1000 155" style="enable-background:new 0 0 1000 155;" xml:space="preserve">
<style type="text/css">
	.st0{fill:#0060AD;stroke:#0060AD;stroke-width:0.9592;stroke-miterlimit:10;}
	.st1{fill:#0094D4;}
	.st2{fill:#A3CFE0;}
	.st3{fill:#60BBE1;}
	.st4{fill:#0060AD;}
	.st5{fill:#FFFFFF;}
</style>
<g>
	<g>
		<path class="st0" d="M343.8,29.5h17.3c1.1,0,1.9,0.9,1.9,1.9l0,91.4c0,1.1-0.9,1.9-1.9,1.9h-12c-1.1,0-1.9-0.9-1.9-1.9l0-61.2
			c0-2.1-2.8-2.7-3.7-0.8l-21.6,48.6c-0.3,0.7-1,1.1-1.8,1.1h-11.7c-0.8,0-1.4-0.4-1.7-1.1L285,62.1c-0.9-1.9-3.7-1.3-3.7,0.8l0,60
			c0,1.1-0.9,1.9-1.9,1.9h-12c-1.1,0-1.9-0.9-1.9-1.9l0-91.4c0-1.1,0.9-1.9,1.9-1.9h17.4c0.8,0,1.4,0.4,1.8,1.1l26.3,58.7
			c0.7,1.5,2.8,1.5,3.5,0L342,30.7C342.3,30,343,29.5,343.8,29.5z"/>
	</g>
	<g>
		<path class="st1" d="M465.8,31c-0.3-0.8-1.1-1.4-1.9-1.4h-22c-1,0-1.6,0.6-1.9,1.4l-30.6,91c-0.5,1.3,0.5,2.7,1.9,2.7H424
			c1,0,1.8-0.6,1.9-1.4l8-24.5c0.3-0.8,1.1-1.4,1.9-1.4h34.2c1,0,1.8,0.6,1.9,1.4l8,24.5c0.3,0.8,1.1,1.4,1.9,1.4h12.6
			c1.4,0,2.4-1.4,1.9-2.7L465.8,31z M464.1,83.5h-22.6c-1.4,0-2.4-1.4-1.9-2.7l11.3-34.5c0.6-1.9,3.3-1.9,3.8,0L466,80.8
			C466.4,82.2,465.5,83.5,464.1,83.5z"/>
		<path class="st1" d="M546,53.9c-1.3-0.2-2.5-0.2-3.8-0.2c-4,0-7.8,0.8-11.1,2.5c-3.3,1.6-6,4.1-8.1,7.5h-1l-1-7.5
			c-0.2-1-1-1.8-2.1-1.8h-10c-1.1,0-2.1,1-2.1,2.1v66c0,1.1,1,2.1,2.1,2.1h12.7c1.1,0,2.1-1,2.1-2.1v-45c0-0.5,0.2-1,0.5-1.3
			c1.8-2.2,4.1-4,7.2-5.3c3.2-1.4,6.5-2.1,9.9-2.1c1.6,0,3,0,4.3,0.2c1.3,0.2,2.2-0.8,2.2-2.1V55.9C547.8,55,547,54,546,53.9z"/>
		<path class="st1" d="M614.3,56.7c-3.2-1-6.7-1.8-10.5-2.2c-4.5-0.6-8.9-1-13-1c-12.7,0-22.3,3.2-28.6,9.5
			c-6.4,6.4-9.7,15.8-9.7,28c0,7.6,1.3,14.2,3.7,19.3c2.4,5.1,5.7,8.9,9.7,11.3c4.1,2.4,8.6,3.7,13.7,3.7c4,0,7.5-0.6,10.7-2.1
			c3.2-1.4,5.9-3.3,8-5.9h0.8v5.6c0,4.5-0.8,8-2.2,10.7c-1.4,2.7-3.7,4.6-6.7,5.9c-3,1.3-6.8,1.9-11.6,1.9c-5.9,0-12.1-0.8-18.6-2.5
			c-1.3-0.3-2.5,0.6-2.5,1.9v9.1c0,1,0.6,1.8,1.6,2.1c3,0.8,6.2,1.4,9.5,1.8c4,0.5,7.8,0.8,11.5,0.8c8.1,0,15-1.1,20.2-3.5
			c5.3-2.4,9.2-6,11.9-11.1c2.7-5.1,4-11.6,4-19.7V59C615.7,57.7,615.2,56.9,614.3,56.7z M599,105c0,0.5-0.2,1.1-0.6,1.4
			c-1.6,1.6-3.3,2.9-5.4,3.7c-2.4,1-4.9,1.4-7.5,1.4c-5.3,0-9.2-1.6-11.9-4.9c-2.9-3.3-4.1-8.9-4.1-16.9c0-8.1,1.6-14,4.9-17.7
			c3.3-3.7,8.3-5.6,15-5.6c2.7,0,5.3,0.3,8,0.8c1,0.2,1.8,1.1,1.8,2.1V105L599,105z"/>
		<path class="st1" d="M660.3,53.4c-6.5,0-12.1,1.4-16.7,4.1c-4.6,2.7-8.1,6.8-10.7,12.3c-2.4,5.4-3.7,12.1-3.7,19.9
			c0,8.6,1.3,15.4,4,20.8c2.7,5.4,6.7,9.2,12.1,11.8c5.4,2.5,12.3,3.8,20.5,3.8c6,0,12.1-0.6,18.3-2.1c1-0.2,1.6-1.1,1.6-2.1v-8.6
			c0-1.3-1.3-2.2-2.5-1.9c-5.6,1.3-10.7,1.9-15.1,1.9c-5.3,0-9.4-0.6-12.6-1.8c-3.2-1.3-5.4-3.2-7-5.9c-1.3-2.2-2.1-5.1-2.4-8.4
			c-0.2-1.3,0.8-2.4,2.1-2.4h39.1c1.1,0,2.1-1,2.1-2.1v-2.5c0-12.1-2.5-21.3-7.5-27.4C677,56.6,669.8,53.4,660.3,53.4z M671.6,84.6
			h-23.4c-1.1,0-2.1-1-2.1-2.1c0.3-6,1.6-10.5,3.7-13.4c2.4-3,5.9-4.6,10.3-4.6c4.5,0,7.8,1.6,10,4.6c2.1,2.7,3.2,7.2,3.5,13.4
			C673.6,83.6,672.7,84.6,671.6,84.6z"/>
		<path class="st1" d="M739.1,53.4c-4.1,0-8,0.8-11.6,2.2c-3.7,1.4-6.7,3.5-9.4,6.4h-1l-1-5.7c-0.2-1-1-1.8-2.1-1.8h-10
			c-1.1,0-2.1,1-2.1,2.1v66c0,1.1,1,2.1,2.1,2.1h12.7c1.1,0,2.1-1,2.1-2.1V75.8c0-0.5,0.2-1,0.5-1.4c1.8-2.1,3.8-3.7,6.4-4.8
			c2.7-1.1,5.6-1.8,8.3-1.8c3.8,0,6.7,1,8.6,3c1.9,2.1,3,5.3,3,10v41.5c0,1.1,1,2.1,2.1,2.1h12.7c1.1,0,2.1-1,2.1-2.1V80.1
			c0-9.2-2.1-15.9-6.4-20.2C751.9,55.6,746.2,53.4,739.1,53.4z"/>
		<path class="st1" d="M818,111.5c-2.1,0.3-4,0.5-5.4,0.5c-3,0-5.4-0.5-7.2-1.3c-1.8-1-3.2-2.4-4-4.3c-1-2.1-1.3-4.8-1.3-8.1V70.1
			c0-1.1,1-2.1,2.1-2.1h15.4c1.1,0,2.1-1,2.1-2.1v-9.4c0-1.1-1-2.1-2.1-2.1h-15.4c-1.1,0-2.1-1-2.1-2.1V31.6c0-1.1-1-2.1-2.1-2.1
			h-10c-1.1,0-1.9,0.8-2.1,1.8l-2.5,21.3c-0.2,1-1,1.8-2.1,1.8h-8.3c-1.1,0-2.1,1-2.1,2.1v9.4c0,1.1,1,2.1,2.1,2.1h8
			c1.1,0,2.1,1,2.1,2.1v30.9c0,16.7,8.3,25.1,25,25.1c3.5,0,7-0.3,10.5-1.1c1-0.2,1.6-1.1,1.6-2.1v-9.2
			C820.4,112.3,819.3,111.3,818,111.5z"/>
		<path class="st1" d="M840.7,24.3c-3.5,0-6.2,0.8-8,2.4c-1.8,1.6-2.7,3.8-2.7,6.8c0,3,1,5.3,2.7,6.8c1.8,1.6,4.5,2.4,8,2.4
			c3.5,0,6.2-0.8,8-2.4c1.8-1.6,2.7-3.8,2.7-6.8c0-3-1-5.3-2.7-6.8C847,25.1,844.2,24.3,840.7,24.3z"/>
		<path class="st1" d="M847.1,54.5h-12.7c-1.1,0-2.1,1-2.1,2.1v66c0,1.1,1,2.1,2.1,2.1h12.7c1.1,0,2.1-1,2.1-2.1v-66
			C849.2,55.5,848.2,54.5,847.1,54.5z"/>
		<path class="st1" d="M899.9,53.4c-4.1,0-8,0.8-11.6,2.2c-3.7,1.4-6.7,3.5-9.4,6.4h-1l-1-5.7c-0.2-1-1-1.8-2.1-1.8h-10.2
			c-1.1,0-2.1,1-2.1,2.1v66c0,1.1,1,2.1,2.1,2.1h12.7c1.1,0,2.1-1,2.1-2.1V75.8c0-0.5,0.2-1,0.5-1.4c1.8-2.1,3.8-3.7,6.4-4.8
			c2.7-1.1,5.6-1.8,8.3-1.8c3.8,0,6.7,1,8.6,3c1.9,2.1,3,5.3,3,10v41.5c0,1.1,1,2.1,2.1,2.1h12.7c1.1,0,2.1-1,2.1-2.1V80.1
			c0-9.2-2.1-15.9-6.4-20.2C912.8,55.6,907.1,53.4,899.9,53.4z"/>
		<path class="st1" d="M980.2,56.1c-4.5-1.8-10.2-2.7-17.3-2.7c-3.5,0-7.2,0.3-11.1,0.8c-3.3,0.5-6.4,1.1-9.2,1.8
			c-1,0.3-1.4,1.1-1.4,1.9v8.6c0,1.4,1.3,2.4,2.5,1.9c2.2-0.6,4.6-1.1,7-1.4c3.3-0.5,6.5-0.8,9.4-0.8c4.1,0,7.3,0.5,9.7,1.3
			c2.4,0.8,4.1,2.2,5.4,4.3c1.1,2.1,1.8,4.8,1.8,8.4v2.7l-13,1.3c-9.7,0.8-16.7,2.9-21.2,6.5c-4.5,3.5-6.7,8.6-6.7,15.1
			c0,4,1,7.5,2.7,10.5s4.3,5.3,7.6,6.8c3.3,1.6,7.3,2.4,11.9,2.4c4,0,7.6-0.8,11-2.2c3.3-1.4,6-3.5,8.1-6.4h1l1,5.6
			c0.2,1,1,1.8,2.1,1.8h10.2c1.1,0,2.1-1,2.1-2.1V80.9c0-7-1.1-12.6-3.2-16.6C987.8,60.9,984.6,57.9,980.2,56.1z M976.8,107.2
			c0,0.5-0.2,1.1-0.6,1.4c-1.8,1.8-3.7,3-5.7,3.8c-2.4,1-4.8,1.4-7.2,1.4c-3.5,0-6.2-0.8-8-2.4c-1.8-1.6-2.7-4-2.7-7
			c0-3,1-5.4,3-7.2c2.1-1.8,5.3-2.7,9.7-3.2l9.2-0.8c1.3-0.2,2.2,0.8,2.2,2.1V107.2L976.8,107.2z"/>
	</g>
	<g>
		<path class="st0" d="M387.8,24.4c-3.5,0-6.2,0.8-8,2.4c-1.8,1.6-2.7,3.8-2.7,6.8c0,3,1,5.3,2.7,6.8c1.8,1.6,4.5,2.4,8,2.4
			c3.5,0,6.2-0.8,8-2.4c1.8-1.6,2.7-3.8,2.7-6.8c0-3-1-5.3-2.7-6.8C394,25.2,391.3,24.4,387.8,24.4z"/>
		<path class="st0" d="M394.2,54.6h-12.7c-1.1,0-2.1,1-2.1,2.1v66c0,1.1,1,2.1,2.1,2.1h12.7c1.1,0,2.1-1,2.1-2.1v-66
			C396.2,55.6,395.3,54.6,394.2,54.6z"/>
	</g>
	<g>
		<path class="st2" d="M94.7,0.9l122.4,35c7.6,2.2,11.8,10,9.7,17.5l-26,91c-2.2,7.6-10,11.9-17.5,9.7l-48.8-13.9l-17.4,13.7
			l-7.6-20.8l-48.7-13.9c-7.6-2.2-11.9-10-9.7-17.5l26-91C79.3,3.1,87.2-1.3,94.7,0.9L94.7,0.9z"/>
		<path class="st3" d="M139.3,0.9l-122.5,35C9.2,38,4.9,45.8,7,53.4l26,91c2.2,7.6,10,11.9,17.5,9.7l48.8-13.9l17.4,13.7l7.6-20.8
			l48.8-13.9c7.6-2.2,11.9-10,9.7-17.5l-26-91.1C154.6,3.1,146.7-1.3,139.3,0.9L139.3,0.9z"/>
		<path class="st4" d="M180.3,13H52.9c-7.8,0-14.1,6.4-14.1,14.2v94.6c0,7.8,6.3,14.1,14.1,14.2h50.7l13,17.9l12.9-17.9h50.7
			c7.8,0,14.2-6.4,14.2-14.2V27.1C194.5,19.3,188.2,12.9,180.3,13C180.3,12.9,180.3,12.9,180.3,13z"/>
		<path class="st5" d="M116.3,71.9c-11.8,0-21.5-9.7-21.4-21.5C95,38.6,104.6,29,116.4,29c11.8,0,21.4,9.7,21.4,21.5
			c0,9.9-6.9,18.6-16.6,20.9l0,0C119.6,71.8,117.9,71.9,116.3,71.9z M120.2,66.8 M116.3,37.7c-7-0.2-12.8,5.5-13,12.5
			c-0.2,7,5.5,12.8,12.5,13c1.2,0,2.3-0.1,3.4-0.4l0,0c6.8-1.7,10.9-8.7,9.2-15.5C127.1,41.7,122,37.8,116.3,37.7L116.3,37.7z"/>
		<path class="st5" d="M116.7,121.2c-12.8,0-25.3-4.3-35.4-12.4c-1.2-0.9-1.8-2.5-1.6-3.9c0.7-6.6,2.8-12.8,6-18.5
			c1.2-2.1,3.9-2.8,6-1.6c2.1,1.2,2.8,3.9,1.6,6c-2.3,3.9-3.8,8.3-4.6,12.7c16.7,11.9,39.2,11.9,55.8,0c-1.5-8.7-5.8-16.5-11.9-21.6
			c-1.9-1.5-2.1-4.3-0.5-6.2c1.5-1.9,4.3-2.1,6.2-0.5c8.4,7,14,17.8,15.4,29.8c0.2,1.5-0.5,3-1.6,3.9
			C142,116.9,129.5,121.2,116.7,121.2z"/>
	</g>
</g>
</svg>
