<svg xmlns="http://www.w3.org/2000/svg" xmlns:xlink="http://www.w3.org/1999/xlink" width="131.808" height="122.295" viewBox="0 0 131.808 122.295">
  <defs>
    <clipPath id="clip-path">
      <path id="Trazado_5845" data-name="Trazado 5845" d="M130.547,77.241c0,27.049-25.273,51.806-52.265,51.119-19.657-.573-48.482-15.989-48.482-49.8C29.8,51.51,54.557,28.3,81.549,28.3" transform="translate(-29.8 -28.3)" fill="none"/>
    </clipPath>
  </defs>
  <g id="INCUCUAI" transform="translate(65.904 61.148)">
    <g id="INCUCUAI-2" data-name="INCUCUAI" transform="translate(-65.904 -61.148)" style="isolation: isolate">
      <g id="Capa_1" data-name="Capa 1">
        <g id="Grupo_12131" data-name="Grupo 12131">
          <g id="Grupo_12081" data-name="Grupo 12081" transform="translate(70.395 83.76)">
            <path id="Trazado_5769" data-name="Trazado 5769" d="M181.14,151.286a70.6,70.6,0,0,1-12.78-1.375h-.344a.466.466,0,1,1,.172-.917h.344a66.244,66.244,0,0,0,13.754,1.375.458.458,0,1,1,0,.917Z" transform="translate(-141.962 -147.423)" fill="#1460aa"/>
            <path id="Trazado_5770" data-name="Trazado 5770" d="M125.738,149.2a11.863,11.863,0,0,1-2.522-.287.466.466,0,0,1,.172-.917,11.461,11.461,0,0,0,5.788-.287h.172c7.45-1.834,11.462-1.6,14.384-1.089a.466.466,0,1,1-.172.917c-2.865-.458-6.705-.688-14.04,1.089h-.172A14.842,14.842,0,0,1,125.738,149.2Z" transform="translate(-122.836 -146.258)" fill="#1460aa"/>
            <path id="Trazado_5771" data-name="Trazado 5771" d="M180.449,155.43h0l-4.355-.458h-.287a.288.288,0,1,1,.057-.573h.344l4.355.458a.287.287,0,1,1,0,.573Z" transform="translate(-145.34 -149.733)" fill="#1460aa"/>
            <path id="Trazado_5772" data-name="Trazado 5772" d="M171.188,154.369h-.057a26.065,26.065,0,0,1-3.209-.63l-.516-.229a.287.287,0,0,1,.229-.516l.516.229a27.628,27.628,0,0,0,3.037.573.288.288,0,1,1-.057.573Z" transform="translate(-141.81 -149.13)" fill="#1460aa"/>
            <path id="Trazado_5773" data-name="Trazado 5773" d="M134.564,151.578a.288.288,0,0,1-.057-.573c5.845-1.547,10.029-1.948,13.582-1.318a.292.292,0,1,1-.115.573c-3.5-.63-7.565-.229-13.353,1.318Z" transform="translate(-127.708 -147.6)" fill="#1460aa"/>
            <path id="Trazado_5774" data-name="Trazado 5774" d="M153.594,153.383h-.057a15.931,15.931,0,0,0-5.272-.057.288.288,0,1,1-.057-.573,16.562,16.562,0,0,1,5.444.057.288.288,0,0,1-.057.573Z" transform="translate(-133.557 -148.947)" fill="#1460aa"/>
            <path id="Trazado_5775" data-name="Trazado 5775" d="M142.764,154.541a.288.288,0,0,1-.057-.573l.745-.172a.292.292,0,1,1,.115.573l-.688.172Z" transform="translate(-131.208 -149.474)" fill="#1460aa"/>
          </g>
          <g id="Grupo_12089" data-name="Grupo 12089" transform="translate(22.07 67.161)">
            <g id="Grupo_12082" data-name="Grupo 12082" transform="translate(16.148 1.433)" opacity="0.6">
              <path id="Trazado_5776" data-name="Trazado 5776" d="M77.7,132.634a.458.458,0,0,1-.115-.86,5.126,5.126,0,0,0,2.923-2.464,4.183,4.183,0,0,0-.229-3.5,2.006,2.006,0,0,0-1.261-1.2,3.486,3.486,0,0,0-2.464.573.458.458,0,0,1-.688-.458s.63-2.808-.516-4.183a2.063,2.063,0,0,0-1.719-.745,2.5,2.5,0,0,0-2.178.86c-.4.573-.229,3.209.057,3.954a.458.458,0,0,1-.573.573,3.782,3.782,0,0,0-2.693.057,2.808,2.808,0,0,0-1.375,1.948,5.272,5.272,0,0,0-.172,1.6c.287,1.261,2.12,1.948,2.235,2.063a9.485,9.485,0,0,1,1.433,4.012,6.877,6.877,0,0,1-2.636,5.444l2.292.745.8.344a9.169,9.169,0,0,0,2.292.458v-3.037h-.287c-1.146,0-1.777-.229-2.063-.745a1.146,1.146,0,0,1-.057-1.089.287.287,0,1,1,.516.229.516.516,0,0,0-.057.516c.115.229.688.516,1.948.458V130a3.419,3.419,0,0,1-2.636-1.032,2.063,2.063,0,0,1-.458-1.719.292.292,0,1,1,.573.115,1.49,1.49,0,0,0,.344,1.261,2.552,2.552,0,0,0,2.235.8v-5.673a.344.344,0,0,1,.63,0v4.012c1.547.057,2.235-.287,2.407-.516a.573.573,0,0,0,.172-.4.3.3,0,0,1,.573-.172,1.032,1.032,0,0,1-.229.917,3.314,3.314,0,0,1-2.464.745h-.516v8.023a3.152,3.152,0,0,0,2.808-.057,1.375,1.375,0,0,0,.4-1.089.292.292,0,1,1,.573-.115,1.834,1.834,0,0,1-.573,1.6,2.407,2.407,0,0,1-1.547.458c-.458,0-1.719-.115-1.719-.287v4.871a21.091,21.091,0,0,0,2.98.172h.458c2.407,0,4.3-1.49,4.3-4.757A4.527,4.527,0,0,0,77.7,132.634Z" transform="translate(-66.69 -119.793)" fill="#007cad"/>
            </g>
            <g id="Grupo_12083" data-name="Grupo 12083" transform="translate(2.219 4.768)" opacity="0.3">
              <path id="Trazado_5777" data-name="Trazado 5777" d="M44.628,141.767a3.954,3.954,0,0,1-2.235-3.84,2.9,2.9,0,0,1,1.318-2.464,5.791,5.791,0,0,1,2.522.057.454.454,0,0,0,.516-.745s-2.808-2.063-1.777-4.585a2.407,2.407,0,0,1,2.006-1.318,1.777,1.777,0,0,1,1.719.974.458.458,0,0,0,.8-.4s-.86-2.522.745-3.381,2.178-.4,3.438.63c2.235,1.834-.516,6.3-.516,6.3a.458.458,0,0,0,.516.688s2.522-.63,4.012.516,1.089,1.49,1.089,2.808a6.019,6.019,0,0,1-3.037,5.1,19.027,19.027,0,0,0-4.3-.745v-2.693h1.146c2.579,0,3.381-1.318,3.438-1.375a.287.287,0,0,0-.057-.4.516.516,0,0,0-.573.115s-.8,1.318-3.954.974v-9.513c0-.172-.344-.287-.458-.287s-.458.115-.458.287v4.7a8.207,8.207,0,0,1-2.751-.86.8.8,0,0,1-.115-.86c.057-.115.057-.287-.057-.344a.229.229,0,0,0-.344.172,1.662,1.662,0,0,0,.344,1.318c.4.573.974,1.2,3.095,1.2h-.115v5.559c-2.522.287-4.241-.344-4.7-.917a1.032,1.032,0,0,1-.057-1.146c.057-.172.057-.287-.057-.344a.229.229,0,0,0-.344.172,1.891,1.891,0,0,0,.344,1.662c.63.8,1.6,1.2,3.61,1.2h1.2v1.318A29.858,29.858,0,0,0,44.628,141.767Z" transform="translate(-42.383 -125.614)" fill="#0094d4"/>
            </g>
            <g id="Grupo_12088" data-name="Grupo 12088">
              <g id="Grupo_12085" data-name="Grupo 12085" transform="translate(14.982)">
                <path id="Trazado_5778" data-name="Trazado 5778" d="M76.543,141.481a.458.458,0,1,1,0-.917c2.407,0,3.782-1.891,3.782-5.158a4.126,4.126,0,0,0-3.84-4.3.462.462,0,0,1-.115-.917,5.126,5.126,0,0,0,2.923-2.464,4.183,4.183,0,0,0-.229-3.5,1.948,1.948,0,0,0-1.261-1.2,3.486,3.486,0,0,0-2.464.573.458.458,0,0,1-.688-.516s.63-2.808-.458-4.183a2.063,2.063,0,0,0-1.719-.745,2.321,2.321,0,0,0-2.12.86,8.168,8.168,0,0,0,.057,3.9.458.458,0,0,1-.63.63,3.725,3.725,0,0,0-2.693.057,2.808,2.808,0,0,0-1.318,1.948c-.63,2.579.63,3.438.688,3.5a.462.462,0,1,1-.458.8c-.057-.057-1.948-1.2-1.146-4.47a3.725,3.725,0,0,1,1.834-2.579,4.126,4.126,0,0,1,2.579-.287,5.072,5.072,0,0,1,.287-3.954c.8-1.2,1.547-1.261,2.923-1.261a2.98,2.98,0,0,1,2.464,1.089,5.9,5.9,0,0,1,.8,4.069,3.725,3.725,0,0,1,2.35-.229,2.865,2.865,0,0,1,1.834,1.719,5.187,5.187,0,0,1,.229,4.3,5.444,5.444,0,0,1-2.235,2.35,4.881,4.881,0,0,1,3.324,4.928C81.243,138.673,79.466,141.481,76.543,141.481Z" transform="translate(-64.654 -117.293)" fill="#1460aa"/>
                <g id="Grupo_12084" data-name="Grupo 12084" transform="translate(4.25 4.446)">
                  <path id="Trazado_5779" data-name="Trazado 5779" d="M78.287,144.277A.287.287,0,0,1,78,143.99V125.365a.315.315,0,1,1,.63,0v18.568a.287.287,0,0,1-.344.344Z" transform="translate(-74.602 -125.05)" fill="#1460aa"/>
                  <path id="Trazado_5780" data-name="Trazado 5780" d="M75.641,134.476a3.807,3.807,0,0,1-3.037-1.032,2.235,2.235,0,0,1-.516-1.719.292.292,0,1,1,.573.115,1.662,1.662,0,0,0,.4,1.261,3.246,3.246,0,0,0,2.579.86.287.287,0,1,1,0,.573Z" transform="translate(-72.071 -127.799)" fill="#1460aa"/>
                  <path id="Trazado_5781" data-name="Trazado 5781" d="M75.353,150.721c-1.146,0-1.834-.229-2.178-.745a1.146,1.146,0,0,1-.057-1.089.3.3,0,1,1,.516.287.573.573,0,0,0,0,.516c.172.229.63.573,2.35.458a.287.287,0,1,1,0,.573Z" transform="translate(-72.471 -135.162)" fill="#1460aa"/>
                  <path id="Trazado_5782" data-name="Trazado 5782" d="M78.732,132.569h-.745a.287.287,0,0,1,0-.573c1.834.115,2.407-.229,2.579-.458a.458.458,0,0,0,.115-.4.3.3,0,0,1,.573-.172,1.031,1.031,0,0,1-.229.917A2.915,2.915,0,0,1,78.732,132.569Z" transform="translate(-74.474 -127.497)" fill="#1460aa"/>
                  <path id="Trazado_5783" data-name="Trazado 5783" d="M79.947,147.731a6.821,6.821,0,0,1-2.006-.344.3.3,0,1,1,.172-.573c1.433.458,2.407.458,2.923.057a1.261,1.261,0,0,0,.344-1.032.292.292,0,0,1,.573-.115,1.834,1.834,0,0,1-.573,1.6A2.178,2.178,0,0,1,79.947,147.731Z" transform="translate(-74.486 -133.776)" fill="#1460aa"/>
                </g>
              </g>
              <g id="Grupo_12087" data-name="Grupo 12087" transform="translate(1.52 3.875)">
                <path id="Trazado_5784" data-name="Trazado 5784" d="M55.512,142.247a.458.458,0,0,1-.229-.86,6.075,6.075,0,0,0,2.98-5.215,3.455,3.455,0,0,0-1.089-2.808c-.688-.573-3.954-.516-4.012-.516a.458.458,0,0,1-.516-.688c0-.057,2.751-4.47.516-6.3-1.2-1.032-2.235-1.2-3.381-.573s-.8,3.324-.745,3.381a.474.474,0,1,1-.86.4,1.719,1.719,0,0,0-1.719-.974,2.407,2.407,0,0,0-1.948,1.318c-1.032,2.522,1.719,4.527,1.777,4.585a.462.462,0,1,1-.458.8,3.2,3.2,0,0,0-2.464-.057c-1.032.573-1.089,1.2-1.2,2.464s.344,2.751,2.522,3.9a.462.462,0,0,1-.458.8,5.166,5.166,0,0,1-3.037-4.814,4.188,4.188,0,0,1,1.662-3.209,3.037,3.037,0,0,1,1.6-.344,4.47,4.47,0,0,1-.86-4.47,3.324,3.324,0,0,1,2.751-1.891,2.636,2.636,0,0,1,1.433.287,3.037,3.037,0,0,1,1.49-2.98,3.807,3.807,0,0,1,4.413.688c1.49,1.2.917,5.1.172,6.648a5.42,5.42,0,0,1,3.84.8,3.851,3.851,0,0,1,1.49,3.553,6.992,6.992,0,0,1-3.438,6.017Z" transform="translate(-41.165 -124.054)" fill="#1460aa"/>
                <g id="Grupo_12086" data-name="Grupo 12086" transform="translate(3.659 3.436)">
                  <path id="Trazado_5785" data-name="Trazado 5785" d="M57.987,143.89a.287.287,0,0,1-.287-.287V130.365a.315.315,0,0,1,.63,0V143.6a.287.287,0,0,1-.344.287Z" transform="translate(-51.883 -130.05)" fill="#1460aa"/>
                  <path id="Trazado_5786" data-name="Trazado 5786" d="M51.877,148.207q-3.009,0-3.954-1.2a1.834,1.834,0,0,1-.287-1.662.3.3,0,1,1,.573.172h0a1.261,1.261,0,0,0,.229,1.146c.458.573,1.777,1.261,5.33.86a.317.317,0,1,1,.057.63Z" transform="translate(-47.55 -136.487)" fill="#1460aa"/>
                  <path id="Trazado_5787" data-name="Trazado 5787" d="M59.385,146.846l-1.261-.115a.292.292,0,1,1,.115-.573c3.209.458,4.012-.974,4.012-.974a.3.3,0,1,1,.516.287C62.709,145.586,62.021,146.846,59.385,146.846Z" transform="translate(-51.964 -136.445)" fill="#1460aa"/>
                </g>
              </g>
              <path id="Trazado_5788" data-name="Trazado 5788" d="M54.562,137.663c-2.12,0-3.037-.63-3.438-1.2a1.6,1.6,0,0,1-.344-1.318.3.3,0,0,1,.573.172,1.2,1.2,0,0,0,.344.86c.4.458,1.318.974,3.381.86a.287.287,0,0,1,0,.573Z" transform="translate(-43.738 -124.822)" fill="#1460aa"/>
              <path id="Trazado_5789" data-name="Trazado 5789" d="M69.05,156.747c-4.757,0-8.94-.344-10.717-.974l-.917-.344c-4.757-1.662-8.883-3.037-18.281-.229a.48.48,0,1,1-.287-.917c9.685-2.865,13.926-1.433,18.854.287l.917.344c1.948.688,7.45,1.032,13.009.86h0a.458.458,0,1,1,0,.917Z" transform="translate(-38.512 -132.387)" fill="#1460aa"/>
              <path id="Trazado_5790" data-name="Trazado 5790" d="M85.53,161.573h-.344a.287.287,0,1,1,0-.573h.344a.287.287,0,1,1,0,.573Z" transform="translate(-58.316 -135.952)" fill="#1460aa"/>
              <path id="Trazado_5791" data-name="Trazado 5791" d="M78.871,161.244h0l-2.464-.172a.288.288,0,0,1,.057-.573l2.464.172a.287.287,0,1,1,0,.573Z" transform="translate(-54.579 -135.738)" fill="#1460aa"/>
              <path id="Trazado_5792" data-name="Trazado 5792" d="M61.055,159.165H61a9.745,9.745,0,0,1-1.891-.344l-.917-.344c-4.642-1.6-8.711-2.98-17.651-.458a.292.292,0,1,1-.115-.573c9.112-2.579,13.238-1.146,17.995.458l.917.344a8.94,8.94,0,0,0,1.777.287.287.287,0,1,1,0,.573Z" transform="translate(-39.227 -133.831)" fill="#1460aa"/>
              <path id="Trazado_5793" data-name="Trazado 5793" d="M89.761,164.673h-.974a.287.287,0,1,1,0-.573h.974a.287.287,0,1,1,0,.573Z" transform="translate(-59.853 -137.276)" fill="#1460aa"/>
              <path id="Trazado_5794" data-name="Trazado 5794" d="M64.477,160.97H64.42a23.664,23.664,0,0,0-3.5-.8.292.292,0,1,1,.115-.573,24.245,24.245,0,0,1,3.553.8.288.288,0,0,1-.057.573Z" transform="translate(-47.979 -135.35)" fill="#1460aa"/>
              <path id="Trazado_5795" data-name="Trazado 5795" d="M56.5,160h-.057a21.663,21.663,0,0,0-5.9-.057.292.292,0,1,1-.115-.573,22.35,22.35,0,0,1,6.075.057.288.288,0,0,1-.057.573Z" transform="translate(-43.497 -135.178)" fill="#1460aa"/>
              <path id="Trazado_5796" data-name="Trazado 5796" d="M44.464,161.041a.288.288,0,0,1-.057-.573l.8-.172a.292.292,0,0,1,.115.573l-.8.172Z" transform="translate(-40.918 -135.649)" fill="#1460aa"/>
            </g>
          </g>
          <g id="Grupo_12097" data-name="Grupo 12097">
            <path id="Trazado_5797" data-name="Trazado 5797" d="M75.612,131.7H73.664A54.958,54.958,0,0,1,21.685,87.287a1.051,1.051,0,0,1,2.063-.4A53.179,53.179,0,1,0,36.184,41.555a1.035,1.035,0,1,1-1.547-1.375A54.9,54.9,0,1,1,75.67,131.7Z" transform="translate(-9.25 -9.405)" fill="#1460aa"/>
            <g id="Grupo_12090" data-name="Grupo 12090" transform="translate(0 40.058)">
              <ellipse id="Elipse_378" data-name="Elipse 378" cx="17.02" cy="17.02" rx="17.02" ry="17.02" transform="translate(0.86 0.86)" fill="#fff"/>
              <path id="Trazado_5798" data-name="Trazado 5798" d="M17.88,105.76A17.88,17.88,0,1,1,35.76,87.88,17.88,17.88,0,0,1,17.88,105.76Zm0-34.041A16.161,16.161,0,1,0,34.041,87.88,16.161,16.161,0,0,0,17.88,71.719Z" transform="translate(0 -70)" fill="#1460aa"/>
            </g>
            <path id="Trazado_5799" data-name="Trazado 5799" d="M79.181,129.714a49.858,49.858,0,0,1-48.6-38.626.709.709,0,0,1,1.375-.344A48.482,48.482,0,1,0,43.421,47.134a.709.709,0,1,1-1.032-.974,49.858,49.858,0,1,1,36.792,83.555Z" transform="translate(-13.048 -12.864)" fill="#1460aa"/>
            <path id="Trazado_5800" data-name="Trazado 5800" d="M48.685,62.487a.688.688,0,0,1-.516-1.146l.172-.229a.712.712,0,0,1,1.089.917l-.172.172a.688.688,0,0,1-.573.287Z" transform="translate(-20.49 -26.039)" fill="#1460aa"/>
            <g id="Grupo_12091" data-name="Grupo 12091" transform="translate(48.253)">
              <ellipse id="Elipse_379" data-name="Elipse 379" cx="17.02" cy="17.02" rx="17.02" ry="17.02" transform="translate(0.86 0.802)" fill="#fff"/>
              <path id="Trazado_5801" data-name="Trazado 5801" d="M102.08,35.86a17.88,17.88,0,1,1,17.88-17.88A17.88,17.88,0,0,1,102.08,35.86Zm0-34.041A16.161,16.161,0,1,0,118.241,17.98,16.161,16.161,0,0,0,102.08,1.819Z" transform="translate(-84.2 -0.1)" fill="#1460aa"/>
            </g>
            <g id="Grupo_12092" data-name="Grupo 12092" transform="translate(96.048 33.525)">
              <ellipse id="Elipse_380" data-name="Elipse 380" cx="17.02" cy="17.02" rx="17.02" ry="17.02" transform="translate(0.86 0.86)" fill="#fff"/>
              <path id="Trazado_5802" data-name="Trazado 5802" d="M185.48,94.36a17.88,17.88,0,1,1,17.88-17.88,17.88,17.88,0,0,1-17.88,17.88Zm0-34.041A16.161,16.161,0,1,0,201.641,76.48,16.161,16.161,0,0,0,185.48,60.319Z" transform="translate(-167.6 -58.6)" fill="#1460aa"/>
            </g>
            <path id="Trazado_5803" data-name="Trazado 5803" d="M38.806,62.189A1.032,1.032,0,0,1,38,60.47l.688-.745A1.057,1.057,0,1,1,40.3,61.1l-.688.745A1.032,1.032,0,0,1,38.806,62.189Z" transform="translate(-16.112 -25.398)" fill="#1460aa"/>
            <g id="Grupo_12093" data-name="Grupo 12093" transform="translate(5.158 41.719)" opacity="0.3">
              <path id="Trazado_5804" data-name="Trazado 5804" d="M37.94,88.831c0-7.679-6.762-15.932-15.932-15.932A16.161,16.161,0,0,0,9,79.2a13.392,13.392,0,0,1,8.768-2.923A16.619,16.619,0,0,1,34.387,92.9a15.76,15.76,0,0,1-2.98,9.112A16.027,16.027,0,0,0,37.94,88.831Z" transform="translate(-9 -72.898)" fill="#0094d4"/>
              <path id="Trazado_5805" data-name="Trazado 5805" d="M37.94,88.831c0-7.679-6.762-15.932-15.932-15.932A16.161,16.161,0,0,0,9,79.2a13.392,13.392,0,0,1,8.768-2.923A16.619,16.619,0,0,1,34.387,92.9a15.76,15.76,0,0,1-2.98,9.112A16.027,16.027,0,0,0,37.94,88.831Z" transform="translate(-9 -72.898)" fill="#0094d4"/>
            </g>
            <g id="Grupo_12094" data-name="Grupo 12094" transform="translate(52.781 0.703)" opacity="0.3">
              <path id="Trazado_5806" data-name="Trazado 5806" d="M122.53,18.1A16.619,16.619,0,0,0,92.1,8.7a16.619,16.619,0,0,1,23.554,22.809,16.619,16.619,0,0,0,6.877-13.41Z" transform="translate(-92.1 -1.326)" fill="#0094d4"/>
            </g>
            <g id="Grupo_12095" data-name="Grupo 12095" transform="translate(100.747 35.12)" opacity="0.3">
              <path id="Trazado_5807" data-name="Trazado 5807" d="M205.314,77.554A16.161,16.161,0,0,0,175.8,68.442a16.161,16.161,0,0,1,22.866,22.235A16.161,16.161,0,0,0,205.314,77.554Z" transform="translate(-175.8 -61.383)" fill="#0094d4"/>
            </g>
            <g id="Grupo_12096" data-name="Grupo 12096" transform="translate(58.11 14.098)">
              <path id="Trazado_5808" data-name="Trazado 5808" d="M101.4,35.653h6.418a3.4,3.4,0,0,0-3.209-3.553A3.364,3.364,0,0,0,101.4,35.653Z" transform="translate(-101.4 -27.859)" fill="#1460aa"/>
              <path id="Trazado_5809" data-name="Trazado 5809" d="M107.382,26.591a1.891,1.891,0,1,0-1.891,1.891,1.891,1.891,0,0,0,1.891-1.891Z" transform="translate(-102.339 -24.7)" fill="#1460aa"/>
              <path id="Trazado_5810" data-name="Trazado 5810" d="M114.758,33.617h7.565a.458.458,0,1,0,0-.917h-7.565a.458.458,0,1,0,0,.917Z" transform="translate(-106.907 -28.115)" fill="#0094d4"/>
              <path id="Trazado_5811" data-name="Trazado 5811" d="M114.758,30.017h7.565a.458.458,0,0,0,0-.917h-7.565a.458.458,0,1,0,0,.917Z" transform="translate(-106.907 -26.578)" fill="#0094d4"/>
              <path id="Trazado_5812" data-name="Trazado 5812" d="M114.758,37.517h7.565a.458.458,0,1,0,0-.917h-7.565a.458.458,0,1,0,0,.917Z" transform="translate(-106.907 -29.78)" fill="#0094d4"/>
            </g>
          </g>
          <g id="Grupo_12116" data-name="Grupo 12116" transform="translate(17.078 16.161)" clip-path="url(#clip-path)">
            <g id="Grupo_12115" data-name="Grupo 12115" transform="translate(30.254 24.667)">
              <g id="Grupo_12098" data-name="Grupo 12098" transform="translate(52.093 24.858)">
                <path id="Trazado_5813" data-name="Trazado 5813" d="M175.217,115.5a5.788,5.788,0,0,0-.917.974l.516,2.693a4.184,4.184,0,0,0,1.089-1.49A1.662,1.662,0,0,0,175.217,115.5Z" transform="translate(-173.837 -115.052)" fill="#fff"/>
                <path id="Trazado_5814" data-name="Trazado 5814" d="M174.414,119.235H174.3a.4.4,0,0,1-.287-.344L173.5,116.2a.4.4,0,0,1,.115-.344,6.189,6.189,0,0,1,1.032-1.032.4.4,0,0,1,.458-.057,2.063,2.063,0,0,1,.86,2.693,4.642,4.642,0,0,1-1.2,1.662Zm-.057-2.98.287,1.662a3.61,3.61,0,0,0,.458-.8,1.2,1.2,0,0,0-.229-1.433Z" transform="translate(-173.492 -114.718)" fill="#1460aa"/>
              </g>
              <g id="Grupo_12099" data-name="Grupo 12099" transform="translate(52.728 27.726)">
                <path id="Trazado_5815" data-name="Trazado 5815" d="M178.108,120.669c-1.089-.688-1.834-.172-2.808.974l.115,2.751A12.664,12.664,0,0,0,178.108,120.669Z" transform="translate(-174.899 -119.995)" fill="#fff"/>
                <path id="Trazado_5816" data-name="Trazado 5816" d="M175.116,124.524h-.172a.4.4,0,0,1-.229-.344l-.115-2.751a.4.4,0,0,1,.115-.287c.917-1.089,1.948-1.948,3.381-1.032a.4.4,0,0,1,.172.516,12.952,12.952,0,0,1-2.808,3.84Zm.287-3.037v1.662a13.067,13.067,0,0,0,1.777-2.579c-.458-.172-.974,0-1.777.974Z" transform="translate(-174.6 -119.724)" fill="#1460aa"/>
              </g>
              <g id="Grupo_12103" data-name="Grupo 12103" transform="translate(6.996 42.384)">
                <g id="Grupo_12100" data-name="Grupo 12100" opacity="0.3">
                  <path id="Trazado_5817" data-name="Trazado 5817" d="M97.092,181.06l9.972-.516,6.418-.344c-1.089-5.444-2.636-12.493-4.47-19.829,8.6,4.069,21.147,10.086,21.662,7.565s6.418-19.084,6.189-21.548l-5.673.917c0,4.069-1.719,15.015-2.98,16.619s-14.614-6.992-21.433-12.035c-.516-1.834-1.032-3.668-1.6-5.444,0,0-5.444.745-6.075-1.146l-4.3,35.015Z" transform="translate(-94.8 -145.3)" fill="#0094d4"/>
                </g>
                <g id="Grupo_12101" data-name="Grupo 12101" transform="translate(7.894 1.318)" opacity="0.3">
                  <path id="Trazado_5818" data-name="Trazado 5818" d="M110.48,171.841c.229,2.751.458,5.444.573,8.2h.057c1.948-.057,3.84-.115,5.788-.287l2.12-.115c-1.089-5.158-2.464-11.462-4.126-18.052,8.6,4.069,21.147,10.086,21.662,7.565s6.418-19.084,6.189-21.548l-2.579.4c.172,4.355-1.375,9.57-2.751,13.41s-3.152,5.788-6.82,4.986c-4.7-1.032-9.628-4.069-13.639-6.705-2.98-1.948-4.47-5.272-4.928-8.768l-.974-3.324a18.914,18.914,0,0,1-2.407.172c0,3.782-.287,8.138.287,11.748S110.079,167.715,110.48,171.841Z" transform="translate(-108.575 -147.6)" fill="#0094d4"/>
                </g>
                <g id="Grupo_12102" data-name="Grupo 12102" transform="translate(34.671 45.789)" opacity="0.3">
                  <path id="Trazado_5819" data-name="Trazado 5819" d="M155.3,225.544a2.063,2.063,0,0,0,1.261-.344Z" transform="translate(-155.3 -225.2)" fill="#0094d4"/>
                </g>
              </g>
              <g id="Grupo_12104" data-name="Grupo 12104" transform="translate(40.061 29.197)">
                <path id="Trazado_5820" data-name="Trazado 5820" d="M166.694,129.117c-.8-1.375-1.2-1.49-1.49-6.017-.458-.057-5.9,4.069-6.3,4.355-2.235,1.318-2.292-.115-2.12-1.662-.688-.229-.458-1.547-3.381,1.49-.057,2.292,1.433,4.757,3.5,6.992v3.668l4.069-.63-.287-2.751S164.975,131.982,166.694,129.117Z" transform="translate(-152.881 -122.636)" fill="#fff"/>
                <path id="Trazado_5821" data-name="Trazado 5821" d="M156.453,138l-.286-.115a.4.4,0,0,1-.172-.344v-3.553c-2.35-2.522-3.553-4.986-3.5-7.163a.4.4,0,0,1,.115-.287c2.235-2.35,2.923-2.464,3.61-1.777l.229.172a.4.4,0,0,1,.287.458q-.172,1.461.172,1.719c.229.172.344.172,1.375-.4l1.261-.917c4.413-3.209,4.986-3.553,5.33-3.5a.4.4,0,0,1,.344.4c.229,3.954.573,4.47,1.2,5.444l.229.4a.4.4,0,0,1,0,.458c-1.547,2.579-4.986,4.871-5.96,5.5l.229,2.464a.4.4,0,0,1-.344.458l-4.069.63Zm-3.095-10.946c0,2.407,1.834,4.871,3.381,6.533a.4.4,0,0,1,.115.287v3.209l3.209-.516-.229-2.35a.4.4,0,0,1,.229-.4c.057,0,4.012-2.407,5.731-5.1l-.115-.172c-.688-1.032-1.032-1.6-1.261-5.215-1.032.63-3.324,2.292-4.413,3.095l-1.318.974c-.63.4-1.547.86-2.235.4s-.63-1.318-.573-2.235l-.229-.172c-.115-.057-.344-.287-2.235,1.719ZM164.82,123.1" transform="translate(-152.497 -122.29)" fill="#1460aa"/>
              </g>
              <g id="Grupo_12105" data-name="Grupo 12105" transform="translate(42.515 22.364)">
                <rect id="Rectángulo_1280" data-name="Rectángulo 1280" width="10.086" height="16.493" rx="1.948" transform="matrix(0.994, -0.106, 0.106, 0.994, 0.22, 1.288)" fill="#007cad"/>
                <path id="Trazado_5822" data-name="Trazado 5822" d="M160.458,128.266a2.407,2.407,0,0,1-2.35-2.12l-1.318-12.493a2.407,2.407,0,0,1,2.12-2.636l6.132-.63a2.35,2.35,0,0,1,2.636,2.12L169,125h0a2.407,2.407,0,0,1-2.12,2.636l-6.132.63Zm4.814-17.078H165.1l-6.132.688a1.547,1.547,0,0,0-1.375,1.719l1.318,12.493a1.547,1.547,0,0,0,1.719,1.375l6.132-.63a1.547,1.547,0,0,0,1.375-1.719h0l-1.318-12.493a1.547,1.547,0,0,0-1.547-1.375Z" transform="translate(-156.778 -110.367)" fill="#1460aa"/>
              </g>
              <g id="Grupo_12106" data-name="Grupo 12106" transform="translate(44.179 24.838)">
                <path id="Trazado_5823" data-name="Trazado 5823" d="M167.541,116.352a1.433,1.433,0,0,0-1.6-1.261l-4.585.516a1.433,1.433,0,0,0-1.261,1.6l1.146,10.6,7.45-.8Z" transform="translate(-159.852 -114.852)" fill="#fff"/>
                <path id="Trazado_5824" data-name="Trazado 5824" d="M161.068,127.816a.229.229,0,0,1-.229-.172l-1.146-10.6a1.662,1.662,0,0,1,1.49-1.834l4.585-.516a1.662,1.662,0,0,1,1.834,1.49h0l1.146,10.6a.229.229,0,0,1-.057.172h-.115l-7.45.8Zm4.871-12.722h-.115l-4.585.516a1.261,1.261,0,0,0-1.089,1.375l1.089,10.43,7.049-.745L167.2,116.24a1.261,1.261,0,0,0-1.261-1.146Z" transform="translate(-159.683 -114.683)" fill="#1460aa"/>
              </g>
              <g id="Grupo_12107" data-name="Grupo 12107" transform="translate(40.092 28.411)">
                <path id="Trazado_5825" data-name="Trazado 5825" d="M156.051,127.589c1.146-2.063,2.751-3.725,2.751-4.413a5.166,5.166,0,0,0-.573-1.777,64.017,64.017,0,0,0-4.928,5.1" transform="translate(-152.87 -121.124)" fill="#fff"/>
                <path id="Trazado_5826" data-name="Trazado 5826" d="M155.731,127.842H155.5a.4.4,0,0,1-.172-.573,26.469,26.469,0,0,1,1.719-2.579,6.878,6.878,0,0,0,1.032-1.6,2.808,2.808,0,0,0-.172-1.146,60.121,60.121,0,0,0-4.585,4.757.43.43,0,1,1-.688-.516,65.16,65.16,0,0,1,4.986-5.158.4.4,0,0,1,.458-.057c.115.057.8.516.8,2.12,0,.458-.4,1.032-1.2,2.12a25.448,25.448,0,0,0-1.662,2.522.4.4,0,0,1-.287.115Z" transform="translate(-152.55 -120.918)" fill="#1460aa"/>
              </g>
              <path id="Trazado_5827" data-name="Trazado 5827" d="M168.469,121.2l-2.522,3.037-1.547-1.777.516-.458.974.917,2.178-2.12Z" transform="translate(-117.517 -92.457)" fill="#0094d4"/>
              <path id="Trazado_5828" data-name="Trazado 5828" d="M137.752,169.889c-3.267,0-9.857-3.037-18.682-7.278l-1.891-.917a.7.7,0,0,1,.63-1.261l1.891.917c4.069,1.948,8.654,4.183,12.436,5.616,5.9,2.292,6.418,1.375,6.418,1.375.688-1.318,5.5-16.333,6.075-20.4l-4.241.688c-.172,4.355-1.719,14.671-3.095,16.447s-4.757,1.146-22.407-11.92a.716.716,0,1,1,.86-1.146c18.51,13.7,20.344,12.379,20.459,12.207,1.089-1.375,2.751-11.92,2.808-16.218a.688.688,0,0,1,.573-.688l5.673-.917a.688.688,0,0,1,.8.63c.229,2.693-5.387,20.23-6.247,21.949A2.121,2.121,0,0,1,137.752,169.889Z" transform="translate(-96.257 -103.379)" fill="#1460aa"/>
              <g id="Grupo_12108" data-name="Grupo 12108" transform="translate(50.55 34.293)">
                <path id="Trazado_5829" data-name="Trazado 5829" d="M174.824,133.847c.8-.458.573-2.006.057-1.948l-3.381.458C171.557,133.332,172.589,133.962,174.824,133.847Z" transform="translate(-171.099 -131.487)" fill="#fff"/>
                <path id="Trazado_5830" data-name="Trazado 5830" d="M173.895,134a3.725,3.725,0,0,1-2.579-.745,1.662,1.662,0,0,1-.516-1.2.4.4,0,0,1,.344-.4l3.381-.458c.287-.057.63.115.8.63a1.834,1.834,0,0,1-.63,2.063h-.8Zm.573-.458ZM171.66,132.4l.172.229a3.425,3.425,0,0,0,2.464.516.8.8,0,0,0,.229-.516,1.2,1.2,0,0,0-.057-.63Z" transform="translate(-170.8 -131.182)" fill="#1460aa"/>
              </g>
              <g id="Grupo_12109" data-name="Grupo 12109" transform="translate(50.644 31.835)">
                <path id="Trazado_5831" data-name="Trazado 5831" d="M174.163,127.4a6.591,6.591,0,0,0-2.407.458c-.344,1.777.86,1.433,2.923,1.6C175.2,129.52,175.654,127.4,174.163,127.4Z" transform="translate(-171.277 -127.11)" fill="#fff"/>
                <path id="Trazado_5832" data-name="Trazado 5832" d="M174.365,129.648h-1.089c-.974-.057-1.662-.115-2.063-.573a1.777,1.777,0,0,1-.172-1.433.4.4,0,0,1,.229-.287,6.991,6.991,0,0,1,2.579-.458h0a1.318,1.318,0,0,1,1.261.688,1.948,1.948,0,0,1-.115,1.834A.8.8,0,0,1,174.365,129.648Zm-2.579-1.719a.8.8,0,0,0,.057.573c.172.229.745.229,1.433.287h.974a1.2,1.2,0,0,0,.115-.917.516.516,0,0,0-.516-.344h0A6.476,6.476,0,0,0,171.786,127.929Z" transform="translate(-170.963 -126.893)" fill="#1460aa"/>
              </g>
              <path id="Trazado_5833" data-name="Trazado 5833" d="M114.693,183.087h-.229l-18.51-6.132a.688.688,0,0,1-.458-.745l3.324-31.29a.693.693,0,1,1,1.375-.172c.287.8,3.037.974,5.33.688a.688.688,0,0,1,.745.516c6.132,20.344,9.169,36.161,9.227,36.333a.688.688,0,0,1-.688.8Zm-17.765-7.278,16.906,5.559c-.8-3.954-3.725-17.594-8.768-34.442a10.865,10.865,0,0,1-4.986-.458Z" transform="translate(-88.098 -102.421)" fill="#1460aa"/>
              <g id="Grupo_12110" data-name="Grupo 12110" transform="translate(3.589 8.607)">
                <path id="Trazado_5834" data-name="Trazado 5834" d="M97.909,122.329,90,92.528,109.37,87.6a40.536,40.536,0,0,1,4.757,9.341c.115.287-2.235.115-2.178.4,2.063,6.934,3.725,15.53-.115,17.25-6.648,2.98-9.57,2.292-9.57,2.292l.458,5.158Z" transform="translate(-89.344 -86.891)" fill="#fff"/>
                <path id="Trazado_5835" data-name="Trazado 5835" d="M97.419,122.488a.688.688,0,0,1-.688-.516l-7.851-29.8a.688.688,0,0,1,.516-.86l19.37-4.928a.688.688,0,0,1,.745.287,39.714,39.714,0,0,1,4.871,9.513.8.8,0,0,1-.115.63c-.287.4-.745.4-1.6.458h-.229c2.923,10.029,2.636,15.874-.745,17.364-4.757,2.12-7.679,2.407-9.112,2.407l.4,4.3a.688.688,0,0,1-.63.745l-4.871.287ZM90.371,92.516l7.565,28.539,3.553-.229-.4-4.413a.688.688,0,0,1,.86-.745s2.865.573,9.112-2.235c2.636-1.2,2.579-6.992-.229-16.39a.8.8,0,0,1,.115-.63c.287-.4.745-.4,1.6-.458h.172a40.116,40.116,0,0,0-4.126-8.023Z" transform="translate(-88.855 -86.362)" fill="#1460aa"/>
              </g>
              <g id="Grupo_12111" data-name="Grupo 12111" transform="translate(9.231 11.666)" opacity="0.2" style="mix-blend-mode: multiply;isolation: isolate">
                <path id="Trazado_5836" data-name="Trazado 5836" d="M98.815,91.872,98.7,91.7Z" transform="translate(-98.7 -91.7)" fill="#001f45"/>
              </g>
              <g id="Grupo_12112" data-name="Grupo 12112">
                <path id="Trazado_5837" data-name="Trazado 5837" d="M90.719,102.648c-.057-.344-13.123-18.281-4.3-22.121,0,0-.688-8.768,7.335-8.08s16.333,3.095,18.625-.287c.573-.86,4.241,8.768-8.367,11.576S93.584,85,93.584,85L98.4,93.822l-2.063,2.292s-.86-4.871-2.865-2.693,1.375,5.158,1.375,5.158l-2.292,7.737Z" transform="translate(-82.92 -71.668)" fill="#1460aa"/>
                <path id="Trazado_5838" data-name="Trazado 5838" d="M92.224,106.391a.4.4,0,0,1-.4-.229l-1.834-3.668h0l-.4-.63c-5.616-8.6-7.851-14.9-6.705-18.74a5.1,5.1,0,0,1,2.751-3.209c-.057-1.032.057-4.413,2.178-6.533s3.267-1.891,5.616-1.719,4.069.458,6.075.745c5.673.8,10.6,1.49,12.149-.8a.516.516,0,0,1,.63-.229c.63.229,1.2,1.948,1.089,3.668s-1.547,6.992-9.628,8.768a61.851,61.851,0,0,1-9.57,1.719l4.241,7.794a.4.4,0,0,1-.057.458l-2.063,2.292a.4.4,0,0,1-.745-.229c-.172-1.089-.745-2.693-1.375-2.923s-.458.057-.745.4a1.777,1.777,0,0,0-.516,1.375c.057,1.547,1.834,3.152,1.834,3.152a.4.4,0,0,1,.115.458l-2.292,7.737a.4.4,0,0,1-.344.287Zm-1.433-4.241,1.375,2.693,1.891-6.476a6.509,6.509,0,0,1-1.948-3.553,2.636,2.636,0,0,1,.745-1.948,1.547,1.547,0,0,1,1.6-.63c.974.287,1.547,1.777,1.777,2.751l1.318-1.49-4.413-8.023a.573.573,0,0,1-.458-.344.63.63,0,0,1,.287-.745h.344a.4.4,0,0,1,.287.229l.115.229c.745.057,3.037-.172,9.857-1.719s8.2-4.527,8.768-6.82a6.246,6.246,0,0,0-.229-3.9c-2.006,2.35-6.992,1.662-12.722.86-1.948-.287-4.012-.573-6.017-.745a6.107,6.107,0,0,0-4.986,1.49c-2.235,2.235-1.948,6.132-1.948,6.189a.4.4,0,0,1-.229.4,4.3,4.3,0,0,0-2.522,2.808c-.745,2.464-.172,7.565,6.59,18.052Z" transform="translate(-82.592 -71.342)" fill="#1460aa"/>
              </g>
              <g id="Grupo_12113" data-name="Grupo 12113" transform="translate(18.149 21.874)">
                <path id="Trazado_5839" data-name="Trazado 5839" d="M119.758,113.4a5.1,5.1,0,0,1-4.642-3.381.287.287,0,0,0-.516.172,5.7,5.7,0,0,0,5.1,3.725h.344a5.935,5.935,0,0,0,3.9-1.146c.573-.458-.115-.458-.115-.63A6.878,6.878,0,0,1,119.758,113.4Z" transform="translate(-114.406 -109.677)" fill="#1460aa"/>
                <path id="Trazado_5840" data-name="Trazado 5840" d="M119.9,114.032h-.287a6.05,6.05,0,0,1-5.33-3.9.48.48,0,1,1,.917-.287,4.871,4.871,0,0,0,4.413,3.209h0c2.579.057,3.668-.86,3.954-1.146l.287-.287v.688a2.75,2.75,0,0,1,.057.4v.115h-.057a6.265,6.265,0,0,1-4.069,1.2Zm-5.215-4.012a5.585,5.585,0,0,0,4.928,3.61h.344a5.96,5.96,0,0,0,3.725-1.032v-.115a6.008,6.008,0,0,1-4.012,1.032,5.33,5.33,0,0,1-4.814-3.5H114.8l-.229.172Z" transform="translate(-114.262 -109.512)" fill="#1460aa"/>
              </g>
              <path id="Trazado_5841" data-name="Trazado 5841" d="M105.978,187.4a.688.688,0,0,1-.688-.573,157.554,157.554,0,0,1-1.547-19.427c-.115-2.407-.229-4.871-.344-7.335a.688.688,0,0,1,1.375-.057c.172,2.464.229,4.986.344,7.393a181.454,181.454,0,0,0,1.547,19.313.688.688,0,0,1-.573.8Z" transform="translate(-91.475 -108.914)" fill="#1460aa"/>
              <path id="Trazado_5842" data-name="Trazado 5842" d="M116.662,186.548a.688.688,0,0,1-.688-.573l-.86-4.126c-1.261-6.132-2.579-12.493-3.324-18.912-.287-1.146-.573-2.522-.8-3.668a.7.7,0,1,1,1.375-.287c.229,1.2.516,2.579.8,3.668v.115a185.063,185.063,0,0,0,3.324,18.854l.86,4.126a.688.688,0,0,1-.573.8Z" transform="translate(-94.709 -108.519)" fill="#1460aa"/>
              <g id="Grupo_12114" data-name="Grupo 12114" transform="translate(9.153 41.388)">
                <path id="Trazado_5843" data-name="Trazado 5843" d="M100.774,144.6a25.093,25.093,0,0,0-.974,4.183c-.057.229,9.456,2.235,9.456,2.235l-.974-4.814Z" transform="translate(-99.091 -144.005)" fill="#0094d4"/>
                <path id="Trazado_5844" data-name="Trazado 5844" d="M108.728,151.32h-.115c-10.143-2.063-10.143-2.178-10.029-2.98s.573-3.725,1.089-4.47a.688.688,0,0,1,.745-.287l7.507,1.6a.688.688,0,0,1,.516.516l.974,4.814a.688.688,0,0,1-.688.86Zm-8.711-3.381c1.261.344,4.871,1.146,7.794,1.777l-.688-3.324-6.476-1.433C100.476,145.647,100.189,146.908,100.017,147.939Zm-.057.516Z" transform="translate(-98.563 -143.562)" fill="#1460aa"/>
              </g>
              <ellipse id="Elipse_381" data-name="Elipse 381" cx="0.63" cy="1.089" rx="0.63" ry="1.089" transform="translate(17.903 16.864) rotate(-16.1)" fill="#1460aa"/>
            </g>
          </g>
          <g id="Grupo_12117" data-name="Grupo 12117" transform="translate(89.4 70.202)" opacity="0.3">
            <path id="Trazado_5846" data-name="Trazado 5846" d="M160.126,133.488a2.522,2.522,0,0,1-2.006-1.089c-.573-.745-.458-2.98-.688-3.9,0,0-.057.115-.344.057s-.172-.115-.287-.287.573-1.2.745-1.433c1.433-2.464,2.636-2.693,1.777-4.241l-.573.573a1.261,1.261,0,0,1-.172,1.49L156,128.1s1.032,2.865,1.2,3.553,1.49,2.751,2.693,2.522l.516,2.464,1.146-.172-.115-1.834a.86.86,0,0,1,.4-.8l.974-.63A20.579,20.579,0,0,1,160.126,133.488Z" transform="translate(-156 -122.6)" fill="#0094d4"/>
          </g>
          <path id="Trazado_5847" data-name="Trazado 5847" d="M114.81,18.3A2.292,2.292,0,0,1,117.1,20.6v9.227a2.292,2.292,0,0,1-2.292,2.292H99.738a2.292,2.292,0,0,1-2.292-2.292V20.538a2.292,2.292,0,0,1,2.292-2.292H114.81m0-1.146H99.738A3.438,3.438,0,0,0,96.3,20.538v9.284a3.438,3.438,0,0,0,3.438,3.438H114.81a3.438,3.438,0,0,0,3.438-3.438V20.538A3.438,3.438,0,0,0,114.81,17.1Z" transform="translate(-41.112 -7.358)" fill="#1460aa"/>
          <path id="Trazado_5848" data-name="Trazado 5848" d="M30.61,88.246A2.292,2.292,0,0,1,32.9,90.538v9.284a2.292,2.292,0,0,1-2.292,2.292H15.538a2.292,2.292,0,0,1-2.292-2.292V90.538a2.292,2.292,0,0,1,2.292-2.292H30.61m0-1.146H15.538A3.438,3.438,0,0,0,12.1,90.538v9.284a3.438,3.438,0,0,0,3.438,3.438H30.61a3.438,3.438,0,0,0,3.438-3.438V90.538A3.438,3.438,0,0,0,30.61,87.1Z" transform="translate(-5.166 -37.242)" fill="#1460aa"/>
          <g id="Grupo_12123" data-name="Grupo 12123" transform="translate(10.097 53.411)">
            <path id="Trazado_5849" data-name="Trazado 5849" d="M18.558,101.178H32.083l.458-.573V94.187l-.8-.287-10.717.057-2.35,2.636V99.86l-.573.4Z" transform="translate(-17.824 -93.556)" fill="#51b7d6"/>
            <ellipse id="Elipse_382" data-name="Elipse 382" cx="1.547" cy="1.547" rx="1.547" ry="1.547" transform="translate(2.683 6.075)" fill="#81d5f2"/>
            <ellipse id="Elipse_383" data-name="Elipse 383" cx="1.547" cy="1.547" rx="1.547" ry="1.547" transform="translate(9.56 6.075)" fill="#81d5f2"/>
            <g id="Grupo_12122" data-name="Grupo 12122">
              <path id="Trazado_5850" data-name="Trazado 5850" d="M30.888,106H29.112l-.229.115a.344.344,0,0,0,.229.63h1.777l.287-.115a.344.344,0,0,0,.115-.287h0a.344.344,0,0,0-.4-.344Z" transform="translate(-22.36 -98.718)" fill="#1460aa"/>
              <path id="Trazado_5851" data-name="Trazado 5851" d="M32.393,93.586h0a1.032,1.032,0,0,0-.745-.287h-10.2a1.834,1.834,0,0,0-1.261.516L18.7,95.363a1.948,1.948,0,0,0-.573,1.375v2.579a1.089,1.089,0,0,0,.516,2.006h.573l.229-.115a.365.365,0,0,0-.229-.63H18.64a.365.365,0,0,1-.287-.573l.287-.115h.229V96.681a1.261,1.261,0,0,1,.344-.86l1.433-1.547a1.089,1.089,0,0,1,.8-.344h10.2l.229.115a.344.344,0,0,1,.115.229V100a.573.573,0,0,1-.573.573H31.19l-.229.115a.344.344,0,0,0,.229.63h.229A1.261,1.261,0,0,0,32.737,100V94.331a1.032,1.032,0,0,0-.344-.745Z" transform="translate(-17.619 -93.299)" fill="#1460aa"/>
              <g id="Grupo_12118" data-name="Grupo 12118" transform="translate(11.336 1.376)">
                <path id="Trazado_5852" data-name="Trazado 5852" d="M37.8,97.934V96.1h1.777l.057,1.834H37.8Z" transform="translate(-37.571 -95.871)" fill="#fff"/>
                <path id="Trazado_5853" data-name="Trazado 5853" d="M39.234,96.158v1.375H37.858V96.158h1.375m.229-.458H37.629a.229.229,0,0,0-.229.229v1.834a.229.229,0,0,0,.229.229h1.834a.229.229,0,0,0,.229-.229V95.929a.229.229,0,0,0-.229-.229Z" transform="translate(-37.4 -95.7)" fill="#1460aa"/>
              </g>
              <g id="Grupo_12119" data-name="Grupo 12119" transform="translate(1.936 1.376)">
                <path id="Trazado_5854" data-name="Trazado 5854" d="M21.4,97.977v-.229a.229.229,0,0,1,.057-.172L22.832,96.2h1.261v1.834H21.4Z" transform="translate(-21.169 -95.913)" fill="#fff"/>
                <path id="Trazado_5855" data-name="Trazado 5855" d="M23.75,96.158v1.375H21.457l1.375-1.375h.917m.229-.458H22.833l-.344.115L21.113,97.19a.458.458,0,0,0-.115.344v.229a.229.229,0,0,0,.229.229h2.751a.229.229,0,0,0,.229-.229V95.929A.229.229,0,0,0,23.979,95.7Z" transform="translate(-20.997 -95.7)" fill="#1460aa"/>
              </g>
              <g id="Grupo_12120" data-name="Grupo 12120" transform="translate(8.528 1.376)">
                <path id="Trazado_5856" data-name="Trazado 5856" d="M32.9,97.934V96.1h1.777l.057,1.834H32.9Z" transform="translate(-32.671 -95.871)" fill="#fff"/>
                <path id="Trazado_5857" data-name="Trazado 5857" d="M34.334,96.158v1.375H32.958V96.158h1.375m.229-.458H32.729a.229.229,0,0,0-.229.229v1.834a.229.229,0,0,0,.229.229h1.777a.229.229,0,0,0,.229-.229V95.929a.229.229,0,0,0-.229-.229Z" transform="translate(-32.5 -95.7)" fill="#1460aa"/>
              </g>
              <g id="Grupo_12121" data-name="Grupo 12121" transform="translate(5.663 1.376)">
                <path id="Trazado_5858" data-name="Trazado 5858" d="M27.9,97.934V96.1h1.834v1.834H27.9Z" transform="translate(-27.671 -95.871)" fill="#fff"/>
                <path id="Trazado_5859" data-name="Trazado 5859" d="M29.334,96.158v1.375H27.958V96.158h1.375m.229-.458H27.729a.229.229,0,0,0-.229.229v1.834a.229.229,0,0,0,.229.229h1.834a.229.229,0,0,0,.229-.229V95.929A.229.229,0,0,0,29.563,95.7Z" transform="translate(-27.5 -95.7)" fill="#1460aa"/>
              </g>
              <path id="Trazado_5860" data-name="Trazado 5860" d="M23.448,103.2a1.948,1.948,0,1,0,1.948,1.948A1.948,1.948,0,0,0,23.448,103.2Zm0,3.267a1.318,1.318,0,1,1,1.318-1.318A1.318,1.318,0,0,1,23.448,106.467Z" transform="translate(-19.276 -97.526)" fill="#1460aa"/>
              <path id="Trazado_5861" data-name="Trazado 5861" d="M37.513,104.862a1.948,1.948,0,1,0-1.948,2.235h.287a1.948,1.948,0,0,0,1.662-2.235Zm-.917,1.089a1.318,1.318,0,1,1-1.261-2.12h.229a1.318,1.318,0,0,1,1.318,1.146h0a1.318,1.318,0,0,1-.287.974Z" transform="translate(-24.457 -97.526)" fill="#1460aa"/>
            </g>
          </g>
          <g id="Grupo_12130" data-name="Grupo 12130" transform="translate(106.955 36.734)">
            <g id="Grupo_12127" data-name="Grupo 12127" transform="translate(0 4.108)">
              <path id="Trazado_5862" data-name="Trazado 5862" d="M197.573,104.488h-.287a.3.3,0,0,1,.287-.516h.115a.292.292,0,0,1-.115.573Z" transform="translate(-191.116 -85.272)" fill="#1961a9"/>
              <path id="Trazado_5863" data-name="Trazado 5863" d="M200.688,102.439a5.673,5.673,0,0,1-1.547-.229.3.3,0,1,1,.172-.573,5.5,5.5,0,0,0,3.438-.172,5.158,5.158,0,0,0,3.267-3.324.3.3,0,0,1,.573.172,5.731,5.731,0,0,1-3.61,3.725,6.3,6.3,0,0,1-2.292.4Z" transform="translate(-191.882 -82.708)" fill="#1961a9"/>
              <path id="Trazado_5864" data-name="Trazado 5864" d="M195.434,108.227h-.115l-.458-.229a.359.359,0,0,1,.344-.63l.458.229a.349.349,0,0,1-.115.688Z" transform="translate(-190.065 -86.719)" fill="#1961a9"/>
              <path id="Trazado_5865" data-name="Trazado 5865" d="M200.5,105.422h-1.032a.345.345,0,0,1,.057-.688,8.6,8.6,0,0,0,4.012-.516,8.08,8.08,0,0,0,4.814-4.642.344.344,0,1,1,.63.229,8.825,8.825,0,0,1-5.215,5.043,9.456,9.456,0,0,1-3.267.573Z" transform="translate(-191.976 -83.283)" fill="#1961a9"/>
              <g id="Grupo_12124" data-name="Grupo 12124" transform="translate(4.09 0.405)" opacity="0.3">
                <path id="Trazado_5866" data-name="Trazado 5866" d="M204.561,79.941c-1.318-.4-2.636-2.751-3.553-4.527l-.115-.172a5.788,5.788,0,0,0-5.559-3.152,5.329,5.329,0,0,0-1.375.344c-.573,1.719.287,4.126.8,5.673s1.547,2.808,1.375,4.47A4.585,4.585,0,0,0,197,86.13l.745.8h.287l9.112-3.438v-.573A3.324,3.324,0,0,0,204.561,79.941Z" transform="translate(-193.769 -72.076)" fill="#1393ce"/>
                <path id="Trazado_5867" data-name="Trazado 5867" d="M204.561,79.941c-1.318-.4-2.636-2.751-3.553-4.527l-.115-.172a5.788,5.788,0,0,0-5.559-3.152,5.329,5.329,0,0,0-1.375.344c-.573,1.719.287,4.126.8,5.673s1.547,2.808,1.375,4.47A4.585,4.585,0,0,0,197,86.13l.745.8h.287l9.112-3.438v-.573A3.324,3.324,0,0,0,204.561,79.941Z" transform="translate(-193.769 -72.076)" fill="#1393ce"/>
                <path id="Trazado_5868" data-name="Trazado 5868" d="M201.9,97.218c.229.86,1.2,1.719,2.006,1.49a3.209,3.209,0,0,0,1.547-2.808h0l-3.381,1.261Z" transform="translate(-197.24 -82.247)" fill="#1393ce"/>
              </g>
              <g id="Grupo_12125" data-name="Grupo 12125" transform="translate(5.082 0.634)" opacity="0.3">
                <path id="Trazado_5869" data-name="Trazado 5869" d="M205.128,80.341c-1.318-.4-2.636-2.751-3.553-4.527l-.115-.172A5.788,5.788,0,0,0,195.9,72.49h-.4a11.633,11.633,0,0,1,3.209,2.292,23.662,23.662,0,0,1,2.808,4.241c.917,1.49,2.636,2.12,3.438,3.782a7.049,7.049,0,0,1,.63,1.891l2.178-.8v-.63a3.324,3.324,0,0,0-2.636-2.923Z" transform="translate(-195.5 -72.476)" fill="#1393ce"/>
                <path id="Trazado_5870" data-name="Trazado 5870" d="M206.32,95.8l-1.261.458a2.235,2.235,0,0,1-.86,2.579h.172a3.037,3.037,0,0,0,1.948-2.98Z" transform="translate(-199.214 -82.433)" fill="#1393ce"/>
              </g>
              <g id="Grupo_12126" data-name="Grupo 12126">
                <path id="Trazado_5871" data-name="Trazado 5871" d="M188.426,89.683l-.287-.115-.4-.516a3.668,3.668,0,0,1-.115-4.3c.688-1.032.057-3.725-.344-5.5v-.172a6.132,6.132,0,0,1,2.292-6.361,6.361,6.361,0,0,1,2.808-1.032,6.132,6.132,0,0,1,5.9,3.324l.115.172c.86,1.6,2.178,4.012,3.381,4.355h0a3.668,3.668,0,0,1,2.751,3.267v.688a.344.344,0,0,1-.229.344l-15.76,5.788Zm4.47-17.364h-.458a5.616,5.616,0,0,0-2.464.917,5.444,5.444,0,0,0-2.006,5.673v.172c.458,2.12,1.089,4.757.229,6.017a2.923,2.923,0,0,0,.057,3.438l.287.344,15.244-5.731v-.4a2.923,2.923,0,0,0-2.235-2.636h0c-1.49-.4-2.751-2.751-3.782-4.7l-.115-.172a5.5,5.5,0,0,0-4.757-2.923Z" transform="translate(-186.782 -71.498)" fill="#1961a9"/>
                <path id="Trazado_5872" data-name="Trazado 5872" d="M188.276,89.783a.573.573,0,0,1-.458-.229l-.4-.516a3.9,3.9,0,0,1-.115-4.527c.63-.974,0-3.668-.344-5.272v-.172a6.361,6.361,0,0,1,2.35-6.59,6.59,6.59,0,0,1,2.923-1.089,6.361,6.361,0,0,1,6.132,3.438l.115.172c.8,1.49,2.12,3.9,3.209,4.241a3.9,3.9,0,0,1,2.923,3.381v.688a.573.573,0,0,1-.4.573l-15.76,5.9ZM192.8,71.731h-.516a6.075,6.075,0,0,0-2.693,1.032,5.9,5.9,0,0,0-2.178,6.132v.172c.458,1.891,1.032,4.527.287,5.673a3.439,3.439,0,0,0,.057,4.012l.4.516h.115l15.76-5.9v-.745a3.438,3.438,0,0,0-2.579-3.095c-1.318-.344-2.579-2.693-3.5-4.47l-.115-.172A5.96,5.96,0,0,0,192.8,71.731Zm-4.47,17.307-.344-.458a3.152,3.152,0,0,1-.057-3.725c.8-1.2.229-3.782-.229-5.845v-.172a5.673,5.673,0,0,1,2.006-5.9,5.9,5.9,0,0,1,2.579-.974A5.673,5.673,0,0,1,197.732,75l.115.172c1.032,1.834,2.235,4.183,3.668,4.585a3.152,3.152,0,0,1,2.407,2.865v.573h-.172Zm4.413-16.619h-.458a5.387,5.387,0,0,0-2.35.86,5.215,5.215,0,0,0-1.948,5.444v.172c.458,2.12,1.089,4.814.172,6.189a2.693,2.693,0,0,0,.057,3.209l.172.172,15.072-5.559v-.287a2.693,2.693,0,0,0-2.063-2.407c-1.6-.458-2.865-2.865-3.954-4.814l-.115-.172a5.272,5.272,0,0,0-4.585-2.808Z" transform="translate(-186.632 -71.369)" fill="#1961a9"/>
              </g>
              <path id="Trazado_5873" data-name="Trazado 5873" d="M200.768,99.075a3.381,3.381,0,0,1-2.636-1.261.344.344,0,0,1,.057-.516h0a.344.344,0,0,1,.516.057h.057a2.693,2.693,0,0,0,4.7-1.834.345.345,0,1,1,.688-.057,3.381,3.381,0,0,1-3.381,3.553Z" transform="translate(-191.503 -81.521)" fill="#1961a9"/>
              <path id="Trazado_5874" data-name="Trazado 5874" d="M202.34,84.769a.292.292,0,0,1-.115-.573l3.84-1.433a.287.287,0,1,1,.229.516l-3.84,1.433Z" transform="translate(-193.189 -76.213)" fill="#1961a9"/>
              <path id="Trazado_5875" data-name="Trazado 5875" d="M199.9,89.358a.349.349,0,0,1-.115-.688l.4-.172a.344.344,0,0,1,.229.63l-.4.172Z" transform="translate(-192.122 -78.681)" fill="#1961a9"/>
              <path id="Trazado_5876" data-name="Trazado 5876" d="M202.1,87.2a.349.349,0,1,1-.115-.688l5.158-1.948a.344.344,0,1,1,.229.63l-5.158,1.948Z" transform="translate(-193.062 -76.977)" fill="#1961a9"/>
            </g>
            <g id="Grupo_12129" data-name="Grupo 12129" transform="translate(4.967)">
              <g id="Grupo_12128" data-name="Grupo 12128">
                <ellipse id="Elipse_384" data-name="Elipse 384" cx="3.381" cy="3.381" rx="3.381" ry="3.381" transform="translate(0.401 0.458)" fill="#51b7d6"/>
                <path id="Trazado_5877" data-name="Trazado 5877" d="M199.082,71.765a3.782,3.782,0,1,1,3.782-3.782A3.782,3.782,0,0,1,199.082,71.765Zm0-6.82a3.037,3.037,0,1,0,3.037,3.037A3.037,3.037,0,0,0,199.082,64.945Z" transform="translate(-195.3 -64.2)" fill="#1961a9"/>
              </g>
              <path id="Trazado_5878" data-name="Trazado 5878" d="M200.459,69.06h.458a.516.516,0,0,0,.4-.172.573.573,0,0,0,.115-.4.43.43,0,0,0-.516-.516l-.344.115a.4.4,0,0,0-.172.344h-.745a.86.86,0,0,1,.344-.745,1.376,1.376,0,0,1,.917-.287,1.49,1.49,0,0,1,.974.287.974.974,0,0,1,.344.8.8.8,0,0,1-.172.458,1.089,1.089,0,0,1-.458.344.974.974,0,0,1,.516.344.917.917,0,0,1,.172.573,1.031,1.031,0,0,1-.4.86,1.547,1.547,0,0,1-.974.287,1.49,1.49,0,0,1-.917-.287.917.917,0,0,1-.4-.8h.745a.459.459,0,0,0,.172.344.554.554,0,0,0,.8,0,.516.516,0,0,0,.172-.4.573.573,0,0,0-.172-.458.63.63,0,0,0-.458-.115H200.4Z" transform="translate(-197.135 -65.564)" fill="#fff"/>
            </g>
          </g>
        </g>
      </g>
    </g>
  </g>
</svg>
