<svg xmlns="http://www.w3.org/2000/svg" xmlns:xlink="http://www.w3.org/1999/xlink" width="184.107" height="182.173" viewBox="0 0 184.107 182.173">
  <defs>
    <clipPath id="clip-path">
      <ellipse id="Elipse_404" data-name="Elipse 404" cx="82.564" cy="81.679" rx="82.564" ry="81.679" fill="none"/>
    </clipPath>
  </defs>
  <g id="onboarding3" transform="translate(92.054 91.086)">
    <g id="onboarding3-2" data-name="onboarding3" transform="translate(-90.272 -89.305)">
      <path id="Trazado_6104" data-name="Trazado 6104" d="M183.944,92.7c0,49.322-40.416,89.3-90.272,89.3S3.4,142.026,3.4,92.7,43.816,3.4,93.672,3.4a90.457,90.457,0,0,1,73.271,37.132" transform="translate(-3.4 -3.4)" fill="none" stroke="#1460aa" stroke-linecap="round" stroke-linejoin="round" stroke-width="3.563"/>
      <path id="Trazado_6105" data-name="Trazado 6105" d="M343.3,134.353q.352,1.467.654,2.952" transform="translate(-165.19 -65.732)" fill="none" stroke="#1460aa" stroke-linecap="round" stroke-linejoin="round" stroke-width="3.563"/>
      <g id="Grupo_13498" data-name="Grupo 13498" transform="translate(7.708 7.626)" clip-path="url(#clip-path)">
        <g id="Grupo_13497" data-name="Grupo 13497" transform="translate(9.029 11.768)">
          <g id="Grupo_13493" data-name="Grupo 13493">
            <g id="Grupo_13492" data-name="Grupo 13492" transform="translate(0 121.298)">
              <g id="Grupo_13491" data-name="Grupo 13491" transform="translate(9.923 0.001)">
                <path id="Trazado_6106" data-name="Trazado 6106" d="M78.111,412.634c20.643-49.876,53.749-125.1,53.595-140.743l-49.738,3.583C79.529,302.433,65.981,361.69,54.275,394.7a222.065,222.065,0,0,0,23.836,17.936Z" transform="translate(-54.275 -271.891)" fill="#0094d4" opacity="0.3"/>
                <path id="Trazado_6107" data-name="Trazado 6107" d="M93.357,408.578c20.719-49.843,51.44-121.649,51.292-136.687L122,273.523c-1.847,37.584-18.8,82.007-33.432,114.225a119.772,119.772,0,0,1-7.1,13.4C85.363,403.746,89.314,406.246,93.357,408.578Z" transform="translate(-67.22 -271.891)" fill="#0094d4" opacity="0.3"/>
              </g>
              <path id="Trazado_6108" data-name="Trazado 6108" d="M35.339,417.165c12.077-13.148,34.435-106.524,37.614-141.692l49.738-3.583c.21,21.361-63.647,166.124-72.322,179.937" transform="translate(-35.339 -271.89)" fill="none" stroke="#1460aa" stroke-linecap="round" stroke-linejoin="round" stroke-width="2.97"/>
            </g>
            <path id="Trazado_6109" data-name="Trazado 6109" d="M242.444,76.232a34.7,34.7,0,0,0-6.109,5.379l1.6,16.4a25.271,25.271,0,0,0,7.378-8.534A10.073,10.073,0,0,0,242.444,76.232Z" transform="translate(-131.011 -57.461)" fill="#fff" stroke="#1460aa" stroke-linecap="round" stroke-linejoin="round" stroke-width="2.97"/>
            <path id="Trazado_6110" data-name="Trazado 6110" d="M256.763,112.059c-6.1-4.517-10.977-2.039-17.449,4.379l-.582,16.506C249.326,125.206,256.763,112.059,256.763,112.059Z" transform="translate(-132.152 -73.418)" fill="#fff" stroke="#1460aa" stroke-linecap="round" stroke-linejoin="round" stroke-width="2.97"/>
            <path id="Trazado_6111" data-name="Trazado 6111" d="M132.252,202.016l-.163-10.457s26.986-13.284,38.863-29.784c-4.3-8.489-6.513-9.51-5.954-36.791-2.558-.59-37.6,21.557-40.117,22.768-14.105,6.8-13.715-1.693-11.973-11.119-4.1-1.788-1.848-9.57-20.981,7.386-1.467,13.694,6.037,29.179,17.37,43.524l-1.236,15.8" transform="translate(-62.187 -80.661)" fill="#fff" stroke="#1460aa" stroke-linecap="round" stroke-linejoin="round" stroke-width="2.97"/>
            <path id="Trazado_6112" data-name="Trazado 6112" d="M189.244,127.55A11.784,11.784,0,0,1,177.733,139.6l-37.252.848a11.782,11.782,0,0,1-12.049-11.51l-1.724-75.628A11.784,11.784,0,0,1,138.219,41.26l37.252-.847a11.781,11.781,0,0,1,12.051,11.509Z" transform="translate(-78.828 -40.41)" fill="#51b7d6" stroke="#1460aa" stroke-linecap="round" stroke-linejoin="round" stroke-width="2.375"/>
            <path id="Trazado_6113" data-name="Trazado 6113" d="M187.445,59.511c-.122-5.3-4.6-8.489-9.9-8.369l-30.358.691c-5.3.122-9.416,3.506-9.3,8.808l1.886,73.534,49.56-1.13Z" transform="translate(-84.15 -45.517)" fill="#fff" stroke="#1460aa" stroke-linecap="round" stroke-linejoin="round" stroke-width="1.485"/>
            <path id="Trazado_6114" data-name="Trazado 6114" d="M107.936,145.254c7.979-11.843,16.139-17.912,16.792-21.851,1.64-9.938-3.521-12.165-3.521-12.165S99.531,129.065,92.09,137.481" transform="translate(-62.352 -74.123)" fill="#fff" stroke="#1460aa" stroke-linecap="round" stroke-linejoin="round" stroke-width="2.97"/>
            <path id="Trazado_6115" data-name="Trazado 6115" d="M136.748,175.338c-4.78.036-10.489.977-15.353-5.419-3.773-4.959-2.777-20.537-2.584-27.364,0,0-2.242,3.533-3.062,3.589-1.244.085-.384-1.368.3-2.342,1.5-2.161,3.919-5.212,4.994-6.633,5.951-7.864,9.772-9.422,11.246-14.755.655-2.371-1.927-8.428-2.979-11.179l-2.587,3.3s3.487,5.685-.595,10.419-17.026,19.4-17.026,19.4,4.9,17.592,5.441,22.061,7.414,17.152,15.009,16.617c0,0,3.777.4,11.43-1.1l14.493-6.961C150.161,174.928,140.969,175.306,136.748,175.338Z" transform="translate(-70.447 -74.123)" fill="#0094d4" opacity="0.2"/>
            <rect id="Rectángulo_1284" data-name="Rectángulo 1284" width="18.809" height="2.012" rx="0.722" transform="matrix(1, -0.018, 0.018, 1, 69.688, 91.657)" fill="#1460aa"/>
            <path id="Trazado_6116" data-name="Trazado 6116" d="M246.167,191.05c5.025-2.369,4.349-11.8,1.472-11.681-11.124.48-20.384,1.02-20.384,1.02C226.851,186.507,232.936,190.8,246.167,191.05Z" transform="translate(-126.681 -106.553)" fill="#fff" stroke="#1460aa" stroke-linecap="round" stroke-linejoin="round" stroke-width="2.97"/>
            <path id="Trazado_6117" data-name="Trazado 6117" d="M244.824,154.946a39.8,39.8,0,0,0-14.365,3.831c-1.355,10.737,5.7,8.135,18.226,8.384C252.04,167.229,253.7,154.241,244.824,154.946Z" transform="translate(-128.136 -94.915)" fill="#fff" stroke="#1460aa" stroke-linecap="round" stroke-linejoin="round" stroke-width="2.97"/>
          </g>
          <g id="Grupo_13494" data-name="Grupo 13494" transform="translate(58.854 65.037)">
            <path id="Trazado_6118" data-name="Trazado 6118" d="M147.655,166.442a.554.554,0,0,1,.548-.57h.123a.576.576,0,0,1,.514.28l1.394,2.173,1.314-2.233a.548.548,0,0,1,.5-.293h.124a.554.554,0,0,1,.57.548l.08,4.035a.556.556,0,0,1-1.111.022l-.052-2.534L150.7,169.4a.524.524,0,0,1-.929.018l-1-1.467.05,2.526a.545.545,0,0,1-.541.555.539.539,0,0,1-.555-.533Z" transform="translate(-147.655 -165.13)" fill="#0060ad"/>
            <path id="Trazado_6119" data-name="Trazado 6119" d="M159.073,165.8c-.006-.32.258-.521.607-.528a.547.547,0,0,1,.629.5v.014a.626.626,0,0,1-1.234.024Zm.094,1.436a.552.552,0,1,1,1.1-.021l.057,2.875a.552.552,0,0,1-1.1.021Z" transform="translate(-153.09 -164.878)" fill="#0060ad"/>
            <path id="Trazado_6120" data-name="Trazado 6120" d="M162.907,170.324l1.973-4.548a.375.375,0,0,1,.358-.262h.029a.367.367,0,0,1,.361.247l2.148,4.46a.387.387,0,0,1,.039.145.276.276,0,0,1-.27.281.314.314,0,0,1-.287-.2l-.553-1.159-2.788.052-.507,1.194a.287.287,0,0,1-.272.2.262.262,0,0,1-.266-.256A.332.332,0,0,1,162.907,170.324Zm3.563-1.559-1.22-2.576-1.118,2.62Z" transform="translate(-154.898 -164.995)" fill="#0094d4"/>
            <path id="Trazado_6121" data-name="Trazado 6121" d="M173.749,168.2a.28.28,0,1,1,.559-.011l.014.7a1.554,1.554,0,0,1,1.272-1.027.269.269,0,0,1,.281.278.277.277,0,0,1-.242.288,1.528,1.528,0,0,0-1.288,1.739l.025,1.278a.28.28,0,1,1-.559.011Z" transform="translate(-160.075 -166.117)" fill="#0094d4"/>
            <path id="Trazado_6122" data-name="Trazado 6122" d="M179.019,172.317a.258.258,0,0,1-.15-.23.267.267,0,0,1,.249-.252.225.225,0,0,1,.124.034,2.371,2.371,0,0,0,1.336.38,1.234,1.234,0,0,0,1.339-1.362l-.009-.443a1.782,1.782,0,0,1-1.458.82,1.736,1.736,0,0,1-1.8-1.722v-.015a1.777,1.777,0,0,1,3.211-1.08l-.008-.428a.277.277,0,0,1,.27-.289.283.283,0,0,1,.289.278l.056,2.853a1.809,1.809,0,0,1-.453,1.338,1.974,1.974,0,0,1-1.42.529A2.939,2.939,0,0,1,179.019,172.317Zm2.885-2.845v-.015a1.315,1.315,0,0,0-1.4-1.243,1.241,1.241,0,0,0-1.274,1.289v.015a1.271,1.271,0,0,0,1.325,1.252,1.325,1.325,0,0,0,1.354-1.3Z" transform="translate(-162.408 -166.046)" fill="#0094d4"/>
            <path id="Trazado_6123" data-name="Trazado 6123" d="M189.389,171.466a1.865,1.865,0,0,1-1.911-1.916v-.015a1.852,1.852,0,0,1,1.762-1.988,1.767,1.767,0,0,1,1.782,1.868.262.262,0,0,1-.256.267l-2.715.052a1.31,1.31,0,0,0,1.346,1.244,1.535,1.535,0,0,0,1.073-.457.239.239,0,1,1,.326.35,1.908,1.908,0,0,1-1.406.6Zm1.068-2.192a1.236,1.236,0,0,0-1.223-1.254,1.294,1.294,0,0,0-1.195,1.3Z" transform="translate(-166.608 -165.963)" fill="#0094d4"/>
            <path id="Trazado_6124" data-name="Trazado 6124" d="M195.718,167.742a.28.28,0,1,1,.559-.011l.008.407a1.422,1.422,0,0,1,1.271-.758,1.371,1.371,0,0,1,1.467,1.475l.041,2.083a.28.28,0,1,1-.559.011L198.466,169a1,1,0,0,0-1.061-1.112,1.1,1.1,0,0,0-1.1,1.2l.037,1.9a.273.273,0,0,1-.27.289.279.279,0,0,1-.289-.278Z" transform="translate(-170.532 -165.881)" fill="#0094d4"/>
            <path id="Trazado_6125" data-name="Trazado 6125" d="M203.826,169.128l-.045-2.265-.3.006a.255.255,0,0,1-.252-.242.249.249,0,0,1,.242-.252l.3-.006-.017-.886a.277.277,0,0,1,.27-.289.288.288,0,0,1,.289.278l.017.886.973-.019a.256.256,0,0,1,.259.242.251.251,0,0,1-.249.252l-.973.019.043,2.192a.555.555,0,0,0,.644.612,1.581,1.581,0,0,0,.34-.058.242.242,0,0,1,.244.235.234.234,0,0,1-.157.221,1.415,1.415,0,0,1-.55.112.956.956,0,0,1-1.079-1.039Z" transform="translate(-174.106 -164.843)" fill="#0094d4"/>
            <path id="Trazado_6126" data-name="Trazado 6126" d="M209.1,164.826a.332.332,0,0,1,.66-.013v.094a.332.332,0,0,1-.66.013Zm.079,1.422a.282.282,0,0,1,.27-.289.279.279,0,0,1,.289.278l.064,3.259a.273.273,0,0,1-.27.289.279.279,0,0,1-.289-.278Z" transform="translate(-176.902 -164.524)" fill="#0094d4"/>
            <path id="Trazado_6127" data-name="Trazado 6127" d="M212.451,167.413a.28.28,0,1,1,.559-.011l.008.407a1.422,1.422,0,0,1,1.271-.758,1.371,1.371,0,0,1,1.467,1.475l.041,2.083a.28.28,0,1,1-.559.011l-.038-1.946a1,1,0,0,0-1.061-1.112,1.1,1.1,0,0,0-1.1,1.2l.037,1.9a.273.273,0,0,1-.27.289.279.279,0,0,1-.289-.278Z" transform="translate(-178.497 -165.725)" fill="#0094d4"/>
            <path id="Trazado_6128" data-name="Trazado 6128" d="M220.187,169.707v-.014c-.016-.791.629-1.225,1.58-1.244a3.986,3.986,0,0,1,1.158.137v-.13c-.013-.675-.434-1.016-1.138-1a2.345,2.345,0,0,0-.969.23.283.283,0,0,1-.1.024.248.248,0,0,1-.252-.235.256.256,0,0,1,.148-.235,2.962,2.962,0,0,1,1.222-.278,1.647,1.647,0,0,1,1.22.39,1.481,1.481,0,0,1,.407,1.088l.04,2.055a.266.266,0,0,1-.262.281.258.258,0,0,1-.274-.256l-.007-.341a1.645,1.645,0,0,1-1.345.673,1.264,1.264,0,0,1-1.428-1.142Zm2.76-.345-.007-.363a3.919,3.919,0,0,0-1.107-.138c-.7.014-1.09.326-1.081.8v.015c.009.472.45.739.958.729a1.135,1.135,0,0,0,1.237-1.041Z" transform="translate(-182.179 -165.68)" fill="#0094d4"/>
          </g>
          <g id="Grupo_13496" data-name="Grupo 13496" transform="translate(59.794 13.309)">
            <path id="Trazado_6129" data-name="Trazado 6129" d="M171.941,66.235l21.572,5.7a2.484,2.484,0,0,1,1.767,3.036l-4.232,16.025a2.484,2.484,0,0,1-3.036,1.767l-8.594-2.269-2.994,2.454-1.392-3.612-8.594-2.269a2.484,2.484,0,0,1-1.768-3.036L168.9,68a2.484,2.484,0,0,1,3.038-1.768Z" transform="translate(-156.655 -65.972)" fill="#a3cfe0"/>
            <path id="Trazado_6130" data-name="Trazado 6130" d="M172.536,65.918,151.2,72.459a2.484,2.484,0,0,0-1.646,3.1l4.86,15.846a2.484,2.484,0,0,0,3.1,1.646l8.5-2.605,3.088,2.334,1.249-3.664,8.5-2.605a2.484,2.484,0,0,0,1.644-3.1l-4.86-15.846A2.484,2.484,0,0,0,172.536,65.918Z" transform="translate(-149.449 -65.808)" fill="#60bbe1"/>
            <path id="Trazado_6131" data-name="Trazado 6131" d="M184.846,69.779l-22.308.439A2.484,2.484,0,0,0,160.1,72.75l.326,16.571a2.484,2.484,0,0,0,2.533,2.435l8.886-.175,2.33,3.092,2.207-3.181,8.886-.175a2.484,2.484,0,0,0,2.435-2.532l-.326-16.571A2.484,2.484,0,0,0,184.846,69.779Z" transform="translate(-154.52 -67.698)" fill="#0060ad"/>
            <g id="Grupo_13495" data-name="Grupo 13495" transform="translate(13 5.1)">
              <path id="Trazado_6132" data-name="Trazado 6132" d="M182.831,83.065a3.762,3.762,0,1,1,.86-.116h0A3.785,3.785,0,0,1,182.831,83.065Zm.669-.9Zm-.786-5.09a2.227,2.227,0,1,0,.6,4.384h0a2.227,2.227,0,0,0-.6-4.384Z" transform="translate(-176.514 -75.541)" fill="#fff"/>
              <path id="Trazado_6133" data-name="Trazado 6133" d="M180.8,98.82a9.858,9.858,0,0,1-6.242-2.044.769.769,0,0,1-.3-.685,8.5,8.5,0,0,1,.993-3.265.769.769,0,0,1,1.348.743,6.874,6.874,0,0,0-.755,2.241,8.418,8.418,0,0,0,9.787-.193,6.325,6.325,0,0,0-2.167-3.736.77.77,0,1,1,.958-1.205,7.965,7.965,0,0,1,2.8,5.159.769.769,0,0,1-.27.695,9.858,9.858,0,0,1-6.159,2.29Z" transform="translate(-174.258 -82.665)" fill="#fff"/>
            </g>
          </g>
        </g>
      </g>
      <path id="Trazado_6134" data-name="Trazado 6134" d="M182.756,90.751a81.717,81.717,0,0,1,.482,8.88c0,45.11-36.965,81.679-82.564,81.679S18.109,144.741,18.109,99.631s36.966-81.679,82.564-81.679a82.729,82.729,0,0,1,67.763,35" transform="translate(-10.401 -10.326)" fill="none" stroke="#1460aa" stroke-linecap="round" stroke-linejoin="round" stroke-width="2.375"/>
      <path id="Trazado_6135" data-name="Trazado 6135" d="M327.778,133.007q.2.739.39,1.483" transform="translate(-157.801 -65.092)" fill="none" stroke="#1460aa" stroke-linecap="round" stroke-linejoin="round" stroke-width="2.375"/>
    </g>
  </g>
</svg>
