<?xml version="1.0" encoding="utf-8"?>
<!-- Generator: Adobe Illustrator 22.0.1, SVG Export Plug-In . SVG Version: 6.00 Build 0)  -->
<svg version="1.1" id="Capa_2_1_" xmlns="http://www.w3.org/2000/svg" xmlns:xlink="http://www.w3.org/1999/xlink" x="0px" y="0px"
	 viewBox="0 0 54.5 12.2" style="enable-background:new 0 0 54.5 12.2;" xml:space="preserve">
<style type="text/css">
	.st0{enable-background:new    ;}
	.st1{fill:#0094D4;}
</style>
<g class="st0">
	<path class="st1" d="M5.3,0.6h1.8l4.8,10.9h-2L8.7,8.9H3.6l-1.1,2.6h-2L5.3,0.6z M8,7.2L6.2,2.9L4.3,7.2H8z"/>
	<path class="st1" d="M13.7,0.7h1.8l5.8,7.5V0.7h1.9v10.8h-1.6l-6-7.7v7.7h-1.9V0.7z"/>
	<path class="st1" d="M25.2,10l1.1-1.4c1,0.9,2.1,1.4,3.4,1.4c1.2,0,1.9-0.6,1.9-1.4v0c0-0.8-0.4-1.2-2.4-1.7
		c-2.3-0.6-3.6-1.2-3.6-3.2v0c0-1.9,1.5-3.1,3.7-3.1c1.6,0,2.8,0.5,3.9,1.4l-1,1.4c-1-0.7-2-1.1-2.9-1.1c-1.1,0-1.8,0.6-1.8,1.3v0
		c0,0.8,0.5,1.2,2.6,1.7c2.3,0.6,3.5,1.4,3.5,3.2v0c0,2-1.6,3.2-3.9,3.2C28.1,11.7,26.5,11.1,25.2,10z"/>
	<path class="st1" d="M35.9,0.7h8v1.7h-6.1v2.8h5.4v1.7h-5.4v2.9H44v1.7h-8.1V0.7z"/>
	<path class="st1" d="M45.5,10l1.1-1.4c1,0.9,2.1,1.4,3.4,1.4c1.2,0,1.9-0.6,1.9-1.4v0c0-0.8-0.4-1.2-2.4-1.7
		c-2.3-0.6-3.6-1.2-3.6-3.2v0c0-1.9,1.5-3.1,3.7-3.1c1.6,0,2.8,0.5,3.9,1.4l-1,1.4c-1-0.7-2-1.1-2.9-1.1c-1.1,0-1.8,0.6-1.8,1.3v0
		c0,0.8,0.5,1.2,2.6,1.7c2.3,0.6,3.5,1.4,3.5,3.2v0c0,2-1.6,3.2-3.9,3.2C48.4,11.7,46.8,11.1,45.5,10z"/>
</g>
</svg>
