<?xml version="1.0" encoding="utf-8"?>
<!-- Generator: Adobe Illustrator 22.0.1, SVG Export Plug-In . SVG Version: 6.00 Build 0)  -->
<svg version="1.1" id="Capa_2_1_" xmlns="http://www.w3.org/2000/svg" xmlns:xlink="http://www.w3.org/1999/xlink" x="0px" y="0px"
	 viewBox="0 0 188.2 15.4" style="enable-background:new 0 0 188.2 15.4;" xml:space="preserve">
<style type="text/css">
	.st0{enable-background:new    ;}
	.st1{fill:#0094D4;}
</style>
<g class="st0">
	<path class="st1" d="M0.8,1.6h2l3.3,5.1l3.3-5.1h2v10.8H9.6V4.7L6.1,9.8H6.1L2.7,4.7v7.7H0.8V1.6z"/>
	<path class="st1" d="M14.1,1.2h2V3h-2V1.2z M14.1,4.3H16v8.2h-1.9V4.3z"/>
	<path class="st1" d="M18.5,4.3h1.9v1.3c0.5-0.8,1.3-1.4,2.6-1.4c1.8,0,2.9,1.2,2.9,3.1v5.2h-1.9V7.8c0-1.3-0.6-2-1.8-2
		c-1.1,0-1.8,0.8-1.8,2v4.6h-1.9V4.3z"/>
	<path class="st1" d="M28.1,1.2h2V3h-2V1.2z M28.2,4.3H30v8.2h-1.9V4.3z"/>
	<path class="st1" d="M31.8,11.4l0.8-1.3c0.9,0.7,1.8,1,2.7,1c0.8,0,1.3-0.3,1.3-0.9v0c0-0.6-0.9-0.9-1.8-1.1
		c-1.2-0.3-2.6-0.8-2.6-2.4v0c0-1.5,1.3-2.5,2.9-2.5c1,0,2.1,0.4,3,0.9l-0.7,1.3c-0.8-0.5-1.6-0.8-2.3-0.8c-0.7,0-1.1,0.3-1.1,0.8v0
		c0,0.6,0.9,0.9,1.8,1.2C37,8,38.3,8.5,38.3,10v0c0,1.7-1.3,2.6-3,2.6C34.1,12.6,32.8,12.2,31.8,11.4z"/>
	<path class="st1" d="M40.5,10.2V5.9h-1V4.3h1V2h1.9v2.2h2.2v1.6h-2.2v4c0,0.7,0.4,1,1,1c0.4,0,0.8-0.1,1.2-0.3v1.5
		c-0.5,0.3-1,0.4-1.7,0.4C41.5,12.6,40.5,12,40.5,10.2z"/>
	<path class="st1" d="M45.8,8.4L45.8,8.4c0-2.4,1.7-4.3,4-4.3c2.6,0,3.9,2,3.9,4.4c0,0.2,0,0.3,0,0.5h-6c0.2,1.3,1.1,2.1,2.4,2.1
		c0.9,0,1.6-0.3,2.2-1l1.1,1c-0.8,0.9-1.8,1.5-3.3,1.5C47.6,12.6,45.8,10.9,45.8,8.4z M51.8,7.8c-0.1-1.2-0.8-2.2-2.1-2.2
		c-1.1,0-2,0.9-2.1,2.2H51.8z"/>
	<path class="st1" d="M55.6,4.3h1.9v1.8c0.5-1.2,1.5-2.1,2.9-2v2h-0.1c-1.6,0-2.8,1.1-2.8,3.2v3.1h-1.9V4.3z"/>
	<path class="st1" d="M62,1.2h2V3h-2V1.2z M62.1,4.3H64v8.2h-1.9V4.3z"/>
	<path class="st1" d="M65.9,8.4L65.9,8.4c0-2.4,1.9-4.3,4.4-4.3c2.5,0,4.4,1.9,4.4,4.2v0c0,2.3-1.9,4.3-4.4,4.3
		C67.8,12.6,65.9,10.7,65.9,8.4z M72.8,8.4L72.8,8.4c0-1.5-1-2.7-2.5-2.7c-1.5,0-2.5,1.2-2.5,2.6v0c0,1.4,1,2.6,2.5,2.6
		C71.8,11,72.8,9.8,72.8,8.4z"/>
	<path class="st1" d="M80.8,8.4L80.8,8.4c0-2.7,1.8-4.3,3.8-4.3c1.3,0,2.2,0.7,2.8,1.4V1.1h1.9v11.3h-1.9v-1.4
		c-0.6,0.9-1.5,1.5-2.8,1.5C82.7,12.6,80.8,11.1,80.8,8.4z M87.4,8.4L87.4,8.4c0-1.6-1.1-2.6-2.4-2.6c-1.3,0-2.4,1-2.4,2.6v0
		c0,1.6,1.1,2.6,2.4,2.6C86.3,11,87.4,9.9,87.4,8.4z"/>
	<path class="st1" d="M91.2,8.4L91.2,8.4c0-2.4,1.7-4.3,4-4.3c2.6,0,3.9,2,3.9,4.4c0,0.2,0,0.3,0,0.5h-6c0.2,1.3,1.1,2.1,2.4,2.1
		c0.9,0,1.6-0.3,2.2-1l1.1,1c-0.8,0.9-1.8,1.5-3.3,1.5C93,12.6,91.2,10.9,91.2,8.4z M97.2,7.8c-0.1-1.2-0.8-2.2-2.1-2.2
		c-1.1,0-2,0.9-2.1,2.2H97.2z"/>
	<path class="st1" d="M108.5,3.4H105V1.6h8.8v1.8h-3.4v9.1h-1.9V3.4z"/>
	<path class="st1" d="M114.5,4.3h1.9v1.8c0.5-1.2,1.5-2.1,2.9-2v2h-0.1c-1.6,0-2.8,1.1-2.8,3.2v3.1h-1.9V4.3z"/>
	<path class="st1" d="M120,10.1L120,10.1c0-1.8,1.4-2.7,3.4-2.7c0.9,0,1.6,0.1,2.2,0.3V7.6c0-1.2-0.7-1.8-2-1.8
		c-0.9,0-1.6,0.2-2.3,0.5l-0.5-1.5c0.9-0.4,1.8-0.7,3.1-0.7c1.2,0,2.1,0.3,2.7,0.9c0.6,0.6,0.9,1.5,0.9,2.5v4.8h-1.8v-1
		c-0.6,0.7-1.4,1.2-2.7,1.2C121.4,12.6,120,11.7,120,10.1z M125.6,9.5V9c-0.5-0.2-1.1-0.3-1.9-0.3c-1.2,0-1.9,0.5-1.9,1.4v0
		c0,0.8,0.7,1.2,1.6,1.2C124.7,11.3,125.6,10.5,125.6,9.5z"/>
	<path class="st1" d="M129.6,4.3h1.9v1.3c0.5-0.8,1.3-1.4,2.6-1.4c1.8,0,2.9,1.2,2.9,3.1v5.2h-1.9V7.8c0-1.3-0.6-2-1.8-2
		c-1.1,0-1.8,0.8-1.8,2v4.6h-1.9V4.3z"/>
	<path class="st1" d="M138.6,11.4l0.8-1.3c0.9,0.7,1.8,1,2.7,1c0.8,0,1.3-0.3,1.3-0.9v0c0-0.6-0.9-0.9-1.8-1.1
		c-1.2-0.3-2.6-0.8-2.6-2.4v0c0-1.5,1.3-2.5,2.9-2.5c1,0,2.1,0.4,3,0.9l-0.7,1.3c-0.8-0.5-1.6-0.8-2.3-0.8c-0.7,0-1.1,0.3-1.1,0.8v0
		c0,0.6,0.9,0.9,1.8,1.2c1.2,0.4,2.5,0.9,2.5,2.4v0c0,1.7-1.3,2.6-3,2.6C140.9,12.6,139.6,12.2,138.6,11.4z"/>
	<path class="st1" d="M147,4.3h1.9v1.4c0.6-0.9,1.5-1.5,2.8-1.5c1.9,0,3.8,1.5,3.8,4.2v0c0,2.7-1.9,4.2-3.8,4.2
		c-1.4,0-2.2-0.7-2.8-1.4v3.7H147V4.3z M153.5,8.4L153.5,8.4c0-1.6-1.1-2.6-2.3-2.6c-1.3,0-2.4,1.1-2.4,2.6v0c0,1.6,1.1,2.6,2.4,2.6
		C152.5,11,153.5,10,153.5,8.4z"/>
	<path class="st1" d="M156.9,8.4L156.9,8.4c0-2.4,1.9-4.3,4.4-4.3c2.5,0,4.4,1.9,4.4,4.2v0c0,2.3-1.9,4.3-4.4,4.3
		C158.8,12.6,156.9,10.7,156.9,8.4z M163.8,8.4L163.8,8.4c0-1.5-1-2.7-2.5-2.7c-1.5,0-2.5,1.2-2.5,2.6v0c0,1.4,1,2.6,2.5,2.6
		C162.8,11,163.8,9.8,163.8,8.4z"/>
	<path class="st1" d="M167.5,4.3h1.9v1.8c0.5-1.2,1.5-2.1,2.9-2v2h-0.1c-1.6,0-2.8,1.1-2.8,3.2v3.1h-1.9V4.3z"/>
	<path class="st1" d="M174.3,10.2V5.9h-1V4.3h1V2h1.9v2.2h2.2v1.6h-2.2v4c0,0.7,0.4,1,1,1c0.4,0,0.8-0.1,1.2-0.3v1.5
		c-0.5,0.3-1,0.4-1.7,0.4C175.3,12.6,174.3,12,174.3,10.2z"/>
	<path class="st1" d="M179.6,8.4L179.6,8.4c0-2.4,1.7-4.3,4-4.3c2.6,0,3.9,2,3.9,4.4c0,0.2,0,0.3,0,0.5h-6c0.2,1.3,1.1,2.1,2.4,2.1
		c0.9,0,1.6-0.3,2.2-1l1.1,1c-0.8,0.9-1.8,1.5-3.3,1.5C181.4,12.6,179.6,10.9,179.6,8.4z M185.7,7.8c-0.1-1.2-0.8-2.2-2.1-2.2
		c-1.1,0-2,0.9-2.1,2.2H185.7z"/>
</g>
</svg>
