<?xml version="1.0" encoding="utf-8"?>
<!-- Generator: Adobe Illustrator 22.1.0, SVG Export Plug-In . SVG Version: 6.00 Build 0)  -->
<svg version="1.1" id="Capa_1" xmlns="http://www.w3.org/2000/svg" xmlns:xlink="http://www.w3.org/1999/xlink" x="0px" y="0px"
	 viewBox="0 0 100 100" style="enable-background:new 0 0 100 100;" xml:space="preserve">
<style type="text/css">
	.st0{fill:#64C4E7;}
	.st1{opacity:0.15;fill:#51B7D6;enable-background:new    ;}
	.st2{fill:#1460AA;}
	.st3{fill:#FFFFFF;}
	.st4{fill:#12B5E1;}
</style>
<g>
	<title>plantilla svg celestes</title>
	<g>
		<g id="Layer_2">
			<path class="st0" d="M20.8,28.5h59c1.3,0,2.4,1.1,2.4,2.4v38.1c0,1.3-1.1,2.4-2.4,2.4h-59c-1.3,0-2.4-1.1-2.4-2.4V30.9
				C18.4,29.6,19.5,28.5,20.8,28.5z"/>
			<path class="st1" d="M48.3,65.6C24,65.4,22.3,52.9,18.4,40.8v28.3c0,1.3,1.1,2.4,2.4,2.4h59c1.3,0,2.4-1.1,2.4-2.4v-3.5
				C82.2,65.6,55.6,65.7,48.3,65.6z"/>
			<path class="st2" d="M78.6,26.6H21.4c-2.6,0-4.7,2.1-4.7,4.7v37.6c0,2.6,2.1,4.7,4.7,4.7h57.2c2.6,0,4.7-2.1,4.7-4.7V31.2
				C83.3,28.6,81.2,26.5,78.6,26.6z M80.6,68.8c0,1.1-0.9,2-2,2H21.4c-1.1,0-2-0.9-2-2V31.2c0-1.1,0.9-2,2-2h57.2c1.1,0,2,0.9,2,2
				V68.8z"/>
			<path class="st2" d="M34,36h29.8c1.2,0,2.2,1,2.2,2.2v21.4c0,1.2-1,2.2-2.2,2.2H34c-1.2,0-2.2-1-2.2-2.2V38.1
				C31.9,36.9,32.8,36,34,36z"/>
			<path class="st3" d="M59.8,53.3l1.3,0.1c0,0,0-3-0.1-4.9v-0.1c0-1.4-0.8-9.1-9.6-8.5c-6.3,0.4-7.8,5.6-10.7,6.6
				c-5.7,2-3.3,7.5-3.3,7.5h1.3c0.2,0.5,0.5,1,0.9,1.4c1.5,1.5,4,1.5,5.5,0c0.4-0.4,0.7-0.9,0.9-1.4h6.3c0.2,0.5,0.5,1,0.9,1.4
				c1.5,1.5,4,1.5,5.5,0C59.3,54.8,59.6,54.1,59.8,53.3z M43.6,54c-0.8,0.7-2.1,0.7-2.8-0.2c-0.3-0.3-0.5-0.8-0.5-1.2
				c0.2-1.1,1.3-1.8,2.4-1.5c0.7,0.2,1.3,0.8,1.5,1.5C44.2,53.1,44,53.6,43.6,54z M51.3,46.8l-7.6,0.1c2.4-2.7,4.3-4.9,7.6-5.2V46.8
				z M57.3,54c-0.4,0.4-0.9,0.6-1.4,0.6c-1.1,0-2-0.9-2-2s0.9-2,2-2s2,0.9,2,2C58,53.1,57.7,53.6,57.3,54L57.3,54z M52.5,46.8v-5.1
				c4.6,0.2,5.6,3.3,6.1,5L52.5,46.8z"/>
			<path class="st0" d="M66.1,53.8c-4.1,0-7.4,3.3-7.4,7.4c0,4.1,3.3,7.4,7.4,7.4c4.1,0,7.4-3.3,7.4-7.4c0,0,0,0,0,0
				C73.5,57.1,70.2,53.8,66.1,53.8z"/>
			<circle class="st3" cx="66.1" cy="61.3" r="5.1"/>
			<path class="st2" d="M66.1,55.2c-3.3,0-6,2.7-6,6c0,3.3,2.7,6,6,6c3.3,0,6-2.7,6-6C72.1,57.9,69.4,55.2,66.1,55.2z M66.1,66.1
				c-2.7,0-4.9-2.2-4.9-4.9c0-2.7,2.2-4.9,4.9-4.9c2.7,0,4.9,2.2,4.9,4.9C71,63.9,68.8,66.1,66.1,66.1z"/>
			<polygon class="st4" points="68.9,58.3 65.4,61.4 63.5,59.4 62.3,60.4 65.4,64.3 65.4,64.3 69.9,59.3 			"/>
		</g>
	</g>
</g>
</svg>
