<svg xmlns="http://www.w3.org/2000/svg" viewBox="0 0 100 100"><defs><style>.cls-1{isolation:isolate;}.cls-2{fill:#fff;}.cls-3{fill:#7ed9ed;}.cls-4{fill:#51b7d6;opacity:0.15;mix-blend-mode:multiply;}.cls-5{fill:#1460aa;}</style></defs><title>plantilla svg celestes</title><g class="cls-1"><g id="Layer_2" data-name="Layer 2"><rect class="cls-2" x="18.38" y="28.51" width="63.26" height="43.81" rx="3.52" ry="3.52"/><rect class="cls-3" x="18.38" y="28.51" width="63.84" height="42.97" rx="2.42" ry="2.42"/><path class="cls-4" d="M48.27,65.58C24,65.36,22.34,52.88,18.38,40.77v28.3a2.43,2.43,0,0,0,2.42,2.42h59a2.43,2.43,0,0,0,2.42-2.42v-3.5S55.6,65.65,48.27,65.58Z"/><path class="cls-5" d="M78.61,26.55H21.39a4.67,4.67,0,0,0-4.67,4.66V68.79a4.67,4.67,0,0,0,4.67,4.66H78.61a4.67,4.67,0,0,0,4.67-4.66V31.21A4.67,4.67,0,0,0,78.61,26.55Zm2,42.24a2,2,0,0,1-2,2H21.39a2,2,0,0,1-2-2V31.21a2,2,0,0,1,2-2H78.61a2,2,0,0,1,2,2Z"/><circle class="cls-5" cx="50" cy="50" r="15.86"/><path class="cls-2" d="M58.93,48.89a1.42,1.42,0,0,0-1.1-.43l-4.95.28,2.73-3.11A1.67,1.67,0,0,0,56,44.08a1.37,1.37,0,0,0-.63-.9L48.81,39.4a1.43,1.43,0,0,0-1.66.16L44,42.4a1.42,1.42,0,0,0,1.89,2.11l2.41-2.14,2,1.15-3.52,4A7.25,7.25,0,0,0,43,49.4l1.83,1.83a4.66,4.66,0,0,1,6.59,6.59l1.84,1.84a7.27,7.27,0,0,0,1.23-8.17l1.91-.1L55.9,57.1a1.42,1.42,0,0,0,1.3,1.53h.11a1.43,1.43,0,0,0,1.42-1.31L59.32,50A1.39,1.39,0,0,0,58.93,48.89Z"/><path class="cls-2" d="M56.3,42.81a2.38,2.38,0,1,0-2.38-2.38A2.38,2.38,0,0,0,56.3,42.81Z"/><path class="cls-2" d="M47.93,59.35a4.67,4.67,0,0,1-4.67-4.66,4.62,4.62,0,0,1,.81-2.62l-1.86-1.86a7.26,7.26,0,0,0,5.72,11.73A7.18,7.18,0,0,0,52.4,60.4l-1.85-1.85A4.71,4.71,0,0,1,47.93,59.35Z"/></g></g></svg>