<svg xmlns="http://www.w3.org/2000/svg" viewBox="0 0 100 100"><defs><style>.cls-1{isolation:isolate;}.cls-2{fill:#fff;}.cls-3{fill:#7ed9ed;}.cls-4{fill:#51b7d6;}.cls-4,.cls-7{opacity:0.15;mix-blend-mode:multiply;}.cls-5,.cls-9{fill:#1460aa;}.cls-6{fill:#1393ce;}.cls-8{fill:none;}.cls-9{font-size:13px;font-family:GothamRounded-Bold, Gotham Rounded;font-weight:700;letter-spacing:-0.03em;}</style></defs><title>plantilla svg celestes</title><g class="cls-1"><g id="Layer_2" data-name="Layer 2"><rect class="cls-2" x="18.38" y="28.51" width="63.26" height="43.81" rx="3.52" ry="3.52"/><rect class="cls-3" x="18.38" y="28.51" width="63.84" height="42.97" rx="2.42" ry="2.42"/><path class="cls-4" d="M48.27,65.58C24,65.36,22.34,52.88,18.38,40.77v28.3a2.43,2.43,0,0,0,2.42,2.42h59a2.43,2.43,0,0,0,2.42-2.42v-3.5S55.6,65.65,48.27,65.58Z"/><path class="cls-5" d="M78.61,26.55H21.39a4.67,4.67,0,0,0-4.67,4.66V68.79a4.67,4.67,0,0,0,4.67,4.66H78.61a4.67,4.67,0,0,0,4.67-4.66V31.21A4.67,4.67,0,0,0,78.61,26.55Zm2,42.24a2,2,0,0,1-2,2H21.39a2,2,0,0,1-2-2V31.21a2,2,0,0,1,2-2H78.61a2,2,0,0,1,2,2Z"/><path class="cls-5" d="M27,61.65v-.14H45.43v.14c0-5.63-4.11-10.19-9.19-10.19S27,56,27,61.65Z"/><path class="cls-6" d="M41.61,44.72a5.38,5.38,0,1,0-5.37,5.37A5.38,5.38,0,0,0,41.61,44.72Z"/><g class="cls-7"><path class="cls-5" d="M38.15,51.68a7.63,7.63,0,0,1,1.91,6.55,6.4,6.4,0,0,1-2,3.28h7.4C45.37,56.67,42.27,52.65,38.15,51.68Z"/><path class="cls-5" d="M38.17,39.75a9.17,9.17,0,0,1,.49,3,11.53,11.53,0,0,1-2.6,7.37l.18,0a5.35,5.35,0,0,0,1.93-10.34Z"/></g><path class="cls-8" d="M27,61.65v-.14H45.43v.14c0-5.63-4.11-10.19-9.19-10.19S27,56,27,61.65Z"/><path class="cls-5" d="M41.61,44.72a5.38,5.38,0,1,0-5.37,5.37A5.38,5.38,0,0,0,41.61,44.72Z"/><path class="cls-2" d="M49.68,55.17H71.43a1.36,1.36,0,1,0,0-2.72H49.68a1.36,1.36,0,1,0,0,2.72Z"/><path class="cls-2" d="M49.68,61.51H71.43a1.36,1.36,0,1,0,0-2.72H49.68a1.36,1.36,0,1,0,0,2.72Z"/><text class="cls-9" transform="translate(48.19 47.21)">DNI</text></g></g></svg>