<svg xmlns="http://www.w3.org/2000/svg" viewBox="0 0 100 100"><defs><style>.cls-1{isolation:isolate;}.cls-2{fill:#fff;}.cls-3,.cls-5,.cls-6{fill:#51b7d6;}.cls-3{opacity:0.6;}.cls-3,.cls-5,.cls-6,.cls-9{mix-blend-mode:multiply;}.cls-4{fill:#1460aa;}.cls-5{opacity:0.4;}.cls-6,.cls-9{opacity:0.15;}.cls-7{fill:#2fb9ea;}.cls-8{fill:#1393ce;}.cls-10{fill:none;}</style></defs><title>plantilla svg celestes</title><g class="cls-1"><g id="Layer_2" data-name="Layer 2"><rect class="cls-2" x="11.63" y="21.58" width="63.26" height="43.81" rx="3.52" ry="3.52"/><rect class="cls-3" x="11.34" y="21.67" width="63.84" height="42.97" rx="2.42" ry="2.42"/><path class="cls-4" d="M71.86,19.62H14.64A4.67,4.67,0,0,0,10,24.28V61.86a4.67,4.67,0,0,0,4.67,4.66H71.86a4.66,4.66,0,0,0,4.66-4.66V24.28A4.66,4.66,0,0,0,71.86,19.62Zm2,42.24a2,2,0,0,1-2,2H14.64a2,2,0,0,1-2-2V24.28a2,2,0,0,1,2-2H71.86a2,2,0,0,1,2,2Z"/><rect class="cls-2" x="25.13" y="28.41" width="63.26" height="43.81" rx="3.52" ry="3.52"/><rect class="cls-5" x="24.84" y="28.5" width="63.84" height="42.97" rx="2.42" ry="2.42"/><path class="cls-4" d="M85.36,26.45H28.14a4.66,4.66,0,0,0-4.66,4.66V68.68a4.67,4.67,0,0,0,4.66,4.67H85.36A4.68,4.68,0,0,0,90,68.68V31.11A4.67,4.67,0,0,0,85.36,26.45Zm2,42.23a2,2,0,0,1-2,2H28.14a2,2,0,0,1-2-2V31.11a2,2,0,0,1,2-2H85.36a2,2,0,0,1,2,2Z"/><rect class="cls-2" x="18.1" y="35.44" width="63.26" height="43.81" rx="3.52" ry="3.52"/><rect class="cls-6" x="18.1" y="35.44" width="63.84" height="42.97" rx="2.42" ry="2.42"/><path class="cls-6" d="M48,72.52C23.73,72.29,22.06,59.81,18.1,47.7V76a2.43,2.43,0,0,0,2.42,2.42h59A2.43,2.43,0,0,0,81.94,76V72.5S55.32,72.58,48,72.52Z"/><path class="cls-4" d="M78.33,33.48H21.1a4.66,4.66,0,0,0-4.66,4.66V75.72a4.66,4.66,0,0,0,4.66,4.66H78.33A4.66,4.66,0,0,0,83,75.72V38.14A4.66,4.66,0,0,0,78.33,33.48Zm2,42.24a2,2,0,0,1-2,2H21.1a2,2,0,0,1-2-2V38.14a2,2,0,0,1,2-2H78.33a2,2,0,0,1,2,2Z"/><path class="cls-7" d="M26.75,68.58s0-.14,0-.14H45.15v.14C45.15,63,41,58.39,36,58.39S26.75,63,26.75,68.58Z"/><path class="cls-8" d="M41.33,51.65A5.38,5.38,0,1,0,36,57,5.37,5.37,0,0,0,41.33,51.65Z"/><g class="cls-9"><path class="cls-4" d="M37.86,58.61a7.66,7.66,0,0,1,1.92,6.56,6.49,6.49,0,0,1-2,3.27h7.41C45.09,63.6,42,59.58,37.86,58.61Z"/><path class="cls-4" d="M37.88,46.68a9.47,9.47,0,0,1,.5,3A11.58,11.58,0,0,1,35.78,57L36,57a5.34,5.34,0,0,0,1.93-10.34Z"/></g><path class="cls-10" d="M26.75,68.58s0-.14,0-.14H45.15v.14C45.15,63,41,58.39,36,58.39S26.75,63,26.75,68.58Z"/><path class="cls-7" d="M41.33,51.65A5.38,5.38,0,1,0,36,57,5.37,5.37,0,0,0,41.33,51.65Z"/><path class="cls-4" d="M49.4,62.1H71.15a1.36,1.36,0,1,0,0-2.72H49.4a1.36,1.36,0,1,0,0,2.72Z"/><path class="cls-4" d="M49.4,55.41H71.15a1.36,1.36,0,1,0,0-2.72H49.4a1.36,1.36,0,1,0,0,2.72Z"/><path class="cls-4" d="M49.4,68.44H71.15a1.36,1.36,0,1,0,0-2.72H49.4a1.36,1.36,0,1,0,0,2.72Z"/></g></g></svg>