<?xml version="1.0" encoding="utf-8"?>
<!-- Generator: Adobe Illustrator 22.1.0, SVG Export Plug-In . SVG Version: 6.00 Build 0)  -->
<svg version="1.1" id="Capa_1" xmlns="http://www.w3.org/2000/svg" xmlns:xlink="http://www.w3.org/1999/xlink" x="0px" y="0px"
	 viewBox="0 0 100 100" style="enable-background:new 0 0 100 100;" xml:space="preserve">
<style type="text/css">
	.st0{fill:#89D0EC;}
	.st1{opacity:0.21;fill:#51B7D6;enable-background:new    ;}
	.st2{fill:#1460AA;}
	.st3{fill:#FFFFFF;}
	.st4{fill:#12B5E1;}
</style>
<title>plantilla svg celestes</title>
<g>
	<g id="Layer_2">
		<path class="st0" d="M65,18.9H30.1c-2.2,0-4.1,1.8-4.1,4.1c0,0,0,0,0,0v51.5c0,2.2,1.8,4,4,4h41.2c2.2,0,4-1.8,4-4V29.4
			c-1.8-1.6-7.3,1.5-9-0.2S66.6,20.8,65,18.9z"/>
		<path class="st1" d="M69.2,29.2v34.1c0,2.2-1.8,4-4,4H26.5c-0.2,0-0.3,0-0.5,0v7.2c0,2.2,1.8,4,4,4h41.1c2.2,0,4-1.8,4-4V29.4
			C72.2,26.8,71.9,32.2,69.2,29.2z"/>
		<path class="st2" d="M61.2,76.8h-30c-2.1,0-3.9-1.7-3.9-3.9V23.6c0-2.1,1.7-3.9,3.9-3.9h32.2l0.1,10.1c0,1,0.8,1.7,1.8,1.7
			c0.6,0,4.9,0,8.7,0v32.1h0.4c0.9,0,1.8,0.1,2.6,0.3l-0.1-35v-0.1l-11.2-12l-0.1-0.1H31.1c-3.9,0-7,3.1-7,7v49.3c0,3.9,3.1,7,7,7
			h30.4C61.3,78.9,61.2,77.9,61.2,76.8L61.2,76.8z M71.6,28.1c-1.8,0-3.5,0-4.7,0V23L71.6,28.1z"/>
		<path class="st2" d="M64.5,39.4H36.8c-0.9,0.1-1.5,0.8-1.4,1.7c0.1,0.8,0.7,1.4,1.4,1.4h27.7c0.9,0.1,1.6-0.6,1.7-1.4
			c0.1-0.9-0.6-1.6-1.4-1.7C64.7,39.4,64.6,39.4,64.5,39.4z"/>
		<path class="st2" d="M64.5,45.9H36.8c-0.9,0.1-1.5,0.8-1.4,1.7c0.1,0.8,0.7,1.4,1.4,1.4h27.7c0.9,0.1,1.6-0.6,1.7-1.4
			c0.1-0.9-0.6-1.6-1.4-1.7C64.7,45.9,64.6,45.9,64.5,45.9z"/>
		<path class="st2" d="M64.5,52.4H36.8c-0.9,0.1-1.5,0.8-1.4,1.7c0.1,0.8,0.7,1.4,1.4,1.4h27.7c0.9,0.1,1.6-0.6,1.7-1.4
			c0.1-0.9-0.6-1.6-1.4-1.7C64.7,52.4,64.6,52.4,64.5,52.4z"/>
		<path class="st2" d="M64.5,59H36.8c-0.9,0-1.5,0.7-1.5,1.5s0.7,1.5,1.5,1.5h27.7c0.9,0,1.5-0.7,1.5-1.5S65.4,59,64.5,59z"/>
		<path class="st3" d="M73.8,61.2c-7.8,0-14.1,6.3-14.1,14.1c0,7.8,6.3,14.1,14.1,14.1c7.8,0,14.1-6.3,14.1-14.1
			C87.8,67.5,81.5,61.2,73.8,61.2z"/>
		<path class="st2" d="M73.8,63.8c-6.3,0-11.5,5.1-11.5,11.5s5.1,11.5,11.5,11.5s11.5-5.1,11.5-11.5l0,0
			C85.2,68.9,80.1,63.8,73.8,63.8z M73.8,84.5c-5.1,0-9.3-4.1-9.3-9.2c0-5.1,4.1-9.3,9.2-9.3c5.1,0,9.3,4.1,9.3,9.2c0,0,0,0,0,0
			C83,80.4,78.9,84.5,73.8,84.5z"/>
		<polygon class="st4" points="79,69.8 72.4,75.6 68.7,71.9 66.6,73.7 72.5,81.1 72.5,81.1 81,71.6 		"/>
	</g>
</g>
</svg>
