<svg xmlns="http://www.w3.org/2000/svg" viewBox="0 0 100 100"><defs><style>.cls-1{isolation:isolate;}.cls-12,.cls-2,.cls-3,.cls-4,.cls-5{fill:#51b7d6;}.cls-2{opacity:0.5;}.cls-3{opacity:0.2;}.cls-11,.cls-3,.cls-4,.cls-5{mix-blend-mode:multiply;}.cls-11,.cls-4{opacity:0.15;}.cls-5{opacity:0.7;}.cls-6{fill:#009dd8;stroke:#1460aa;stroke-linecap:round;stroke-linejoin:round;stroke-width:2px;}.cls-7{fill:#1460aa;}.cls-10,.cls-8{fill:#60bbe1;}.cls-8{opacity:0.54;}.cls-9{fill:#7bcbea;}</style></defs><title>plantilla svg celestes</title><g class="cls-1"><g id="Layer_2" data-name="Layer 2"><circle class="cls-2" cx="51.84" cy="44.2" r="6.61"/><circle class="cls-2" cx="82.04" cy="44.2" r="6.61"/><path class="cls-3" d="M49.67,46a10.26,10.26,0,0,1,8.27-4.36,6.61,6.61,0,1,0-9.51,8.21A8.69,8.69,0,0,1,49.67,46Z"/><path class="cls-4" d="M77.93,49.38a15.55,15.55,0,0,1,9.81-8.52,6.61,6.61,0,1,0-9.81,8.52Z"/><path class="cls-5" d="M51.91,32.17S60.53,18.6,70.28,17.66A19.28,19.28,0,0,1,91.16,32.17Z"/><path class="cls-4" d="M74.29,22.81c6.9.15,11.13,4.41,14.77,9.36h2.1A19.28,19.28,0,0,0,70.28,17.66c-9.75.94-18.37,14.51-18.37,14.51h2.38C61.23,26.08,68,22.66,74.29,22.81Z"/><path class="cls-6" d="M93.44,34.68c0-3-1.88-20.17-21.32-19C58,16.59,54.66,28.16,48.23,30.37,35.55,34.74,41,47.13,41,47.13h2.8a8.54,8.54,0,0,0,2,3.2,8.69,8.69,0,0,0,12.28,0,8.54,8.54,0,0,0,2-3.2H74.13a8.54,8.54,0,0,0,2,3.2,8.69,8.69,0,0,0,12.28,0,8.26,8.26,0,0,0,2.4-4.64l2.85.11s0-6.73-.24-10.91ZM55,47.24a4.25,4.25,0,1,1,1.29-3.05A4.18,4.18,0,0,1,55,47.24Zm17.14-16-16.94.11c5.23-6,9.53-10.93,16.94-11.44Zm13.24,16a4.25,4.25,0,1,1,1.29-3.05A4.16,4.16,0,0,1,85.34,47.24Zm-10.69-16V20c10.18.53,12.53,7.45,13.57,11.2Z"/><path class="cls-7" d="M38.25,49.6a.73.73,0,0,0,.3-.07.52.52,0,0,0,.27-.17A.82.82,0,0,0,39,48.8a.78.78,0,0,0-.22-.55.83.83,0,0,0-.87-.18.68.68,0,0,0-.26.18.79.79,0,0,0-.23.55.83.83,0,0,0,.23.56A.76.76,0,0,0,38.25,49.6Z"/><path class="cls-8" d="M16.53,71A5.5,5.5,0,1,0,22,76.47,5.5,5.5,0,0,0,16.53,71Z"/><path class="cls-9" d="M16.53,66.64A9.69,9.69,0,0,0,9.22,70l1.59,1.1A7.86,7.86,0,0,1,24.29,75.2l1.89,0A9.73,9.73,0,0,0,16.53,66.64Z"/><path class="cls-8" d="M27.57,48.22c0-.76-1.12-1.57-2.15-1.82V50C26.45,49.79,27.57,49,27.57,48.22Z"/><path class="cls-9" d="M57.38,63.29l-.07,0H46.51a.8.8,0,0,1-.8-.8.79.79,0,0,1,.8-.79h9.73c-.6-1.08-1.27-2.26-1.51-2.58a1.49,1.49,0,0,0-1.2-.61h0l-12.42,0a1,1,0,0,0-.84.45,1,1,0,0,0-.07,1,9.53,9.53,0,0,1-8.73,13.51h0a9.43,9.43,0,0,1-3.39-.66,12.08,12.08,0,0,1,.5,2.49l35.76,0C63.79,66.51,57.45,63.32,57.38,63.29Z"/><path class="cls-8" d="M56.39,80.65a4.11,4.11,0,0,1-3.94-3H51a5.49,5.49,0,0,0,10.72,0H60.32A4.23,4.23,0,0,1,56.39,80.65Z"/><path class="cls-10" d="M56.39,79.09a2.64,2.64,0,0,0,2.26-1.44H54.1A2.54,2.54,0,0,0,56.39,79.09Z"/><path class="cls-9" d="M18.76,64.47a12,12,0,0,1,3.55,1.27,9.32,9.32,0,0,1,.52-5.21,50,50,0,0,1,4.91-8.33.21.21,0,0,1,0-.06l-.78.71C23.53,56.06,19.33,60,18.76,64.47Z"/><path class="cls-7" d="M44.75,61.7a.81.81,0,0,0-.61,0,1.45,1.45,0,0,0-.26.17.82.82,0,0,0-.23.58.75.75,0,0,0,.23.55.83.83,0,0,0,.57.23.77.77,0,0,0,.3-.06A.56.56,0,0,0,45,63a.76.76,0,0,0,.24-.55.83.83,0,0,0-.24-.58A.79.79,0,0,0,44.75,61.7Z"/><path class="cls-7" d="M16.53,72.42a4.12,4.12,0,0,0,0,8.23,4.22,4.22,0,0,0,4.11-4.11A4.12,4.12,0,0,0,16.53,72.42Zm0,6.67a2.56,2.56,0,1,1,2.55-2.55A2.66,2.66,0,0,1,16.53,79.09Z"/><g class="cls-11"><path class="cls-12" d="M38.25,49.6a.73.73,0,0,0,.3-.07.52.52,0,0,0,.27-.17A.82.82,0,0,0,39,48.8a.78.78,0,0,0-.22-.55.83.83,0,0,0-.87-.18.68.68,0,0,0-.26.18.79.79,0,0,0-.23.55.83.83,0,0,0,.23.56A.76.76,0,0,0,38.25,49.6Z"/><path class="cls-12" d="M16.53,71a5.3,5.3,0,0,0-2,.42c2.31.24,4.78,1.61,5.66,3.17,1.39,2.47.59,4.63-.87,6.61A5.47,5.47,0,0,0,16.53,71Z"/><path class="cls-12" d="M51.51,59.8c-2.14.33-4.24.82-5,1.85h9.76c-.47-.85-1-1.76-1.3-2.27C53.81,59.56,52.67,59.7,51.51,59.8Z"/><path class="cls-12" d="M60.11,71.76A10,10,0,0,1,61,75.27h3.3c-.54-8.76-6.88-11.95-6.95-12l-.07,0H50.25C54.49,64.75,58.2,67.43,60.11,71.76Z"/><path class="cls-12" d="M60.72,77.65a9.45,9.45,0,0,1-3.67,4.25,5.49,5.49,0,0,0,4.7-4.25Z"/><path class="cls-12" d="M26.84,53.55a24.52,24.52,0,0,0-3.22,4c-.9,1.6-1.41,3.4-2.46,4.93a8.85,8.85,0,0,1-2,2,11.89,11.89,0,0,1,3.16,1.18,9.32,9.32,0,0,1,.52-5.21A42.89,42.89,0,0,1,26.84,53.55Z"/></g><circle class="cls-10" cx="16.53" cy="76.5" r="2.95"/><path class="cls-7" d="M38.25,49.6a.73.73,0,0,0,.3-.07.52.52,0,0,0,.27-.17A.82.82,0,0,0,39,48.8a.78.78,0,0,0-.22-.55.83.83,0,0,0-.87-.18.68.68,0,0,0-.26.18.79.79,0,0,0-.23.55.83.83,0,0,0,.23.56A.76.76,0,0,0,38.25,49.6Z"/><path class="cls-7" d="M58.79,61.34c-.5-.91-1.69-3.08-2.15-3.7a3.92,3.92,0,0,0-3.11-1.56H41.09A3.38,3.38,0,0,0,38,60.88,7.16,7.16,0,0,1,31.53,71h-.06a7,7,0,0,1-5.78-3.14A6.79,6.79,0,0,1,25,61.43a49.21,49.21,0,0,1,4.67-7.9A11,11,0,0,0,31.08,51l4.23,2.41a1.16,1.16,0,0,0,.59.16,1.19,1.19,0,0,0,.59-2.23L33.36,49.6h2.83a.8.8,0,1,0,0-1.59H30.75l.43-5.93.75-.52v1.57a.8.8,0,1,0,1.59,0V38.06a.8.8,0,1,0-1.59,0v1.57L30,41a.78.78,0,0,0-.34.6l-.41,5.47a5.14,5.14,0,0,0-4.4-2.68,3.25,3.25,0,0,0-.49,0,1,1,0,0,0-.85,1v5.66a1.05,1.05,0,0,0,.91,1h0c-3.58,3.33-7.48,7.31-8,12.24a12.12,12.12,0,0,0-9.83,5.28,1.19,1.19,0,0,0,.3,1.66L9.46,73A7.87,7.87,0,1,0,24.31,77.6l24.3,0a7.87,7.87,0,0,0,15.56,0h1.38a1.3,1.3,0,0,0,.85-.41,1.38,1.38,0,0,0,.35-.91C66.75,66.52,60.4,62.26,58.79,61.34ZM25.42,46.4c1,.25,2.15,1.06,2.15,1.82S26.45,49.79,25.42,50ZM27,52.85l.78-.71a.21.21,0,0,0,0,.06,50,50,0,0,0-4.91,8.33,9.32,9.32,0,0,0-.52,5.21,12,12,0,0,0-3.55-1.27C19.33,60,23.53,56.06,27,52.85ZM16.53,82A5.5,5.5,0,1,1,22,76.47,5.5,5.5,0,0,1,16.53,82Zm7.76-6.76a7.86,7.86,0,0,0-13.48-4.14L9.22,70a9.72,9.72,0,0,1,17,5.22ZM56.39,82A5.51,5.51,0,0,1,51,77.64h1.42a4.11,4.11,0,0,0,3.94,3,4.23,4.23,0,0,0,3.93-3h1.43A5.51,5.51,0,0,1,56.39,82ZM54.1,77.64h4.55a2.64,2.64,0,0,1-2.26,1.44A2.54,2.54,0,0,1,54.1,77.64ZM28.57,75.22a12.08,12.08,0,0,0-.5-2.49,9.43,9.43,0,0,0,3.39.66h0a9.53,9.53,0,0,0,8.73-13.51,1,1,0,0,1,.07-1,1,1,0,0,1,.84-.45l12.42,0h0a1.49,1.49,0,0,1,1.2.61c.24.32.91,1.5,1.51,2.58H46.51a.79.79,0,0,0-.8.79.8.8,0,0,0,.8.8h10.8l.07,0c.07,0,6.41,3.22,6.95,12Z"/><path class="cls-7" d="M44.75,61.7a.81.81,0,0,0-.61,0,1.45,1.45,0,0,0-.26.17.82.82,0,0,0-.23.58.75.75,0,0,0,.23.55.83.83,0,0,0,.57.23.77.77,0,0,0,.3-.06A.56.56,0,0,0,45,63a.76.76,0,0,0,.24-.55.83.83,0,0,0-.24-.58A.79.79,0,0,0,44.75,61.7Z"/><path class="cls-7" d="M16.53,72.42a4.12,4.12,0,0,0,0,8.23,4.22,4.22,0,0,0,4.11-4.11A4.12,4.12,0,0,0,16.53,72.42Zm0,6.67a2.56,2.56,0,1,1,2.55-2.55A2.66,2.66,0,0,1,16.53,79.09Z"/></g></g></svg>