<svg xmlns="http://www.w3.org/2000/svg" viewBox="0 0 100 100"><defs><style>.cls-1{isolation:isolate;}.cls-2,.cls-3{fill:#009dd8;}.cls-2{opacity:0.7;}.cls-3{opacity:0.18;mix-blend-mode:multiply;}.cls-4{fill:#1460aa;}.cls-5{fill:#fff;}</style></defs><title>plantilla svg celestes</title><g class="cls-1"><g id="Layer_2" data-name="Layer 2"><path class="cls-2" d="M67.94,16.31a7.32,7.32,0,0,0-5.06,1,8.86,8.86,0,0,0-3.7,5.93c-1.54,7.06-2.93,10.46-9.11,11-6.21-.57-7.59-4-9.06-11.1a8.86,8.86,0,0,0-3.64-6,7.44,7.44,0,0,0-5-1.05,1.72,1.72,0,0,0-1.46,1.69l-.24,46.11a1.74,1.74,0,0,0,2,1.72,4.19,4.19,0,0,1,2.75.57,5.81,5.81,0,0,1,2.24,3.92c1.32,6.38,2.69,13,12,13.81H50c9.31-.71,10.74-7.25,12.11-13.58a6,6,0,0,1,2.27-4,4.23,4.23,0,0,1,2.78-.57,1.73,1.73,0,0,0,2-1.7L69.37,18A1.71,1.71,0,0,0,67.94,16.31Z"/><path class="cls-3" d="M67.94,16.31c-.41-.08-6.25-1.53-7.06,5.63,2.36,47.56-6.43,59.13-21.36,55.18A12.34,12.34,0,0,0,49.59,84H50c9.31-.71,10.74-7.25,12.11-13.58a6,6,0,0,1,2.27-4,4.23,4.23,0,0,1,2.78-.57,1.73,1.73,0,0,0,2-1.7L69.37,18A1.71,1.71,0,0,0,67.94,16.31Z"/><path class="cls-4" d="M68.88,15.61l-.57-.13a8.12,8.12,0,0,0-5.9,1.08,9.66,9.66,0,0,0-4.09,6.49c-1.61,7.35-2.78,9.81-8.25,10.3-5.53-.55-6.67-3-8.19-10.38a9.76,9.76,0,0,0-4-6.54,8.21,8.21,0,0,0-5.91-1.13l-.56.12A1.77,1.77,0,0,0,30,17.15L29.74,65a1.77,1.77,0,0,0,2.16,1.74l.85-.19a3.29,3.29,0,0,1,2.14.44,5.13,5.13,0,0,1,1.87,3.44C38.25,77.6,39.94,84,49.57,84.84H50c9.65-.73,11.42-7.11,13-14.32a5.15,5.15,0,0,1,1.87-3.36A3.41,3.41,0,0,1,67,66.71l.87.19A1.79,1.79,0,0,0,70,65.17l.25-47.82A1.77,1.77,0,0,0,68.88,15.61ZM67.4,64.13a5.92,5.92,0,0,0-4,.83,7.55,7.55,0,0,0-3,5.05c-1.49,6.88-2.91,11.64-10.55,12.22h-.1c-7.64-.68-9-5.46-10.44-12.44a7.43,7.43,0,0,0-3-5,5.85,5.85,0,0,0-4-.83l.24-46.11a5.71,5.71,0,0,1,3.83.8,7.24,7.24,0,0,1,2.89,4.87C40.69,30.14,42.12,35.26,50,36h.22c7.76-.63,9.26-5.74,10.7-12.37a7.2,7.2,0,0,1,2.94-4.83A5.61,5.61,0,0,1,67.64,18Z"/><path class="cls-5" d="M42.06,45.66c-2.84,0-4.65,2.38-4.65,5.21v0c0,2.83,1.78,5.18,4.63,5.18s4.65-2.37,4.65-5.21v0C46.69,48,44.91,45.66,42.06,45.66ZM43.9,50.9c0,1.59-.72,2.72-1.84,2.72s-1.86-1.15-1.86-2.75v0c0-1.6.73-2.73,1.84-2.73s1.86,1.16,1.86,2.76Z"/><path class="cls-5" d="M52.52,45.66c-2.85,0-4.65,2.38-4.65,5.21v0c0,2.83,1.77,5.18,4.62,5.18s4.65-2.37,4.65-5.21v0C57.14,48,55.37,45.66,52.52,45.66Zm1.83,5.24c0,1.59-.71,2.72-1.83,2.72s-1.86-1.15-1.86-2.75v0c0-1.6.73-2.73,1.83-2.73s1.86,1.16,1.86,2.76Z"/><polygon class="cls-5" points="57.63 46.62 58.16 48.77 59.85 48.37 59.85 55.88 62.59 55.88 62.59 45.79 60.57 45.79 57.63 46.62"/><rect class="cls-4" x="37.41" y="58.39" width="25.18" height="2.61" rx="1.01" ry="1.01"/><rect class="cls-4" x="37.41" y="40.74" width="25.18" height="2.61" rx="1.01" ry="1.01"/></g></g></svg>