<svg xmlns="http://www.w3.org/2000/svg" viewBox="0 0 100 100"><defs><style>.cls-1{opacity:0.63;}.cls-2{fill:#51b7d6;}.cls-3{opacity:0.3;}.cls-4{fill:#0094d4;}.cls-5{opacity:0.33;}.cls-6{fill:#fff;}.cls-7{fill:#1460aa;}.cls-8{opacity:0.77;}</style></defs><title>plantilla svg celestes</title><g id="Layer_2" data-name="Layer 2"><g class="cls-1"><polygon class="cls-2" points="27.19 81.21 42.87 81.74 43.04 65.94 27.35 65.85 27.19 81.21"/></g><g class="cls-3"><polygon class="cls-2" points="43.04 65.94 36.18 65.9 36.14 81.51 43.07 81.66 43.04 65.94"/></g><g class="cls-3"><circle class="cls-4" cx="34.88" cy="67.12" r="0.75"/></g><g class="cls-3"><circle class="cls-4" cx="33.12" cy="70.29" r="1.36"/></g><polygon class="cls-4" points="42.39 57.75 28.26 57.71 28.29 52.58 42.43 52.63 42.39 57.75"/><g class="cls-1"><polygon class="cls-2" points="62.96 50.15 51.52 60.59 35.71 43.39 34.94 37.82 41.56 31.77 47.3 32.81 62.96 50.15"/></g><g class="cls-5"><polygon class="cls-6" points="57.65 55.05 56.83 55.76 38.36 35.68 38.74 34.59 57.65 55.05"/></g><g class="cls-3"><polygon class="cls-2" points="35.71 43.39 34.94 37.82 38.02 35.39 56.83 55.76 51.56 60.3 35.71 43.39"/></g><g class="cls-3"><circle class="cls-4" cx="45.11" cy="38.32" r="0.75"/></g><g class="cls-3"><circle class="cls-4" cx="49.81" cy="42.12" r="1.36"/></g><rect class="cls-4" x="33.62" y="30.1" width="5.73" height="5.13" transform="translate(85.46 32.15) rotate(137.57)"/><path class="cls-7" d="M82.9,70.1a1.74,1.74,0,0,0-1.22-.57,1.81,1.81,0,0,0-1.27.45l-1.3,1.2-2.72-3L79.92,65a1.76,1.76,0,1,0-2.37-2.6l-1.15,1L48.16,32a1.16,1.16,0,0,0-.63-.35l-5.69-1.07a1.21,1.21,0,0,0-1,.28l-.3.28-2.81-3.08a1.15,1.15,0,0,0-.8-.38,1.1,1.1,0,0,0-.83.3L34.87,29.1,23.62,16.8l.68,4.31,8.79,9.62-1.23,1.12a1.16,1.16,0,0,0-.37.8,1.11,1.11,0,0,0,.3.83l2.82,3.08-.45.41a1.15,1.15,0,0,0-.36,1l.68,5.64a1.12,1.12,0,0,0,.3.64l6.49,7.23-13,0h0a1.16,1.16,0,0,0-1.15,1.15l0,5.13a1.16,1.16,0,0,0,1.16,1.16H29.7v1.57l-3.06,2.45a1.14,1.14,0,0,0-.44.89L26.1,81.89a1.16,1.16,0,0,0,1.14,1.16l15.81.1h0a1.14,1.14,0,0,0,.81-.33,1.15,1.15,0,0,0,.35-.81l.13-18.11A1.18,1.18,0,0,0,44,63l-2.86-2.47,0-1.63h1.26a1.15,1.15,0,0,0,1.16-1.15l0-3.74L63,75.66l-1,1a1.76,1.76,0,0,0-.11,2.49,1.71,1.71,0,0,0,1.05.55,1.75,1.75,0,0,0,1.43-.44L67.88,76l2.72,3-1.3,1.2a1.77,1.77,0,0,0-.58,1.22,1.77,1.77,0,0,0,1.52,1.82h.24a1.76,1.76,0,0,0,1.19-.46L82.78,72.58a1.79,1.79,0,0,0,.58-1.22A1.76,1.76,0,0,0,82.9,70.1ZM57.09,56.82a.91.91,0,0,0,.31-.64,1,1,0,0,0-.25-.68.93.93,0,0,0-1.31-.06l-4.16,3.8-2.27-2.48L51,55.33a.94.94,0,0,0,.3-.64A1,1,0,0,0,51,54,.93.93,0,0,0,49.71,54l-1.57,1.43L45.86,52.9,50,49.09a.93.93,0,0,0,.06-1.32.94.94,0,0,0-1.32-.06L44.6,51.52,42.32,49,43.9,47.6a.93.93,0,0,0-1.26-1.38l-1.58,1.45-2.28-2.48L43,41.36A.94.94,0,0,0,43,40a.9.9,0,0,0-.64-.3,1,1,0,0,0-.67.24l-4.19,3.83L36.73,43l-.57-4.68L42,33l4.74.89L74.7,65l-10,9.11L52.94,60.62Zm-20.91-22-1.91-2.08,2.53-2.31,1.9,2.08ZM75,69.47l2.72,3-2.19,2-2.71-3Zm-3.56,3.25,2.71,3-2.18,2-2.72-3ZM41.26,53.78V56.6l-10.39-.05H29.42l0-2.82ZM32,58.88l6.81,0L38.76,61a1.17,1.17,0,0,0,.4.91L42,64.41l-.11,16.42-13.51-.08.11-16.4,3.07-2.45A1.18,1.18,0,0,0,32,61Z"/><g class="cls-8"><path class="cls-2" d="M25.75,32.16a3.07,3.07,0,1,1-6.12-.1c0-1.8,3.14-5.61,3.14-5.61C23,26.45,25.77,30.36,25.75,32.16Z"/></g><g class="cls-3"><path class="cls-4" d="M22.46,26.84c-.33,2.47-1.46,5.27.05,7.45a3.54,3.54,0,0,0,1,1,2.94,2.94,0,0,1-.84.12,3.17,3.17,0,0,1-3-3.31C19.65,30.61,21.68,27.86,22.46,26.84Z"/></g><g class="cls-8"><path class="cls-2" d="M19.49,39.06A1.43,1.43,0,1,1,16.64,39c0-.83,1.46-2.61,1.46-2.61A6.08,6.08,0,0,1,19.49,39.06Z"/></g><g class="cls-3"><path class="cls-4" d="M18,36.59c-.15,1.15-.68,2.44,0,3.46a1.92,1.92,0,0,0,.45.45,1.6,1.6,0,0,1-.39,0A1.48,1.48,0,0,1,16.64,39,6.23,6.23,0,0,1,18,36.59Z"/></g></g></svg>