<svg xmlns="http://www.w3.org/2000/svg" viewBox="0 0 100 100"><defs><style>.cls-1{isolation:isolate;}.cls-2{fill:#7ed9ed;}.cls-3{fill:#1460aa;}.cls-4{fill:#0dbfd1;}.cls-5,.cls-6{fill:#fff;}.cls-5{stroke:#fff;stroke-miterlimit:10;}.cls-7{fill:#0094d4;opacity:0.15;mix-blend-mode:multiply;}</style></defs><title>plantilla svg celestes</title><g class="cls-1"><g id="Layer_2" data-name="Layer 2"><rect class="cls-2" x="18.37" y="28.09" width="63.26" height="43.81" rx="3.52" ry="3.52"/><path class="cls-3" d="M60.54,34.87a5.24,5.24,0,0,0-3.62-1.51h0c-2.59,0-5,1.9-6.92,2.06-2-.16-4.33-2.06-6.92-2.06a5.24,5.24,0,0,0-3.62,1.51c-4.32,3.9-2.51,10.69-.35,14,1.94,3,5.43,5.25,5.64,18.2h2.82c0-4.51-.15-8.24-.89-11.12-1.14-4.43-2.37-6.58-3.56-8.15-.3-.38-.54-.73-.76-1a9,9,0,0,1-1.8-7.26,3.16,3.16,0,0,1,1.49-2.09,2.73,2.73,0,0,1,1.26-.28,3.91,3.91,0,0,1,.91.11A17.66,17.66,0,0,1,47,38.53a8.09,8.09,0,0,0,2.92.76h.18A8.09,8.09,0,0,0,53,38.53a17.66,17.66,0,0,1,2.77-1.25,3.91,3.91,0,0,1,.91-.11,2.73,2.73,0,0,1,1.26.28,3.16,3.16,0,0,1,1.49,2.09,9,9,0,0,1-1.8,7.26c-.22.3-.46.65-.76,1-1.19,1.57-2.42,3.72-3.56,8.15-.74,2.88-.87,6.61-.89,11.12h2.82c.21-12.95,3.7-15.2,5.64-18.2C63.05,45.56,64.86,38.77,60.54,34.87Z"/><path class="cls-4" d="M52.87,55.86c1.21-4.69,2.52-6.83,3.65-8.31.19-.24.35-.47.5-.68l.25-.34A8.54,8.54,0,0,0,59,39.65a2.66,2.66,0,0,0-1.26-1.79,2.18,2.18,0,0,0-1-.23,3.19,3.19,0,0,0-.8.1,8.42,8.42,0,0,0-1.74.74q-.46.26-1,.48a8.43,8.43,0,0,1-3.08.8h-.22a8.43,8.43,0,0,1-3.08-.8q-.5-.23-1-.48a8.42,8.42,0,0,0-1.74-.74,3.19,3.19,0,0,0-.8-.1,2.18,2.18,0,0,0-1,.23A2.66,2.66,0,0,0,41,39.65a8.54,8.54,0,0,0,1.72,6.88l.25.34c.15.21.31.44.5.68,1.13,1.48,2.44,3.62,3.65,8.31.72,2.81.87,6.38.9,11.23H52C52,62.24,52.15,58.67,52.87,55.86Z"/><path class="cls-5" d="M60.25,50.58c.36-.48.71-.94,1-1.43,2.24-3.48,4.11-10.52-.43-14.62a5.73,5.73,0,0,0-3.93-1.63h0a11,11,0,0,0-4.3,1.19A9.49,9.49,0,0,1,50,35a9.49,9.49,0,0,1-2.62-.86,11,11,0,0,0-4.3-1.19,5.73,5.73,0,0,0-3.93,1.63c-4.54,4.1-2.67,11.14-.43,14.62.32.49.67,1,1,1.43,1.93,2.55,4.42,5.49,4.62,16h.46C44.59,53.9,41,51.88,39.11,48.9c-2.16-3.34-4-10.13.35-14a5.24,5.24,0,0,1,3.62-1.51c2.59,0,5,1.9,6.92,2.06,2-.16,4.33-2.06,6.92-2.06h0a5.24,5.24,0,0,1,3.62,1.51c4.32,3.9,2.51,10.69.35,14-1.92,3-5.37,5-5.62,17.71h.46C55.94,56.07,58.32,53.13,60.25,50.58Z"/><path class="cls-6" d="M53.32,56c1.14-4.43,2.37-6.58,3.56-8.15.3-.38.54-.73.76-1a9,9,0,0,0,1.8-7.26A3.16,3.16,0,0,0,58,37.45a2.73,2.73,0,0,0-1.26-.28,3.91,3.91,0,0,0-.91.11A17.66,17.66,0,0,0,53,38.53a8.09,8.09,0,0,1-2.92.76h-.18A8.09,8.09,0,0,1,47,38.53a17.66,17.66,0,0,0-2.77-1.25,3.91,3.91,0,0,0-.91-.11,2.73,2.73,0,0,0-1.26.28,3.16,3.16,0,0,0-1.49,2.09,9,9,0,0,0,1.8,7.26c.22.3.46.65.76,1,1.19,1.57,2.42,3.72,3.56,8.15.74,2.88.87,6.61.89,11.12H48c0-4.85-.18-8.42-.9-11.23-1.21-4.69-2.52-6.83-3.65-8.31-.19-.24-.35-.47-.5-.68l-.25-.34A8.54,8.54,0,0,1,41,39.65a2.66,2.66,0,0,1,1.26-1.79,2.18,2.18,0,0,1,1-.23,3.19,3.19,0,0,1,.8.1,8.42,8.42,0,0,1,1.74.74q.46.26,1,.48a8.43,8.43,0,0,0,3.08.8h.22a8.43,8.43,0,0,0,3.08-.8q.5-.23,1-.48a8.42,8.42,0,0,1,1.74-.74,3.19,3.19,0,0,1,.8-.1,2.18,2.18,0,0,1,1,.23A2.66,2.66,0,0,1,59,39.65a8.54,8.54,0,0,1-1.72,6.88l-.25.34c-.15.21-.31.44-.5.68-1.13,1.48-2.44,3.62-3.65,8.31-.72,2.81-.87,6.38-.9,11.23h.46C52.45,62.59,52.58,58.86,53.32,56Z"/><path class="cls-6" d="M53,48.65a3.09,3.09,0,0,0-5.94,0c-.65,2.16,1.8,4.15,2.1,7.72.07.91.11,7.73.13,10.73H50.8c0-3,.05-9.82.13-10.73C51.23,52.8,53.67,50.81,53,48.65Z"/><circle class="cls-6" cx="43.73" cy="40.45" r="2.01"/><circle class="cls-6" cx="43.41" cy="44.46" r="0.82"/><path class="cls-6" d="M48.36,41.54a.93.93,0,1,0-.92.93A.93.93,0,0,0,48.36,41.54Z"/><path class="cls-6" d="M53.17,44.15a1.06,1.06,0,1,0,1.06-1.06A1.05,1.05,0,0,0,53.17,44.15Z"/><path class="cls-6" d="M45.87,44.55a1.1,1.1,0,1,0,1.1-1.1A1.1,1.1,0,0,0,45.87,44.55Z"/><path class="cls-6" d="M45.44,48.14A.64.64,0,1,0,45,46.93a.64.64,0,0,0,.42,1.21Z"/><path class="cls-6" d="M57,43.86a.65.65,0,0,0-.4.81.65.65,0,1,0,1.22-.42A.64.64,0,0,0,57,43.86Z"/><circle class="cls-6" cx="56.31" cy="40.45" r="1.9"/><circle class="cls-6" cx="54.89" cy="47.35" r="0.82"/><path class="cls-6" d="M50.41,45.61a.73.73,0,1,0-.74-.73A.73.73,0,0,0,50.41,45.61Z"/><path class="cls-6" d="M51.14,43a1.36,1.36,0,1,0-1.36-1.36A1.36,1.36,0,0,0,51.14,43Z"/><path class="cls-7" d="M48,67.18C23.71,67,22,54.47,18.08,42.36v28.3a2.43,2.43,0,0,0,2.42,2.42h59a2.43,2.43,0,0,0,2.42-2.42v-3.5S55.3,67.24,48,67.18Z"/><path class="cls-3" d="M78.61,26.55H21.39a4.67,4.67,0,0,0-4.67,4.66V68.79a4.67,4.67,0,0,0,4.67,4.66H78.61a4.67,4.67,0,0,0,4.67-4.66V31.21A4.67,4.67,0,0,0,78.61,26.55Zm2,42.24a2,2,0,0,1-2,2H21.39a2,2,0,0,1-2-2V31.21a2,2,0,0,1,2-2H78.61a2,2,0,0,1,2,2Z"/></g></g></svg>