<svg id="Layer_1" data-name="Layer 1" xmlns="http://www.w3.org/2000/svg" viewBox="0 0 155 60"><defs><style>.cls-1{fill:#fff;}</style></defs><title>Logo_TecnopolisFederal-26</title><path class="cls-1" d="M11.43,28.48a.56.56,0,0,1-.56-.55V14.4H6.71a.56.56,0,0,1-.56-.55V11.55A.56.56,0,0,1,6.71,11H18.8a.56.56,0,0,1,.56.56v2.29a.56.56,0,0,1-.56.55H14.62V27.93a.56.56,0,0,1-.56.55Z"/><path class="cls-1" d="M21.68,28.48a.56.56,0,0,1-.56-.55V11.55a.56.56,0,0,1,.56-.56h10.2a.56.56,0,0,1,.56.56v2.29a.56.56,0,0,1-.56.55h-7v3.73h5a.56.56,0,0,1,.56.56v2.25a.56.56,0,0,1-.56.56h-5v3.59h7.08a.56.56,0,0,1,.56.56v2.28a.56.56,0,0,1-.56.55Z"/><path class="cls-1" d="M42.13,28.66a10.43,10.43,0,0,1-2.75-.36A8.4,8.4,0,0,1,35,25.4a7.94,7.94,0,0,1-1.3-2.49,10.12,10.12,0,0,1-.47-3.13,10.68,10.68,0,0,1,.37-2.84,8.38,8.38,0,0,1,2.93-4.41A7.91,7.91,0,0,1,39,11.25a10.26,10.26,0,0,1,3.11-.46,9,9,0,0,1,2.44.34,9.17,9.17,0,0,1,4.26,2.72.56.56,0,0,1,.14.41.55.55,0,0,1-.19.38l-1.92,1.64a.55.55,0,0,1-.77,0A6.25,6.25,0,0,0,44.44,15a4.83,4.83,0,0,0-2.31-.58,5.48,5.48,0,0,0-1.18.13,4.7,4.7,0,0,0-1.06.37,4.81,4.81,0,0,0-.92.59,4.43,4.43,0,0,0-.76.8,5.24,5.24,0,0,0-.57,1,5.54,5.54,0,0,0-.36,1.18,7,7,0,0,0-.13,1.35,5.84,5.84,0,0,0,.63,2.74,4.63,4.63,0,0,0,1.76,1.87,5.19,5.19,0,0,0,4.92.11,5.76,5.76,0,0,0,1.63-1.26.55.55,0,0,1,.77,0l1.92,1.65a.55.55,0,0,1,.19.38.56.56,0,0,1-.14.41,9.08,9.08,0,0,1-2.73,2.11,8.67,8.67,0,0,1-4,.91"/><path class="cls-1" d="M62.21,28.48a.56.56,0,0,1-.46-.25L54.63,17.5V27.93a.56.56,0,0,1-.56.55H51.44a.56.56,0,0,1-.56-.55V11.55a.56.56,0,0,1,.56-.56h2.81a.56.56,0,0,1,.46.25l7.21,11V11.55a.56.56,0,0,1,.56-.56h2.65a.56.56,0,0,1,.56.56V27.93a.56.56,0,0,1-.56.55Z"/><path class="cls-1" d="M76.53,28.68A9.69,9.69,0,0,1,72.9,28a8.29,8.29,0,0,1-2.84-1.86,8.47,8.47,0,0,1-1.82-2.84,10,10,0,0,1,0-7.15,8.39,8.39,0,0,1,1.82-2.84,8.3,8.3,0,0,1,2.85-1.85,10.06,10.06,0,0,1,7.19,0,8.5,8.5,0,0,1,2.83,1.82,8.27,8.27,0,0,1,1.86,2.83,10.13,10.13,0,0,1,0,7.27,8.26,8.26,0,0,1-1.86,2.84A8.49,8.49,0,0,1,80.09,28a9.59,9.59,0,0,1-3.56.65m0-14.35A4.86,4.86,0,0,0,72.13,17a6.22,6.22,0,0,0,0,5.48,4.92,4.92,0,0,0,1.79,2,5,5,0,0,0,4.61.31,4.93,4.93,0,0,0,1.59-1.12,5.13,5.13,0,0,0,1-1.72,6.1,6.1,0,0,0,.38-2.17A5.87,5.87,0,0,0,80.9,17a4.81,4.81,0,0,0-4.36-2.62"/><path class="cls-1" d="M110.25,28.68a9.69,9.69,0,0,1-3.63-.67,8.09,8.09,0,0,1-4.66-4.7,10.07,10.07,0,0,1,0-7.15,8.4,8.4,0,0,1,1.83-2.84,8.29,8.29,0,0,1,2.85-1.85,10.06,10.06,0,0,1,7.19,0,8.49,8.49,0,0,1,2.83,1.82,8.27,8.27,0,0,1,1.86,2.83,10.13,10.13,0,0,1,0,7.27,8.27,8.27,0,0,1-1.86,2.84A8.49,8.49,0,0,1,113.81,28a9.6,9.6,0,0,1-3.56.65m0-14.35A4.86,4.86,0,0,0,105.85,17a6.21,6.21,0,0,0,0,5.48,4.92,4.92,0,0,0,1.79,2,4.86,4.86,0,0,0,2.62.72,4.92,4.92,0,0,0,2-.41,4.83,4.83,0,0,0,1.59-1.12,5.22,5.22,0,0,0,1-1.73,6.1,6.1,0,0,0,.38-2.17,5.86,5.86,0,0,0-.66-2.78,4.81,4.81,0,0,0-4.36-2.62"/><path class="cls-1" d="M121.5,28.48a.56.56,0,0,1-.56-.55V11.55a.56.56,0,0,1,.56-.56h2.65a.56.56,0,0,1,.55.56V25.09h7.05a.56.56,0,0,1,.56.56v2.28a.56.56,0,0,1-.56.55Z"/><path class="cls-1" d="M137.57,11.55V27.93a.56.56,0,0,1-.56.55h-2.65a.56.56,0,0,1-.56-.55V11.55a.56.56,0,0,1,.56-.56H137a.56.56,0,0,1,.56.56"/><path class="cls-1" d="M145.51,28.68a8.73,8.73,0,0,1-3.38-.68,8.88,8.88,0,0,1-2.74-1.82.55.55,0,0,1,0-.75l1.56-1.91a.55.55,0,0,1,.83,0,6.39,6.39,0,0,0,.71.63,6.21,6.21,0,0,0,1.06.65,5.34,5.34,0,0,0,1.05.38,4.29,4.29,0,0,0,1,.12,3.33,3.33,0,0,0,1.29-.22,1.63,1.63,0,0,0,.75-.57,1.46,1.46,0,0,0,.24-.84,1.62,1.62,0,0,0-.1-.6,1.52,1.52,0,0,0-.29-.46,2.22,2.22,0,0,0-.55-.4,7.38,7.38,0,0,0-.8-.38c-.28-.11-.65-.25-1.11-.4L143.88,21c-.33-.13-.68-.29-1.06-.48a8.5,8.5,0,0,1-1-.59,6.38,6.38,0,0,1-.84-.71,4.1,4.1,0,0,1-.69-.9,4.73,4.73,0,0,1-.43-1.09,5.08,5.08,0,0,1-.17-1.31,4.63,4.63,0,0,1,.76-2.57,5.27,5.27,0,0,1,2.06-1.82,6.49,6.49,0,0,1,2.86-.68h.1a8.86,8.86,0,0,1,5.49,2,.55.55,0,0,1,.1.77l-1.5,2a.56.56,0,0,1-.44.22.54.54,0,0,1-.34-.11,5.7,5.7,0,0,0-3.33-1.41,2.11,2.11,0,0,0-1.36.42,1.37,1.37,0,0,0-.51,1.12,1.18,1.18,0,0,0,.1.5,1.47,1.47,0,0,0,.28.41,2.4,2.4,0,0,0,.55.39c.26.14.52.27.77.38l1.06.43a30.79,30.79,0,0,1,2.86,1.22,4.68,4.68,0,0,1,2.21,2.25,5.07,5.07,0,0,1,.34,1.93,5.43,5.43,0,0,1-.38,2.05,4.57,4.57,0,0,1-1,1.56,6,6,0,0,1-1.44,1,6.63,6.63,0,0,1-1.68.62,8.2,8.2,0,0,1-1.74.19"/><path class="cls-1" d="M73,9.34a.55.55,0,0,1-.5-.31l-.86-1.75a.56.56,0,0,1,.29-.76l6.9-2.86a.56.56,0,0,1,.21,0,.55.55,0,0,1,.52.35l1,2.43a.56.56,0,0,1-.35.74l-7,2.17-.17,0"/><path class="cls-1" d="M87.93,28.68a.56.56,0,0,1-.56-.55V11.75a.56.56,0,0,1,.56-.56h6a8,8,0,0,1,2.74.44,4.81,4.81,0,0,1,1.94,1.25,5.33,5.33,0,0,1,1.1,1.86,7.18,7.18,0,0,1,.36,2.34,6.46,6.46,0,0,1-.46,2.52,4.66,4.66,0,0,1-1.33,1.81,5.8,5.8,0,0,1-2,1.06,9.23,9.23,0,0,1-2.62.35h-2.3v5.3a.56.56,0,0,1-.56.55Zm5.24-9.23a3.24,3.24,0,0,0,2.17-.64,2.12,2.12,0,0,0,.73-1.71,2.16,2.16,0,0,0-.7-1.71,3,3,0,0,0-2.05-.63h-2v4.69Z"/><path class="cls-1" d="M45.11,53.87a.56.56,0,0,1-.56-.56V36.94a.56.56,0,0,1,.56-.56H55.3a.56.56,0,0,1,.56.56v2.29a.56.56,0,0,1-.56.55h-7v3.73h5a.56.56,0,0,1,.56.56v2.25a.56.56,0,0,1-.56.56h-5v3.59h7.08a.56.56,0,0,1,.56.56v2.28a.56.56,0,0,1-.56.56Z"/><path class="cls-1" d="M74.65,53.87a.56.56,0,0,1-.56-.56V36.94a.56.56,0,0,1,.56-.56h10.2a.56.56,0,0,1,.56.56v2.29a.56.56,0,0,1-.56.55h-7v3.73h5a.56.56,0,0,1,.56.56v2.25a.56.56,0,0,1-.56.56h-5v3.59h7.08a.56.56,0,0,1,.56.56v2.28a.56.56,0,0,1-.56.56Z"/><path class="cls-1" d="M118.8,53.87a.56.56,0,0,1-.56-.56V36.94a.56.56,0,0,1,.56-.56h2.65a.56.56,0,0,1,.55.56V50.47h7.05a.56.56,0,0,1,.56.56v2.28a.56.56,0,0,1-.56.56Z"/><path class="cls-1" d="M42.79,39.43V36.94a.56.56,0,0,0-.56-.56H31.54a.56.56,0,0,0-.56.56V53.31a.56.56,0,0,0,.56.56h2.79a.55.55,0,0,0,.56-.56V47.48h6a.56.56,0,0,0,.56-.56V44.44a.56.56,0,0,0-.56-.56h-6V40h7.34a.56.56,0,0,0,.56-.56"/><path class="cls-1" d="M71.87,41.6a7.88,7.88,0,0,0-1.81-2.78A8.24,8.24,0,0,0,67.19,37a10.42,10.42,0,0,0-3.74-.65H58.22a.55.55,0,0,0-.55.55V53.31a.55.55,0,0,0,.55.55h5.3a10.65,10.65,0,0,0,3.77-.64,7.59,7.59,0,0,0,4.61-4.54,9.76,9.76,0,0,0,.62-3.53,9.59,9.59,0,0,0-.64-3.55m-3.65,5.66a5,5,0,0,1-1.06,1.68,4.87,4.87,0,0,1-1.68,1.11,5.76,5.76,0,0,1-2.19.41H61.39V39.8h2.12a5.11,5.11,0,0,1,2.63.68A4.76,4.76,0,0,1,68,42.38a6.13,6.13,0,0,1,.27,4.88"/><path class="cls-1" d="M100.06,53l-3.73-5.48v0a5.39,5.39,0,0,0,1.92-1.07,4.72,4.72,0,0,0,1.23-1.76,6.35,6.35,0,0,0,.44-2.43,7,7,0,0,0-.37-2.33A5.28,5.28,0,0,0,98.45,38a4.75,4.75,0,0,0-1.91-1.23,7.9,7.9,0,0,0-2.72-.43H87.77a.55.55,0,0,0-.55.55V53.31a.55.55,0,0,0,.55.55h2.3a.56.56,0,0,0,.56-.56V47.88h2l3.75,5.73a.55.55,0,0,0,.46.25H99.6a.55.55,0,0,0,.46-.86m-4.58-8.9a3.64,3.64,0,0,1-2.43.73H90.63V39.46H93.2a3.4,3.4,0,0,1,2.31.72,2.47,2.47,0,0,1,.82,2,2.45,2.45,0,0,1-.85,2"/><path class="cls-1" d="M116.9,53.12l-6.09-16.38a.56.56,0,0,0-.52-.36h-2.57a.55.55,0,0,0-.52.36l-6.07,16.38a.55.55,0,0,0,.52.74h2.43a.55.55,0,0,0,.52-.37l1.06-3.12h6.71l1.06,3.12a.55.55,0,0,0,.52.37h2.43a.55.55,0,0,0,.52-.75m-10.24-5.71L109,40.55h0l2.34,6.86Z"/></svg>