<svg width="36" height="62" viewBox="0 0 36 62" fill="none" xmlns="http://www.w3.org/2000/svg">
<path d="M33.6 1.90005C33 1.80004 31.1 1.60004 29.2 2.80004C27.6 3.80004 26.5 5.60005 26 8.00005C24.7 14.1001 23.5 17.7001 18.1 17.6001C12.3 17.5001 11.5 14.2001 10.2 8.00005C9.69995 5.60005 8.59995 3.90004 6.99995 2.80004C5.19995 1.60004 3.19996 1.80004 2.59996 1.90005C1.89996 2.00005 1.29996 2.60005 1.29996 3.40005L1.19995 43.5C1.19995 43.9 1.39995 44.4001 1.69995 44.6001C1.99995 44.9001 2.49995 45 2.89995 44.9C3.09995 44.9 4.29996 44.7 5.29996 45.4C6.19996 46 6.89996 47.2 7.29996 48.8C8.49996 54.3 9.69996 60.1 17.8 60.8H18H18.1C26.2 60.2 27.4 54.5 28.6 49C29 47.3 29.6 46.2 30.6 45.5C31.7 44.8 32.8 45 33 45C33.4 45.1 33.9 44.9 34.2 44.7C34.5 44.4 34.7 44.0001 34.7 43.6001L34.8 3.50005C34.9 2.70005 34.3 2.00005 33.6 1.90005Z" fill="white"/>
<path d="M34.9 3.39991L34.8 43.4999C34.8 43.8999 34.6 44.3999 34.3 44.5999C34 44.8999 33.5 44.9999 33.1 44.9999C32.9 44.9999 31.7 44.7999 30.7 45.4999C29.8 46.0999 29.1 47.2999 28.8 48.8999C27.6 54.3999 26.4 60.0999 18.3 60.6999H18.2H18C13.8 60.2999 11.5 58.5999 10 56.1999C11.3 56.8999 12.9 57.3999 14.9 57.5999H15.1H15.2C23.3 56.9999 24.5 51.2999 25.7 45.7999C26.1 44.0999 26.7 42.9999 27.7 42.3999C28.8 41.6999 29.9 41.8999 30.1 41.8999C30.5 41.9999 31 41.7999 31.3 41.4999C31.6 41.1999 31.8 40.7999 31.8 40.3999L31.9 1.89991C32.8 1.79991 33.5 1.89991 33.8 1.89991C34.3 1.99991 34.9 2.59991 34.9 3.39991Z" fill="#C7E9F5"/>
<path d="M33.6 1.90005C33 1.80004 31.1 1.60004 29.2 2.80004C27.6 3.80004 26.5 5.60005 26 8.00005C24.7 14.1001 23.5 17.7001 18.1 17.6001C12.3 17.5001 11.5 14.2001 10.2 8.00005C9.69995 5.60005 8.59995 3.90004 6.99995 2.80004C5.19995 1.60004 3.19996 1.80004 2.59996 1.90005C1.89996 2.00005 1.29996 2.60005 1.29996 3.40005L1.19995 43.5C1.19995 43.9 1.39995 44.4001 1.69995 44.6001C1.99995 44.9001 2.49995 45 2.89995 44.9C3.09995 44.9 4.29996 44.7 5.29996 45.4C6.19996 46 6.89996 47.2 7.29996 48.8C8.49996 54.3 9.69996 60.1 17.8 60.8H18H18.1C26.2 60.2 27.4 54.5 28.6 49C29 47.3 29.6 46.2 30.6 45.5C31.7 44.8 32.8 45 33 45C33.4 45.1 33.9 44.9 34.2 44.7C34.5 44.4 34.7 44.0001 34.7 43.6001L34.8 3.50005C34.9 2.70005 34.3 2.00005 33.6 1.90005Z" stroke="black" stroke-width="2.393" stroke-miterlimit="10" stroke-linecap="round" stroke-linejoin="round"/>
<path d="M14.6999 34.9994C13.3999 34.9994 12.3999 33.9994 12.3999 32.6994V30.2994C12.3999 28.9994 13.4999 27.9994 14.6999 27.8994C15.9999 27.8994 16.9999 28.9994 16.9999 30.1994V32.5994C17.0999 33.9994 15.9999 34.9994 14.6999 34.9994Z" stroke="#1ABEF0" stroke-width="2.393" stroke-miterlimit="10" stroke-linecap="round" stroke-linejoin="round"/>
<path d="M22.8999 34.9994V27.8994L20.5999 30.1994" stroke="#1ABEF0" stroke-width="2.393" stroke-miterlimit="10" stroke-linecap="round" stroke-linejoin="round"/>
<path d="M9 23.0996H27.3" stroke="black" stroke-width="2.393" stroke-miterlimit="10" stroke-linecap="round" stroke-linejoin="round"/>
<path d="M9 40.1996L27.3 40.0996" stroke="black" stroke-width="2.393" stroke-miterlimit="10" stroke-linecap="round" stroke-linejoin="round"/>
</svg>
