<?xml version="1.0" encoding="utf-8"?>
<!-- Generator: Adobe Illustrator 27.9.0, SVG Export Plug-In . SVG Version: 6.00 Build 0)  -->
<svg version="1.1" id="Capa_1" xmlns="http://www.w3.org/2000/svg" xmlns:xlink="http://www.w3.org/1999/xlink" x="0px" y="0px"
	 viewBox="0 0 187.1 63.3" style="enable-background:new 0 0 187.1 63.3;" xml:space="preserve">
<style type="text/css">
	.st0{fill:#FFFFFF;}
	.st1{fill:#C7E9F5;}
	.st2{fill:none;stroke:#000000;stroke-width:2.393;stroke-linecap:round;stroke-linejoin:round;stroke-miterlimit:10;}
	.st3{fill:none;stroke:#1ABEF0;stroke-width:2.393;stroke-linecap:round;stroke-linejoin:round;stroke-miterlimit:10;}
	.st4{fill:#141819;}
	.st5{fill:#13BCEE;}
</style>
<path class="st0" d="M33.6,1.9c-0.6-0.1-2.5-0.3-4.4,0.9c-1.6,1-2.7,2.8-3.2,5.2c-1.3,6.1-2.5,9.7-7.9,9.6c-5.8-0.1-6.6-3.4-7.9-9.6
	C9.7,5.6,8.6,3.9,7,2.8c-1.8-1.2-3.8-1-4.4-0.9C1.9,2,1.3,2.6,1.3,3.4L1.2,43.5c0,0.4,0.2,0.9,0.5,1.1C2,44.9,2.5,45,2.9,44.9
	c0.2,0,1.4-0.2,2.4,0.5c0.9,0.6,1.6,1.8,2,3.4c1.2,5.5,2.4,11.3,10.5,12H18h0.1c8.1-0.6,9.3-6.3,10.5-11.8c0.4-1.7,1-2.8,2-3.5
	c1.1-0.7,2.2-0.5,2.4-0.5c0.4,0.1,0.9-0.1,1.2-0.3c0.3-0.3,0.5-0.7,0.5-1.1l0.1-40.1C34.9,2.7,34.3,2,33.6,1.9"/>
<path class="st1" d="M34.9,3.4l-0.1,40.1c0,0.4-0.2,0.9-0.5,1.1C34,44.9,33.5,45,33.1,45c-0.2,0-1.4-0.2-2.4,0.5
	c-0.9,0.6-1.6,1.8-1.9,3.4c-1.2,5.5-2.4,11.2-10.5,11.8h-0.1H18c-4.2-0.4-6.5-2.1-8-4.5c1.3,0.7,2.9,1.2,4.9,1.4h0.2h0.1
	c8.1-0.6,9.3-6.3,10.5-11.8c0.4-1.7,1-2.8,2-3.4c1.1-0.7,2.2-0.5,2.4-0.5c0.4,0.1,0.9-0.1,1.2-0.4c0.3-0.3,0.5-0.7,0.5-1.1l0.1-38.5
	c0.9-0.1,1.6,0,1.9,0C34.3,2,34.9,2.6,34.9,3.4"/>
<path class="st2" d="M33.6,1.9c-0.6-0.1-2.5-0.3-4.4,0.9c-1.6,1-2.7,2.8-3.2,5.2c-1.3,6.1-2.5,9.7-7.9,9.6c-5.8-0.1-6.6-3.4-7.9-9.6
	C9.7,5.6,8.6,3.9,7,2.8c-1.8-1.2-3.8-1-4.4-0.9C1.9,2,1.3,2.6,1.3,3.4L1.2,43.5c0,0.4,0.2,0.9,0.5,1.1C2,44.9,2.5,45,2.9,44.9
	c0.2,0,1.4-0.2,2.4,0.5c0.9,0.6,1.6,1.8,2,3.4c1.2,5.5,2.4,11.3,10.5,12H18h0.1c8.1-0.6,9.3-6.3,10.5-11.8c0.4-1.7,1-2.8,2-3.5
	c1.1-0.7,2.2-0.5,2.4-0.5c0.4,0.1,0.9-0.1,1.2-0.3c0.3-0.3,0.5-0.7,0.5-1.1l0.1-40.1C34.9,2.7,34.3,2,33.6,1.9z"/>
<path class="st3" d="M14.7,35L14.7,35c-1.3,0-2.3-1-2.3-2.3v-2.4c0-1.3,1.1-2.3,2.3-2.4c1.3,0,2.3,1.1,2.3,2.3v2.4
	C17.1,34,16,35,14.7,35z"/>
<polyline class="st3" points="22.9,35 22.9,27.9 20.6,30.2 "/>
<line class="st2" x1="9" y1="23.1" x2="27.3" y2="23.1"/>
<line class="st2" x1="9" y1="40.2" x2="27.3" y2="40.1"/>
<path class="st4" d="M57.3,56.2c-2.4-0.4-4.6-0.9-6.7-1.5v-8.9c2.2,0.7,4.3,1.1,6.7,1.5c2.4,0.4,4.8,0.7,7,0.7c3.3,0,5.4-0.4,7-1.5
	c1.5-0.9,2.2-2.4,2.2-4.3c0-1.1-0.2-2-0.7-2.6c-0.4-0.7-1.1-1.3-2.2-1.7c-1.1-0.4-2.4-1.1-4.3-1.5l-3.7-0.9c-4.3-1.1-7.6-2.8-10-5.2
	c-2.2-2.4-3.3-5.4-3.3-9.1c0-4.8,1.7-8.5,5.2-11.1S63.1,6,69.9,6c2.2,0,4.3,0.2,6.3,0.4c2,0.2,3.9,0.7,5.4,1.1v8.9
	c-1.5-0.4-3.3-0.9-5.2-1.1c-2-0.2-3.9-0.4-5.9-0.4c-3.7,0-6.3,0.4-8,1.5c-1.5,1.1-2.4,2.4-2.4,4.1c0,1.1,0.2,1.7,0.7,2.6
	c0.4,0.9,1.1,1.3,2,1.7c0.9,0.4,2.2,0.9,3.7,1.3l3.7,0.9c4.8,1.3,8.3,3,10.6,5.2c2.2,2.4,3.5,5.4,3.5,9.1c0,3-0.9,5.9-2.4,8.3
	c-1.5,2.4-3.9,4.1-6.7,5.2c-3,1.3-6.5,1.7-10.6,1.7C62.1,56.6,59.7,56.4,57.3,56.2"/>
<polygon class="st4" points="125.9,6.6 136.3,6.6 136.3,55.9 125.2,55.9 103.7,22.9 103.7,55.9 93.5,55.9 93.5,6.6 104.6,6.6 
	125.9,39.6 "/>
<polygon class="st5" points="159.4,56 159.4,15.6 143.8,15.6 143.8,6.5 185.7,6.5 185.7,15.6 170.3,15.6 170.3,56 "/>
</svg>
