<?xml version="1.0" encoding="utf-8"?>
<!-- Generator: Adobe Illustrator 19.0.0, SVG Export Plug-In . SVG Version: 6.00 Build 0)  -->
<svg version="1.1" id="Capa_1" xmlns="http://www.w3.org/2000/svg" xmlns:xlink="http://www.w3.org/1999/xlink" x="0px" y="0px"
	 viewBox="-144 389.6 305.4 63.3" style="enable-background:new -144 389.6 305.4 63.3;" xml:space="preserve">
<style type="text/css">
	.st0{fill:#FFFFFF;}
	.st1{fill:#C7E9F5;}
	.st2{fill:none;stroke:#000000;stroke-width:2.393;stroke-linecap:round;stroke-linejoin:round;stroke-miterlimit:10;}
	.st3{fill:none;stroke:#1ABEF0;stroke-width:2.393;stroke-linecap:round;stroke-linejoin:round;stroke-miterlimit:10;}
	.st4{fill:#141819;}
	.st5{fill:#13BCEE;}
</style>
<g>
	<path class="st0" d="M-110.4,391.5c-0.6-0.1-2.5-0.3-4.4,0.9c-1.6,1-2.7,2.8-3.2,5.2c-1.3,6.1-2.5,9.7-7.9,9.6
		c-5.8-0.1-6.6-3.4-7.9-9.6c-0.5-2.4-1.6-4.1-3.2-5.2c-1.8-1.2-3.8-1-4.4-0.9c-0.7,0.1-1.3,0.7-1.3,1.5l-0.1,40.1
		c0,0.4,0.2,0.9,0.5,1.1c0.3,0.3,0.8,0.4,1.2,0.3c0.2,0,1.4-0.2,2.4,0.5c0.9,0.6,1.6,1.8,2,3.4c1.2,5.5,2.4,11.3,10.5,12h0.2h0.1
		c8.1-0.6,9.3-6.3,10.5-11.8c0.4-1.7,1-2.8,2-3.5c1.1-0.7,2.2-0.5,2.4-0.5c0.4,0.1,0.9-0.1,1.2-0.3c0.3-0.3,0.5-0.7,0.5-1.1
		l0.1-40.1C-109.1,392.3-109.7,391.6-110.4,391.5"/>
	<path class="st1" d="M-109.1,393l-0.1,40.1c0,0.4-0.2,0.9-0.5,1.1c-0.3,0.3-0.8,0.4-1.2,0.4c-0.2,0-1.4-0.2-2.4,0.5
		c-0.9,0.6-1.6,1.8-1.9,3.4c-1.2,5.5-2.4,11.2-10.5,11.8h-0.1h-0.2c-4.2-0.4-6.5-2.1-8-4.5c1.3,0.7,2.9,1.2,4.9,1.4h0.2h0.1
		c8.1-0.6,9.3-6.3,10.5-11.8c0.4-1.7,1-2.8,2-3.4c1.1-0.7,2.2-0.5,2.4-0.5c0.4,0.1,0.9-0.1,1.2-0.4c0.3-0.3,0.5-0.7,0.5-1.1
		l0.1-38.5c0.9-0.1,1.6,0,1.9,0C-109.7,391.6-109.1,392.2-109.1,393"/>
	<path class="st2" d="M-110.4,391.5c-0.6-0.1-2.5-0.3-4.4,0.9c-1.6,1-2.7,2.8-3.2,5.2c-1.3,6.1-2.5,9.7-7.9,9.6
		c-5.8-0.1-6.6-3.4-7.9-9.6c-0.5-2.4-1.6-4.1-3.2-5.2c-1.8-1.2-3.8-1-4.4-0.9c-0.7,0.1-1.3,0.7-1.3,1.5l-0.1,40.1
		c0,0.4,0.2,0.9,0.5,1.1c0.3,0.3,0.8,0.4,1.2,0.3c0.2,0,1.4-0.2,2.4,0.5c0.9,0.6,1.6,1.8,2,3.4c1.2,5.5,2.4,11.3,10.5,12h0.2h0.1
		c8.1-0.6,9.3-6.3,10.5-11.8c0.4-1.7,1-2.8,2-3.5c1.1-0.7,2.2-0.5,2.4-0.5c0.4,0.1,0.9-0.1,1.2-0.3c0.3-0.3,0.5-0.7,0.5-1.1
		l0.1-40.1C-109.1,392.3-109.7,391.6-110.4,391.5z"/>
	<path class="st3" d="M-129.3,424.6L-129.3,424.6c-1.3,0-2.3-1-2.3-2.3v-2.4c0-1.3,1.1-2.3,2.3-2.4c1.3,0,2.3,1.1,2.3,2.3v2.4
		C-126.9,423.6-128,424.6-129.3,424.6z"/>
	<polyline class="st3" points="-121.1,424.6 -121.1,417.5 -123.4,419.8 	"/>
	<line class="st2" x1="-135" y1="412.7" x2="-116.7" y2="412.7"/>
	<line class="st2" x1="-135" y1="429.8" x2="-116.7" y2="429.7"/>
	<path class="st4" d="M-84.7,416.3c-1.1-0.2-2.1-0.4-3.1-0.7v-4.1c1,0.3,2,0.5,3.1,0.7s2.2,0.3,3.2,0.3c1.5,0,2.5-0.2,3.2-0.7
		c0.7-0.4,1-1.1,1-2c0-0.5-0.1-0.9-0.3-1.2c-0.2-0.3-0.5-0.6-1-0.8c-0.5-0.2-1.1-0.5-2-0.7l-1.7-0.4c-2-0.5-3.5-1.3-4.6-2.4
		c-1-1.1-1.5-2.5-1.5-4.2c0-2.2,0.8-3.9,2.4-5.1s4-1.8,7.1-1.8c1,0,2,0.1,2.9,0.2s1.8,0.3,2.5,0.5v4.1c-0.7-0.2-1.5-0.4-2.4-0.5
		s-1.8-0.2-2.7-0.2c-1.7,0-2.9,0.2-3.7,0.7c-0.7,0.5-1.1,1.1-1.1,1.9c0,0.5,0.1,0.8,0.3,1.2s0.5,0.6,0.9,0.8c0.4,0.2,1,0.4,1.7,0.6
		l1.7,0.4c2.2,0.6,3.8,1.4,4.9,2.4c1,1.1,1.6,2.5,1.6,4.2c0,1.4-0.4,2.7-1.1,3.8c-0.7,1.1-1.8,1.9-3.1,2.4c-1.4,0.6-3,0.8-4.9,0.8
		C-82.5,416.5-83.6,416.4-84.7,416.3"/>
	<path class="st4" d="M-69.4,396.3c-0.5-0.4-0.8-1.1-0.8-1.9s0.3-1.5,0.8-1.9s1.3-0.7,2.3-0.7s1.8,0.2,2.3,0.7
		c0.5,0.4,0.8,1.1,0.8,1.9s-0.3,1.4-0.8,1.9c-0.5,0.4-1.3,0.7-2.3,0.7S-68.9,396.8-69.4,396.3 M-69.6,399.4h4.9v16.8h-4.9V399.4z"/>
	<path class="st4" d="M-61.4,415.8v-3.6c1.7,0.5,3.4,0.8,5.3,0.8c1.1,0,1.8-0.1,2.3-0.4s0.7-0.7,0.7-1.2c0-0.4-0.1-0.7-0.3-1
		c-0.2-0.2-0.6-0.4-1.2-0.5l-2.7-0.5c-1.6-0.3-2.7-0.8-3.4-1.6c-0.7-0.8-1.1-1.9-1.1-3.2c0-1.1,0.3-2,0.9-2.9s1.5-1.4,2.7-1.9
		c1.2-0.4,2.7-0.7,4.4-0.7c0.8,0,1.6,0,2.4,0.1c0.8,0.1,1.5,0.2,2.1,0.4v3.6c-1.4-0.4-2.8-0.6-4.4-0.6c-2.3,0-3.5,0.6-3.5,1.7
		c0,0.4,0.1,0.7,0.3,0.9c0.2,0.2,0.6,0.4,1.2,0.5l2.7,0.5c1.6,0.3,2.7,0.8,3.5,1.6c0.7,0.8,1.1,1.8,1.1,3.3c0,1.1-0.3,2.1-0.9,2.9
		c-0.6,0.8-1.4,1.4-2.6,1.9c-1.1,0.4-2.5,0.7-4.1,0.7C-58,416.6-59.8,416.3-61.4,415.8"/>
	<path class="st4" d="M-35.5,412.3v3.9c-1,0.2-2.1,0.4-3.1,0.4c-2.1,0-3.6-0.5-4.7-1.5c-1.1-1-1.6-2.6-1.6-4.8v-6.9h-2.7v-3.9h2.7
		l0.9-5.9h4v5.9h4.4v3.9H-40v6.2c0,0.8,0.1,1.4,0.3,1.8s0.5,0.8,0.9,0.9c0.4,0.2,0.9,0.3,1.6,0.3C-36.9,412.5-36.3,412.4-35.5,412.3
		"/>
	<path class="st4" d="M-19,409.3h-10.2c0.1,0.9,0.2,1.6,0.6,2.1c0.3,0.5,0.9,0.9,1.6,1.1s1.7,0.3,2.9,0.3c1.3,0,2.7-0.2,4.2-0.5v3.7
		c-1.6,0.4-3.3,0.6-4.9,0.6c-2.1,0-3.9-0.3-5.2-0.9c-1.4-0.6-2.4-1.6-3-2.8c-0.7-1.3-1-2.9-1-5c0-1.8,0.3-3.4,0.9-4.7
		c0.6-1.3,1.5-2.3,2.7-2.9c1.2-0.7,2.6-1,4.2-1c2.4,0,4.2,0.8,5.4,2.3c1.2,1.5,1.9,3.7,1.9,6.6v1.1H-19z M-28.5,403.2
		c-0.5,0.6-0.7,1.7-0.8,3.2h5.6c0-1.5-0.3-2.6-0.7-3.2c-0.5-0.6-1.1-0.9-2.1-0.9C-27.3,402.3-28,402.6-28.5,403.2"/>
	<path class="st4" d="M6.4,400.8c1,1.1,1.5,2.7,1.5,5v10.5H3.1v-10.2c0-1-0.2-1.6-0.6-2c-0.4-0.4-0.9-0.6-1.6-0.6
		c-0.5,0-1,0.1-1.4,0.3c-0.5,0.2-0.9,0.5-1.2,0.9c0,0.3,0,0.7,0,1.1v10.6h-4.8v-10.2c0-1-0.2-1.6-0.5-2.1c-0.4-0.4-0.9-0.6-1.6-0.6
		c-0.5,0-1,0.1-1.5,0.4c-0.5,0.2-0.9,0.6-1.2,1v11.5h-4.9v-16.8h4l0.3,1.7h0.2c1.2-1.3,2.8-2,4.7-2c0.9,0,1.8,0.2,2.5,0.5
		c0.7,0.4,1.3,0.9,1.8,1.7c0.7-0.7,1.5-1.3,2.4-1.7c0.9-0.4,1.8-0.5,2.7-0.5C4.1,399.2,5.4,399.7,6.4,400.8"/>
	<path class="st4" d="M21.8,399.8c1.1,0.5,2,1.2,2.5,2.2s0.8,2.4,0.8,4.2v10H21l-0.3-1.7h-0.2c-0.5,0.7-1.1,1.2-1.9,1.5
		s-1.6,0.5-2.6,0.5c-1.1,0-2.1-0.2-2.9-0.6c-0.8-0.4-1.4-1-1.9-1.7c-0.4-0.7-0.7-1.6-0.7-2.6c0-1.6,0.6-2.9,1.7-3.7
		c1.1-0.9,2.9-1.4,5.3-1.6l2.7-0.2v-0.2c0-0.8-0.1-1.4-0.4-1.8s-0.7-0.8-1.2-0.9c-0.5-0.2-1.3-0.3-2.3-0.3c-0.7,0-1.4,0.1-2.3,0.2
		c-0.8,0.1-1.6,0.3-2.3,0.5v-3.7c0.8-0.2,1.7-0.4,2.7-0.5s1.9-0.2,2.8-0.2C19.2,399.2,20.7,399.4,21.8,399.8 M19.1,412.9
		c0.5-0.2,0.9-0.4,1.2-0.8V409l-2.2,0.2c-0.9,0.1-1.6,0.3-2,0.6c-0.4,0.4-0.6,0.8-0.6,1.5c0,0.6,0.2,1.1,0.6,1.4
		c0.4,0.3,0.9,0.5,1.7,0.5C18.2,413.1,18.6,413,19.1,412.9"/>
	<polygon class="st4" points="51.5,393.5 56.3,393.5 56.3,416.2 51.2,416.2 41.3,401 41.3,416.2 36.6,416.2 36.6,393.5 41.7,393.5 
		51.5,408.7 	"/>
	<path class="st4" d="M70.5,399.8c1.1,0.5,2,1.2,2.5,2.2s0.8,2.4,0.8,4.2v10h-4.1l-0.3-1.7h-0.2c-0.5,0.7-1.1,1.2-1.9,1.5
		s-1.6,0.5-2.6,0.5c-1.1,0-2.1-0.2-2.9-0.6c-0.8-0.4-1.4-1-1.9-1.7c-0.4-0.7-0.7-1.6-0.7-2.6c0-1.6,0.6-2.9,1.7-3.7
		c1.1-0.9,2.9-1.4,5.3-1.6l2.7-0.2v-0.2c0-0.8-0.1-1.4-0.4-1.8s-0.6-0.8-1.2-0.9c-0.5-0.2-1.3-0.3-2.3-0.3c-0.7,0-1.4,0.1-2.3,0.2
		c-0.8,0.1-1.6,0.3-2.3,0.5v-3.7c0.8-0.2,1.7-0.4,2.7-0.5s1.9-0.2,2.8-0.2C67.9,399.2,69.4,399.4,70.5,399.8 M67.8,412.9
		c0.5-0.2,0.9-0.4,1.2-0.8V409l-2.2,0.2c-0.9,0.1-1.6,0.3-2,0.6c-0.4,0.4-0.6,0.8-0.6,1.5c0,0.6,0.2,1.1,0.6,1.4s0.9,0.5,1.7,0.5
		C66.8,413.1,67.3,413,67.8,412.9"/>
	<path class="st4" d="M78.8,414.4c-1.5-1.4-2.2-3.6-2.2-6.5s0.8-5.1,2.4-6.5s3.9-2.2,6.9-2.2c1.4,0,2.6,0.1,3.8,0.4v3.9
		c-1.1-0.2-2.1-0.3-3.1-0.3c-1.1,0-2.1,0.2-2.8,0.5c-0.7,0.3-1.2,0.8-1.6,1.5c-0.3,0.7-0.5,1.6-0.5,2.7c0,1.7,0.4,2.9,1.1,3.7
		c0.7,0.7,1.8,1.1,3.4,1.1c0.5,0,1.1,0,1.6-0.1s1.2-0.2,1.9-0.4v3.9c-1.3,0.4-2.7,0.6-4.3,0.6C82.5,416.6,80.3,415.8,78.8,414.4"/>
	<path class="st4" d="M92.6,396.3c-0.5-0.4-0.8-1.1-0.8-1.9s0.3-1.5,0.8-1.9s1.3-0.7,2.3-0.7s1.8,0.2,2.3,0.7
		c0.5,0.4,0.8,1.1,0.8,1.9s-0.3,1.4-0.8,1.9c-0.5,0.4-1.3,0.7-2.3,0.7C93.8,397,93.1,396.8,92.6,396.3 M92.4,399.4h4.9v16.8h-4.9
		V399.4z"/>
	<path class="st4" d="M104,415.6c-1.2-0.6-2.2-1.6-2.8-2.9c-0.7-1.3-1-2.9-1-4.8c0-2.9,0.7-5.1,2.1-6.5c1.4-1.5,3.4-2.2,6.1-2.2
		c2.6,0,4.6,0.7,6.1,2.2c1.4,1.5,2.1,3.6,2.1,6.5c0,1.9-0.3,3.5-1,4.8s-1.6,2.3-2.8,2.9c-1.2,0.6-2.7,1-4.4,1S105.2,416.2,104,415.6
		 M110.2,412.4c0.5-0.3,0.8-0.8,1.1-1.5c0.3-0.7,0.4-1.7,0.4-2.9c0-1.2-0.1-2.2-0.4-3c-0.3-0.7-0.6-1.3-1.1-1.6
		c-0.5-0.3-1.1-0.5-1.8-0.5c-0.7,0-1.3,0.2-1.8,0.5s-0.8,0.8-1.1,1.5c-0.3,0.7-0.4,1.7-0.4,2.9c0,1.3,0.1,2.2,0.4,3
		c0.3,0.7,0.6,1.3,1.1,1.6c0.5,0.3,1.1,0.5,1.8,0.5C109.1,412.8,109.7,412.7,110.2,412.4"/>
	<path class="st4" d="M119.5,399.4h4l0.3,1.7h0.2c0.6-0.6,1.3-1.1,2.2-1.5c0.8-0.3,1.8-0.5,2.8-0.5c1.8,0,3.2,0.5,4.2,1.6
		s1.5,2.7,1.5,5v10.5h-4.9V406c0-1-0.2-1.7-0.6-2.1c-0.4-0.4-1-0.6-1.8-0.6c-0.6,0-1.2,0.1-1.7,0.4c-0.6,0.2-1,0.6-1.4,1v11.5h-4.9
		v-16.8H119.5z"/>
	<path class="st4" d="M148.7,399.8c1.1,0.5,2,1.2,2.5,2.2s0.8,2.4,0.8,4.2v10h-4.1l-0.3-1.7h-0.2c-0.5,0.7-1.1,1.2-1.9,1.5
		c-0.8,0.3-1.6,0.5-2.6,0.5c-1.1,0-2.1-0.2-2.9-0.6c-0.8-0.4-1.4-1-1.9-1.7c-0.4-0.7-0.7-1.6-0.7-2.6c0-1.6,0.6-2.9,1.7-3.7
		c1.1-0.9,2.9-1.4,5.3-1.6l2.7-0.2v-0.2c0-0.8-0.1-1.4-0.4-1.8c-0.3-0.4-0.6-0.8-1.2-0.9c-0.5-0.2-1.3-0.3-2.3-0.3
		c-0.7,0-1.4,0.1-2.3,0.2c-0.8,0.1-1.6,0.3-2.3,0.5v-3.7c0.8-0.2,1.7-0.4,2.7-0.5s1.9-0.2,2.8-0.2
		C146.1,399.2,147.5,399.4,148.7,399.8 M145.9,412.9c0.5-0.2,0.9-0.4,1.2-0.8V409l-2.2,0.2c-0.9,0.1-1.6,0.3-2,0.6
		c-0.4,0.4-0.6,0.8-0.6,1.5c0,0.6,0.2,1.1,0.6,1.4c0.4,0.3,0.9,0.5,1.7,0.5C145,413.1,145.5,413,145.9,412.9"/>
	<rect x="155.5" y="391.4" class="st4" width="4.9" height="24.8"/>
	<path class="st5" d="M-84.7,450c-1-0.6-1.9-1.5-2.5-2.7s-0.9-2.8-0.9-4.7c0-2.9,0.8-5.2,2.3-6.7c1.6-1.5,3.8-2.3,6.8-2.3
		c0.7,0,1.3,0,2,0.1v-7.9h4.9v24.8h-4.1l-0.3-1.8h-0.2c-0.5,0.6-1.1,1.1-1.9,1.5s-1.6,0.5-2.6,0.5C-82.5,450.9-83.6,450.6-84.7,450
		 M-78.2,446.6c0.5-0.2,0.9-0.5,1.2-0.9v-8.3c-0.6-0.1-1.2-0.2-1.9-0.2c-1.4,0-2.5,0.4-3.2,1.2c-0.7,0.8-1,2-1,3.8
		c0,1.7,0.3,3,0.9,3.7s1.4,1.1,2.5,1.1C-79.2,446.9-78.7,446.8-78.2,446.6"/>
	<path class="st5" d="M-54,443.6h-10.2c0.1,0.9,0.2,1.6,0.6,2.1c0.3,0.5,0.9,0.9,1.6,1.1c0.7,0.2,1.7,0.3,2.9,0.3
		c1.3,0,2.7-0.2,4.2-0.5v3.7c-1.6,0.4-3.3,0.6-4.9,0.6c-2.1,0-3.9-0.3-5.2-0.9c-1.4-0.6-2.4-1.6-3-2.8c-0.7-1.3-1-2.9-1-5
		c0-1.8,0.3-3.4,0.9-4.7c0.6-1.3,1.5-2.3,2.7-2.9c1.2-0.7,2.6-1,4.2-1c2.4,0,4.2,0.8,5.4,2.3s1.9,3.7,1.9,6.6v1.1H-54z M-63.5,437.6
		c-0.5,0.6-0.7,1.7-0.8,3.2h5.6c0-1.5-0.3-2.6-0.7-3.2c-0.5-0.6-1.1-0.9-2.1-0.9C-62.3,436.6-63,436.9-63.5,437.6"/>
	<polygon class="st5" points="-38,450.6 -38,432 -45.2,432 -45.2,427.8 -25.9,427.8 -25.9,432 -33,432 -33,450.6 	"/>
	<path class="st5" d="M-24.4,449.3c-1-1.1-1.6-2.7-1.6-5v-10.5h4.9V444c0,1,0.2,1.6,0.6,2.1c0.4,0.4,1,0.6,1.7,0.6
		c0.5,0,1.1-0.1,1.6-0.4c0.6-0.2,1-0.6,1.4-1v-11.5h4.9v16.8H-15l-0.3-1.7h-0.2c-0.6,0.7-1.4,1.2-2.2,1.5c-0.8,0.3-1.7,0.5-2.6,0.5
		C-22,450.9-23.4,450.3-24.4,449.3"/>
	<path class="st5" d="M-7.2,433.8h4l0.4,2.2h0.2c0.5-0.8,1.1-1.4,1.8-1.8c0.8-0.4,1.6-0.6,2.6-0.6c0.5,0,0.9,0,1.4,0.1v4.4
		c-0.5-0.1-1-0.1-1.7-0.1s-1.5,0.1-2.2,0.4s-1.3,0.7-1.7,1.2v11h-4.9v-16.8H-7.2z"/>
	<path class="st5" d="M5.2,433.8h4l0.3,1.7h0.2c0.6-0.6,1.3-1.1,2.2-1.5c0.8-0.3,1.8-0.5,2.8-0.5c1.8,0,3.2,0.5,4.2,1.6
		s1.5,2.7,1.5,5v10.5h-4.9v-10.2c0-1-0.2-1.7-0.6-2.1s-1-0.6-1.8-0.6c-0.6,0-1.2,0.1-1.7,0.4c-0.6,0.2-1,0.6-1.4,1v11.5H5.2V433.8z"
		/>
	<path class="st5" d="M27.1,449.9c-1.2-0.6-2.2-1.6-2.8-2.9c-0.7-1.3-1-2.9-1-4.8c0-2.9,0.7-5.1,2.1-6.5c1.4-1.5,3.4-2.2,6.1-2.2
		c2.6,0,4.6,0.7,6.1,2.2c1.4,1.5,2.1,3.6,2.1,6.5c0,1.9-0.3,3.5-1,4.8s-1.6,2.3-2.8,2.9s-2.7,1-4.4,1
		C29.8,450.9,28.3,450.6,27.1,449.9 M33.3,446.7c0.5-0.3,0.8-0.8,1.1-1.5s0.4-1.7,0.4-2.9c0-1.2-0.1-2.2-0.4-3
		c-0.3-0.7-0.6-1.3-1.1-1.6c-0.5-0.3-1.1-0.5-1.8-0.5c-0.7,0-1.3,0.2-1.8,0.5s-0.8,0.8-1.1,1.5c-0.3,0.7-0.4,1.7-0.4,2.9
		c0,1.2,0.1,2.2,0.4,3c0.3,0.7,0.6,1.3,1.1,1.6c0.5,0.3,1.1,0.5,1.8,0.5C32.2,447.2,32.8,447,33.3,446.7"/>
	<path class="st5" d="M42.1,450.2v-3.6c1.7,0.5,3.4,0.8,5.3,0.8c1.1,0,1.8-0.1,2.3-0.4s0.7-0.7,0.7-1.2c0-0.4-0.1-0.7-0.3-1
		c-0.2-0.2-0.6-0.4-1.2-0.5l-2.7-0.5c-1.6-0.3-2.7-0.8-3.4-1.6c-0.7-0.8-1.1-1.9-1.1-3.2c0-1.1,0.3-2,0.9-2.9
		c0.6-0.8,1.5-1.4,2.7-1.9c1.2-0.4,2.7-0.7,4.4-0.7c0.8,0,1.6,0,2.4,0.1c0.8,0.1,1.5,0.2,2.1,0.4v3.6c-1.4-0.4-2.8-0.6-4.4-0.6
		c-2.3,0-3.5,0.6-3.5,1.7c0,0.4,0.1,0.7,0.3,0.9c0.2,0.2,0.6,0.4,1.2,0.5l2.7,0.5c1.6,0.3,2.7,0.8,3.5,1.6c0.7,0.8,1.1,1.8,1.1,3.3
		c0,1.1-0.3,2.1-0.9,2.9c-0.6,0.8-1.4,1.4-2.6,1.9c-1.1,0.4-2.5,0.7-4.1,0.7C45.5,450.9,43.7,450.7,42.1,450.2"/>
</g>
</svg>
