<?xml version="1.0" encoding="utf-8"?>
<!-- Generator: Adobe Illustrator 19.0.0, SVG Export Plug-In . SVG Version: 6.00 Build 0)  -->
<svg version="1.1" id="Capa_1" xmlns="http://www.w3.org/2000/svg" xmlns:xlink="http://www.w3.org/1999/xlink" x="0px" y="0px"
	 viewBox="-144 389.6 308.2 63.3" style="enable-background:new -144 389.6 308.2 63.3;" xml:space="preserve">
<style type="text/css">
	.st0{fill:#FFFFFF;}
</style>
<path class="st0" d="M-125.1,451.7c-0.1,0-0.2,0-0.3,0c-9-0.8-10.3-7.2-11.5-12.9c-0.3-1.3-0.8-2.2-1.4-2.6
	c-0.7-0.4-1.5-0.3-1.6-0.3c-0.8,0.1-1.6-0.1-2.2-0.6c-0.6-0.5-0.9-1.3-0.9-2.1l0.1-40.1c0-1.3,1-2.5,2.3-2.7c0.7-0.1,3-0.3,5.2,1.1
	c1.9,1.2,3.1,3.2,3.7,5.9c1.3,6.4,2.1,8.6,6.8,8.7c0.1,0,0.1,0,0.2,0c4.2,0,5.2-2.5,6.5-8.6c0.6-2.7,1.8-4.7,3.7-5.9
	c2.2-1.4,4.6-1.2,5.2-1.1c1.3,0.2,2.2,1.3,2.2,2.7l-0.1,40.1c0,0.8-0.3,1.5-0.9,2c-0.6,0.5-1.4,0.7-2.2,0.6c-0.1,0-0.9-0.1-1.6,0.3
	c-0.7,0.4-1.2,1.4-1.4,2.7c-1.2,5.7-2.6,12.1-11.6,12.8C-124.9,451.7-125,451.7-125.1,451.7L-125.1,451.7z M-125.2,449.3
	c0,0,0.1,0,0.1,0c7.2-0.6,8.2-5.4,9.4-10.9c0.4-2,1.3-3.4,2.5-4.2c1.4-0.9,2.8-0.7,3.2-0.7c0.1,0,0.2,0,0.3-0.1
	c0.1-0.1,0.1-0.1,0.1-0.2l0.1-40.1c0-0.1-0.1-0.3-0.3-0.3c-0.4-0.1-2-0.3-3.5,0.7c-1.3,0.8-2.2,2.3-2.7,4.4
	c-1.1,5.2-2.3,10.5-8.9,10.5c-0.1,0-0.1,0-0.2,0c-6.9-0.1-7.8-4.5-9.1-10.6c-0.4-2.1-1.3-3.6-2.7-4.4c-1.5-1-3.1-0.8-3.5-0.7
	c-0.1,0-0.3,0.1-0.3,0.3l-0.1,40.1c0,0.1,0,0.2,0.1,0.2c0.1,0.1,0.2,0.1,0.2,0.1c0.4-0.1,1.9-0.2,3.2,0.7c1.2,0.8,2.1,2.2,2.5,4.2
	C-133.4,443.8-132.3,448.7-125.2,449.3L-125.2,449.3z"/>
<path class="st0" d="M-128.5,425.9c-2,0-3.5-1.6-3.5-3.5l0-2.4c0-0.9,0.4-1.8,1-2.5c0.7-0.7,1.6-1,2.5-1h0c2,0,3.5,1.6,3.5,3.5
	l0,2.4c0,0.9-0.4,1.8-1,2.5C-126.6,425.6-127.5,425.9-128.5,425.9L-128.5,425.9z M-128.5,418.8L-128.5,418.8c-0.3,0-0.6,0.1-0.8,0.3
	c-0.2,0.2-0.3,0.5-0.3,0.8l0,2.4c0,0.6,0.5,1.2,1.2,1.2h0c0.3,0,0.6-0.1,0.8-0.3c0.2-0.2,0.3-0.5,0.3-0.8l0-2.4
	C-127.3,419.3-127.8,418.8-128.5,418.8"/>
<path class="st0" d="M-120.3,425.9c-0.7,0-1.2-0.5-1.2-1.2l0-4.2l-0.2,0.2c-0.5,0.5-1.2,0.5-1.7,0c-0.5-0.5-0.5-1.2,0-1.7l2.2-2.2
	c0.3-0.3,0.9-0.4,1.3-0.3c0.4,0.2,0.7,0.6,0.7,1.1l0,7.1C-119.1,425.4-119.6,425.9-120.3,425.9L-120.3,425.9z"/>
<path class="st0" d="M-134.2,414.1c-0.7,0-1.2-0.5-1.2-1.2c0-0.7,0.5-1.2,1.2-1.2l18.3-0.1h0c0.7,0,1.2,0.5,1.2,1.2
	c0,0.7-0.5,1.2-1.2,1.2L-134.2,414.1L-134.2,414.1z"/>
<path class="st0" d="M-134.1,431.1c-0.7,0-1.2-0.5-1.2-1.2c0-0.7,0.5-1.2,1.2-1.2l18.3-0.1h0c0.7,0,1.2,0.5,1.2,1.2
	c0,0.7-0.5,1.2-1.2,1.2L-134.1,431.1L-134.1,431.1z"/>
<path class="st0" d="M-81.9,416.4c-1.1-0.2-2.1-0.4-3.1-0.7v-4.1c1,0.3,2,0.5,3.1,0.7c1.1,0.2,2.2,0.3,3.2,0.3
	c1.5,0,2.5-0.2,3.2-0.7c0.7-0.4,1-1.1,1-2c0-0.5-0.1-0.9-0.3-1.2c-0.2-0.3-0.5-0.6-1-0.8c-0.5-0.2-1.1-0.5-2-0.7l-1.7-0.4
	c-2-0.5-3.5-1.3-4.5-2.4c-1-1.1-1.5-2.5-1.5-4.2c0-2.2,0.8-3.9,2.4-5.1c1.6-1.2,4-1.8,7.1-1.8c1,0,2,0.1,2.9,0.2
	c0.9,0.1,1.8,0.3,2.5,0.5v4.1c-0.7-0.2-1.5-0.4-2.4-0.5c-0.9-0.1-1.8-0.2-2.7-0.2c-1.7,0-2.9,0.2-3.7,0.7c-0.7,0.5-1.1,1.1-1.1,1.9
	c0,0.5,0.1,0.8,0.3,1.2c0.2,0.3,0.5,0.6,0.9,0.8c0.4,0.2,1,0.4,1.7,0.6l1.7,0.4c2.2,0.6,3.8,1.4,4.9,2.4c1,1.1,1.6,2.5,1.6,4.2
	c0,1.4-0.4,2.7-1.1,3.8c-0.7,1.1-1.8,1.9-3.1,2.4c-1.4,0.6-3,0.8-4.9,0.8C-79.7,416.6-80.8,416.6-81.9,416.4"/>
<path class="st0" d="M-66.6,396.4c-0.5-0.4-0.8-1.1-0.8-1.9c0-0.8,0.3-1.5,0.8-1.9c0.5-0.4,1.3-0.7,2.3-0.7c1,0,1.8,0.2,2.3,0.7
	c0.5,0.4,0.8,1.1,0.8,1.9c0,0.8-0.3,1.5-0.8,1.9c-0.5,0.4-1.3,0.7-2.3,0.7C-65.3,397.1-66.1,396.9-66.6,396.4 M-66.8,399.5h4.9v16.8
	h-4.9V399.5z"/>
<path class="st0" d="M-58.6,415.9v-3.6c1.7,0.5,3.4,0.8,5.3,0.8c1.1,0,1.8-0.1,2.3-0.4c0.5-0.3,0.7-0.7,0.7-1.2c0-0.4-0.1-0.7-0.3-1
	c-0.2-0.2-0.6-0.4-1.2-0.5l-2.7-0.5c-1.6-0.3-2.7-0.8-3.4-1.6c-0.7-0.8-1.1-1.9-1.1-3.2c0-1.1,0.3-2,0.9-2.9
	c0.6-0.8,1.5-1.4,2.7-1.9c1.2-0.4,2.7-0.7,4.4-0.7c0.8,0,1.6,0,2.4,0.1c0.8,0.1,1.5,0.2,2.1,0.4v3.6c-1.4-0.4-2.8-0.6-4.4-0.6
	c-2.3,0-3.5,0.6-3.5,1.7c0,0.4,0.1,0.7,0.3,0.9c0.2,0.2,0.6,0.4,1.2,0.5l2.7,0.5c1.6,0.3,2.7,0.8,3.5,1.6c0.7,0.8,1.1,1.8,1.1,3.3
	c0,1.1-0.3,2.1-0.9,2.9c-0.6,0.8-1.4,1.4-2.6,1.9c-1.1,0.4-2.5,0.7-4.1,0.7C-55.2,416.7-57,416.4-58.6,415.9"/>
<path class="st0" d="M-32.7,412.4v3.9c-1,0.2-2.1,0.4-3.1,0.4c-2.1,0-3.6-0.5-4.7-1.5c-1.1-1-1.6-2.6-1.6-4.8v-6.9h-2.7v-3.9h2.7
	l0.9-5.9h4v5.9h4.4v3.9h-4.4v6.2c0,0.8,0.1,1.4,0.3,1.8c0.2,0.4,0.5,0.8,0.9,0.9c0.4,0.2,0.9,0.3,1.6,0.3
	C-34.1,412.6-33.5,412.6-32.7,412.4"/>
<path class="st0" d="M-16.2,409.4h-10.2c0.1,0.9,0.2,1.6,0.6,2.1c0.3,0.5,0.9,0.9,1.6,1.1c0.7,0.2,1.7,0.3,2.9,0.3
	c1.3,0,2.7-0.2,4.2-0.5v3.7c-1.6,0.4-3.3,0.6-4.9,0.6c-2.1,0-3.9-0.3-5.2-0.9c-1.4-0.6-2.4-1.6-3-2.8c-0.7-1.3-1-2.9-1-5
	c0-1.8,0.3-3.4,0.9-4.7c0.6-1.3,1.5-2.3,2.7-2.9c1.2-0.7,2.6-1,4.2-1c2.4,0,4.2,0.8,5.4,2.3c1.2,1.5,1.9,3.7,1.9,6.6V409.4z
	 M-25.6,403.3c-0.5,0.6-0.7,1.7-0.8,3.2h5.6c0-1.5-0.3-2.6-0.7-3.2c-0.5-0.6-1.1-0.9-2.1-0.9C-24.5,402.4-25.2,402.7-25.6,403.3"/>
<path class="st0" d="M9.3,400.9c1,1.1,1.5,2.7,1.5,5v10.5H5.9v-10.2c0-1-0.2-1.6-0.6-2c-0.4-0.4-0.9-0.6-1.6-0.6
	c-0.5,0-1,0.1-1.4,0.3c-0.5,0.2-0.9,0.5-1.2,0.9c0,0.3,0,0.7,0,1.1v10.6h-4.8v-10.2c0-1-0.2-1.6-0.5-2.1c-0.4-0.4-0.9-0.6-1.6-0.6
	c-0.5,0-1,0.1-1.5,0.4c-0.5,0.2-0.9,0.6-1.2,1v11.5h-4.9v-16.8h4l0.3,1.7h0.2c1.2-1.3,2.8-2,4.7-2c0.9,0,1.8,0.2,2.5,0.5
	c0.7,0.4,1.3,0.9,1.8,1.7c0.7-0.7,1.5-1.3,2.4-1.7c0.9-0.4,1.8-0.5,2.7-0.5C6.9,399.3,8.3,399.8,9.3,400.9"/>
<path class="st0" d="M24.6,400c1.1,0.5,2,1.2,2.5,2.2c0.5,1,0.8,2.4,0.8,4.2v10h-4.1l-0.3-1.7h-0.2c-0.5,0.7-1.1,1.2-1.9,1.5
	c-0.8,0.3-1.6,0.5-2.6,0.5c-1.1,0-2.1-0.2-2.9-0.6c-0.8-0.4-1.4-1-1.9-1.7c-0.4-0.7-0.7-1.6-0.7-2.6c0-1.6,0.6-2.9,1.7-3.7
	c1.1-0.9,2.9-1.4,5.3-1.6l2.7-0.2v-0.2c0-0.8-0.1-1.4-0.4-1.8c-0.3-0.4-0.7-0.8-1.2-0.9c-0.5-0.2-1.3-0.3-2.3-0.3
	c-0.7,0-1.4,0.1-2.3,0.2c-0.8,0.1-1.6,0.3-2.3,0.5V400c0.8-0.2,1.7-0.4,2.7-0.5c1-0.1,1.9-0.2,2.8-0.2C22,399.3,23.5,399.5,24.6,400
	 M21.9,413c0.5-0.2,0.9-0.4,1.2-0.8V409l-2.2,0.2c-0.9,0.1-1.6,0.3-2,0.6c-0.4,0.4-0.6,0.8-0.6,1.5c0,0.6,0.2,1.1,0.6,1.4
	c0.4,0.3,0.9,0.5,1.7,0.5C21,413.3,21.4,413.2,21.9,413"/>
<polygon class="st0" points="54.4,393.6 59.1,393.6 59.1,416.4 54,416.4 44.1,401.1 44.1,416.4 39.4,416.4 39.4,393.6 44.5,393.6 
	54.4,408.8 "/>
<path class="st0" d="M73.3,400c1.1,0.5,2,1.2,2.5,2.2c0.5,1,0.8,2.4,0.8,4.2v10h-4.1l-0.3-1.7H72c-0.5,0.7-1.1,1.2-1.9,1.5
	c-0.8,0.3-1.6,0.5-2.6,0.5c-1.1,0-2.1-0.2-2.9-0.6c-0.8-0.4-1.4-1-1.9-1.7c-0.4-0.7-0.7-1.6-0.7-2.6c0-1.6,0.6-2.9,1.7-3.7
	c1.1-0.9,2.9-1.4,5.3-1.6l2.7-0.2v-0.2c0-0.8-0.1-1.4-0.4-1.8c-0.3-0.4-0.7-0.8-1.2-0.9c-0.5-0.2-1.3-0.3-2.3-0.3
	c-0.7,0-1.4,0.1-2.3,0.2c-0.8,0.1-1.6,0.3-2.3,0.5V400c0.8-0.2,1.7-0.4,2.7-0.5c1-0.1,1.9-0.2,2.8-0.2
	C70.7,399.3,72.2,399.5,73.3,400 M70.6,413c0.5-0.2,0.9-0.4,1.2-0.8V409l-2.2,0.2c-0.9,0.1-1.6,0.3-2,0.6c-0.4,0.4-0.6,0.8-0.6,1.5
	c0,0.6,0.2,1.1,0.6,1.4c0.4,0.3,0.9,0.5,1.7,0.5C69.6,413.3,70.1,413.2,70.6,413"/>
<path class="st0" d="M81.6,414.5c-1.5-1.4-2.2-3.6-2.2-6.5c0-2.9,0.8-5.1,2.4-6.5c1.6-1.4,3.9-2.2,6.9-2.2c1.4,0,2.6,0.1,3.8,0.4
	v3.9c-1.1-0.2-2.1-0.3-3.1-0.3c-1.1,0-2.1,0.2-2.8,0.5c-0.7,0.3-1.2,0.8-1.6,1.5c-0.3,0.7-0.5,1.6-0.5,2.7c0,1.7,0.4,2.9,1.1,3.7
	c0.7,0.7,1.8,1.1,3.4,1.1c0.5,0,1.1,0,1.6-0.1c0.5-0.1,1.2-0.2,1.9-0.4v3.9c-1.3,0.4-2.7,0.6-4.3,0.6
	C85.3,416.7,83.1,416,81.6,414.5"/>
<path class="st0" d="M95.4,396.4c-0.5-0.4-0.8-1.1-0.8-1.9c0-0.8,0.3-1.5,0.8-1.9c0.5-0.4,1.3-0.7,2.3-0.7c1,0,1.8,0.2,2.3,0.7
	c0.5,0.4,0.8,1.1,0.8,1.9c0,0.8-0.3,1.5-0.8,1.9c-0.5,0.4-1.3,0.7-2.3,0.7C96.6,397.1,95.9,396.9,95.4,396.4 M95.2,399.5h4.9v16.8
	h-4.9V399.5z"/>
<path class="st0" d="M106.8,415.7c-1.2-0.6-2.2-1.6-2.8-2.9c-0.7-1.3-1-2.9-1-4.8c0-2.9,0.7-5.1,2.1-6.5c1.4-1.5,3.4-2.2,6.1-2.2
	c2.6,0,4.6,0.7,6.1,2.2c1.4,1.5,2.1,3.6,2.1,6.5c0,1.9-0.3,3.5-1,4.8c-0.7,1.3-1.6,2.3-2.8,2.9c-1.2,0.6-2.7,1-4.4,1
	S108.1,416.4,106.8,415.7 M113,412.5c0.5-0.3,0.8-0.8,1.1-1.5c0.3-0.7,0.4-1.7,0.4-2.9c0-1.2-0.1-2.2-0.4-3
	c-0.3-0.7-0.6-1.3-1.1-1.6c-0.5-0.3-1.1-0.5-1.8-0.5c-0.7,0-1.3,0.2-1.8,0.5c-0.5,0.3-0.8,0.8-1.1,1.5c-0.3,0.7-0.4,1.7-0.4,2.9
	c0,1.2,0.1,2.2,0.4,3c0.3,0.7,0.6,1.3,1.1,1.6c0.5,0.3,1.1,0.5,1.8,0.5C111.9,412.9,112.5,412.8,113,412.5"/>
<path class="st0" d="M122.3,399.5h4l0.3,1.7h0.2c0.6-0.6,1.3-1.1,2.2-1.5c0.8-0.3,1.8-0.5,2.8-0.5c1.8,0,3.2,0.5,4.2,1.6
	c1,1.1,1.5,2.7,1.5,5v10.5h-4.9v-10.2c0-1-0.2-1.7-0.6-2.1c-0.4-0.4-1-0.6-1.8-0.6c-0.6,0-1.2,0.1-1.7,0.4c-0.6,0.2-1,0.6-1.4,1
	v11.5h-4.9V399.5z"/>
<path class="st0" d="M151.5,400c1.1,0.5,2,1.2,2.5,2.2c0.5,1,0.8,2.4,0.8,4.2v10h-4.1l-0.3-1.7h-0.2c-0.5,0.7-1.1,1.2-1.9,1.5
	c-0.8,0.3-1.6,0.5-2.6,0.5c-1.1,0-2.1-0.2-2.9-0.6c-0.8-0.4-1.4-1-1.9-1.7c-0.4-0.7-0.7-1.6-0.7-2.6c0-1.6,0.6-2.9,1.7-3.7
	c1.1-0.9,2.9-1.4,5.3-1.6l2.7-0.2v-0.2c0-0.8-0.1-1.4-0.4-1.8c-0.3-0.4-0.7-0.8-1.2-0.9c-0.5-0.2-1.3-0.3-2.3-0.3
	c-0.7,0-1.4,0.1-2.3,0.2c-0.8,0.1-1.6,0.3-2.3,0.5V400c0.8-0.2,1.7-0.4,2.7-0.5c1-0.1,1.9-0.2,2.8-0.2
	C148.9,399.3,150.3,399.5,151.5,400 M148.7,413c0.5-0.2,0.9-0.4,1.2-0.8V409l-2.2,0.2c-0.9,0.1-1.6,0.3-2,0.6
	c-0.4,0.4-0.6,0.8-0.6,1.5c0,0.6,0.2,1.1,0.6,1.4c0.4,0.3,0.9,0.5,1.7,0.5C147.8,413.3,148.3,413.2,148.7,413"/>
<rect x="158.3" y="391.5" class="st0" width="4.9" height="24.8"/>
<path class="st0" d="M-81.9,450.1c-1-0.6-1.9-1.5-2.5-2.7c-0.6-1.2-0.9-2.8-0.9-4.7c0-2.9,0.8-5.2,2.3-6.7c1.6-1.5,3.8-2.3,6.8-2.3
	c0.7,0,1.3,0,2,0.1v-7.9h4.9v24.8h-4.1l-0.3-1.8h-0.2c-0.5,0.6-1.1,1.1-1.9,1.5c-0.8,0.4-1.6,0.5-2.6,0.5
	C-79.7,451-80.8,450.7-81.9,450.1 M-75.4,446.7c0.5-0.2,0.9-0.5,1.2-0.9v-8.3c-0.6-0.1-1.2-0.2-1.9-0.2c-1.4,0-2.5,0.4-3.2,1.2
	c-0.7,0.8-1,2-1,3.8c0,1.7,0.3,3,0.9,3.7s1.4,1.1,2.5,1.1C-76.4,447-75.9,446.9-75.4,446.7"/>
<path class="st0" d="M-51.2,443.7h-10.2c0.1,0.9,0.2,1.6,0.6,2.1c0.3,0.5,0.9,0.9,1.6,1.1c0.7,0.2,1.7,0.3,2.9,0.3
	c1.3,0,2.7-0.2,4.2-0.5v3.7c-1.6,0.4-3.3,0.6-4.9,0.6c-2.1,0-3.9-0.3-5.2-0.9c-1.4-0.6-2.4-1.6-3-2.8c-0.7-1.3-1-2.9-1-5
	c0-1.8,0.3-3.4,0.9-4.7c0.6-1.3,1.5-2.3,2.7-2.9c1.2-0.7,2.6-1,4.2-1c2.4,0,4.2,0.8,5.4,2.3c1.2,1.5,1.9,3.7,1.9,6.6V443.7z
	 M-60.7,437.7c-0.5,0.6-0.7,1.7-0.8,3.2h5.6c0-1.5-0.3-2.6-0.7-3.2c-0.5-0.6-1.1-0.9-2.1-0.9C-59.5,436.7-60.2,437.1-60.7,437.7"/>
<polygon class="st0" points="-35.2,450.7 -35.2,432.1 -42.4,432.1 -42.4,428 -23,428 -23,432.1 -30.2,432.1 -30.2,450.7 "/>
<path class="st0" d="M-21.6,449.4c-1-1.1-1.6-2.7-1.6-5v-10.5h4.9v10.2c0,1,0.2,1.6,0.6,2.1c0.4,0.4,1,0.6,1.7,0.6
	c0.5,0,1.1-0.1,1.6-0.4c0.6-0.2,1-0.6,1.4-1v-11.5H-8v16.8h-4.1l-0.3-1.7h-0.2c-0.6,0.7-1.4,1.2-2.2,1.5c-0.8,0.3-1.7,0.5-2.6,0.5
	C-19.2,451-20.6,450.5-21.6,449.4"/>
<path class="st0" d="M-4.4,433.9h4l0.4,2.2h0.2c0.5-0.8,1.1-1.4,1.8-1.8c0.8-0.4,1.6-0.6,2.6-0.6c0.5,0,0.9,0,1.4,0.1v4.4
	c-0.5-0.1-1-0.1-1.7-0.1c-0.7,0-1.5,0.1-2.2,0.4c-0.7,0.3-1.3,0.7-1.7,1.2v11h-4.9V433.9z"/>
<path class="st0" d="M8,433.9h4l0.3,1.7h0.2c0.6-0.6,1.3-1.1,2.2-1.5c0.8-0.3,1.8-0.5,2.8-0.5c1.8,0,3.2,0.5,4.2,1.6
	c1,1.1,1.5,2.7,1.5,5v10.5h-4.9v-10.2c0-1-0.2-1.7-0.6-2.1c-0.4-0.4-1-0.6-1.8-0.6c-0.6,0-1.2,0.1-1.7,0.4c-0.6,0.2-1,0.6-1.4,1
	v11.5H8V433.9z"/>
<path class="st0" d="M29.9,450.1c-1.2-0.6-2.2-1.6-2.8-2.9c-0.7-1.3-1-2.9-1-4.8c0-2.9,0.7-5.1,2.1-6.5c1.4-1.5,3.4-2.2,6.1-2.2
	c2.6,0,4.6,0.7,6.1,2.2c1.4,1.5,2.1,3.6,2.1,6.5c0,1.9-0.3,3.5-1,4.8c-0.7,1.3-1.6,2.3-2.8,2.9c-1.2,0.6-2.7,1-4.4,1
	S31.1,450.7,29.9,450.1 M36.1,446.8c0.5-0.3,0.8-0.8,1.1-1.5c0.3-0.7,0.4-1.7,0.4-2.9c0-1.2-0.1-2.2-0.4-3c-0.3-0.7-0.6-1.3-1.1-1.6
	c-0.5-0.3-1.1-0.5-1.8-0.5c-0.7,0-1.3,0.2-1.8,0.5c-0.5,0.3-0.8,0.8-1.1,1.5c-0.3,0.7-0.4,1.7-0.4,2.9c0,1.2,0.1,2.2,0.4,3
	c0.3,0.7,0.6,1.3,1.1,1.6c0.5,0.3,1.1,0.5,1.8,0.5C35,447.3,35.6,447.1,36.1,446.8"/>
<path class="st0" d="M44.9,450.3v-3.6c1.7,0.5,3.4,0.8,5.3,0.8c1.1,0,1.8-0.1,2.3-0.4c0.5-0.3,0.7-0.7,0.7-1.2c0-0.4-0.1-0.7-0.3-1
	c-0.2-0.2-0.6-0.4-1.2-0.5l-2.7-0.5c-1.6-0.3-2.7-0.8-3.4-1.6c-0.7-0.8-1.1-1.9-1.1-3.2c0-1.1,0.3-2,0.9-2.9
	c0.6-0.8,1.5-1.4,2.7-1.9c1.2-0.4,2.7-0.7,4.4-0.7c0.8,0,1.6,0,2.4,0.1c0.8,0.1,1.5,0.2,2.1,0.4v3.6c-1.4-0.4-2.8-0.6-4.4-0.6
	c-2.3,0-3.5,0.6-3.5,1.7c0,0.4,0.1,0.7,0.3,0.9c0.2,0.2,0.6,0.4,1.2,0.5l2.7,0.5c1.6,0.3,2.7,0.8,3.5,1.6c0.7,0.8,1.1,1.8,1.1,3.3
	c0,1.1-0.3,2.1-0.9,2.9c-0.6,0.8-1.4,1.4-2.6,1.9c-1.1,0.4-2.5,0.7-4.1,0.7C48.3,451,46.5,450.8,44.9,450.3"/>
</svg>
