<?xml version="1.0" encoding="utf-8"?>
<!-- Generator: Adobe Illustrator 19.0.0, SVG Export Plug-In . SVG Version: 6.00 Build 0)  -->
<svg version="1.1" id="Capa_1" xmlns="http://www.w3.org/2000/svg" xmlns:xlink="http://www.w3.org/1999/xlink" x="0px" y="0px"
	 viewBox="-188 400.9 218 40" style="enable-background:new -188 400.9 218 40;" xml:space="preserve">
<style type="text/css">
	.st0{fill:#231F20;}
	.st1{fill:#37BBED;}
	.st2{fill:none;}
</style>
<g transform="translate(16556 11472)">
	<path class="st0" d="M-16720.3-11056.4c1.1,1.1,1.6,2.9,1.6,5.2v11h-5.2v-10.6c0.1-0.8-0.1-1.5-0.6-2.2c-0.4-0.5-1.1-0.7-1.7-0.7
		c-0.5,0-1,0.1-1.5,0.3c-0.5,0.2-0.9,0.5-1.2,0.9c0,0.4,0.1,0.8,0.1,1.1v11.1h-5v-10.6c0.1-0.8-0.1-1.5-0.6-2.2
		c-0.4-0.4-1-0.7-1.6-0.7c-0.6,0-1.1,0.1-1.6,0.4c-0.5,0.3-0.9,0.7-1.2,1.1v11.9h-5.2v-17.5h4.3l0.3,1.7h0.3
		c1.3-1.4,3.1-2.1,4.9-2.1c0.9,0,1.8,0.2,2.6,0.6c0.8,0.4,1.4,1,1.9,1.7c0.7-0.7,1.5-1.3,2.5-1.7c0.9-0.4,1.9-0.6,2.8-0.6
		C-16722.8-11058.1-16721.3-11057.5-16720.3-11056.4"/>
	<path class="st0" d="M-16715.1-11061c-0.5-0.5-0.8-1.2-0.8-2c-0.1-0.7,0.2-1.5,0.8-2c0.7-0.5,1.5-0.7,2.4-0.7
		c0.8-0.1,1.7,0.2,2.4,0.7c0.5,0.5,0.8,1.2,0.8,2c0.1,0.7-0.2,1.5-0.8,2c-0.7,0.5-1.5,0.7-2.4,0.7
		C-16713.6-11060.3-16714.4-11060.5-16715.1-11061 M-16715.3-11057.8h5.1v17.6h-5.1V-11057.8z"/>
	<path class="st1" d="M-16683.9-11040.7l-2.5-7.6c-0.1-0.3-0.3-0.4-0.6-0.5h-10.6c-0.3,0-0.5,0.2-0.6,0.5l-2.5,7.6
		c-0.1,0.3-0.3,0.4-0.6,0.5h-3.9c-0.4,0-0.6-0.4-0.6-0.7c0,0,0-0.1,0-0.1l9.5-28c0.1-0.3,0.3-0.4,0.6-0.5h6.7c0.3,0,0.5,0.2,0.6,0.5
		l9.5,28c0.1,0.3-0.1,0.7-0.4,0.8c0,0-0.1,0-0.1,0h-4C-16683.6-11040.2-16683.8-11040.4-16683.9-11040.7 M-16695.7-11052.9h6.9
		c0.4,0,0.6-0.4,0.6-0.7c0,0,0-0.1,0-0.1l-3.4-10.6c-0.1-0.3-0.5-0.5-0.9-0.4c-0.2,0.1-0.3,0.2-0.4,0.4l-3.5,10.6
		c-0.1,0.3,0.1,0.7,0.4,0.8C-16695.9-11052.9-16695.9-11052.9-16695.7-11052.9"/>
	<path class="st1" d="M-16675-11061.8h3.1c0.3,0,0.6,0.2,0.7,0.6l0.3,2.3h0.3c0.6-1,1.4-1.8,2.5-2.3c1.1-0.5,2.2-0.8,3.4-0.8h1.1
		c0.3,0,0.6,0.3,0.6,0.7v3.4c0,0.4-0.3,0.7-0.7,0.7l0,0h-1.3c-1,0-2.1,0.2-3,0.7c-0.8,0.3-1.6,0.8-2.2,1.5c-0.1,0.1-0.1,0.2-0.1,0.4
		v13.8c0,0.4-0.3,0.7-0.7,0.7l0,0h-4c-0.4,0-0.7-0.3-0.7-0.7l0,0v-20.3C-16675.7-11061.6-16675.4-11061.8-16675-11061.8
		L-16675-11061.8"/>
	<path class="st1" d="M-16656.8-11031.3l-2.9-0.6c-0.3-0.1-0.5-0.4-0.5-0.7v-2.8c0-0.4,0.4-0.6,0.7-0.6c0,0,0,0,0,0
		c1.9,0.5,3.8,0.7,5.8,0.8c1.2,0,2.4-0.2,3.6-0.6c0.9-0.3,1.6-1,2.1-1.8c0.5-1,0.7-2.2,0.7-3.3v-1.6h-0.3c-0.7,0.8-1.5,1.4-2.5,1.8
		c-1,0.5-2.2,0.7-3.3,0.7c-1.5,0-2.9-0.4-4.2-1.1c-1.3-0.8-2.3-2.1-2.9-3.5c-0.8-1.9-1.2-3.9-1.1-6c0-3.8,1-6.6,2.9-8.6
		c2-2,4.9-2.9,8.8-2.9c1.3,0,2.7,0.1,4,0.3l3.2,0.7c0.3,0.1,0.4,0.3,0.5,0.6v18.9c0.1,2.1-0.3,4.2-1.2,6c-0.8,1.5-2.1,2.7-3.7,3.4
		c-1.9,0.8-4,1.2-6.1,1.1L-16656.8-11031.3 M-16649.1-11044.7c0.6-0.2,1.2-0.6,1.7-1.1c0.1-0.1,0.2-0.3,0.2-0.5v-10.9
		c0-0.3-0.2-0.6-0.5-0.7l-2.5-0.2c-1.7-0.1-3.4,0.5-4.6,1.7c-1,1.1-1.5,2.9-1.5,5.4s0.4,4.2,1.3,5.2c0.9,1,2.3,1.6,3.7,1.5
		C-16650.5-11044.3-16649.8-11044.4-16649.1-11044.7"/>
	<path class="st1" d="M-16620.1-11049.5h-12c-0.4,0-0.7,0.3-0.7,0.7c0,0,0,0.1,0,0.1c0.1,0.9,0.3,1.8,0.8,2.6
		c0.5,0.8,1.3,1.5,2.2,1.8c1.2,0.4,2.6,0.6,3.9,0.6c1.6,0,3.1-0.2,4.6-0.6c0.4-0.1,0.7,0.2,0.8,0.6c0,0,0,0,0,0v2.6
		c0,0.3-0.2,0.6-0.5,0.7c-1.9,0.4-3.8,0.7-5.7,0.7c-2.2,0.1-4.3-0.3-6.3-1.1c-1.6-0.7-2.9-2-3.7-3.6c-0.9-2-1.3-4.2-1.2-6.4
		c-0.1-2.1,0.3-4.2,1.1-6.1c0.7-1.6,1.8-2.9,3.3-3.8c1.6-0.9,3.4-1.3,5.2-1.2c3,0,5.2,0.9,6.7,2.8c1.5,1.9,2.3,4.7,2.3,8.4v0.8
		C-16619.4-11049.7-16619.7-11049.4-16620.1-11049.5 M-16631.6-11057.2c-0.8,1.2-1.2,2.6-1.1,4.1c0,0.4,0.3,0.7,0.7,0.7l0,0h7.2
		c0.4,0,0.7-0.3,0.7-0.7l0,0c0-1.4-0.3-2.8-1-4.1c-0.7-1-1.9-1.5-3.1-1.4C-16629.7-11058.7-16630.9-11058.2-16631.6-11057.2"/>
	<path class="st1" d="M-16615-11061.8h3.1c0.3,0,0.6,0.2,0.7,0.6l0.3,1.7h0.3c0.8-0.9,1.8-1.5,2.9-2c1.1-0.5,2.4-0.7,3.6-0.7
		c2-0.1,3.9,0.6,5.3,2c1.3,1.3,2,3.4,2,6.2v13c0,0.4-0.3,0.7-0.7,0.7h-3.9c-0.4,0-0.7-0.3-0.7-0.7v-12.8c0.1-1.1-0.2-2.2-0.9-3.1
		c-0.7-0.7-1.7-1-2.6-0.9c-0.9,0-1.7,0.2-2.6,0.6c-0.8,0.3-1.4,0.8-2,1.4c-0.1,0.1-0.2,0.2-0.2,0.4v14.5c0,0.4-0.3,0.7-0.7,0.7h-3.9
		c-0.4,0-0.7-0.3-0.7-0.7v-20.3C-16615.6-11061.6-16615.3-11061.8-16615-11061.8"/>
	<path class="st1" d="M-16579.2-11043.6v2.9c0,0.3-0.2,0.6-0.5,0.7c-1.1,0.2-2.1,0.3-3.2,0.3c-5.1,0-7.7-2.6-7.7-7.7v-9.5
		c0-0.4-0.3-0.7-0.7-0.7h-2.5c-0.4,0-0.7-0.3-0.7-0.7v-2.8c0-0.4,0.3-0.7,0.7-0.7h2.6c0.3,0,0.6-0.2,0.7-0.6l0.8-6.6
		c0-0.3,0.3-0.6,0.7-0.6h3.1c0.4,0,0.7,0.3,0.7,0.7v6.4c0,0.4,0.3,0.7,0.7,0.7h4.7c0.4,0,0.7,0.3,0.7,0.7v2.8c0,0.4-0.3,0.7-0.7,0.7
		h-4.7c-0.4,0-0.7,0.3-0.7,0.7v8.6c0,0.9,0.1,1.7,0.4,2.6c0.2,0.6,0.7,1,1.2,1.3c0.7,0.3,1.4,0.4,2.2,0.4l1.7-0.2
		c0.4-0.1,0.7,0.2,0.8,0.6c0,0,0,0.1,0,0.1"/>
	<path class="st1" d="M-16575.4-11066.2c-0.6-0.5-0.9-1.3-0.8-2.1c0-0.8,0.3-1.5,0.8-2.1c1.5-1,3.4-1,4.9,0c0.6,0.5,0.9,1.3,0.8,2.1
		c0,0.8-0.3,1.5-0.8,2.1C-16572-11065.2-16573.9-11065.2-16575.4-11066.2 M-16575.5-11040.9v-20.3c0-0.4,0.3-0.7,0.7-0.7h4
		c0.4,0,0.7,0.3,0.7,0.7v20.3c0,0.4-0.3,0.7-0.7,0.7h-4C-16575.2-11040.2-16575.5-11040.5-16575.5-11040.9"/>
	<path class="st1" d="M-16565.5-11061.8h3.1c0.3,0,0.6,0.2,0.7,0.6l0.3,1.7h0.3c0.8-0.9,1.8-1.5,2.9-2c1.1-0.4,2.4-0.7,3.6-0.7
		c2-0.1,3.9,0.6,5.3,2c1.3,1.3,2,3.4,2,6.2v13c0,0.4-0.3,0.7-0.7,0.7h-3.9c-0.4,0-0.7-0.3-0.7-0.7v-12.8c0.1-1.1-0.2-2.2-0.9-3.1
		c-0.7-0.7-1.7-1-2.6-0.9c-0.9,0-1.8,0.2-2.6,0.6c-0.8,0.3-1.4,0.8-2,1.4c-0.1,0.1-0.2,0.2-0.2,0.4v14.5c0,0.4-0.3,0.7-0.7,0.7h-3.9
		c-0.4,0-0.7-0.3-0.7-0.7v-20.3C-16566.1-11061.6-16565.8-11061.8-16565.5-11061.8"/>
	<path class="st1" d="M-16530.1-11061.3c1.3,0.5,2.4,1.5,3,2.7c0.8,1.6,1.1,3.3,1,5.1v12.6c0,0.4-0.3,0.7-0.7,0.7h-3.1
		c-0.3,0-0.6-0.2-0.7-0.6l-0.3-1.7h-0.3c-0.6,0.9-1.5,1.6-2.5,2c-1.1,0.5-2.2,0.7-3.4,0.7c-1.3,0-2.5-0.2-3.7-0.8
		c-1-0.4-1.8-1.2-2.4-2.1c-0.6-1-0.9-2.1-0.8-3.2c-0.1-1.8,0.7-3.5,2.1-4.6c1.4-1.1,3.6-1.7,6.5-2l4.1-0.4v-0.9
		c0-0.9-0.2-1.8-0.6-2.6c-0.4-0.6-0.9-1.1-1.6-1.3c-1-0.3-2-0.4-3-0.4l-2.8,0.2l-2.2,0.5c-0.3,0.1-0.7-0.1-0.8-0.4c0,0,0-0.1,0-0.1
		v-2.8c0-0.3,0.2-0.5,0.5-0.6l2.8-0.6l3.4-0.3C-16533.6-11062.2-16531.8-11061.9-16530.1-11061.3 M-16533.1-11043.9
		c0.6-0.3,1.2-0.7,1.7-1.2c0.1-0.1,0.2-0.3,0.2-0.5v-3.6c0-0.4-0.3-0.7-0.7-0.7l-2.8,0.3c-1,0-2.1,0.4-2.9,0.9
		c-0.6,0.5-1,1.3-0.9,2.2c-0.1,0.8,0.3,1.6,0.8,2.2c0.7,0.5,1.6,0.8,2.5,0.8C-16534.5-11043.5-16533.7-11043.7-16533.1-11043.9"/>
	<rect x="-16744" y="-11071.1" class="st2" width="218" height="40"/>
</g>
</svg>
