<?xml version="1.0" encoding="utf-8"?>
<!-- Generator: Adobe Illustrator 27.9.0, SVG Export Plug-In . SVG Version: 6.00 Build 0)  -->
<svg version="1.1" id="Capa_1" xmlns="http://www.w3.org/2000/svg" xmlns:xlink="http://www.w3.org/1999/xlink" x="0px" y="0px"
	 viewBox="0 0 999 999" style="enable-background:new 0 0 999 999;" xml:space="preserve">
<g>
	<g transform="translate(270,54) scale(4.635)">
		<rect x="0" y="0" width="6" height="6"/>
	</g>
	<g transform="translate(297,54) scale(4.635)">
		<rect x="0" y="0" width="6" height="6"/>
	</g>
	<g transform="translate(324,54) scale(4.635)">
		<rect x="0" y="0" width="6" height="6"/>
	</g>
	<g transform="translate(378,54) scale(4.635)">
		<rect x="0" y="0" width="6" height="6"/>
	</g>
	<g transform="translate(405,54) scale(4.635)">
		<rect x="0" y="0" width="6" height="6"/>
	</g>
	<g transform="translate(540,54) scale(4.635)">
		<rect x="0" y="0" width="6" height="6"/>
	</g>
	<g transform="translate(621,54) scale(4.635)">
		<rect x="0" y="0" width="6" height="6"/>
	</g>
	<g transform="translate(675,54) scale(4.635)">
		<rect x="0" y="0" width="6" height="6"/>
	</g>
	<g transform="translate(702,54) scale(4.635)">
		<rect x="0" y="0" width="6" height="6"/>
	</g>
	<g transform="translate(270,81) scale(4.635)">
		<rect x="0" y="0" width="6" height="6"/>
	</g>
	<g transform="translate(351,81) scale(4.635)">
		<rect x="0" y="0" width="6" height="6"/>
	</g>
	<g transform="translate(378,81) scale(4.635)">
		<rect x="0" y="0" width="6" height="6"/>
	</g>
	<g transform="translate(405,81) scale(4.635)">
		<rect x="0" y="0" width="6" height="6"/>
	</g>
	<g transform="translate(432,81) scale(4.635)">
		<rect x="0" y="0" width="6" height="6"/>
	</g>
	<g transform="translate(459,81) scale(4.635)">
		<rect x="0" y="0" width="6" height="6"/>
	</g>
	<g transform="translate(513,81) scale(4.635)">
		<rect x="0" y="0" width="6" height="6"/>
	</g>
	<g transform="translate(567,81) scale(4.635)">
		<rect x="0" y="0" width="6" height="6"/>
	</g>
	<g transform="translate(621,81) scale(4.635)">
		<rect x="0" y="0" width="6" height="6"/>
	</g>
	<g transform="translate(648,81) scale(4.635)">
		<rect x="0" y="0" width="6" height="6"/>
	</g>
	<g transform="translate(702,81) scale(4.635)">
		<rect x="0" y="0" width="6" height="6"/>
	</g>
	<g transform="translate(270,108) scale(4.635)">
		<rect x="0" y="0" width="6" height="6"/>
	</g>
	<g transform="translate(297,108) scale(4.635)">
		<rect x="0" y="0" width="6" height="6"/>
	</g>
	<g transform="translate(351,108) scale(4.635)">
		<rect x="0" y="0" width="6" height="6"/>
	</g>
	<g transform="translate(459,108) scale(4.635)">
		<rect x="0" y="0" width="6" height="6"/>
	</g>
	<g transform="translate(513,108) scale(4.635)">
		<rect x="0" y="0" width="6" height="6"/>
	</g>
	<g transform="translate(540,108) scale(4.635)">
		<rect x="0" y="0" width="6" height="6"/>
	</g>
	<g transform="translate(594,108) scale(4.635)">
		<rect x="0" y="0" width="6" height="6"/>
	</g>
	<g transform="translate(621,108) scale(4.635)">
		<rect x="0" y="0" width="6" height="6"/>
	</g>
	<g transform="translate(648,108) scale(4.635)">
		<rect x="0" y="0" width="6" height="6"/>
	</g>
	<g transform="translate(675,108) scale(4.635)">
		<rect x="0" y="0" width="6" height="6"/>
	</g>
	<g transform="translate(702,108) scale(4.635)">
		<rect x="0" y="0" width="6" height="6"/>
	</g>
	<g transform="translate(378,135) scale(4.635)">
		<rect x="0" y="0" width="6" height="6"/>
	</g>
	<g transform="translate(432,135) scale(4.635)">
		<rect x="0" y="0" width="6" height="6"/>
	</g>
	<g transform="translate(486,135) scale(4.635)">
		<rect x="0" y="0" width="6" height="6"/>
	</g>
	<g transform="translate(513,135) scale(4.635)">
		<rect x="0" y="0" width="6" height="6"/>
	</g>
	<g transform="translate(540,135) scale(4.635)">
		<rect x="0" y="0" width="6" height="6"/>
	</g>
	<g transform="translate(567,135) scale(4.635)">
		<rect x="0" y="0" width="6" height="6"/>
	</g>
	<g transform="translate(594,135) scale(4.635)">
		<rect x="0" y="0" width="6" height="6"/>
	</g>
	<g transform="translate(648,135) scale(4.635)">
		<rect x="0" y="0" width="6" height="6"/>
	</g>
	<g transform="translate(675,135) scale(4.635)">
		<rect x="0" y="0" width="6" height="6"/>
	</g>
	<g transform="translate(324,162) scale(4.635)">
		<rect x="0" y="0" width="6" height="6"/>
	</g>
	<g transform="translate(351,162) scale(4.635)">
		<rect x="0" y="0" width="6" height="6"/>
	</g>
	<g transform="translate(378,162) scale(4.635)">
		<rect x="0" y="0" width="6" height="6"/>
	</g>
	<g transform="translate(486,162) scale(4.635)">
		<rect x="0" y="0" width="6" height="6"/>
	</g>
	<g transform="translate(513,162) scale(4.635)">
		<rect x="0" y="0" width="6" height="6"/>
	</g>
	<g transform="translate(540,162) scale(4.635)">
		<rect x="0" y="0" width="6" height="6"/>
	</g>
	<g transform="translate(567,162) scale(4.635)">
		<rect x="0" y="0" width="6" height="6"/>
	</g>
	<g transform="translate(594,162) scale(4.635)">
		<rect x="0" y="0" width="6" height="6"/>
	</g>
	<g transform="translate(621,162) scale(4.635)">
		<rect x="0" y="0" width="6" height="6"/>
	</g>
	<g transform="translate(702,162) scale(4.635)">
		<rect x="0" y="0" width="6" height="6"/>
	</g>
	<g transform="translate(270,189) scale(4.635)">
		<rect x="0" y="0" width="6" height="6"/>
	</g>
	<g transform="translate(297,189) scale(4.635)">
		<rect x="0" y="0" width="6" height="6"/>
	</g>
	<g transform="translate(324,189) scale(4.635)">
		<rect x="0" y="0" width="6" height="6"/>
	</g>
	<g transform="translate(351,189) scale(4.635)">
		<rect x="0" y="0" width="6" height="6"/>
	</g>
	<g transform="translate(459,189) scale(4.635)">
		<rect x="0" y="0" width="6" height="6"/>
	</g>
	<g transform="translate(513,189) scale(4.635)">
		<rect x="0" y="0" width="6" height="6"/>
	</g>
	<g transform="translate(540,189) scale(4.635)">
		<rect x="0" y="0" width="6" height="6"/>
	</g>
	<g transform="translate(567,189) scale(4.635)">
		<rect x="0" y="0" width="6" height="6"/>
	</g>
	<g transform="translate(270,216) scale(4.635)">
		<rect x="0" y="0" width="6" height="6"/>
	</g>
	<g transform="translate(324,216) scale(4.635)">
		<rect x="0" y="0" width="6" height="6"/>
	</g>
	<g transform="translate(378,216) scale(4.635)">
		<rect x="0" y="0" width="6" height="6"/>
	</g>
	<g transform="translate(432,216) scale(4.635)">
		<rect x="0" y="0" width="6" height="6"/>
	</g>
	<g transform="translate(486,216) scale(4.635)">
		<rect x="0" y="0" width="6" height="6"/>
	</g>
	<g transform="translate(540,216) scale(4.635)">
		<rect x="0" y="0" width="6" height="6"/>
	</g>
	<g transform="translate(594,216) scale(4.635)">
		<rect x="0" y="0" width="6" height="6"/>
	</g>
	<g transform="translate(648,216) scale(4.635)">
		<rect x="0" y="0" width="6" height="6"/>
	</g>
	<g transform="translate(702,216) scale(4.635)">
		<rect x="0" y="0" width="6" height="6"/>
	</g>
	<g transform="translate(270,243) scale(4.635)">
		<rect x="0" y="0" width="6" height="6"/>
	</g>
	<g transform="translate(297,243) scale(4.635)">
		<rect x="0" y="0" width="6" height="6"/>
	</g>
	<g transform="translate(351,243) scale(4.635)">
		<rect x="0" y="0" width="6" height="6"/>
	</g>
	<g transform="translate(459,243) scale(4.635)">
		<rect x="0" y="0" width="6" height="6"/>
	</g>
	<g transform="translate(486,243) scale(4.635)">
		<rect x="0" y="0" width="6" height="6"/>
	</g>
	<g transform="translate(540,243) scale(4.635)">
		<rect x="0" y="0" width="6" height="6"/>
	</g>
	<g transform="translate(594,243) scale(4.635)">
		<rect x="0" y="0" width="6" height="6"/>
	</g>
	<g transform="translate(621,243) scale(4.635)">
		<rect x="0" y="0" width="6" height="6"/>
	</g>
	<g transform="translate(702,243) scale(4.635)">
		<rect x="0" y="0" width="6" height="6"/>
	</g>
	<g transform="translate(108,270) scale(4.635)">
		<rect x="0" y="0" width="6" height="6"/>
	</g>
	<g transform="translate(135,270) scale(4.635)">
		<rect x="0" y="0" width="6" height="6"/>
	</g>
	<g transform="translate(162,270) scale(4.635)">
		<rect x="0" y="0" width="6" height="6"/>
	</g>
	<g transform="translate(216,270) scale(4.635)">
		<rect x="0" y="0" width="6" height="6"/>
	</g>
	<g transform="translate(270,270) scale(4.635)">
		<rect x="0" y="0" width="6" height="6"/>
	</g>
	<g transform="translate(297,270) scale(4.635)">
		<rect x="0" y="0" width="6" height="6"/>
	</g>
	<g transform="translate(324,270) scale(4.635)">
		<rect x="0" y="0" width="6" height="6"/>
	</g>
	<g transform="translate(378,270) scale(4.635)">
		<rect x="0" y="0" width="6" height="6"/>
	</g>
	<g transform="translate(432,270) scale(4.635)">
		<rect x="0" y="0" width="6" height="6"/>
	</g>
	<g transform="translate(459,270) scale(4.635)">
		<rect x="0" y="0" width="6" height="6"/>
	</g>
	<g transform="translate(486,270) scale(4.635)">
		<rect x="0" y="0" width="6" height="6"/>
	</g>
	<g transform="translate(513,270) scale(4.635)">
		<rect x="0" y="0" width="6" height="6"/>
	</g>
	<g transform="translate(540,270) scale(4.635)">
		<rect x="0" y="0" width="6" height="6"/>
	</g>
	<g transform="translate(702,270) scale(4.635)">
		<rect x="0" y="0" width="6" height="6"/>
	</g>
	<g transform="translate(729,270) scale(4.635)">
		<rect x="0" y="0" width="6" height="6"/>
	</g>
	<g transform="translate(756,270) scale(4.635)">
		<rect x="0" y="0" width="6" height="6"/>
	</g>
	<g transform="translate(783,270) scale(4.635)">
		<rect x="0" y="0" width="6" height="6"/>
	</g>
	<g transform="translate(864,270) scale(4.635)">
		<rect x="0" y="0" width="6" height="6"/>
	</g>
	<g transform="translate(891,270) scale(4.635)">
		<rect x="0" y="0" width="6" height="6"/>
	</g>
	<g transform="translate(918,270) scale(4.635)">
		<rect x="0" y="0" width="6" height="6"/>
	</g>
	<g transform="translate(108,297) scale(4.635)">
		<rect x="0" y="0" width="6" height="6"/>
	</g>
	<g transform="translate(162,297) scale(4.635)">
		<rect x="0" y="0" width="6" height="6"/>
	</g>
	<g transform="translate(189,297) scale(4.635)">
		<rect x="0" y="0" width="6" height="6"/>
	</g>
	<g transform="translate(324,297) scale(4.635)">
		<rect x="0" y="0" width="6" height="6"/>
	</g>
	<g transform="translate(351,297) scale(4.635)">
		<rect x="0" y="0" width="6" height="6"/>
	</g>
	<g transform="translate(378,297) scale(4.635)">
		<rect x="0" y="0" width="6" height="6"/>
	</g>
	<g transform="translate(405,297) scale(4.635)">
		<rect x="0" y="0" width="6" height="6"/>
	</g>
	<g transform="translate(432,297) scale(4.635)">
		<rect x="0" y="0" width="6" height="6"/>
	</g>
	<g transform="translate(513,297) scale(4.635)">
		<rect x="0" y="0" width="6" height="6"/>
	</g>
	<g transform="translate(567,297) scale(4.635)">
		<rect x="0" y="0" width="6" height="6"/>
	</g>
	<g transform="translate(594,297) scale(4.635)">
		<rect x="0" y="0" width="6" height="6"/>
	</g>
	<g transform="translate(675,297) scale(4.635)">
		<rect x="0" y="0" width="6" height="6"/>
	</g>
	<g transform="translate(729,297) scale(4.635)">
		<rect x="0" y="0" width="6" height="6"/>
	</g>
	<g transform="translate(756,297) scale(4.635)">
		<rect x="0" y="0" width="6" height="6"/>
	</g>
	<g transform="translate(918,297) scale(4.635)">
		<rect x="0" y="0" width="6" height="6"/>
	</g>
	<g transform="translate(162,324) scale(4.635)">
		<rect x="0" y="0" width="6" height="6"/>
	</g>
	<g transform="translate(216,324) scale(4.635)">
		<rect x="0" y="0" width="6" height="6"/>
	</g>
	<g transform="translate(243,324) scale(4.635)">
		<rect x="0" y="0" width="6" height="6"/>
	</g>
	<g transform="translate(297,324) scale(4.635)">
		<rect x="0" y="0" width="6" height="6"/>
	</g>
	<g transform="translate(378,324) scale(4.635)">
		<rect x="0" y="0" width="6" height="6"/>
	</g>
	<g transform="translate(405,324) scale(4.635)">
		<rect x="0" y="0" width="6" height="6"/>
	</g>
	<g transform="translate(459,324) scale(4.635)">
		<rect x="0" y="0" width="6" height="6"/>
	</g>
	<g transform="translate(594,324) scale(4.635)">
		<rect x="0" y="0" width="6" height="6"/>
	</g>
	<g transform="translate(648,324) scale(4.635)">
		<rect x="0" y="0" width="6" height="6"/>
	</g>
	<g transform="translate(783,324) scale(4.635)">
		<rect x="0" y="0" width="6" height="6"/>
	</g>
	<g transform="translate(837,324) scale(4.635)">
		<rect x="0" y="0" width="6" height="6"/>
	</g>
	<g transform="translate(864,324) scale(4.635)">
		<rect x="0" y="0" width="6" height="6"/>
	</g>
	<g transform="translate(891,324) scale(4.635)">
		<rect x="0" y="0" width="6" height="6"/>
	</g>
	<g transform="translate(81,351) scale(4.635)">
		<rect x="0" y="0" width="6" height="6"/>
	</g>
	<g transform="translate(189,351) scale(4.635)">
		<rect x="0" y="0" width="6" height="6"/>
	</g>
	<g transform="translate(243,351) scale(4.635)">
		<rect x="0" y="0" width="6" height="6"/>
	</g>
	<g transform="translate(324,351) scale(4.635)">
		<rect x="0" y="0" width="6" height="6"/>
	</g>
	<g transform="translate(351,351) scale(4.635)">
		<rect x="0" y="0" width="6" height="6"/>
	</g>
	<g transform="translate(405,351) scale(4.635)">
		<rect x="0" y="0" width="6" height="6"/>
	</g>
	<g transform="translate(540,351) scale(4.635)">
		<rect x="0" y="0" width="6" height="6"/>
	</g>
	<g transform="translate(675,351) scale(4.635)">
		<rect x="0" y="0" width="6" height="6"/>
	</g>
	<g transform="translate(729,351) scale(4.635)">
		<rect x="0" y="0" width="6" height="6"/>
	</g>
	<g transform="translate(837,351) scale(4.635)">
		<rect x="0" y="0" width="6" height="6"/>
	</g>
	<g transform="translate(864,351) scale(4.635)">
		<rect x="0" y="0" width="6" height="6"/>
	</g>
	<g transform="translate(891,351) scale(4.635)">
		<rect x="0" y="0" width="6" height="6"/>
	</g>
	<g transform="translate(162,378) scale(4.635)">
		<rect x="0" y="0" width="6" height="6"/>
	</g>
	<g transform="translate(189,378) scale(4.635)">
		<rect x="0" y="0" width="6" height="6"/>
	</g>
	<g transform="translate(216,378) scale(4.635)">
		<rect x="0" y="0" width="6" height="6"/>
	</g>
	<g transform="translate(270,378) scale(4.635)">
		<rect x="0" y="0" width="6" height="6"/>
	</g>
	<g transform="translate(297,378) scale(4.635)">
		<rect x="0" y="0" width="6" height="6"/>
	</g>
	<g transform="translate(324,378) scale(4.635)">
		<rect x="0" y="0" width="6" height="6"/>
	</g>
	<g transform="translate(351,378) scale(4.635)">
		<rect x="0" y="0" width="6" height="6"/>
	</g>
	<g transform="translate(486,378) scale(4.635)">
		<rect x="0" y="0" width="6" height="6"/>
	</g>
	<g transform="translate(513,378) scale(4.635)">
		<rect x="0" y="0" width="6" height="6"/>
	</g>
	<g transform="translate(540,378) scale(4.635)">
		<rect x="0" y="0" width="6" height="6"/>
	</g>
	<g transform="translate(567,378) scale(4.635)">
		<rect x="0" y="0" width="6" height="6"/>
	</g>
	<g transform="translate(621,378) scale(4.635)">
		<rect x="0" y="0" width="6" height="6"/>
	</g>
	<g transform="translate(648,378) scale(4.635)">
		<rect x="0" y="0" width="6" height="6"/>
	</g>
	<g transform="translate(675,378) scale(4.635)">
		<rect x="0" y="0" width="6" height="6"/>
	</g>
	<g transform="translate(702,378) scale(4.635)">
		<rect x="0" y="0" width="6" height="6"/>
	</g>
	<g transform="translate(729,378) scale(4.635)">
		<rect x="0" y="0" width="6" height="6"/>
	</g>
	<g transform="translate(783,378) scale(4.635)">
		<rect x="0" y="0" width="6" height="6"/>
	</g>
	<g transform="translate(891,378) scale(4.635)">
		<rect x="0" y="0" width="6" height="6"/>
	</g>
	<g transform="translate(918,378) scale(4.635)">
		<rect x="0" y="0" width="6" height="6"/>
	</g>
	<g transform="translate(135,405) scale(4.635)">
		<rect x="0" y="0" width="6" height="6"/>
	</g>
	<g transform="translate(162,405) scale(4.635)">
		<rect x="0" y="0" width="6" height="6"/>
	</g>
	<g transform="translate(189,405) scale(4.635)">
		<rect x="0" y="0" width="6" height="6"/>
	</g>
	<g transform="translate(243,405) scale(4.635)">
		<rect x="0" y="0" width="6" height="6"/>
	</g>
	<g transform="translate(405,405) scale(4.635)">
		<rect x="0" y="0" width="6" height="6"/>
	</g>
	<g transform="translate(432,405) scale(4.635)">
		<rect x="0" y="0" width="6" height="6"/>
	</g>
	<g transform="translate(486,405) scale(4.635)">
		<rect x="0" y="0" width="6" height="6"/>
	</g>
	<g transform="translate(540,405) scale(4.635)">
		<rect x="0" y="0" width="6" height="6"/>
	</g>
	<g transform="translate(594,405) scale(4.635)">
		<rect x="0" y="0" width="6" height="6"/>
	</g>
	<g transform="translate(675,405) scale(4.635)">
		<rect x="0" y="0" width="6" height="6"/>
	</g>
	<g transform="translate(729,405) scale(4.635)">
		<rect x="0" y="0" width="6" height="6"/>
	</g>
	<g transform="translate(756,405) scale(4.635)">
		<rect x="0" y="0" width="6" height="6"/>
	</g>
	<g transform="translate(810,405) scale(4.635)">
		<rect x="0" y="0" width="6" height="6"/>
	</g>
	<g transform="translate(864,405) scale(4.635)">
		<rect x="0" y="0" width="6" height="6"/>
	</g>
	<g transform="translate(918,405) scale(4.635)">
		<rect x="0" y="0" width="6" height="6"/>
	</g>
	<g transform="translate(135,432) scale(4.635)">
		<rect x="0" y="0" width="6" height="6"/>
	</g>
	<g transform="translate(189,432) scale(4.635)">
		<rect x="0" y="0" width="6" height="6"/>
	</g>
	<g transform="translate(216,432) scale(4.635)">
		<rect x="0" y="0" width="6" height="6"/>
	</g>
	<g transform="translate(297,432) scale(4.635)">
		<rect x="0" y="0" width="6" height="6"/>
	</g>
	<g transform="translate(324,432) scale(4.635)">
		<rect x="0" y="0" width="6" height="6"/>
	</g>
	<g transform="translate(459,432) scale(4.635)">
		<rect x="0" y="0" width="6" height="6"/>
	</g>
	<g transform="translate(486,432) scale(4.635)">
		<rect x="0" y="0" width="6" height="6"/>
	</g>
	<g transform="translate(567,432) scale(4.635)">
		<rect x="0" y="0" width="6" height="6"/>
	</g>
	<g transform="translate(594,432) scale(4.635)">
		<rect x="0" y="0" width="6" height="6"/>
	</g>
	<g transform="translate(648,432) scale(4.635)">
		<rect x="0" y="0" width="6" height="6"/>
	</g>
	<g transform="translate(729,432) scale(4.635)">
		<rect x="0" y="0" width="6" height="6"/>
	</g>
	<g transform="translate(756,432) scale(4.635)">
		<rect x="0" y="0" width="6" height="6"/>
	</g>
	<g transform="translate(783,432) scale(4.635)">
		<rect x="0" y="0" width="6" height="6"/>
	</g>
	<g transform="translate(810,432) scale(4.635)">
		<rect x="0" y="0" width="6" height="6"/>
	</g>
	<g transform="translate(891,432) scale(4.635)">
		<rect x="0" y="0" width="6" height="6"/>
	</g>
	<g transform="translate(108,459) scale(4.635)">
		<rect x="0" y="0" width="6" height="6"/>
	</g>
	<g transform="translate(135,459) scale(4.635)">
		<rect x="0" y="0" width="6" height="6"/>
	</g>
	<g transform="translate(162,459) scale(4.635)">
		<rect x="0" y="0" width="6" height="6"/>
	</g>
	<g transform="translate(189,459) scale(4.635)">
		<rect x="0" y="0" width="6" height="6"/>
	</g>
	<g transform="translate(270,459) scale(4.635)">
		<rect x="0" y="0" width="6" height="6"/>
	</g>
	<g transform="translate(324,459) scale(4.635)">
		<rect x="0" y="0" width="6" height="6"/>
	</g>
	<g transform="translate(378,459) scale(4.635)">
		<rect x="0" y="0" width="6" height="6"/>
	</g>
	<g transform="translate(594,459) scale(4.635)">
		<rect x="0" y="0" width="6" height="6"/>
	</g>
	<g transform="translate(621,459) scale(4.635)">
		<rect x="0" y="0" width="6" height="6"/>
	</g>
	<g transform="translate(648,459) scale(4.635)">
		<rect x="0" y="0" width="6" height="6"/>
	</g>
	<g transform="translate(675,459) scale(4.635)">
		<rect x="0" y="0" width="6" height="6"/>
	</g>
	<g transform="translate(756,459) scale(4.635)">
		<rect x="0" y="0" width="6" height="6"/>
	</g>
	<g transform="translate(810,459) scale(4.635)">
		<rect x="0" y="0" width="6" height="6"/>
	</g>
	<g transform="translate(864,459) scale(4.635)">
		<rect x="0" y="0" width="6" height="6"/>
	</g>
	<g transform="translate(81,486) scale(4.635)">
		<rect x="0" y="0" width="6" height="6"/>
	</g>
	<g transform="translate(108,486) scale(4.635)">
		<rect x="0" y="0" width="6" height="6"/>
	</g>
	<g transform="translate(135,486) scale(4.635)">
		<rect x="0" y="0" width="6" height="6"/>
	</g>
	<g transform="translate(162,486) scale(4.635)">
		<rect x="0" y="0" width="6" height="6"/>
	</g>
	<g transform="translate(216,486) scale(4.635)">
		<rect x="0" y="0" width="6" height="6"/>
	</g>
	<g transform="translate(243,486) scale(4.635)">
		<rect x="0" y="0" width="6" height="6"/>
	</g>
	<g transform="translate(297,486) scale(4.635)">
		<rect x="0" y="0" width="6" height="6"/>
	</g>
	<g transform="translate(351,486) scale(4.635)">
		<rect x="0" y="0" width="6" height="6"/>
	</g>
	<g transform="translate(432,486) scale(4.635)">
		<rect x="0" y="0" width="6" height="6"/>
	</g>
	<g transform="translate(513,486) scale(4.635)">
		<rect x="0" y="0" width="6" height="6"/>
	</g>
	<g transform="translate(729,486) scale(4.635)">
		<rect x="0" y="0" width="6" height="6"/>
	</g>
	<g transform="translate(783,486) scale(4.635)">
		<rect x="0" y="0" width="6" height="6"/>
	</g>
	<g transform="translate(810,486) scale(4.635)">
		<rect x="0" y="0" width="6" height="6"/>
	</g>
	<g transform="translate(891,486) scale(4.635)">
		<rect x="0" y="0" width="6" height="6"/>
	</g>
	<g transform="translate(918,486) scale(4.635)">
		<rect x="0" y="0" width="6" height="6"/>
	</g>
	<g transform="translate(81,513) scale(4.635)">
		<rect x="0" y="0" width="6" height="6"/>
	</g>
	<g transform="translate(135,513) scale(4.635)">
		<rect x="0" y="0" width="6" height="6"/>
	</g>
	<g transform="translate(189,513) scale(4.635)">
		<rect x="0" y="0" width="6" height="6"/>
	</g>
	<g transform="translate(243,513) scale(4.635)">
		<rect x="0" y="0" width="6" height="6"/>
	</g>
	<g transform="translate(297,513) scale(4.635)">
		<rect x="0" y="0" width="6" height="6"/>
	</g>
	<g transform="translate(351,513) scale(4.635)">
		<rect x="0" y="0" width="6" height="6"/>
	</g>
	<g transform="translate(378,513) scale(4.635)">
		<rect x="0" y="0" width="6" height="6"/>
	</g>
	<g transform="translate(567,513) scale(4.635)">
		<rect x="0" y="0" width="6" height="6"/>
	</g>
	<g transform="translate(594,513) scale(4.635)">
		<rect x="0" y="0" width="6" height="6"/>
	</g>
	<g transform="translate(675,513) scale(4.635)">
		<rect x="0" y="0" width="6" height="6"/>
	</g>
	<g transform="translate(702,513) scale(4.635)">
		<rect x="0" y="0" width="6" height="6"/>
	</g>
	<g transform="translate(756,513) scale(4.635)">
		<rect x="0" y="0" width="6" height="6"/>
	</g>
	<g transform="translate(783,513) scale(4.635)">
		<rect x="0" y="0" width="6" height="6"/>
	</g>
	<g transform="translate(891,513) scale(4.635)">
		<rect x="0" y="0" width="6" height="6"/>
	</g>
	<g transform="translate(918,513) scale(4.635)">
		<rect x="0" y="0" width="6" height="6"/>
	</g>
	<g transform="translate(189,540) scale(4.635)">
		<rect x="0" y="0" width="6" height="6"/>
	</g>
	<g transform="translate(216,540) scale(4.635)">
		<rect x="0" y="0" width="6" height="6"/>
	</g>
	<g transform="translate(270,540) scale(4.635)">
		<rect x="0" y="0" width="6" height="6"/>
	</g>
	<g transform="translate(405,540) scale(4.635)">
		<rect x="0" y="0" width="6" height="6"/>
	</g>
	<g transform="translate(567,540) scale(4.635)">
		<rect x="0" y="0" width="6" height="6"/>
	</g>
	<g transform="translate(594,540) scale(4.635)">
		<rect x="0" y="0" width="6" height="6"/>
	</g>
	<g transform="translate(648,540) scale(4.635)">
		<rect x="0" y="0" width="6" height="6"/>
	</g>
	<g transform="translate(864,540) scale(4.635)">
		<rect x="0" y="0" width="6" height="6"/>
	</g>
	<g transform="translate(891,540) scale(4.635)">
		<rect x="0" y="0" width="6" height="6"/>
	</g>
	<g transform="translate(270,567) scale(4.635)">
		<rect x="0" y="0" width="6" height="6"/>
	</g>
	<g transform="translate(351,567) scale(4.635)">
		<rect x="0" y="0" width="6" height="6"/>
	</g>
	<g transform="translate(378,567) scale(4.635)">
		<rect x="0" y="0" width="6" height="6"/>
	</g>
	<g transform="translate(513,567) scale(4.635)">
		<rect x="0" y="0" width="6" height="6"/>
	</g>
	<g transform="translate(621,567) scale(4.635)">
		<rect x="0" y="0" width="6" height="6"/>
	</g>
	<g transform="translate(675,567) scale(4.635)">
		<rect x="0" y="0" width="6" height="6"/>
	</g>
	<g transform="translate(702,567) scale(4.635)">
		<rect x="0" y="0" width="6" height="6"/>
	</g>
	<g transform="translate(729,567) scale(4.635)">
		<rect x="0" y="0" width="6" height="6"/>
	</g>
	<g transform="translate(783,567) scale(4.635)">
		<rect x="0" y="0" width="6" height="6"/>
	</g>
	<g transform="translate(837,567) scale(4.635)">
		<rect x="0" y="0" width="6" height="6"/>
	</g>
	<g transform="translate(864,567) scale(4.635)">
		<rect x="0" y="0" width="6" height="6"/>
	</g>
	<g transform="translate(891,567) scale(4.635)">
		<rect x="0" y="0" width="6" height="6"/>
	</g>
	<g transform="translate(81,594) scale(4.635)">
		<rect x="0" y="0" width="6" height="6"/>
	</g>
	<g transform="translate(135,594) scale(4.635)">
		<rect x="0" y="0" width="6" height="6"/>
	</g>
	<g transform="translate(189,594) scale(4.635)">
		<rect x="0" y="0" width="6" height="6"/>
	</g>
	<g transform="translate(216,594) scale(4.635)">
		<rect x="0" y="0" width="6" height="6"/>
	</g>
	<g transform="translate(243,594) scale(4.635)">
		<rect x="0" y="0" width="6" height="6"/>
	</g>
	<g transform="translate(297,594) scale(4.635)">
		<rect x="0" y="0" width="6" height="6"/>
	</g>
	<g transform="translate(351,594) scale(4.635)">
		<rect x="0" y="0" width="6" height="6"/>
	</g>
	<g transform="translate(378,594) scale(4.635)">
		<rect x="0" y="0" width="6" height="6"/>
	</g>
	<g transform="translate(486,594) scale(4.635)">
		<rect x="0" y="0" width="6" height="6"/>
	</g>
	<g transform="translate(513,594) scale(4.635)">
		<rect x="0" y="0" width="6" height="6"/>
	</g>
	<g transform="translate(540,594) scale(4.635)">
		<rect x="0" y="0" width="6" height="6"/>
	</g>
	<g transform="translate(567,594) scale(4.635)">
		<rect x="0" y="0" width="6" height="6"/>
	</g>
	<g transform="translate(648,594) scale(4.635)">
		<rect x="0" y="0" width="6" height="6"/>
	</g>
	<g transform="translate(702,594) scale(4.635)">
		<rect x="0" y="0" width="6" height="6"/>
	</g>
	<g transform="translate(783,594) scale(4.635)">
		<rect x="0" y="0" width="6" height="6"/>
	</g>
	<g transform="translate(810,594) scale(4.635)">
		<rect x="0" y="0" width="6" height="6"/>
	</g>
	<g transform="translate(837,594) scale(4.635)">
		<rect x="0" y="0" width="6" height="6"/>
	</g>
	<g transform="translate(54,621) scale(4.635)">
		<rect x="0" y="0" width="6" height="6"/>
	</g>
	<g transform="translate(108,621) scale(4.635)">
		<rect x="0" y="0" width="6" height="6"/>
	</g>
	<g transform="translate(135,621) scale(4.635)">
		<rect x="0" y="0" width="6" height="6"/>
	</g>
	<g transform="translate(162,621) scale(4.635)">
		<rect x="0" y="0" width="6" height="6"/>
	</g>
	<g transform="translate(189,621) scale(4.635)">
		<rect x="0" y="0" width="6" height="6"/>
	</g>
	<g transform="translate(243,621) scale(4.635)">
		<rect x="0" y="0" width="6" height="6"/>
	</g>
	<g transform="translate(270,621) scale(4.635)">
		<rect x="0" y="0" width="6" height="6"/>
	</g>
	<g transform="translate(324,621) scale(4.635)">
		<rect x="0" y="0" width="6" height="6"/>
	</g>
	<g transform="translate(351,621) scale(4.635)">
		<rect x="0" y="0" width="6" height="6"/>
	</g>
	<g transform="translate(378,621) scale(4.635)">
		<rect x="0" y="0" width="6" height="6"/>
	</g>
	<g transform="translate(432,621) scale(4.635)">
		<rect x="0" y="0" width="6" height="6"/>
	</g>
	<g transform="translate(486,621) scale(4.635)">
		<rect x="0" y="0" width="6" height="6"/>
	</g>
	<g transform="translate(513,621) scale(4.635)">
		<rect x="0" y="0" width="6" height="6"/>
	</g>
	<g transform="translate(648,621) scale(4.635)">
		<rect x="0" y="0" width="6" height="6"/>
	</g>
	<g transform="translate(729,621) scale(4.635)">
		<rect x="0" y="0" width="6" height="6"/>
	</g>
	<g transform="translate(918,621) scale(4.635)">
		<rect x="0" y="0" width="6" height="6"/>
	</g>
	<g transform="translate(54,648) scale(4.635)">
		<rect x="0" y="0" width="6" height="6"/>
	</g>
	<g transform="translate(216,648) scale(4.635)">
		<rect x="0" y="0" width="6" height="6"/>
	</g>
	<g transform="translate(243,648) scale(4.635)">
		<rect x="0" y="0" width="6" height="6"/>
	</g>
	<g transform="translate(297,648) scale(4.635)">
		<rect x="0" y="0" width="6" height="6"/>
	</g>
	<g transform="translate(378,648) scale(4.635)">
		<rect x="0" y="0" width="6" height="6"/>
	</g>
	<g transform="translate(432,648) scale(4.635)">
		<rect x="0" y="0" width="6" height="6"/>
	</g>
	<g transform="translate(459,648) scale(4.635)">
		<rect x="0" y="0" width="6" height="6"/>
	</g>
	<g transform="translate(540,648) scale(4.635)">
		<rect x="0" y="0" width="6" height="6"/>
	</g>
	<g transform="translate(648,648) scale(4.635)">
		<rect x="0" y="0" width="6" height="6"/>
	</g>
	<g transform="translate(675,648) scale(4.635)">
		<rect x="0" y="0" width="6" height="6"/>
	</g>
	<g transform="translate(702,648) scale(4.635)">
		<rect x="0" y="0" width="6" height="6"/>
	</g>
	<g transform="translate(783,648) scale(4.635)">
		<rect x="0" y="0" width="6" height="6"/>
	</g>
	<g transform="translate(810,648) scale(4.635)">
		<rect x="0" y="0" width="6" height="6"/>
	</g>
	<g transform="translate(837,648) scale(4.635)">
		<rect x="0" y="0" width="6" height="6"/>
	</g>
	<g transform="translate(864,648) scale(4.635)">
		<rect x="0" y="0" width="6" height="6"/>
	</g>
	<g transform="translate(891,648) scale(4.635)">
		<rect x="0" y="0" width="6" height="6"/>
	</g>
	<g transform="translate(54,675) scale(4.635)">
		<rect x="0" y="0" width="6" height="6"/>
	</g>
	<g transform="translate(108,675) scale(4.635)">
		<rect x="0" y="0" width="6" height="6"/>
	</g>
	<g transform="translate(270,675) scale(4.635)">
		<rect x="0" y="0" width="6" height="6"/>
	</g>
	<g transform="translate(297,675) scale(4.635)">
		<rect x="0" y="0" width="6" height="6"/>
	</g>
	<g transform="translate(324,675) scale(4.635)">
		<rect x="0" y="0" width="6" height="6"/>
	</g>
	<g transform="translate(405,675) scale(4.635)">
		<rect x="0" y="0" width="6" height="6"/>
	</g>
	<g transform="translate(432,675) scale(4.635)">
		<rect x="0" y="0" width="6" height="6"/>
	</g>
	<g transform="translate(459,675) scale(4.635)">
		<rect x="0" y="0" width="6" height="6"/>
	</g>
	<g transform="translate(513,675) scale(4.635)">
		<rect x="0" y="0" width="6" height="6"/>
	</g>
	<g transform="translate(567,675) scale(4.635)">
		<rect x="0" y="0" width="6" height="6"/>
	</g>
	<g transform="translate(621,675) scale(4.635)">
		<rect x="0" y="0" width="6" height="6"/>
	</g>
	<g transform="translate(675,675) scale(4.635)">
		<rect x="0" y="0" width="6" height="6"/>
	</g>
	<g transform="translate(810,675) scale(4.635)">
		<rect x="0" y="0" width="6" height="6"/>
	</g>
	<g transform="translate(864,675) scale(4.635)">
		<rect x="0" y="0" width="6" height="6"/>
	</g>
	<g transform="translate(54,702) scale(4.635)">
		<rect x="0" y="0" width="6" height="6"/>
	</g>
	<g transform="translate(108,702) scale(4.635)">
		<rect x="0" y="0" width="6" height="6"/>
	</g>
	<g transform="translate(135,702) scale(4.635)">
		<rect x="0" y="0" width="6" height="6"/>
	</g>
	<g transform="translate(216,702) scale(4.635)">
		<rect x="0" y="0" width="6" height="6"/>
	</g>
	<g transform="translate(351,702) scale(4.635)">
		<rect x="0" y="0" width="6" height="6"/>
	</g>
	<g transform="translate(405,702) scale(4.635)">
		<rect x="0" y="0" width="6" height="6"/>
	</g>
	<g transform="translate(486,702) scale(4.635)">
		<rect x="0" y="0" width="6" height="6"/>
	</g>
	<g transform="translate(513,702) scale(4.635)">
		<rect x="0" y="0" width="6" height="6"/>
	</g>
	<g transform="translate(567,702) scale(4.635)">
		<rect x="0" y="0" width="6" height="6"/>
	</g>
	<g transform="translate(594,702) scale(4.635)">
		<rect x="0" y="0" width="6" height="6"/>
	</g>
	<g transform="translate(648,702) scale(4.635)">
		<rect x="0" y="0" width="6" height="6"/>
	</g>
	<g transform="translate(675,702) scale(4.635)">
		<rect x="0" y="0" width="6" height="6"/>
	</g>
	<g transform="translate(702,702) scale(4.635)">
		<rect x="0" y="0" width="6" height="6"/>
	</g>
	<g transform="translate(729,702) scale(4.635)">
		<rect x="0" y="0" width="6" height="6"/>
	</g>
	<g transform="translate(756,702) scale(4.635)">
		<rect x="0" y="0" width="6" height="6"/>
	</g>
	<g transform="translate(783,702) scale(4.635)">
		<rect x="0" y="0" width="6" height="6"/>
	</g>
	<g transform="translate(810,702) scale(4.635)">
		<rect x="0" y="0" width="6" height="6"/>
	</g>
	<g transform="translate(891,702) scale(4.635)">
		<rect x="0" y="0" width="6" height="6"/>
	</g>
	<g transform="translate(270,729) scale(4.635)">
		<rect x="0" y="0" width="6" height="6"/>
	</g>
	<g transform="translate(351,729) scale(4.635)">
		<rect x="0" y="0" width="6" height="6"/>
	</g>
	<g transform="translate(405,729) scale(4.635)">
		<rect x="0" y="0" width="6" height="6"/>
	</g>
	<g transform="translate(513,729) scale(4.635)">
		<rect x="0" y="0" width="6" height="6"/>
	</g>
	<g transform="translate(567,729) scale(4.635)">
		<rect x="0" y="0" width="6" height="6"/>
	</g>
	<g transform="translate(594,729) scale(4.635)">
		<rect x="0" y="0" width="6" height="6"/>
	</g>
	<g transform="translate(621,729) scale(4.635)">
		<rect x="0" y="0" width="6" height="6"/>
	</g>
	<g transform="translate(702,729) scale(4.635)">
		<rect x="0" y="0" width="6" height="6"/>
	</g>
	<g transform="translate(810,729) scale(4.635)">
		<rect x="0" y="0" width="6" height="6"/>
	</g>
	<g transform="translate(837,729) scale(4.635)">
		<rect x="0" y="0" width="6" height="6"/>
	</g>
	<g transform="translate(918,729) scale(4.635)">
		<rect x="0" y="0" width="6" height="6"/>
	</g>
	<g transform="translate(297,756) scale(4.635)">
		<rect x="0" y="0" width="6" height="6"/>
	</g>
	<g transform="translate(405,756) scale(4.635)">
		<rect x="0" y="0" width="6" height="6"/>
	</g>
	<g transform="translate(486,756) scale(4.635)">
		<rect x="0" y="0" width="6" height="6"/>
	</g>
	<g transform="translate(513,756) scale(4.635)">
		<rect x="0" y="0" width="6" height="6"/>
	</g>
	<g transform="translate(567,756) scale(4.635)">
		<rect x="0" y="0" width="6" height="6"/>
	</g>
	<g transform="translate(594,756) scale(4.635)">
		<rect x="0" y="0" width="6" height="6"/>
	</g>
	<g transform="translate(621,756) scale(4.635)">
		<rect x="0" y="0" width="6" height="6"/>
	</g>
	<g transform="translate(675,756) scale(4.635)">
		<rect x="0" y="0" width="6" height="6"/>
	</g>
	<g transform="translate(702,756) scale(4.635)">
		<rect x="0" y="0" width="6" height="6"/>
	</g>
	<g transform="translate(756,756) scale(4.635)">
		<rect x="0" y="0" width="6" height="6"/>
	</g>
	<g transform="translate(810,756) scale(4.635)">
		<rect x="0" y="0" width="6" height="6"/>
	</g>
	<g transform="translate(891,756) scale(4.635)">
		<rect x="0" y="0" width="6" height="6"/>
	</g>
	<g transform="translate(297,783) scale(4.635)">
		<rect x="0" y="0" width="6" height="6"/>
	</g>
	<g transform="translate(459,783) scale(4.635)">
		<rect x="0" y="0" width="6" height="6"/>
	</g>
	<g transform="translate(594,783) scale(4.635)">
		<rect x="0" y="0" width="6" height="6"/>
	</g>
	<g transform="translate(621,783) scale(4.635)">
		<rect x="0" y="0" width="6" height="6"/>
	</g>
	<g transform="translate(648,783) scale(4.635)">
		<rect x="0" y="0" width="6" height="6"/>
	</g>
	<g transform="translate(675,783) scale(4.635)">
		<rect x="0" y="0" width="6" height="6"/>
	</g>
	<g transform="translate(702,783) scale(4.635)">
		<rect x="0" y="0" width="6" height="6"/>
	</g>
	<g transform="translate(810,783) scale(4.635)">
		<rect x="0" y="0" width="6" height="6"/>
	</g>
	<g transform="translate(837,783) scale(4.635)">
		<rect x="0" y="0" width="6" height="6"/>
	</g>
	<g transform="translate(864,783) scale(4.635)">
		<rect x="0" y="0" width="6" height="6"/>
	</g>
	<g transform="translate(891,783) scale(4.635)">
		<rect x="0" y="0" width="6" height="6"/>
	</g>
	<g transform="translate(918,783) scale(4.635)">
		<rect x="0" y="0" width="6" height="6"/>
	</g>
	<g transform="translate(270,810) scale(4.635)">
		<rect x="0" y="0" width="6" height="6"/>
	</g>
	<g transform="translate(297,810) scale(4.635)">
		<rect x="0" y="0" width="6" height="6"/>
	</g>
	<g transform="translate(351,810) scale(4.635)">
		<rect x="0" y="0" width="6" height="6"/>
	</g>
	<g transform="translate(405,810) scale(4.635)">
		<rect x="0" y="0" width="6" height="6"/>
	</g>
	<g transform="translate(459,810) scale(4.635)">
		<rect x="0" y="0" width="6" height="6"/>
	</g>
	<g transform="translate(486,810) scale(4.635)">
		<rect x="0" y="0" width="6" height="6"/>
	</g>
	<g transform="translate(513,810) scale(4.635)">
		<rect x="0" y="0" width="6" height="6"/>
	</g>
	<g transform="translate(540,810) scale(4.635)">
		<rect x="0" y="0" width="6" height="6"/>
	</g>
	<g transform="translate(594,810) scale(4.635)">
		<rect x="0" y="0" width="6" height="6"/>
	</g>
	<g transform="translate(621,810) scale(4.635)">
		<rect x="0" y="0" width="6" height="6"/>
	</g>
	<g transform="translate(702,810) scale(4.635)">
		<rect x="0" y="0" width="6" height="6"/>
	</g>
	<g transform="translate(729,810) scale(4.635)">
		<rect x="0" y="0" width="6" height="6"/>
	</g>
	<g transform="translate(756,810) scale(4.635)">
		<rect x="0" y="0" width="6" height="6"/>
	</g>
	<g transform="translate(783,810) scale(4.635)">
		<rect x="0" y="0" width="6" height="6"/>
	</g>
	<g transform="translate(810,810) scale(4.635)">
		<rect x="0" y="0" width="6" height="6"/>
	</g>
	<g transform="translate(891,810) scale(4.635)">
		<rect x="0" y="0" width="6" height="6"/>
	</g>
	<g transform="translate(918,810) scale(4.635)">
		<rect x="0" y="0" width="6" height="6"/>
	</g>
	<g transform="translate(270,837) scale(4.635)">
		<rect x="0" y="0" width="6" height="6"/>
	</g>
	<g transform="translate(297,837) scale(4.635)">
		<rect x="0" y="0" width="6" height="6"/>
	</g>
	<g transform="translate(351,837) scale(4.635)">
		<rect x="0" y="0" width="6" height="6"/>
	</g>
	<g transform="translate(378,837) scale(4.635)">
		<rect x="0" y="0" width="6" height="6"/>
	</g>
	<g transform="translate(405,837) scale(4.635)">
		<rect x="0" y="0" width="6" height="6"/>
	</g>
	<g transform="translate(432,837) scale(4.635)">
		<rect x="0" y="0" width="6" height="6"/>
	</g>
	<g transform="translate(486,837) scale(4.635)">
		<rect x="0" y="0" width="6" height="6"/>
	</g>
	<g transform="translate(540,837) scale(4.635)">
		<rect x="0" y="0" width="6" height="6"/>
	</g>
	<g transform="translate(567,837) scale(4.635)">
		<rect x="0" y="0" width="6" height="6"/>
	</g>
	<g transform="translate(594,837) scale(4.635)">
		<rect x="0" y="0" width="6" height="6"/>
	</g>
	<g transform="translate(648,837) scale(4.635)">
		<rect x="0" y="0" width="6" height="6"/>
	</g>
	<g transform="translate(675,837) scale(4.635)">
		<rect x="0" y="0" width="6" height="6"/>
	</g>
	<g transform="translate(729,837) scale(4.635)">
		<rect x="0" y="0" width="6" height="6"/>
	</g>
	<g transform="translate(810,837) scale(4.635)">
		<rect x="0" y="0" width="6" height="6"/>
	</g>
	<g transform="translate(837,837) scale(4.635)">
		<rect x="0" y="0" width="6" height="6"/>
	</g>
	<g transform="translate(891,837) scale(4.635)">
		<rect x="0" y="0" width="6" height="6"/>
	</g>
	<g transform="translate(270,864) scale(4.635)">
		<rect x="0" y="0" width="6" height="6"/>
	</g>
	<g transform="translate(297,864) scale(4.635)">
		<rect x="0" y="0" width="6" height="6"/>
	</g>
	<g transform="translate(324,864) scale(4.635)">
		<rect x="0" y="0" width="6" height="6"/>
	</g>
	<g transform="translate(378,864) scale(4.635)">
		<rect x="0" y="0" width="6" height="6"/>
	</g>
	<g transform="translate(459,864) scale(4.635)">
		<rect x="0" y="0" width="6" height="6"/>
	</g>
	<g transform="translate(486,864) scale(4.635)">
		<rect x="0" y="0" width="6" height="6"/>
	</g>
	<g transform="translate(675,864) scale(4.635)">
		<rect x="0" y="0" width="6" height="6"/>
	</g>
	<g transform="translate(702,864) scale(4.635)">
		<rect x="0" y="0" width="6" height="6"/>
	</g>
	<g transform="translate(729,864) scale(4.635)">
		<rect x="0" y="0" width="6" height="6"/>
	</g>
	<g transform="translate(756,864) scale(4.635)">
		<rect x="0" y="0" width="6" height="6"/>
	</g>
	<g transform="translate(837,864) scale(4.635)">
		<rect x="0" y="0" width="6" height="6"/>
	</g>
	<g transform="translate(324,891) scale(4.635)">
		<rect x="0" y="0" width="6" height="6"/>
	</g>
	<g transform="translate(378,891) scale(4.635)">
		<rect x="0" y="0" width="6" height="6"/>
	</g>
	<g transform="translate(405,891) scale(4.635)">
		<rect x="0" y="0" width="6" height="6"/>
	</g>
	<g transform="translate(432,891) scale(4.635)">
		<rect x="0" y="0" width="6" height="6"/>
	</g>
	<g transform="translate(459,891) scale(4.635)">
		<rect x="0" y="0" width="6" height="6"/>
	</g>
	<g transform="translate(540,891) scale(4.635)">
		<rect x="0" y="0" width="6" height="6"/>
	</g>
	<g transform="translate(621,891) scale(4.635)">
		<rect x="0" y="0" width="6" height="6"/>
	</g>
	<g transform="translate(648,891) scale(4.635)">
		<rect x="0" y="0" width="6" height="6"/>
	</g>
	<g transform="translate(783,891) scale(4.635)">
		<rect x="0" y="0" width="6" height="6"/>
	</g>
	<g transform="translate(864,891) scale(4.635)">
		<rect x="0" y="0" width="6" height="6"/>
	</g>
	<g transform="translate(297,918) scale(4.635)">
		<rect x="0" y="0" width="6" height="6"/>
	</g>
	<g transform="translate(324,918) scale(4.635)">
		<rect x="0" y="0" width="6" height="6"/>
	</g>
	<g transform="translate(351,918) scale(4.635)">
		<rect x="0" y="0" width="6" height="6"/>
	</g>
	<g transform="translate(378,918) scale(4.635)">
		<rect x="0" y="0" width="6" height="6"/>
	</g>
	<g transform="translate(405,918) scale(4.635)">
		<rect x="0" y="0" width="6" height="6"/>
	</g>
	<g transform="translate(432,918) scale(4.635)">
		<rect x="0" y="0" width="6" height="6"/>
	</g>
	<g transform="translate(540,918) scale(4.635)">
		<rect x="0" y="0" width="6" height="6"/>
	</g>
	<g transform="translate(567,918) scale(4.635)">
		<rect x="0" y="0" width="6" height="6"/>
	</g>
	<g transform="translate(648,918) scale(4.635)">
		<rect x="0" y="0" width="6" height="6"/>
	</g>
	<g transform="translate(675,918) scale(4.635)">
		<rect x="0" y="0" width="6" height="6"/>
	</g>
	<g transform="translate(702,918) scale(4.635)">
		<rect x="0" y="0" width="6" height="6"/>
	</g>
	<g transform="translate(756,918) scale(4.635)">
		<rect x="0" y="0" width="6" height="6"/>
	</g>
	<g transform="translate(864,918) scale(4.635)">
		<rect x="0" y="0" width="6" height="6"/>
	</g>
	<g transform="translate(891,918) scale(4.635)">
		<rect x="0" y="0" width="6" height="6"/>
	</g>
</g>
<g>
	<g transform="translate(54,54)">
		<g transform="scale(13.5)">
			<path d="M0,0v14h14V0H0z M12,12H2V2h10V12z"/>
		</g>
	</g>
	<g transform="translate(756,54)">
		<g transform="scale(13.5)">
			<path d="M0,0v14h14V0H0z M12,12H2V2h10V12z"/>
		</g>
	</g>
	<g transform="translate(54,756)">
		<g transform="scale(13.5)">
			<path d="M0,0v14h14V0H0z M12,12H2V2h10V12z"/>
		</g>
	</g>
	<g transform="translate(108,108)">
		<g transform="scale(13.5)">
			<rect width="6" height="6"/>
		</g>
	</g>
	<g transform="translate(810,108)">
		<g transform="scale(13.5)">
			<rect width="6" height="6"/>
		</g>
	</g>
	<g transform="translate(108,810)">
		<g transform="scale(13.5)">
			<rect width="6" height="6"/>
		</g>
	</g>
</g>
</svg>
