<?xml version="1.0" encoding="utf-8"?>
<!-- Generator: Adobe Illustrator 27.9.1, SVG Export Plug-In . SVG Version: 6.00 Build 0)  -->
<svg version="1.1" id="Capa_1" xmlns="http://www.w3.org/2000/svg" xmlns:xlink="http://www.w3.org/1999/xlink" x="0px" y="0px"
	 viewBox="0 0 305 64" style="enable-background:new 0 0 305 64;" xml:space="preserve">
<style type="text/css">
	.st0{fill:#FFFFFF;}
</style>
<g>
	<path class="st0" d="M68.39,25.48c-1.06-0.19-2.01-0.38-2.97-0.67v-3.93c0.96,0.29,1.92,0.48,2.97,0.67
		c1.06,0.19,2.11,0.29,3.07,0.29c1.44,0,2.4-0.19,3.07-0.67c0.67-0.38,0.96-1.06,0.96-1.92c0-0.48-0.1-0.86-0.29-1.15
		c-0.19-0.29-0.48-0.58-0.96-0.77c-0.48-0.19-1.06-0.48-1.92-0.67l-1.63-0.38c-1.92-0.48-3.36-1.25-4.41-2.3
		c-0.96-1.06-1.44-2.4-1.44-4.03c0-2.11,0.77-3.74,2.3-4.89s3.84-1.73,6.81-1.73c0.96,0,1.92,0.1,2.78,0.19
		c0.86,0.1,1.73,0.29,2.4,0.48v3.93c-0.67-0.19-1.44-0.38-2.3-0.48c-0.86-0.1-1.73-0.19-2.59-0.19c-1.63,0-2.78,0.19-3.55,0.67
		c-0.67,0.48-1.06,1.06-1.06,1.82c0,0.48,0.1,0.77,0.29,1.15c0.19,0.38,0.48,0.58,0.86,0.77c0.38,0.19,0.96,0.38,1.63,0.58
		l1.63,0.38c2.11,0.58,3.65,1.34,4.7,2.3c0.96,1.06,1.54,2.4,1.54,4.03c0,1.34-0.38,2.59-1.06,3.65c-0.67,1.06-1.73,1.82-2.97,2.3
		c-1.34,0.58-2.88,0.77-4.7,0.77C70.5,25.67,69.44,25.57,68.39,25.48"/>
	<path class="st0" d="M83.07,6.29C82.59,5.9,82.3,5.23,82.3,4.46s0.29-1.44,0.77-1.82c0.48-0.38,1.25-0.67,2.21-0.67
		S87,2.16,87.48,2.64c0.48,0.38,0.77,1.06,0.77,1.82s-0.29,1.34-0.77,1.82C87,6.67,86.23,6.96,85.27,6.96S83.55,6.77,83.07,6.29
		 M82.88,9.26h4.7v16.12h-4.7V9.26z"/>
	<path class="st0" d="M90.74,25v-3.45c1.63,0.48,3.26,0.77,5.09,0.77c1.06,0,1.73-0.1,2.21-0.38s0.67-0.67,0.67-1.15
		c0-0.38-0.1-0.67-0.29-0.96c-0.19-0.19-0.58-0.38-1.15-0.48l-2.59-0.48c-1.54-0.29-2.59-0.77-3.26-1.54
		c-0.67-0.77-1.06-1.82-1.06-3.07c0-1.06,0.29-1.92,0.86-2.78c0.58-0.86,1.44-1.34,2.59-1.82c1.15-0.38,2.59-0.67,4.22-0.67
		c0.77,0,1.54,0,2.3,0.1c0.77,0.1,1.44,0.19,2.01,0.38v3.45c-1.34-0.38-2.69-0.58-4.22-0.58c-2.21,0-3.36,0.58-3.36,1.63
		c0,0.38,0.1,0.67,0.29,0.86c0.19,0.19,0.58,0.38,1.15,0.48l2.59,0.48c1.54,0.29,2.59,0.77,3.36,1.54c0.67,0.77,1.06,1.73,1.06,3.17
		c0,1.06-0.29,2.01-0.86,2.78c-0.58,0.77-1.34,1.34-2.49,1.82c-1.06,0.38-2.4,0.67-3.93,0.67C94.01,25.76,92.28,25.48,90.74,25"/>
	<path class="st0" d="M115.59,21.64v3.74c-0.96,0.19-2.01,0.38-2.97,0.38c-2.01,0-3.45-0.48-4.51-1.44
		c-1.06-0.96-1.54-2.49-1.54-4.61V13.1h-2.59V9.36h2.59l0.86-5.66h3.84v5.66h4.22v3.74h-4.22v5.95c0,0.77,0.1,1.34,0.29,1.73
		c0.19,0.38,0.48,0.77,0.86,0.86c0.38,0.19,0.86,0.29,1.54,0.29C114.25,21.83,114.83,21.73,115.59,21.64"/>
	<path class="st0" d="M131.43,18.76h-9.79c0.1,0.86,0.19,1.54,0.58,2.01c0.29,0.48,0.86,0.86,1.54,1.06
		c0.67,0.19,1.63,0.29,2.78,0.29c1.25,0,2.59-0.19,4.03-0.48v3.55c-1.54,0.38-3.17,0.58-4.7,0.58c-2.01,0-3.74-0.29-4.99-0.86
		c-1.34-0.58-2.3-1.54-2.88-2.69c-0.67-1.25-0.96-2.78-0.96-4.8c0-1.73,0.29-3.26,0.86-4.51c0.58-1.25,1.44-2.21,2.59-2.78
		c1.15-0.67,2.49-0.96,4.03-0.96c2.3,0,4.03,0.77,5.18,2.21c1.15,1.44,1.82,3.55,1.82,6.33v1.06L131.43,18.76L131.43,18.76z
		 M122.31,12.91c-0.48,0.58-0.67,1.63-0.77,3.07h5.37c0-1.44-0.29-2.49-0.67-3.07c-0.48-0.58-1.06-0.86-2.01-0.86
		C123.46,12.04,122.79,12.33,122.31,12.91"/>
	<path class="st0" d="M155.8,10.6c0.96,1.06,1.44,2.59,1.44,4.8v10.07h-4.61v-9.79c0-0.96-0.19-1.54-0.58-1.92
		c-0.38-0.38-0.86-0.58-1.54-0.58c-0.48,0-0.96,0.1-1.34,0.29c-0.48,0.19-0.86,0.48-1.15,0.86c0,0.29,0,0.67,0,1.06v10.17h-4.61
		v-9.79c0-0.96-0.19-1.54-0.48-2.01c-0.38-0.38-0.86-0.58-1.54-0.58c-0.48,0-0.96,0.1-1.44,0.38c-0.48,0.19-0.86,0.58-1.15,0.96
		v11.03h-4.7V9.45h3.84l0.29,1.63h0.19c1.15-1.25,2.69-1.92,4.51-1.92c0.86,0,1.73,0.19,2.4,0.48c0.67,0.38,1.25,0.86,1.73,1.63
		c0.67-0.67,1.44-1.25,2.3-1.63c0.86-0.38,1.73-0.48,2.59-0.48C153.59,9.07,154.84,9.55,155.8,10.6"/>
	<path class="st0" d="M170.57,9.64c1.06,0.48,1.92,1.15,2.4,2.11c0.48,0.96,0.77,2.3,0.77,4.03v9.59h-3.93l-0.29-1.63h-0.19
		c-0.48,0.67-1.06,1.15-1.82,1.44c-0.77,0.29-1.54,0.48-2.49,0.48c-1.06,0-2.01-0.19-2.78-0.58c-0.77-0.38-1.34-0.96-1.82-1.63
		c-0.38-0.67-0.67-1.54-0.67-2.49c0-1.54,0.58-2.78,1.63-3.55c1.06-0.86,2.78-1.34,5.09-1.54l2.59-0.19V15.5
		c0-0.77-0.1-1.34-0.38-1.73s-0.67-0.77-1.15-0.86c-0.48-0.19-1.25-0.29-2.21-0.29c-0.67,0-1.34,0.1-2.21,0.19
		c-0.77,0.1-1.54,0.29-2.21,0.48V9.74c0.77-0.19,1.63-0.38,2.59-0.48c0.96-0.1,1.82-0.19,2.69-0.19
		C168.08,9.07,169.52,9.26,170.57,9.64 M167.98,22.21c0.48-0.19,0.86-0.38,1.15-0.77v-2.97l-2.11,0.19
		c-0.86,0.1-1.54,0.29-1.92,0.58c-0.38,0.38-0.58,0.77-0.58,1.44c0,0.58,0.19,1.06,0.58,1.34c0.38,0.29,0.86,0.48,1.63,0.48
		C167.12,22.41,167.5,22.31,167.98,22.21"/>
	<polygon class="st0" points="199.07,3.6 203.68,3.6 203.68,25.38 198.78,25.38 189.28,10.8 189.28,25.38 184.77,25.38 184.77,3.6 
		189.67,3.6 199.07,18.18 	"/>
	<path class="st0" d="M217.3,9.64c1.06,0.48,1.92,1.15,2.4,2.11c0.48,0.96,0.77,2.3,0.77,4.03v9.59h-3.93l-0.29-1.63h-0.19
		c-0.48,0.67-1.06,1.15-1.82,1.44s-1.54,0.48-2.49,0.48c-1.06,0-2.01-0.19-2.78-0.58s-1.34-0.96-1.82-1.63
		c-0.38-0.67-0.67-1.54-0.67-2.49c0-1.54,0.58-2.78,1.63-3.55c1.06-0.86,2.78-1.34,5.09-1.54l2.59-0.19V15.5
		c0-0.77-0.1-1.34-0.38-1.73c-0.29-0.38-0.58-0.77-1.15-0.86c-0.48-0.19-1.25-0.29-2.21-0.29c-0.67,0-1.34,0.1-2.21,0.19
		c-0.77,0.1-1.54,0.29-2.21,0.48V9.74c0.77-0.19,1.63-0.38,2.59-0.48c0.96-0.1,1.82-0.19,2.69-0.19
		C214.81,9.07,216.24,9.26,217.3,9.64 M214.71,22.21c0.48-0.19,0.86-0.38,1.15-0.77v-2.97l-2.11,0.19c-0.86,0.1-1.54,0.29-1.92,0.58
		c-0.38,0.38-0.58,0.77-0.58,1.44c0,0.58,0.19,1.06,0.58,1.34c0.38,0.29,0.86,0.48,1.63,0.48
		C213.75,22.41,214.23,22.31,214.71,22.21"/>
	<path class="st0" d="M225.26,23.65c-1.44-1.34-2.11-3.45-2.11-6.24s0.77-4.89,2.3-6.24c1.54-1.34,3.74-2.11,6.62-2.11
		c1.34,0,2.49,0.1,3.65,0.38v3.74c-1.06-0.19-2.01-0.29-2.97-0.29c-1.06,0-2.01,0.19-2.69,0.48s-1.15,0.77-1.54,1.44
		c-0.29,0.67-0.48,1.54-0.48,2.59c0,1.63,0.38,2.78,1.06,3.55c0.67,0.67,1.73,1.06,3.26,1.06c0.48,0,1.06,0,1.54-0.1
		c0.48-0.1,1.15-0.19,1.82-0.38v3.74c-1.25,0.38-2.59,0.58-4.13,0.58C228.81,25.76,226.7,25,225.26,23.65"/>
	<path class="st0" d="M238.5,6.29c-0.48-0.38-0.77-1.06-0.77-1.82s0.29-1.44,0.77-1.82c0.48-0.38,1.25-0.67,2.21-0.67
		s1.73,0.19,2.21,0.67c0.48,0.38,0.77,1.06,0.77,1.82s-0.29,1.34-0.77,1.82c-0.48,0.38-1.25,0.67-2.21,0.67
		C239.66,6.96,238.98,6.77,238.5,6.29 M238.31,9.26h4.7v16.12h-4.7V9.26z"/>
	<path class="st0" d="M249.44,24.8c-1.15-0.58-2.11-1.54-2.69-2.78c-0.67-1.25-0.96-2.78-0.96-4.61c0-2.78,0.67-4.89,2.01-6.24
		c1.34-1.44,3.26-2.11,5.85-2.11c2.49,0,4.41,0.67,5.85,2.11c1.34,1.44,2.01,3.45,2.01,6.24c0,1.82-0.29,3.36-0.96,4.61
		s-1.54,2.21-2.69,2.78c-1.15,0.58-2.59,0.96-4.22,0.96S250.59,25.38,249.44,24.8 M255.39,21.73c0.48-0.29,0.77-0.77,1.06-1.44
		c0.29-0.67,0.38-1.63,0.38-2.78c0-1.15-0.1-2.11-0.38-2.88c-0.29-0.67-0.58-1.25-1.06-1.54c-0.48-0.29-1.06-0.48-1.73-0.48
		c-0.67,0-1.25,0.19-1.73,0.48c-0.48,0.29-0.77,0.77-1.06,1.44c-0.29,0.67-0.38,1.63-0.38,2.78c0,1.25,0.1,2.11,0.38,2.88
		c0.29,0.67,0.58,1.25,1.06,1.54c0.48,0.29,1.06,0.48,1.73,0.48C254.34,22.12,254.91,22.02,255.39,21.73"/>
	<path class="st0" d="M264.31,9.26h3.84l0.29,1.63h0.19c0.58-0.58,1.25-1.06,2.11-1.44c0.77-0.29,1.73-0.48,2.69-0.48
		c1.73,0,3.07,0.48,4.03,1.54c0.96,1.06,1.44,2.59,1.44,4.8v10.07h-4.7v-9.79c0-0.96-0.19-1.63-0.58-2.01S272.66,13,271.89,13
		c-0.58,0-1.15,0.1-1.63,0.38c-0.58,0.19-0.96,0.58-1.34,0.96v11.03h-4.7V9.26H264.31z"/>
	<path class="st0" d="M292.33,9.64c1.06,0.48,1.92,1.15,2.4,2.11s0.77,2.3,0.77,4.03v9.59h-3.93l-0.29-1.63h-0.19
		c-0.48,0.67-1.06,1.15-1.82,1.44s-1.54,0.48-2.49,0.48c-1.06,0-2.01-0.19-2.78-0.58c-0.77-0.38-1.34-0.96-1.82-1.63
		c-0.38-0.67-0.67-1.54-0.67-2.49c0-1.54,0.58-2.78,1.63-3.55c1.06-0.86,2.78-1.34,5.09-1.54l2.59-0.19V15.5
		c0-0.77-0.1-1.34-0.38-1.73s-0.58-0.77-1.15-0.86c-0.48-0.19-1.25-0.29-2.21-0.29c-0.67,0-1.34,0.1-2.21,0.19
		c-0.77,0.1-1.54,0.29-2.21,0.48V9.74c0.77-0.19,1.63-0.38,2.59-0.48c0.96-0.1,1.82-0.19,2.69-0.19
		C289.84,9.07,291.18,9.26,292.33,9.64 M289.65,22.21c0.48-0.19,0.86-0.38,1.15-0.77v-2.97l-2.11,0.19
		c-0.86,0.1-1.54,0.29-1.92,0.58c-0.38,0.38-0.58,0.77-0.58,1.44c0,0.58,0.19,1.06,0.58,1.34c0.38,0.29,0.86,0.48,1.63,0.48
		C288.78,22.41,289.26,22.31,289.65,22.21"/>
	<rect x="298.86" y="1.58" class="st0" width="4.7" height="23.8"/>
	<path class="st0" d="M68.39,57.81c-0.96-0.58-1.82-1.44-2.4-2.59c-0.58-1.15-0.86-2.69-0.86-4.51c0-2.78,0.77-4.99,2.21-6.43
		c1.54-1.44,3.65-2.21,6.52-2.21c0.67,0,1.25,0,1.92,0.1v-7.58h4.7v23.8h-3.93l-0.29-1.73h-0.19c-0.48,0.58-1.06,1.06-1.82,1.44
		c-0.77,0.38-1.54,0.48-2.49,0.48C70.5,58.67,69.44,58.39,68.39,57.81 M74.62,54.55c0.48-0.19,0.86-0.48,1.15-0.86v-7.96
		c-0.58-0.1-1.15-0.19-1.82-0.19c-1.34,0-2.4,0.38-3.07,1.15c-0.67,0.77-0.96,1.92-0.96,3.65c0,1.63,0.29,2.88,0.86,3.55
		s1.34,1.06,2.4,1.06C73.66,54.84,74.14,54.74,74.62,54.55"/>
	<path class="st0" d="M97.84,51.67h-9.79c0.1,0.86,0.19,1.54,0.58,2.01c0.29,0.48,0.86,0.86,1.54,1.06s1.63,0.29,2.78,0.29
		c1.25,0,2.59-0.19,4.03-0.48v3.55c-1.54,0.38-3.17,0.58-4.7,0.58c-2.01,0-3.74-0.29-4.99-0.86c-1.34-0.58-2.3-1.54-2.88-2.69
		c-0.67-1.25-0.96-2.78-0.96-4.8c0-1.73,0.29-3.26,0.86-4.51c0.58-1.25,1.44-2.21,2.59-2.78c1.15-0.67,2.49-0.96,4.03-0.96
		c2.3,0,4.03,0.77,5.18,2.21c1.15,1.44,1.82,3.55,1.82,6.33v1.06L97.84,51.67L97.84,51.67z M88.73,45.91
		c-0.48,0.58-0.67,1.63-0.77,3.07h5.37c0-1.44-0.29-2.49-0.67-3.07c-0.48-0.58-1.06-0.86-2.01-0.86
		C89.88,44.95,89.21,45.24,88.73,45.91"/>
	<polygon class="st0" points="113.2,58.39 113.2,40.54 106.29,40.54 106.29,36.51 124.81,36.51 124.81,40.54 117.99,40.54 
		117.99,58.39 	"/>
	<path class="st0" d="M126.24,57.14c-0.96-1.06-1.54-2.59-1.54-4.8V42.27h4.7v9.79c0,0.96,0.19,1.54,0.58,2.01
		c0.38,0.38,0.96,0.58,1.63,0.58c0.48,0,1.06-0.1,1.54-0.38c0.58-0.19,0.96-0.58,1.34-0.96V42.27h4.7v16.12h-3.93l-0.29-1.63h-0.19
		c-0.58,0.67-1.34,1.15-2.11,1.44c-0.77,0.29-1.63,0.48-2.49,0.48C128.55,58.67,127.2,58.1,126.24,57.14"/>
	<path class="st0" d="M142.75,42.27h3.84l0.38,2.11h0.19c0.48-0.77,1.06-1.34,1.73-1.73c0.77-0.38,1.54-0.58,2.49-0.58
		c0.48,0,0.86,0,1.34,0.1v4.22c-0.48-0.1-0.96-0.1-1.63-0.1c-0.67,0-1.44,0.1-2.11,0.38c-0.67,0.29-1.25,0.67-1.63,1.15v10.55h-4.7
		V42.27L142.75,42.27L142.75,42.27z"/>
	<path class="st0" d="M154.65,42.27h3.84l0.29,1.63h0.19c0.58-0.58,1.25-1.06,2.11-1.44c0.77-0.29,1.73-0.48,2.69-0.48
		c1.73,0,3.07,0.48,4.03,1.54c0.96,1.06,1.44,2.59,1.44,4.8v10.07h-4.7V48.6c0-0.96-0.19-1.63-0.58-2.01s-0.96-0.58-1.73-0.58
		c-0.58,0-1.15,0.1-1.63,0.38c-0.58,0.19-0.96,0.58-1.34,0.96v11.03h-4.61V42.27z"/>
	<path class="st0" d="M175.66,57.71c-1.15-0.58-2.11-1.54-2.69-2.78c-0.67-1.25-0.96-2.78-0.96-4.61c0-2.78,0.67-4.89,2.01-6.24
		c1.34-1.44,3.26-2.11,5.85-2.11c2.49,0,4.41,0.67,5.85,2.11c1.34,1.44,2.01,3.45,2.01,6.24c0,1.82-0.29,3.36-0.96,4.61
		c-0.67,1.25-1.54,2.21-2.69,2.78c-1.15,0.58-2.59,0.96-4.22,0.96C178.25,58.67,176.81,58.39,175.66,57.71 M181.61,54.64
		c0.48-0.29,0.77-0.77,1.06-1.44c0.29-0.67,0.38-1.63,0.38-2.78c0-1.15-0.1-2.11-0.38-2.88c-0.29-0.67-0.58-1.25-1.06-1.54
		c-0.48-0.29-1.06-0.48-1.73-0.48c-0.67,0-1.25,0.19-1.73,0.48c-0.48,0.29-0.77,0.77-1.06,1.44c-0.29,0.67-0.38,1.63-0.38,2.78
		c0,1.15,0.1,2.11,0.38,2.88c0.29,0.67,0.58,1.25,1.06,1.54c0.48,0.29,1.06,0.48,1.73,0.48C180.55,55.12,181.13,54.93,181.61,54.64"
		/>
	<path class="st0" d="M190.05,58v-3.45c1.63,0.48,3.26,0.77,5.09,0.77c1.06,0,1.73-0.1,2.21-0.38c0.48-0.29,0.67-0.67,0.67-1.15
		c0-0.38-0.1-0.67-0.29-0.96c-0.19-0.19-0.58-0.38-1.15-0.48l-2.59-0.48c-1.54-0.29-2.59-0.77-3.26-1.54
		c-0.67-0.77-1.06-1.82-1.06-3.07c0-1.06,0.29-1.92,0.86-2.78c0.58-0.77,1.44-1.34,2.59-1.82c1.15-0.38,2.59-0.67,4.22-0.67
		c0.77,0,1.54,0,2.3,0.1s1.44,0.19,2.01,0.38v3.45c-1.34-0.38-2.69-0.58-4.22-0.58c-2.21,0-3.36,0.58-3.36,1.63
		c0,0.38,0.1,0.67,0.29,0.86c0.19,0.19,0.58,0.38,1.15,0.48l2.59,0.48c1.54,0.29,2.59,0.77,3.36,1.54c0.67,0.77,1.06,1.73,1.06,3.17
		c0,1.06-0.29,2.01-0.86,2.78c-0.58,0.77-1.34,1.34-2.49,1.82c-1.06,0.38-2.4,0.67-3.93,0.67C193.31,58.67,191.59,58.48,190.05,58"
		/>
	<g>
		<path class="st0" d="M17.25,34.14c0.14-0.15,0.2-0.34,0.18-0.57c0-0.04,0-0.07,0-0.11v-2.53c0-0.38-0.33-0.8-0.78-0.84
			c-0.45,0.07-0.91,0.45-0.91,0.95v2.53c0,0.5,0.35,0.84,0.84,0.84C16.85,34.41,17.09,34.31,17.25,34.14z"/>
		<path class="st0" d="M36.52,1.08c-0.63-0.11-2.64-0.32-4.64,0.95c-1.69,1.05-2.85,2.95-3.37,5.48
			c-1.37,6.43-2.64,10.23-8.33,10.12c-6.12-0.11-6.96-3.59-8.33-10.12c-0.53-2.53-1.69-4.32-3.37-5.48
			c-1.9-1.27-4.01-1.05-4.64-0.95C3.09,1.19,2.45,1.82,2.45,2.66L2.35,44.95c0,0.42,0.21,0.95,0.53,1.16
			c0.32,0.32,0.84,0.42,1.27,0.32c0.21,0,1.48-0.21,2.53,0.53c0.95,0.63,1.69,1.9,2.11,3.59c1.27,5.8,2.53,11.92,11.07,12.66h0.21
			h0.11c8.54-0.63,9.81-6.64,11.07-12.44c0.42-1.79,1.05-2.95,2.11-3.69c1.16-0.74,2.32-0.53,2.53-0.53
			c0.42,0.11,0.95-0.11,1.27-0.32c0.32-0.32,0.53-0.74,0.53-1.16l0.11-42.29C37.89,1.93,37.26,1.19,36.52,1.08z M29.88,42.95
			l-19.3,0.11c0,0-0.01,0-0.01,0c-0.87,0-1.58-0.7-1.58-1.57c-0.01-0.87,0.7-1.59,1.57-1.59l19.3-0.11c0,0,0.01,0,0.01,0
			c0.87,0,1.58,0.7,1.58,1.57C31.46,42.23,30.76,42.95,29.88,42.95z M12.58,33.56v-2.53c0-2.12,1.7-3.93,3.88-4.11
			c0.04,0,0.09-0.01,0.13-0.01c2.21,0,4.01,1.8,4.01,4.01v2.48c0.06,1.09-0.3,2.11-1.03,2.89c-0.75,0.81-1.84,1.27-2.98,1.27
			C14.34,37.57,12.58,35.81,12.58,33.56z M21.69,32.05c-0.62-0.62-0.62-1.62,0-2.24l2.43-2.43c0.45-0.45,1.13-0.59,1.72-0.34
			c0.59,0.24,0.98,0.82,0.98,1.46v7.49c0,0.87-0.71,1.58-1.58,1.58c-0.87,0-1.58-0.71-1.58-1.58v-3.72
			C23.04,32.65,22.22,32.58,21.69,32.05z M29.87,25.02h-19.3c-0.87,0-1.58-0.71-1.58-1.58s0.71-1.58,1.58-1.58h19.3
			c0.87,0,1.58,0.71,1.58,1.58S30.75,25.02,29.87,25.02z"/>
	</g>
</g>
</svg>
