<svg xmlns="http://www.w3.org/2000/svg" viewBox="0 0 100 100"><defs><style>.cls-1{isolation:isolate;}.cls-2,.cls-3,.cls-5{fill:#1460aa;}.cls-2{opacity:0.63;}.cls-4{fill:#51b7d6;}.cls-5{opacity:0.1;mix-blend-mode:multiply;}.cls-6{fill:#aceaf9;}.cls-7{fill:#fff;}</style></defs><title>plantilla svg celestes</title><g class="cls-1"><g id="Layer_2" data-name="Layer 2"><path class="cls-2" d="M75.56,19.25H24.44a9.18,9.18,0,0,0,0,18.36H75.56a9.18,9.18,0,0,0,0-18.36Z"/><path class="cls-3" d="M75.56,19.25H24.44a9.18,9.18,0,0,0,0,18.36H75.56a9.18,9.18,0,0,0,0-18.36Zm0,14.83H24.44a5.65,5.65,0,0,1,0-11.3H75.56a5.65,5.65,0,0,1,0,11.3Z"/><path class="cls-4" d="M35.48,82a2.59,2.59,0,0,1-2.58-2.58V21.58H71V79.42A2.58,2.58,0,0,1,68.45,82Z"/><path class="cls-3" d="M69.78,22.83V79.42a1.32,1.32,0,0,1-1.33,1.33h-33a1.33,1.33,0,0,1-1.33-1.33V22.83H69.78m2.5-2.5H31.65V79.42a3.84,3.84,0,0,0,3.83,3.83h33a3.83,3.83,0,0,0,3.83-3.83V20.33Z"/><path class="cls-5" d="M69.78,62.06V22.83H34.15v16C50.93,38.65,64.43,41.7,69.78,62.06Z"/><path class="cls-6" d="M30.22,22.83H65.86a0,0,0,0,1,0,0v52.9a1.33,1.33,0,0,1-1.33,1.33h-33a1.33,1.33,0,0,1-1.33-1.33V22.83A0,0,0,0,1,30.22,22.83Z"/><path class="cls-3" d="M65.86,22.83V75.74a1.34,1.34,0,0,1-1.33,1.33h-33a1.34,1.34,0,0,1-1.33-1.33V22.83H65.86m2.5-2.5H27.72V75.74a3.84,3.84,0,0,0,3.83,3.83h33a3.84,3.84,0,0,0,3.83-3.83V20.33Z"/><path class="cls-5" d="M65.86,51.83v-29H30.22v5.74C47,28.42,60.5,31.47,65.86,51.83Z"/><ellipse class="cls-3" cx="48.04" cy="49.51" rx="7.42" ry="11.17"/><path class="cls-3" d="M48,38.94c3.76,0,6.83,4.74,6.83,10.57S51.8,60.09,48,60.09s-6.83-4.74-6.83-10.58S44.27,38.94,48,38.94m0-1.19c-4.43,0-8,5.27-8,11.76s3.59,11.77,8,11.77,8-5.27,8-11.77-3.59-11.76-8-11.76Z"/><path class="cls-7" d="M48.21,42.13a.72.72,0,0,1,.73.73v.37a6.32,6.32,0,0,1,2.65.94.93.93,0,0,1,.51.82.94.94,0,0,1-1,.94,1,1,0,0,1-.51-.15A5.85,5.85,0,0,0,48.88,45V48.3c2.59.65,3.7,1.69,3.7,3.52s-1.47,3.12-3.64,3.33v1a.72.72,0,0,1-.73.73.74.74,0,0,1-.75-.73V55.11A7.35,7.35,0,0,1,44,53.78.94.94,0,0,1,43.5,53a.94.94,0,0,1,1.5-.75,6,6,0,0,0,2.53,1.14V50c-2.5-.65-3.66-1.58-3.66-3.51s1.45-3.09,3.59-3.26v-.36A.74.74,0,0,1,48.21,42.13Zm-.68,5.81v-3c-1.1.11-1.64.69-1.64,1.44S46.21,47.52,47.53,47.94Zm1.35,2.38v3.1c1.09-.12,1.68-.66,1.68-1.48S50.19,50.73,48.88,50.32Z"/></g></g></svg>