<svg xmlns="http://www.w3.org/2000/svg" viewBox="0 0 100 100"><defs><style>.cls-1{isolation:isolate;}.cls-2{fill:#7ed9ed;}.cls-3{fill:#51b7d6;opacity:0.15;mix-blend-mode:multiply;}.cls-4{fill:#fff;}.cls-5{fill:#0dbfd1;}.cls-6{fill:#1460aa;}</style></defs><title>plantilla svg celestes</title><g class="cls-1"><g id="Layer_2" data-name="Layer 2"><rect class="cls-2" x="18.38" y="24" width="63.84" height="45.97" rx="2.42" ry="2.42"/><path class="cls-3" d="M48.27,63.65C24,63.43,22.34,51,18.38,38.84v28.3a2.43,2.43,0,0,0,2.42,2.42h59a2.43,2.43,0,0,0,2.42-2.42v-3.5S55.6,63.72,48.27,63.65Z"/><path class="cls-4" d="M29.49,34.8H70.54a1.43,1.43,0,0,0,0-2.86H29.49a1.43,1.43,0,1,0,0,2.86Z"/><path class="cls-4" d="M29.49,41.62H70.54a1.43,1.43,0,0,0,0-2.86H29.49a1.43,1.43,0,0,0,0,2.86Z"/><circle class="cls-5" cx="50.08" cy="57.93" r="8.25"/><path class="cls-2" d="M55.05,80.13,50,77l-5.13,3.16a1.61,1.61,0,0,1-2.46-1.37V64.86L50,67.7l7.55-2.84v13.9A1.62,1.62,0,0,1,55.05,80.13Z"/><path class="cls-6" d="M78.74,22.45H21.29a4.11,4.11,0,0,0-4.1,4.1V67.43a4.11,4.11,0,0,0,4.1,4.1H38.67V68.67H21.29a1.25,1.25,0,0,1-1.24-1.24V26.55a1.24,1.24,0,0,1,1.24-1.24H78.74A1.23,1.23,0,0,1,80,26.55V67.43a1.24,1.24,0,0,1-1.23,1.24H61.37v2.86H78.74a4.1,4.1,0,0,0,4.09-4.1V26.55A4.1,4.1,0,0,0,78.74,22.45Z"/><path class="cls-6" d="M61.63,59.46a2.34,2.34,0,0,0,0-4.36,2.31,2.31,0,0,1-.93-2.89,2.35,2.35,0,0,0-2.57-3.53,2.3,2.3,0,0,1-2.45-1.78,2.58,2.58,0,0,0-1.62-2.09,2.56,2.56,0,0,0-2.44.67,2.56,2.56,0,0,1-2.11.55,2.11,2.11,0,0,1-1-.48,2.34,2.34,0,0,0-4.15,1.35,2.31,2.31,0,0,1-2.46,1.78,2.35,2.35,0,0,0-2.56,3.53,2.33,2.33,0,0,1-.94,2.89,2.35,2.35,0,0,0,0,4.36,2.32,2.32,0,0,1,.94,2.88A2.56,2.56,0,0,0,39.41,65a2.35,2.35,0,0,0,1.71.92l0,13.47a2.56,2.56,0,0,0,4,2.13l4.84-3.3a.15.15,0,0,1,.16,0l4.79,3.32a2.52,2.52,0,0,0,1.45.46,2.61,2.61,0,0,0,1.19-.29,2.55,2.55,0,0,0,1.37-2.26l0-13.55A2.34,2.34,0,0,0,60.6,65l0,0a2.6,2.6,0,0,0,.06-2.59A2.3,2.3,0,0,1,61.63,59.46ZM56.47,79.4a.12.12,0,0,1-.07.12.12.12,0,0,1-.14,0L51.47,76.2a2.6,2.6,0,0,0-2.89,0l-4.85,3.29a.11.11,0,0,1-.14,0,.12.12,0,0,1-.08-.12l0-13a2.24,2.24,0,0,1,.82,1.26A2.56,2.56,0,0,0,46,69.72a2.53,2.53,0,0,0,2.45-.67,2.31,2.31,0,0,1,1.6-.64,2.19,2.19,0,0,1,1.53.58s0,.05.07.06a2.5,2.5,0,0,0,2.44.67,2.59,2.59,0,0,0,1.62-2.08,2.16,2.16,0,0,1,.82-1.28ZM50,64.86a7.59,7.59,0,1,1,7.59-7.59A7.59,7.59,0,0,1,50,64.86Z"/><polygon class="cls-4" points="51.42 55.79 50.01 52.94 48.6 55.79 45.46 56.24 47.73 58.47 47.2 61.6 50.01 60.12 52.83 61.6 52.29 58.47 54.57 56.24 51.42 55.79"/></g></g></svg>