<svg xmlns="http://www.w3.org/2000/svg" viewBox="0 0 100 100"><defs><style>.cls-1{isolation:isolate;}.cls-2{fill:#3bbae3;opacity:0.5;}.cls-3,.cls-4{fill:#51b7d6;}.cls-3{opacity:0.3;mix-blend-mode:multiply;}.cls-5{fill:#1460aa;}.cls-6{fill:#fff;}</style></defs><title>plantilla svg celestes</title><g class="cls-1"><g id="Layer_2" data-name="Layer 2"><path class="cls-2" d="M23.72,39.76H70.8a0,0,0,0,1,0,0V68.4a8,8,0,0,1-8,8h-31a8,8,0,0,1-8-8V39.76A0,0,0,0,1,23.72,39.76Z"/><path class="cls-3" d="M64.66,63.82a5.41,5.41,0,0,1-5.41,5.32c-9.88,0-31.5-.23-35.3-.14-.6,0-.51.54-.26,1.07,1,2.07,1.75,7,7.13,7h31a8,8,0,0,0,8-8l.93-29.69L65,39.76C64.89,49.22,64.76,57.5,64.66,63.82Z"/><path class="cls-4" d="M70.12,39.39V34.84A5.14,5.14,0,0,0,65,29.71H29.52a5.13,5.13,0,0,0-5.12,5.13v4.55Z"/><path class="cls-5" d="M65.45,28.07H59.77V24.26a2.41,2.41,0,0,0-4.82,0v3.81H39.56V24.26a2.41,2.41,0,0,0-4.82,0v3.81H29.07a6.47,6.47,0,0,0-6.47,6.47V68.88a9.28,9.28,0,0,0,9.27,9.27H62.65a9.28,9.28,0,0,0,9.27-9.27V34.54A6.48,6.48,0,0,0,65.45,28.07ZM29.07,30.48h5.67v3.26a2.41,2.41,0,0,0,4.82,0V30.48H55v3.26a2.41,2.41,0,1,0,4.82,0V30.48h5.68a4.07,4.07,0,0,1,4.06,4.06v3.85H25V34.54A4.06,4.06,0,0,1,29.07,30.48ZM62.65,75.74H31.87A6.87,6.87,0,0,1,25,68.88V40.8h44.5V68.88A6.87,6.87,0,0,1,62.65,75.74Z"/><rect class="cls-5" x="43.33" y="54.16" width="7.86" height="7.86" rx="2.63" ry="2.63"/><rect class="cls-6" x="32.74" y="44.58" width="7.86" height="7.86" rx="2.63" ry="2.63"/><rect class="cls-6" x="43.33" y="44.58" width="7.86" height="7.86" rx="2.63" ry="2.63"/><rect class="cls-6" x="53.92" y="44.58" width="7.86" height="7.86" rx="2.63" ry="2.63"/><rect class="cls-6" x="32.74" y="54.16" width="7.86" height="7.86" rx="2.63" ry="2.63"/><rect class="cls-6" x="53.92" y="54.16" width="7.86" height="7.86" rx="2.63" ry="2.63"/><rect class="cls-6" x="32.74" y="63.73" width="7.86" height="7.86" rx="2.63" ry="2.63"/><rect class="cls-6" x="43.33" y="63.73" width="7.86" height="7.86" rx="2.63" ry="2.63"/><rect class="cls-6" x="53.92" y="63.73" width="7.86" height="7.86" rx="2.63" ry="2.63"/></g></g></svg>