<svg xmlns="http://www.w3.org/2000/svg" viewBox="0 0 100 100"><defs><style>.cls-1{isolation:isolate;}.cls-2{fill:#fff;}.cls-3{fill:#7ed9ed;}.cls-4{fill:#51b7d6;opacity:0.15;mix-blend-mode:multiply;}.cls-5,.cls-6{fill:#1460aa;}.cls-6{font-size:13px;font-family:GothamRounded-Bold, Gotham Rounded;font-weight:700;letter-spacing:-0.03em;}</style></defs><title>plantilla svg celestes</title><g class="cls-1"><g id="Layer_2" data-name="Layer 2"><rect class="cls-2" x="18.38" y="28.51" width="63.26" height="43.81" rx="3.52" ry="3.52"/><rect class="cls-3" x="18.38" y="28.51" width="63.84" height="42.97" rx="2.42" ry="2.42"/><path class="cls-4" d="M48.27,65.58C24,65.36,22.34,52.88,18.38,40.77v28.3a2.43,2.43,0,0,0,2.42,2.42h59a2.43,2.43,0,0,0,2.42-2.42v-3.5S55.6,65.65,48.27,65.58Z"/><path class="cls-5" d="M78.61,26.55H21.39a4.67,4.67,0,0,0-4.67,4.66V68.79a4.67,4.67,0,0,0,4.67,4.66H78.61a4.67,4.67,0,0,0,4.67-4.66V31.21A4.67,4.67,0,0,0,78.61,26.55Zm2,42.24a2,2,0,0,1-2,2H21.39a2,2,0,0,1-2-2V31.21a2,2,0,0,1,2-2H78.61a2,2,0,0,1,2,2Z"/><text class="cls-6" transform="translate(34.73 47.21)">CUIL</text><rect class="cls-2" x="24.6" y="52.45" width="50.8" height="9.2" rx="2.54" ry="2.54"/><path class="cls-3" d="M27.69,58.27l.8-1-.75-.9a.42.42,0,0,1-.09-.24.31.31,0,0,1,.31-.32.33.33,0,0,1,.3.16l.64.85.63-.83a.37.37,0,0,1,.32-.18.29.29,0,0,1,.29.3.34.34,0,0,1-.1.24l-.74.92.79,1a.39.39,0,0,1,.09.24.31.31,0,0,1-.32.32.35.35,0,0,1-.29-.16l-.69-.9-.67.88a.4.4,0,0,1-.32.18.3.3,0,0,1-.29-.3A.4.4,0,0,1,27.69,58.27Z"/><path class="cls-3" d="M31.49,58.27l.79-1-.74-.9a.43.43,0,0,1-.1-.24.32.32,0,0,1,.32-.32.33.33,0,0,1,.3.16l.64.85.63-.83a.36.36,0,0,1,.32-.18.29.29,0,0,1,.29.3.34.34,0,0,1-.1.24l-.74.92.78,1a.35.35,0,0,1,.1.24.31.31,0,0,1-.32.32.34.34,0,0,1-.29-.16l-.69-.9-.68.88a.37.37,0,0,1-.31.18.3.3,0,0,1-.29-.3A.4.4,0,0,1,31.49,58.27Z"/><path class="cls-3" d="M35,57.5a.31.31,0,0,1,.3-.31H36a.31.31,0,0,1,0,.61h-.73A.31.31,0,0,1,35,57.5Z"/><path class="cls-3" d="M37.41,58.27l.79-1-.74-.9a.43.43,0,0,1-.1-.24.31.31,0,0,1,.32-.32A.33.33,0,0,1,38,56l.63.85.64-.83a.36.36,0,0,1,.31-.18.29.29,0,0,1,.3.3.39.39,0,0,1-.1.24L39,57.3l.78,1a.4.4,0,0,1,.1.24.31.31,0,0,1-.32.32.35.35,0,0,1-.3-.16l-.68-.9-.68.88a.38.38,0,0,1-.31.18.31.31,0,0,1-.3-.3A.42.42,0,0,1,37.41,58.27Z"/><path class="cls-3" d="M41.21,58.27l.79-1-.75-.9a.42.42,0,0,1-.09-.24.31.31,0,0,1,.32-.32.33.33,0,0,1,.29.16l.64.85.64-.83a.36.36,0,0,1,.31-.18.29.29,0,0,1,.29.3.38.38,0,0,1-.09.24l-.75.92.79,1a.4.4,0,0,1,.1.24.32.32,0,0,1-.32.32.35.35,0,0,1-.3-.16l-.68-.9-.68.88a.38.38,0,0,1-.31.18.3.3,0,0,1-.3-.3A.42.42,0,0,1,41.21,58.27Z"/><path class="cls-3" d="M45,58.27l.79-1-.75-.9a.42.42,0,0,1-.09-.24.31.31,0,0,1,.31-.32.33.33,0,0,1,.3.16l.64.85.64-.83a.34.34,0,0,1,.31-.18.29.29,0,0,1,.29.3.38.38,0,0,1-.09.24l-.75.92.79,1a.39.39,0,0,1,.09.24.31.31,0,0,1-.31.32.35.35,0,0,1-.3-.16l-.69-.9-.67.88a.38.38,0,0,1-.32.18.3.3,0,0,1-.29-.3A.36.36,0,0,1,45,58.27Z"/><path class="cls-3" d="M48.8,58.27l.79-1-.74-.9a.43.43,0,0,1-.1-.24.32.32,0,0,1,.32-.32.33.33,0,0,1,.3.16l.64.85.63-.83a.36.36,0,0,1,.32-.18.29.29,0,0,1,.29.3.34.34,0,0,1-.1.24l-.74.92.78,1a.35.35,0,0,1,.1.24.31.31,0,0,1-.32.32.35.35,0,0,1-.29-.16l-.69-.9-.68.88a.37.37,0,0,1-.31.18.3.3,0,0,1-.29-.3A.4.4,0,0,1,48.8,58.27Z"/><path class="cls-3" d="M52.6,58.27l.79-1-.74-.9a.43.43,0,0,1-.1-.24.32.32,0,0,1,.32-.32.33.33,0,0,1,.3.16l.64.85.63-.83a.36.36,0,0,1,.31-.18.29.29,0,0,1,.3.3.39.39,0,0,1-.1.24l-.74.92.78,1a.4.4,0,0,1,.1.24.31.31,0,0,1-.32.32.35.35,0,0,1-.3-.16l-.68-.9-.68.88a.38.38,0,0,1-.31.18.3.3,0,0,1-.29-.3A.4.4,0,0,1,52.6,58.27Z"/><path class="cls-3" d="M56.4,58.27l.79-1-.74-.9a.43.43,0,0,1-.1-.24.31.31,0,0,1,.32-.32A.32.32,0,0,1,57,56l.64.85.64-.83a.36.36,0,0,1,.31-.18.3.3,0,0,1,.3.3.39.39,0,0,1-.1.24L58,57.3l.79,1a.4.4,0,0,1,.1.24.32.32,0,0,1-.32.32.35.35,0,0,1-.3-.16l-.68-.9-.68.88a.38.38,0,0,1-.31.18.3.3,0,0,1-.3-.3A.42.42,0,0,1,56.4,58.27Z"/><path class="cls-3" d="M60.2,58.27l.79-1-.75-.9a.42.42,0,0,1-.09-.24.31.31,0,0,1,.31-.32.33.33,0,0,1,.3.16l.64.85L62,56a.34.34,0,0,1,.31-.18.29.29,0,0,1,.29.3.38.38,0,0,1-.09.24l-.75.92.79,1a.4.4,0,0,1,.1.24.32.32,0,0,1-.32.32.35.35,0,0,1-.3-.16l-.69-.9-.67.88a.38.38,0,0,1-.32.18.3.3,0,0,1-.29-.3A.36.36,0,0,1,60.2,58.27Z"/><path class="cls-3" d="M64,58.27l.8-1L64,56.4a.43.43,0,0,1-.1-.24.32.32,0,0,1,.32-.32.33.33,0,0,1,.3.16l.64.85.63-.83a.37.37,0,0,1,.32-.18.29.29,0,0,1,.29.3.34.34,0,0,1-.1.24l-.74.92.79,1a.39.39,0,0,1,.09.24.31.31,0,0,1-.32.32.35.35,0,0,1-.29-.16l-.69-.9-.67.88a.4.4,0,0,1-.32.18.3.3,0,0,1-.29-.3A.4.4,0,0,1,64,58.27Z"/><path class="cls-3" d="M67.48,57.5a.31.31,0,0,1,.3-.31h.73a.31.31,0,1,1,0,.61h-.73A.31.31,0,0,1,67.48,57.5Z"/><path class="cls-3" d="M69.91,58.27l.79-1L70,56.4a.43.43,0,0,1-.1-.24.32.32,0,0,1,.32-.32.33.33,0,0,1,.3.16l.64.85.63-.83a.36.36,0,0,1,.32-.18.29.29,0,0,1,.29.3.34.34,0,0,1-.1.24l-.74.92.78,1a.4.4,0,0,1,.1.24.31.31,0,0,1-.32.32.34.34,0,0,1-.29-.16l-.69-.9-.68.88a.37.37,0,0,1-.31.18.3.3,0,0,1-.29-.3A.4.4,0,0,1,69.91,58.27Z"/></g></g></svg>