<svg xmlns="http://www.w3.org/2000/svg" viewBox="0 0 100 100"><defs><style>.cls-1{isolation:isolate;}.cls-2{fill:#0dbfd1;stroke:#0dbfd1;stroke-miterlimit:10;stroke-width:2px;opacity:0.7;}.cls-3,.cls-4{fill:#51b7d6;mix-blend-mode:multiply;}.cls-3{opacity:0.15;}.cls-4{opacity:0.3;}.cls-5{fill:#1460aa;}.cls-6{fill:#fff;}</style></defs><title>plantilla svg celestes</title><g class="cls-1"><g id="Layer_2" data-name="Layer 2"><path class="cls-2" d="M25.18,29.28a4.54,4.54,0,0,1,4.53-4.52H70.29a4.53,4.53,0,0,1,4.53,4.52V67.6a7.65,7.65,0,0,1-7.65,7.64H32.83a7.65,7.65,0,0,1-7.65-7.64Z"/><path class="cls-3" d="M75.62,71.08c-8,0-17.42,0-21.35,0C30,70.83,28.34,58.36,24.38,46.25V68.61A8.38,8.38,0,0,0,32.74,77h36A23.1,23.1,0,0,0,75.62,71.08Z"/><path class="cls-4" d="M39.62,56.14h6.24v6.15a2.21,2.21,0,0,0,1.93,2.17h6.57a2.1,2.1,0,0,0,1.79-2.17V56.14h6.37a2.07,2.07,0,0,0,1.94-2V47.56a1.81,1.81,0,0,0-1.94-1.7H56.15V39.39a1.8,1.8,0,0,0-1.79-1.85H47.79a1.92,1.92,0,0,0-1.93,1.85v6.47H39.62a1.94,1.94,0,0,0-2.08,1.7v6.57A2.2,2.2,0,0,0,39.62,56.14Z"/><path class="cls-5" d="M32.83,77.93H67.17A10.35,10.35,0,0,0,77.51,67.6V29.28a7.23,7.23,0,0,0-7.22-7.21H29.71a7.23,7.23,0,0,0-7.22,7.21V67.6A10.35,10.35,0,0,0,32.83,77.93ZM25.18,29.28a4.54,4.54,0,0,1,4.53-4.52H70.29a4.53,4.53,0,0,1,4.53,4.52V67.6a7.65,7.65,0,0,1-7.65,7.64H32.83a7.65,7.65,0,0,1-7.65-7.64Z"/><path class="cls-6" d="M38.62,55.14h6.24v6.15a2.21,2.21,0,0,0,1.93,2.17h6.57a2.1,2.1,0,0,0,1.79-2.17V55.14h6.37a2.07,2.07,0,0,0,1.94-2V46.56a1.81,1.81,0,0,0-1.94-1.7H55.15V38.39a1.8,1.8,0,0,0-1.79-1.85H46.79a1.92,1.92,0,0,0-1.93,1.85v6.47H38.62a1.94,1.94,0,0,0-2.08,1.7v6.57A2.2,2.2,0,0,0,38.62,55.14Z"/></g></g></svg>