<svg xmlns="http://www.w3.org/2000/svg" viewBox="0 0 100 100"><defs><style>.cls-1{isolation:isolate;}.cls-2{opacity:0.7;}.cls-3{fill:#7ed9ed;}.cls-4{fill:#009dd8;}.cls-5{fill:#51b7d6;opacity:0.15;mix-blend-mode:multiply;}.cls-6{fill:none;}.cls-7{fill:#1460aa;}.cls-8{fill:#fff;}</style></defs><title>plantilla svg celestes</title><g class="cls-1"><g id="Layer_2" data-name="Layer 2"><g class="cls-2"><path class="cls-3" d="M76.09,61.83v-34a4.76,4.76,0,0,0-4.76-4.75H28.73A4.76,4.76,0,0,0,24,27.85V68.08a8,8,0,0,0,8,8H62.81c0-.08,0-.17,0-.26A14.22,14.22,0,0,1,76.09,61.83Z"/><path class="cls-4" d="M76.09,61.83v-34a4.76,4.76,0,0,0-4.76-4.75H28.73A4.76,4.76,0,0,0,24,27.85V68.08a8,8,0,0,0,8,8H62.81c0-.08,0-.17,0-.26A14.22,14.22,0,0,1,76.09,61.83Z"/></g><path class="cls-5" d="M64.16,69.9c-4.69,0-8.28,0-10.58,0-24.26-.23-25.93-12.7-29.89-24.82V67.42a8.38,8.38,0,0,0,8.36,8.36h30.8A11.82,11.82,0,0,1,64.16,69.9Z"/><path class="cls-6" d="M71,24H30.43a7.22,7.22,0,0,0-7.22,7.22V69.49A10.35,10.35,0,0,0,33.54,79.83H67.88A10.35,10.35,0,0,0,78.22,69.49V31.18A7.23,7.23,0,0,0,71,24Zm4.53,45.53a7.66,7.66,0,0,1-7.65,7.65H33.54a7.65,7.65,0,0,1-7.64-7.65V31.18a4.53,4.53,0,0,1,4.53-4.53H71a4.53,4.53,0,0,1,4.53,4.53Z"/><path class="cls-7" d="M51.17,39a3.33,3.33,0,0,1,2.7,1.22,5.59,5.59,0,0,1,1,3.66h5.9a9.93,9.93,0,0,0-2-6.48,8.54,8.54,0,0,0-5.65-3V30H49.82v4.36A9.32,9.32,0,0,0,44,36.93a7.66,7.66,0,0,0-2.2,5.65A8.4,8.4,0,0,0,42.41,46a7.67,7.67,0,0,0,1.79,2.52A12,12,0,0,0,47,50.45a37.6,37.6,0,0,0,3.83,1.66A8.43,8.43,0,0,1,54,53.94a3.76,3.76,0,0,1,.92,2.66,3.27,3.27,0,0,1-1,2.56,4.05,4.05,0,0,1-2.83,1,4.2,4.2,0,0,1-3.32-1.3,5.4,5.4,0,0,1-1.15-3.72h-5.9a9.56,9.56,0,0,0,2.3,6.7,9.82,9.82,0,0,0,6.48,3v4h3.24V64.74a9.5,9.5,0,0,0,6-2.55,7.62,7.62,0,0,0,2.16-5.63,8.63,8.63,0,0,0-.57-3.26,7.48,7.48,0,0,0-1.65-2.48,11.54,11.54,0,0,0-2.66-2,35.69,35.69,0,0,0-4-1.85,9.77,9.77,0,0,1-3.34-1.92,3.43,3.43,0,0,1-.9-2.49A3.64,3.64,0,0,1,48.58,40,3.45,3.45,0,0,1,51.17,39Z"/><path class="cls-7" d="M62.9,74.64H32.83A7.66,7.66,0,0,1,25.18,67V28.68a4.55,4.55,0,0,1,4.53-4.53H70.29a4.54,4.54,0,0,1,4.53,4.53V62A13.89,13.89,0,0,1,77,61.8l.53,0V28.68a7.22,7.22,0,0,0-7.22-7.21H29.71a7.22,7.22,0,0,0-7.22,7.21V67A10.35,10.35,0,0,0,32.83,77.33H62.9c0-.46-.07-.92-.07-1.39S62.86,75.07,62.9,74.64Z"/><path class="cls-7" d="M77,64.68A11.27,11.27,0,1,0,88.24,75.94,11.27,11.27,0,0,0,77,64.68ZM75.71,81.63h0L69.9,74.42l2-1.81,3.67,3.69,6.48-5.71,2,1.7Z"/><path class="cls-8" d="M51.17,39a3.33,3.33,0,0,1,2.7,1.22,5.59,5.59,0,0,1,1,3.66h5.9a9.93,9.93,0,0,0-2-6.48,8.54,8.54,0,0,0-5.65-3V30H49.82v4.36A9.32,9.32,0,0,0,44,36.93a7.66,7.66,0,0,0-2.2,5.65A8.4,8.4,0,0,0,42.41,46a7.67,7.67,0,0,0,1.79,2.52A12,12,0,0,0,47,50.45a37.6,37.6,0,0,0,3.83,1.66A8.43,8.43,0,0,1,54,53.94a3.76,3.76,0,0,1,.92,2.66,3.27,3.27,0,0,1-1,2.56,4.05,4.05,0,0,1-2.83,1,4.2,4.2,0,0,1-3.32-1.3,5.4,5.4,0,0,1-1.15-3.72h-5.9a9.56,9.56,0,0,0,2.3,6.7,9.82,9.82,0,0,0,6.48,3v4h3.24V64.74a9.5,9.5,0,0,0,6-2.55,7.62,7.62,0,0,0,2.16-5.63,8.63,8.63,0,0,0-.57-3.26,7.48,7.48,0,0,0-1.65-2.48,11.54,11.54,0,0,0-2.66-2,35.69,35.69,0,0,0-4-1.85,9.77,9.77,0,0,1-3.34-1.92,3.43,3.43,0,0,1-.9-2.49A3.64,3.64,0,0,1,48.58,40,3.45,3.45,0,0,1,51.17,39Z"/></g></g></svg>