<svg xmlns="http://www.w3.org/2000/svg" viewBox="0 0 100 100"><defs><style>.cls-1{fill:#1460aa;}.cls-2{fill:#64c4e7;}.cls-3{fill:#f08f3c;}.cls-4{fill:#51b7d6;}.cls-5{fill:#009dd8;}.cls-6{fill:#7ed9ed;}</style></defs><title>plantilla svg celestes</title><g id="Layer_2" data-name="Layer 2"><path class="cls-1" d="M44,80.07l-1.46-6a12.34,12.34,0,0,1-8.48.86,12.48,12.48,0,0,1-9.32-13l-6.13.93A18.57,18.57,0,0,0,44,80.07Z"/><path class="cls-2" d="M19.94,44l6-1.46a12.42,12.42,0,0,1,12.09-17.8l-.93-6.13a18.28,18.28,0,0,0-14.28,6.8A18.47,18.47,0,0,0,19.94,44Z"/><path class="cls-3" d="M80.06,56l-6,1.46A12.34,12.34,0,0,1,74.89,66a12.5,12.5,0,0,1-13,9.32l.93,6.12A18.56,18.56,0,0,0,80.06,56Z"/><path class="cls-1" d="M56,19.94l1.45,6a12.42,12.42,0,0,1,17.8,12.09l6.13-.93A18.56,18.56,0,0,0,56,19.94Z"/><path class="cls-3" d="M80.06,56l-6,1.46A12.34,12.34,0,0,1,74.89,66a12.5,12.5,0,0,1-13,9.32l.93,6.12A18.56,18.56,0,0,0,80.06,56Z"/><path class="cls-3" d="M80.06,56l-6,1.46A12.34,12.34,0,0,1,74.89,66a12.5,12.5,0,0,1-13,9.32l.93,6.12A18.56,18.56,0,0,0,80.06,56Z"/><path class="cls-2" d="M80.06,56l-6,1.46A12.34,12.34,0,0,1,74.89,66a12.5,12.5,0,0,1-13,9.32l.93,6.12A18.56,18.56,0,0,0,80.06,56Z"/><path class="cls-4" d="M44.53,20.1a19.78,19.78,0,0,0-7.4-1.51l.93,6.13.45,0a12.35,12.35,0,0,1,11,11.77c.1,1.79.11,3.59.16,5.44l-4.9,0s1.78,4.09,5.62,4.1,4.79-3.55,5.05-5C57.23,31.08,52.44,23.35,44.53,20.1Z"/><path class="cls-5" d="M51.34,31.89A12.56,12.56,0,0,1,57.48,26l-1.45-6a14.52,14.52,0,0,0-3.19,1.68,20.16,20.16,0,0,0-8.05,20.56c1.14,4.46,4.68,4.19,6.6,3.83a3.75,3.75,0,0,0,2.55-1.44c-2.87.27-4-2.33-4.2-4.16A26.85,26.85,0,0,1,51.34,31.89Z"/><path class="cls-5" d="M79.9,44.53a19.74,19.74,0,0,0,1.51-7.4l-6.13.93,0,.45a12.36,12.36,0,0,1-11.77,11c-1.79.1-3.59.11-5.45.16l0-4.89s-4.09,1.77-4.1,5.61,3.55,4.79,5,5.05C68.92,57.23,76.64,52.44,79.9,44.53Z"/><path class="cls-6" d="M68.11,51.34A12.58,12.58,0,0,1,74,57.49l6-1.46a14.52,14.52,0,0,0-1.68-3.19,20,20,0,0,0-20.56-8.05c-4.46,1.14-4.2,4.68-3.83,6.6a3.75,3.75,0,0,0,1.44,2.55c-.27-2.87,2.32-4,4.15-4.2A26.85,26.85,0,0,1,68.11,51.34Z"/><path class="cls-5" d="M20.1,55.47a19.78,19.78,0,0,0-1.51,7.4l6.13-.93,0-.45a12.36,12.36,0,0,1,11.77-11c1.79-.1,3.59-.11,5.45-.16l0,4.9s4.08-1.77,4.1-5.62-3.55-4.79-5-5.05C31.08,42.77,23.35,47.56,20.1,55.47Z"/><path class="cls-6" d="M31.89,48.66A12.56,12.56,0,0,1,26,42.52l-6,1.45a14.11,14.11,0,0,0,1.68,3.19,19.9,19.9,0,0,0,20.56,8.05c4.46-1.14,4.19-4.68,3.82-6.6a3.72,3.72,0,0,0-1.43-2.55c.27,2.87-2.33,4-4.16,4.2A26.8,26.8,0,0,1,31.89,48.66Z"/><path class="cls-4" d="M55.47,79.9a19.78,19.78,0,0,0,7.4,1.51l-.94-6.13-.44,0a12.36,12.36,0,0,1-11-11.77c-.1-1.79-.11-3.59-.16-5.44l4.9,0s-1.78-4.08-5.62-4.1-4.79,3.55-5.05,5C42.77,68.92,47.56,76.65,55.47,79.9Z"/><path class="cls-5" d="M48.66,68.11A12.56,12.56,0,0,1,42.52,74l1.45,6a14.52,14.52,0,0,0,3.19-1.68c6.33-4.65,9.7-11.72,8.05-20.56-1.14-4.46-4.68-4.19-6.6-3.83a3.75,3.75,0,0,0-2.55,1.44c2.87-.27,4,2.33,4.2,4.15A28,28,0,0,1,48.66,68.11Z"/></g></svg>