<svg xmlns="http://www.w3.org/2000/svg" viewBox="0 0 100 100"><defs><style>.cls-1{isolation:isolate;}.cls-2{fill:#7ed9ed;}.cls-3,.cls-6{fill:#51b7d6;}.cls-4{fill:#1460aa;}.cls-5{fill:#fff;}.cls-6{stroke:#fff;stroke-miterlimit:10;}.cls-7{fill:none;}.cls-8{fill:#0094d4;opacity:0.15;mix-blend-mode:multiply;}</style></defs><title>plantilla svg celestes</title><g class="cls-1"><g id="Layer_2" data-name="Layer 2"><rect class="cls-2" x="18.38" y="28.51" width="63.26" height="43.81" rx="3.52" ry="3.52"/><ellipse class="cls-3" cx="50.83" cy="57.39" rx="7.14" ry="5.26"/><path class="cls-4" d="M61.09,48V46.9a1.66,1.66,0,0,0-1.66-1.67H57.94a1.66,1.66,0,0,0-1.66,1.67V48H45.38V46.9a1.66,1.66,0,0,0-1.66-1.67H42.23a1.67,1.67,0,0,0-1.67,1.67V48H33.87V43.57a2.49,2.49,0,0,1,2.48-2.49h5.29V36a2.48,2.48,0,0,1,2.48-2.48h5.29V36H44.12v5.08H57.54V36H50.33V33.53h7.2A2.49,2.49,0,0,1,60,36v5.07h5.29a2.49,2.49,0,0,1,2.48,2.49V48Z"/><path class="cls-5" d="M57.53,34a2,2,0,0,1,2,2v5.57h5.79a2,2,0,0,1,2,2v3.91h-5.7V46.9a2.17,2.17,0,0,0-2.16-2.17H57.94a2.17,2.17,0,0,0-2.16,2.17v.58h-9.9V46.9a2.17,2.17,0,0,0-2.16-2.17H42.23a2.17,2.17,0,0,0-2.17,2.17v.58H34.37V43.57a2,2,0,0,1,2-2h5.79V36a2,2,0,0,1,2-2h4.79V35.5H44.12a.5.5,0,0,0-.5.51v5.57H58V36a.51.51,0,0,0-.51-.51h-6.7V34h6.7m0-1H44.12a3,3,0,0,0-3,3v4.57H36.35a3,3,0,0,0-3,3v4.91h7.69V46.9a1.18,1.18,0,0,1,1.17-1.17h1.49a1.17,1.17,0,0,1,1.16,1.17v1.58h11.9V46.9a1.17,1.17,0,0,1,1.16-1.17h1.49a1.17,1.17,0,0,1,1.16,1.17v1.58h7.7V43.57a3,3,0,0,0-3-3H60.52V36a3,3,0,0,0-3-3Zm-7.7,3.47H57v4.08H44.62V36.5h5.21Z"/><rect class="cls-6" x="44.77" y="32.58" width="12.11" height="4.23" rx="1.97" ry="1.97"/><path class="cls-4" d="M61.56,68.92a2.35,2.35,0,0,1-2.33-2H42.43a2.35,2.35,0,0,1-2.33,2h-.8A2.35,2.35,0,0,1,37,66.64a2.51,2.51,0,0,1-1.44-2.25V48.46h5.05V50.3a.24.24,0,0,0,.24.24h4.34a.24.24,0,0,0,.24-.24V48.46h10.9V50.3a.23.23,0,0,0,.23.24h4.35a.23.23,0,0,0,.23-.24V48.46h5V64.39a2.5,2.5,0,0,1-1.43,2.25,2.35,2.35,0,0,1-2.35,2.28ZM48.74,53.67a2.45,2.45,0,0,0-1.81,4.1l3.92,4.38c1-1.13,3.81-4.3,3.88-4.38a2.42,2.42,0,0,0,.57-1.1,3.78,3.78,0,0,0,.07-.54,2.46,2.46,0,0,0-2.45-2.46,2.49,2.49,0,0,0-1.74.72l-.35.35-.35-.35-.19-.17A2.51,2.51,0,0,0,48.74,53.67Z"/><path class="cls-5" d="M65.64,49V64.39a2,2,0,0,1-1.43,1.9v.28a1.85,1.85,0,0,1-1.85,1.85h-.8a1.85,1.85,0,0,1-1.85-1.85v-.19H42v.19a1.85,1.85,0,0,1-1.85,1.85h-.8a1.85,1.85,0,0,1-1.85-1.85v-.28A2,2,0,0,1,36,64.39V49h4.05V50.3a.74.74,0,0,0,.74.74h4.34a.74.74,0,0,0,.74-.74V49h9.9V50.3a.74.74,0,0,0,.73.74h4.35a.74.74,0,0,0,.73-.74V49h4M50.83,54l-.22-.2a2.95,2.95,0,0,0-4.82,2.28,2.94,2.94,0,0,0,.77,2l3.91,4.38a.52.52,0,0,0,.36.16.48.48,0,0,0,.35-.16l3.92-4.38a2.88,2.88,0,0,0,.69-1.33v0h0v-.07c0-.16.06-.43.06-.53v0a2.95,2.95,0,0,0-5-2.08M66.64,48h-6V50H56.78V48H44.88V50H41.06V48H35V64.39A3,3,0,0,0,36.47,67a2.85,2.85,0,0,0,2.83,2.47h.8a2.85,2.85,0,0,0,2.73-2h16a2.84,2.84,0,0,0,2.73,2h.8A2.86,2.86,0,0,0,65.19,67a3,3,0,0,0,1.45-2.56V48ZM50.83,55.45l.7-.7a2,2,0,0,1,1.39-.58,2,2,0,0,1,1.95,1.95,3.5,3.5,0,0,1,0,.41v0a2,2,0,0,1-.46.88l-3.53,3.94L47.3,57.44a2,2,0,0,1,1.44-3.27,2,2,0,0,1,1.23.44,1,1,0,0,1,.15.14l.71.7Z"/><path class="cls-7" d="M55.87,56.15c0,.1,0,.37-.06.53v.07h0v0a2.88,2.88,0,0,1-.69,1.33l-3.92,4.38a.48.48,0,0,1-.35.16.52.52,0,0,1-.36-.16l-3.91-4.38a3,3,0,0,1,2.18-4.94,3,3,0,0,1,1.87.67l.22.2a2.95,2.95,0,0,1,5,2.08Z"/><path class="cls-4" d="M59.43,46.21H57.94a.69.69,0,0,0-.69.69v2.66h.94v-.89a.5.5,0,0,1,1,0v.89h.94V46.9A.69.69,0,0,0,59.43,46.21Z"/><path class="cls-4" d="M43.72,46.21H42.23a.69.69,0,0,0-.69.69v2.66h.88v-.89a.49.49,0,0,1,1,0v.89h1V46.9A.69.69,0,0,0,43.72,46.21Z"/><path class="cls-8" d="M48.27,65.58C24,65.36,22.34,52.88,18.38,40.77v28.3a2.43,2.43,0,0,0,2.42,2.42h59a2.43,2.43,0,0,0,2.42-2.42v-3.5S55.6,65.65,48.27,65.58Z"/><path class="cls-4" d="M78.61,26.55H21.39a4.67,4.67,0,0,0-4.67,4.66V68.79a4.67,4.67,0,0,0,4.67,4.66H78.61a4.67,4.67,0,0,0,4.67-4.66V31.21A4.67,4.67,0,0,0,78.61,26.55Zm2,42.24a2,2,0,0,1-2,2H21.39a2,2,0,0,1-2-2V31.21a2,2,0,0,1,2-2H78.61a2,2,0,0,1,2,2Z"/></g></g></svg>