<svg xmlns="http://www.w3.org/2000/svg" width="1144.853" height="240.755" viewBox="0 0 1144.853 240.755">
  <g id="logo_inclusion_digital" transform="translate(0 0)">
    <rect id="Rectangle_5" data-name="Rectangle 5" width="21.168" height="75.987" transform="translate(0.001 163.249)" fill="#fff"/>
    <path id="Path_1" data-name="Path 1" d="M-558.591-1133.036h19.649l31.262,40.169v-40.169h20.841v75.987h-18.454l-32.457-41.682v41.682h-20.841Z" transform="translate(596.354 1296.285)" fill="#fff"/>
    <path id="Path_2" data-name="Path 2" d="M-539.823-1093.649v-.213c0-22.142,17.042-39.507,40.057-39.507,15.52,0,25.509,6.508,32.235,15.843l-15.847,12.267c-4.345-5.427-9.335-8.9-16.606-8.9-10.639,0-18.129,9.007-18.129,20.078v.218c0,11.394,7.49,20.3,18.129,20.3,7.921,0,12.589-3.7,17.152-9.23l15.843,11.289c-7.158,9.876-16.82,17.151-33.644,17.151-21.71,0-39.189-16.606-39.189-39.3" transform="translate(662.88 1295.105)" fill="#fff"/>
    <path id="Path_3" data-name="Path 3" d="M-521.223-1133.036h21.06v57.536h36.8v18.451h-57.858Z" transform="translate(728.811 1296.285)" fill="#fff"/>
    <path id="Path_4" data-name="Path 4" d="M-506.609-1090.37v-42.666h21.383v42.225c0,10.966,5.535,16.178,14.007,16.178s14-4.994,14-15.633v-42.77h21.383v42.12c0,24.528-14,35.28-35.6,35.28s-35.167-10.966-35.167-34.735" transform="translate(780.613 1296.286)" fill="#fff"/>
    <path id="Path_5" data-name="Path 5" d="M-488.964-1067.324l11.721-14c7.494,5.972,15.852,9.112,24.641,9.112,5.645,0,8.685-1.95,8.685-5.208v-.218c0-3.141-2.5-4.876-12.807-7.267-16.174-3.7-28.659-8.253-28.659-23.887v-.214c0-14.106,11.18-24.314,29.413-24.314,12.921,0,23.014,3.472,31.263,10.1l-10.525,14.87c-6.949-4.89-14.548-7.494-21.278-7.494-5.1,0-7.6,2.176-7.6,4.89v.214c0,3.472,2.6,4.994,13.139,7.385,17.474,3.795,28.327,9.435,28.327,23.66v.218c0,15.52-12.266,24.75-30.718,24.75-13.461,0-26.268-4.236-35.6-12.594" transform="translate(843.159 1295.272)" fill="#fff"/>
    <rect id="Rectangle_6" data-name="Rectangle 6" width="21.168" height="75.987" transform="translate(433.842 163.249)" fill="#fff"/>
    <path id="Path_6" data-name="Path 6" d="M-463.7-1076.205v-.213c0-21.819,17.588-39.507,41.034-39.507s40.811,17.474,40.811,39.289v.218c0,21.814-17.583,39.511-41.029,39.511s-40.816-17.474-40.816-39.3m60.358,0v-.213c0-10.962-7.931-20.51-19.542-20.51-11.507,0-19.215,9.326-19.215,20.292v.218c0,10.967,7.926,20.519,19.433,20.519,11.616,0,19.324-9.339,19.324-20.306m-15.743-62.085,19.647,5.972-16.061,11.611h-15.311Z" transform="translate(932.701 1277.662)" fill="#fff"/>
    <path id="Path_7" data-name="Path 7" d="M-442.69-1133.036h19.646l31.261,40.169v-40.169h20.841v75.987H-389.4l-32.452-41.682v41.682H-442.69Z" transform="translate(1007.187 1296.285)" fill="#fff"/>
    <path id="Path_8" data-name="Path 8" d="M-416.139-1133.036h29.309c27.136,0,42.879,15.629,42.879,37.562v.214c0,21.927-15.956,38.211-43.311,38.211h-28.877Zm29.636,57.313c12.593,0,20.951-6.948,20.951-19.214v-.214c0-12.157-8.358-19.21-20.951-19.21h-8.576v38.638Z" transform="translate(1101.301 1296.286)" fill="#fff"/>
    <rect id="Rectangle_7" data-name="Rectangle 7" width="21.168" height="75.987" transform="translate(771.324 163.249)" fill="#fff"/>
    <path id="Path_9" data-name="Path 9" d="M-389.444-1093.649v-.213c0-22.142,17.365-39.507,40.925-39.507,13.352,0,22.792,4.126,30.827,11.071l-12.375,14.87c-5.426-4.563-10.857-7.167-18.347-7.167-10.962,0-19.429,9.226-19.429,20.838v.222c0,12.266,8.576,21.06,20.624,21.06,5.1,0,9.008-1.086,12.157-3.154v-9.221h-14.979v-15.416h34.953v34.189a51.346,51.346,0,0,1-33,11.725c-23.664,0-41.357-16.283-41.357-39.3" transform="translate(1195.927 1295.105)" fill="#fff"/>
    <rect id="Rectangle_8" data-name="Rectangle 8" width="21.164" height="75.987" transform="translate(895.685 163.249)" fill="#fff"/>
    <path id="Path_10" data-name="Path 10" d="M-339.646-1114.578h-22.793v-18.459h66.646v18.459h-22.793v57.529h-21.06Z" transform="translate(1291.653 1296.285)" fill="#fff"/>
    <path id="Path_11" data-name="Path 11" d="M-316.292-1133.155H-296l32.349,76.528h-22.578l-5.54-13.575h-29.3l-5.431,13.575h-22.137Zm18.451,46.57-8.467-21.6-8.576,21.6Z" transform="translate(1340.575 1295.864)" fill="#fff"/>
    <path id="Path_12" data-name="Path 12" d="M-327.721-1133.036h21.056v57.536h36.8v18.451h-57.854Z" transform="translate(1414.717 1296.285)" fill="#fff"/>
    <path id="Path_13" data-name="Path 13" d="M-460.92-1136.265h19.8l-9.939-23Z" transform="translate(942.568 1203.299)" fill="#fff"/>
    <path id="Path_14" data-name="Path 14" d="M-409.121-1160.009c-11.421,0-19.388,9.117-19.388,20.288v.168c0,11.171,8.13,20.456,19.551,20.456s19.383-9.126,19.383-20.3v-.159c0-11.179-8.13-20.456-19.547-20.456" transform="translate(1057.453 1200.675)" fill="#fff"/>
    <path id="Path_15" data-name="Path 15" d="M-511.018-1136.265h19.8l-9.94-23Z" transform="translate(764.985 1203.299)" fill="#fff"/>
    <path id="Path_16" data-name="Path 16" d="M-396.407-1136.265h19.8l-9.939-23Z" transform="translate(1171.243 1203.299)" fill="#fff"/>
    <path id="Path_17" data-name="Path 17" d="M-524.536-1159.811h-11.748v20.706h11.748c7.639,0,12.4-4.277,12.4-10.276v-.159c0-6.735-4.845-10.271-12.4-10.271" transform="translate(675.424 1201.377)" fill="#fff"/>
    <path id="Path_18" data-name="Path 18" d="M-566.9-1046.723H577.953v-122.234H-566.9Zm173.562-70.479c0,12.9-10.348,19.633-23,19.633H-427.76v18.484h-10.1v-57.509h22.673c13.389,0,21.851,7.64,21.851,19.224Zm52.773,38.116H-380.9v-57.509H-370.8v48.3h30.231Zm56.959,0-5.835-13.888h-27.191l-5.912,13.888H-332.9l25.3-57.918h9.362l25.3,57.918Zm72.738,0h-8.462L-251.039-1120v40.911h-9.939v-57.509h9.367l30.8,39.762v-39.762h9.939Zm93.7,0h-8.462L-157.337-1120v40.911h-9.939v-57.509h9.362l30.808,39.762v-39.762h9.939Zm61.239,0-5.835-13.888H-88.953l-5.913,13.888h-10.348l25.3-57.918h9.362l25.3,57.918Zm45.792.982c-16.756,0-29.245-13.057-29.245-29.572v-.159c0-16.351,12.239-29.74,29.654-29.74,10.6,0,17.006,3.69,22.51,8.948l-6.49,7.48c-4.6-4.277-9.526-7.144-16.1-7.144-11.007,0-18.974,9.031-18.974,20.288v.168c0,11.249,7.967,20.456,18.974,20.456,7.067,0,11.584-2.877,16.516-7.481l6.49,6.567c-6,6.249-12.571,10.189-23.333,10.189m46.7-.982H26.455v-57.509H36.562Zm75.019-28.75c0,16.179-12.489,29.732-30.149,29.732s-29.986-13.385-29.986-29.572v-.159c0-16.188,12.489-29.74,30.149-29.74s29.986,13.389,29.986,29.572Zm64.444,28.75h-8.462L135.854-1120v40.911h-9.939v-57.509h9.362l30.808,39.762v-39.762h9.939Zm61.235,0-5.831-13.888H204.238l-5.913,13.888H187.973l25.3-57.918h9.367l25.3,57.918Zm62.967,0H259.892v-57.509H270v48.3h30.231Zm91.312-28.75c0,16.179-12.489,28.75-30.563,28.75H339.538v-57.509h21.437c18.074,0,30.563,12.407,30.563,28.591Zm57.377,28.75H405.872v-57.509h42.634v9.04H415.975v14.948h28.832v9.039H415.975v15.443h32.94Z" transform="translate(566.9 1168.957)" fill="#fff"/>
    <path id="Path_19" data-name="Path 19" d="M-353.893-1159.811h-11.334v39.1h11.334c12.08,0,19.965-8.126,19.965-19.383v-.159c0-11.257-7.885-19.556-19.965-19.556" transform="translate(1281.768 1201.377)" fill="#fff"/>
  </g>
</svg>
