<?xml version="1.0" encoding="utf-8"?>
<!-- Generator: Adobe Illustrator 22.1.0, SVG Export Plug-In . SVG Version: 6.00 Build 0)  -->
<svg version="1.1" id="Capa_1" xmlns="http://www.w3.org/2000/svg" xmlns:xlink="http://www.w3.org/1999/xlink" x="0px" y="0px"
	 viewBox="0 0 3057.2 535.4" style="enable-background:new 0 0 3057.2 535.4;" xml:space="preserve">
<style type="text/css">
	.st0{fill:#4192D1;}
</style>
<g>
	<g>
		<path class="st0" d="M45.8,277.4h68.3c40.4,0,65.7,23,65.7,57.8v0.7c0,38.8-31.2,59.1-69.3,59.1H76.1v55.5H45.5V277.4
			C45.5,277.4,45.8,277.4,45.8,277.4z M111.9,367.5c23,0,37.5-12.8,37.5-30.9v-0.3c0-20.4-14.5-30.9-37.5-30.9H76.4v62.4h35.5V367.5
			z"/>
		<path class="st0" d="M205.2,320.2h29.9v29.6c8.2-19.4,23.3-32.9,46.3-31.9v31.5h-1.6c-26.3,0-44.7,17.1-44.7,51.6v49.6h-29.9
			V320.2z"/>
		<path class="st0" d="M297.8,385.9v-0.3c0-37.5,26.6-68,63.7-68c41.7,0,62.8,32.5,62.8,70.3c0,2.6-0.3,5.6-0.7,8.5h-95.9
			c3.3,21.4,18.4,33.2,37.5,33.2c14.5,0,25-5.6,35.5-15.4l17.4,15.4c-12.5,14.8-29.6,24.6-53.6,24.6
			C327.1,453.5,297.8,426.3,297.8,385.9z M394.7,376.3c-2-19.4-13.5-34.5-33.2-34.5c-18.4,0-31.2,14.1-33.8,34.5H394.7z"/>
		<path class="st0" d="M441.4,433.5l13.5-20.4c14.1,10.5,29.6,16.1,42.7,16.1c12.8,0,20.4-5.6,20.4-14.1v-0.7
			c0-10.2-13.8-13.5-29.2-18.4c-19.4-5.6-40.7-13.5-40.7-38.4V357c0-24.6,20.7-39.8,46.7-39.8c16.4,0,34.2,5.6,48,14.8l-11.8,21.4
			c-12.5-7.6-26-12.5-36.8-12.5c-11.5,0-18.4,5.6-18.4,13.1v0.7c0,9.5,14.1,13.5,29.6,18.4c19.1,5.9,40.7,14.5,40.7,38.1v0.7
			c0,27.6-21.4,41.1-48.6,41.1C478.2,453.2,457.8,446.6,441.4,433.5z"/>
		<path class="st0" d="M573.8,271.5H606v28.6h-32.2V271.5z M575.1,320.2H605v130.8h-29.9V320.2z"/>
		<path class="st0" d="M634.9,385.5v-0.7c0-43.4,29.6-67.7,60.8-67.7c21.7,0,35.2,10.8,44.7,23v-70.3h29.9v180.7h-29.9v-21.7
			c-9.5,13.5-23.3,24.6-44.7,24.6C664.8,453.5,634.9,428.9,634.9,385.5z M740.4,385.5v-0.7c0-25.3-17.7-41.7-37.8-41.7
			c-20.7,0-37.5,15.8-37.5,41.7v0.7c0,25.3,17.4,41.7,37.5,41.7C722.6,427.6,740.4,410.5,740.4,385.5z"/>
		<path class="st0" d="M797.5,385.9v-0.3c0-37.5,26.6-68,63.7-68c41.7,0,62.8,32.5,62.8,70.3c0,2.6-0.3,5.6-0.7,8.5h-95.9
			c3.3,21.4,18.4,33.2,37.5,33.2c14.5,0,25-5.6,35.5-15.4l17.4,15.4c-12.5,14.8-29.6,24.6-53.6,24.6
			C826.8,453.5,797.5,426.3,797.5,385.9z M894.4,376.3c-2-19.4-13.5-34.5-33.2-34.5c-18.4,0-31.2,14.1-33.8,34.5H894.4z"/>
		<path class="st0" d="M951.9,320.2h29.9v20.4c8.5-12.5,20.7-23,40.7-23c29.6,0,46.7,19.7,46.7,50.3v83.1h-29.9v-74.2
			c0-20.4-10.2-31.9-27.9-31.9c-17.4,0-29.6,12.2-29.6,32.5v73.6h-29.9V320.2L951.9,320.2z"/>
		<path class="st0" d="M1095.5,386.2v-0.7c0-37.1,28.6-68.3,67.7-68.3c24.6,0,40.1,9.2,52.2,22.7l-18.4,20
			c-9.2-9.5-18.7-16.4-33.8-16.4c-21.7,0-37.5,18.7-37.5,41.7v0.7c0,23.3,16.1,42.1,39.1,42.1c14.1,0,24.6-6.6,33.8-16.4l18.1,17.7
			c-12.8,14.5-27.9,24.6-53.6,24.6C1124.1,453.5,1095.5,423.3,1095.5,386.2z"/>
		<path class="st0" d="M1242,271.5h32.2v28.6H1242V271.5z M1243.4,320.2h29.9v130.8h-29.9V320.2z"/>
		<path class="st0" d="M1389.9,450.6v-16.1c-8.9,10.5-22.7,18.7-42.4,18.7c-24.6,0-46.7-14.1-46.7-40.4v-0.7
			c0-28.9,22.7-42.7,52.9-42.7c15.8,0,26,2.3,36.1,5.6v-2.6c0-18.1-11.5-27.9-32.2-27.9c-14.5,0-25.6,3.3-37.5,8.2l-8.2-24
			c14.5-6.6,28.6-10.8,49.6-10.8c38.4,0,57.5,20.4,57.5,55.2v77.5H1389.9L1389.9,450.6z M1390.5,396.1c-7.6-3-18.4-5.3-29.9-5.3
			c-18.7,0-29.9,7.6-29.9,20.4v0.7c0,12.5,11.2,19.4,25.3,19.4c19.7,0,34.5-11.2,34.5-27.6L1390.5,396.1L1390.5,396.1z"/>
		<path class="st0" d="M1517.7,385.5v-0.7c0-43.4,29.6-67.7,60.8-67.7c21.7,0,35.2,10.8,44.7,23v-70.3h29.9v180.7h-29.9v-21.7
			c-9.5,13.5-23.3,24.6-44.7,24.6C1547.6,453.5,1517.7,428.9,1517.7,385.5z M1623.5,385.5v-0.7c0-25.3-17.7-41.7-37.8-41.7
			c-20.7,0-37.5,15.8-37.5,41.7v0.7c0,25.3,17.4,41.7,37.5,41.7C1605.4,427.6,1623.5,410.5,1623.5,385.5z"/>
		<path class="st0" d="M1680.3,385.9v-0.3c0-37.5,26.6-68,63.7-68c41.7,0,62.8,32.5,62.8,70.3c0,2.6-0.3,5.6-0.7,8.5h-95.9
			c3.3,21.4,18.4,33.2,37.5,33.2c14.5,0,25-5.6,35.5-15.4l17.4,15.4c-12.5,14.8-29.6,24.6-53.6,24.6
			C1709.6,453.5,1680.3,426.3,1680.3,385.9z M1777.2,376.3c-2-19.4-13.5-34.5-33.2-34.5c-18.4,0-31.2,14.1-33.8,34.5H1777.2z"/>
		<path class="st0" d="M1908,270.2h29.9v180.7H1908V270.2z"/>
		<path class="st0" d="M2054.5,450.6v-16.1c-8.9,10.5-22.7,18.7-42.4,18.7c-24.6,0-46.7-14.1-46.7-40.4v-0.7
			c0-28.9,22.7-42.7,52.9-42.7c15.8,0,26,2.3,36.1,5.6v-2.6c0-18.1-11.5-27.9-32.2-27.9c-14.5,0-25.6,3.3-37.5,8.2l-8.2-24
			c14.5-6.6,28.6-10.8,49.6-10.8c38.4,0,57.5,20.4,57.5,55.2v77.5H2054.5L2054.5,450.6z M2055.2,396.1c-7.6-3-18.4-5.3-29.9-5.3
			c-18.7,0-29.9,7.6-29.9,20.4v0.7c0,12.5,11.2,19.4,25.3,19.4c19.7,0,34.5-11.2,34.5-27.6V396.1L2055.2,396.1z"/>
		<path class="st0" d="M2192.5,277.4h28.3l92.6,119.9V277.4h29.9v173.1h-25.6l-95.6-123.2v123.2h-29.9L2192.5,277.4L2192.5,277.4z"
			/>
		<path class="st0" d="M2462.2,450.6v-16.1c-8.9,10.5-22.7,18.7-42.4,18.7c-24.6,0-46.7-14.1-46.7-40.4v-0.7
			c0-28.9,22.7-42.7,52.9-42.7c15.8,0,26,2.3,36.1,5.6v-2.6c0-18.1-11.5-27.9-32.2-27.9c-14.5,0-25.6,3.3-37.5,8.2l-8.2-24
			c14.5-6.6,28.6-10.8,49.6-10.8c38.4,0,57.5,20.4,57.5,55.2v77.5H2462.2L2462.2,450.6z M2462.9,396.1c-7.6-3-18.4-5.3-29.9-5.3
			c-18.7,0-29.9,7.6-29.9,20.4v0.7c0,12.5,11.2,19.4,25.3,19.4c19.7,0,34.5-11.2,34.5-27.6L2462.9,396.1L2462.9,396.1z"/>
		<path class="st0" d="M2517.8,386.2v-0.7c0-37.1,28.6-68.3,67.7-68.3c24.6,0,40.1,9.2,52.2,22.7l-18.4,20
			c-9.2-9.5-18.7-16.4-33.8-16.4c-21.7,0-37.5,18.7-37.5,41.7v0.7c0,23.3,16.1,42.1,39.1,42.1c14.1,0,24.6-6.6,33.8-16.4l18.1,17.7
			c-12.8,14.5-27.9,24.6-53.6,24.6C2546.3,453.5,2517.8,423.3,2517.8,386.2z"/>
		<path class="st0" d="M2664.3,271.5h32.2v28.6h-32.2V271.5z M2665.6,320.2h29.9v130.8h-29.9V320.2z"/>
		<path class="st0" d="M2724.7,386.2v-0.7c0-37.5,29.6-68.3,69.7-68.3c40.1,0,69.7,30.6,69.7,67.7v0.7c0,37.1-29.6,68-70,68
			C2754.3,453.5,2724.7,423.3,2724.7,386.2z M2834.1,386.2v-0.7c0-23-16.4-42.1-40.1-42.1c-24,0-39.4,18.7-39.4,41.7v0.7
			c0,22.7,16.4,42.1,39.8,42.1C2819,427.6,2834.1,408.5,2834.1,386.2z M2808.2,263l27.3,12.2l-30.6,28.6h-22.7L2808.2,263z"/>
		<path class="st0" d="M2892,320.2h29.9v20.4c8.5-12.5,20.7-23,40.7-23c29.6,0,46.7,19.7,46.7,50.3v83.1h-29.9v-74.2
			c0-20.4-10.2-31.9-27.9-31.9c-17.4,0-29.6,12.2-29.6,32.5v73.6H2892V320.2z"/>
	</g>
	<g>
		<path class="st0" d="M44.8,90.8h21.7l35.2,54.9l35.2-54.9h21.7v116h-20.4v-83.1l-36.5,54.5H101L64.9,124v82.8h-20V90.8z"/>
		<path class="st0" d="M180.9,86.9h21.7V106h-21.7V86.9z M181.8,119.4h20v87.4h-20V119.4z"/>
		<path class="st0" d="M222.6,119.4h20v13.5c5.6-8.2,13.8-15.4,27.3-15.4c19.7,0,31.2,13.1,31.2,33.5v55.5h-20v-49.6
			c0-13.5-6.9-21.4-18.7-21.4c-11.5,0-19.7,8.2-19.7,21.7v49.3h-20V119.4L222.6,119.4z"/>
		<path class="st0" d="M320.2,86.9h21.7V106h-21.7V86.9z M320.8,119.4h20v87.4h-20V119.4z"/>
		<path class="st0" d="M354.7,195.3l8.9-13.5c9.5,7.2,19.7,10.8,28.6,10.8c8.5,0,13.5-3.6,13.5-9.5v-0.3c0-6.9-9.2-9.2-19.4-12.2
			c-12.8-3.6-27.3-8.9-27.3-25.6v-0.3c0-16.4,13.8-26.6,31.2-26.6c10.8,0,23,3.9,32.2,9.9l-7.9,14.1c-8.5-5.3-17.4-8.2-24.6-8.2
			c-7.9,0-12.2,3.6-12.2,8.9v0.3c0,6.2,9.5,8.9,19.7,12.2c12.8,3.9,27.3,9.9,27.3,25.6v0.3c0,18.4-14.1,27.6-32.5,27.6
			C379.3,208.5,365.5,203.9,354.7,195.3z"/>
		<path class="st0" d="M441.4,182.5v-46h-11.2v-17.1h11.2v-24h20v24h23.7v17.1h-23.7v43c0,7.9,3.9,10.8,10.8,10.8
			c4.6,0,8.5-1,12.5-3v16.4c-4.9,3-10.5,4.6-18.1,4.6C451.9,208.5,441.4,201.9,441.4,182.5z"/>
		<path class="st0" d="M492.6,163.4v-0.3c0-25,17.7-45.7,42.7-45.7c27.9,0,42.1,22,42.1,47c0,2-0.3,3.6-0.3,5.6h-64.4
			c2.3,14.1,12.2,22.3,25.3,22.3c9.9,0,16.8-3.6,23.7-10.5l11.8,10.5c-8.2,9.9-19.7,16.4-35.8,16.4
			C512,208.8,492.6,190.4,492.6,163.4z M557.4,156.9c-1.3-12.8-8.9-23-22.3-23c-12.2,0-21,9.5-22.7,23H557.4z"/>
		<path class="st0" d="M591.9,119.4h20v19.7c5.6-13.1,15.4-22,30.9-21.4v21.4h-1.3c-17.4,0-29.9,11.5-29.9,34.5v33.2h-20v-87.4
			H591.9z"/>
		<path class="st0" d="M655.3,86.9H677V106h-21.7V86.9z M655.9,119.4h20v87.4h-20V119.4z"/>
		<path class="st0" d="M691.7,163.4v-0.3c0-25,19.7-45.7,46.7-45.7s46.7,20.4,46.7,45.3v0.3c0,25-19.7,45.7-47,45.7
			C711.5,208.8,691.7,188.4,691.7,163.4z M765,163.4v-0.3c0-15.4-11.2-28.3-26.9-28.3c-16.1,0-26.3,12.5-26.3,27.9v0.3
			c0,15.1,11.2,28.3,26.6,28.3C754.8,191.4,765,178.6,765,163.4z"/>
		<path class="st0" d="M839.9,163.1v-0.3c0-28.9,19.7-45.3,40.7-45.3c14.5,0,23.7,7.2,29.9,15.4v-47h20v120.9h-20v-14.5
			c-6.6,9.2-15.4,16.4-29.9,16.4C860,208.8,839.9,192.4,839.9,163.1z M910.5,163.1v-0.3c0-16.8-11.8-27.9-25.3-27.9
			c-13.8,0-25.3,10.5-25.3,27.9v0.3c0,16.8,11.5,27.9,25.3,27.9C898.7,191.4,910.5,179.9,910.5,163.1z"/>
		<path class="st0" d="M945,163.4v-0.3c0-25,17.7-45.7,42.7-45.7c27.9,0,42.1,22,42.1,47c0,2-0.3,3.6-0.3,5.6h-64.4
			c2.3,14.1,12.2,22.3,25.3,22.3c9.9,0,16.8-3.6,23.7-10.5l11.8,10.5c-8.2,9.9-19.7,16.4-35.8,16.4C964.4,208.8,945,190.4,945,163.4
			z M1009.8,156.9c-1.3-12.8-8.9-23-22.3-23c-12.2,0-21,9.5-22.7,23H1009.8z"/>
		<path class="st0" d="M1083,190.1l12.2-14.5c11.2,9.5,22.3,15.1,36.5,15.1c12.5,0,20.7-5.9,20.7-14.5v-0.3
			c0-8.2-4.6-12.8-26.3-17.7c-24.6-5.9-38.4-13.1-38.4-34.5v-1c0-19.7,16.4-33.5,39.4-33.5c16.8,0,30.2,5.3,42.1,14.5l-10.8,15.4
			c-10.5-7.9-21-11.8-31.5-11.8c-11.8,0-18.7,6.2-18.7,13.8v0.3c0,8.9,5.3,12.8,27.6,18.1c24.6,5.9,37.1,14.8,37.1,33.8v0.3
			c0,21.7-17.1,34.5-41.4,34.5C1113.6,208.5,1096.8,202.2,1083,190.1z"/>
		<path class="st0" d="M1242.4,206.8V196c-5.9,7.2-15.1,12.5-28.3,12.5c-16.4,0-31.2-9.5-31.2-26.9v-0.3c0-19.4,15.1-28.6,35.5-28.6
			c10.5,0,17.4,1.6,24.3,3.6v-1.6c0-12.2-7.6-18.7-21.7-18.7c-9.9,0-17.1,2.3-25,5.6l-5.6-16.1c9.5-4.3,19.1-7.2,33.2-7.2
			c26,0,38.4,13.5,38.4,36.8v51.9L1242.4,206.8L1242.4,206.8z M1243,170.3c-5.3-2-12.2-3.6-20-3.6c-12.5,0-20,5.3-20,13.5v0.3
			c0,8.2,7.6,12.8,16.8,12.8c13.1,0,23.3-7.6,23.3-18.4V170.3z"/>
		<path class="st0" d="M1281.8,85.9h20v120.9h-20V85.9z"/>
		<path class="st0" d="M1321.5,174.9v-55.5h20V169c0,13.5,6.9,21.4,18.7,21.4c11.5,0,19.7-8.2,19.7-21.7v-49.3h20v87.4h-20v-13.5
			c-5.6,8.2-13.8,15.4-27.3,15.4C1333,208.8,1321.5,195.3,1321.5,174.9z"/>
		<path class="st0" d="M1415.5,163.1v-0.3c0-28.9,19.7-45.3,40.7-45.3c14.5,0,23.7,7.2,29.9,15.4v-47h20v120.9h-20v-14.5
			c-6.6,9.2-15.4,16.4-29.9,16.4C1435.6,208.8,1415.5,192.4,1415.5,163.1z M1486.1,163.1v-0.3c0-16.8-11.8-27.9-25.3-27.9
			c-13.8,0-25.3,10.5-25.3,27.9v0.3c0,16.8,11.5,27.9,25.3,27.9C1474.3,191.4,1486.1,179.9,1486.1,163.1z"/>
		<path class="st0" d="M1566.6,228.5l6.9-14.8c3.6,2,7.6,3.3,11.8,3.3c5.6,0,9.2-2.6,12.5-10.2l-36.5-87.4h21.4l25,65.1l22.7-65.1
			h21l-34.8,90c-6.9,17.7-14.8,24.6-28.9,24.6C1579.1,233.8,1572.9,231.8,1566.6,228.5z"/>
		<path class="st0" d="M1709.2,90.8h43.4c36.5,0,61.8,25,61.8,57.5v0.3c0,32.5-25.3,57.8-61.8,57.8h-43.4V90.8z M1752.6,188.4
			c24.3,0,40.1-16.4,40.1-39.1V149c0-22.7-15.8-39.4-40.1-39.4h-23v78.8H1752.6z"/>
		<path class="st0" d="M1826.2,163.4v-0.3c0-25,17.7-45.7,42.7-45.7c27.9,0,42.1,22,42.1,47c0,2-0.3,3.6-0.3,5.6h-64.4
			c2.3,14.1,12.2,22.3,25.3,22.3c9.9,0,16.8-3.6,23.7-10.5l11.8,10.5c-8.2,9.9-19.7,16.4-35.8,16.4
			C1845.9,208.8,1826.2,190.4,1826.2,163.4z M1890.9,156.9c-1.3-12.8-8.9-23-22.3-23c-12.2,0-21,9.5-22.7,23H1890.9z"/>
		<path class="st0" d="M1918.5,195.3l8.9-13.5c9.5,7.2,19.7,10.8,28.6,10.8c8.5,0,13.5-3.6,13.5-9.5v-0.3c0-6.9-9.2-9.2-19.4-12.2
			c-12.8-3.6-27.3-8.9-27.3-25.6v-0.3c0-16.4,13.8-26.6,31.2-26.6c10.8,0,23,3.9,32.2,9.9l-7.9,14.1c-8.5-5.3-17.4-8.2-24.6-8.2
			c-7.9,0-12.2,3.6-12.2,8.9v0.3c0,6.2,9.5,8.9,19.7,12.2c12.8,3.9,27.3,9.9,27.3,25.6v0.3c0,18.4-14.1,27.6-32.5,27.6
			C1943.1,208.5,1929.3,203.9,1918.5,195.3z"/>
		<path class="st0" d="M2056.5,206.8V196c-5.9,7.2-15.1,12.5-28.3,12.5c-16.4,0-31.2-9.5-31.2-26.9v-0.3c0-19.4,15.1-28.6,35.5-28.6
			c10.5,0,17.4,1.6,24.3,3.6v-1.6c0-12.2-7.6-18.7-21.7-18.7c-9.9,0-17.1,2.3-25,5.6l-5.6-16.1c9.5-4.3,19.1-7.2,33.2-7.2
			c26,0,38.4,13.5,38.4,36.8v51.9L2056.5,206.8L2056.5,206.8z M2056.8,170.3c-5.3-2-12.2-3.6-20-3.6c-12.5,0-20,5.3-20,13.5v0.3
			c0,8.2,7.6,12.8,16.8,12.8c13.1,0,23.3-7.6,23.3-18.4V170.3z"/>
		<path class="st0" d="M2094.6,119.4h20v19.7c5.6-13.1,15.4-22,30.9-21.4v21.4h-1.3c-17.4,0-29.9,11.5-29.9,34.5v33.2h-20
			L2094.6,119.4L2094.6,119.4z"/>
		<path class="st0" d="M2157.7,119.4h20v19.7c5.6-13.1,15.4-22,30.9-21.4v21.4h-1.3c-17.4,0-29.9,11.5-29.9,34.5v33.2h-20
			L2157.7,119.4L2157.7,119.4z"/>
		<path class="st0" d="M2212.9,163.4v-0.3c0-25,19.7-45.7,46.7-45.7s46.7,20.4,46.7,45.3v0.3c0,25-19.7,45.7-47,45.7
			C2232.6,208.8,2212.9,188.4,2212.9,163.4z M2285.8,163.4v-0.3c0-15.4-11.2-28.3-26.9-28.3c-16.1,0-26.3,12.5-26.3,27.9v0.3
			c0,15.1,11.2,28.3,26.6,28.3C2275.6,191.4,2285.8,178.6,2285.8,163.4z"/>
		<path class="st0" d="M2321.9,85.9h20v120.9h-20V85.9z"/>
		<path class="st0" d="M2364,85.9h20v120.9h-20V85.9z"/>
		<path class="st0" d="M2399.8,163.4v-0.3c0-25,19.7-45.7,46.7-45.7c26.9,0,46.7,20.4,46.7,45.3v0.3c0,25-19.7,45.7-47,45.7
			C2419.5,208.8,2399.8,188.4,2399.8,163.4z M2473.1,163.4v-0.3c0-15.4-11.2-28.3-26.9-28.3c-16.1,0-26.3,12.5-26.3,27.9v0.3
			c0,15.1,11.2,28.3,26.6,28.3C2462.9,191.4,2473.1,178.6,2473.1,163.4z"/>
		<path class="st0" d="M2546.7,190.1l12.2-14.5c11.2,9.5,22.3,15.1,36.5,15.1c12.5,0,20.7-5.9,20.7-14.5v-0.3
			c0-8.2-4.6-12.8-26.3-17.7c-24.6-5.9-38.4-13.1-38.4-34.5v-1c0-19.7,16.4-33.5,39.4-33.5c16.8,0,30.2,5.3,42.1,14.5l-10.8,15.4
			c-10.5-7.9-21-11.8-31.5-11.8c-11.8,0-18.7,6.2-18.7,13.8v0.3c0,8.9,5.3,12.8,27.6,18.1c24.6,5.9,37.1,14.8,37.1,33.8v0.3
			c0,21.7-17.1,34.5-41.4,34.5C2577.5,208.5,2560.8,202.2,2546.7,190.1z"/>
		<path class="st0" d="M2647.9,163.4v-0.3c0-25,19.7-45.7,46.7-45.7s46.7,20.4,46.7,45.3v0.3c0,25-19.7,45.7-47,45.7
			C2667.6,208.8,2647.9,188.4,2647.9,163.4z M2721.1,163.4v-0.3c0-15.4-11.2-28.3-26.9-28.3c-16.1,0-26.3,12.5-26.3,27.9v0.3
			c0,15.1,11.2,28.3,26.6,28.3C2710.9,191.4,2721.1,178.6,2721.1,163.4z"/>
		<path class="st0" d="M2751.3,163.4v-0.3c0-25,19.1-45.7,45.3-45.7c16.4,0,26.9,6.2,34.8,15.1L2819,146
			c-6.2-6.6-12.5-10.8-22.7-10.8c-14.5,0-25.3,12.5-25.3,27.9v0.3c0,15.4,10.8,28.3,26.3,28.3c9.5,0,16.4-4.6,22.7-10.8l12.2,11.8
			c-8.5,9.5-18.7,16.4-35.8,16.4C2770.4,208.8,2751.3,188.4,2751.3,163.4z"/>
		<path class="st0" d="M2845.6,86.9h21.7V106h-21.7V86.9z M2846.3,119.4h20v87.4h-20V119.4z"/>
		<path class="st0" d="M2940.6,206.8V196c-5.9,7.2-15.1,12.5-28.3,12.5c-16.4,0-31.2-9.5-31.2-26.9v-0.3c0-19.4,15.1-28.6,35.5-28.6
			c10.5,0,17.4,1.6,24.3,3.6v-1.6c0-12.2-7.6-18.7-21.7-18.7c-9.9,0-17.1,2.3-25,5.6l-5.6-16.1c9.5-4.3,19.1-7.2,33.2-7.2
			c26,0,38.4,13.5,38.4,36.8v51.9L2940.6,206.8L2940.6,206.8z M2941.2,170.3c-5.3-2-12.2-3.6-20-3.6c-12.5,0-20,5.3-20,13.5v0.3
			c0,8.2,7.6,12.8,16.8,12.8c13.1,0,23.3-7.6,23.3-18.4V170.3z"/>
		<path class="st0" d="M2980,85.9h20v120.9h-20V85.9z"/>
	</g>
</g>
</svg>
