<?xml version="1.0" encoding="utf-8"?>
<!-- Generator: Adobe Illustrator 19.2.0, SVG Export Plug-In . SVG Version: 6.00 Build 0)  -->
<svg version="1.1" id="Layer_1" xmlns="http://www.w3.org/2000/svg" xmlns:xlink="http://www.w3.org/1999/xlink" x="0px" y="0px"
	 viewBox="0 0 158.8 66.8" style="enable-background:new 0 0 158.8 66.8;" xml:space="preserve">
<style type="text/css">
	.st0{fill:#231F20;}
	.st1{fill:#FFC20E;}
	.st2{fill:#0095D5;}
	.st3{fill:#FFFFFF;}
	.st4{fill:#EF4123;}
	.st5{fill:#FCBC80;}
	.st6{fill:#2DA44A;}
</style>
<title>MockUp-LogosPRESIDENCIA-PBA</title>
<path class="st0" d="M48.6,18.2h5.1c3,0,4.9,1.7,4.9,4.3l0,0c0,2.9-2.3,4.4-5.2,4.4h-2.6v4.2h-2.3V18.2z M53.6,25
	c1.7,0,2.8-1,2.8-2.3l0,0c0-1.5-1.1-2.3-2.8-2.3h-2.7V25H53.6z"/>
<path class="st0" d="M60.8,21.4h2.2v2.2c0.5-1.5,1.9-2.5,3.5-2.4v2.4h-0.1c-2,0-3.3,1.3-3.3,3.9v3.7h-2.3V21.4z"/>
<path class="st0" d="M68,26.4L68,26.4c-0.1-2.7,1.9-5,4.6-5.1c0.1,0,0.1,0,0.2,0c3.1,0,4.7,2.5,4.7,5.3c0,0.2,0,0.4,0,0.6h-7.2
	c0.1,1.4,1.4,2.5,2.8,2.5c1,0,2-0.4,2.7-1.2l1.3,1.2c-1,1.2-2.5,1.9-4,1.8c-2.7,0.1-5-2-5.1-4.7C68,26.7,68,26.5,68,26.4z
	 M75.2,25.7c0-1.4-1.1-2.6-2.5-2.6c-1.4,0.1-2.5,1.2-2.5,2.6H75.2z"/>
<path class="st0" d="M79.1,30l1-1.5c0.9,0.7,2,1.2,3.2,1.2c1,0,1.5-0.4,1.5-1.1l0,0c0-0.8-1-1-2.2-1.4c-1.4-0.4-3.1-1-3.1-2.9l0,0
	c0-1.9,1.5-3,3.5-3c1.3,0,2.5,0.4,3.6,1.1L85.8,24C85,23.4,84,23.1,83,23c-0.9,0-1.4,0.4-1.4,1l0,0c0,0.7,1.1,1,2.2,1.4
	c1.4,0.5,3,1.1,3,2.9l0,0c0,2.1-1.6,3.1-3.6,3.1C81.7,31.3,80.3,30.9,79.1,30z"/>
<path class="st0" d="M89.3,17.8h2.4v2.1h-2.4V17.8z M89.4,21.4h2.2v9.8h-2.2L89.4,21.4z"/>
<path class="st0" d="M94.2,26.4L94.2,26.4c0-3.2,2.2-5.1,4.6-5.1c1.3,0,2.6,0.6,3.3,1.7v-5.3h2.2v13.5h-2.2v-1.6
	c-0.7,1.2-2,1.8-3.3,1.8C96.4,31.4,94.2,29.6,94.2,26.4z M102.1,26.4L102.1,26.4c0.1-1.6-1.1-3-2.7-3.1c0,0-0.1,0-0.1,0
	c-1.6,0-2.9,1.3-2.8,2.9c0,0.1,0,0.2,0,0.2l0,0c-0.1,1.6,1.1,3,2.7,3.1c0.1,0,0.1,0,0.2,0C100.9,29.4,102.2,28,102.1,26.4z"/>
<path class="st0" d="M106.7,26.4L106.7,26.4c-0.1-2.7,1.9-5,4.6-5.1c0.1,0,0.1,0,0.2,0c3.1,0,4.7,2.5,4.7,5.3c0,0.2,0,0.4,0,0.6
	h-7.2c0.1,1.4,1.4,2.5,2.8,2.5c1,0,2-0.4,2.7-1.2l1.3,1.2c-1,1.2-2.5,1.9-4,1.8c-2.7,0.1-5-2-5.1-4.7
	C106.7,26.7,106.7,26.5,106.7,26.4z M113.9,25.7c0-1.4-1.1-2.6-2.5-2.6c-1.4,0.1-2.5,1.2-2.5,2.6H113.9z"/>
<path class="st0" d="M118.5,21.4h2.2v1.5c0.6-1.1,1.8-1.7,3.1-1.7c2.2,0,3.5,1.5,3.5,3.8v6.2H125v-5.6c0-1.5-0.8-2.4-2.1-2.4
	c-1.2,0-2.2,0.9-2.2,2.1c0,0.1,0,0.2,0,0.3v5.5h-2.2V21.4z"/>
<path class="st0" d="M129.6,26.4L129.6,26.4c0-2.8,2.2-5.1,5-5.1c0,0,0.1,0,0.1,0c1.5-0.1,2.9,0.6,3.9,1.7l-1.4,1.5
	c-0.6-0.8-1.5-1.2-2.5-1.2c-1.6,0.1-2.9,1.5-2.8,3.1l0,0c-0.1,1.7,1.2,3.1,2.9,3.1c0,0,0,0,0.1,0c1,0,1.9-0.5,2.5-1.2l1.4,1.3
	c-1.8,2.2-5.1,2.4-7.2,0.6C130.3,29.3,129.6,27.9,129.6,26.4L129.6,26.4z"/>
<path class="st0" d="M140.8,17.8h2.4v2.1h-2.4V17.8z M140.9,21.4h2.2v9.8h-2.2V21.4z"/>
<path class="st0" d="M145.5,28.4L145.5,28.4c0-2.1,1.6-3.1,4-3.1c0.9,0,1.8,0.1,2.6,0.4v-0.2c0-1.4-0.9-2.1-2.4-2.1
	c-1,0-1.9,0.2-2.8,0.6l-0.6-1.8c1.2-0.5,2.4-0.8,3.7-0.8c1.2-0.1,2.4,0.3,3.2,1.1c0.7,0.8,1.1,1.9,1.1,3v5.8h-2.2V30
	c-0.8,0.9-2,1.5-3.2,1.4C147.2,31.4,145.5,30.4,145.5,28.4z M152.3,27.7V27c-0.7-0.3-1.5-0.4-2.2-0.4c-1.4,0-2.3,0.6-2.3,1.6l0,0
	c0,1,0.8,1.5,1.9,1.5C151.1,29.8,152.2,29,152.3,27.7L152.3,27.7z"/>
<path class="st0" d="M47.5,46.1L47.5,46.1c0-3.2,2.2-5.1,4.5-5.1c1.3,0,2.6,0.6,3.3,1.7v-5.3h2.2v13.5h-2.2v-1.6
	c-0.7,1.2-2,1.9-3.4,1.8C49.7,51.1,47.5,49.3,47.5,46.1z M55.4,46.1L55.4,46.1c0.1-1.6-1.1-3-2.7-3.1c0,0-0.1,0-0.1,0
	c-1.6,0-2.9,1.3-2.8,2.9c0,0.1,0,0.1,0,0.2l0,0c-0.1,1.6,1.1,3,2.7,3.1c0.1,0,0.1,0,0.2,0C54.2,49.1,55.5,47.7,55.4,46.1z"/>
<path class="st0" d="M59.2,46.1L59.2,46.1c-0.2-2.7,1.9-5,4.6-5.1c0.1,0,0.1,0,0.2,0c3.1,0,4.7,2.5,4.7,5.3c0,0.2,0,0.4,0,0.6h-7.2
	c0.1,1.4,1.4,2.5,2.8,2.5c1,0,2-0.4,2.7-1.2l1.3,1.2c-1,1.2-2.5,1.9-4,1.8c-2.7,0.1-5-2-5.1-4.7C59.2,46.3,59.2,46.2,59.2,46.1z
	 M66.5,45.4c0-1.4-1.1-2.6-2.5-2.6c0,0,0,0,0,0c-1.4,0.1-2.5,1.2-2.5,2.6L66.5,45.4z"/>
<path class="st0" d="M75.4,37.4h2.2v13.5h-2.2V37.4z"/>
<path class="st0" d="M79.3,48.1L79.3,48.1c0-2.1,1.7-3.2,4-3.2c0.9,0,1.8,0.1,2.6,0.4v-0.2c0.1-1.4-0.8-2.1-2.4-2.1
	c-1,0-1.9,0.2-2.8,0.6l-0.6-1.8c1.2-0.5,2.4-0.8,3.7-0.8c1.2-0.1,2.4,0.3,3.2,1.1c0.7,0.8,1.1,1.9,1.1,3V51H86v-1.2
	c-0.8,0.9-2,1.5-3.2,1.4C80.9,51.1,79.3,50.1,79.3,48.1z M86,47.4v-0.7c-0.7-0.3-1.5-0.4-2.2-0.4c-1.4,0-2.3,0.6-2.3,1.6l0,0
	c0,1,0.8,1.5,1.9,1.5C84.9,49.5,86,48.7,86,47.4z"/>
<path class="st0" d="M95.4,38h2.1l7,9v-9h2.2v13h-1.9l-7.2-9.3v9.2h-2.2V38z"/>
<path class="st0" d="M108.5,48.1L108.5,48.1c0-2.1,1.7-3.2,4-3.2c0.9,0,1.8,0.1,2.6,0.4v-0.2c0-1.4-0.8-2.1-2.4-2.1
	c-1,0-1.9,0.2-2.8,0.6l-0.6-1.8c1.2-0.5,2.4-0.8,3.7-0.8c1.2-0.1,2.4,0.3,3.2,1.1c0.7,0.8,1.1,1.9,1.1,3V51h-2.2v-1.2
	c-0.8,0.9-1.9,1.5-3.1,1.4C110.2,51.1,108.5,50.1,108.5,48.1z M115.2,47.4v-0.7c-0.7-0.3-1.5-0.4-2.2-0.4c-1.4,0-2.3,0.6-2.3,1.6
	l0,0c0,1,0.8,1.5,1.9,1.5C114.1,49.5,115.2,48.7,115.2,47.4z"/>
<path class="st0" d="M118.9,46.1L118.9,46.1c0-2.8,2.2-5.1,5-5.1c0,0,0.1,0,0.1,0c1.5-0.1,2.9,0.6,3.9,1.7l-1.4,1.5
	c-0.6-0.8-1.5-1.2-2.5-1.3c-1.6,0.1-2.9,1.5-2.9,3.1l0,0c-0.1,1.7,1.2,3.1,2.9,3.1c0,0,0,0,0.1,0c1,0,1.9-0.4,2.5-1.1l1.4,1.3
	c-1.8,2.2-5.1,2.4-7.2,0.6C119.6,49,119,47.6,118.9,46.1L118.9,46.1z"/>
<path class="st0" d="M129.4,37.5h2.4v2.1h-2.4V37.5z M129.5,41.1h2.2v9.8h-2.2V41.1z"/>
<path class="st0" d="M133.5,46.1L133.5,46.1c0-2.9,2.3-5.2,5.2-5.2c2.9,0,5.2,2.3,5.2,5.2l0,0c0,2.8-2.3,5.1-5.1,5.1
	c0,0-0.1,0-0.1,0c-2.8,0.1-5.1-2.1-5.2-4.9C133.5,46.2,133.5,46.2,133.5,46.1z M141.7,46.1L141.7,46.1c0.1-1.7-1.2-3.1-2.8-3.1
	c-0.1,0-0.1,0-0.2,0c-1.6,0-3,1.3-3,2.9c0,0.1,0,0.2,0,0.2l0,0c-0.1,1.7,1.2,3.1,2.9,3.1c0,0,0.1,0,0.1,0c1.6,0,3-1.3,3-2.9
	C141.7,46.3,141.7,46.2,141.7,46.1z M139.8,36.9l2,0.9l-2.3,2.1h-1.7L139.8,36.9z"/>
<path class="st0" d="M145.6,41.1h2.2v1.5c0.6-1.1,1.8-1.7,3.1-1.7c2.2,0,3.5,1.5,3.5,3.8v6.2h-2.2v-5.6c0-1.5-0.8-2.4-2.1-2.4
	c-1.2,0-2.2,0.9-2.2,2.1c0,0.1,0,0.2,0,0.3v5.5h-2.2L145.6,41.1z"/>
<path class="st1" d="M15.4,13.1l-3,0.4l3,0.4c0,0,0.1,0,0.1,0.1c0,0,0,0.1,0,0.1c-0.3,0.2-0.6,0.3-1,0.4c-0.4,0.1-0.9,0.2-1.3,0.4
	c-0.2,0.1-0.4,0.2-0.6,0.2c0.4-0.1,0.9-0.1,1.3,0h0.5h0.4l0,0c0.6-0.4,1.2-0.7,1.9-0.8c0.1,0,0.3,0,0.3,0.1c0,0,0,0.1,0,0.1
	c0,0,0,0,0,0.1c0.2-0.1,0.3-0.2,0.5-0.3c0.6-0.3,1.3-0.4,1.9-0.4c0.1,0,0.2,0.1,0.3,0.2c0,0,0,0,0,0l0,0c0.2-0.1,0.5-0.2,0.8-0.2
	c0.7-0.1,1.3-0.1,2,0c0.1,0,0.1,0.1,0.2,0.1c0,0,0,0.1,0,0.1c0.2,0,0.5-0.1,0.7-0.1c0.7,0,1.4,0.1,2,0.4c0.1,0,0.1,0.1,0.1,0.2
	c0,0,0,0,0,0.1c0.5,0,1,0.1,1.5,0.3H27c0.4,0.1,0.9,0.1,1.3,0.2c0.2,0,0.4,0,0.6,0c-0.4-0.1-0.8-0.2-1.2-0.4l-0.5-0.2
	c-0.4-0.2-0.8-0.3-1.2-0.4c0,0-0.1,0-0.2,0c0,0,0-0.1,0-0.2c0,0,0-0.1,0.1-0.1l3-0.4l-3-0.4c0,0-0.1,0-0.1,0c0,0,0-0.1,0-0.1
	c0.3-0.2,0.6-0.3,1-0.4c0.4-0.1,0.9-0.2,1.3-0.4c0.2-0.1,0.4-0.1,0.6-0.2c-0.4,0.1-0.9,0.1-1.3,0h-0.5c-0.4,0-0.8,0-1.2,0.1
	c0,0-0.1,0-0.1-0.1c0,0,0-0.1,0-0.1l2.6-1.6l-3,0.8c0,0-0.1,0-0.1,0c0,0,0-0.1,0-0.1c0.2-0.3,0.5-0.5,0.8-0.8
	c0.4-0.3,0.7-0.5,1.1-0.8c0.2-0.1,0.3-0.3,0.4-0.4c-0.4,0.2-0.7,0.4-1.2,0.5L26,9.6c-0.4,0.1-0.7,0.3-1.1,0.6c0,0-0.1,0-0.1,0
	c0,0,0-0.1,0-0.1l1.8-2.5l-2.4,1.8c0,0-0.1,0-0.1,0c0,0,0-0.1,0-0.1c0.1-0.4,0.2-0.7,0.4-1c0.2-0.4,0.5-0.8,0.7-1.2
	c0.1-0.2,0.2-0.4,0.2-0.6c-0.2,0.4-0.5,0.7-0.9,0.9l-0.4,0.3c-0.3,0.3-0.6,0.6-0.8,0.9c0,0-0.1,0-0.1,0c0,0,0-0.1,0-0.1l0.8-3
	l-1.6,2.7c0,0-0.1,0-0.1,0c0,0-0.1,0-0.1-0.1c-0.1-0.4-0.1-0.7,0-1.1c0.1-0.4,0.1-0.9,0.2-1.3c0-0.2,0-0.4,0-0.6
	c-0.1,0.4-0.2,0.8-0.4,1.2c-0.1,0.1-0.2,0.3-0.2,0.5c-0.2,0.4-0.3,0.8-0.4,1.2c0,0,0,0.1-0.1,0.1c0,0-0.1,0-0.1-0.1l-0.4-3l-0.4,3
	c0,0-0.1,0.1-0.1,0c0,0,0,0,0,0c-0.2-0.3-0.3-0.6-0.4-1c-0.1-0.4-0.2-0.9-0.4-1.3c-0.1-0.2-0.1-0.4-0.2-0.6c0.1,0.4,0.1,0.9,0,1.3
	c0,0.2,0,0.3,0,0.5c0,0.4,0,0.8,0.1,1.2c0,0,0,0.1-0.1,0.1c0,0-0.1,0-0.1,0l-1.6-2.6l0.8,3c0,0,0,0.1-0.1,0.1c0,0,0,0-0.1,0
	c-0.3-0.2-0.5-0.5-0.7-0.8c-0.3-0.3-0.5-0.7-0.8-1c-0.1-0.2-0.3-0.3-0.5-0.4c0.2,0.4,0.4,0.7,0.5,1.2c0,0.2,0.1,0.3,0.2,0.5
	c0.1,0.4,0.3,0.7,0.6,1.1c0,0,0,0.1,0,0.1c0,0-0.1,0-0.1,0l-2.5-1.8l1.8,2.4c0,0,0,0.1,0,0.1c0,0-0.1,0-0.1,0
	c-0.4-0.1-0.7-0.2-1-0.4c-0.4-0.2-0.8-0.5-1.2-0.7c-0.2-0.1-0.4-0.2-0.6-0.2c0.4,0.2,0.7,0.5,0.9,0.9c0.1,0.1,0.2,0.3,0.3,0.4
	c0.3,0.3,0.6,0.6,0.9,0.8c0,0,0.1,0,0.1,0.1c0,0,0,0.1-0.1,0.1l0,0c0,0-0.1,0.1-0.1,0.1l-3-0.8l2.6,1.6c0,0,0.1,0.1,0,0.1
	c0,0,0,0,0,0c-0.4,0.1-0.7,0.1-1.1,0c-0.4-0.1-0.9-0.1-1.3-0.2c-0.2,0-0.4,0-0.6,0c0.4,0.1,0.8,0.2,1.2,0.4c0.1,0.1,0.3,0.2,0.5,0.2
	c0.4,0.2,0.8,0.3,1.2,0.4C15.4,12.9,15.4,12.9,15.4,13.1C15.4,13,15.4,13.1,15.4,13.1"/>
<path class="st0" d="M21.6,11.3c2.5-0.4,2.8,0.3,2.8,0.3c0,0.1,0.2,0.1,0.3,0.1c0,0,0.2,0,0.1-0.2c0,0-0.3-0.8-1.6-1
	c-0.5-0.1-1-0.1-1.5,0c-0.2,0-0.3,0.5-0.3,0.5C21.5,11.3,21.7,11.3,21.6,11.3"/>
<path class="st0" d="M19.5,11.8c-0.3-0.1-0.7-0.1-1-0.1c-0.6-0.1-1.2,0.2-1.5,0.8c-0.1,0.2,0.1,0.3,0.1,0.3c0.1,0,0.3,0,0.3-0.1
	c0,0,0.1-0.2,0.5-0.3c0,0.1,0,0.1,0,0.2c0,0.3,0.2,0.6,0.5,0.7c0.3,0,0.6-0.2,0.7-0.5c0-0.1,0-0.1,0-0.2c0-0.1,0-0.2,0-0.2
	c0.2,0.1,0.3,0.2,0.4,0.4c0,0.1,0.1,0.1,0.4,0.1s0.2-0.1,0.2-0.1c-0.1-0.3-0.2-0.6-0.5-0.8"/>
<path class="st0" d="M21.6,12.8c0.2,0,0.3,0,0.4-0.1c0.1-0.2,0.2-0.3,0.4-0.4c-0.1,0.3,0,0.6,0.3,0.8c0.1,0,0.1,0,0.2,0
	c0.3,0,0.6-0.3,0.6-0.6l0,0c0-0.1,0-0.1,0-0.2c0.5,0.1,0.5,0.3,0.5,0.3c0.1,0.1,0.2,0.2,0.3,0.1c0,0,0.2,0,0.1-0.3
	c-0.3-0.5-0.9-0.8-1.5-0.7c-0.3,0-0.7,0-1,0.1c-0.3,0.2-0.5,0.5-0.5,0.8C21.5,12.6,21.4,12.7,21.6,12.8"/>
<path class="st0" d="M16.7,11.8c0.1,0,0.2,0,0.3-0.1c0,0,0.3-0.7,2.8-0.3c0,0,0.2,0,0.2-0.2c0,0-0.1-0.5-0.3-0.5
	c-0.5-0.1-1-0.1-1.5,0c-1.4,0.1-1.6,1-1.6,1C16.5,11.8,16.7,11.8,16.7,11.8"/>
<path class="st2" d="M20.3,31h-3.1c-0.5,0-0.9-0.2-1.2-0.5c-0.2-0.2-0.3-0.5-0.3-0.8c0,0,0,0,0-0.1c-0.1-0.3-0.1-0.6,0-0.9
	c0.3-1.5,0.9-3,1.9-4.2l-0.2-0.1c-0.4-0.3-0.7-0.8-0.5-1.3c0.2-0.6,0.5-1.1,0.9-1.5c0.7-0.8,1.8-1.3,2.8-1.3
	c1.5-0.1,2.8,0.8,3.4,2.1c1,2,1.7,4.2,1.9,6.5V29c0.1,0.3,0.1,0.5,0,0.8c0,0,0,0,0,0.1c-0.1,0.2-0.2,0.4-0.3,0.5
	c-0.3,0.3-0.8,0.5-1.2,0.6c-0.2,0-0.4,0-0.5,0h-2.5v4.4H35c0-2.5-0.4-4.9-1.2-7.3c-0.7-2.2-1.7-4.2-3.1-6c-1.2-1.6-2.8-3-4.5-4
	c-3.4-1.9-7.6-1.9-11,0c-1.8,1-3.3,2.4-4.5,4c-1.4,1.8-2.4,3.8-3.1,6c-0.8,2.4-1.1,4.9-1.1,7.4h13.8V31z"/>
<path class="st3" d="M6.5,35.3c0,1.9,0.2,3.8,0.7,5.7c6.2-0.7,9.8-1.4,10.9-2.2c0.6-0.5,1.4-0.8,2.2-0.8v-2.7H6.5z"/>
<path class="st3" d="M21.2,38.1c0.5,0.1,1,0.3,1.4,0.5h0.1c0.8,0,1.6,0.2,2.4,0.5l0.9,0.3c2.7,0.8,5.5,1.4,8.3,1.7
	c0.5-1.9,0.7-3.8,0.7-5.7H21.2V38.1z"/>
<path class="st4" d="M16.5,30c0,0-0.1-0.1-0.1-0.1c1.3-0.6,1.9-0.8,3.7,0.4h-3C16.9,30.3,16.7,30.2,16.5,30"/>
<path class="st4" d="M23.6,30.2h-1c-0.7,0-1.4-0.2-2-0.6c-2.1-1.3-3-1.2-4.3-0.6c0-0.1,0-0.1,0-0.2c0.3-1.3,0.8-2.6,1.7-3.7
	c0.3-0.4,0.6-0.7,0.9-1l0.2-0.1c0.2-0.1,0.2-0.4,0.1-0.5s-0.4-0.2-0.5-0.1l0,0l-0.2,0.1c-0.3,0.2-0.6,0.2-0.7,0.1
	c-0.2-0.1-0.2-0.3-0.2-0.5c0.1-0.4,0.4-0.8,0.7-1.1l0,0c0.6-0.6,1.4-1,2.3-1.1l0,0c0.3,0,0.7,0,1,0.1c0.8,0.3,1.4,0.8,1.7,1.5
	c0.5,1.1,1,2.2,1.3,3.3c-0.5-0.2-1-0.5-1.5-0.8c-0.2-0.1-0.4-0.1-0.5,0c-0.1,0.2-0.1,0.4,0.1,0.5c0.6,0.5,1.4,0.9,2.1,1.1
	c0.1,0.5,0.2,0.9,0.2,1.4c-0.4-0.2-0.8-0.3-1.2-0.4c-0.2-0.1-0.4-0.1-0.7-0.2c-0.5-0.2-1-0.5-1.5-0.9c-0.2-0.1-0.4-0.1-0.5,0.1
	s-0.1,0.4,0.1,0.5c0.5,0.4,1.1,0.7,1.7,1c0.2,0.1,0.5,0.2,0.7,0.2c1,0.3,1.5,0.5,1.5,1c0,0.1-0.1,0.2-0.1,0.2
	C24.5,30.2,24.1,30.3,23.6,30.2"/>
<path class="st5" d="M19.6,44.5c-0.3-0.2-0.6-0.1-1.2,0.3c-0.2,0.2-0.7,0.5-0.6,0.8c0,0.1,0,0.2,0.1,0.2c0.2,0.1,0.5,0.1,0.8,0.1
	c0.2-0.4,0.4-0.7,0.8-0.9c0.1-0.1,0.2-0.2,0.3-0.4C19.7,44.6,19.6,44.5,19.6,44.5"/>
<path class="st5" d="M19.3,46.2c0.1,0.1,0.2,0.1,0.3,0.2c0.4,0,0.7-0.1,1-0.3l0,0l0,0l0,0c0.1-0.1,0.3-0.2,0.3-0.4s0-0.1-0.1-0.2
	s-0.2-0.2-0.6,0.1C19.8,45.6,19.5,45.9,19.3,46.2"/>
<path class="st5" d="M16.5,43.5c-0.4,0-0.8,0.2-1.1,0.5c-0.1,0.2-0.1,0.3-0.1,0.4s0.2,0.2,0.4,0.2h0.2c0.1-0.3,0.3-0.6,0.5-0.8
	l0.2-0.2L16.5,43.5L16.5,43.5"/>
<path class="st5" d="M18,43.8c-0.3-0.2-0.6,0-1.1,0.4c-0.3,0.3-0.4,0.5-0.4,0.7s0,0.3,0.4,0.4l0.2,0c0.2-0.4,0.5-0.8,0.9-1.1
	l0.2-0.2c0,0,0-0.1,0-0.1C18.2,43.9,18.1,43.8,18,43.8"/>
<path class="st5" d="M26.3,43.6c-0.5-0.7-1.2-1.3-1.9-1.8c-0.4-0.3-0.8-0.5-1.3-0.7c-0.4-0.2-0.9-0.3-1.3-0.2l0,0
	c-0.2,0.1-0.3,0.2-0.5,0.3l-0.4,0.3c-0.5,0.3-1,0.4-1.5,0.5c-0.5,0.1-0.9,0-1.3-0.4c-0.2-0.2-0.3-0.6-0.1-0.9l0,0
	c0.1-0.3,0.4-0.4,0.9-0.6c0.2-0.1,0.3-0.2,0.5-0.3c0.2-0.1,0.3-0.2,0.5-0.4c0.2-0.1,0.3-0.3,0.6-0.5c0.2-0.1,0.3-0.2,0.5-0.3
	l-0.6-0.1c-0.7,0-1.4,0.2-1.9,0.7l0,0c-1.2,0.6-2.4,1-3.7,1.2c-1.8,0.4-4.3,0.7-7.4,1.1c0.1,0.4,0.2,0.7,0.3,1.1
	c0.4,1.2,0.9,2.4,1.5,3.5c1.1-0.5,3.8-1.7,5.9-2.8c0.4-0.4,1-0.6,1.5-0.5c0.3,0,0.6,0.1,0.8,0.3c0.3-0.1,0.7-0.1,1,0.1
	c0.3,0.1,0.5,0.3,0.5,0.6l0,0c0.4-0.1,0.8,0,1.1,0.2c0.2,0.2,0.3,0.4,0.4,0.6c0.3-0.1,0.6,0,0.9,0.2c0.2,0.2,0.3,0.5,0.3,0.8
	c0,0.2-0.1,0.3-0.2,0.5c0.2,0,0.5,0,0.7-0.1c0.1,0,0.2-0.1,0.2-0.1c-0.1-0.3-0.3-0.5-0.5-0.8c-0.1-0.1-0.1-0.4,0.1-0.5
	c0.1-0.1,0.3-0.1,0.4,0c0.3,0.3,0.5,0.6,0.7,1c0.2,0,0.4,0,0.5-0.2c0.1-0.1,0.1-0.2,0.2-0.3c-0.1-0.2-0.2-0.4-0.4-0.6
	c-0.2-0.3-0.5-0.5-0.8-0.7c-0.1-0.1-0.2-0.3-0.1-0.5c0.1-0.1,0.3-0.2,0.5-0.1c0.4,0.2,0.7,0.5,1,0.8c0.2,0.2,0.4,0.5,0.5,0.7
	c0.2,0,0.5-0.1,0.7-0.2c0-0.1,0.1-0.1,0.1-0.2c-0.5-0.7-1.1-1.3-1.9-1.7c-0.2-0.1-0.3-0.3-0.2-0.4c0.1-0.2,0.3-0.3,0.4-0.2
	c0,0,0,0,0.1,0c0.8,0.5,1.6,1.1,2.1,1.9c0.2,0,0.4,0,0.5-0.2C26.2,43.9,26.3,43.8,26.3,43.6"/>
<path class="st5" d="M28.6,40.8c-1.7-0.4-2.9-0.8-2.9-0.8l0,0l-0.9-0.3c-0.7-0.3-1.4-0.5-2.1-0.5h-0.5c-0.5-0.1-1,0-1.4,0.3
	c-0.3,0.2-0.4,0.3-0.6,0.5c-0.2,0.1-0.4,0.3-0.5,0.4c-0.2,0.1-0.4,0.2-0.6,0.3c-0.2,0.1-0.4,0.2-0.5,0.3c0,0.1,0,0.1,0.1,0.2
	s0.3,0.1,0.7,0.1c0.4,0,0.8-0.1,1.2-0.3l0.4-0.2c0.2-0.2,0.4-0.3,0.7-0.3c1.2-0.3,2.5,0.5,3.1,0.9c0.7,0.5,1.4,1.1,1.9,1.7l0.1,0.1
	l0,0l0,0c0.2,0.2,0.4,0.4,0.6,0.6c1.5,1,3.2,1.9,4.9,2.6c0.6-1.2,1.1-2.4,1.5-3.6c0.1-0.3,0.2-0.7,0.3-1
	C32.3,41.5,30.4,41.2,28.6,40.8"/>
<path class="st3" d="M26.8,44.1c-0.1,0.1-0.1,0.3-0.2,0.4c-0.3,0.2-0.6,0.4-0.9,0.4c-0.1,0.1-0.1,0.3-0.2,0.4
	c-0.3,0.3-0.8,0.5-1.2,0.5c-0.1,0.1-0.1,0.2-0.2,0.3c-0.3,0.3-0.7,0.4-1.2,0.4c-0.1,0.1-0.3,0.2-0.5,0.3c-0.4,0.1-0.7,0.2-1.1,0.1
	v3.7c0,0.3-0.2,0.5-0.5,0.5s-0.5-0.2-0.5-0.5v-3.5C20.1,47,19.9,47,19.6,47h-0.2c-0.3-0.1-0.5-0.2-0.6-0.4c-0.4,0.1-0.9,0-1.2-0.2
	c-0.2-0.1-0.3-0.3-0.3-0.4c-0.1,0-0.3,0-0.4-0.1c-0.4-0.1-0.7-0.3-0.8-0.7h-0.3c-0.4,0-0.7-0.2-0.9-0.6c0-0.1-0.1-0.2-0.1-0.3
	c-2,1-4.2,2-5.2,2.5c0.4,0.7,0.8,1.3,1.3,1.9c1.2,1.6,2.8,3,4.5,4c0.8,0.4,1.6,0.8,2.4,1c0.1-0.2,0.2-0.3,0.4-0.4
	c0.8-0.5,2.3-0.1,2.7,0c0.4-0.1,1.9-0.5,2.7,0c0.2,0.1,0.3,0.2,0.4,0.4c0.8-0.2,1.7-0.6,2.4-1c1.8-1,3.3-2.4,4.5-4
	c0.5-0.6,0.9-1.2,1.2-1.9C30.2,46.2,28.4,45.3,26.8,44.1"/>
<path class="st0" d="M37.9,38.8c-0.1,0-0.1-0.1-0.2-0.1c0.1-0.1,0.1-0.2,0.2-0.4c0.2-0.6,0.3-1.3,0.3-2c0-0.2-0.1-0.3-0.3-0.3
	c0,0,0,0,0,0c0-0.1,0.1-0.3,0.1-0.4c0.2-0.7,0.2-1.3,0.1-2c0-0.1-0.1-0.2-0.2-0.2c-0.1,0-0.1,0-0.2,0c0-0.2,0.1-0.3,0.1-0.5
	c0.1-0.7,0.1-1.3-0.1-2c0-0.1-0.1-0.2-0.2-0.2c0,0-0.1,0-0.2,0c0-0.1,0-0.2,0-0.3c0.1-0.7,0-1.3-0.2-2c0-0.2-0.2-0.3-0.4-0.2
	c0,0-0.1,0-0.1,0c0-0.2,0-0.3,0-0.5c0-0.7-0.2-1.4-0.4-2c0-0.1-0.1-0.2-0.2-0.2c-0.1,0-0.2,0-0.2,0c0-0.1,0-0.3,0-0.5
	c-0.1-0.7-0.3-1.3-0.6-1.9c0-0.1-0.1-0.1-0.2-0.2c-0.1,0-0.2,0-0.2,0.1c0-0.1,0-0.3-0.1-0.4c-0.2-0.7-0.5-1.3-0.9-1.9
	c-0.1-0.1-0.2-0.1-0.2-0.1c-0.1,0-0.2,0-0.2,0.1c-0.1-0.2-0.1-0.3-0.2-0.5c-0.3-0.6-0.7-1.2-1.2-1.7c-0.1-0.1-0.3-0.1-0.4,0
	c0,0,0,0,0,0c-0.1-0.2-0.2-0.3-0.3-0.5c-0.4-0.6-0.8-1.1-1.3-1.5c-0.1-0.1-0.3-0.1-0.4,0.1c0,0,0,0,0,0c-0.4-0.5-1-0.9-1.6-1.1h0.4
	c0.5,0,1,0,1.4-0.1c0.2,0,0.3-0.2,0.3-0.4c0-0.2-0.2-0.3-0.4-0.3c-0.6,0-1.2-0.2-1.7-0.5l-0.2-0.1l2.1-0.3c0.2,0,0.3-0.2,0.3-0.4
	c0-0.2-0.1-0.3-0.3-0.4l-2.1-0.3c0.2-0.1,0.5-0.1,0.8-0.2c0.5-0.1,0.9-0.4,1.3-0.7c0.2-0.1,0.2-0.3,0.1-0.5
	c-0.1-0.2-0.3-0.2-0.5-0.1c-0.5,0.2-1.1,0.3-1.7,0.2h-0.3l1.8-1.1c0.2-0.1,0.2-0.3,0.1-0.5c-0.1-0.1-0.2-0.2-0.4-0.2l-2,0.5
	c0.2-0.1,0.4-0.3,0.7-0.5C28,9.4,28.3,9,28.6,8.6c0.1-0.2,0-0.4-0.1-0.5C28.3,8,28.1,8,28,8.1c-0.4,0.4-1,0.7-1.6,0.9l-0.3,0.1
	l1.3-1.7c0.1-0.1,0.1-0.4,0-0.5c-0.1-0.1-0.4-0.1-0.5,0l-1.7,1.2c0.1-0.2,0.3-0.5,0.4-0.8C25.8,6.9,25.9,6.5,26,6
	c0-0.2-0.1-0.4-0.3-0.4c-0.2,0-0.3,0.1-0.4,0.2c-0.2,0.5-0.6,1-1,1.4L24,7.3l0.5-2c0.1-0.2,0-0.4-0.2-0.5c-0.2-0.1-0.3,0-0.4,0.1
	l-1.1,1.8c0-0.2,0.1-0.6,0.1-0.9c0-0.5,0-1-0.1-1.4c0-0.2-0.2-0.3-0.4-0.3c-0.2,0-0.3,0.2-0.3,0.4c0,0.6-0.1,1.2-0.5,1.7l-0.1,0.2
	l-0.3-2.1c0-0.2-0.2-0.3-0.4-0.3l0,0c-0.2,0-0.3,0.1-0.4,0.3l-0.3,2.1C20,6.3,19.9,6,19.8,5.7c-0.2-0.5-0.4-0.9-0.7-1.3
	c-0.1-0.2-0.4-0.2-0.5-0.1c-0.1,0.1-0.2,0.3-0.1,0.4c0.2,0.5,0.3,1.1,0.2,1.7c0,0.1,0,0.2,0,0.3L17.6,5c-0.1-0.2-0.3-0.3-0.5-0.2
	c-0.2,0.1-0.3,0.3-0.2,0.5l0.5,2c-0.1-0.2-0.3-0.4-0.5-0.7c-0.3-0.4-0.7-0.7-1.1-0.9c-0.2-0.1-0.4,0-0.5,0.1c-0.1,0.1-0.1,0.3,0,0.5
	c0.4,0.4,0.7,0.9,0.8,1.5c0,0.1,0,0.2,0.1,0.3l-1.7-1.2c-0.1-0.1-0.4-0.1-0.5,0c-0.1,0.1-0.1,0.4,0,0.5l1.3,1.7
	c-0.2-0.1-0.5-0.3-0.8-0.4c-0.4-0.2-0.9-0.4-1.4-0.4c-0.2,0-0.4,0.1-0.4,0.3c0,0.2,0.1,0.3,0.2,0.4c0.5,0.2,1,0.6,1.3,1.1l0.2,0.2
	l-2.1-0.5C12.3,9.6,12.1,9.8,12,10c0,0.2,0,0.3,0.2,0.4l1.8,1.1c-0.2,0-0.5-0.1-0.9-0.1c-0.5,0-1,0-1.4,0.1c-0.2,0-0.3,0.2-0.3,0.4
	c0,0.2,0.2,0.3,0.4,0.3c0.6,0,1.2,0.2,1.6,0.4l0.2,0.1l-2.1,0.3c-0.2,0-0.4,0.2-0.4,0.4c0,0.2,0.2,0.4,0.4,0.4l2.1,0.3
	c-0.2,0.1-0.5,0.1-0.8,0.2c-0.5,0.2-0.9,0.4-1.3,0.7c-0.2,0.1-0.2,0.3-0.1,0.5c0.1,0.2,0.3,0.2,0.5,0.1c0.4-0.1,0.7-0.2,1.1-0.2
	c-0.3,0.3-0.7,0.6-0.9,0.9l-0.2,0.3c-0.1-0.1-0.3-0.2-0.4-0.1c0,0,0,0,0,0c-0.5,0.4-1,0.9-1.4,1.5c-0.1,0.2-0.2,0.3-0.3,0.5
	c0-0.1-0.1-0.1-0.2-0.1c-0.1,0-0.2,0-0.3,0.1c-0.5,0.5-0.9,1.1-1.1,1.7c-0.1,0.1-0.1,0.3-0.2,0.5c-0.1-0.1-0.3-0.1-0.4,0
	c0,0,0,0,0,0c-0.4,0.5-0.7,1.2-0.9,1.8c0,0.2-0.1,0.3-0.1,0.5c-0.1-0.1-0.3-0.1-0.4,0c0,0-0.1,0.1-0.1,0.1c-0.3,0.6-0.5,1.3-0.6,2
	c0,0.2,0,0.3,0,0.5c-0.1-0.1-0.3-0.1-0.4,0c0,0,0,0.1,0,0.1c-0.2,0.6-0.4,1.3-0.4,2c0,0.1,0,0.3,0,0.5c-0.1-0.1-0.3,0-0.4,0.1
	c0,0,0,0.1,0,0.1c-0.2,0.7-0.2,1.3-0.2,2c0,0.1,0,0.2,0,0.4c0,0-0.1,0-0.1,0c-0.1,0-0.2,0.1-0.2,0.2c-0.1,0.7-0.2,1.3-0.1,2
	c0,0.2,0.1,0.3,0.1,0.5H3.6c-0.1,0-0.1,0.1-0.2,0.2c-0.1,0.7-0.1,1.3,0.1,2c0,0.1,0.1,0.3,0.1,0.4c-0.1,0-0.1,0-0.2,0
	C3.4,36,3.3,36,3.3,36.1c0,0.7,0.1,1.4,0.3,2c0.1,0.2,0.1,0.3,0.2,0.5l0,0c-0.1,0-0.2,0-0.3,0.1c-0.1,0.1-0.1,0.2-0.1,0.3
	c0.1,0.7,0.3,1.4,0.6,2.1l0.2,0.3c-0.1,0-0.1,0-0.1,0.1C4,41.5,3.9,41.6,4,41.7c0.1,0.7,0.4,1.3,0.8,1.9C4.8,43.8,4.9,43.9,5,44
	c-0.1,0-0.2,0.1-0.2,0.1c0,0.1,0,0.2,0,0.3c0.2,0.6,0.6,1.2,1,1.8c0.1,0.1,0.2,0.2,0.3,0.3c-0.1,0-0.1,0.1-0.2,0.1
	c0,0.1,0,0.2,0,0.3c0.3,0.6,0.6,1.2,1.1,1.6l0.3,0.3c-0.1,0-0.1,0.1-0.2,0.2c0,0.1,0,0.2,0,0.3c0.4,0.6,0.8,1.1,1.4,1.5
	C8.6,50.9,8.8,51,9,51.1H8.9c-0.2,0.1-0.2,0.2-0.2,0.4c0,0,0,0.1,0.1,0.1c0.5,0.5,1,0.9,1.6,1.3c0.4,0.2,0.8,0.4,1.3,0.5
	c0.3,0.1,0.7,0.1,1,0h0.1c0.9,0.6,1.9,1.2,2.9,1.6c0.8,0.4,1.7,0.6,2.6,0.8l0.5,0.1c-0.4-0.1-0.7-0.3-1-0.6l0-0.2
	c-0.6-0.2-1.2-0.4-1.8-0.6c-1-0.4-1.9-0.9-2.8-1.5l0,0c0-0.3,0-0.6-0.1-0.9c0.6,0.5,1.2,0.9,1.8,1.3c0.8,0.5,1.7,0.8,2.6,1.1
	c0-0.1,0-0.1,0-0.2c0-0.1,0.1-0.3,0.1-0.4c-0.8-0.2-1.7-0.6-2.4-1c-1.8-1-3.3-2.4-4.5-4c-0.5-0.6-0.9-1.2-1.3-1.9
	c1-0.5,3.2-1.5,5.2-2.5c0,0.1,0,0.2,0.1,0.3c0.2,0.3,0.5,0.6,0.9,0.6h0.3c0.2,0.3,0.4,0.6,0.8,0.7c0.1,0,0.3,0.1,0.4,0.1
	c0.1,0.2,0.2,0.3,0.3,0.4c0.4,0.2,0.8,0.3,1.2,0.2c0.2,0.2,0.4,0.3,0.6,0.4h0.2c0.2,0,0.4,0,0.6-0.1v3.5c0,0.3,0.2,0.5,0.5,0.5
	s0.5-0.2,0.5-0.5l0,0v-3.7c0.4,0.1,0.8,0,1.1-0.1c0.2-0.1,0.3-0.2,0.5-0.3c0.4,0.1,0.9,0,1.2-0.4c0.1-0.1,0.2-0.2,0.2-0.3
	c0.5,0,0.9-0.1,1.2-0.5c0.1-0.1,0.2-0.2,0.2-0.4c0.3,0,0.7-0.1,0.9-0.4c0.1-0.1,0.2-0.2,0.2-0.4c1.6,1.1,3.4,2.1,5.2,2.8
	c-0.4,0.6-0.8,1.2-1.2,1.8c-1.2,1.6-2.8,3-4.5,4c-0.8,0.4-1.6,0.8-2.4,1c0.1,0.1,0.1,0.3,0.1,0.4c0,0.1,0,0.1,0,0.2
	c0.9-0.3,1.8-0.6,2.6-1.1c0.7-0.4,1.3-0.8,1.9-1.3c-0.1,0.3-0.1,0.6-0.1,0.9l0,0c-0.6,0.5-1.3,0.9-2,1.2c-0.8,0.4-1.6,0.7-2.4,0.9
	h-0.1l-0.1,0.1c-0.3,0.3-0.6,0.5-1,0.7c0.4,0,0.9-0.1,1.3-0.2c0.9-0.3,1.7-0.6,2.5-1c0.8-0.4,1.5-0.8,2.1-1.3l0,0
	c0.4,0.1,0.7,0.1,1.1,0c0.5-0.1,0.9-0.3,1.3-0.5c0.6-0.3,1.1-0.8,1.6-1.3c0.1-0.1,0.1-0.2,0.1-0.3c0-0.1-0.1-0.2-0.2-0.2l0,0
	c0.2-0.1,0.3-0.2,0.5-0.3c0.5-0.4,1-0.9,1.3-1.5c0.1-0.1,0-0.3-0.1-0.4c0,0,0,0,0,0l0.3-0.3c0.5-0.5,0.9-1,1.2-1.7
	c0-0.1,0-0.2,0-0.3c0-0.1-0.1-0.1-0.2-0.1c0.1-0.1,0.2-0.2,0.3-0.3c0.4-0.5,0.8-1.1,1-1.8c0-0.1,0-0.2,0-0.3
	c-0.1-0.1-0.1-0.1-0.2-0.1l0,0c0.1-0.1,0.2-0.2,0.2-0.3c0.4-0.6,0.6-1.2,0.8-1.9c0-0.1,0-0.2-0.1-0.3c-0.1-0.1-0.2-0.1-0.2-0.1
	c0.1-0.1,0.2-0.3,0.2-0.4c0.3-0.6,0.5-1.3,0.5-1.9C38,38.9,38,38.8,37.9,38.8 M37.6,34L37.6,34c0,0.5,0,0.9-0.1,1.4
	c-0.1,0.4-0.3,0.8-0.5,1.1c-0.2,0.3-0.4,0.5-0.7,0.7l0,0c-0.6-0.8-0.9-1.7-0.8-2.7l0,0c0.3,0.3,0.5,0.6,0.7,0.9
	c0.1,0.1,0.2,0.2,0.3,0.1c0,0,0.1-0.1,0.1-0.1C36.7,34.9,37.1,34.4,37.6,34 M37.2,31.3L37.2,31.3c0.1,0.5,0.1,0.9,0,1.4
	c0,0.4-0.1,0.9-0.3,1.3c-0.2,0.3-0.4,0.5-0.6,0.8l0,0c-0.6-0.7-1-1.6-1-2.6l0,0c0.3,0.2,0.5,0.5,0.7,0.8c0.1,0.1,0.2,0.1,0.3,0.1
	c0,0,0.1-0.1,0.1-0.1C36.5,32.4,36.8,31.8,37.2,31.3 M36.8,28.8L36.8,28.8c0.1,0.5,0.1,0.9,0.1,1.4c0,0.4-0.1,0.8-0.3,1.2
	c-0.1,0.3-0.3,0.5-0.6,0.8l0,0c-0.5-0.5-0.9-1.1-1-1.8c-0.1-0.2-0.1-0.5-0.1-0.8l0,0c0.3,0.2,0.6,0.5,0.8,0.8
	c0.1,0.1,0.1,0.1,0.2,0.1c0.1,0,0.2-0.1,0.2-0.2C36.2,29.8,36.4,29.3,36.8,28.8 M16.4,29c0-0.1,0-0.1,0-0.2c0.3-1.3,0.8-2.6,1.6-3.7
	c0.3-0.4,0.6-0.7,0.9-1l0.2-0.1c0.2-0.1,0.2-0.4,0.1-0.5s-0.4-0.2-0.5-0.1l0,0l-0.2,0.1c-0.3,0.2-0.6,0.2-0.7,0.1
	c-0.2-0.1-0.2-0.3-0.2-0.5c0.1-0.4,0.4-0.8,0.7-1.1l0,0c0.6-0.6,1.4-1,2.3-1l0,0c0.3,0,0.7,0,1,0.1c0.8,0.3,1.4,0.8,1.7,1.5
	c0.5,1.1,1,2.2,1.3,3.3c-0.5-0.2-1-0.5-1.5-0.8c-0.2-0.1-0.4-0.1-0.5,0c-0.1,0.2-0.1,0.4,0.1,0.5c0.6,0.5,1.4,0.9,2.1,1.1
	c0.1,0.5,0.2,0.9,0.2,1.4c-0.4-0.2-0.8-0.3-1.2-0.4c-0.2-0.1-0.4-0.1-0.7-0.2c-0.5-0.2-1-0.5-1.5-0.9c-0.2-0.1-0.4-0.1-0.5,0.1
	s-0.1,0.4,0.1,0.5c0.5,0.4,1.1,0.7,1.7,1c0.2,0.1,0.5,0.2,0.7,0.2c1,0.3,1.5,0.5,1.5,1c0,0.1-0.1,0.2-0.1,0.2
	c-0.4,0.3-0.8,0.4-1.3,0.4h-1c-0.7,0-1.4-0.2-2-0.6C18.5,28.4,17.6,28.5,16.4,29 M20.1,30.3h-3c-0.2,0-0.5-0.1-0.6-0.2
	c0,0-0.1-0.1-0.1-0.1C17.7,29.3,18.3,29.1,20.1,30.3 M21.1,35.4V31h2.5c0.2,0,0.4,0,0.5,0c0.5,0,0.9-0.3,1.2-0.6
	c0.1-0.2,0.2-0.3,0.3-0.5c0,0,0,0,0-0.1c0.1-0.3,0.1-0.5,0-0.8v-0.1c-0.2-2.3-0.9-4.5-1.9-6.5c-0.6-1.3-2-2.1-3.4-2.1
	c-1.1,0-2.1,0.5-2.8,1.3c-0.4,0.4-0.7,0.9-0.9,1.5c-0.1,0.5,0.1,1,0.5,1.3l0.2,0.1c-1,1.2-1.6,2.7-1.9,4.2c0,0.3,0,0.6,0,0.9
	c0,0,0,0,0,0.1c0,0.3,0.1,0.5,0.3,0.8c0.3,0.4,0.8,0.5,1.2,0.5h3.1v7c-0.8,0-1.6,0.3-2.2,0.8c-1,0.8-4.7,1.5-10.9,2.2
	c-0.4-1.9-0.7-3.8-0.7-5.7c0-2.5,0.4-5,1.1-7.3c0.7-2.2,1.7-4.2,3.1-6c1.2-1.6,2.8-3,4.5-4c3.4-1.9,7.6-1.9,11,0
	c1.8,1,3.3,2.4,4.5,4c1.4,1.8,2.4,3.8,3.1,6c0.8,2.4,1.2,4.8,1.2,7.3c0,1.9-0.2,3.9-0.7,5.7c-2.8-0.3-5.6-0.8-8.3-1.7l-0.9-0.3
	c-0.8-0.3-1.6-0.5-2.4-0.5h-0.1c-0.4-0.2-0.9-0.4-1.4-0.5L21.1,35.4z M27,15.6c-0.3,0.1-0.7,0.2-1,0.3c-0.2,0-0.5,0.1-0.7,0.1
	c-0.5,0-1-0.1-1.4-0.4l0,0l0,0c0.3-0.1,0.5-0.3,0.8-0.3c0.4-0.1,0.8-0.1,1.2,0C26.3,15.3,26.6,15.5,27,15.6L27,15.6L27,15.6
	 M27.5,17.2L27.5,17.2L27.5,17.2c-0.2,0.1-0.5,0.1-0.7,0.1h-0.1c-0.7,0-1.3-0.3-1.9-0.7l0,0l0,0c0.3-0.1,0.5-0.1,0.8-0.1
	C26.3,16.4,27,16.7,27.5,17.2 M24.6,14.8c-0.4,0.2-0.9,0.3-1.3,0.4c-0.1,0-0.2,0.1-0.2,0.2c0,0.1,0,0.2,0.1,0.2
	c0.3,0.2,0.6,0.5,0.9,0.8l0,0l0,0c-1,0-1.9-0.4-2.6-1.2l0,0c0.2-0.2,0.4-0.3,0.7-0.4C22.9,14.5,23.8,14.5,24.6,14.8L24.6,14.8
	L24.6,14.8 M21.8,14.3c-0.4,0.3-0.8,0.5-1.3,0.6c-0.1,0-0.2,0.2-0.1,0.3c0,0.1,0.1,0.1,0.1,0.1c0.4,0.1,0.7,0.3,1,0.6l0,0l0,0
	c-0.1,0-0.3,0-0.5,0c-0.8,0-1.6-0.2-2.2-0.6l0,0c0.2-0.2,0.4-0.4,0.6-0.6C20.1,14.3,21,14.2,21.8,14.3L21.8,14.3L21.8,14.3 M19,14.3
	c-0.3,0.4-0.7,0.7-1.1,0.9c-0.1,0.1-0.1,0.2-0.1,0.3c0,0.1,0.1,0.1,0.2,0.1c0.4,0.1,0.7,0.3,1.1,0.5l0,0c-0.2,0.1-0.5,0.1-0.7,0.2
	c-0.3,0-0.5,0.1-0.8,0.1c-0.4,0-0.9-0.1-1.3-0.2l0,0c0.1-0.3,0.3-0.5,0.5-0.7C17.3,14.7,18.2,14.4,19,14.3L19,14.3L19,14.3
	 M16.4,14.8c-0.2,0.5-0.6,0.9-1,1.3c-0.1,0.1-0.1,0.2,0,0.3c0,0.1,0.1,0.1,0.2,0.1c0.2,0,0.4,0,0.6,0c0.2,0,0.4,0.1,0.6,0.1l0,0l0,0
	c-0.2,0.1-0.5,0.2-0.7,0.3c-0.4,0.2-0.9,0.2-1.3,0.2c-0.3,0-0.5,0-0.8-0.1l0,0C13.9,16.5,14.4,15.4,16.4,14.8L16.4,14.8L16.4,14.8
	 M36,26.2L36,26.2c0.2,0.4,0.2,0.9,0.3,1.4c0,0.4,0,0.8-0.2,1.2c-0.1,0.3-0.3,0.6-0.5,0.8l0,0c-0.6-0.4-1-1-1.2-1.7
	c-0.1-0.2-0.2-0.5-0.2-0.7l0,0l0,0c0.3,0.2,0.6,0.5,0.9,0.7c0.1,0.1,0.2,0.1,0.3,0c0,0,0.1-0.1,0.1-0.1C35.5,27.3,35.7,26.7,36,26.2
	 M34.5,25.7c0.1,0,0.1-0.1,0.1-0.2c0-0.6,0.1-1.2,0.4-1.7l0,0c0.2,0.4,0.3,0.9,0.4,1.4c0.1,0.4,0.1,0.8,0,1.2
	c-0.1,0.3-0.2,0.6-0.4,0.9l0,0c-0.6-0.3-1.1-0.9-1.5-1.5c-0.1-0.2-0.2-0.5-0.3-0.7l0,0l0,0c0.4,0.2,0.7,0.4,1,0.6
	C34.4,25.7,34.5,25.7,34.5,25.7 M33.4,23.4L33.4,23.4c0.1,0,0.1-0.1,0.1-0.2c-0.1-0.6,0-1.2,0.2-1.8l0,0c0.2,0.4,0.4,0.8,0.6,1.3
	c0.1,0.4,0.1,0.8,0.1,1.2c0,0.3-0.1,0.6-0.3,0.9l0,0c-0.7-0.3-1.3-0.7-1.7-1.4c-0.1-0.2-0.3-0.4-0.4-0.7l0,0l0,0
	c0.4,0.1,0.7,0.3,1.1,0.5C33.2,23.4,33.3,23.4,33.4,23.4 M31.8,21.2c0.1,0.1,0.2,0,0.3,0c0-0.1,0.1-0.1,0-0.2
	c-0.2-0.6-0.2-1.1-0.1-1.7l0,0c0.3,0.4,0.6,0.8,0.8,1.2c0.2,0.4,0.2,0.8,0.2,1.2c0,0.3,0,0.6-0.1,0.9l0,0c-0.7-0.1-1.3-0.5-1.8-1.1
	c-0.2-0.2-0.4-0.4-0.5-0.6l0,0l0,0C31,20.9,31.4,21.1,31.8,21.2 M30,19.4c0.1,0,0.2,0,0.3-0.1c0-0.1,0-0.1,0-0.2
	c-0.3-0.5-0.4-1.1-0.3-1.7l0,0c0.3,0.3,0.7,0.6,0.9,1c0.2,0.4,0.4,0.7,0.5,1.1c0.1,0.3,0.1,0.7,0.1,1h-0.1c-0.7,0-1.3-0.3-1.9-0.7
	c-0.2-0.2-0.4-0.4-0.6-0.6l0,0H29C29.4,19.2,29.7,19.3,30,19.4 M29.4,17.7c0.1,0.3,0.2,0.7,0.2,1.1h-0.1c-0.9-0.1-1.8-0.5-2.5-1l0,0
	l0,0c0.4-0.1,0.8-0.1,1.1,0c0.1,0,0.2-0.1,0.3-0.2c0-0.1,0-0.1,0-0.2c-0.3-0.4-0.5-0.8-0.7-1.3l0,0l0,0
	C28.4,16.3,29.1,16.9,29.4,17.7 M12.5,15.1c0.2-0.1,0.4-0.2,0.6-0.2c0.4-0.1,0.9-0.3,1.3-0.4c0.4-0.1,0.7-0.2,1-0.4c0,0,0-0.1,0-0.1
	c0,0,0-0.1-0.1-0.1l-3-0.4l3-0.4c0,0,0.1,0,0.1-0.1c0,0,0-0.1-0.1-0.1c-0.4-0.1-0.8-0.2-1.2-0.4c-0.2-0.1-0.3-0.2-0.5-0.2
	c-0.4-0.2-0.8-0.4-1.2-0.4c0.2,0,0.4,0,0.6,0c0.5,0,0.9,0.1,1.4,0.1c0.4,0.1,0.7,0.1,1.1,0c0,0,0.1,0,0.1-0.1c0,0,0-0.1,0-0.1
	L13,10.3l3,0.8c0,0,0,0,0-0.1c0,0,0-0.1,0-0.1c-0.3-0.2-0.7-0.5-0.9-0.8c-0.1-0.1-0.2-0.3-0.3-0.4c-0.3-0.3-0.6-0.6-0.9-0.9
	C14,8.9,14.2,9,14.4,9.1c0.4,0.2,0.8,0.4,1.2,0.7c0.3,0.2,0.6,0.3,1,0.4c0,0,0.1,0,0.1,0c0,0,0-0.1,0-0.1l-1.8-2.5l2.5,1.8
	c0,0,0.1,0,0.1,0c0,0,0-0.1,0-0.1c-0.2-0.3-0.4-0.7-0.6-1.1c-0.1-0.2-0.1-0.3-0.2-0.5c-0.1-0.4-0.3-0.8-0.5-1.2
	c0.2,0.1,0.3,0.3,0.5,0.4c0.3,0.3,0.6,0.7,0.8,1c0.2,0.3,0.5,0.6,0.8,0.8c0,0,0.1,0,0.1,0c0,0,0-0.1,0-0.1l-0.8-3l1.6,2.7
	c0,0,0.1,0,0.1,0c0,0,0.1-0.1,0-0.1c-0.1-0.4-0.1-0.8-0.1-1.2c0-0.2,0-0.4,0-0.5c0.1-0.4,0.1-0.9,0-1.3c0.1,0.2,0.2,0.4,0.2,0.6
	c0.1,0.4,0.3,0.9,0.4,1.3c0.1,0.4,0.2,0.7,0.4,1c0,0,0.1,0.1,0.1,0c0,0,0,0,0,0l0.4-3l0.4,3c0,0,0,0.1,0.1,0.1c0,0,0.1,0,0.1-0.1
	c0,0,0,0,0,0c0.1-0.4,0.2-0.8,0.4-1.1c0.1-0.2,0.2-0.3,0.2-0.5c0.2-0.4,0.4-0.8,0.4-1.2c0,0.2,0,0.4,0,0.6c0,0.4-0.1,0.9-0.2,1.3
	c-0.1,0.4-0.1,0.7,0,1.1c0,0,0,0.1,0.1,0.1c0,0,0.1,0,0.1,0L24,5.8l-0.8,3c0,0,0,0.1,0.1,0.1c0,0,0.1,0,0.1,0
	c0.2-0.3,0.5-0.7,0.8-0.9c0.1-0.1,0.3-0.2,0.4-0.3c0.3-0.3,0.6-0.6,0.9-0.9c-0.1,0.2-0.1,0.4-0.2,0.6C25,7.6,24.8,8,24.5,8.4
	c-0.2,0.3-0.3,0.6-0.4,1c0,0,0,0.1,0,0.1c0,0,0.1,0,0.1,0l2.5-1.8L24.8,10c0,0,0,0.1,0,0.1c0,0,0.1,0,0.1,0c0.3-0.2,0.7-0.4,1.1-0.5
	l0.5-0.2c0.4-0.1,0.8-0.3,1.2-0.5c-0.1,0.2-0.3,0.3-0.4,0.4c-0.3,0.3-0.7,0.6-1.1,0.8c-0.3,0.2-0.6,0.5-0.8,0.8c0,0,0,0.1,0,0.1
	c0,0,0.1,0,0.1,0l3-0.8l-2.6,1.6c0,0,0,0.1,0,0.1c0,0,0.1,0.1,0.1,0.1c0.4-0.1,0.8-0.1,1.2-0.1h0.5c0.4,0.1,0.9,0.1,1.3,0
	c-0.2,0.1-0.4,0.2-0.6,0.2c-0.4,0.1-0.9,0.3-1.3,0.4c-0.4,0.1-0.7,0.2-1,0.4c0,0-0.1,0-0.1,0.1c0,0,0,0,0,0c0,0,0,0.1,0.1,0.1l3,0.4
	l-3,0.4c0,0-0.1,0-0.1,0.1c0,0,0,0.1,0.1,0.1c0.4,0.1,0.8,0.2,1.2,0.4c0.2,0.1,0.3,0.2,0.5,0.2c0.4,0.2,0.8,0.4,1.2,0.4
	c-0.2,0-0.4,0-0.6,0c-0.4,0-0.9-0.1-1.3-0.1h-0.1c-0.5-0.2-1-0.3-1.5-0.3c0,0,0,0,0-0.1c0-0.1-0.1-0.1-0.1-0.2
	c-0.5-0.2-1.1-0.3-1.6-0.4h-0.4c-0.2,0-0.5,0-0.7,0.1l0,0c0,0,0-0.1,0-0.1l0,0c0-0.1-0.1-0.1-0.2-0.1h-0.1H22c-0.5,0-1.1,0-1.6,0.1
	L20,14l0,0h-0.1l0,0h-0.1l-0.2,0.1l0,0l0,0l0,0c0-0.1,0-0.1-0.1-0.2l0,0l0,0c0,0-0.1-0.1-0.2-0.1c-0.7,0-1.3,0.2-1.9,0.4
	c-0.2,0.1-0.4,0.2-0.5,0.3v0l0,0c0-0.1,0-0.2-0.1-0.2l0,0c-0.1,0-0.1,0-0.2,0c-0.7,0.2-1.3,0.4-1.9,0.8l0,0h-0.4h-0.5
	c-0.4-0.1-0.9-0.1-1.3,0 M13.8,15.7L13.8,15.7c0,0.6-0.2,1.2-0.6,1.7c-0.1,0.1,0,0.2,0.1,0.3c0.1,0,0.1,0,0.2,0
	c0.4-0.1,0.8-0.1,1.1-0.1l0,0l0,0c-0.7,0.6-1.6,0.9-2.5,1H12C12,17.4,12.7,16.3,13.8,15.7 M10.2,19.5c0.1-0.4,0.3-0.8,0.5-1.1
	c0.3-0.4,0.6-0.8,0.9-1.1l0,0c0,0.6-0.1,1.2-0.4,1.7c-0.1,0.1,0,0.2,0.1,0.3c0.1,0,0.1,0,0.2,0c0.4-0.1,0.7-0.2,1.1-0.2l0,0l0,0
	c-0.2,0.2-0.4,0.4-0.6,0.6c-0.5,0.4-1.1,0.7-1.7,0.8h-0.1C10.1,20.1,10.1,19.8,10.2,19.5 M9.6,19.1L9.6,19.1
	c0.1,0.6,0.1,1.3-0.1,1.9c0,0.1,0,0.2,0.1,0.3c0.1,0,0.1,0,0.2,0c0.3-0.2,0.7-0.3,1.1-0.4l0,0l0,0c-0.5,0.8-1.4,1.4-2.3,1.7l0,0
	c-0.3-1.2,0.1-2.5,1-3.4 M7.2,22.7c0.1-0.5,0.3-0.9,0.6-1.3l0,0C8.1,22,8.1,22.6,8,23.2c0,0.1,0.1,0.2,0.2,0.3c0.1,0,0.1,0,0.2-0.1
	c0.3-0.3,0.7-0.5,1.1-0.5l0,0l0,0c-0.1,0.3-0.3,0.5-0.4,0.8c-0.4,0.6-1,1-1.7,1.3l0,0c-0.1-0.3-0.2-0.6-0.2-0.9
	C7.1,23.5,7.1,23.1,7.2,22.7 M6,25.1c0.1-0.5,0.2-0.9,0.4-1.4l0,0c0.3,0.5,0.4,1.1,0.3,1.7c0,0.1,0,0.2,0.1,0.2c0.1,0,0.2,0,0.2,0
	c0.3-0.3,0.6-0.5,1-0.6l0,0l0,0c-0.1,0.2-0.1,0.4-0.2,0.6c-0.3,0.7-0.9,1.2-1.6,1.6l0,0c-0.2-0.3-0.3-0.6-0.3-0.9
	C5.9,25.9,5.9,25.5,6,25.1 M5.1,27.6c0-0.5,0.1-0.9,0.2-1.4l0,0c0.3,0.5,0.5,1.1,0.6,1.7c0,0.1,0.1,0.2,0.2,0.2c0.1,0,0.1,0,0.2-0.1
	c0.3-0.3,0.6-0.6,0.9-0.8l0,0c0,0.2-0.1,0.5-0.2,0.7c-0.2,0.7-0.7,1.3-1.4,1.7l0,0c-0.2-0.2-0.4-0.5-0.5-0.8C5.1,28.4,5,28,5.1,27.6
	 M4.5,28.8L4.5,28.8c0.4,0.5,0.7,1,0.8,1.6c0,0.1,0.1,0.2,0.3,0.2c0.1,0,0.1,0,0.1-0.1c0.2-0.3,0.5-0.6,0.8-0.9l0,0
	c0,0.2,0,0.5-0.1,0.7c-0.1,0.7-0.5,1.4-1,1.9l0,0c-0.2-0.2-0.4-0.5-0.6-0.8c-0.2-0.4-0.3-0.8-0.3-1.2C4.5,29.7,4.5,29.2,4.5,28.8
	 M4.2,31.4L4.2,31.4c0.4,0.4,0.7,1,0.8,1.6c0,0.1,0.1,0.2,0.2,0.2c0.1,0,0.2,0,0.2-0.1c0.2-0.4,0.4-0.7,0.7-1l0,0l0,0
	c0,0.3,0,0.5-0.1,0.8c-0.1,0.7-0.4,1.4-0.9,1.9l0,0c-0.2-0.2-0.4-0.5-0.6-0.7c-0.2-0.4-0.3-0.8-0.4-1.2C4.1,32.3,4.1,31.8,4.2,31.4
	 M3.9,34L3.9,34l0.2,0.2c0.4,0.4,0.6,0.8,0.8,1.3c0,0.1,0.1,0.2,0.3,0.2c0.1,0,0.2-0.1,0.2-0.2c0.1-0.4,0.3-0.7,0.6-1l0,0
	C6,35,6,35.4,5.9,35.8c-0.1,0.6-0.4,1.1-0.8,1.5l0,0C4.2,36.5,3.8,35.3,3.9,34 M3.9,36.7L3.9,36.7L4,36.8c0.4,0.4,0.7,0.8,1,1.3
	c0,0.1,0.1,0.1,0.2,0.1l0,0c0.1,0,0.2-0.1,0.2-0.1c0.2-0.4,0.4-0.7,0.6-1h0c0.2,1,0,2-0.6,2.8l0,0C4.4,39.2,3.8,38,3.9,36.7
	L3.9,36.7 M4,39.5L4,39.5L4,39.5c0.5,0.3,1,0.7,1.3,1.2c0.1,0.1,0.2,0.1,0.3,0.1c0,0,0.1-0.1,0.1-0.1l0,0c0.1-0.4,0.2-0.8,0.4-1.2
	l0,0c0.1,0.2,0.2,0.5,0.2,0.7c0.2,0.7,0,1.5-0.4,2.2h0c-0.3-0.1-0.6-0.3-0.8-0.5c-0.3-0.3-0.6-0.6-0.8-1C4.2,40.4,4.1,39.9,4,39.5
	 M4.6,42L4.6,42L4.6,42l0.2,0.1c0.5,0.2,0.9,0.6,1.2,1c0.1,0.1,0.1,0.1,0.2,0.1c0.1,0,0.2-0.1,0.2-0.2c0.1-0.4,0.2-0.8,0.3-1.1l0,0
	c0.4,0.9,0.5,1.9,0.1,2.8l0,0C5.7,44.2,4.8,43.2,4.6,42 M6.1,45.8c-0.3-0.4-0.5-0.8-0.7-1.2l0,0l0,0l0.2,0.1c0.5,0.2,1,0.5,1.4,0.9
	c0.1,0.1,0.2,0.1,0.3,0c0,0,0.1-0.1,0.1-0.2c0-0.4,0.1-0.8,0.2-1.2l0,0c0.1,0.2,0.2,0.4,0.3,0.7C8.2,45.5,8.2,46.3,8,47l0,0
	c-0.3-0.1-0.6-0.2-0.9-0.3C6.7,46.4,6.4,46.2,6.1,45.8 M6.5,47L6.5,47L6.5,47c0.6,0.1,1.2,0.4,1.6,0.7c0.1,0,0.2,0,0.2,0
	c0.1,0,0.1-0.1,0.1-0.2c0-0.4,0-0.8,0.1-1.1l0,0c0.1,0.2,0.3,0.4,0.4,0.7c0.3,0.6,0.5,1.3,0.4,2l0,0c-0.3,0-0.6-0.1-0.9-0.2
	c-0.4-0.2-0.7-0.4-1-0.7C7,47.8,6.8,47.4,6.5,47 M11.6,51.4c-0.1-0.4-0.2-0.7-0.3-1.1l0,0l0,0c0.8,0.6,1.3,1.5,1.3,2.5l0,0
	c-0.1,0-0.2,0-0.3,0c-0.2,0-0.3,0-0.5,0c-0.9-0.2-1.6-0.7-2.3-1.3l0,0l0,0c0.6-0.1,1.2,0,1.8,0.2c0.1,0,0.2,0,0.3-0.1
	C11.6,51.5,11.6,51.5,11.6,51.4 M9.6,49.8c0.1,0.1,0.2,0.1,0.2,0c0.1-0.1,0.1-0.1,0.1-0.2c-0.1-0.4-0.1-0.8-0.1-1.1l0,0
	c0.7,0.7,1,1.6,1.1,2.6l0,0h-0.1c-0.3,0-0.6,0-0.9-0.1c-0.4-0.1-0.8-0.3-1.1-0.6c-0.4-0.3-0.7-0.6-1-1l0,0l0,0
	C8.4,49.4,9,49.6,9.6,49.8 M15.9,44.6h-0.2c-0.2,0-0.4-0.1-0.4-0.2s-0.1-0.2,0.1-0.4c0.3-0.3,0.7-0.5,1.1-0.5l0,0h0.2l-0.2,0.2
	C16.1,44,15.9,44.2,15.9,44.6 M17.1,45.3l-0.2,0c-0.4-0.1-0.4-0.3-0.4-0.4s0.1-0.4,0.4-0.7c0.5-0.4,0.8-0.6,1.1-0.4
	c0.1,0,0.2,0.1,0.2,0.2c0,0,0,0.1,0,0.1L18,44.3C17.5,44.5,17.2,44.9,17.1,45.3 M18.6,45.9c-0.3,0.1-0.5,0-0.8-0.1
	c-0.1-0.1-0.1-0.1-0.1-0.2c0-0.3,0.4-0.7,0.6-0.8c0.6-0.4,0.9-0.5,1.2-0.3c0.1,0,0.1,0.1,0.1,0.2c0,0.1-0.1,0.3-0.3,0.4
	C19,45.3,18.8,45.6,18.6,45.9 M20.8,45.6c0,0.2-0.2,0.3-0.3,0.4l0,0l0,0l0,0c-0.3,0.2-0.6,0.4-1,0.3c-0.1,0-0.2-0.1-0.3-0.2
	c0.2-0.3,0.5-0.6,0.9-0.8c0.4-0.2,0.6-0.1,0.6-0.1S20.9,45.5,20.8,45.6 M26.1,44c-0.1,0.1-0.3,0.2-0.5,0.2c-0.6-0.8-1.3-1.4-2.1-1.9
	c-0.2-0.1-0.4,0-0.5,0.1c-0.1,0.2,0,0.4,0.1,0.5c0,0,0,0,0.1,0c0.7,0.4,1.4,1,1.9,1.7c0,0.1-0.1,0.1-0.1,0.2
	C24.7,45,24.5,45,24.2,45c-0.1-0.3-0.3-0.5-0.5-0.7c-0.3-0.3-0.6-0.6-1-0.8c-0.1-0.1-0.4-0.1-0.5,0.1c-0.1,0.1-0.1,0.4,0.1,0.5
	c0.3,0.2,0.6,0.4,0.8,0.7c0.2,0.2,0.3,0.4,0.4,0.6c0,0.1-0.1,0.2-0.2,0.3c-0.1,0.1-0.3,0.2-0.5,0.2c-0.2-0.4-0.4-0.7-0.7-1
	c-0.1-0.1-0.3-0.1-0.5,0c-0.1,0.1-0.1,0.3,0,0.4c0.2,0.2,0.4,0.5,0.5,0.8c-0.1,0-0.1,0.1-0.2,0.1c-0.2,0.1-0.4,0.1-0.7,0.1
	c0.1-0.1,0.2-0.3,0.2-0.5c0-0.3-0.1-0.6-0.3-0.8c-0.2-0.2-0.6-0.3-0.9-0.2c0-0.3-0.1-0.5-0.3-0.6c-0.3-0.3-0.7-0.4-1.1-0.2l0,0
	c-0.1-0.3-0.3-0.5-0.5-0.6c-0.3-0.2-0.7-0.2-1-0.1c-0.2-0.2-0.5-0.3-0.8-0.3c-0.6,0-1.1,0.2-1.5,0.5c-2.1,1.1-4.9,2.4-5.9,2.8
	c-0.6-1.1-1.1-2.3-1.5-3.5c-0.1-0.3-0.2-0.7-0.3-1.1c3.1-0.3,5.6-0.7,7.4-1.1c1.3-0.2,2.6-0.6,3.7-1.2l0,0c0.5-0.5,1.2-0.7,1.9-0.7
	l0.6,0.1c-0.2,0.1-0.3,0.2-0.5,0.3c-0.3,0.2-0.5,0.3-0.6,0.5c-0.2,0.1-0.3,0.2-0.5,0.4c-0.2,0.1-0.3,0.2-0.5,0.3
	c-0.4,0.2-0.8,0.4-0.9,0.6l0,0c-0.1,0.3-0.1,0.6,0.1,0.9c0.3,0.3,0.8,0.5,1.3,0.4c0.5,0,1-0.2,1.5-0.5l0.4-0.3
	c0.1-0.1,0.3-0.2,0.5-0.3l0,0c0.4-0.1,0.9-0.1,1.3,0.1c0.5,0.2,0.9,0.4,1.3,0.7c0.7,0.5,1.4,1.1,1.9,1.8
	C26.2,43.8,26.2,43.9,26.1,44 M27.4,43.7L27.4,43.7c-0.2-0.2-0.5-0.4-0.6-0.6l0,0l0,0l0-0.1c-0.6-0.7-1.2-1.3-1.9-1.7
	c-0.7-0.4-1.9-1.2-3.1-0.9c-0.2,0.1-0.5,0.2-0.7,0.3L20.5,41c-0.4,0.2-0.8,0.3-1.2,0.4c-0.4,0-0.6,0-0.7-0.1s-0.1-0.2-0.1-0.2
	c0.2-0.1,0.4-0.2,0.5-0.3c0.2-0.1,0.4-0.2,0.6-0.3c0.2-0.1,0.4-0.3,0.5-0.4c0.1-0.1,0.3-0.3,0.6-0.5c0.4-0.2,0.9-0.3,1.4-0.3h0.5
	c0.7,0,1.5,0.2,2.1,0.5l0.9,0.3l0,0c0,0,1.2,0.4,2.9,0.8c1.8,0.4,3.6,0.7,5.5,0.9c-0.1,0.3-0.2,0.7-0.3,1c-0.4,1.3-0.9,2.5-1.5,3.6
	C30.6,45.7,28.9,44.8,27.4,43.7 M32,51.6c-0.6,0.6-1.4,1.1-2.3,1.3c-0.2,0-0.3,0.1-0.5,0c-0.1,0-0.2,0-0.3,0l0,0
	c0-0.7,0.2-1.5,0.8-2c0.2-0.2,0.4-0.4,0.6-0.5l0,0l0,0c0,0.4-0.1,0.7-0.3,1.1c0,0.1,0,0.2,0,0.2c0.1,0.1,0.2,0.1,0.2,0
	C30.7,51.5,31.3,51.4,32,51.6L32,51.6L32,51.6 M33.6,49.3c-0.3,0.4-0.6,0.7-1,1c-0.3,0.3-0.7,0.5-1.1,0.6C31.2,51,30.9,51,30.6,51
	h-0.1l0,0c0-0.7,0.2-1.4,0.6-2c0.1-0.2,0.3-0.4,0.5-0.6l0,0c0,0.4,0,0.8-0.1,1.2c0,0.1,0,0.2,0.2,0.3c0.1,0,0.1,0,0.2,0
	C32.3,49.5,32.9,49.3,33.6,49.3L33.6,49.3L33.6,49.3 M35,47c-0.2,0.4-0.5,0.8-0.9,1.1c-0.3,0.3-0.6,0.5-1,0.7
	c-0.3,0.1-0.6,0.2-0.9,0.2l0,0c-0.1-0.7,0-1.4,0.4-2c0.1-0.2,0.2-0.4,0.4-0.7l0,0c0.1,0.4,0.1,0.8,0,1.1c0,0.1,0,0.2,0.1,0.2
	c0.1,0,0.2,0,0.2,0C33.8,47.4,34.4,47.1,35,47L35,47L35,47 M36.1,44.5c-0.2,0.4-0.4,0.9-0.7,1.2c-0.3,0.3-0.6,0.6-0.9,0.8
	c-0.3,0.2-0.6,0.3-0.9,0.3l0,0c-0.2-0.7-0.1-1.4,0.1-2.1c0.1-0.2,0.2-0.4,0.3-0.7l0,0c0.1,0.4,0.2,0.8,0.2,1.1
	c0,0.1,0.1,0.2,0.2,0.2c0.1,0,0.2,0,0.2-0.1c0.4-0.4,0.8-0.7,1.3-0.9L36.1,44.5L36.1,44.5L36.1,44.5 M36.9,42
	c-0.1,0.5-0.3,0.9-0.6,1.3c-0.2,0.4-0.5,0.7-0.8,0.9c-0.3,0.2-0.6,0.3-0.9,0.4l0,0c-0.2-0.7-0.3-1.4-0.1-2.1
	c0.1-0.3,0.1-0.5,0.2-0.7l0,0c0.1,0.4,0.2,0.8,0.3,1.2c0,0.1,0.1,0.2,0.2,0.2c0.1,0,0.1,0,0.1-0.1C35.8,42.6,36.3,42.2,36.9,42
	L36.9,42L36.9,42 M37,40.7c-0.2,0.4-0.4,0.7-0.7,1c-0.2,0.2-0.5,0.4-0.8,0.5l0,0c-0.4-0.6-0.5-1.4-0.5-2.1c0-0.3,0.1-0.5,0.2-0.7
	l0,0c0.2,0.4,0.4,0.7,0.5,1.2c0,0.1,0.1,0.1,0.2,0.2c0.1,0,0.2,0,0.2-0.1c0.3-0.5,0.8-0.9,1.3-1.2l0,0l0,0
	C37.3,39.8,37.2,40.3,37,40.7 M37.4,38.1c-0.1,0.4-0.3,0.8-0.6,1.1c-0.2,0.2-0.5,0.5-0.7,0.6l0,0c-0.4-0.6-0.6-1.3-0.6-2
	c0-0.3,0-0.5,0.1-0.8l0,0c0.2,0.3,0.4,0.6,0.6,1c0,0.1,0.1,0.1,0.2,0.2c0.1,0,0.2,0,0.2-0.1c0.3-0.5,0.6-1,1.1-1.4l0,0l0,0
	C37.6,37.2,37.5,37.6,37.4,38.1"/>
<path class="st6" d="M31.9,51.5c-0.6-0.1-1.2,0-1.8,0.2c-0.1,0-0.2,0-0.2,0c0-0.1,0-0.2,0-0.2c0.1-0.4,0.2-0.7,0.3-1.1l0,0l0,0
	c-0.2,0.2-0.4,0.4-0.6,0.5c-0.5,0.5-0.8,1.3-0.8,2l0,0c0.1,0,0.2,0,0.3,0c0.2,0,0.3,0,0.5,0C30.6,52.6,31.4,52.2,31.9,51.5
	L31.9,51.5L31.9,51.5"/>
<path class="st6" d="M11.3,50.3L11.3,50.3c0,0.4,0.1,0.8,0.3,1.1c0,0.1,0,0.2-0.1,0.3c-0.1,0-0.1,0-0.2,0c-0.6-0.2-1.2-0.3-1.8-0.2
	l0,0l0,0c0.6,0.6,1.4,1.1,2.3,1.3c0.2,0,0.3,0.1,0.5,0c0.1,0,0.2,0,0.3,0l0,0C12.6,51.8,12.2,50.9,11.3,50.3"/>
<path class="st6" d="M33.6,49.3c-0.6,0-1.2,0.2-1.7,0.6c-0.1,0-0.2,0-0.2,0c-0.1-0.1-0.1-0.1-0.1-0.2c0.1-0.4,0.1-0.8,0.1-1.2l0,0
	c-0.2,0.2-0.3,0.4-0.5,0.6c-0.4,0.6-0.6,1.3-0.6,2l0,0h0.1c0.3,0,0.6,0,0.9-0.1c0.4-0.1,0.8-0.3,1.1-0.6
	C33,50.1,33.4,49.7,33.6,49.3L33.6,49.3L33.6,49.3"/>
<path class="st6" d="M35,47c-0.6,0.1-1.2,0.4-1.6,0.7c-0.1,0.1-0.2,0.1-0.3,0c0,0-0.1-0.1-0.1-0.2c0-0.4,0-0.8-0.1-1.2l0,0
	c-0.1,0.2-0.3,0.4-0.4,0.7c-0.3,0.6-0.5,1.3-0.4,2l0,0c0.3,0,0.6-0.1,0.9-0.2c0.4-0.2,0.7-0.4,1-0.7C34.5,47.8,34.8,47.4,35,47
	L35,47L35,47"/>
<path class="st6" d="M36.1,44.5l-0.2,0.1c-0.5,0.2-0.9,0.5-1.3,0.9c-0.1,0.1-0.2,0.1-0.2,0.1c-0.1,0-0.1-0.1-0.2-0.2
	c0-0.4-0.1-0.8-0.2-1.1l0,0c-0.1,0.2-0.2,0.4-0.3,0.7c-0.3,0.7-0.3,1.4-0.1,2.1l0,0c0.3-0.1,0.6-0.2,0.9-0.3
	c0.4-0.2,0.7-0.5,0.9-0.8C35.7,45.4,35.9,45,36.1,44.5L36.1,44.5L36.1,44.5"/>
<path class="st6" d="M36.8,42c-0.6,0.2-1.1,0.6-1.4,1.1c-0.1,0.1-0.1,0.1-0.2,0.1c-0.1,0-0.2-0.1-0.2-0.1c-0.1-0.4-0.2-0.8-0.3-1.2
	l0,0c-0.1,0.2-0.2,0.5-0.2,0.7c-0.2,0.7-0.2,1.4,0.1,2.1l0,0c0.3-0.1,0.6-0.2,0.9-0.4c0.3-0.3,0.6-0.6,0.9-0.9
	C36.5,42.9,36.7,42.5,36.8,42L36.8,42L36.8,42"/>
<path class="st6" d="M37.4,39.3c-0.5,0.3-1,0.7-1.3,1.2c-0.1,0.1-0.2,0.1-0.3,0.1c0,0-0.1-0.1-0.1-0.1c-0.1-0.4-0.3-0.8-0.5-1.2l0,0
	c-0.1,0.2-0.1,0.5-0.2,0.8c-0.1,0.7,0,1.5,0.4,2.1l0,0c0.3-0.1,0.6-0.3,0.8-0.5c0.3-0.3,0.6-0.6,0.7-1
	C37.2,40.3,37.3,39.8,37.4,39.3L37.4,39.3L37.4,39.3"/>
<path class="st6" d="M36.5,38.1c0,0.1-0.2,0.2-0.3,0.1c-0.1,0-0.1-0.1-0.1-0.1c-0.1-0.4-0.3-0.7-0.6-1l0,0c0,0.3-0.1,0.5-0.1,0.8
	c0,0.7,0.2,1.4,0.6,2l0,0c0.3-0.2,0.5-0.4,0.7-0.6c0.3-0.3,0.5-0.7,0.6-1.1c0.2-0.4,0.3-0.9,0.3-1.4l0,0l0,0
	C37.1,37.1,36.8,37.6,36.5,38.1"/>
<path class="st6" d="M36.4,35.7c-0.1,0-0.2,0-0.2-0.1c-0.2-0.3-0.4-0.7-0.7-1l0,0c-0.1,1,0.2,1.9,0.8,2.7l0,0
	c0.3-0.2,0.5-0.4,0.7-0.7c0.2-0.3,0.4-0.7,0.5-1.1c0.1-0.5,0.2-0.9,0.1-1.4l0,0c-0.5,0.4-0.8,0.9-1,1.5
	C36.6,35.6,36.5,35.6,36.4,35.7"/>
<path class="st6" d="M36.2,33.1c-0.1,0-0.2,0-0.2-0.1c-0.2-0.3-0.4-0.6-0.7-0.9l0,0c0,1,0.4,1.9,1,2.6l0,0c0.2-0.2,0.5-0.5,0.6-0.8
	c0.2-0.4,0.3-0.8,0.4-1.2c0.1-0.5,0.1-0.9,0-1.4l0,0c-0.4,0.4-0.7,1-0.8,1.6C36.4,33,36.3,33.1,36.2,33.1"/>
<path class="st6" d="M35.9,30.6c-0.1,0-0.2,0-0.2-0.1c-0.2-0.3-0.5-0.6-0.8-0.8l0,0c0,0.3,0.1,0.5,0.1,0.8c0.1,0.7,0.5,1.3,1,1.8
	l0,0c0.2-0.2,0.4-0.5,0.6-0.8c0.2-0.4,0.3-0.8,0.3-1.2c0-0.5,0-0.9-0.1-1.4l0,0c-0.4,0.5-0.7,1-0.8,1.6C36.1,30.5,36,30.5,35.9,30.6
	"/>
<path class="st6" d="M35.3,28.1c-0.1,0-0.2,0-0.2-0.1c-0.3-0.3-0.6-0.5-0.9-0.7l0,0l0,0c0.1,0.2,0.1,0.5,0.2,0.7
	c0.2,0.7,0.7,1.3,1.3,1.6l0,0c0.2-0.2,0.4-0.5,0.5-0.8c0.1-0.4,0.2-0.8,0.2-1.2c0-0.5-0.1-0.9-0.3-1.4l0,0c-0.3,0.5-0.5,1.1-0.5,1.7
	C35.5,28,35.5,28.1,35.3,28.1"/>
<path class="st6" d="M34.2,25.6c-0.3-0.3-0.6-0.5-1-0.6l0,0l0,0c0.1,0.2,0.2,0.5,0.3,0.7c0.3,0.7,0.8,1.2,1.5,1.5l0,0
	c0.2-0.3,0.3-0.6,0.4-0.9c0.1-0.4,0.1-0.8,0-1.2c-0.1-0.5-0.2-0.9-0.4-1.4l0,0c-0.3,0.5-0.4,1.1-0.4,1.7c0,0.1-0.1,0.2-0.2,0.2
	C34.3,25.7,34.3,25.7,34.2,25.6"/>
<path class="st6" d="M32.1,22.8L32.1,22.8c0.1,0.2,0.2,0.5,0.4,0.7c0.4,0.6,1,1.1,1.7,1.4l0,0c0.1-0.3,0.2-0.6,0.3-0.9
	c0-0.4,0-0.8-0.1-1.2c-0.1-0.5-0.3-0.9-0.6-1.3l0,0c-0.2,0.6-0.3,1.2-0.2,1.8c0,0.1-0.1,0.2-0.2,0.3c-0.1,0-0.1,0-0.2,0
	C32.8,23.1,32.5,22.9,32.1,22.8L32.1,22.8"/>
<path class="st6" d="M30.6,20.9L30.6,20.9c0.2,0.2,0.3,0.4,0.5,0.6c0.5,0.5,1.1,0.9,1.8,1.1l0,0c0.1-0.3,0.1-0.6,0.1-0.9
	c0-0.4-0.1-0.8-0.3-1.2c-0.2-0.4-0.4-0.8-0.7-1.2l0,0c-0.1,0.6-0.1,1.2,0.1,1.7c0,0.1,0,0.2-0.1,0.3c-0.1,0-0.1,0-0.2,0
	C31.4,21,31,20.9,30.6,20.9L30.6,20.9"/>
<path class="st6" d="M30.3,19.3c-0.1,0.1-0.2,0.1-0.2,0.1c-0.3-0.1-0.7-0.2-1.1-0.2h-0.1l0,0c0.2,0.2,0.4,0.4,0.6,0.6
	c0.5,0.4,1.2,0.7,1.9,0.7h0c0-0.3,0-0.7-0.1-1c-0.1-0.4-0.3-0.8-0.5-1.1c-0.3-0.4-0.6-0.7-0.9-1l0,0c0,0.6,0.1,1.2,0.4,1.7
	C30.4,19.1,30.4,19.2,30.3,19.3"/>
<path class="st6" d="M10.8,51.1h0.1l0,0c0-1-0.4-1.9-1.1-2.6l0,0c0,0.4,0,0.8,0.1,1.1c0,0.1,0,0.2-0.1,0.2c-0.1,0.1-0.2,0.1-0.2,0
	c-0.5-0.3-1.1-0.5-1.7-0.6l0,0l0,0c0.3,0.4,0.6,0.7,1,1c0.3,0.3,0.7,0.5,1.1,0.6C10.3,51,10.6,51,10.8,51.1"/>
<path class="st6" d="M9.3,49.1L9.3,49.1c0.1-0.7,0-1.4-0.4-2c-0.1-0.2-0.2-0.4-0.4-0.7l0,0c-0.1,0.4-0.1,0.8-0.1,1.1
	c0,0.1,0,0.2-0.1,0.2c-0.1,0-0.2,0-0.2,0c-0.5-0.4-1-0.7-1.6-0.8l0,0l0,0c0.2,0.4,0.5,0.8,0.9,1.1c0.3,0.3,0.6,0.5,1,0.7
	C8.7,49,9,49,9.3,49.1"/>
<path class="st6" d="M8,47L8,47c0.2-0.7,0.2-1.4-0.1-2.1c-0.1-0.2-0.2-0.5-0.3-0.7l0,0c-0.1,0.4-0.2,0.8-0.2,1.2
	c0,0.1-0.1,0.2-0.2,0.2c0,0-0.1,0-0.1-0.1c-0.4-0.4-0.8-0.7-1.3-0.8l-0.2-0.1l0,0l0,0c0.2,0.4,0.4,0.8,0.7,1.2
	c0.3,0.3,0.6,0.6,0.9,0.8C7.4,46.8,7.7,46.9,8,47"/>
<path class="st6" d="M6.9,44.7L6.9,44.7c0.4-0.9,0.3-1.9-0.1-2.8l0,0c-0.2,0.4-0.3,0.7-0.3,1.1c0,0.1-0.1,0.2-0.2,0.2
	c-0.1,0-0.2,0-0.3-0.1c-0.3-0.4-0.7-0.8-1.2-1L4.6,42l0,0l0,0C4.9,43.2,5.7,44.2,6.9,44.7"/>
<path class="st6" d="M5.2,41.8C5.5,42,5.7,42.2,6,42.3l0,0c0.4-0.6,0.5-1.4,0.4-2.2c-0.1-0.2-0.1-0.5-0.2-0.7l0,0
	c-0.2,0.4-0.4,0.7-0.4,1.2l0,0c0,0.1-0.1,0.2-0.3,0.2c-0.1,0-0.1,0-0.1-0.1C5,40.2,4.5,39.7,4,39.5l0,0l0,0c0.1,0.5,0.3,0.9,0.5,1.3
	C4.7,41.2,4.9,41.5,5.2,41.8"/>
<path class="st6" d="M5.4,39.9L5.4,39.9C6,39.1,6.2,38.1,6,37.1l0,0c-0.3,0.3-0.5,0.6-0.6,1c0,0.1-0.1,0.1-0.2,0.1l0,0
	c-0.1,0-0.2-0.1-0.2-0.1c-0.2-0.5-0.6-0.9-1-1.2l-0.2-0.2l0,0C3.7,38,4.3,39.2,5.4,39.9"/>
<path class="st6" d="M5.2,37.4L5.2,37.4c0.4-0.4,0.7-0.9,0.8-1.5C6,35.4,6,35,5.9,34.6l0,0c-0.3,0.3-0.5,0.6-0.6,1
	c0,0.1-0.1,0.2-0.3,0.2c-0.1,0-0.2-0.1-0.2-0.2c-0.2-0.5-0.4-1-0.8-1.3L4,34.1l0,0C3.8,35.3,4.3,36.5,5.2,37.4"/>
<path class="st6" d="M4.6,34c0.2,0.3,0.4,0.5,0.6,0.7l0,0c0.5-0.5,0.8-1.2,0.9-1.9c0-0.3,0.1-0.5,0.1-0.8l0,0l0,0
	c-0.3,0.3-0.5,0.6-0.7,0.9c0,0.1-0.1,0.1-0.2,0.1C5.1,33.1,5,33,5,32.9c-0.1-0.6-0.4-1.1-0.8-1.6l0,0c-0.1,0.5-0.1,0.9,0,1.4
	C4.2,33.2,4.3,33.6,4.6,34"/>
<path class="st6" d="M4.8,31.4c0.1,0.3,0.3,0.5,0.6,0.8l0,0c0.6-0.5,0.9-1.1,1.1-1.9c0-0.2,0.1-0.5,0.1-0.7l0,0
	c-0.3,0.3-0.6,0.5-0.8,0.9c-0.1,0.1-0.1,0.1-0.2,0.1c-0.1,0-0.2-0.1-0.2-0.2c-0.1-0.6-0.4-1.1-0.8-1.6l0,0c-0.1,0.5-0.1,0.9-0.1,1.4
	C4.6,30.6,4.7,31,4.8,31.4"/>
<path class="st6" d="M5.7,29.6L5.7,29.6c0.7-0.4,1.1-1,1.4-1.7c0.1-0.2,0.1-0.5,0.2-0.7l0,0c-0.4,0.2-0.7,0.5-0.9,0.8
	c-0.1,0.1-0.2,0.1-0.3,0c0,0-0.1-0.1-0.1-0.2c0-0.6-0.2-1.2-0.6-1.7l0,0c-0.1,0.5-0.2,0.9-0.2,1.4c0,0.4,0,0.8,0.2,1.2
	C5.4,29.1,5.5,29.4,5.7,29.6"/>
<path class="st6" d="M6.4,27.2L6.4,27.2c0.7-0.3,1.3-0.9,1.6-1.6c0.1-0.2,0.1-0.4,0.2-0.6l0,0l0,0c-0.4,0.2-0.7,0.4-1,0.6
	c-0.1,0.1-0.2,0.1-0.3,0c0,0-0.1-0.1-0.1-0.2c0-0.6-0.1-1.2-0.3-1.7l0,0c-0.2,0.4-0.4,0.9-0.5,1.3c-0.1,0.4-0.1,0.8,0,1.2
	C6.1,26.6,6.2,26.9,6.4,27.2"/>
<path class="st6" d="M7.3,24.9L7.3,24.9C8,24.6,8.6,24.2,9,23.6c0.2-0.2,0.3-0.5,0.4-0.7l0,0l0,0C9,23,8.7,23.1,8.4,23.4
	c-0.1,0.1-0.2,0.1-0.3,0C8,23.4,8,23.3,8,23.2c0.1-0.6,0.1-1.2-0.1-1.8l0,0c-0.3,0.4-0.5,0.8-0.6,1.3c-0.1,0.4-0.2,0.8-0.2,1.2
	C7.1,24.3,7.2,24.6,7.3,24.9"/>
<path class="st6" d="M8.6,22.6L8.6,22.6c0.9-0.3,1.8-0.9,2.3-1.7l0,0l0,0c-0.4,0-0.8,0.2-1.1,0.4c-0.1,0.1-0.2,0.1-0.3,0
	c-0.1-0.1-0.1-0.2,0-0.3l0,0c0.2-0.6,0.2-1.2,0.1-1.8l0,0C8.6,20.1,8.3,21.4,8.6,22.6L8.6,22.6"/>
<path class="st6" d="M10.1,20.5L10.1,20.5c0.7-0.1,1.3-0.3,1.8-0.8c0.2-0.2,0.4-0.4,0.6-0.6l0,0l0,0c-0.4,0-0.8,0.1-1.1,0.2
	c-0.1,0-0.2,0-0.3-0.1c0-0.1,0-0.1,0-0.2c0.3-0.5,0.4-1.1,0.4-1.7l0,0c-0.4,0.3-0.7,0.7-0.9,1.1c-0.2,0.3-0.4,0.7-0.5,1.1
	C10.1,19.9,10.1,20.2,10.1,20.5L10.1,20.5"/>
<path class="st6" d="M14.5,17.7c-0.4,0-0.8,0-1.1,0.1c-0.1,0-0.2,0-0.3-0.2c0-0.1,0-0.1,0-0.2c0.3-0.5,0.5-1.1,0.6-1.7l0,0
	c-1.1,0.6-1.8,1.8-1.8,3H12C12.9,18.7,13.8,18.3,14.5,17.7L14.5,17.7L14.5,17.7"/>
<path class="st6" d="M16.7,16.6c-0.2-0.1-0.4-0.1-0.6-0.1c-0.2,0-0.4,0-0.6,0c-0.1,0-0.2-0.1-0.2-0.2c0-0.1,0-0.1,0.1-0.2
	c0.4-0.3,0.8-0.8,1-1.3l0,0l0,0c-2,0.7-2.4,1.8-2.5,2.3l0,0c0.3,0.1,0.5,0.1,0.8,0.1c0.5,0,0.9-0.1,1.3-0.2
	C16.2,16.9,16.5,16.8,16.7,16.6L16.7,16.6L16.7,16.6"/>
<path class="st6" d="M19,16c-0.4-0.2-0.7-0.3-1.1-0.4c-0.1,0-0.2-0.1-0.2-0.3c0-0.1,0.1-0.1,0.1-0.2c0.4-0.2,0.8-0.5,1.2-0.9l0,0
	l0,0c-0.9,0.1-1.7,0.4-2.3,1c-0.2,0.2-0.4,0.4-0.5,0.7l0,0c0.4,0.2,0.9,0.3,1.3,0.3c0.3,0,0.5,0,0.8-0.1C18.5,16.2,18.8,16.1,19,16
	L19,16"/>
<path class="st6" d="M20.6,15.4c-0.1,0-0.2-0.2-0.1-0.3c0-0.1,0.1-0.1,0.1-0.1c0.5-0.1,0.9-0.3,1.3-0.6l0,0l0,0
	c-0.8-0.1-1.7,0.1-2.4,0.5c-0.2,0.1-0.4,0.3-0.6,0.6l0,0c0.6,0.4,1.4,0.7,2.2,0.6c0.2,0,0.4,0,0.5,0l0,0l0,0
	C21.2,15.8,20.9,15.6,20.6,15.4"/>
<path class="st6" d="M23.2,15.5c-0.1-0.1-0.1-0.1-0.1-0.2c0-0.1,0.1-0.2,0.2-0.2c0.5,0,0.9-0.2,1.3-0.4l0,0l0,0
	c-0.8-0.3-1.7-0.3-2.5,0c-0.3,0.1-0.5,0.2-0.7,0.4l0,0c0.7,0.7,1.6,1.1,2.5,1.2l0,0l0,0C23.7,16.1,23.4,15.8,23.2,15.5"/>
<path class="st6" d="M29.6,18.8L29.6,18.8c0-0.4-0.1-0.7-0.2-1.1c-0.3-0.8-1-1.4-1.8-1.6l0,0l0,0c0.2,0.5,0.4,0.9,0.7,1.3
	c0.1,0.1,0.1,0.2,0,0.3c-0.1,0-0.1,0.1-0.2,0c-0.4-0.1-0.8-0.1-1.1,0l0,0l0,0c0.7,0.5,1.6,0.9,2.5,1H29.6"/>
<path class="st6" d="M27.6,17.1L27.6,17.1c-0.5-0.5-1.2-0.8-1.9-0.7c-0.3,0-0.5,0.1-0.8,0.1l0,0l0,0c0.5,0.4,1.2,0.7,1.9,0.7h0.1
	C27.1,17.3,27.3,17.2,27.6,17.1L27.6,17.1"/>
<path class="st6" d="M23.9,15.6L23.9,15.6c0.4,0.3,0.9,0.4,1.4,0.4c0.2,0,0.5,0,0.7-0.1c0.3-0.1,0.7-0.2,1-0.3l0,0l0,0
	c-0.3-0.2-0.7-0.3-1.1-0.4c-0.4-0.1-0.8-0.1-1.2,0C24.4,15.3,24.2,15.4,23.9,15.6L23.9,15.6"/>
<path class="st2" d="M22,56.6c0-0.1,0-0.2,0-0.3c0-0.1,0-0.2,0-0.3c0.6-0.1,1.2-0.4,1.6-0.8c0.2-0.3,0.3-0.6,0.3-1
	c0-0.3-0.2-0.6-0.5-0.8c-0.8-0.5-2.3-0.1-2.7,0c-0.4-0.1-1.9-0.5-2.7,0c-0.3,0.2-0.5,0.5-0.5,0.8c0,0.4,0.1,0.7,0.3,1
	c0.4,0.4,1,0.7,1.6,0.8c0,0.1,0,0.2,0,0.3c0,0.1,0,0.2,0,0.3c-0.8,0.8-1.9,1.3-3,1.5c0.1,0.2,0.3,0.4,0.5,0.5c1.1-0.2,2-0.7,2.8-1.5
	l0.1,0.1c-0.3,1-1.2,1.7-2.2,1.8c0.3,0.1,0.7,0.2,1,0.3c0.8-0.3,1.5-1,1.8-1.8h0.2h0.2c0.3,0.8,0.9,1.5,1.8,1.8
	c0.3-0.1,0.7-0.1,1-0.3c-1-0.1-1.9-0.8-2.2-1.8l0.1-0.1c0.8,0.7,1.8,1.2,2.8,1.4c0.2-0.1,0.4-0.3,0.6-0.5C23.9,58,22.8,57.4,22,56.6
	"/>
<path class="st3" d="M23.1,53.9c0.1,0.1,0.2,0.2,0.2,0.4c0,0.2,0,0.4-0.2,0.6c-0.2,0.2-0.5,0.4-0.8,0.5c0.1-0.3,0.2-0.6,0.1-0.9
	c-0.1-0.3-0.3-0.5-0.5-0.7C22.3,53.7,22.7,53.7,23.1,53.9"/>
<path class="st3" d="M19.6,54.6c0.2-0.6,1.1-0.6,1.1-0.6c0.2,0,0.3,0,0.5,0.1c0.3,0.1,0.5,0.3,0.6,0.5c0.1,0.3,0,0.6-0.3,0.8
	C21.4,55.1,21,55,20.7,55c-0.3,0-0.6,0.1-0.9,0.3C19.6,55.2,19.5,54.9,19.6,54.6"/>
<path class="st3" d="M19.1,55.3c-0.3-0.1-0.6-0.3-0.8-0.5c-0.1-0.2-0.2-0.4-0.2-0.6c0-0.1,0.1-0.3,0.2-0.4c0.2-0.1,0.5-0.2,0.8-0.2
	h0.4c-0.2,0.2-0.4,0.4-0.5,0.7C18.9,54.7,19,55,19.1,55.3"/>
<path class="st3" d="M20,56.3c0-0.4,0.3-0.7,0.7-0.7s0.7,0.3,0.7,0.7c0,0.4-0.3,0.7-0.7,0.7l0,0C20.3,57,20,56.7,20,56.3"/>
<path class="st3" d="M24.5,58.7c-1.1-0.2-2-0.7-2.8-1.4l-0.1,0.1c0.3,1,1.2,1.7,2.2,1.8C24,59,24.3,58.9,24.5,58.7"/>
<path class="st3" d="M19.8,57.2c-0.8,0.7-1.8,1.2-2.8,1.5c0.2,0.2,0.5,0.4,0.8,0.5c1-0.1,1.9-0.8,2.2-1.8L19.8,57.2"/>
</svg>
