<?xml version="1.0" encoding="utf-8"?>
<!-- Generator: Adobe Illustrator 17.0.0, SVG Export Plug-In . SVG Version: 6.00 Build 0)  -->
<!DOCTYPE svg PUBLIC "-//W3C//DTD SVG 1.1//EN" "http://www.w3.org/Graphics/SVG/1.1/DTD/svg11.dtd">
<svg version="1.1" id="Layer_1" xmlns="http://www.w3.org/2000/svg" xmlns:xlink="http://www.w3.org/1999/xlink" x="0px" y="0px"
	 width="320px" height="55px" viewBox="0 0 320 55" enable-background="new 0 0 320 55" xml:space="preserve">
<g>
	<g>
		<path fill="#FFFFFF" d="M12.179,54.484c-0.671,0-1.217-0.546-1.217-1.217V23.664H1.854c-0.671,0-1.217-0.546-1.217-1.217v-5.02
			c0-0.671,0.546-1.217,1.217-1.217h26.468c0.671,0,1.217,0.546,1.217,1.217v5.02c0,0.671-0.546,1.217-1.217,1.217h-9.159v29.603
			c0,0.671-0.546,1.217-1.217,1.217H12.179z"/>
		<path fill="#FFFFFF" d="M34.612,54.484c-0.671,0-1.217-0.546-1.217-1.217V17.427c0-0.671,0.546-1.217,1.217-1.217h22.323
			c0.671,0,1.217,0.546,1.217,1.217v5.02c0,0.671-0.546,1.217-1.217,1.217H41.519v8.175h10.96c0.671,0,1.217,0.546,1.217,1.217
			v4.917c0,0.671-0.546,1.217-1.217,1.217h-10.96v7.866h15.509c0.671,0,1.217,0.546,1.217,1.217v4.995
			c0,0.671-0.546,1.217-1.217,1.217H34.612z"/>
		<path fill="#FFFFFF" d="M79.388,54.871c-2.087,0-4.115-0.265-6.029-0.787c-1.922-0.524-3.72-1.339-5.345-2.423
			c-1.624-1.083-3.055-2.399-4.251-3.91c-1.2-1.515-2.154-3.347-2.836-5.443c-0.68-2.091-1.024-4.394-1.024-6.846
			c0-2.172,0.274-4.266,0.813-6.223c0.541-1.965,1.37-3.785,2.462-5.41c1.092-1.624,2.42-3.054,3.949-4.251
			c1.533-1.2,3.369-2.145,5.457-2.809c2.081-0.662,4.37-0.997,6.805-0.997c1.796,0,3.591,0.248,5.336,0.736
			c1.747,0.489,3.512,1.302,5.247,2.418c1.504,0.968,2.88,2.154,4.089,3.527c0.222,0.252,0.331,0.573,0.307,0.906
			c-0.023,0.326-0.173,0.623-0.422,0.835l-4.212,3.593c-0.22,0.188-0.501,0.291-0.789,0.291c-0.336,0-0.658-0.141-0.886-0.386
			c-1.026-1.108-2.24-2.042-3.609-2.776c-1.581-0.848-3.283-1.278-5.061-1.278c-0.894,0-1.766,0.092-2.591,0.274
			c-0.823,0.181-1.607,0.452-2.329,0.805c-0.724,0.354-1.403,0.787-2.021,1.289c-0.613,0.499-1.17,1.084-1.655,1.741
			c-0.487,0.66-0.909,1.392-1.256,2.176c-0.347,0.784-0.615,1.652-0.797,2.579c-0.183,0.931-0.276,1.927-0.276,2.96
			c0,2.223,0.465,4.239,1.382,5.991c0.913,1.744,2.213,3.123,3.864,4.1c1.653,0.979,3.563,1.476,5.677,1.476
			c1.797,0,3.509-0.418,5.091-1.241c1.363-0.71,2.566-1.64,3.575-2.763c0.228-0.254,0.556-0.4,0.898-0.4
			c0.29,0,0.571,0.104,0.792,0.294l4.206,3.608c0.248,0.213,0.397,0.509,0.421,0.835c0.024,0.329-0.083,0.647-0.301,0.897
			c-1.645,1.884-3.656,3.439-5.976,4.622C85.508,54.202,82.579,54.871,79.388,54.871z"/>
		<path fill="#FFFFFF" d="M123.353,54.484c-0.409,0-0.788-0.203-1.014-0.544l-15.597-23.494v22.82c0,0.671-0.546,1.217-1.217,1.217
			h-5.767c-0.671,0-1.217-0.546-1.217-1.217V17.427c0-0.671,0.546-1.217,1.217-1.217h6.141c0.411,0,0.791,0.205,1.016,0.548
			l15.777,23.97V17.427c0-0.671,0.546-1.217,1.217-1.217h5.793c0.671,0,1.217,0.546,1.217,1.217v35.841
			c0,0.671-0.546,1.217-1.217,1.217H123.353z"/>
		<path fill="#FFFFFF" d="M154.692,54.922c-2.85,0-5.525-0.495-7.951-1.471c-2.43-0.978-4.522-2.347-6.217-4.07
			c-1.695-1.722-3.039-3.816-3.994-6.224c-0.954-2.405-1.439-5.037-1.439-7.822s0.484-5.417,1.439-7.822
			c0.955-2.408,2.299-4.498,3.995-6.212s3.791-3.079,6.23-4.056c2.434-0.976,5.105-1.471,7.938-1.471
			c2.781,0,5.403,0.482,7.794,1.432c2.394,0.951,4.48,2.289,6.201,3.975c1.722,1.688,3.094,3.774,4.076,6.201
			c0.981,2.423,1.479,5.099,1.479,7.954c0,2.854-0.497,5.534-1.478,7.966c-0.982,2.435-2.353,4.526-4.076,6.215
			c-1.721,1.687-3.808,3.024-6.201,3.975C160.095,54.44,157.473,54.922,154.692,54.922z M154.718,23.51
			c-2.12,0-4.051,0.53-5.737,1.574c-1.687,1.046-3.009,2.482-3.927,4.269c-0.923,1.796-1.391,3.809-1.391,5.981
			c0,2.19,0.468,4.211,1.391,6.007c0.919,1.788,2.24,3.229,3.929,4.283c1.686,1.052,3.615,1.586,5.735,1.586
			c1.539,0,3.002-0.304,4.349-0.905c1.35-0.601,2.524-1.428,3.491-2.456c0.968-1.029,1.74-2.297,2.296-3.767
			c0.558-1.475,0.84-3.073,0.84-4.749c0-2.239-0.485-4.289-1.44-6.093c-0.952-1.797-2.277-3.217-3.939-4.22
			C158.655,24.019,156.772,23.51,154.718,23.51z"/>
		<path fill="#FFFFFF" d="M228.515,54.922c-2.851,0-5.526-0.495-7.951-1.471c-2.429-0.978-4.521-2.343-6.216-4.056
			c-1.695-1.713-3.039-3.808-3.995-6.226c-0.954-2.414-1.438-5.05-1.438-7.835s0.484-5.417,1.438-7.822
			c0.956-2.409,2.3-4.499,3.995-6.212c1.695-1.714,3.791-3.079,6.23-4.056c2.434-0.976,5.105-1.471,7.938-1.471
			c2.78,0,5.403,0.482,7.794,1.432c2.394,0.951,4.48,2.289,6.201,3.975c1.722,1.688,3.094,3.774,4.076,6.201
			c0.981,2.423,1.479,5.099,1.479,7.954c0,2.854-0.497,5.534-1.478,7.966c-0.982,2.435-2.354,4.526-4.076,6.215
			c-1.721,1.687-3.808,3.024-6.201,3.975C233.918,54.44,231.296,54.922,228.515,54.922z M228.541,23.51
			c-2.12,0-4.05,0.53-5.736,1.574c-1.687,1.046-3.009,2.482-3.927,4.269c-0.923,1.796-1.391,3.808-1.391,5.981
			c0,2.19,0.468,4.211,1.391,6.007c0.919,1.788,2.241,3.229,3.929,4.283c1.686,1.052,3.615,1.586,5.735,1.586
			c1.54,0,3.004-0.3,4.351-0.893c1.348-0.593,2.522-1.418,3.489-2.454c0.968-1.038,1.741-2.309,2.297-3.78
			c0.558-1.475,0.841-3.073,0.841-4.749c0-2.239-0.485-4.289-1.441-6.093c-0.952-1.797-2.277-3.216-3.939-4.22
			C232.478,24.019,230.594,23.51,228.541,23.51z"/>
		<path fill="#FFFFFF" d="M253.137,54.484c-0.671,0-1.217-0.546-1.217-1.217V17.427c0-0.671,0.546-1.217,1.217-1.217h5.793
			c0.671,0,1.217,0.546,1.217,1.217v29.629h15.442c0.671,0,1.217,0.546,1.217,1.217v4.995c0,0.671-0.546,1.217-1.217,1.217H253.137z
			"/>
		<path fill="#FFFFFF" d="M288.32,17.427v35.841c0,0.671-0.546,1.217-1.217,1.217h-5.793c-0.671,0-1.217-0.546-1.217-1.217V17.427
			c0-0.671,0.546-1.217,1.217-1.217h5.793C287.774,16.21,288.32,16.756,288.32,17.427z"/>
		<path fill="#FFFFFF" d="M305.697,54.922c-2.531,0-5.022-0.504-7.404-1.499c-2.169-0.906-4.189-2.249-6.001-3.992
			c-0.448-0.43-0.488-1.15-0.092-1.637l3.402-4.189c0.232-0.285,0.575-0.448,0.942-0.448c0.33,0,0.638,0.13,0.869,0.366
			c0.493,0.503,1.019,0.966,1.563,1.375c0.773,0.582,1.555,1.061,2.324,1.425c0.769,0.364,1.544,0.64,2.303,0.822
			c0.754,0.181,1.502,0.272,2.223,0.272c1.108,0,2.055-0.163,2.816-0.483c0.738-0.311,1.289-0.729,1.637-1.244
			c0.347-0.512,0.522-1.129,0.522-1.832c0-0.495-0.077-0.938-0.228-1.317c-0.153-0.382-0.365-0.721-0.63-1.009
			c-0.27-0.293-0.677-0.591-1.211-0.886c-0.559-0.308-1.146-0.587-1.745-0.828c-0.604-0.243-1.419-0.54-2.425-0.881
			c-0.909-0.326-1.727-0.63-2.437-0.908c-0.711-0.277-1.495-0.634-2.329-1.059c-0.837-0.427-1.572-0.862-2.185-1.291
			c-0.616-0.431-1.236-0.957-1.844-1.564c-0.617-0.617-1.124-1.28-1.509-1.969c-0.384-0.687-0.7-1.489-0.939-2.384
			c-0.24-0.897-0.362-1.864-0.362-2.873c0-2.045,0.559-3.938,1.662-5.629c1.098-1.683,2.615-3.025,4.507-3.989
			c1.884-0.959,3.988-1.463,6.254-1.499l0.222-0.001c4.281,0,8.327,1.447,12.026,4.301c0.524,0.404,0.62,1.165,0.213,1.696
			l-3.29,4.3c-0.229,0.299-0.591,0.478-0.968,0.478c-0.268,0-0.522-0.086-0.735-0.25c-2.669-2.054-5.119-3.096-7.282-3.096
			c-1.221,0-2.222,0.308-2.977,0.915c-0.74,0.595-1.108,1.395-1.123,2.445c0,0.397,0.074,0.765,0.221,1.088
			c0.152,0.333,0.359,0.637,0.617,0.903c0.262,0.27,0.668,0.557,1.205,0.854c0.561,0.31,1.13,0.59,1.69,0.832
			c0.567,0.246,1.346,0.56,2.315,0.934c3.173,1.238,5.218,2.113,6.253,2.674c2.408,1.31,4.036,2.963,4.842,4.913
			c0.499,1.211,0.752,2.632,0.752,4.223c0,1.624-0.278,3.135-0.828,4.491c-0.551,1.358-1.292,2.504-2.202,3.405
			c-0.9,0.891-1.959,1.66-3.148,2.285c-1.185,0.623-2.419,1.078-3.668,1.351C308.275,54.785,306.99,54.922,305.697,54.922z"/>
		<path fill="#FFFFFF" d="M146.936,12.596c-0.466,0-0.884-0.259-1.091-0.677l-1.892-3.824c-0.149-0.301-0.167-0.653-0.049-0.967
			c0.118-0.314,0.363-0.568,0.673-0.697l15.102-6.26c0.149-0.062,0.306-0.093,0.466-0.093c0.502,0,0.946,0.302,1.131,0.768
			l2.115,5.328c0.125,0.314,0.112,0.669-0.033,0.974c-0.146,0.305-0.414,0.537-0.737,0.637l-15.325,4.756
			C147.179,12.577,147.058,12.596,146.936,12.596L146.936,12.596z"/>
	</g>
	<g>
		<path fill="#FFFFFF" d="M179.656,54.922c-0.671,0-1.217-0.546-1.217-1.217V17.865c0-0.671,0.546-1.217,1.217-1.217h13.041
			c2.251,0,4.269,0.32,5.997,0.951c1.745,0.638,3.172,1.558,4.242,2.734c1.062,1.169,1.87,2.541,2.401,4.08
			c0.527,1.529,0.795,3.254,0.795,5.127c0,2.07-0.34,3.925-1.01,5.513c-0.675,1.599-1.654,2.933-2.91,3.966
			c-1.247,1.025-2.75,1.804-4.468,2.316c-1.703,0.507-3.635,0.764-5.742,0.764h-5.034v11.606c0,0.671-0.546,1.217-1.217,1.217
			H179.656z M191.118,34.725c2.076,0,3.672-0.468,4.741-1.392c1.068-0.922,1.587-2.146,1.587-3.743c0-1.599-0.504-2.825-1.541-3.747
			c-1.036-0.921-2.546-1.388-4.489-1.388h-4.45v10.27H191.118z"/>
	</g>
</g>
</svg>
