<?xml version="1.0" encoding="utf-8"?>
<!-- Generator: Adobe Illustrator 21.0.2, SVG Export Plug-In . SVG Version: 6.00 Build 0)  -->
<svg version="1.1" id="Layer_1" xmlns="http://www.w3.org/2000/svg" xmlns:xlink="http://www.w3.org/1999/xlink" x="0px" y="0px"
	 viewBox="0 0 158.8 66.8" style="enable-background:new 0 0 158.8 66.8;" xml:space="preserve">
<style type="text/css">
	.st0{fill:#FFFFFF;}
</style>
<title>MockUp-LogosPRESIDENCIA-PBA</title>
<g>
	<path class="st0" d="M5.9,53.7L5.9,53.7L5.9,53.7z"/>
	<path class="st0" d="M5.9,53.7L5.9,53.7L5.9,53.7z"/>
	<g>
		<path class="st0" d="M42.2,11.8H51c5.2,0,8.6,2.7,8.6,7.2v0.1c0,4.9-3.7,7.4-8.8,7.4H48v5.9h-5.7L42.2,11.8L42.2,11.8z M50.6,22
			c2,0,3.3-1.1,3.3-2.7v-0.1c0-1.8-1.2-2.7-3.3-2.7h-2.7V22H50.6z"/>
		<path class="st0" d="M61.2,10.9h5.6v21.5h-5.6C61.2,32.4,61.2,10.9,61.2,10.9z"/>
		<path class="st0" d="M68.6,27.8L68.6,27.8c0-3.4,2.5-5.1,6.2-5.1c1.5,0,2.9,0.3,3.8,0.6V23c0-1.6-1-2.6-3.2-2.6
			c-1.7,0-3,0.3-4.4,0.9l-1-3.9c1.8-0.7,3.7-1.2,6.4-1.2c2.9,0,4.8,0.7,6.1,1.9c1.2,1.2,1.7,2.8,1.7,5.1v9.1h-5.5v-1.6
			c-1.1,1.2-2.6,2-4.7,2C70.9,32.7,68.6,31,68.6,27.8z M78.7,26.6v-0.7c-0.6-0.2-1.4-0.4-2.2-0.4c-1.6,0-2.6,0.8-2.6,2v0.1
			c0,1.1,0.8,1.7,2,1.7C77.6,29.2,78.7,28.2,78.7,26.6z"/>
	</g>
	<g>
		<path class="st0" d="M86.4,16.4H92v2.2c1-1.3,2.5-2.6,4.8-2.6c3.4,0,5.4,2.2,5.4,5.8v10.4h-5.6v-8.6c0-1.7-0.9-2.7-2.2-2.7
			C93,21.1,92,22,92,23.7v8.6h-5.6V16.4z"/>
	</g>
	<g>
		<path class="st0" d="M27,39.1h10.6c2.6,0,4.4,0.6,5.6,1.9c0.8,0.8,1.3,1.9,1.3,3.3v0.1c0,2.4-1.4,3.8-3.2,4.6
			c2.5,0.8,4.1,2.2,4.1,5v0c0,3.5-2.9,5.7-7.8,5.7H27V39.1z M36.2,47.3c1.7,0,2.7-0.6,2.7-1.8v-0.1c0-1.1-0.9-1.8-2.6-1.8h-3.7v3.6
			L36.2,47.3L36.2,47.3z M37,55.1c1.7,0,2.7-0.7,2.7-1.9v-0.1c0-1.1-0.9-1.9-2.8-1.9h-4.4V55H37V55.1z"/>
		<path class="st0" d="M46.5,51.8L46.5,51.8c0-4.7,3.3-8.4,8-8.4c5.5,0,8,4,8,8.7c0,0.4,0,0.8,0,1.1H51.9c0.4,1.7,1.7,2.6,3.4,2.6
			c1.3,0,2.4-0.5,3.5-1.6l3.1,2.6C60.4,58.7,58.2,60,55,60C50,60.1,46.5,56.8,46.5,51.8z M57.3,50.5c-0.2-1.8-1.2-2.9-2.8-2.9
			c-1.5,0-2.5,1.1-2.8,2.9H57.3z"/>
		<path class="st0" d="M64.5,38.3h5.6v21.5h-5.6V38.3z"/>
	</g>
	<g>
		<path class="st0" d="M72.5,62.7l1.8-3.7c1.7,0.9,3.4,1.5,5.6,1.5c2.8,0,4.2-1.4,4.2-3.9V56c-1.1,1.3-2.6,2.4-4.9,2.4
			c-3.9,0-7.1-2.8-7.1-7.4v-0.1c0-4.6,3.2-7.4,6.9-7.4c2.4,0,3.8,1,5,2.2v-1.9h5.6v12.1c0,2.9-0.6,4.9-2.1,6.3
			c-1.4,1.4-3.7,2.2-7,2.2C77.4,64.5,74.8,63.8,72.5,62.7z M84,50.9L84,50.9c0-1.8-1.4-3.1-3.2-3.1c-1.9,0-3.3,1.3-3.3,3.1V51
			c0,1.8,1.4,3.1,3.3,3.1C82.7,54,84,52.7,84,50.9z"/>
	</g>
	<g>
		<path class="st0" d="M91.9,43.8h5.6V47c0.9-2.2,2.4-3.6,5-3.5v5.9H102c-2.9,0-4.6,1.7-4.6,5.3v4.9h-5.6L91.9,43.8L91.9,43.8z"/>
		<path class="st0" d="M103.2,55.2L103.2,55.2c0-3.4,2.5-5.1,6.2-5.1c1.5,0,2.9,0.3,3.8,0.6v-0.3c0-1.6-1-2.6-3.2-2.6
			c-1.7,0-3,0.3-4.4,0.9l-1.1-3.9c1.8-0.7,3.7-1.2,6.4-1.2c2.9,0,4.8,0.7,6.1,1.9c1.2,1.2,1.7,2.8,1.7,5.1v9.1h-5.5v-1.6
			c-1.1,1.2-2.6,2-4.7,2C105.5,60.1,103.2,58.3,103.2,55.2z M113.3,54v-0.7c-0.6-0.2-1.4-0.4-2.2-0.4c-1.6,0-2.6,0.8-2.6,2V55
			c0,1.1,0.8,1.7,2,1.7C112.1,56.6,113.3,55.5,113.3,54z"/>
		<path class="st0" d="M121,43.8h5.6V46c1-1.3,2.5-2.6,4.8-2.6c3.4,0,5.4,2.2,5.4,5.8v10.4h-5.6V51c0-1.7-0.9-2.7-2.2-2.7
			c-1.4,0-2.4,0.9-2.4,2.7v8.6H121V43.8z"/>
	</g>
	<g>
		<path class="st0" d="M138.4,51.8L138.4,51.8c0-4.6,3.7-8.4,8.8-8.4s8.8,3.7,8.8,8.3v0.1c0,4.5-3.7,8.3-8.8,8.3
			C142.1,60.1,138.4,56.4,138.4,51.8z M150.6,51.8L150.6,51.8c0-2-1.4-3.6-3.4-3.6s-3.3,1.6-3.3,3.5v0.1c0,1.9,1.4,3.6,3.4,3.6
			C149.3,55.4,150.6,53.7,150.6,51.8z"/>
	</g>
	<path class="st0" d="M16.2,33.6c-9.7,8.3-9.8,20.7-9.8,20.8c1.9-5.5,5.5-12.2,12.3-17c0,0,14-9.4,12.5-23.8l-6.6-3.5
		C24.6,15.2,23.7,27.2,16.2,33.6"/>
	<path class="st0" d="M12.6,29.5C18,22,18,11.1,17.8,6.6L8.2,1.5c0,0,5.6,15.5-1.6,28.7c-6.9,12.6-2.3,21.4-2.3,21.4
		c0.4,0.9,1.1,1.9,2,2.9C3.2,46.8,5.7,39.1,12.6,29.5"/>
	<path class="st0" d="M12.6,62.3l5.8-1.5c-5.3-0.6-9.6-3.6-12.1-6.4C6.3,54.4,8.4,60.1,12.6,62.3"/>
	<path class="st0" d="M6.3,54.4L6.3,54.4c-1.9,5.6-2,10.1-2,10.1l3.7-1C7.4,62.6,6,59.3,6.3,54.4"/>
</g>
</svg>
