<svg id="Layer_1" data-name="Layer 1" xmlns="http://www.w3.org/2000/svg" viewBox="0 0 178 66.75"><defs><style>.cls-1{fill:#fff;}.cls-2{fill:#58595b;}</style></defs><title>MockUp-LogosPRESIDENCIA-PBA</title><path class="cls-1" d="M47.15,31.88A3.4,3.4,0,0,0,45.55,29h0a4.57,4.57,0,0,1-1.3-6.55h0A3.43,3.43,0,0,0,44,18.23c-.66-.8-5.5-6.93-18.15-14.44A4.56,4.56,0,0,0,20.73,4L13.1,9.46h0a4.54,4.54,0,0,1-2.47.72H4.92A3.42,3.42,0,0,0,1.5,13.61V59.77A3.39,3.39,0,0,0,2.29,62a11.92,11.92,0,0,0,3.09,2.49,3.41,3.41,0,0,0,5.25-2.88V52.43A3.42,3.42,0,0,1,14.05,49a3.36,3.36,0,0,1,1.49.34h0a23,23,0,0,0,31.5-16.69,3.36,3.36,0,0,0,.1-.8"/><path class="cls-2" d="M60.84,35.56a.78.78,0,0,1,.83-.83H66c2.83,0,4.54,1.71,4.54,4.23S68.88,43.19,66,43.19H62.82a.11.11,0,0,0-.12.12V48a.93.93,0,1,1-1.85,0ZM68.76,39c0-1.54-1-2.5-2.77-2.5H62.82a.11.11,0,0,0-.12.12v4.75a.11.11,0,0,0,.12.12H66c1.75,0,2.77-1,2.77-2.5"/><path class="cls-2" d="M72,48.06V39.75a.88.88,0,1,1,1.75,0v.46h0a2.71,2.71,0,0,1,2.56-1.52A2.88,2.88,0,0,1,77.8,39a.83.83,0,0,1,.5.75.84.84,0,0,1-.87.87,1.21,1.21,0,0,1-.44-.1,3.06,3.06,0,0,0-1.14-.25c-1.5,0-2.11,1.25-2.11,2.92v4.83a.88.88,0,1,1-1.75,0"/><path class="cls-2" d="M79.3,46.44A7.53,7.53,0,0,1,79,43.9a7.49,7.49,0,0,1,.33-2.52,4.23,4.23,0,0,1,7.87,0,7.35,7.35,0,0,1,.34,2.52,7.4,7.4,0,0,1-.34,2.54,4.23,4.23,0,0,1-7.87,0m6.19-.5a6.52,6.52,0,0,0,.23-2,6.37,6.37,0,0,0-.23-2,2.4,2.4,0,0,0-4.5,0,6.28,6.28,0,0,0-.23,2,6.43,6.43,0,0,0,.23,2,2.4,2.4,0,0,0,4.5,0"/><path class="cls-2" d="M91.53,47.92l-3-7.83a1.17,1.17,0,0,1-.08-.44.81.81,0,0,1,.85-.84.87.87,0,0,1,.83.63l2.58,6.93h0l2.52-6.93a.86.86,0,0,1,.83-.63.81.81,0,0,1,.85.84,1.12,1.12,0,0,1-.08.44l-3,7.83c-.31.81-.59,1.08-1.15,1.08s-.84-.27-1.15-1.08"/><path class="cls-2" d="M98.3,35.77a1.15,1.15,0,1,1,1.15,1.15,1.16,1.16,0,0,1-1.15-1.15m.27,4a.88.88,0,1,1,1.75,0v8.31a.88.88,0,1,1-1.75,0Z"/><path class="cls-2" d="M102.9,39.75a.88.88,0,1,1,1.75,0V40h0a3.16,3.16,0,0,1,2.79-1.36c2.17,0,3.46,1.48,3.46,3.75v5.62a.88.88,0,1,1-1.75,0V42.86c0-1.6-.73-2.54-2.23-2.54a2.24,2.24,0,0,0-2.29,2.44v5.31a.88.88,0,1,1-1.75,0Z"/><path class="cls-2" d="M113.21,46.44a8.7,8.7,0,0,1-.31-2.54,8.62,8.62,0,0,1,.31-2.52,4.22,4.22,0,0,1,7.13-1.23,1.07,1.07,0,0,1,.25.64.76.76,0,0,1-.77.78,1,1,0,0,1-.77-.42,2.36,2.36,0,0,0-1.89-.83,2.16,2.16,0,0,0-2.23,1.56,6.55,6.55,0,0,0-.23,2,6.63,6.63,0,0,0,.23,2,2.16,2.16,0,0,0,2.23,1.56,2.36,2.36,0,0,0,1.89-.84,1,1,0,0,1,.77-.41.76.76,0,0,1,.77.77,1.07,1.07,0,0,1-.25.65,3.91,3.91,0,0,1-3.19,1.46,3.87,3.87,0,0,1-3.94-2.69"/><path class="cls-2" d="M122.34,35.77a1.15,1.15,0,1,1,1.15,1.15,1.16,1.16,0,0,1-1.15-1.15m.27,4a.88.88,0,1,1,1.75,0v8.31a.88.88,0,1,1-1.75,0Z"/><path class="cls-2" d="M135,48.17a.84.84,0,0,1-.89.83.91.91,0,0,1-.77-.44l-.4-.62h0a3.8,3.8,0,0,1-3.06,1.19c-2.23,0-3.52-1.1-3.52-3,0-2.06,1.42-3.08,3.9-3.08h2.27a.11.11,0,0,0,.12-.12v-.48c0-1.4-.65-2.19-2.39-2.19a4.74,4.74,0,0,0-2,.5,1.24,1.24,0,0,1-.5.15.7.7,0,0,1-.75-.75.78.78,0,0,1,.42-.7,5.55,5.55,0,0,1,3-.75c2.66,0,3.91,1.27,3.91,3.73V46a1.93,1.93,0,0,0,.19,1l.35.65a1.07,1.07,0,0,1,.15.5m-2.37-2.5v-1.1a.11.11,0,0,0-.12-.12h-2c-1.71,0-2.48.5-2.48,1.63s.75,1.56,2.08,1.56c1.54,0,2.52-.73,2.52-2"/><path class="cls-2" d="M60.84,17.93a1.26,1.26,0,0,1,1.33-1.36h4.39c3.09,0,4.52,1.52,4.52,3.77a3.21,3.21,0,0,1-1.64,3v0a3.38,3.38,0,0,1,1.89,3.21c0,2.79-1.85,4.12-4.91,4.12H62.18a1.24,1.24,0,0,1-1.33-1.33Zm5.33,4.44c1.16,0,1.87-.6,1.87-1.67s-.69-1.64-1.87-1.64H64a.11.11,0,0,0-.12.13v3.06c0,.09,0,.13.12.13ZM64,28.26h2.31a1.78,1.78,0,1,0,0-3.54H64a.11.11,0,0,0-.12.13v3.29a.11.11,0,0,0,.12.12"/><path class="cls-2" d="M78.94,29.8h0A3.24,3.24,0,0,1,76.25,31c-2.23,0-3.37-1.56-3.37-3.75V22.08a1.43,1.43,0,0,1,1.48-1.54,1.41,1.41,0,0,1,1.44,1.54v4.58c0,1.11.5,1.84,1.54,1.84s1.54-.73,1.54-1.84V22.08a1.46,1.46,0,1,1,2.92,0v7.25a1.41,1.41,0,0,1-1.46,1.54,1.37,1.37,0,0,1-1.4-1.06"/><path class="cls-2" d="M83.73,28.1a7.37,7.37,0,0,1-.33-2.39,7.5,7.5,0,0,1,.31-2.42,4.24,4.24,0,0,1,4.35-2.85,4.19,4.19,0,0,1,4.35,2.83,7.29,7.29,0,0,1,.34,2.35.9.9,0,0,1-1,1H86.43a.11.11,0,0,0-.13.13,1.85,1.85,0,0,0,.1.58,2,2,0,0,0,2.08,1.31,4.08,4.08,0,0,0,1.9-.52,2,2,0,0,1,1-.31,1,1,0,0,1,1.06,1.08,1.21,1.21,0,0,1-.59,1A6,6,0,0,1,88.22,31c-2.33,0-3.91-1.06-4.5-2.87m6-3.46a.11.11,0,0,0,.12-.13,2.36,2.36,0,0,0-.1-.75,1.63,1.63,0,0,0-1.68-1.11,1.61,1.61,0,0,0-1.67,1.11,2.42,2.42,0,0,0-.1.75.11.11,0,0,0,.13.13Z"/><path class="cls-2" d="M100.3,29.32V24.74c0-1.1-.54-1.83-1.58-1.83s-1.56.73-1.56,1.83v4.58a1.46,1.46,0,1,1-2.91,0V22.08a1.41,1.41,0,0,1,1.45-1.54,1.37,1.37,0,0,1,1.4,1.06h0a3.24,3.24,0,0,1,2.66-1.17c2.23,0,3.44,1.56,3.44,3.75v5.14a1.46,1.46,0,1,1-2.92,0"/><path class="cls-2" d="M105.07,28.07a7.21,7.21,0,0,1-.34-2.37,7.25,7.25,0,0,1,.34-2.38,4.75,4.75,0,0,1,8.74,0,7.4,7.4,0,0,1,.33,2.38,7.36,7.36,0,0,1-.33,2.37,4.75,4.75,0,0,1-8.74,0m5.93-.69a5.64,5.64,0,0,0,.19-1.68A5.65,5.65,0,0,0,111,24a1.65,1.65,0,0,0-3.12,0,5.53,5.53,0,0,0-.19,1.69,5.52,5.52,0,0,0,.19,1.68,1.65,1.65,0,0,0,3.12,0"/><path class="cls-2" d="M116,30a1.3,1.3,0,0,1-.71-1.17,1.18,1.18,0,0,1,1.2-1.17,1.72,1.72,0,0,1,.86.27,4.81,4.81,0,0,0,2.48.73c1.06,0,1.56-.38,1.56-.94s-.27-.73-1.46-.86l-1.11-.12c-2.18-.25-3.29-1.33-3.29-3.08,0-2,1.52-3.25,4.16-3.25a6.88,6.88,0,0,1,3.06.67,1.29,1.29,0,0,1,.85,1.14,1.11,1.11,0,0,1-1.14,1.15,2,2,0,0,1-.83-.25,4.74,4.74,0,0,0-2-.44c-.9,0-1.27.32-1.27.79s.25.71,1.39.83l1.11.12c2.37.27,3.35,1.38,3.35,3.06,0,2.06-1.64,3.46-4.49,3.46A7,7,0,0,1,116,30"/><path class="cls-2" d="M129.92,28.84l3.83-10.59c.4-1.12,1-1.79,2.1-1.79s1.73.67,2.12,1.79l3.77,10.59a1.78,1.78,0,0,1,.1.58,1.43,1.43,0,0,1-1.48,1.44,1.48,1.48,0,0,1-1.44-1.08l-.58-1.73H133.3l-.56,1.73a1.48,1.48,0,0,1-1.44,1.08,1.43,1.43,0,0,1-1.48-1.44,1.78,1.78,0,0,1,.1-.58m7.58-3.39-1.63-5h-.06l-1.64,5Z"/><path class="cls-2" d="M143,18a1.65,1.65,0,1,1,1.65,1.65A1.64,1.64,0,0,1,143,18m.19,11.33V22.08a1.46,1.46,0,1,1,2.91,0v7.25a1.46,1.46,0,1,1-2.91,0"/><path class="cls-2" d="M148.2,29.32V22.08a1.41,1.41,0,0,1,1.45-1.54,1.39,1.39,0,0,1,1.42,1.12v0h0a3.11,3.11,0,0,1,2.54-1.25,2.42,2.42,0,0,1,1.06.21,1.27,1.27,0,0,1,.77,1.19A1.4,1.4,0,0,1,154,23.3a2.25,2.25,0,0,1-.63-.1,3.1,3.1,0,0,0-.75-.11c-1.08,0-1.54.77-1.54,2.12v4.11a1.46,1.46,0,1,1-2.92,0"/><path class="cls-2" d="M156,28.1a7.24,7.24,0,0,1-.33-2.39,7.47,7.47,0,0,1,.31-2.42,4.24,4.24,0,0,1,4.35-2.85,4.19,4.19,0,0,1,4.35,2.83,7.33,7.33,0,0,1,.33,2.35.89.89,0,0,1-1,1H158.7a.11.11,0,0,0-.13.13,1.85,1.85,0,0,0,.11.58,2,2,0,0,0,2.08,1.31,4.07,4.07,0,0,0,1.9-.52,2.05,2.05,0,0,1,1-.31,1,1,0,0,1,1.06,1.08,1.21,1.21,0,0,1-.58,1A6,6,0,0,1,160.49,31c-2.33,0-3.91-1.06-4.5-2.87m6-3.46a.11.11,0,0,0,.12-.13,2.36,2.36,0,0,0-.11-.75,1.64,1.64,0,0,0-1.68-1.11,1.61,1.61,0,0,0-1.67,1.11,2.41,2.41,0,0,0-.11.75.11.11,0,0,0,.13.13Z"/><path class="cls-2" d="M166.82,30a1.3,1.3,0,0,1-.71-1.17,1.19,1.19,0,0,1,1.2-1.17,1.7,1.7,0,0,1,.85.27,4.82,4.82,0,0,0,2.48.73c1.06,0,1.56-.38,1.56-.94s-.27-.73-1.46-.86l-1.11-.12c-2.19-.25-3.29-1.33-3.29-3.08,0-2,1.52-3.25,4.16-3.25a6.87,6.87,0,0,1,3.06.67,1.28,1.28,0,0,1,.85,1.14,1.11,1.11,0,0,1-1.14,1.15,2,2,0,0,1-.83-.25,4.73,4.73,0,0,0-2-.44c-.9,0-1.27.32-1.27.79s.25.71,1.39.83l1.1.12c2.37.27,3.35,1.38,3.35,3.06,0,2.06-1.65,3.46-4.5,3.46a7,7,0,0,1-3.69-1"/></svg>