<?xml version="1.0" encoding="utf-8"?>
<!-- Generator: Adobe Illustrator 22.1.0, SVG Export Plug-In . SVG Version: 6.00 Build 0)  -->
<svg version="1.1" id="Capa_1" xmlns="http://www.w3.org/2000/svg" xmlns:xlink="http://www.w3.org/1999/xlink" x="0px" y="0px"
	 viewBox="0 0 200 200" style="enable-background:new 0 0 200 200;" xml:space="preserve">
<style type="text/css">
	.st0{fill-rule:evenodd;clip-rule:evenodd;fill:#A9A9A9;}
</style>
<path class="st0" d="M104.3,172.5c-40,0-72.7-32.6-72.7-72.7c0-2.6,0.2-5.3,0.5-7.8c21.4-9.5,38.4-27.1,47.3-48.8
	c21.2,30.1,58.6,44.4,94.5,36.1c1.9,6.4,3,13.3,3,20.5C176.9,139.9,144.3,172.5,104.3,172.5 M104.3,9C54.1,9,13.5,49.7,13.5,99.8
	s40.7,90.8,90.8,90.8c50.1,0,90.8-40.7,90.8-90.8S154.4,9,104.3,9 M131.5,97.5c-8.7,0-14.2,9.5-9.8,17c2,3.5,5.8,5.7,9.8,5.7
	c8.7,0,14.2-9.5,9.8-17C139.3,99.7,135.6,97.5,131.5,97.5 M77,97.5c-8.7,0-14.2,9.5-9.8,17c2,3.5,5.8,5.7,9.8,5.7
	c8.7,0,14.2-9.5,9.8-17C84.8,99.7,81.1,97.5,77,97.5"/>
<path class="st0" d="M256,113.7v13c0,0.5-0.2,0.9-0.5,1.2c-0.3,0.3-0.7,0.5-1.2,0.5h-18.3c-0.5,0-0.9-0.2-1.2-0.5
	c-0.3-0.3-0.5-0.7-0.5-1.2v-13c0-0.5,0.2-0.9,0.5-1.2c0.3-0.3,0.7-0.5,1.2-0.5h18.3c0.5,0,0.9,0.2,1.2,0.5
	C255.8,112.8,256,113.2,256,113.7 M254.6,126.7v-12h-19v12c0,0.1,0,0.2,0.1,0.2c0.1,0.1,0.1,0.1,0.2,0.1h18.3c0.1,0,0.2,0,0.2-0.1
	C254.6,126.9,254.6,126.8,254.6,126.7 M253.2,117.8v0.7c0,0.1,0,0.2-0.1,0.2c-0.1,0.1-0.1,0.1-0.2,0.1h-7.5c-0.1,0-0.2,0-0.2-0.1
	c-0.1-0.1-0.1-0.1-0.1-0.2v-0.7c0-0.1,0-0.2,0.1-0.2c0.1-0.1,0.1-0.1,0.2-0.1h7.5c0.1,0,0.2,0,0.2,0.1S253.2,117.7,253.2,117.8
	 M253.2,120.5v0.7c0,0.1,0,0.2-0.1,0.2s-0.1,0.1-0.2,0.1h-2c-0.1,0-0.2,0-0.2-0.1s-0.1-0.1-0.1-0.2v-0.7c0-0.1,0-0.2,0.1-0.2
	s0.1-0.1,0.2-0.1h2c0.1,0,0.2,0,0.2,0.1S253.2,120.4,253.2,120.5 M249.2,120.5v0.7c0,0.1,0,0.2-0.1,0.2s-0.1,0.1-0.2,0.1h-3.4
	c-0.1,0-0.2,0-0.2-0.1c-0.1-0.1-0.1-0.1-0.1-0.2v-0.7c0-0.1,0-0.2,0.1-0.2c0.1-0.1,0.1-0.1,0.2-0.1h3.4c0.1,0,0.2,0,0.2,0.1
	S249.2,120.4,249.2,120.5 M253.2,123.3v0.7c0,0.1,0,0.2-0.1,0.2c-0.1,0.1-0.1,0.1-0.2,0.1h-7.5c-0.1,0-0.2,0-0.2-0.1
	c-0.1-0.1-0.1-0.1-0.1-0.2v-0.7c0-0.1,0-0.2,0.1-0.2c0.1-0.1,0.1-0.1,0.2-0.1h7.5c0.1,0,0.2,0,0.2,0.1S253.2,123.2,253.2,123.3
	 M242.4,118.8c0,0.6-0.2,1.1-0.6,1.5c-0.4,0.4-0.9,0.6-1.4,0.6c-0.6,0-1.1-0.2-1.4-0.6c-0.4-0.4-0.6-0.9-0.6-1.5
	c0-0.6,0.2-1.1,0.6-1.5c0.4-0.4,0.9-0.6,1.4-0.6s1,0.2,1.4,0.6C242.2,117.8,242.4,118.3,242.4,118.8 M243.7,123.6
	c0,0.4-0.1,0.7-0.3,1c-0.2,0.3-0.5,0.4-0.8,0.4h-4.5c-0.3,0-0.6-0.1-0.8-0.4c-0.2-0.3-0.3-0.6-0.3-1c0-0.4,0-0.7,0.1-1.1
	c0.1-0.3,0.1-0.7,0.3-1s0.3-0.6,0.5-0.7c0.2-0.2,0.5-0.3,0.9-0.3c0.4,0.5,1,0.7,1.6,0.7c0.6,0,1.2-0.2,1.7-0.7
	c0.3,0,0.6,0.1,0.9,0.3s0.4,0.4,0.5,0.7s0.2,0.6,0.3,1C243.7,122.9,243.7,123.2,243.7,123.6"/>
<path class="st0" d="M807.2,118.5V134c0,0.4-0.2,0.8-0.5,1.1c-0.3,0.3-0.7,0.5-1.1,0.5h-17.1c-0.4,0-0.8-0.2-1.1-0.5
	c-0.3-0.3-0.5-0.7-0.5-1.1v-15.5c0-0.4,0.2-0.8,0.5-1.1c0.3-0.3,0.7-0.5,1.1-0.5h1.6v-1.2c0-0.5,0.2-1,0.6-1.4
	c0.4-0.4,0.8-0.6,1.4-0.6h0.8c0.5,0,1,0.2,1.4,0.6c0.4,0.4,0.6,0.8,0.6,1.4v1.2h4.7v-1.2c0-0.5,0.2-1,0.6-1.4
	c0.4-0.4,0.8-0.6,1.4-0.6h0.8c0.5,0,1,0.2,1.4,0.6c0.4,0.4,0.6,0.8,0.6,1.4v1.2h1.6c0.4,0,0.8,0.2,1.1,0.5
	C807.1,117.7,807.2,118.1,807.2,118.5 M802.6,119.3v-3.5c0-0.1,0-0.2-0.1-0.3c-0.1-0.1-0.2-0.1-0.3-0.1h-0.8c-0.1,0-0.2,0-0.3,0.1
	s-0.1,0.2-0.1,0.3v3.5c0,0.1,0,0.2,0.1,0.3c0.1,0.1,0.2,0.1,0.3,0.1h0.8c0.1,0,0.2,0,0.3-0.1C802.5,119.5,802.6,119.4,802.6,119.3
	 M802.2,125.1h3.5v-3.5h-3.5V125.1 M797.5,125.1h3.9v-3.5h-3.9V125.1 M802.2,129.7h3.5v-3.9h-3.5V129.7 M793.2,119.3v-3.5
	c0-0.1,0-0.2-0.1-0.3s-0.2-0.1-0.3-0.1h-0.8c-0.1,0-0.2,0-0.3,0.1s-0.1,0.2-0.1,0.3v3.5c0,0.1,0,0.2,0.1,0.3
	c0.1,0.1,0.2,0.1,0.3,0.1h0.8c0.1,0,0.2,0,0.3-0.1C793.2,119.5,793.2,119.4,793.2,119.3 M797.5,129.7h3.9v-3.9h-3.9V129.7
	 M802.2,134h3.5v-3.5h-3.5V134 M792.8,125.1h3.9v-3.5h-3.9V125.1 M797.5,134h3.9v-3.5h-3.9V134 M788.6,125.1h3.5v-3.5h-3.5V125.1
	 M792.8,129.7h3.9v-3.9h-3.9V129.7 M788.6,129.7h3.5v-3.9h-3.5V129.7 M792.8,134h3.9v-3.5h-3.9V134 M788.6,134h3.5v-3.5h-3.5V134"/>
<path class="st0" d="M501.2,118.5V134c0,0.4-0.2,0.8-0.5,1.1c-0.3,0.3-0.7,0.5-1.1,0.5h-17.1c-0.4,0-0.8-0.2-1.1-0.5
	c-0.3-0.3-0.5-0.7-0.5-1.1v-15.5c0-0.4,0.2-0.8,0.5-1.1c0.3-0.3,0.7-0.5,1.1-0.5h1.6v-1.2c0-0.5,0.2-1,0.6-1.4
	c0.4-0.4,0.8-0.6,1.4-0.6h0.8c0.5,0,1,0.2,1.4,0.6c0.4,0.4,0.6,0.8,0.6,1.4v1.2h4.7v-1.2c0-0.5,0.2-1,0.6-1.4
	c0.4-0.4,0.8-0.6,1.4-0.6h0.8c0.5,0,1,0.2,1.4,0.6c0.4,0.4,0.6,0.8,0.6,1.4v1.2h1.6c0.4,0,0.8,0.2,1.1,0.5
	C501.1,117.7,501.2,118.1,501.2,118.5 M496.6,119.3v-3.5c0-0.1,0-0.2-0.1-0.3c-0.1-0.1-0.2-0.1-0.3-0.1h-0.8c-0.1,0-0.2,0-0.3,0.1
	s-0.1,0.2-0.1,0.3v3.5c0,0.1,0,0.2,0.1,0.3c0.1,0.1,0.2,0.1,0.3,0.1h0.8c0.1,0,0.2,0,0.3-0.1C496.5,119.5,496.6,119.4,496.6,119.3
	 M496.2,125.1h3.5v-3.5h-3.5V125.1 M491.5,125.1h3.9v-3.5h-3.9V125.1 M496.2,129.7h3.5v-3.9h-3.5V129.7 M487.2,119.3v-3.5
	c0-0.1,0-0.2-0.1-0.3c-0.1-0.1-0.2-0.1-0.3-0.1h-0.8c-0.1,0-0.2,0-0.3,0.1s-0.1,0.2-0.1,0.3v3.5c0,0.1,0,0.2,0.1,0.3
	c0.1,0.1,0.2,0.1,0.3,0.1h0.8c0.1,0,0.2,0,0.3-0.1C487.2,119.5,487.2,119.4,487.2,119.3 M491.5,129.7h3.9v-3.9h-3.9V129.7
	 M496.2,134h3.5v-3.5h-3.5V134 M486.8,125.1h3.9v-3.5h-3.9V125.1 M491.5,134h3.9v-3.5h-3.9V134 M482.6,125.1h3.5v-3.5h-3.5V125.1
	 M486.8,129.7h3.9v-3.9h-3.9V129.7 M482.6,129.7h3.5v-3.9h-3.5V129.7 M486.8,134h3.9v-3.5h-3.9V134 M482.6,134h3.5v-3.5h-3.5V134"/>
</svg>
