<svg xmlns="http://www.w3.org/2000/svg" viewBox="0 0 100 100"><defs><style>.cls-1{isolation:isolate;}.cls-2{fill:#7ed9ed;}.cls-3,.cls-4{fill:#1460aa;}.cls-3{stroke:#fff;stroke-linecap:round;stroke-linejoin:round;stroke-width:0.75px;}.cls-5{fill:#fff;}.cls-6{fill:#51b7d6;opacity:0.15;mix-blend-mode:multiply;}</style></defs><title>plantilla svg celestes</title><g class="cls-1"><g id="Layer_2" data-name="Layer 2"><path class="cls-2" d="M74.82,67.6a7.65,7.65,0,0,1-7.65,7.64H32.83a7.65,7.65,0,0,1-7.65-7.64V29.28a4.54,4.54,0,0,1,4.53-4.52H70.29a4.53,4.53,0,0,1,4.53,4.52Z"/><path class="cls-3" d="M62.53,32.47a1.53,1.53,0,0,0-1.3-.6,1.19,1.19,0,0,0-1,.57,1.72,1.72,0,0,0-.22.69,1.22,1.22,0,0,1,0,.25,1,1,0,0,1-.29.31c-.29.21-2.06,1.07-2.34.54-.07-.15.51-.95.58-1.15a1.55,1.55,0,0,0,0-1.3,2.41,2.41,0,0,0-1.11-.87,15.91,15.91,0,0,1-3.6-2.23,11,11,0,0,0-2.12-1.8,2,2,0,0,0-2.51.39,2.55,2.55,0,0,0-4.07,2.11c0,.25,0,.53-.13.7a1.1,1.1,0,0,1-.5.2,1.66,1.66,0,0,0-1,1.43c-.06.6.05,1.21,0,1.81a8.26,8.26,0,0,1-.82,2.58,9.43,9.43,0,0,0-.71,6.14,7.74,7.74,0,0,1,.45,1.68,4.28,4.28,0,0,1-.14,1.18c-.17.78-.36,1.55-.59,2.31a5.41,5.41,0,0,0-.31,1.53,12,12,0,0,0,.2,1.45,3.21,3.21,0,0,1-.21,1.41,7.2,7.2,0,0,0,.09,3.54,1.43,1.43,0,0,0-.3.94,3,3,0,0,0,.27,1,12.19,12.19,0,0,1,.72,2.9,17.83,17.83,0,0,1-.21,3.18,3.56,3.56,0,0,1-.29,1.48A3.68,3.68,0,0,0,40.73,66a2.25,2.25,0,0,0,.75,2.29,1.22,1.22,0,0,0,.63.15,1.71,1.71,0,0,0,.54,1.1,1.83,1.83,0,0,0,1.36.33,4.38,4.38,0,0,1,1.49,0c.07.44.13.88.19,1.32s0,1.4.39,1.82a1.53,1.53,0,0,0,1.19.35A16.92,16.92,0,0,0,50.52,73a.58.58,0,0,0,.27-.1c.15-.15.07-.4,0-.6a1.87,1.87,0,0,0-.93-1c-.2-.07-.43-.08-.64-.13-.92-.2-1.44-1.15-1.85-2l-.69-1.46a.82.82,0,0,1-.1-.72c.21-.4.81-.37,1-.87s-.1-1,.33-1.51c.26-.28.67-.39.92-.68a1.87,1.87,0,0,0,.34-1.21c0-.57,0-1.27-.54-1.52a5.15,5.15,0,0,0-.87-.17c-.29-.09-.55-.43-.36-.67s.36-.15.57-.17c1.31-.12,1.43-1.58,1.48-2.6a2.14,2.14,0,0,0,0-.62l.15,0a1.06,1.06,0,0,0,1.38-.62,1.88,1.88,0,0,0-.24-1.69c.17.24,1.34-.73,1.44-.88.4-.66,0-1.49.32-2.22a6.42,6.42,0,0,0,3.24-.49,5.08,5.08,0,0,0,2.39-2.21,2.51,2.51,0,0,0,.27-1.9,4.49,4.49,0,0,0-.26-.54L57.23,45a4.69,4.69,0,0,1-.08-3.44,8,8,0,0,1,3.92-5.19l.21-.09a2.69,2.69,0,0,0,1.25-.91,2.47,2.47,0,0,0,.32-.92,2.6,2.6,0,0,0-.21-1.8A1.63,1.63,0,0,0,62.53,32.47Z"/><path class="cls-4" d="M52.71,72a.84.84,0,0,1-.83-.84,3.21,3.21,0,0,0,0-.36.8.8,0,0,1-.46-.37.84.84,0,0,1,.28-1.14,1.18,1.18,0,0,1,.59-.16,1.08,1.08,0,0,1,.53.14,1.37,1.37,0,0,1,.64,1.43v.12C53.44,71.2,53.26,72,52.71,72Z"/><path class="cls-5" d="M52.27,69.38a.82.82,0,0,1,.41.11c.55.31.51.76.51,1.33,0,.32-.15.93-.48.93a.58.58,0,0,1-.58-.59,3,3,0,0,0-.05-.57.59.59,0,0,1-.47-.29.58.58,0,0,1,.2-.79.89.89,0,0,1,.46-.13m0-.5a1.37,1.37,0,0,0-.72.2,1.07,1.07,0,0,0-.37,1.47,1.11,1.11,0,0,0,.44.42,1.15,1.15,0,0,1,0,.19,1.08,1.08,0,0,0,1.08,1.09c.71,0,1-.88,1-1.43V70.7a1.61,1.61,0,0,0-.76-1.64,1.31,1.31,0,0,0-.66-.18Z"/><path class="cls-4" d="M54.3,72a1,1,0,0,1-.84-.51,1.92,1.92,0,0,1,0-1.79,1.06,1.06,0,0,1,1-.58l.25,0a1,1,0,0,1,.62.44.71.71,0,0,1,0,.81,1.45,1.45,0,0,1-.19.17.23.23,0,0,0-.09.07c0,.06,0,.2,0,.31a.81.81,0,0,1-.46,1,.75.75,0,0,1-.26,0Z"/><path class="cls-5" d="M54.41,69.36h.07l.13,0a.78.78,0,0,1,.46.33.47.47,0,0,1,0,.52c-.09.1-.22.15-.3.26a.69.69,0,0,0,0,.53.55.55,0,0,1-.3.69.57.57,0,0,1-.18,0,.78.78,0,0,1-.63-.39c-.39-.65-.2-2,.74-2m0-.5a1.33,1.33,0,0,0-1.18.7,2.19,2.19,0,0,0,0,2,1.29,1.29,0,0,0,1.06.63,1,1,0,0,0,1-1.34l0-.14a1.17,1.17,0,0,0,.24-.22,1,1,0,0,0,0-1.09,1.28,1.28,0,0,0-.77-.55l-.22,0Z"/><path class="cls-4" d="M70.29,22.07H29.71a7.23,7.23,0,0,0-7.22,7.21V67.6A10.35,10.35,0,0,0,32.83,77.93H67.17A10.35,10.35,0,0,0,77.51,67.6V29.28A7.23,7.23,0,0,0,70.29,22.07ZM74.82,67.6a7.65,7.65,0,0,1-7.65,7.64H32.83a7.65,7.65,0,0,1-7.65-7.64V29.28a4.54,4.54,0,0,1,4.53-4.52H70.29a4.53,4.53,0,0,1,4.53,4.52Z"/><path class="cls-6" d="M75.49,70.58c-7.95,0-17.43,0-21.36,0-24.26-.22-25.93-12.7-29.89-24.81V68.11a8.39,8.39,0,0,0,8.36,8.36H68.65A23.38,23.38,0,0,0,75.49,70.58Z"/></g></g></svg>