<?xml version="1.0" encoding="utf-8"?>
<!-- Generator: Adobe Illustrator 19.2.1, SVG Export Plug-In . SVG Version: 6.00 Build 0)  -->
<svg version="1.1" id="Layer_1" xmlns="http://www.w3.org/2000/svg" xmlns:xlink="http://www.w3.org/1999/xlink" x="0px" y="0px"
	 viewBox="0 0 254.2 55.3" style="enable-background:new 0 0 254.2 55.3;" xml:space="preserve">
<style type="text/css">
	.st0{fill:#FFFFFF;}
	.st1{fill:#1D1D1B;}
	.st2{fill:#FBCF5B;}
	.st3{fill:#009651;}
	.st4{fill:#F0BB81;}
	.st5{fill:#058BB9;}
	.st6{fill:#D53316;}
	.st7{fill:#0072BC;}
	.st8{fill:#595959;}
</style>
<g>
	<g>
		<path class="st0" d="M17.4,49c-7.9,0-14-8.6-14-18.7h27.9C31.4,40.5,25.3,49,17.4,49"/>
		<path class="st1" d="M20.5,6.9l0.2,0c0,0-0.1-1-2-0.9h-0.4l-0.2,0.6l1.2-0.1C19.4,6.5,20.2,6.4,20.5,6.9"/>
		<path class="st1" d="M18.5,7.6l0.3-0.3l0.1,0l-0.1,0.1c0,0.2,0.1,0.4,0.3,0.4h0.3c0.2-0.1,0.3-0.2,0.3-0.4l0-0.1
			c0.2,0,0.4,0.1,0.5,0.3l0.4,0c0,0-0.2-1-2-0.7l-0.4,0.7L18.5,7.6"/>
		<path class="st1" d="M14.5,7.6l0.4-0.1c0.1-0.2,0.3-0.3,0.4-0.3l0,0.1c0,0.2,0.1,0.4,0.3,0.4h0.3c0.2-0.1,0.3-0.2,0.3-0.4l0-0.1
			l0.1,0l0.2,0.2l0.4,0l-0.4-0.6C14.8,6.6,14.5,7.6,14.5,7.6"/>
		<path class="st1" d="M15.6,6.5l1.3,0.1L16.7,6h-0.3c-2-0.1-2.1,0.9-2.1,0.9l0.2,0C14.7,6.4,15.6,6.5,15.6,6.5"/>
		<polyline class="st1" points="19.3,20 19.2,19.9 19.3,20 		"/>
		<path class="st1" d="M19,51.5c1.3-0.2,5.4-1.9,6.7-3c1.5,0.1,2.1-1.1,3.2-1.6l-0.3-0.2c0.6-0.4,1-0.9,1.7-1.5
			c-0.1-0.1-0.3-0.2-0.5-0.2c1-0.4,0.3-0.8,1.3-1.5l-0.2-0.1c0.7-0.4,0.6-1,1.2-1.7c-0.1-0.1-0.3-0.2-0.6-0.2c1.1-0.4,1-1.1,1.7-1.9
			c-0.1,0-0.2,0-0.5,0c0.6-0.5,0.4-1.2,0.9-1.9c-0.2-0.1-0.4-0.1-0.7-0.1c1-0.4,0.9-1.4,1.4-2.3c-0.1-0.1-0.2-0.1-0.4-0.1
			c0.8-0.8-0.2-0.5,0.4-2.2c-0.2-0.1-0.4-0.1-0.7,0c0.8-0.7,0.7-1.5,1.1-2.5c-0.5-0.1-1.8,0.8-2.1,1.5v-0.1c0.1-0.2,0.3-0.5,0.7-0.8
			c1.2-0.9,0.8-1.7,1.1-2.9c-0.6,0-1.7,0.9-1.9,1.6l0-0.2c0.2-0.3,0.2-0.7,0.9-1.1c1.1-0.6,0.7-1.6,1.1-2.8c-0.2,0-0.4,0-0.6,0.1
			c0.2-0.7-0.2-1.3-0.2-2.2c-0.6,0-1.3,1.1-1.4,1.8l-0.2-0.3c0.1-0.3,0.1-0.6,0.6-1c1-1.2,0.2-1.9,0.3-3.1l-0.3,0.1
			c0-0.6-0.5-1-0.5-1.7c-0.6,0.1-1.1,1.2-1.1,1.9l-0.3-0.3c0.1-0.3,0.1-0.7,0.5-1c0.6-1.2,0-1.7-0.1-2.9c-0.2,0-0.4,0.1-0.5,0.3
			c0-0.7-0.4-1.1-0.7-2c-0.4,0.1-0.7,0.6-0.9,1.1c0-0.2,0-0.5,0.1-0.8c0-1.5-0.6-1.7-1.1-2.9c-0.2,0.1-0.4,0.5-0.5,0.9
			c-0.2-1-0.6-1.3-1.1-2.2c-0.4,0.3-0.5,1.3-0.4,2c-0.1-0.2-0.1-0.5,0-0.9c-0.1-1.2-0.7-1.6-1.3-2.3c0.3,0,0.6-0.1,0.9-0.4
			c0,0-0.5,0-0.8-0.1c-0.3-0.1-0.5-0.5-0.8-0.6c-0.3-0.2-0.6,0-1.2-0.3l3-0.6l-3-0.6c0,0,0.2-0.2,0.5-0.2c0.3,0,0.6,0,0.9-0.3
			c0.1-0.2,0.5-0.6,1.4-0.5c-0.7-0.4-1-0.3-1.6-0.1c-0.4,0.3-0.6,0-1.3,0.1l2.5-1.6l-3,0.6c0.5-0.7,0.9-0.4,1.2-1.3
			c0.1-0.2,0.4-0.6,0.9-0.8C24.2,3.6,23.6,4,23,4.6c-0.2,0.1-0.7,0.3-1,0.4l1.7-2.5c0,0-1.7,1.2-2.5,1.7v0c0.1-0.7,0.6-0.6,0.7-1.3
			c-0.1-0.2,0-0.9,0.5-1.4c-0.7,0.2-1,0.6-1.3,1.4c-0.1,0.3-0.5,0.4-0.8,0.8l0.6-2.9l-1.7,2.5c0,0-0.1-0.1-0.1-0.4
			c0.2-0.5,0.2-0.8,0.2-1c-0.2-0.4-0.4-0.9,0-1.6c-1,0.6-0.5,1.4-0.8,2c-0.1,0.2-0.3,0.5-0.4,0.8L17.6,0L17,2.9
			c-0.4-0.5-0.1-0.6-0.3-1.1c-0.3-0.6-0.8-0.4-0.8-1.7c-0.2,0.4-0.4,0.7,0.1,1.9c0.1,0.1-0.1,0.7,0,1.1l-1.7-2.5l0.6,2.9
			c-0.4,0-0.5-0.7-0.8-0.9c-0.4-0.3-1-0.2-1.3-1.2c-0.1,0.7,0.1,1.1,0.7,1.6c0.2,0.3,0.4,0.8,0.5,1.1l-2.5-1.7L13.2,5
			c-0.6,0.1-0.6-0.7-1.7-0.6c-0.7,0-1.1-0.6-1.1-0.5c0.3,1.3,1.3,0.9,1.6,1.4l0.5,0.6L9.7,5.2l2.5,1.6c-0.4,0.2-1-0.3-1.5-0.1
			c-1,0.5-1.4,0-1.5,0c0.6,0.7,1,0.6,1.6,0.6c0.4,0,0.7,0.2,1.3,0.4L9,8.5L11.9,9c-0.4,0.3-0.9,0.1-1.3,0.4c-0.9,1-1.8,0.5-1.5,0.6
			c0.8,0.5,1.2,0.4,1.6,0.2c-0.3,0.2-0.5,0.4-0.8,0.7c0-0.2-0.1-0.4-0.3-0.5c-0.5,0.8-1.3,0.9-1.5,2c0-0.3-0.2-0.5-0.3-0.7
			c-0.5,0.9-1.1,1.1-1.3,2c-0.1-0.3-0.2-0.5-0.3-0.6c-0.5,1.2-1.3,1.4-1.1,2.9c0.1,0.4,0.1,0.6,0.1,0.9c-0.1-0.6-0.4-1.2-0.8-1.3
			c-0.4,0.6-0.7,1.2-0.8,1.9l-0.4-0.2c-0.1,1.1-1,1.5-0.1,2.9c0.5,0.4,0.4,0.8,0.5,1.1l-0.1,0.2c0.1-0.7-0.6-1.8-1.1-1.8
			C2.4,20.6,2,20.9,2,21.6l-0.4-0.1c0.1,1.2-0.7,1.6,0.4,2.8c0.5,0.4,0.5,0.7,0.6,1l-0.2,0.3c-0.1-0.7-0.8-1.7-1.4-1.7
			c0.1,1.3-0.5,1.2-0.1,2.1c-0.2-0.1-0.4-0.2-0.6-0.2c0.3,1.1,0,2.1,1.1,2.8c0.7,0.3,0.7,0.8,0.9,1l-0.1,0.2
			c-0.2-0.7-1.3-1.6-1.9-1.6c0.3,1,0.1,1.9,0.7,2.5c-0.3-0.2-0.7-0.3-1-0.2c0.5,1.2,0.2,1.8,1.3,2.7C1,33,0.6,33,0.4,33.1
			c0.3,0.8,0.2,1.4,0.5,1.9c-0.2,0-0.3,0.1-0.4,0.1C1,36,0.8,36.8,1.7,37.4c-0.2,0-0.4,0-0.5,0.1c0.4,0.7,0.4,1.3,0.8,1.8l-0.4,0.1
			c0.7,0.7,0.7,1.4,1.5,1.8c-0.2,0-0.4,0.1-0.5,0.1c0.6,0.6,0.8,1.1,1.3,1.6c-0.2,0-0.4,0.1-0.6,0.2c0.8,0.6,0.9,1.2,1.8,1.6
			c-0.2,0-0.4,0.1-0.6,0.2c1,0.8,0.4,1.1,1.3,1.5l-0.2,0.1c1.1,0.6,1.2,2,3.6,1.9c1.1,1.2,4.3,2.7,6.6,3L19,51.5 M33.8,33.7
			c-0.3,0.8,0,1.2-0.7,1.8c-0.5,0.1-0.4,0.2-0.6,0.4c0.1-0.3,0.2-0.6,0.3-0.7c-0.2,0.1-0.4,0.3-0.5,0.5c-0.1-0.1-0.3-0.1-0.5-0.6
			c-0.3-0.6-0.1-0.9-0.2-1.5c0.3,0.5,0.8,1.1,0.9,1.5C32.8,34.4,33.5,33.6,33.8,33.7 M32.5,34.1c0.1-0.2,0.3-0.4,0.7-0.6
			c-0.3,0.2-0.5,0.5-0.6,0.8L32.5,34.1z M34.1,31.1c-0.4,0.8-0.1,1.2-0.9,1.9c-0.5,0.2-0.5,0.3-0.6,0.5c0.1-0.3,0.2-0.6,0.4-0.8
			c-0.2,0.2-0.4,0.3-0.5,0.6c-0.1-0.1-0.3,0-0.5-0.4c-0.3-0.5,0-0.8-0.1-1.4c0.3,0.5,0.8,0.8,0.8,1.2C32.9,32.1,33.8,31.1,34.1,31.1
			 M32.8,30.5c0.1-0.6,0.8-1.6,1.1-1.6c-0.2,0.8,0.1,1.2-0.5,1.9c-0.5,0.3-0.4,0.4-0.5,0.6c0-0.3,0.1-0.6,0.3-0.8
			c-0.2,0.2-0.3,0.4-0.4,0.6c-0.1,0-0.3,0-0.6-0.3c-0.4-0.5-0.2-0.8-0.3-1.4C32.1,29.8,32.7,30.1,32.8,30.5 M31.9,28.7
			c0.3,0.3,0.5,0.4,0.6,0.7c-0.2-0.2-0.4-0.3-0.6-0.5L31.9,28.7z M33.9,26.4c-0.2,0.8,0.1,1.2-0.5,1.9c-0.5,0.2-0.4,0.4-0.5,0.5
			c0-0.3,0.1-0.6,0.3-0.8c-0.2,0.2-0.3,0.3-0.4,0.6c-0.1-0.1-0.3,0-0.6-0.4c-0.4-0.5-0.2-0.8-0.3-1.4c0.4,0.4,1,0.7,1.1,1.1
			C32.9,27.3,33.6,26.4,33.9,26.4 M32.6,26.2c0-0.6,0.5-1.6,0.8-1.7c-0.1,0.8,0.3,1.1-0.2,1.9c-0.4,0.3-0.3,0.4-0.5,0.6
			c0-0.3,0-0.6,0.2-0.8c-0.2,0.2-0.3,0.4-0.4,0.6c-0.1-0.1-0.3,0.1-0.7-0.3c-0.5-0.4-0.3-0.7-0.6-1.3C31.8,25.6,32.5,25.8,32.6,26.2
			 M30.9,37l0.1-0.4l0,0.1c0.3,1,0.6,1,0.5,1.7l-0.1,0.1C31.6,38,31.2,37.5,30.9,37 M29.7,41.9c0-0.3-0.2-0.7-0.4-1l0.2-0.3
			C29.7,41.3,29.8,41.5,29.7,41.9 M30.7,41.7c-0.4,0.1-0.8,0.3-1,0.5l0-0.1C30,42.1,30.2,41.7,30.7,41.7 M28.8,40.3
			c0,0-2.5,0.4-5.5-1.6c0.2-0.3,0.4-1.1,0.2-1.6c-0.1-0.4-0.1-0.1-0.2,0.2c-0.3,0.7-0.5,0.8-0.8,1c-0.9-0.9-1-0.9-2.2-1.6
			c-0.8-0.4-0.9-0.7-1.4-1c-0.8,0.4-2.1,1.1-2.7,0.7c-0.5-0.3,0.6-0.6,1.1-1.3c0.4-0.5,0.9-0.7,1.5-0.5c1.2,0.3,1.9,0.7,3.7,1.5
			c2.3,0.2,3.9,0.8,6.2,1.3c0.4,0.1,1,0.2,1.2,0.2C29.7,38.5,29.5,39.1,28.8,40.3 M18.9,37.9c0.7,0.8,1.3,0.9,1.7,1.8
			c-0.1,0.3-0.4,0.3-0.7,0.2c-1-1.1-2-1.3-1.6-1.8c-0.2,0-0.4,0.2-0.3,0.4c0.2,0.8,1.1,1.1,1.3,1.8c-0.1,0.6-1.2,0.1-1.7-1.4l0-0.1
			c-0.2,0.4-0.4,0.5,0.4,1.4c0.2,0.3,0.3,0.7-0.3,0.6c0.1,0.1-0.3,0-0.1,0h0.1l-0.1-0.1c0.3-1.4-1-1.1-1-1.1c0.2-0.5-0.5-1-1.3-0.7
			c0.1-0.4-0.7-1-1.7-0.6c-0.2-0.4-1.1-0.8-2,0.4c-1.6,0.2-4.3,1.6-5.9,0.9L4.6,37c1.9-0.2,6.1-0.5,7.7-1.1c1.2-0.8,3.4-1.2,3.9-0.9
			c0,0.4-1,1.2-0.5,1.6c0.8,0.8,2.2,0.4,3.1-0.1c0.9,1,2.5,1.1,3,2.4l-0.2,0.4c-0.3,0.2-0.3,0.2-0.7-0.3C20,37.7,19.2,38,19,37.2
			C18.7,37.3,18.9,37.7,18.9,37.9 M14.6,40.3c-0.3,0.1,0.1-0.2,0.3-0.3l0.1-0.2c0.3-0.3,0.7-0.6,0.9-0.1c0.2,0.3-1,1-1.2,1
			c-0.2,0.1-0.2,0.1-0.4-0.1C14.3,40.5,14.4,40.4,14.6,40.3 M13.6,40.2c-0.2,0.1-0.3,0.1-0.5-0.1c-0.1-0.2,0.3-0.6,0.4-0.7l0.3-0.2
			L14,39c0.4-0.1,0.4,0,0.5,0.2C14.5,39.4,13.8,40.2,13.6,40.2 M16.3,40.4c0,0,0.4-0.5,0.6,0.2c0.1,0.3-0.4,0.6-0.9,0.7
			C15.8,41.1,15.3,41.2,16.3,40.4 M12.4,39.4c-0.2,0.1-0.5-0.2-0.3-0.3l0.2-0.4c0.3-0.1,0.5-0.3,0.6-0.1
			C13,38.8,12.6,39.4,12.4,39.4 M5.3,40.6l-0.2,0.3c0-0.1,0.1-0.3,0.1-0.4L5.3,40.6z M5,41.9c-0.1-0.2-0.4-0.3-0.6-0.4
			c0.2,0.1,0.4,0.2,0.6,0.3L5,41.9z M3.3,38.2L3.3,38.2c-0.1-0.7,0.1-0.8,0.4-1.7l0.1,0.4C3.6,37.3,3.3,37.8,3.3,38.2 M3.5,24.7
			L3,25c0.1-0.1,0.3-0.2,0.5-0.4L3.5,24.7z M3.6,30.5h13.1v3.8c-0.6-0.1-1.6-0.1-2.5,0c-2.4,0.4-1.6,1.6-9.9,1.7
			C3.6,33.6,3.6,30.5,3.6,30.5 M11.7,11.4c0.1-0.1,0.3-0.1,0.4-0.7c0.3-1,0.9-0.9,1.6-1.4c0.2,0.3-0.6,1.5-1.2,1.8
			c0.3-0.1,0.8,0.4,1.3,0.6c-0.6,0.1-0.8,0.4-1.4,0.2c-0.4-0.2-0.4-0.4-0.5-0.4c0.2-0.2,0.3-0.4,0.5-0.6
			C12.2,11.1,12,11.3,11.7,11.4 M21.7,11.1c-0.2,0-0.4-0.1-0.7-0.2c0.3-0.1,0.6-0.2,0.9-0.4c0.6,0.1,1,0.4,1.1,0.9
			c-0.5-0.1-0.6,0.2-1.3,0.3c-0.6,0.1-1-0.2-1.6-0.4C20,11.2,20,11.1,20,11c0.3,0.1,0.6,0.1,0.9,0l0,0.1
			C21.1,11.2,21.4,11.2,21.7,11.1 M19.6,10.3c0.3,0,0.6-0.1,0.9-0.2c-0.2,0-0.4,0-0.6,0c0.4-0.3,0.7-0.6,1.2-0.6
			c0.7,0,0.7,0.4,1.2,0.2C22.3,10.1,20.2,11.1,19.6,10.3 M18.6,10.1c0.3,0.1,0.7,0.7,1.1,1.1c-0.5-0.2-0.8,0-1.3-0.4
			C18,10.5,18,10.3,18,10.2c0.2-0.1,0.4-0.2,0.6-0.4C18.3,9.9,18,10,17.8,10c0.2-0.1,0.3-0.1,0.5-0.5c0.7-0.6,1-0.3,1.8-0.5
			C20,9.4,19.1,10,18.6,10.1 M16.9,10.3c0.3,0,0.8,0.6,1.2,0.9c-0.6,0-0.8,0.2-1.3-0.1c-0.4-0.2-0.4-0.4-0.5-0.5
			c0.2-0.1,0.4-0.3,0.5-0.5c-0.2,0.2-0.5,0.3-0.7,0.4c0.1-0.1,0.3-0.1,0.4-0.6C17.1,9,17.4,9.3,18.1,9C18.1,9.2,17.4,10.1,16.9,10.3
			 M15.7,11.3c-0.6,0-0.8,0.3-1.4,0c-0.4-0.2-0.4-0.4-0.5-0.5c0.2-0.1,0.4-0.4,0.5-0.6c-0.2,0.2-0.4,0.4-0.7,0.5
			c0.1-0.1,0.3-0.1,0.4-0.6c0.6-0.8,1-0.6,1.7-1c0,0.3-0.8,1.2-1.3,1.4C14.8,10.6,15.2,11,15.7,11.3 M25.2,14.1h0.2H25.2L25.2,14.1z
			 M30,20.7l0.4,0.2L30,20.8L30,20.7z M23.1,35.3c-1.3-0.3-3-1.7-4.9-1.6v-3.3h13c0,0.4-0.2,3.9-0.9,6.3
			C27.7,36.7,25.2,35.3,23.1,35.3 M31.3,24.6c0.2,0.2,0.4,0.3,0.5,0.4l-0.5-0.2L31.3,24.6z M32.8,22.1c-0.1,0.8,0.4,1.1-0.2,1.9
			c-0.4,0.3-0.3,0.4-0.4,0.5c0-0.3,0-0.5,0.1-0.8c-0.2,0.2-0.3,0.4-0.3,0.6c-0.1,0-0.3,0.1-0.7-0.3c-0.5-0.4-0.3-0.7-0.6-1.3
			c0.5,0.4,1.1,0.6,1.3,1C32,23.2,32.5,22.2,32.8,22.1 M31.5,22.1c-0.1-0.6,0.2-1.6,0.5-1.7c0.1,0.8,0.6,1,0.2,1.9
			c-0.4,0.3-0.3,0.4-0.3,0.6c-0.1-0.3-0.1-0.5,0-0.8c-0.1,0.2-0.2,0.4-0.2,0.7c-0.2,0-0.3,0.1-0.7-0.2c-0.6-0.4-0.5-0.7-0.8-1.2
			C30.6,21.6,31.3,21.7,31.5,22.1 M30.9,18c0.1,0.8,0.6,1.1,0.2,1.9c-0.4,0.3-0.3,0.4-0.3,0.6c-0.1-0.3-0.1-0.5,0-0.8
			c-0.1,0.2-0.2,0.4-0.2,0.6c-0.1,0-0.3,0.1-0.7-0.2c-0.6-0.4-0.5-0.7-0.8-1.2c0.5,0.3,1.2,0.5,1.5,0.8C30.3,19.1,30.6,18.1,30.9,18
			 M29.8,16.3c0.3,0.8,0.7,1,0.5,1.8c-0.3,0.4-0.2,0.5-0.2,0.6c-0.1-0.3-0.2-0.5-0.2-0.8c-0.1,0.2-0.1,0.4-0.1,0.7
			c-0.2,0-0.3,0.1-0.8-0.1c-0.7-0.3-0.6-0.7-1.1-1.1c0.6,0.3,1.3,0.4,1.6,0.6C29.4,17.5,29.6,16.5,29.8,16.3 M29.2,17.6
			c-0.1-0.1-0.2-0.2-0.4-0.3L29.2,17.6L29.2,17.6z M28.3,14.1c0.4,0.8,0.6,0.7,0.6,1.7c-0.2,0.5-0.1,0.6,0,0.8
			c-0.1-0.3-0.3-0.5-0.3-0.8c0,0.3,0,0.5,0,0.8c-0.1,0-0.2,0.2-0.7,0.1c-0.6-0.1-0.6-0.5-1.1-0.9c0.6,0.1,1.2,0,1.5,0.2
			C28.1,15.5,28.1,14.3,28.3,14.1 M27,14.5c-0.3-0.5-0.4-1.6-0.2-1.8c0.4,0.7,0.7,0.6,0.8,1.5c-0.1,0.5,0,0.6,0,0.8
			c-0.2-0.2-0.3-0.5-0.4-0.8c0,0.3,0,0.5,0.1,0.8c-0.1,0-0.2,0.2-0.7,0.2c-0.6,0-0.7-0.4-1.2-0.7C26,14.5,26.7,14.3,27,14.5
			 M24.9,11c0.5,0.7,1,0.6,1,1.6c-0.1,0.5,0,0.5,0,0.7c-0.2-0.2-0.3-0.5-0.4-0.7c0,0.3,0,0.5,0.2,0.7c-0.1,0-0.2,0.2-0.7,0.2
			c-0.6,0-0.7-0.4-1.2-0.6c0.6,0,1.2-0.2,1.5-0.1C24.9,12.4,24.7,11.3,24.9,11 M24.5,10.5l-0.1,0.3l-0.3-0.3L24.5,10.5z M24.3,11.2
			c-0.1,0.6,0.1,0.6,0.2,0.8l-0.1,0c-0.2-0.2-0.4-0.5-0.5-0.6c0.1,0.4,0.1,0.6,0.3,0.8c-0.1,0.1-0.2,0.2-0.5,0.2
			c-0.8,0.1-0.9-0.1-1.2-0.3c0.5-0.2,0.8-0.5,1.3-0.3l-0.1-0.2l0,0l0,0c-0.1-0.2-0.2-0.4-0.4-0.6c-0.2-0.4-0.4-0.9-0.3-1
			C23.5,10.5,24.1,10.3,24.3,11.2 M23.8,9.8h-0.6L23,9.6C23.3,9.7,23.7,9.8,23.8,9.8 M12.6,9.3c0.6-0.3,0.7-0.4,0.7-0.4l-1.8-0.5
			L13.3,8c0,0,0-0.1-1.1-0.4c-0.2-0.1,0-0.3-0.9-0.5c0.3-0.1,0.2,0.1,0.8,0.2c0.4,0,0.7,0.1,1.4,0c0,0-1.1-0.9-1.8-1.2
			c0,0,1.2,0.3,2.2,0.6c0-0.1-0.8-0.7-1.3-1.3l-0.3-0.4c0.5,0.2,0.5,0.4,0.8,0.5c0.3,0.1,0.9,0.5,1.2,0.4C13.7,5.1,12.9,4,12.9,4
			l1.9,1.3c-0.1-0.5-0.4-0.9-0.5-1.1c-0.2-0.8-0.2-0.7-0.3-1c0.5,0.8,0.7,1.2,1.5,1.7l-0.3-2.4l1.1,2.1c0.1-0.3,0-0.9,0-1.1
			c0.1-1.1,0.1-0.4,0-1.2c0.1,0.4,0.1,0.4,0.2,0.9c0.2,0.5,0.4,0.8,0.6,1.2l0.5-2.2l0.3,2.2c0.2-0.4,0.2-0.7,0.5-1.1
			c0.3-0.6,0.5-1.1,0.5-1.1c-0.2,0.9-0.2,0.6-0.2,1.1c0,0.5,0,1.1,0.1,1.2l1.4-2l-0.5,2.3c0.2,0,0.7-0.8,1.2-1.1l0.4-0.5
			c-0.3,0.4-0.4,0.7-0.6,1c-0.2,0.6-0.2,0.4-0.4,1.1L22,4l-1.3,1.9c0,0,0.1,0,1-0.4c0.5-0.1,0.9-0.3,1.2-0.5
			c-0.6,0.6-0.9,0.5-1.8,1.6l2.2-0.5l-1.9,1.1c0.1,0.1,0.9-0.1,1.4,0c0.5,0,0.5,0,1,0c-0.6,0.2-0.7,0.1-1.4,0.3
			c-0.3,0.2-0.8,0.4-0.9,0.5l2.2,0.4c0,0-2.2,0.5-2.5,0.6l-0.4,0l-0.3,0c0.1-0.2,0.1-0.3,0.1-0.5c-0.7,0.2-1.4,0-2,0.1
			c0.1-0.2,0.1-0.3,0-0.4c-0.9,0.4-1.7,0.2-2.4,0.8c0-0.2,0-0.4-0.1-0.6c-0.8,0.4-1.5,0.2-2,0.6c0-0.2,0-0.3,0-0.4
			c-0.8,0.3-1.5,0.4-2.1,1c-0.1,0-0.3-0.1-0.5-0.1l-0.1-0.1l-0.1,0.1l-0.4,0C11.8,9.5,12.3,9.5,12.6,9.3 M10,11.9
			c0.2-0.9,0.7-0.8,1.3-1.3c0.1,0.2-0.3,1.3-0.7,1.7c0.3-0.1,0.9,0.2,1.5,0.3c-0.6,0.2-0.7,0.5-1.3,0.4c-0.5,0-0.5-0.3-0.6-0.3
			c0.1-0.2,0.2-0.4,0.2-0.7c-0.1,0.2-0.3,0.4-0.5,0.6C9.9,12.4,10.1,12.4,10,11.9 M11.2,12L11.2,12L11.2,12L11.2,12z M8.6,13
			c0.1-1,0.6-0.9,1-1.6c0.2,0.2-0.1,1.4-0.4,1.8c0.3-0.2,0.9,0.1,1.5,0.1c-0.5,0.2-0.6,0.6-1.2,0.6C9,14,9,13.8,8.8,13.8
			C8.9,13.5,9,13.3,9,13c-0.1,0.3-0.2,0.5-0.4,0.7C8.6,13.6,8.8,13.5,8.6,13 M8.2,13.8l-0.1,0.4l0,0L8.2,13.8z M7,14.3
			c0.1-1,0.4-0.9,0.8-1.6c0.2,0.2,0.1,1.3-0.2,1.8c0.3-0.2,0.9,0,1.5,0c-0.5,0.3-0.6,0.7-1.2,0.7c-0.5,0-0.5-0.1-0.7-0.2
			c0.1-0.2,0.1-0.5,0.1-0.7c-0.1,0.3-0.2,0.5-0.4,0.7C7.1,14.9,7.2,14.8,7,14.3 M6.4,14.2c0.2,0.2,0.2,1.4,0,1.9
			c0.3-0.2,0.9-0.1,1.4-0.2c-0.4,0.4-0.5,0.7-1.1,0.9c-0.4,0.1-0.5-0.1-0.7-0.1c0.1-0.2,0.1-0.5,0.1-0.8c0,0.3-0.2,0.6-0.3,0.8
			c0-0.2,0.1-0.3,0-0.8C5.7,15,6,15,6.4,14.2 M5.4,17.7l0.3-0.2L5.4,17.7L5.4,17.7z M4.8,16.5c0.3,0.1,0.4,1.2,0.2,1.7
			c0.3-0.3,1-0.4,1.6-0.6c-0.4,0.5-0.4,0.8-1,1.1c-0.5,0.2-0.6,0.1-0.8,0.1c0-0.2,0-0.4-0.1-0.7c0,0.2-0.1,0.5-0.2,0.8
			c0-0.2,0.1-0.3-0.2-0.6C4.1,17.5,4.6,17.3,4.8,16.5 M3.6,20c-0.4-0.8,0.1-1,0.2-1.8c0.3,0.1,0.6,1.1,0.5,1.6
			c0.2-0.3,0.9-0.5,1.4-0.8c-0.3,0.5-0.2,0.8-0.8,1.2c-0.4,0.3-0.6,0.2-0.7,0.2c0-0.2-0.1-0.4-0.2-0.6c0.1,0.3,0,0.5,0,0.8
			C3.9,20.4,4,20.3,3.6,20 M4.8,20.7l-0.1,0.2c-0.2,0.1-0.4,0.2-0.6,0.3C4.2,21,4.4,20.9,4.8,20.7 M2.8,20.4
			c0.3,0.1,0.6,1.1,0.5,1.7c0.2-0.3,0.9-0.5,1.4-0.8c-0.3,0.5-0.3,0.8-0.8,1.2c-0.4,0.3-0.6,0.2-0.7,0.2c0-0.2-0.1-0.5-0.2-0.7
			c0.1,0.3,0,0.5,0,0.8c0-0.2,0-0.3-0.3-0.6C2.2,21.4,2.7,21.2,2.8,20.4 M2.2,24c-0.5-0.7-0.1-1-0.2-1.8c0.3,0,0.8,1,0.8,1.6
			c0.1-0.3,0.8-0.6,1.3-1c-0.2,0.6-0.1,0.9-0.6,1.3c-0.4,0.3-0.5,0.2-0.7,0.3c0-0.2-0.2-0.4-0.3-0.6c0.1,0.2,0.1,0.5,0.1,0.8
			C2.5,24.3,2.6,24.2,2.2,24 M1.4,24.5c0.3,0.1,0.8,1.1,0.8,1.6c0.2-0.3,0.8-0.5,1.3-0.9c-0.2,0.5-0.1,0.8-0.6,1.3
			c-0.4,0.3-0.5,0.2-0.7,0.2c0-0.2-0.2-0.4-0.3-0.6C2,26.4,2,26.6,2,26.9c-0.1-0.2,0-0.3-0.4-0.6C1,25.6,1.4,25.3,1.4,24.5
			 M2.2,28.4c-0.1-0.2-0.3-0.4-0.4-0.6c0.2,0.2,0.2,0.5,0.3,0.8c-0.1-0.1-0.1-0.3-0.5-0.5c-0.6-0.7-0.4-0.9-0.6-1.7
			c0.3,0,1,0.9,1.2,1.4c0.1-0.3,0.6-0.7,1-1.1c-0.1,0.6,0.1,0.8-0.3,1.3C2.5,28.5,2.3,28.4,2.2,28.4 M3,28.6v0.3
			c-0.2,0.1-0.5,0.3-0.6,0.5C2.5,29.1,2.7,29,3,28.6 M0.9,28.9c0.3,0.1,1,0.9,1.2,1.5c0.1-0.3,0.6-0.6,1-1c-0.1,0.5,0.1,0.9-0.3,1.3
			C2.5,31,2.3,30.9,2.2,31c-0.1-0.2-0.3-0.4-0.4-0.6c0.1,0.2,0.2,0.5,0.3,0.8C2,31,2,30.9,1.5,30.6C0.9,29.9,1.2,29.7,0.9,28.9
			 M2.1,31.8L2.1,31.8C2,31.6,1.7,31.3,1.4,31C1.8,31.3,2,31.5,2.1,31.8 M0.8,31.2c0.3,0,1.1,0.7,1.3,1.3c0-0.4,0.5-0.7,0.8-1.2
			c0,0.6,0.2,0.9-0.1,1.4c-0.2,0.4-0.4,0.3-0.5,0.4c-0.1-0.2-0.3-0.4-0.5-0.6C2,32.7,2.1,33,2.2,33.3c-0.1-0.1-0.1-0.3-0.6-0.5
			C0.5,31.8,1.7,33.2,0.8,31.2 M2.3,34l0,0.2c-0.1-0.3-0.4-0.6-0.7-0.8C1.9,33.5,2.1,33.8,2.3,34 M2.3,34.7c0.1-0.4,0.6-0.9,0.9-1.4
			c-0.1,0.6,0.1,0.9-0.2,1.5c-0.2,0.5-0.4,0.5-0.5,0.6C2.3,35.1,2.2,35,2,34.9c0.2,0.2,0.3,0.4,0.3,0.7c-0.1-0.1-0.1-0.3-0.5-0.4
			c-0.7-0.5-0.4-0.8-0.7-1.5C1.4,33.6,2.1,34.2,2.3,34.7 M1.2,35.5c0.3-0.1,1.2,0.5,1.4,1c0-0.4,0.4-0.9,0.6-1.5
			c0,0.6,0.3,0.8,0.1,1.4C3.2,36.9,3,36.9,2.9,37c-0.1-0.2-0.3-0.3-0.6-0.4c0.2,0.1,0.3,0.4,0.5,0.6C2.7,37.2,2.7,37,2.2,37
			C1.4,36.6,1.6,36.2,1.2,35.5 M3.4,38.8c0-0.4,0.4-0.9,0.6-1.5c0,0.6,0.3,0.8,0.1,1.4c-0.2,0.5-0.3,0.5-0.4,0.6
			c-0.2-0.2-0.4-0.3-0.6-0.4c0.2,0.2,0.3,0.4,0.5,0.6c-0.2-0.1-0.1-0.2-0.6-0.2c-0.8-0.4-0.6-0.9-1-1.5C2.3,37.7,3.2,38.3,3.4,38.8
			 M2.5,39.6c0.3-0.1,1.3,0.3,1.6,0.7c-0.1-0.3,0.2-1,0.4-1.6c0.1,0.6,0.4,0.7,0.3,1.4c-0.1,0.5-0.3,0.5-0.3,0.6
			c-0.2-0.2-0.4-0.2-0.6-0.3c0.2,0.1,0.4,0.3,0.6,0.5c-0.2-0.1-0.2-0.2-0.7-0.2C2.9,40.7,3,40.2,2.5,39.6 M3.5,41.6
			c0.3-0.1,1.3,0.4,1.7,0.8c-0.1-0.3,0.3-0.9,0.4-1.5c0.1,0.6,0.4,0.7,0.3,1.4c-0.1,0.5-0.3,0.5-0.4,0.6c-0.2-0.1-0.4-0.2-0.6-0.3
			c0.2,0.1,0.4,0.3,0.6,0.5c-0.2-0.1-0.2-0.2-0.7-0.2C3.9,42.7,4,42.2,3.5,41.6 M4.3,43.3c0.3-0.1,1.4,0.2,1.8,0.5
			c-0.1-0.3,0.1-0.9,0.2-1.5c0.2,0.5,0.6,0.7,0.6,1.3c0,0.5-0.2,0.5-0.3,0.6c-0.2-0.1-0.4-0.2-0.7-0.2c0.3,0.1,0.5,0.2,0.7,0.4
			c-0.2-0.1-0.2-0.2-0.7-0.1C4.9,44.3,4.9,43.8,4.3,43.3 M6.8,45l0.1,0.3C6.7,45,6.4,44.9,6,44.8C6.3,44.8,6.6,44.9,6.8,45
			 M5.4,45.1c0.3-0.1,1.4,0.3,1.8,0.7c-0.1-0.3,0.1-0.9,0.2-1.5C7.6,44.8,8,45,7.9,45.6c0,0.5-0.2,0.5-0.3,0.6
			C7.4,46,7.2,46,6.9,45.9c0.3,0.1,0.5,0.3,0.7,0.5c-0.2-0.1-0.2-0.2-0.7-0.1C5.9,46.1,6,45.6,5.4,45.1 M9.5,48
			c-0.2-0.2-0.4-0.3-0.8-0.2c-1-0.1-1.3-0.7-2-1.2c0.2-0.2,1.5,0.1,2,0.4c-0.2-0.3,0-0.9-0.1-1.4c0.3,0.5,0.7,0.6,0.8,1.2
			c0.1,0.5,0.1,0.8,0.2,1.1c-0.1-0.1-0.3-0.3-0.5-0.4C9.2,47.6,9.4,47.8,9.5,48 M8.3,46.6L8.3,46.6L8.3,46.6L8.3,46.6z M14.8,50.6
			c-2.2-0.7-4.1-1.7-4.6-2.5c-0.2-0.4-0.2-0.9-0.3-1.5l0,0c1.6,1.3,3.2,2.3,5.1,2.7h-0.2C14.1,50.1,14.4,50.5,14.8,50.6 M17.3,48.8
			c-6-0.1-9.6-5-10.9-7.4c-0.2-0.3,3.4-1.4,4.2-1.6l1-0.3c0,0.5,0.8,0.6,0.8,0.4c0.2,0.1-0.1,0.4,0.4,0.7c0.5,0.3,0.8,0.1,0.8,0
			c-0.3,0.3,0.7,0.9,1.4,0.5c-0.1,0.3,0.4,0.4,0.5,0.4c0.2,0.1,0.7,0.2,1.1,0V45c0.1,0.6,0.1,0.8,0.4,0.9c1.3,0.1,1-0.3,1.2-0.7
			c0-1.4-0.1-3.5-0.1-3.5c0.9-0.1,0.7-0.3,1-0.4c0.4,0.1,0.6,0.1,0.9-0.4c0.5,0,0.9-0.1,1-0.5c0.4,0.1,1-0.2,1.3-1
			c0.9,0.3,4.1,2,5.6,2.5C27.4,42.9,23.7,48.8,17.3,48.8 M27.8,45.4c0.1-0.1,0.3-0.1,0.5-0.1c-0.2,0.1-0.4,0.2-0.6,0.3L27.8,45.4z
			 M26.3,46.9L26.3,46.9L26.3,46.9z M24.7,46.9c-0.1,0.6-0.2,1-0.3,1.4c-0.6,1-3.3,1.9-4.5,2.3c0.3-0.3,0.5-1,0.1-1.3H20
			C21.7,48.9,23.3,48,24.7,46.9L24.7,46.9z M26.1,47.9c-0.4-0.1-0.7,0.2-1,0.3c0.2-0.2,0.4-0.5,0.6-0.6c-0.2,0.1-0.4,0.2-0.6,0.3
			c0-0.2,0-0.5,0.1-0.9c0.1-0.6,0.5-0.7,0.8-1.2c0,0.6,0.1,1.2-0.1,1.5c0.5-0.3,1.8-0.5,2-0.4C27.1,47.4,27.1,47.9,26.1,47.9
			 M27.7,46.6c-0.5-0.1-0.6,0.1-0.8,0.1c0.2-0.2,0.4-0.4,0.7-0.5c-0.3,0-0.5,0.1-0.7,0.2c-0.1-0.1-0.3-0.2-0.3-0.6
			c0-0.6,0.3-0.7,0.6-1.3c0.1,0.6,0.3,1.2,0.2,1.5c0.4-0.4,1.6-0.8,1.9-0.7C28.6,45.9,28.7,46.4,27.7,46.6 M28.8,44.8
			c-0.5-0.1-0.6,0-0.7,0.1c0.2-0.2,0.4-0.4,0.7-0.5c-0.3,0-0.5,0.1-0.7,0.2c0-0.1-0.3-0.2-0.3-0.7c0-0.6,0.3-0.7,0.6-1.3
			c0,0.6,0.3,1.2,0.2,1.5c0.4-0.4,1.6-0.7,1.8-0.5C29.7,44.2,29.8,44.7,28.8,44.8 M29.9,43.4c-0.5,0-0.5,0.1-0.7,0.2
			c0.2-0.2,0.3-0.4,0.6-0.6c-0.2,0-0.5,0.1-0.6,0.3c-0.1-0.1-0.3-0.1-0.4-0.6c-0.1-0.7,0.2-0.8,0.3-1.4c0.1,0.6,0.5,1.2,0.4,1.5
			c0.4-0.5,1.4-1,1.7-0.8C30.7,42.6,30.8,43.1,29.9,43.4 M31,41.3c-0.5,0-0.5,0.1-0.7,0.2c0.2-0.2,0.4-0.4,0.6-0.5
			c-0.3,0.1-0.5,0.1-0.7,0.3C30.2,41,30,41,30,40.5c-0.1-0.7,0.2-0.8,0.3-1.4c0.1,0.6,0.5,1.2,0.4,1.6c0.3-0.4,1.4-0.9,1.6-0.7
			C31.8,40.5,31.9,41,31,41.3 M31.8,39.6c-0.5,0-0.5,0.2-0.6,0.2c0.1-0.2,0.3-0.5,0.5-0.6c-0.2,0.1-0.4,0.2-0.6,0.4
			c-0.1-0.1-0.3-0.2-0.4-0.6c-0.2-0.7,0.1-0.9,0.1-1.5c0.2,0.6,0.6,1.2,0.6,1.5c0.3-0.5,1.2-1.1,1.5-1
			C32.4,38.7,32.7,39.2,31.8,39.6 M32,38l0.4-0.2L32,38z M32.7,37.3c-0.5,0-0.5,0.2-0.6,0.3c0.1-0.2,0.3-0.5,0.5-0.6
			c-0.2,0.1-0.4,0.2-0.6,0.4c-0.1-0.1-0.3-0.1-0.5-0.6c-0.2-0.7,0.1-0.9,0.1-1.5c0.2,0.6,0.7,1.2,0.7,1.6c0.2-0.5,1.2-1.1,1.4-1
			C33.2,36.4,33.5,36.9,32.7,37.3"/>
		<path class="st2" d="M12.6,9.3c0.6-0.3,0.7-0.4,0.7-0.4l-1.8-0.5L13.3,8c0,0,0-0.1-1.1-0.4c-0.2-0.1,0-0.3-0.9-0.5
			c0.3-0.1,0.2,0.1,0.8,0.2c0.4,0,0.7,0.1,1.4,0c0,0-1.1-0.9-1.8-1.2c0,0,1.2,0.3,2.2,0.6c0-0.1-0.8-0.7-1.3-1.3l-0.3-0.4
			c0.5,0.2,0.5,0.4,0.8,0.5c0.3,0.1,0.9,0.5,1.2,0.4C13.7,5.1,12.9,4,12.9,4l1.9,1.3c-0.1-0.5-0.4-0.9-0.5-1.1
			c-0.2-0.8-0.2-0.7-0.3-1c0.5,0.8,0.7,1.2,1.5,1.7l-0.3-2.4l1.1,2.1c0.1-0.3,0-0.9,0-1.1c0.1-1.1,0.1-0.4,0-1.2
			c0.1,0.4,0.1,0.4,0.2,0.9c0.2,0.5,0.4,0.8,0.6,1.2l0.5-2.2l0.3,2.2c0.2-0.4,0.2-0.7,0.5-1.1c0.4-0.6,0.5-1.1,0.5-1.1
			c-0.2,0.9-0.2,0.6-0.2,1.1c0,0.5,0,1.1,0.1,1.2l1.4-2l-0.5,2.3c0.2,0,0.7-0.8,1.2-1.1l0.4-0.5c-0.3,0.4-0.4,0.7-0.6,1
			c-0.2,0.6-0.2,0.4-0.4,1.1L22,4l-1.3,1.9c0,0,0.1,0,1-0.4c0.5-0.1,0.9-0.3,1.2-0.5c-0.6,0.6-0.9,0.5-1.8,1.6l2.2-0.5l-1.9,1.1
			c0.1,0.1,0.9-0.1,1.4,0c0.5,0,0.5,0,1,0c-0.6,0.2-0.7,0.1-1.3,0.3c-0.3,0.2-0.8,0.4-0.9,0.5l2.2,0.4c0,0-2.2,0.5-2.5,0.6l-0.4,0
			l-0.3,0l0.1-0.5c-0.7,0.2-1.4,0-2,0.1c0.1-0.2,0.1-0.3,0-0.4c-0.9,0.4-1.7,0.2-2.4,0.8c0-0.2,0-0.4-0.1-0.6
			c-0.8,0.4-1.5,0.2-2,0.6c0-0.2,0-0.3,0-0.4c-0.8,0.3-1.5,0.4-2.1,1c-0.1,0-0.3-0.1-0.5-0.1l-0.1-0.1l-0.1,0.1l-0.4,0
			C11.8,9.5,12.3,9.5,12.6,9.3"/>
		<path class="st1" d="M20.5,6.9l0.2,0c0,0-0.1-1-2-0.9h-0.4l-0.2,0.6l1.2-0.1C19.4,6.5,20.2,6.4,20.5,6.9"/>
		<path class="st1" d="M18.5,7.6l0.3-0.3l0.1,0l0,0.1c0,0.2,0.1,0.4,0.3,0.4h0.3c0.2-0.1,0.3-0.2,0.3-0.4l0-0.1
			c0.2,0,0.4,0.1,0.5,0.3l0.4,0c0,0-0.2-1-2-0.7l-0.4,0.7L18.5,7.6"/>
		<path class="st1" d="M14.5,7.6l0.4-0.1c0.1-0.2,0.3-0.3,0.4-0.3l0,0.1c0,0.2,0.1,0.4,0.3,0.4h0.3c0.2-0.1,0.3-0.2,0.3-0.4l0-0.1
			l0.1,0l0.2,0.2l0.4,0l-0.4-0.6C14.8,6.6,14.5,7.6,14.5,7.6"/>
		<path class="st1" d="M15.6,6.5l1.3,0.1L16.7,6h-0.3c-2-0.1-2.1,0.9-2.1,0.9l0.2,0C14.8,6.4,15.6,6.5,15.6,6.5"/>
		<path class="st3" d="M33.8,33.7c-0.3,0.8,0,1.2-0.7,1.8c-0.4,0.1-0.4,0.2-0.5,0.4c0.1-0.3,0.2-0.6,0.3-0.7
			c-0.2,0.1-0.4,0.3-0.5,0.5c-0.1-0.1-0.3-0.1-0.5-0.6c-0.3-0.6-0.1-0.9-0.2-1.5c0.3,0.6,0.8,1.1,0.9,1.5
			C32.8,34.4,33.5,33.6,33.8,33.7"/>
		<path class="st3" d="M34.1,31.1c-0.3,0.8-0.1,1.2-0.9,1.9c-0.5,0.2-0.5,0.3-0.6,0.5c0.1-0.3,0.2-0.6,0.4-0.8
			c-0.2,0.2-0.4,0.4-0.5,0.6c-0.1-0.1-0.3,0-0.5-0.4c-0.3-0.5,0-0.9-0.1-1.4c0.3,0.5,0.8,0.9,0.8,1.2C33,32.1,33.8,31.1,34.1,31.1"
			/>
		<path class="st3" d="M32.8,30.5c0.1-0.6,0.8-1.6,1.1-1.6c-0.2,0.8,0.1,1.2-0.6,1.9c-0.5,0.3-0.4,0.4-0.5,0.6
			c0-0.3,0.1-0.6,0.3-0.8c-0.2,0.2-0.4,0.4-0.5,0.6c-0.1,0-0.3,0-0.6-0.3c-0.4-0.5-0.2-0.8-0.3-1.4C32.1,29.8,32.7,30.1,32.8,30.5"
			/>
		<path class="st3" d="M33.9,26.4c-0.2,0.8,0.1,1.1-0.5,1.8c-0.5,0.2-0.4,0.4-0.5,0.5c0-0.3,0.1-0.6,0.3-0.8
			c-0.2,0.2-0.3,0.3-0.5,0.6c-0.1,0-0.3,0-0.6-0.4c-0.4-0.5-0.2-0.8-0.3-1.4c0.4,0.4,1,0.8,1.1,1.1C32.9,27.4,33.6,26.4,33.9,26.4"
			/>
		<path class="st3" d="M32.6,26.2c0-0.6,0.5-1.6,0.8-1.7c-0.1,0.8,0.3,1.1-0.2,1.9c-0.4,0.3-0.4,0.4-0.5,0.6c0-0.3,0-0.6,0.2-0.8
			c-0.2,0.2-0.3,0.4-0.3,0.6c-0.1,0-0.3,0.1-0.7-0.3c-0.5-0.4-0.3-0.7-0.6-1.2C31.8,25.6,32.5,25.9,32.6,26.2"/>
		<path class="st3" d="M11.7,11.4c0.1-0.1,0.3-0.1,0.4-0.7c0.3-1,0.9-0.9,1.6-1.4c0.3,0.3-0.6,1.5-1.2,1.8c0.3-0.1,0.8,0.4,1.3,0.6
			c-0.6,0.1-0.8,0.4-1.4,0.2c-0.4-0.2-0.4-0.4-0.5-0.4c0.2-0.2,0.3-0.4,0.5-0.6C12.2,11.1,12,11.3,11.7,11.4"/>
		<path class="st3" d="M21.7,11.1c-0.2,0-0.4-0.1-0.6-0.1c0.3-0.1,0.6-0.2,0.9-0.4c0.6,0.1,1,0.4,1.1,0.9c-0.5-0.1-0.6,0.2-1.3,0.3
			c-0.7,0.1-1-0.2-1.6-0.3C20,11.2,20,11.1,20,11c0.3,0.1,0.6,0.1,0.9,0l0,0.1C21.1,11.2,21.4,11.2,21.7,11.1"/>
		<path class="st3" d="M19.6,10.3c0.3,0,0.6-0.1,0.9-0.2c-0.2,0-0.4,0-0.6,0c0.4-0.3,0.7-0.6,1.2-0.6c0.7,0,0.7,0.4,1.2,0.2
			C22.3,10.1,20.2,11.1,19.6,10.3"/>
		<path class="st3" d="M18.6,10.1c0.3,0.1,0.7,0.7,1.1,1.1c-0.5-0.2-0.8,0-1.3-0.4C18,10.5,18,10.3,18,10.2c0.2-0.1,0.4-0.2,0.6-0.4
			c-0.2,0.1-0.5,0.2-0.8,0.2c0.2-0.1,0.3-0.1,0.5-0.5c0.7-0.6,1-0.3,1.8-0.5C20,9.4,19.1,10,18.6,10.1"/>
		<path class="st3" d="M16.9,10.3c0.3,0,0.8,0.6,1.2,0.9c-0.6-0.1-0.8,0.2-1.4-0.1c-0.4-0.2-0.4-0.4-0.4-0.5
			c0.2-0.1,0.4-0.3,0.5-0.5c-0.2,0.2-0.5,0.3-0.7,0.4c0.1-0.2,0.3-0.1,0.4-0.6C17.1,9,17.4,9.3,18.1,9C18.1,9.3,17.4,10.1,16.9,10.3
			"/>
		<path class="st3" d="M15.7,11.3c-0.6,0-0.8,0.3-1.4,0c-0.4-0.2-0.4-0.4-0.5-0.5c0.2-0.1,0.4-0.3,0.5-0.6c-0.2,0.2-0.5,0.4-0.7,0.5
			c0.1-0.1,0.3-0.1,0.4-0.6c0.6-0.8,0.9-0.6,1.7-1c0,0.3-0.8,1.2-1.3,1.4C14.8,10.6,15.2,11.1,15.7,11.3"/>
		<path class="st3" d="M32.8,22.1c-0.1,0.8,0.4,1.1-0.2,1.9c-0.4,0.3-0.3,0.4-0.4,0.6c0-0.3,0-0.6,0.1-0.8c-0.2,0.2-0.3,0.4-0.3,0.6
			c-0.1-0.1-0.3,0-0.7-0.3c-0.5-0.4-0.4-0.7-0.6-1.3c0.5,0.4,1.1,0.6,1.3,1C32,23.2,32.5,22.2,32.8,22.1"/>
		<path class="st3" d="M31.5,22.1c-0.1-0.6,0.2-1.6,0.5-1.7c0.1,0.8,0.6,1,0.2,1.9c-0.4,0.3-0.3,0.4-0.3,0.6c-0.1-0.3-0.1-0.5,0-0.8
			c-0.1,0.2-0.2,0.4-0.2,0.6c-0.1,0-0.3,0.1-0.7-0.2c-0.6-0.4-0.5-0.7-0.9-1.2C30.6,21.6,31.3,21.8,31.5,22.1"/>
		<path class="st3" d="M30.9,18c0.1,0.8,0.6,1.1,0.2,1.9c-0.4,0.3-0.3,0.4-0.3,0.6c0-0.3-0.1-0.5,0-0.8c-0.1,0.2-0.2,0.4-0.2,0.6
			c-0.1,0-0.3,0.1-0.7-0.2c-0.6-0.4-0.5-0.7-0.8-1.2c0.5,0.3,1.2,0.5,1.5,0.8C30.3,19.1,30.6,18.1,30.9,18"/>
		<path class="st3" d="M29.8,16.4c0.2,0.8,0.7,1,0.5,1.8c-0.3,0.3-0.2,0.5-0.2,0.6C30,18.5,29.9,18.3,30,18
			c-0.1,0.2-0.1,0.4-0.1,0.7c-0.2,0-0.3,0.1-0.8-0.1c-0.7-0.3-0.6-0.6-1.1-1.1c0.6,0.3,1.3,0.4,1.6,0.7
			C29.4,17.5,29.6,16.5,29.8,16.4"/>
		<path class="st3" d="M28.3,14.1c0.4,0.8,0.6,0.7,0.6,1.7c-0.2,0.5-0.1,0.6,0,0.8c-0.1-0.3-0.2-0.6-0.3-0.9c0,0.3,0,0.5,0.1,0.8
			c-0.1,0-0.2,0.2-0.7,0.1c-0.6-0.1-0.6-0.5-1.1-0.9c0.6,0.1,1.2,0,1.5,0.2C28.1,15.5,28.1,14.3,28.3,14.1"/>
		<path class="st3" d="M27,14.5c-0.3-0.5-0.4-1.6-0.2-1.8c0.4,0.7,0.7,0.6,0.8,1.6c-0.1,0.5,0,0.6,0,0.8c-0.2-0.2-0.3-0.5-0.4-0.8
			c0,0.3,0,0.5,0.1,0.7c-0.1,0-0.2,0.2-0.7,0.2c-0.6,0-0.7-0.4-1.2-0.7C26,14.5,26.7,14.3,27,14.5"/>
		<path class="st3" d="M24.9,11c0.5,0.7,0.9,0.6,1.1,1.6c-0.1,0.5,0,0.6,0,0.7c-0.2-0.2-0.3-0.5-0.4-0.7c0,0.3,0.1,0.5,0.2,0.7
			c-0.1,0.1-0.2,0.3-0.7,0.2c-0.6,0-0.7-0.4-1.2-0.6c0.6,0,1.2-0.2,1.5-0.1C25,12.4,24.7,11.3,24.9,11"/>
		<path class="st3" d="M24.3,11.2c-0.1,0.6,0.1,0.5,0.2,0.8l-0.1,0c-0.2-0.2-0.4-0.5-0.5-0.6c0.1,0.4,0.1,0.6,0.3,0.8
			c0,0.1-0.2,0.2-0.4,0.2c-0.8,0-0.9-0.1-1.2-0.3c0.5-0.2,0.8-0.5,1.3-0.3l-0.1-0.1h0l0,0c-0.1-0.2-0.2-0.4-0.4-0.6
			c-0.2-0.4-0.4-0.8-0.3-1C23.5,10.5,24.1,10.3,24.3,11.2"/>
		<path class="st3" d="M10,11.9c0.2-0.9,0.7-0.8,1.3-1.3c0.2,0.3-0.3,1.3-0.7,1.7c0.3-0.1,0.9,0.2,1.5,0.3c-0.5,0.2-0.7,0.5-1.3,0.4
			c-0.5-0.1-0.5-0.3-0.6-0.3c0.1-0.2,0.2-0.4,0.3-0.7c-0.1,0.2-0.3,0.4-0.5,0.6C9.9,12.4,10.1,12.4,10,11.9"/>
		<path class="st3" d="M8.6,13c0.1-0.9,0.6-0.9,1-1.6c0.1,0.2-0.1,1.4-0.4,1.8c0.3-0.2,0.9,0,1.5,0.1c-0.5,0.2-0.6,0.6-1.2,0.6
			C9,14,9,13.8,8.8,13.8C8.9,13.5,9,13.3,9,13c-0.1,0.3-0.2,0.5-0.4,0.7C8.6,13.6,8.8,13.5,8.6,13"/>
		<path class="st3" d="M7.1,14.3c0.1-1,0.3-0.9,0.8-1.6c0.2,0.2,0.1,1.4-0.2,1.8c0.3-0.2,0.9,0,1.5,0c-0.5,0.3-0.6,0.7-1.2,0.7
			c-0.5,0-0.5-0.2-0.6-0.2c0.1-0.2,0.1-0.5,0.1-0.7c0,0.3-0.2,0.5-0.4,0.7C7.1,14.9,7.2,14.8,7.1,14.3"/>
		<path class="st3" d="M6.4,14.2c0.2,0.2,0.2,1.4,0,1.9c0.3-0.2,0.9-0.1,1.5-0.2c-0.5,0.4-0.5,0.7-1.1,0.9c-0.4,0.1-0.5-0.1-0.7-0.1
			c0.1-0.2,0.1-0.5,0.1-0.8c0,0.3-0.2,0.6-0.3,0.8c0-0.2,0.1-0.2-0.1-0.7C5.7,15,6,15,6.4,14.2"/>
		<path class="st3" d="M4.8,16.5c0.3,0.1,0.4,1.2,0.2,1.7c0.3-0.2,1-0.4,1.6-0.6c-0.4,0.5-0.4,0.8-1,1.1c-0.5,0.2-0.6,0.1-0.8,0.1
			c0-0.2,0-0.5-0.1-0.7c0,0.3-0.1,0.5-0.2,0.8c0-0.2,0.1-0.3-0.2-0.6C4.1,17.5,4.6,17.3,4.8,16.5"/>
		<path class="st3" d="M3.6,20c-0.4-0.8,0.1-1,0.2-1.8c0.3,0.1,0.6,1.1,0.5,1.6c0.2-0.3,0.9-0.5,1.4-0.8c-0.4,0.5-0.3,0.8-0.8,1.2
			c-0.4,0.3-0.6,0.2-0.7,0.2c0-0.2-0.1-0.4-0.2-0.6c0.1,0.2,0,0.5,0,0.8C3.9,20.4,4,20.3,3.6,20"/>
		<path class="st3" d="M2.8,20.4c0.3,0.1,0.6,1.1,0.5,1.7c0.2-0.3,0.9-0.5,1.4-0.8c-0.4,0.5-0.3,0.8-0.9,1.2
			c-0.4,0.3-0.6,0.2-0.7,0.2c0-0.2-0.1-0.4-0.2-0.6c0.1,0.2,0,0.5,0,0.8c0-0.2,0-0.3-0.3-0.6C2.2,21.4,2.7,21.2,2.8,20.4"/>
		<path class="st3" d="M2.2,24c-0.5-0.7-0.1-1-0.2-1.8c0.3,0,0.8,1,0.8,1.6c0.1-0.3,0.8-0.6,1.3-1c-0.3,0.5-0.1,0.8-0.6,1.3
			c-0.4,0.3-0.5,0.2-0.7,0.3c-0.1-0.2-0.2-0.4-0.3-0.6c0.1,0.2,0.1,0.5,0.1,0.8C2.5,24.4,2.6,24.2,2.2,24"/>
		<path class="st3" d="M1.4,24.5c0.3,0.1,0.8,1.1,0.8,1.6c0.2-0.3,0.8-0.6,1.3-0.9c-0.3,0.5-0.1,0.8-0.6,1.3
			c-0.4,0.3-0.5,0.2-0.7,0.3c0-0.2-0.2-0.4-0.3-0.6C2,26.4,2,26.6,2,26.9c-0.1-0.2,0-0.3-0.4-0.6C1.1,25.6,1.5,25.3,1.4,24.5"/>
		<path class="st3" d="M2.2,28.5c-0.1-0.2-0.3-0.4-0.4-0.6c0.1,0.2,0.2,0.5,0.3,0.8C2,28.5,2,28.4,1.5,28.1
			c-0.7-0.7-0.4-0.9-0.6-1.7c0.3,0,1,0.9,1.2,1.4c0.1-0.3,0.7-0.7,1.1-1.1c-0.1,0.6,0.1,0.8-0.3,1.3C2.5,28.5,2.3,28.4,2.2,28.5"/>
		<path class="st3" d="M0.9,28.9c0.3,0.1,1,0.9,1.2,1.5c0.1-0.3,0.6-0.6,1-1c-0.1,0.6,0.1,0.9-0.3,1.3C2.5,31,2.3,30.9,2.2,31
			c-0.1-0.2-0.3-0.4-0.4-0.6c0.1,0.2,0.2,0.5,0.3,0.8C2,31,2,30.9,1.5,30.6C0.9,29.9,1.2,29.7,0.9,28.9"/>
		<path class="st3" d="M0.8,31.2c0.3,0,1.1,0.7,1.3,1.3c0-0.3,0.5-0.7,0.8-1.2c0,0.6,0.2,0.9-0.1,1.4c-0.2,0.4-0.4,0.3-0.5,0.4
			c-0.2-0.2-0.3-0.4-0.5-0.5C2,32.7,2.1,33,2.2,33.3c-0.1-0.1-0.1-0.3-0.6-0.5C0.5,31.8,1.7,33.2,0.8,31.2"/>
		<path class="st3" d="M2.3,34.8c0-0.4,0.5-0.9,0.9-1.5c-0.1,0.6,0.2,0.9-0.2,1.5c-0.2,0.5-0.4,0.5-0.5,0.6C2.3,35.2,2.2,35,2,34.9
			c0.2,0.2,0.3,0.5,0.4,0.7c-0.1-0.1-0.1-0.3-0.6-0.4c-0.7-0.5-0.4-0.8-0.6-1.5C1.4,33.6,2.1,34.2,2.3,34.8"/>
		<path class="st3" d="M1.2,35.5c0.3-0.1,1.2,0.5,1.4,1c0-0.4,0.4-1,0.6-1.5c0,0.6,0.3,0.8,0.1,1.5C3.2,36.9,3,36.9,2.9,37
			c-0.2-0.2-0.3-0.3-0.6-0.4c0.2,0.2,0.3,0.4,0.5,0.6C2.7,37.2,2.7,37,2.2,37C1.4,36.6,1.6,36.2,1.2,35.5"/>
		<path class="st3" d="M3.4,38.8c0-0.4,0.4-0.9,0.6-1.5c0,0.6,0.3,0.8,0.1,1.4c-0.2,0.5-0.3,0.5-0.4,0.6c-0.1-0.2-0.3-0.3-0.5-0.4
			c0.2,0.2,0.3,0.4,0.5,0.6c-0.2-0.1-0.1-0.2-0.6-0.3c-0.8-0.4-0.6-0.9-1-1.5C2.3,37.7,3.2,38.3,3.4,38.8"/>
		<path class="st3" d="M2.5,39.6c0.2-0.2,1.3,0.3,1.6,0.7c-0.1-0.3,0.3-1,0.4-1.6c0.1,0.6,0.5,0.7,0.3,1.4c-0.1,0.5-0.3,0.5-0.3,0.6
			c-0.2-0.2-0.4-0.2-0.6-0.3c0.2,0.1,0.4,0.3,0.6,0.5c-0.2-0.1-0.2-0.2-0.7-0.2C2.9,40.7,3.1,40.2,2.5,39.6"/>
		<path class="st3" d="M3.5,41.6c0.2-0.1,1.3,0.3,1.6,0.8c-0.1-0.3,0.3-0.9,0.4-1.5c0.1,0.6,0.4,0.7,0.3,1.4
			c-0.1,0.5-0.3,0.5-0.4,0.6c-0.2-0.1-0.4-0.2-0.6-0.3c0.2,0.1,0.4,0.3,0.6,0.5c-0.2-0.1-0.2-0.2-0.7-0.2C3.9,42.7,4,42.2,3.5,41.6"
			/>
		<path class="st3" d="M4.3,43.3c0.3-0.1,1.4,0.2,1.8,0.5c-0.1-0.3,0.1-0.9,0.2-1.5c0.2,0.5,0.6,0.7,0.6,1.3c0,0.5-0.2,0.5-0.3,0.6
			c-0.2-0.1-0.4-0.2-0.7-0.2c0.2,0.1,0.5,0.2,0.7,0.4c-0.2,0-0.2-0.2-0.7-0.1C4.9,44.3,4.9,43.8,4.3,43.3"/>
		<path class="st3" d="M5.4,45.1c0.3-0.1,1.4,0.3,1.8,0.7c-0.1-0.3,0.1-0.9,0.2-1.5C7.6,44.9,8,45,7.9,45.6c0,0.5-0.2,0.5-0.3,0.6
			C7.4,46.1,7.2,46,7,45.9c0.3,0.1,0.5,0.3,0.7,0.5c-0.2-0.1-0.2-0.2-0.7-0.1C5.9,46.1,6,45.6,5.4,45.1"/>
		<path class="st3" d="M9.5,48c-0.2-0.1-0.4-0.3-0.8-0.2c-1-0.1-1.3-0.7-2-1.2c0.2-0.2,1.5,0.1,2,0.4c-0.2-0.3,0-0.9-0.1-1.4
			c0.3,0.5,0.7,0.6,0.8,1.2c0.1,0.5,0.1,0.8,0.2,1.1c-0.2-0.2-0.3-0.3-0.5-0.4C9.2,47.6,9.4,47.8,9.5,48"/>
		<path class="st3" d="M26.1,47.9c-0.4-0.1-0.7,0.2-0.9,0.3c0.2-0.2,0.4-0.5,0.5-0.6c-0.2,0-0.4,0.1-0.6,0.3c0-0.2,0-0.5,0-0.9
			c0.1-0.6,0.5-0.7,0.8-1.2c-0.1,0.6,0.1,1.2-0.1,1.5c0.5-0.3,1.7-0.5,2-0.4C27.1,47.4,27.1,47.9,26.1,47.9"/>
		<path class="st3" d="M27.7,46.6c-0.5-0.1-0.6,0.1-0.8,0.1c0.2-0.2,0.4-0.4,0.7-0.5c-0.3,0-0.5,0.1-0.7,0.2
			c-0.1-0.1-0.3-0.2-0.3-0.6c0-0.6,0.3-0.7,0.6-1.3c0.1,0.6,0.3,1.2,0.2,1.5c0.4-0.4,1.6-0.8,1.9-0.7C28.6,45.9,28.7,46.4,27.7,46.6
			"/>
		<path class="st3" d="M28.8,44.9c-0.5-0.1-0.5,0-0.7,0.1c0.2-0.2,0.4-0.4,0.7-0.5c-0.2,0-0.5,0.1-0.7,0.2c-0.1-0.1-0.3-0.2-0.3-0.7
			c0-0.6,0.3-0.8,0.6-1.3c0,0.6,0.3,1.2,0.2,1.5c0.4-0.4,1.6-0.7,1.8-0.5C29.7,44.2,29.8,44.7,28.8,44.9"/>
		<path class="st3" d="M29.9,43.4c-0.5,0-0.5,0.1-0.7,0.2c0.2-0.2,0.4-0.4,0.6-0.6c-0.2,0-0.5,0.1-0.7,0.3c-0.1-0.1-0.3-0.1-0.4-0.6
			c-0.1-0.6,0.2-0.8,0.3-1.4c0.2,0.6,0.5,1.2,0.4,1.5c0.3-0.5,1.4-1,1.7-0.8C30.7,42.6,30.8,43.1,29.9,43.4"/>
		<path class="st3" d="M31,41.3c-0.5-0.1-0.5,0.1-0.7,0.2c0.2-0.2,0.4-0.4,0.6-0.5c-0.2,0.1-0.5,0.1-0.6,0.3C30.2,41,30,41,30,40.5
			c-0.1-0.7,0.2-0.8,0.3-1.4c0.1,0.6,0.5,1.2,0.4,1.6c0.3-0.5,1.4-0.9,1.7-0.8C31.8,40.5,31.9,41,31,41.3"/>
		<path class="st3" d="M31.9,39.6c-0.5,0-0.5,0.2-0.6,0.2c0.1-0.2,0.3-0.5,0.5-0.6c-0.2,0.1-0.4,0.2-0.6,0.4
			c-0.1-0.1-0.3-0.1-0.4-0.6c-0.2-0.7,0-0.8,0.1-1.5c0.2,0.6,0.6,1.2,0.6,1.5c0.3-0.5,1.2-1.1,1.5-1C32.4,38.8,32.7,39.2,31.9,39.6"
			/>
		<path class="st3" d="M32.7,37.3c-0.5,0-0.5,0.2-0.6,0.3c0.1-0.3,0.3-0.5,0.5-0.6c-0.2,0.1-0.4,0.2-0.6,0.4
			c-0.1-0.1-0.3-0.1-0.5-0.6c-0.2-0.7,0.1-0.9,0.1-1.5c0.2,0.6,0.7,1.2,0.7,1.6c0.3-0.5,1.2-1.1,1.4-1
			C33.2,36.4,33.5,36.9,32.7,37.3"/>
		<path class="st4" d="M28.8,40.3c0,0-2.5,0.4-5.5-1.6c0.2-0.3,0.4-1.1,0.2-1.6c-0.1-0.4-0.1-0.1-0.2,0.2c-0.3,0.7-0.5,0.8-0.8,1
			c-0.9-0.9-1-0.9-2.2-1.6c-0.8-0.4-0.9-0.7-1.4-1c-0.8,0.4-2.1,1.1-2.7,0.7c-0.5-0.3,0.6-0.6,1.1-1.3c0.4-0.6,0.9-0.7,1.5-0.6
			c1.2,0.3,1.9,0.7,3.7,1.5c2.3,0.2,3.9,0.8,6.2,1.3c0.4,0.1,0.9,0.2,1.2,0.2C29.7,38.5,29.5,39.1,28.8,40.3"/>
		<path class="st4" d="M18.9,37.9c0.7,0.8,1.3,0.9,1.7,1.8c-0.1,0.3-0.4,0.3-0.7,0.2c-1-1.1-1.9-1.3-1.6-1.8c-0.2,0-0.4,0.3-0.3,0.4
			c0.2,0.8,1.1,1.1,1.4,1.8c-0.1,0.5-1.2,0-1.7-1.4l0-0.1c-0.2,0.4-0.4,0.5,0.4,1.4c0.1,0.3,0.2,0.7-0.3,0.6h-0.1h0.1l-0.1-0.1
			c0.3-1.4-1-1.1-1-1.1c0.2-0.5-0.5-1-1.3-0.7c0.1-0.4-0.7-1-1.7-0.5c-0.2-0.4-1.1-0.8-2,0.4c-1.6,0.1-4.3,1.6-5.9,0.8l-1-2.7
			c1.9-0.2,6.1-0.5,7.6-1.1c1.2-0.8,3.4-1.2,4-0.9c0,0.4-1,1.2-0.5,1.6c0.8,0.8,2.2,0.4,3.1-0.1c0.9,1,2.4,1.1,3,2.4l-0.2,0.4
			c-0.3,0.2-0.3,0.2-0.7-0.3C20,37.7,19.2,38,19,37.2C18.7,37.3,18.9,37.7,18.9,37.9"/>
		<path class="st4" d="M14.6,40.3c-0.3,0.1,0.1-0.2,0.3-0.3l0.1-0.2c0.3-0.3,0.7-0.6,0.9-0.1c0.1,0.3-1,1-1.2,1
			c-0.2,0.1-0.2,0.1-0.3-0.1C14.3,40.5,14.4,40.4,14.6,40.3"/>
		<path class="st4" d="M13.6,40.2c-0.2,0.1-0.4,0.1-0.5-0.1c-0.1-0.2,0.3-0.6,0.4-0.7l0.3-0.2L14,39c0.4-0.1,0.4,0,0.5,0.2
			C14.5,39.4,13.8,40.2,13.6,40.2"/>
		<path class="st4" d="M16.3,40.4c0,0,0.5-0.5,0.7,0.2c0.1,0.3-0.4,0.6-0.9,0.7C15.8,41.1,15.3,41.2,16.3,40.4"/>
		<path class="st4" d="M12.4,39.4c-0.2,0.1-0.5-0.2-0.3-0.3l0.2-0.4c0.3-0.1,0.5-0.3,0.6-0.1C13,38.8,12.6,39.4,12.4,39.4"/>
		<path class="st5" d="M17.4,11.9c-7.5,0-13.5,7.9-13.8,17.8h27.6C30.9,19.8,24.9,11.9,17.4,11.9"/>
		<path class="st1" d="M18.2,33.7l0-7.8c0,0,2.7,0.1,3.3,0c0,0,1-0.4,1.1-1.2c0.1-0.6-0.4-2.3-0.4-2.6c0,0-0.5-0.4-0.5-0.7
			c0,0-0.3-2.9-0.9-3.8c-0.6-0.8-1.5-1.8-3.5-1.8c-2,0-3,1.3-3.1,2.2C14,19,15.3,19,15.3,19s-0.5,0.5-0.7,0.7
			c-0.2,0.3-0.7,0.7-1.2,1.7c-0.5,1-0.9,2.6-0.7,3.1c0.2,0.5,1.2,1.2,2.2,1.3c1.1,0.1,1.8-0.1,1.8-0.1v7.8L18.2,33.7"/>
		<path class="st6" d="M15.3,23c-0.8,0-1.1,0.4-1.8,0.5c0,0,0.2-1.5,1.6-3.2c0.6-0.7,2-1.4,2.7-1.7l0-0.2c-0.6,0.1-2.3,0.4-2.7-0.3
			c-0.1-0.7,0.9-1.5,2.3-1.6c0.9,0,1.5,0.3,2.1,0.6c0.8,0.5,1.1,1.4,1.2,2.2c-0.9,0.4-1.2,0.6-1.3,0.7c0.1,0,0.4,0.1,0.6,0.1
			c0.4,0,0.6,0,0.7-0.1v0.5l0.2,0.2c-1.6,0.7-2.5,1-2.6,0.9c0,0,0.3,0.1,0.7,0.1c0.6,0,1.4-0.2,2-0.4c0,0.3,0,0.6,0.5,0.8l0,0l0,0
			c-1.7,0.9-2.3,0.8-2.5,0.7l-1.2-0.2c0.4,0.1,0.9,0.7,1.6,0.8c0.6,0.1,1.7-0.4,2.3-0.6l0.2,0.8c-1,0-2.1,1.5-3.6,0.9
			C17.3,23.9,16.4,23,15.3,23"/>
		<path class="st6" d="M16.7,25.1c-0.8,0-2,0-2-0.1c-0.4-0.1-1.4-0.6-1.2-0.8c0.1,0,0.4,0,1.3-0.3C15.7,23.5,16.6,24.8,16.7,25.1"/>
		<path class="st6" d="M21.9,24.3c0,0.3-0.3,0.7-0.6,0.8c-0.2,0-1.2,0-1.7,0c0.4,0,0.6-0.1,0.9-0.3C22.1,24.1,21.9,24.3,21.9,24.3"
			/>
		<path class="st0" d="M16.6,53.2c0.1-0.3,0-0.6,0-0.6s-0.6,0.8-1.3,1.2c-0.7,0.4-1.8,0.6-2,0.7c0.1,0.2,0.3,0.3,0.5,0.4
			c0.2,0,1.1-0.1,1.9-0.6C16.2,54,16.6,53.2,16.6,53.2"/>
		<path class="st5" d="M18.3,53.2c-0.1-0.3,0-0.6,0-0.6s0.6,0.8,1.3,1.2c0.7,0.4,1.8,0.6,2,0.7c0.3-0.3,0.5-0.6,0.5-0.6
			s-1-0.1-2-0.4c-1-0.3-1.4-0.9-1.5-1.1c-0.1-0.2,0.1-0.6,0.2-0.8c0.1-0.1,1.8-0.2,1.8-1.7c-0.1-1.7-2.8-1.2-3.2-1.1
			c-0.3-0.1-3.1-0.5-3.2,1.1c-0.1,1.4,1.6,1.5,1.8,1.7c0.1,0.1,0.3,0.6,0.2,0.8c-0.1,0.2-0.5,0.8-1.5,1.1c-1,0.3-2,0.4-2,0.4
			s0.2,0.3,0.5,0.6c0.2,0,1.3-0.3,2-0.7c0.7-0.5,1.3-1.2,1.3-1.2s0.1,0.3,0,0.6c0,0-0.4,0.8-0.9,1.1c-0.8,0.5-1.7,0.6-1.9,0.6
			c0.3,0.2,0.5,0.3,0.8,0.3c1.7-0.1,2.4-2,2.4-2s0.2,0.2,0.5,0.2h0c0.3,0,0.5-0.2,0.5-0.2s0.7,1.9,2.4,2c0.3,0,0.5-0.1,0.8-0.3
			c-0.2,0-1.1-0.1-1.9-0.6C18.7,54,18.3,53.2,18.3,53.2"/>
		<path class="st0" d="M21.6,54.5c-0.2-0.1-1.3-0.3-2-0.7c-0.7-0.5-1.3-1.2-1.3-1.2s-0.1,0.3,0,0.6c0,0,0.4,0.8,1,1.1
			c0.8,0.5,1.7,0.6,1.9,0.6h0C21.3,54.8,21.5,54.7,21.6,54.5"/>
		<path class="st0" d="M16.2,49.3c0,0-0.4,0.3-0.5,0.7c0,0.4,0.1,0.8,0.1,0.8s-0.9-0.3-0.9-0.9C15,49.1,16.2,49.3,16.2,49.3"/>
		<path class="st0" d="M18.7,49.3c0,0,0.4,0.3,0.5,0.7c0.1,0.4-0.1,0.8-0.1,0.8S20,50.6,20,50C19.9,49.1,18.7,49.3,18.7,49.3"/>
		<path class="st0" d="M17.5,49.6h-0.1c-1.5,0-0.7,1.4-0.7,1.4s0.3-0.2,0.6-0.2h0.2c0.4,0,0.6,0.2,0.6,0.2S19.1,49.6,17.5,49.6"/>
		<path class="st0" d="M17.5,51.5h-0.2c-0.4,0-0.4,0.2-0.4,0.4c0,0.2,0.1,1,0.4,1h0.1c0.3,0,0.4-0.8,0.4-1
			C17.9,51.7,17.9,51.5,17.5,51.5"/>
	</g>
	<g>
		<path class="st7" d="M44.7,40.4h4.8c2.8,0,4.5,1.7,4.5,4.1v0c0,2.7-2.1,4.2-4.8,4.2h-2v3.6h-2.6C44.7,52.3,44.7,40.4,44.7,40.4z
			 M49.4,46.4c1.3,0,2.1-0.8,2.1-1.8v0c0-1.2-0.8-1.8-2.1-1.8h-2v3.6H49.4z"/>
		<path class="st7" d="M55.7,43.2h2.6V45c0.5-1.3,1.4-2.1,2.9-2v2.7h-0.1c-1.7,0-2.8,1-2.8,3.2v3.4h-2.6V43.2z"/>
		<path class="st7" d="M62.4,47.8L62.4,47.8c0-2.6,1.8-4.8,4.5-4.8c3,0,4.4,2.4,4.4,4.9c0,0.2,0,0.4,0,0.7H65
			c0.3,1.2,1.1,1.8,2.2,1.8c0.9,0,1.5-0.3,2.2-0.9l1.5,1.3c-0.8,1.1-2.1,1.7-3.7,1.7C64.4,52.5,62.4,50.6,62.4,47.8z M68.8,47
			c-0.2-1.2-0.8-1.9-1.9-1.9c-1.1,0-1.8,0.8-2,1.9H68.8z"/>
		<path class="st7" d="M72.5,51.1l1.1-1.7c1,0.7,2,1.1,2.9,1.1c0.7,0,1.1-0.3,1.1-0.7v0c0-0.6-0.9-0.7-1.9-1.1
			c-1.3-0.4-2.7-1-2.7-2.7v0c0-1.8,1.5-2.9,3.3-2.9c1.2,0,2.4,0.4,3.4,1.1l-1,1.8c-0.9-0.5-1.8-0.8-2.5-0.8c-0.6,0-0.9,0.3-0.9,0.6
			v0c0,0.5,0.9,0.7,1.8,1.1c1.3,0.4,2.7,1,2.7,2.7v0c0,2-1.5,2.9-3.5,2.9C75.1,52.4,73.7,52,72.5,51.1z"/>
		<path class="st7" d="M81.8,39.9h2.7v2.3h-2.7V39.9z M81.9,43.2h2.6v9.1h-2.6V43.2z"/>
		<path class="st7" d="M86.5,47.7L86.5,47.7c0-3.1,2-4.7,4.1-4.7c1.4,0,2.2,0.6,2.8,1.4v-4.5H96v12.4h-2.6V51
			c-0.6,0.8-1.5,1.5-2.8,1.5C88.5,52.4,86.5,50.8,86.5,47.7z M93.5,47.7L93.5,47.7c0-1.5-1-2.5-2.2-2.5s-2.2,1-2.2,2.5v0
			c0,1.5,1,2.5,2.2,2.5C92.5,50.2,93.5,49.2,93.5,47.7z"/>
		<path class="st7" d="M97.9,47.8L97.9,47.8c0-2.6,1.8-4.8,4.5-4.8c3,0,4.4,2.4,4.4,4.9c0,0.2,0,0.4,0,0.7h-6.3
			c0.3,1.2,1.1,1.8,2.2,1.8c0.9,0,1.5-0.3,2.2-0.9l1.5,1.3c-0.8,1.1-2.1,1.7-3.7,1.7C99.9,52.5,97.9,50.6,97.9,47.8z M104.3,47
			c-0.2-1.2-0.8-1.9-1.9-1.9c-1.1,0-1.8,0.8-2,1.9H104.3z"/>
		<path class="st7" d="M108.7,43.2h2.6v1.3c0.6-0.8,1.4-1.5,2.7-1.5c1.9,0,3.1,1.3,3.1,3.4v5.9h-2.6v-5.1c0-1.2-0.6-1.9-1.6-1.9
			s-1.6,0.6-1.6,1.9v5.1h-2.6L108.7,43.2L108.7,43.2z"/>
		<path class="st7" d="M118.8,47.8L118.8,47.8c0-2.6,2-4.8,4.8-4.8c1.7,0,2.8,0.6,3.6,1.5l-1.6,1.7c-0.6-0.6-1.2-1-2.1-1
			c-1.3,0-2.2,1.1-2.2,2.5v0c0,1.4,0.9,2.5,2.3,2.5c0.9,0,1.5-0.4,2.1-1l1.5,1.5c-0.9,1-1.9,1.7-3.7,1.7
			C120.8,52.5,118.8,50.4,118.8,47.8z"/>
		<path class="st7" d="M129,39.9h2.7v2.3H129V39.9z M129.1,43.2h2.6v9.1h-2.6V43.2z"/>
		<path class="st7" d="M133.5,49.7L133.5,49.7c0-2,1.5-2.9,3.7-2.9c0.9,0,1.6,0.2,2.2,0.4v-0.1c0-1.1-0.7-1.7-1.9-1.7
			c-1,0-1.7,0.2-2.5,0.5l-0.6-2c1-0.4,2-0.7,3.5-0.7c1.4,0,2.4,0.4,3.1,1c0.7,0.7,1,1.7,1,2.9v5.3h-2.5v-1c-0.6,0.7-1.5,1.2-2.7,1.2
			C134.9,52.4,133.5,51.5,133.5,49.7z M139.4,49.1v-0.5c-0.4-0.2-1-0.3-1.6-0.3c-1.1,0-1.8,0.4-1.8,1.3v0c0,0.7,0.6,1.1,1.4,1.1
			C138.6,50.7,139.4,50,139.4,49.1z"/>
		<path class="st7" d="M148.8,47.7L148.8,47.7c0-3.1,2-4.7,4.1-4.7c1.4,0,2.2,0.6,2.8,1.4v-4.5h2.6v12.4h-2.6V51
			c-0.6,0.8-1.5,1.5-2.8,1.5C150.8,52.4,148.8,50.8,148.8,47.7z M155.8,47.7L155.8,47.7c0-1.5-1-2.5-2.2-2.5s-2.2,1-2.2,2.5v0
			c0,1.5,1,2.5,2.2,2.5C154.8,50.2,155.8,49.2,155.8,47.7z"/>
		<path class="st7" d="M160.2,47.8L160.2,47.8c0-2.6,1.8-4.8,4.5-4.8c3,0,4.4,2.4,4.4,4.9c0,0.2,0,0.4,0,0.7h-6.3
			c0.3,1.2,1.1,1.8,2.2,1.8c0.9,0,1.5-0.3,2.2-0.9l1.5,1.3c-0.8,1.1-2.1,1.7-3.7,1.7C162.2,52.5,160.2,50.6,160.2,47.8z M166.6,47
			c-0.2-1.2-0.8-1.9-1.9-1.9c-1.1,0-1.8,0.8-2,1.9H166.6z"/>
		<path class="st7" d="M176.2,39.9h2.6v12.4h-2.6V39.9z"/>
		<path class="st7" d="M180.7,49.7L180.7,49.7c0-2,1.5-2.9,3.7-2.9c0.9,0,1.6,0.2,2.2,0.4v-0.1c0-1.1-0.7-1.7-1.9-1.7
			c-1,0-1.7,0.2-2.5,0.5l-0.6-2c1-0.4,2-0.7,3.5-0.7c1.4,0,2.4,0.4,3.1,1c0.7,0.7,1,1.7,1,2.9v5.3h-2.5v-1c-0.6,0.7-1.5,1.2-2.7,1.2
			C182.1,52.4,180.7,51.5,180.7,49.7z M186.6,49.1v-0.5c-0.4-0.2-1-0.3-1.6-0.3c-1.1,0-1.8,0.4-1.8,1.3v0c0,0.7,0.6,1.1,1.4,1.1
			C185.8,50.7,186.6,50,186.6,49.1z"/>
		<path class="st7" d="M196.6,40.4h2.4l5.6,7.3v-7.3h2.6v11.9H205l-5.7-7.5v7.5h-2.6L196.6,40.4L196.6,40.4z"/>
		<path class="st7" d="M209.2,49.7L209.2,49.7c0-2,1.5-2.9,3.7-2.9c0.9,0,1.6,0.2,2.2,0.4v-0.1c0-1.1-0.7-1.7-1.9-1.7
			c-1,0-1.7,0.2-2.5,0.5l-0.6-2c1-0.4,2-0.7,3.5-0.7c1.4,0,2.4,0.4,3.1,1c0.7,0.7,1,1.7,1,2.9v5.3h-2.5v-1c-0.6,0.7-1.5,1.2-2.7,1.2
			C210.6,52.4,209.2,51.5,209.2,49.7z M215.1,49.1v-0.5c-0.4-0.2-1-0.3-1.6-0.3c-1.1,0-1.8,0.4-1.8,1.3v0c0,0.7,0.6,1.1,1.4,1.1
			C214.3,50.7,215.1,50,215.1,49.1z"/>
		<path class="st7" d="M219.4,47.8L219.4,47.8c0-2.6,2-4.8,4.8-4.8c1.7,0,2.8,0.6,3.6,1.5l-1.6,1.7c-0.6-0.6-1.2-1-2.1-1
			c-1.3,0-2.2,1.1-2.2,2.5v0c0,1.4,0.9,2.5,2.3,2.5c0.9,0,1.5-0.4,2.1-1l1.5,1.5c-0.9,1-1.9,1.7-3.7,1.7
			C221.4,52.5,219.4,50.4,219.4,47.8z"/>
		<path class="st7" d="M229.5,39.9h2.7v2.3h-2.7V39.9z M229.6,43.2h2.6v9.1h-2.6V43.2z"/>
		<path class="st7" d="M234.2,47.8L234.2,47.8c0-2.6,2.1-4.8,4.9-4.8c2.8,0,4.9,2.1,4.9,4.7v0c0,2.6-2.1,4.7-4.9,4.7
			C236.2,52.5,234.2,50.4,234.2,47.8z M241.4,47.8L241.4,47.8c0-1.4-1-2.5-2.4-2.5c-1.5,0-2.4,1.1-2.4,2.5v0c0,1.3,1,2.5,2.4,2.5
			C240.6,50.2,241.4,49.1,241.4,47.8z M239.9,39.2l2.2,1l-2.2,2h-1.9L239.9,39.2z"/>
		<path class="st7" d="M245.9,43.2h2.6v1.3c0.6-0.8,1.4-1.5,2.7-1.5c2,0,3.1,1.3,3.1,3.4v5.9h-2.6v-5.1c0-1.2-0.6-1.9-1.6-1.9
			c-1,0-1.6,0.6-1.6,1.9v5.1h-2.6V43.2z"/>
	</g>
	<g>
		<g>
			<path class="st8" d="M45.7,7.6h2.2l2.4,3.9l2.4-3.9h2.2v9.1h-2v-5.9l-2.6,3.9h-0.1l-2.5-3.9v5.9h-2L45.7,7.6L45.7,7.6z"/>
			<path class="st8" d="M56.6,7.2h2.1V9h-2.1V7.2z M56.6,9.7h2v7h-2V9.7z"/>
			<path class="st8" d="M60.2,9.7h2v1c0.5-0.6,1-1.1,2-1.1c1.5,0,2.4,1,2.4,2.6v4.5h-2v-3.9c0-0.9-0.4-1.4-1.2-1.4s-1.2,0.5-1.2,1.4
				v3.9h-2L60.2,9.7L60.2,9.7z"/>
			<path class="st8" d="M68.1,7.2h2.1V9h-2.1V7.2z M68.1,9.7h2v7h-2V9.7z"/>
			<path class="st8" d="M71.2,15.8l0.8-1.3c0.8,0.5,1.5,0.8,2.2,0.8c0.6,0,0.8-0.2,0.8-0.5v0c0-0.4-0.7-0.6-1.4-0.8
				c-1-0.3-2.1-0.7-2.1-2.1v0c0-1.4,1.1-2.2,2.6-2.2c0.9,0,1.8,0.3,2.6,0.8l-0.8,1.4c-0.7-0.4-1.4-0.6-1.9-0.6
				c-0.5,0-0.7,0.2-0.7,0.5v0c0,0.4,0.7,0.6,1.4,0.8c1,0.3,2.1,0.8,2.1,2.1v0c0,1.5-1.2,2.3-2.7,2.3C73.2,16.8,72.1,16.5,71.2,15.8z
				"/>
			<path class="st8" d="M78.3,14.7v-3.3h-0.8V9.7h0.8V7.9h2v1.8h1.6v1.7h-1.6v3c0,0.5,0.2,0.7,0.6,0.7c0.4,0,0.7-0.1,1-0.2v1.6
				c-0.4,0.2-0.9,0.4-1.6,0.4C79.1,16.8,78.3,16.3,78.3,14.7z"/>
			<path class="st8" d="M82.8,13.3L82.8,13.3c0-2,1.4-3.7,3.4-3.7c2.3,0,3.4,1.8,3.4,3.8c0,0.2,0,0.3,0,0.5h-4.9
				c0.2,0.9,0.8,1.4,1.7,1.4c0.7,0,1.1-0.2,1.7-0.7l1.1,1c-0.7,0.8-1.6,1.3-2.9,1.3C84.3,16.9,82.8,15.4,82.8,13.3z M87.7,12.7
				c-0.1-0.9-0.6-1.5-1.5-1.5c-0.8,0-1.4,0.6-1.5,1.5H87.7z"/>
			<path class="st8" d="M90.8,9.7h2v1.4c0.4-1,1.1-1.6,2.2-1.5v2.1h-0.1c-1.3,0-2.1,0.8-2.1,2.5v2.6h-2V9.7z"/>
			<path class="st8" d="M96.1,7.2h2.1V9h-2.1V7.2z M96.1,9.7h2v7h-2V9.7z"/>
			<path class="st8" d="M99.3,13.3L99.3,13.3c0-2,1.6-3.7,3.8-3.7c2.2,0,3.8,1.6,3.8,3.6v0c0,2-1.6,3.6-3.8,3.6
				C100.9,16.9,99.3,15.3,99.3,13.3z M104.9,13.3L104.9,13.3c0-1.1-0.7-2-1.8-2c-1.1,0-1.8,0.9-1.8,1.9v0c0,1,0.7,1.9,1.8,1.9
				C104.3,15.2,104.9,14.3,104.9,13.3z"/>
			<path class="st8" d="M111.4,13.2L111.4,13.2c0-2.4,1.5-3.6,3.2-3.6c1.1,0,1.7,0.5,2.2,1V7.2h2v9.5h-2v-1
				c-0.5,0.7-1.1,1.1-2.2,1.1C112.9,16.8,111.4,15.6,111.4,13.2z M116.8,13.2L116.8,13.2c0-1.2-0.8-2-1.7-2s-1.7,0.8-1.7,1.9v0
				c0,1.2,0.8,1.9,1.7,1.9S116.8,14.4,116.8,13.2z"/>
			<path class="st8" d="M119.9,13.3L119.9,13.3c0-2,1.4-3.7,3.4-3.7c2.3,0,3.4,1.8,3.4,3.8c0,0.2,0,0.3,0,0.5h-4.9
				c0.2,0.9,0.8,1.4,1.7,1.4c0.7,0,1.1-0.2,1.7-0.7l1.1,1c-0.7,0.8-1.6,1.3-2.9,1.3C121.4,16.9,119.9,15.4,119.9,13.3z M124.8,12.7
				c-0.1-0.9-0.6-1.5-1.5-1.5c-0.8,0-1.4,0.6-1.5,1.5H124.8z"/>
			<path class="st8" d="M130.9,15.5l1.3-1.4c0.5,0.6,1,0.9,1.7,0.9c0.8,0,1.2-0.5,1.2-1.5V7.6h2.1v6c0,1.1-0.3,1.9-0.9,2.4
				c-0.6,0.6-1.4,0.8-2.4,0.8C132.5,16.8,131.5,16.2,130.9,15.5z"/>
			<path class="st8" d="M138.6,14.2V9.7h2v3.9c0,0.9,0.4,1.4,1.2,1.4s1.2-0.5,1.2-1.4V9.7h2v7h-2v-1c-0.5,0.6-1,1.1-2,1.1
				C139.5,16.8,138.6,15.8,138.6,14.2z"/>
			<path class="st8" d="M146,15.8l0.8-1.3c0.8,0.5,1.5,0.8,2.2,0.8c0.6,0,0.8-0.2,0.8-0.5v0c0-0.4-0.7-0.6-1.4-0.8
				c-1-0.3-2.1-0.7-2.1-2.1v0c0-1.4,1.1-2.2,2.6-2.2c0.9,0,1.8,0.3,2.6,0.8l-0.8,1.4c-0.7-0.4-1.4-0.6-1.9-0.6
				c-0.5,0-0.7,0.2-0.7,0.5v0c0,0.4,0.7,0.6,1.4,0.8c1,0.3,2.1,0.8,2.1,2.1v0c0,1.5-1.2,2.3-2.7,2.3C148,16.8,146.9,16.5,146,15.8z"
				/>
			<path class="st8" d="M153.1,14.7v-3.3h-0.8V9.7h0.8V7.9h2v1.8h1.6v1.7h-1.6v3c0,0.5,0.2,0.7,0.6,0.7c0.4,0,0.7-0.1,1-0.2v1.6
				c-0.4,0.2-0.9,0.4-1.6,0.4C153.9,16.8,153.1,16.3,153.1,14.7z"/>
			<path class="st8" d="M158,7.2h2.1V9H158V7.2z M158,9.7h2v7h-2V9.7z"/>
			<path class="st8" d="M161.3,13.3L161.3,13.3c0-2,1.5-3.7,3.7-3.7c1.3,0,2.1,0.4,2.8,1.2l-1.2,1.3c-0.4-0.5-0.9-0.8-1.6-0.8
				c-1,0-1.7,0.9-1.7,1.9v0c0,1.1,0.7,1.9,1.8,1.9c0.7,0,1.1-0.3,1.6-0.7l1.2,1.2c-0.7,0.7-1.5,1.3-2.9,1.3
				C162.8,16.9,161.3,15.2,161.3,13.3z"/>
			<path class="st8" d="M168.8,7.2h2.1V9h-2.1V7.2z M168.9,9.7h2v7h-2V9.7z"/>
			<path class="st8" d="M172,14.7L172,14.7c0-1.5,1.2-2.3,2.8-2.3c0.7,0,1.2,0.1,1.7,0.3v-0.1c0-0.8-0.5-1.3-1.5-1.3
				c-0.8,0-1.3,0.1-1.9,0.4l-0.5-1.5c0.8-0.3,1.5-0.6,2.7-0.6c1.1,0,1.9,0.3,2.4,0.8c0.5,0.5,0.8,1.3,0.8,2.2v4h-1.9V16
				c-0.5,0.5-1.1,0.9-2.1,0.9C173.1,16.8,172,16.1,172,14.7z M176.6,14.2v-0.4c-0.3-0.2-0.8-0.3-1.3-0.3c-0.8,0-1.4,0.3-1.4,1v0
				c0,0.5,0.4,0.8,1.1,0.8C176,15.5,176.6,15,176.6,14.2z"/>
			<path class="st8" d="M45.4,32.2l0.7-1.4c0.3,0.2,0.6,0.3,0.8,0.3c0.3,0,0.5-0.1,0.7-0.5l-2.7-7h2.1l1.6,4.8l1.5-4.8h2.1l-2.7,7.1
				c-0.5,1.4-1.1,2-2.3,2C46.4,32.7,45.9,32.5,45.4,32.2z"/>
			<path class="st8" d="M56.9,21.5h3.6c2.9,0,4.8,2,4.8,4.5v0c0,2.6-2,4.6-4.8,4.6h-3.6V21.5z M60.4,28.8c1.6,0,2.7-1.1,2.7-2.7v0
				c0-1.6-1.1-2.7-2.7-2.7h-1.5v5.5H60.4z"/>
			<path class="st8" d="M66.2,27.1L66.2,27.1c0-2,1.4-3.7,3.4-3.7c2.3,0,3.4,1.8,3.4,3.8c0,0.2,0,0.3,0,0.5h-4.9
				c0.2,0.9,0.8,1.4,1.7,1.4c0.7,0,1.1-0.2,1.7-0.7l1.1,1c-0.7,0.8-1.6,1.3-2.9,1.3C67.8,30.7,66.2,29.2,66.2,27.1z M71.2,26.5
				c-0.1-0.9-0.6-1.5-1.5-1.5c-0.8,0-1.4,0.6-1.5,1.5H71.2z"/>
			<path class="st8" d="M74.3,23.6h2V25c0.4-1,1.1-1.6,2.2-1.5v2.1h-0.1c-1.3,0-2.1,0.8-2.1,2.5v2.6h-2V23.6z"/>
			<path class="st8" d="M79.1,27.1L79.1,27.1c0-2,1.4-3.7,3.4-3.7c2.3,0,3.4,1.8,3.4,3.8c0,0.2,0,0.3,0,0.5h-4.9
				c0.2,0.9,0.8,1.4,1.7,1.4c0.7,0,1.1-0.2,1.7-0.7l1.1,1c-0.7,0.8-1.6,1.3-2.9,1.3C80.7,30.7,79.1,29.2,79.1,27.1z M84.1,26.5
				C84,25.6,83.4,25,82.6,25c-0.8,0-1.4,0.6-1.5,1.5H84.1z"/>
			<path class="st8" d="M86.9,27.1L86.9,27.1c0-2,1.5-3.7,3.7-3.7c1.3,0,2.1,0.4,2.8,1.2l-1.2,1.3c-0.4-0.5-0.9-0.8-1.6-0.8
				c-1,0-1.7,0.9-1.7,1.9v0c0,1.1,0.7,1.9,1.8,1.9c0.7,0,1.1-0.3,1.6-0.7l1.2,1.2c-0.7,0.7-1.5,1.3-2.8,1.3
				C88.4,30.7,86.9,29.1,86.9,27.1z"/>
			<path class="st8" d="M94.4,21.1h2v3.5c0.5-0.6,1-1.1,2-1.1c1.5,0,2.4,1,2.4,2.6v4.5h-2v-3.9c0-0.9-0.4-1.4-1.2-1.4
				s-1.2,0.5-1.2,1.4v3.9h-2L94.4,21.1L94.4,21.1z"/>
			<path class="st8" d="M101.9,27.1L101.9,27.1c0-2,1.6-3.7,3.8-3.7c2.2,0,3.8,1.6,3.8,3.6v0c0,2-1.6,3.6-3.8,3.6
				C103.5,30.7,101.9,29.1,101.9,27.1z M107.5,27.1L107.5,27.1c0-1.1-0.7-2-1.8-2c-1.1,0-1.8,0.9-1.8,1.9v0c0,1,0.7,1.9,1.8,1.9
				C106.8,29,107.5,28.1,107.5,27.1z"/>
			<path class="st8" d="M110.1,29.6l0.8-1.3c0.8,0.5,1.5,0.8,2.2,0.8c0.6,0,0.8-0.2,0.8-0.5v0c0-0.4-0.7-0.6-1.4-0.8
				c-1-0.3-2.1-0.7-2.1-2.1v0c0-1.4,1.1-2.2,2.6-2.2c0.9,0,1.8,0.3,2.6,0.8l-0.8,1.4c-0.7-0.4-1.4-0.6-1.9-0.6
				c-0.5,0-0.7,0.2-0.7,0.5v0c0,0.4,0.7,0.6,1.4,0.8c1,0.3,2.1,0.8,2.1,2.1v0c0,1.5-1.2,2.3-2.7,2.3C112.1,30.7,111,30.4,110.1,29.6
				z"/>
			<path class="st8" d="M120.7,21.5h2v3.6h3.7v-3.6h2v9.1h-2v-3.7h-3.7v3.7h-2V21.5z"/>
			<path class="st8" d="M130.1,28.1v-4.5h2v3.9c0,0.9,0.4,1.4,1.2,1.4s1.2-0.5,1.2-1.4v-3.9h2v7h-2v-1c-0.5,0.6-1,1.1-2,1.1
				C131,30.7,130.1,29.7,130.1,28.1z"/>
			<path class="st8" d="M138,23.6h2v1c0.5-0.6,1.1-1.1,2.1-1.1c0.9,0,1.6,0.4,2,1.1c0.6-0.7,1.3-1.1,2.3-1.1c1.5,0,2.4,0.9,2.4,2.6
				v4.5h-2v-3.9c0-0.9-0.4-1.4-1.2-1.4c-0.7,0-1.2,0.5-1.2,1.4v3.9h-2v-3.9c0-0.9-0.4-1.4-1.2-1.4c-0.7,0-1.2,0.5-1.2,1.4v3.9h-2
				L138,23.6L138,23.6z"/>
			<path class="st8" d="M149.7,28.6L149.7,28.6c0-1.5,1.2-2.2,2.8-2.2c0.7,0,1.2,0.1,1.7,0.3v-0.1c0-0.8-0.5-1.3-1.5-1.3
				c-0.8,0-1.3,0.1-1.9,0.4l-0.5-1.5c0.8-0.3,1.5-0.6,2.7-0.6c1.1,0,1.9,0.3,2.4,0.8c0.5,0.5,0.8,1.3,0.8,2.2v4h-1.9v-0.8
				c-0.5,0.5-1.1,0.9-2.1,0.9C150.8,30.7,149.7,29.9,149.7,28.6z M154.2,28.1v-0.4c-0.3-0.2-0.8-0.3-1.3-0.3c-0.8,0-1.4,0.3-1.4,1v0
				c0,0.5,0.4,0.8,1.1,0.8C153.6,29.3,154.2,28.8,154.2,28.1z"/>
			<path class="st8" d="M157.6,23.6h2v1c0.5-0.6,1-1.1,2-1.1c1.5,0,2.4,1,2.4,2.6v4.5h-2v-3.9c0-0.9-0.4-1.4-1.2-1.4
				s-1.2,0.5-1.2,1.4v3.9h-2V23.6z"/>
			<path class="st8" d="M165.1,27.1L165.1,27.1c0-2,1.6-3.7,3.8-3.7c2.2,0,3.8,1.6,3.8,3.6v0c0,2-1.6,3.6-3.8,3.6
				C166.7,30.7,165.1,29.1,165.1,27.1z M170.7,27.1L170.7,27.1c0-1.1-0.7-2-1.8-2c-1.1,0-1.8,0.9-1.8,1.9v0c0,1,0.7,1.9,1.8,1.9
				C170,29,170.7,28.1,170.7,27.1z"/>
			<path class="st8" d="M173.2,29.6l0.8-1.3c0.8,0.5,1.5,0.8,2.2,0.8c0.6,0,0.8-0.2,0.8-0.5v0c0-0.4-0.7-0.6-1.4-0.8
				c-1-0.3-2.1-0.7-2.1-2.1v0c0-1.4,1.1-2.2,2.6-2.2c0.9,0,1.8,0.3,2.6,0.8l-0.8,1.4c-0.7-0.4-1.4-0.6-1.9-0.6
				c-0.5,0-0.7,0.2-0.7,0.5v0c0,0.4,0.7,0.6,1.4,0.8c1,0.3,2.1,0.8,2.1,2.1v0c0,1.5-1.2,2.3-2.7,2.3
				C175.3,30.7,174.2,30.4,173.2,29.6z"/>
		</g>
	</g>
</g>
</svg>
