<?xml version="1.0" encoding="utf-8"?>
<!-- Generator: Adobe Illustrator 22.0.1, SVG Export Plug-In . SVG Version: 6.00 Build 0)  -->
<svg version="1.1" id="Capa_2_1_" xmlns="http://www.w3.org/2000/svg" xmlns:xlink="http://www.w3.org/1999/xlink" x="0px" y="0px"
	 viewBox="0 0 204.6 35" style="enable-background:new 0 0 204.6 35;" xml:space="preserve">
<style type="text/css">
	.st0{enable-background:new    ;}
	.st1{fill:#0094D4;}
</style>
<g class="st0">
	<path class="st1" d="M0.8,2.3h2l3.3,5.1l3.3-5.1h2v10.8H9.6V5.4l-3.4,5.1H6.1L2.7,5.4v7.7H0.8V2.3z"/>
	<path class="st1" d="M14.1,1.9h2v1.8h-2V1.9z M14.2,5H16v8.2h-1.9V5z"/>
	<path class="st1" d="M18.5,5h1.9v1.3c0.5-0.8,1.3-1.4,2.6-1.4c1.8,0,2.9,1.2,2.9,3.1v5.2H24V8.5c0-1.3-0.6-2-1.8-2
		c-1.1,0-1.8,0.8-1.8,2v4.6h-1.9V5z"/>
	<path class="st1" d="M28.1,1.9h2v1.8h-2V1.9z M28.2,5h1.9v8.2h-1.9V5z"/>
	<path class="st1" d="M31.8,12.1l0.8-1.3c0.9,0.7,1.8,1,2.7,1c0.8,0,1.3-0.3,1.3-0.9v0c0-0.6-0.9-0.9-1.8-1.1
		c-1.2-0.3-2.6-0.8-2.6-2.4v0c0-1.5,1.3-2.5,2.9-2.5c1,0,2.1,0.4,3,0.9l-0.7,1.3c-0.8-0.5-1.6-0.8-2.3-0.8c-0.7,0-1.1,0.3-1.1,0.8v0
		c0,0.6,0.9,0.9,1.8,1.2c1.2,0.4,2.5,0.9,2.5,2.4v0c0,1.7-1.3,2.6-3,2.6C34.2,13.3,32.9,12.9,31.8,12.1z"/>
	<path class="st1" d="M40.5,10.9V6.6h-1V5h1V2.7h1.9V5h2.2v1.6h-2.2v4c0,0.7,0.4,1,1,1c0.4,0,0.8-0.1,1.2-0.3v1.5
		c-0.5,0.3-1,0.4-1.7,0.4C41.5,13.3,40.5,12.7,40.5,10.9z"/>
	<path class="st1" d="M45.8,9.1L45.8,9.1c0-2.4,1.7-4.3,4-4.3c2.6,0,3.9,2,3.9,4.4c0,0.2,0,0.3,0,0.5h-6c0.2,1.3,1.1,2.1,2.4,2.1
		c0.9,0,1.6-0.3,2.2-1l1.1,1c-0.8,0.9-1.8,1.5-3.3,1.5C47.6,13.3,45.8,11.6,45.8,9.1z M51.9,8.5c-0.1-1.2-0.8-2.2-2.1-2.2
		c-1.1,0-2,0.9-2.1,2.2H51.9z"/>
	<path class="st1" d="M55.6,5h1.9v1.8c0.5-1.2,1.5-2.1,2.9-2v2h-0.1c-1.6,0-2.8,1.1-2.8,3.2v3.1h-1.9V5z"/>
	<path class="st1" d="M62,1.9h2v1.8h-2V1.9z M62.1,5H64v8.2h-1.9V5z"/>
	<path class="st1" d="M66,9.1L66,9.1c0-2.4,1.9-4.3,4.4-4.3c2.5,0,4.4,1.9,4.4,4.2v0c0,2.3-1.9,4.3-4.4,4.3
		C67.8,13.3,66,11.4,66,9.1z M72.8,9.1L72.8,9.1c0-1.5-1-2.7-2.5-2.7c-1.5,0-2.5,1.2-2.5,2.6v0c0,1.4,1,2.6,2.5,2.6
		C71.9,11.7,72.8,10.5,72.8,9.1z"/>
	<path class="st1" d="M80.8,9.1L80.8,9.1c0-2.7,1.8-4.3,3.8-4.3c1.3,0,2.2,0.7,2.8,1.4V1.9h1.9v11.3h-1.9v-1.4
		c-0.6,0.9-1.5,1.5-2.8,1.5C82.7,13.3,80.8,11.8,80.8,9.1z M87.4,9.1L87.4,9.1c0-1.6-1.1-2.6-2.4-2.6c-1.3,0-2.4,1-2.4,2.6v0
		c0,1.6,1.1,2.6,2.4,2.6C86.3,11.7,87.4,10.7,87.4,9.1z"/>
	<path class="st1" d="M91.2,9.1L91.2,9.1c0-2.4,1.7-4.3,4-4.3c2.6,0,3.9,2,3.9,4.4c0,0.2,0,0.3,0,0.5h-6c0.2,1.3,1.1,2.1,2.4,2.1
		c0.9,0,1.6-0.3,2.2-1l1.1,1c-0.8,0.9-1.8,1.5-3.3,1.5C93,13.3,91.2,11.6,91.2,9.1z M97.2,8.5c-0.1-1.2-0.8-2.2-2.1-2.2
		c-1.1,0-2,0.9-2.1,2.2H97.2z"/>
	<path class="st1" d="M106,2.3h1.9v10.8H106V2.3z"/>
	<path class="st1" d="M110.5,5h1.9v1.3c0.5-0.8,1.3-1.4,2.6-1.4c1.8,0,2.9,1.2,2.9,3.1v5.2H116V8.5c0-1.3-0.6-2-1.8-2
		c-1.1,0-1.8,0.8-1.8,2v4.6h-1.9V5z"/>
	<path class="st1" d="M120.5,10.9V6.6h-1V5h1V2.7h1.9V5h2.2v1.6h-2.2v4c0,0.7,0.4,1,1,1c0.4,0,0.8-0.1,1.2-0.3v1.5
		c-0.5,0.3-1,0.4-1.7,0.4C121.5,13.3,120.5,12.7,120.5,10.9z"/>
	<path class="st1" d="M125.8,9.1L125.8,9.1c0-2.4,1.7-4.3,4-4.3c2.6,0,3.9,2,3.9,4.4c0,0.2,0,0.3,0,0.5h-6c0.2,1.3,1.1,2.1,2.4,2.1
		c0.9,0,1.6-0.3,2.2-1l1.1,1c-0.8,0.9-1.8,1.5-3.3,1.5C127.6,13.3,125.8,11.6,125.8,9.1z M131.9,8.5c-0.1-1.2-0.8-2.2-2.1-2.2
		c-1.1,0-2,0.9-2.1,2.2H131.9z"/>
	<path class="st1" d="M135.6,5h1.9v1.8c0.5-1.2,1.5-2.1,2.9-2v2h-0.1c-1.6,0-2.8,1.1-2.8,3.2v3.1h-1.9V5z"/>
	<path class="st1" d="M142,1.9h2v1.8h-2V1.9z M142.1,5h1.9v8.2h-1.9V5z"/>
	<path class="st1" d="M146,9.1L146,9.1c0-2.4,1.9-4.3,4.4-4.3c2.5,0,4.4,1.9,4.4,4.2v0c0,2.3-1.9,4.3-4.4,4.3
		C147.8,13.3,146,11.4,146,9.1z M152.8,9.1L152.8,9.1c0-1.5-1-2.7-2.5-2.7c-1.5,0-2.5,1.2-2.5,2.6v0c0,1.4,1,2.6,2.5,2.6
		C151.9,11.7,152.8,10.5,152.8,9.1z"/>
	<path class="st1" d="M156.6,5h1.9v1.8c0.5-1.2,1.5-2.1,2.9-2v2h-0.1c-1.6,0-2.8,1.1-2.8,3.2v3.1h-1.9V5z"/>
	<path class="st1" d="M161,14.6c0.9-0.2,1.4-0.7,1.3-1.5h-0.8V11h2.1v1.8c0,1.7-0.8,2.4-2.4,2.6L161,14.6z"/>
</g>
<g class="st0">
	<path class="st1" d="M0.4,26.4L0.4,26.4c0-3.1,2.4-5.6,5.7-5.6c3.3,0,5.7,2.5,5.7,5.6v0c0,3.1-2.4,5.6-5.7,5.6
		C2.7,31.9,0.4,29.4,0.4,26.4z M9.7,26.4L9.7,26.4c0-2.1-1.5-3.9-3.7-3.9s-3.7,1.7-3.7,3.8v0c0,2.1,1.5,3.8,3.7,3.8
		S9.7,28.5,9.7,26.4z"/>
	<path class="st1" d="M15.7,30.5v1.3h-1.9V20.5h1.9v4.5c0.6-0.9,1.5-1.5,2.8-1.5c1.9,0,3.8,1.5,3.8,4.2v0c0,2.7-1.9,4.2-3.8,4.2
		C17.1,31.9,16.2,31.3,15.7,30.5z M20.3,27.7L20.3,27.7c0-1.6-1.1-2.6-2.3-2.6s-2.4,1.1-2.4,2.6v0c0,1.6,1.1,2.6,2.4,2.6
		C19.3,30.3,20.3,29.3,20.3,27.7z"/>
	<path class="st1" d="M24.2,23.6H26v1.8c0.5-1.2,1.5-2.1,2.9-2v2h-0.1c-1.6,0-2.8,1.1-2.8,3.2v3.1h-1.9V23.6z"/>
	<path class="st1" d="M29.6,29.4L29.6,29.4c0-1.8,1.4-2.7,3.4-2.7c0.9,0,1.6,0.1,2.2,0.3v-0.2c0-1.2-0.7-1.8-2-1.8
		c-0.9,0-1.6,0.2-2.3,0.5l-0.5-1.5c0.9-0.4,1.8-0.7,3.1-0.7c1.2,0,2.1,0.3,2.7,0.9c0.6,0.6,0.9,1.5,0.9,2.5v4.8h-1.8v-1
		c-0.6,0.7-1.4,1.2-2.7,1.2C31,31.9,29.6,31,29.6,29.4z M35.2,28.8v-0.6c-0.5-0.2-1.1-0.3-1.9-0.3c-1.2,0-1.9,0.5-1.9,1.4v0
		c0,0.8,0.7,1.2,1.6,1.2C34.3,30.6,35.2,29.9,35.2,28.8z"/>
	<path class="st1" d="M38.6,30.7l0.8-1.3c0.9,0.7,1.8,1,2.7,1c0.8,0,1.3-0.3,1.3-0.9v0c0-0.6-0.9-0.9-1.8-1.1C40.3,28,39,27.5,39,26
		v0c0-1.5,1.3-2.5,2.9-2.5c1,0,2.1,0.4,3,0.9l-0.7,1.3c-0.8-0.5-1.6-0.8-2.3-0.8c-0.7,0-1.1,0.3-1.1,0.8v0c0,0.6,0.9,0.9,1.8,1.2
		c1.2,0.4,2.5,0.9,2.5,2.4v0c0,1.7-1.3,2.6-3,2.6C40.9,31.9,39.6,31.5,38.6,30.7z"/>
	<path class="st1" d="M51.9,20.9h4.3c2.5,0,4.1,1.4,4.1,3.6v0c0,2.4-2,3.7-4.3,3.7h-2.2v3.5h-1.9V20.9z M56,26.6
		c1.4,0,2.3-0.8,2.3-1.9v0c0-1.3-0.9-1.9-2.3-1.9h-2.2v3.9H56z"/>
	<path class="st1" d="M61.9,28.8v-5.2h1.9v4.6c0,1.3,0.6,2,1.8,2c1.1,0,1.8-0.7,1.8-2v-4.6h1.9v8.2h-1.9v-1.3
		c-0.5,0.8-1.3,1.4-2.6,1.4C63,31.9,61.9,30.7,61.9,28.8z M66.4,20l1.7,0.8l-1.9,1.8h-1.4L66.4,20z"/>
	<path class="st1" d="M73.5,30.5v1.3h-1.9V20.5h1.9v4.5c0.6-0.9,1.5-1.5,2.8-1.5c1.9,0,3.8,1.5,3.8,4.2v0c0,2.7-1.9,4.2-3.8,4.2
		C74.9,31.9,74.1,31.3,73.5,30.5z M78.2,27.7L78.2,27.7c0-1.6-1.1-2.6-2.3-2.6s-2.4,1.1-2.4,2.6v0c0,1.6,1.1,2.6,2.4,2.6
		C77.1,30.3,78.2,29.3,78.2,27.7z"/>
	<path class="st1" d="M82.1,20.5H84v11.3h-1.9V20.5z"/>
	<path class="st1" d="M86.5,20.5h2v1.8h-2V20.5z M86.5,23.6h1.9v8.2h-1.9V23.6z"/>
	<path class="st1" d="M90.4,27.7L90.4,27.7c0-2.4,1.8-4.3,4.3-4.3c1.5,0,2.5,0.6,3.3,1.4l-1.2,1.3c-0.6-0.6-1.2-1-2.1-1
		c-1.4,0-2.4,1.2-2.4,2.6v0c0,1.5,1,2.6,2.4,2.6c0.9,0,1.5-0.4,2.1-1l1.1,1.1c-0.8,0.9-1.8,1.5-3.3,1.5C92.2,31.9,90.4,30,90.4,27.7
		z"/>
	<path class="st1" d="M99.2,29.4L99.2,29.4c0-1.8,1.4-2.7,3.4-2.7c0.9,0,1.6,0.1,2.2,0.3v-0.2c0-1.2-0.7-1.8-2-1.8
		c-0.9,0-1.6,0.2-2.3,0.5l-0.5-1.5c0.9-0.4,1.8-0.7,3.1-0.7c1.2,0,2.1,0.3,2.7,0.9c0.6,0.6,0.9,1.5,0.9,2.5v4.8h-1.8v-1
		c-0.6,0.7-1.4,1.2-2.7,1.2C100.5,31.9,99.2,31,99.2,29.4z M104.8,28.8v-0.6c-0.5-0.2-1.1-0.3-1.9-0.3c-1.2,0-1.9,0.5-1.9,1.4v0
		c0,0.8,0.7,1.2,1.6,1.2C103.8,30.6,104.8,29.9,104.8,28.8z"/>
	<path class="st1" d="M108.1,30.7l0.8-1.3c0.9,0.7,1.8,1,2.7,1c0.8,0,1.3-0.3,1.3-0.9v0c0-0.6-0.9-0.9-1.8-1.1
		c-1.2-0.3-2.6-0.8-2.6-2.4v0c0-1.5,1.3-2.5,2.9-2.5c1,0,2.1,0.4,3,0.9l-0.7,1.3c-0.8-0.5-1.6-0.8-2.3-0.8c-0.7,0-1.1,0.3-1.1,0.8v0
		c0,0.6,0.9,0.9,1.8,1.2c1.2,0.4,2.5,0.9,2.5,2.4v0c0,1.7-1.3,2.6-3,2.6C110.4,31.9,109.1,31.5,108.1,30.7z"/>
	<path class="st1" d="M126.9,23.6h2l-3.3,8.4c-0.7,1.7-1.4,2.3-2.7,2.3c-0.8,0-1.4-0.2-1.9-0.5l0.6-1.4c0.3,0.2,0.7,0.3,1.1,0.3
		c0.5,0,0.9-0.2,1.2-0.9l-3.4-8.2h2l2.3,6.1L126.9,23.6z"/>
	<path class="st1" d="M134.4,20.9h2.1l3.3,8.3l3.3-8.3h2.1l-4.5,10.9h-1.7L134.4,20.9z"/>
	<path class="st1" d="M146.4,20.5h2v1.8h-2V20.5z M146.5,23.6h1.9v8.2h-1.9V23.6z"/>
	<path class="st1" d="M150,23.6h2l2.2,6l2.2-6h2l-3.3,8.2h-1.7L150,23.6z"/>
	<path class="st1" d="M160,20.5h2v1.8h-2V20.5z M160.1,23.6h1.9v8.2h-1.9V23.6z"/>
	<path class="st1" d="M164,27.7L164,27.7c0-2.4,1.7-4.3,4-4.3c2.6,0,3.9,2,3.9,4.4c0,0.2,0,0.3,0,0.5h-6c0.2,1.3,1.1,2.1,2.4,2.1
		c0.9,0,1.6-0.3,2.2-1l1.1,1c-0.8,0.9-1.8,1.5-3.3,1.5C165.8,31.9,164,30.2,164,27.7z M170,27.1c-0.1-1.2-0.8-2.2-2.1-2.2
		c-1.1,0-2,0.9-2.1,2.2H170z"/>
	<path class="st1" d="M173.8,23.6h1.9v1.3c0.5-0.8,1.3-1.4,2.6-1.4c1.8,0,2.9,1.2,2.9,3.1v5.2h-1.9v-4.6c0-1.3-0.6-2-1.8-2
		c-1.1,0-1.8,0.8-1.8,2v4.6h-1.9V23.6z"/>
	<path class="st1" d="M183,27.7L183,27.7c0-2.7,1.8-4.3,3.8-4.3c1.3,0,2.2,0.7,2.8,1.4v-4.4h1.9v11.3h-1.9v-1.4
		c-0.6,0.9-1.5,1.5-2.8,1.5C184.8,31.9,183,30.4,183,27.7z M189.6,27.7L189.6,27.7c0-1.6-1.1-2.6-2.4-2.6c-1.3,0-2.4,1-2.4,2.6v0
		c0,1.6,1.1,2.6,2.4,2.6C188.5,30.3,189.6,29.3,189.6,27.7z"/>
	<path class="st1" d="M193.2,29.4L193.2,29.4c0-1.8,1.4-2.7,3.4-2.7c0.9,0,1.6,0.1,2.2,0.3v-0.2c0-1.2-0.7-1.8-2-1.8
		c-0.9,0-1.6,0.2-2.3,0.5l-0.5-1.5c0.9-0.4,1.8-0.7,3.1-0.7c1.2,0,2.1,0.3,2.7,0.9c0.6,0.6,0.9,1.5,0.9,2.5v4.8h-1.8v-1
		c-0.6,0.7-1.4,1.2-2.7,1.2C194.6,31.9,193.2,31,193.2,29.4z M198.8,28.8v-0.6c-0.5-0.2-1.1-0.3-1.9-0.3c-1.2,0-1.9,0.5-1.9,1.4v0
		c0,0.8,0.7,1.2,1.6,1.2C197.9,30.6,198.8,29.9,198.8,28.8z"/>
</g>
</svg>
