<?xml version="1.0" encoding="utf-8"?>
<!-- Generator: Adobe Illustrator 22.0.1, SVG Export Plug-In . SVG Version: 6.00 Build 0)  -->
<svg version="1.1" id="Capa_2" xmlns="http://www.w3.org/2000/svg" xmlns:xlink="http://www.w3.org/1999/xlink" x="0px" y="0px"
	 viewBox="0 0 149.7 13" style="enable-background:new 0 0 149.7 13;" xml:space="preserve">
<style type="text/css">
	.st0{fill:#0094D4;}
</style>
<g>
	<path class="st0" d="M0.6,1.3h2l3.3,5.1l3.3-5.1h2v10.8H9.3V4.4L5.9,9.5H5.8L2.4,4.4v7.7H0.6V1.3z"/>
	<path class="st0" d="M14,0.9h2v1.8h-2V0.9z M14,4h1.9v8.2H14V4z"/>
	<path class="st0" d="M18.5,4h1.9v1.3c0.5-0.8,1.3-1.4,2.6-1.4c1.8,0,2.9,1.2,2.9,3.1v5.2H24V7.5c0-1.3-0.6-2-1.8-2
		c-1.1,0-1.8,0.8-1.8,2v4.6h-1.9V4z"/>
	<path class="st0" d="M28.3,0.9h2v1.8h-2V0.9z M28.3,4h1.9v8.2h-1.9V4z"/>
	<path class="st0" d="M32.1,11.1L33,9.8c0.9,0.7,1.8,1,2.7,1c0.8,0,1.3-0.3,1.3-0.9v0c0-0.6-0.9-0.9-1.8-1.1
		c-1.2-0.3-2.6-0.8-2.6-2.4v0c0-1.5,1.3-2.5,2.9-2.5c1,0,2.1,0.4,3,0.9l-0.7,1.3c-0.8-0.5-1.6-0.8-2.3-0.8c-0.7,0-1.1,0.3-1.1,0.8v0
		c0,0.6,0.9,0.9,1.8,1.2c1.2,0.4,2.5,0.9,2.5,2.4v0c0,1.7-1.3,2.6-3,2.6C34.4,12.3,33.2,11.9,32.1,11.1z"/>
	<path class="st0" d="M40.9,9.9V5.6h-1V4h1V1.7h1.9V4H45v1.6h-2.2v4c0,0.7,0.4,1,1,1c0.4,0,0.8-0.1,1.2-0.3v1.5
		c-0.5,0.3-1,0.4-1.7,0.4C41.9,12.3,40.9,11.7,40.9,9.9z"/>
	<path class="st0" d="M46.4,8.1L46.4,8.1c0-2.4,1.7-4.3,4-4.3c2.6,0,3.9,2,3.9,4.4c0,0.2,0,0.3,0,0.5h-6c0.2,1.3,1.1,2.1,2.4,2.1
		c0.9,0,1.6-0.3,2.2-1l1.1,1c-0.8,0.9-1.8,1.5-3.3,1.5C48.2,12.3,46.4,10.6,46.4,8.1z M52.4,7.5c-0.1-1.2-0.8-2.2-2.1-2.2
		c-1.1,0-2,0.9-2.1,2.2H52.4z"/>
	<path class="st0" d="M56.3,4h1.9v1.8c0.5-1.2,1.5-2.1,2.9-2v2H61c-1.6,0-2.8,1.1-2.8,3.2v3.1h-1.9V4z"/>
	<path class="st0" d="M62.9,0.9h2v1.8h-2V0.9z M62.9,4h1.9v8.2h-1.9V4z"/>
	<path class="st0" d="M67,8.1L67,8.1c0-2.4,1.9-4.3,4.4-4.3c2.5,0,4.4,1.9,4.4,4.2v0c0,2.3-1.9,4.3-4.4,4.3
		C68.8,12.3,67,10.4,67,8.1z M73.8,8.1L73.8,8.1c0-1.5-1-2.7-2.5-2.7c-1.5,0-2.5,1.2-2.5,2.6v0c0,1.4,1,2.6,2.5,2.6
		C72.8,10.7,73.8,9.5,73.8,8.1z"/>
	<path class="st0" d="M82.1,8.1L82.1,8.1c0-2.7,1.8-4.3,3.8-4.3c1.3,0,2.2,0.7,2.8,1.4V0.9h1.9v11.3h-1.9v-1.4
		c-0.6,0.9-1.5,1.5-2.8,1.5C84,12.3,82.1,10.8,82.1,8.1z M88.7,8.1L88.7,8.1c0-1.6-1.1-2.6-2.4-2.6c-1.3,0-2.4,1-2.4,2.6v0
		c0,1.6,1.1,2.6,2.4,2.6C87.6,10.7,88.7,9.7,88.7,8.1z"/>
	<path class="st0" d="M92.6,8.1L92.6,8.1c0-2.4,1.7-4.3,4-4.3c2.6,0,3.9,2,3.9,4.4c0,0.2,0,0.3,0,0.5h-6c0.2,1.3,1.1,2.1,2.4,2.1
		c0.9,0,1.6-0.3,2.2-1l1.1,1c-0.8,0.9-1.8,1.5-3.3,1.5C94.4,12.3,92.6,10.6,92.6,8.1z M98.6,7.5c-0.1-1.2-0.8-2.2-2.1-2.2
		c-1.1,0-2,0.9-2.1,2.2H98.6z"/>
	<path class="st0" d="M106.8,10.6l1.1-1.4c1,0.9,2.1,1.4,3.4,1.4c1.2,0,1.9-0.6,1.9-1.4v0c0-0.8-0.4-1.2-2.4-1.7
		c-2.3-0.6-3.6-1.2-3.6-3.2v0c0-1.9,1.5-3.1,3.7-3.1c1.6,0,2.8,0.5,3.9,1.4l-1,1.4c-1-0.7-2-1.1-2.9-1.1c-1.1,0-1.8,0.6-1.8,1.3v0
		c0,0.8,0.5,1.2,2.6,1.7c2.3,0.6,3.5,1.4,3.5,3.2v0c0,2-1.6,3.2-3.9,3.2C109.7,12.3,108.1,11.7,106.8,10.6z"/>
	<path class="st0" d="M116.8,9.8L116.8,9.8c0-1.8,1.4-2.7,3.4-2.7c0.9,0,1.6,0.1,2.2,0.3V7.3c0-1.2-0.7-1.8-2-1.8
		c-0.9,0-1.6,0.2-2.3,0.5l-0.5-1.5c0.9-0.4,1.8-0.7,3.1-0.7c1.2,0,2.1,0.3,2.7,0.9c0.6,0.6,0.9,1.5,0.9,2.5v4.8h-1.8v-1
		c-0.6,0.7-1.4,1.2-2.7,1.2C118.2,12.3,116.8,11.4,116.8,9.8z M122.4,9.2V8.7c-0.5-0.2-1.1-0.3-1.9-0.3c-1.2,0-1.9,0.5-1.9,1.4v0
		c0,0.8,0.7,1.2,1.6,1.2C121.5,11,122.4,10.3,122.4,9.2z"/>
	<path class="st0" d="M126.7,0.9h1.9v11.3h-1.9V0.9z"/>
	<path class="st0" d="M131.1,9.2V4h1.9v4.6c0,1.3,0.6,2,1.8,2c1.1,0,1.8-0.7,1.8-2V4h1.9v8.2h-1.9v-1.3c-0.5,0.8-1.3,1.4-2.6,1.4
		C132.1,12.3,131.1,11.1,131.1,9.2z"/>
	<path class="st0" d="M140.5,8.1L140.5,8.1c0-2.7,1.8-4.3,3.8-4.3c1.3,0,2.2,0.7,2.8,1.4V0.9h1.9v11.3h-1.9v-1.4
		c-0.6,0.9-1.5,1.5-2.8,1.5C142.3,12.3,140.5,10.8,140.5,8.1z M147.1,8.1L147.1,8.1c0-1.6-1.1-2.6-2.4-2.6c-1.3,0-2.4,1-2.4,2.6v0
		c0,1.6,1.1,2.6,2.4,2.6C146,10.7,147.1,9.7,147.1,8.1z"/>
</g>
</svg>
