<?xml version="1.0" encoding="utf-8"?>
<!-- Generator: Adobe Illustrator 19.2.1, SVG Export Plug-In . SVG Version: 6.00 Build 0)  -->
<svg version="1.1" id="Layer_1" xmlns="http://www.w3.org/2000/svg" xmlns:xlink="http://www.w3.org/1999/xlink" x="0px" y="0px"
	 viewBox="0 0 463.5 70" style="enable-background:new 0 0 463.5 70;" xml:space="preserve">
<style type="text/css">
	.st0{fill:#F38EA2;}
	.st1{fill:#6D6F71;}
</style>
<g>
	<g>
		<g>
			<rect x="23.1" y="27.4" class="st0" width="71.6" height="2.1"/>
			<path class="st0" d="M58.9,49.2c-2.4,0-4.3,1.9-4.3,4.3v14.9h8.6V53.5C63.2,51.1,61.2,49.2,58.9,49.2z"/>
			<path class="st0" d="M21.1,33.4h1.3v16.8h26v2h-26v16.3h1.7v0H25V55.3h9.6v13.1h0.9v0h1.7v0H38V55.3h9.6v13.1h0.9v0h1.7v0H51
				l0-15.5c0-4.3,3.5-7.9,7.8-7.9c4.3,0,7.9,3.5,7.9,7.9l0,15.5h0.9v0h1.7v0h0.9V55.3h9.6v13.1h0.9v0h1.7v0h0.9V55.3h9.6v13.1h0.9v0
				h1.7V52.1h-26v-2h26l0-16.8h1.3v-2H21.1V33.4z M83.2,39.2c0-2.6,2.2-4.8,4.8-4.8c2.6,0,4.8,2.2,4.8,4.8V47h-9.6V39.2z M70.1,34.7
				h9.6v12.4h-9.6V34.7z M50.9,34.8h16v9.2c-0.6-0.5-1.2-1-1.8-1.4c-0.5-0.3-1-0.6-1.6-0.9c-0.1,0-0.1-0.1-0.2-0.1
				c-0.1,0-0.1,0-0.1-0.1c-1.3-0.6-2.7-0.9-4.2-0.9c-1.5,0-2.9,0.3-4.2,0.9c0,0-0.1,0-0.1,0.1c-0.1,0-0.1,0-0.2,0.1
				c-0.6,0.3-1.2,0.6-1.6,0.9c-0.7,0.4-1.3,0.9-1.8,1.5V34.8z M38,34.8h9.6V47H38V34.8z M25,39.2c0-2.6,2.2-4.8,4.8-4.8
				c2.6,0,4.8,2.2,4.8,4.8V47H25V39.2z"/>
			<path class="st0" d="M73.4,23.3l-4-3.8V14H64l-0.3-0.7c-0.8-1.7-2.4-2.9-4.2-3.1V6.9h7.4v-5h-7.4h-1.1h-0.1v8.3
				c-1.8,0.2-3.5,1.4-4.2,3.1L53.8,14h-5.3v5.5l-4.1,3.8H21.1v2.1h75.7v-2.1H73.4z M58.9,18.4c-1.7,0-3.1-1.4-3.1-3.1
				c0-1.7,1.4-3.1,3.1-3.1c1.7,0,3.1,1.4,3.1,3.1C62,17.1,60.6,18.4,58.9,18.4z"/>
		</g>
		<path class="st0" d="M116.8,47.2c-0.2-0.9-0.6-2.5-2.1-3.5c-1-0.8-2.2-1.2-3.5-1.2c-1.2,0-2.2,0.4-3.1,1c-1.7,1-2.3,2.8-2.5,3.8
			h-7.7v16.9h19v-16v-0.5L116.8,47.2z M105.3,61.2h-4.9V50h4.9V61.2z M114,61.2h-5.6V48.1c0-1.6,1.3-2.8,2.8-2.8
			c1.6,0,2.8,1.3,2.8,2.8V61.2z"/>
		<path class="st0" d="M1,47.6v0.5v16h19V47.2h-7.7c-0.2-1-0.8-2.8-2.5-3.8c-0.9-0.6-2-1-3.1-1c-1.3,0-2.5,0.5-3.5,1.2
			c-1.5,1-2,2.6-2.1,3.5L1,47.6z M12.5,50h4.9v11.2h-4.9V50z M3.8,48.1c0-1.6,1.3-2.8,2.8-2.8c1.6,0,2.8,1.3,2.8,2.8v13.1H3.8V48.1z
			"/>
	</g>
	<g>
		<path class="st1" d="M149.8,43L149.8,43c0-8.1,6-14.8,14.4-14.8c5.2,0,8.3,1.8,11.1,4.5l-2.2,2.4c-2.4-2.3-5.1-3.9-9-3.9
			c-6.3,0-11,5.1-11,11.7V43c0,6.6,4.8,11.8,11,11.8c3.9,0,6.5-1.5,9.2-4.1l2.1,2.1c-3,3-6.2,5-11.4,5
			C155.9,57.7,149.8,51.2,149.8,43z"/>
		<path class="st1" d="M191.7,28.5h3l13,28.7h-3.5l-3.3-7.5h-15.5l-3.4,7.5h-3.3L191.7,28.5z M199.7,46.8l-6.5-14.5l-6.5,14.5H199.7
			z"/>
		<path class="st1" d="M210.9,53.1l2-2.4c3,2.7,5.8,4,9.8,4c3.8,0,6.4-2,6.4-4.8v-0.1c0-2.6-1.4-4.2-7.4-5.4
			c-6.6-1.4-9.6-3.5-9.6-8.2v-0.1c0-4.5,4-7.8,9.4-7.8c4.2,0,7.1,1.2,10,3.5l-1.9,2.5c-2.6-2.2-5.3-3.1-8.2-3.1
			c-3.7,0-6.1,2-6.1,4.6v0.1c0,2.7,1.5,4.2,7.7,5.5c6.4,1.4,9.3,3.7,9.3,8.1v0.1c0,4.9-4.1,8.1-9.7,8.1
			C218,57.6,214.3,56.1,210.9,53.1z"/>
		<path class="st1" d="M248.8,28.5h3l13,28.7h-3.5l-3.3-7.5h-15.5l-3.4,7.5h-3.3L248.8,28.5z M256.7,46.8l-6.5-14.5l-6.5,14.5H256.7
			z"/>
		<path class="st1" d="M282.6,28.7h12.3c3.5,0,6.3,1.1,8.1,2.9c1.4,1.4,2.2,3.4,2.2,5.6v0.1c0,4.7-3.3,7.5-7.7,8.3l8.8,11.7h-4
			L294,46.1h-8.1v11.1h-3.2V28.7z M294.6,43.2c4.3,0,7.3-2.2,7.3-5.9v-0.1c0-3.5-2.7-5.6-7.3-5.6h-8.8v11.6H294.6z"/>
		<path class="st1" d="M310.8,43L310.8,43c0-7.9,5.9-14.8,14.6-14.8c8.7,0,14.5,6.8,14.5,14.7V43c0,7.9-5.9,14.7-14.6,14.7
			C316.6,57.7,310.8,50.9,310.8,43z M336.6,43L336.6,43c0-6.6-4.7-11.9-11.2-11.9s-11.2,5.2-11.2,11.7V43c0,6.5,4.7,11.8,11.2,11.8
			S336.6,49.5,336.6,43z"/>
		<path class="st1" d="M344.6,53.1l2-2.4c3,2.7,5.8,4,9.8,4c3.8,0,6.4-2,6.4-4.8v-0.1c0-2.6-1.4-4.2-7.4-5.4
			c-6.6-1.4-9.6-3.5-9.6-8.2v-0.1c0-4.5,4-7.8,9.4-7.8c4.2,0,7.1,1.2,10,3.5l-1.9,2.5c-2.6-2.2-5.3-3.1-8.2-3.1
			c-3.7,0-6.1,2-6.1,4.6v0.1c0,2.7,1.5,4.2,7.7,5.5c6.4,1.4,9.3,3.7,9.3,8.1v0.1c0,4.9-4.1,8.1-9.7,8.1
			C351.7,57.6,348,56.1,344.6,53.1z"/>
		<path class="st1" d="M382.5,28.5h3l13,28.7H395l-3.3-7.5h-15.5l-3.4,7.5h-3.3L382.5,28.5z M390.4,46.8L384,32.2l-6.5,14.5H390.4z"
			/>
		<path class="st1" d="M404.1,28.7h9.9c9,0,15.2,6.2,15.2,14.2V43c0,8-6.2,14.3-15.2,14.3h-9.9V28.7z M414,54.2
			c7.2,0,11.8-4.9,11.8-11.2V43c0-6.3-4.6-11.3-11.8-11.3h-6.7v22.6H414z"/>
		<path class="st1" d="M444.6,28.5h3l13,28.7h-3.5l-3.3-7.5h-15.5l-3.4,7.5h-3.3L444.6,28.5z M452.6,46.8l-6.5-14.5l-6.5,14.5H452.6
			z"/>
	</g>
</g>
</svg>
