<?xml version="1.0" encoding="utf-8"?>
<!-- Generator: Adobe Illustrator 19.2.1, SVG Export Plug-In . SVG Version: 6.00 Build 0)  -->
<svg version="1.1" id="Layer_1" xmlns="http://www.w3.org/2000/svg" xmlns:xlink="http://www.w3.org/1999/xlink" x="0px" y="0px"
	 viewBox="0 0 373.3 70" style="enable-background:new 0 0 373.3 70;" xml:space="preserve">
<style type="text/css">
	.st0{fill:#0094D4;}
	.st1{fill:#FFFFFF;}
	.st2{fill:#231F20;}
	.st3{fill:#FFC10E;}
	.st4{fill:#2DA34A;}
	.st5{fill:#EE4023;}
	.st6{fill:#FBBB80;}
</style>
<g>
	<path class="st0" d="M58.5,28.1h7.2c4.2,0,6.9,2.4,6.9,6.1v0.1c0,4.1-3.3,6.2-7.3,6.2h-3.6v5.9h-3.2V28.1z M65.5,37.6
		c2.4,0,3.9-1.4,3.9-3.3v-0.1c0-2.1-1.5-3.3-3.9-3.3h-3.7v6.6H65.5z"/>
	<path class="st0" d="M75.3,32.6h3.2v3.1c0.9-2.1,2.4-3.5,4.9-3.4v3.3h-0.2c-2.8,0-4.7,1.8-4.7,5.4v5.2h-3.2V32.6z"/>
	<path class="st0" d="M85.1,39.6L85.1,39.6c0-4,2.8-7.2,6.7-7.2c4.4,0,6.6,3.4,6.6,7.4c0,0.3,0,0.6-0.1,0.9H88.2
		c0.3,2.2,1.9,3.5,4,3.5c1.5,0,2.6-0.6,3.7-1.6l1.9,1.6c-1.3,1.6-3.1,2.6-5.6,2.6C88.1,46.7,85.1,43.8,85.1,39.6 M95.3,38.5
		c-0.2-2-1.4-3.6-3.5-3.6c-1.9,0-3.3,1.5-3.6,3.6H95.3z"/>
	<path class="st0" d="M100.2,44.6l1.4-2.1c1.5,1.1,3.1,1.7,4.5,1.7c1.4,0,2.1-0.6,2.1-1.5v-0.1c0-1.1-1.5-1.4-3.1-1.9
		c-2-0.6-4.3-1.4-4.3-4v-0.1c0-2.6,2.2-4.2,4.9-4.2c1.7,0,3.6,0.6,5.1,1.6l-1.3,2.2c-1.3-0.8-2.7-1.3-3.9-1.3
		c-1.2,0-1.9,0.6-1.9,1.4v0.1c0,1,1.5,1.4,3.1,1.9c2,0.6,4.3,1.5,4.3,4v0.1c0,2.9-2.2,4.3-5.1,4.3C104.1,46.6,101.9,45.9,100.2,44.6
		"/>
	<path class="st0" d="M114.1,27.5h3.4v3h-3.4V27.5z M114.3,32.6h3.2v13.8h-3.2V32.6z"/>
	<path class="st0" d="M120.6,39.5L120.6,39.5c0-4.6,3.1-7.2,6.4-7.2c2.3,0,3.7,1.1,4.7,2.4v-7.4h3.2v19h-3.2v-2.3
		c-1,1.4-2.4,2.6-4.7,2.6C123.7,46.7,120.6,44.1,120.6,39.5 M131.7,39.5L131.7,39.5c0-2.7-1.9-4.5-4-4.5c-2.2,0-4,1.7-4,4.4v0.1
		c0,2.7,1.8,4.4,4,4.4C129.8,43.9,131.7,42.2,131.7,39.5"/>
	<path class="st0" d="M137.7,39.6L137.7,39.6c0-4,2.8-7.2,6.7-7.2c4.4,0,6.6,3.4,6.6,7.4c0,0.3,0,0.6-0.1,0.9h-10.1
		c0.3,2.2,1.9,3.5,4,3.5c1.5,0,2.6-0.6,3.7-1.6l1.9,1.6c-1.3,1.6-3.1,2.6-5.6,2.6C140.8,46.7,137.7,43.8,137.7,39.6 M147.9,38.5
		c-0.2-2-1.4-3.6-3.5-3.6c-1.9,0-3.3,1.5-3.6,3.6H147.9z"/>
	<path class="st0" d="M153.9,32.6h3.2v2.1c0.9-1.3,2.2-2.4,4.3-2.4c3.1,0,4.9,2.1,4.9,5.3v8.8h-3.2v-7.8c0-2.1-1.1-3.4-2.9-3.4
		c-1.8,0-3.1,1.3-3.1,3.4v7.8h-3.2V32.6z"/>
	<path class="st0" d="M169.1,39.6L169.1,39.6c0-4,3-7.2,7.1-7.2c2.6,0,4.2,1,5.5,2.4l-2,2.1c-1-1-2-1.7-3.6-1.7c-2.3,0-4,2-4,4.4
		v0.1c0,2.4,1.7,4.4,4.1,4.4c1.5,0,2.6-0.7,3.6-1.7l1.9,1.9c-1.4,1.5-2.9,2.6-5.6,2.6C172.1,46.7,169.1,43.5,169.1,39.6"/>
	<path class="st0" d="M184.5,27.5h3.4v3h-3.4V27.5z M184.6,32.6h3.2v13.8h-3.2V32.6z"/>
	<path class="st0" d="M200.1,46.4v-1.7c-0.9,1.1-2.4,2-4.5,2c-2.6,0-4.9-1.5-4.9-4.2v-0.1c0-3,2.4-4.5,5.6-4.5
		c1.7,0,2.7,0.2,3.8,0.6v-0.3c0-1.9-1.2-2.9-3.4-2.9c-1.5,0-2.7,0.3-3.9,0.9l-0.9-2.5c1.5-0.7,3-1.1,5.2-1.1c4.1,0,6,2.1,6,5.8v8.2
		H200.1z M200.1,40.6c-0.8-0.3-1.9-0.5-3.2-0.5c-2,0-3.2,0.8-3.2,2.1v0.1c0,1.3,1.2,2,2.7,2c2.1,0,3.6-1.2,3.6-2.9V40.6z"/>
	<path class="st0" d="M213.5,39.5L213.5,39.5c0-4.6,3.1-7.2,6.4-7.2c2.3,0,3.7,1.1,4.7,2.4v-7.4h3.2v19h-3.2v-2.3
		c-1,1.4-2.4,2.6-4.7,2.6C216.7,46.7,213.5,44.1,213.5,39.5 M224.7,39.5L224.7,39.5c0-2.7-1.9-4.5-4-4.5c-2.2,0-4,1.7-4,4.4v0.1
		c0,2.7,1.8,4.4,4,4.4C222.8,43.9,224.7,42.2,224.7,39.5"/>
	<path class="st0" d="M230.7,39.6L230.7,39.6c0-4,2.8-7.2,6.7-7.2c4.4,0,6.6,3.4,6.6,7.4c0,0.3,0,0.6-0.1,0.9h-10.1
		c0.3,2.2,1.9,3.5,4,3.5c1.5,0,2.6-0.6,3.7-1.6l1.9,1.6c-1.3,1.6-3.1,2.6-5.6,2.6C233.8,46.7,230.7,43.8,230.7,39.6 M240.9,38.5
		c-0.2-2-1.4-3.6-3.5-3.6c-1.9,0-3.3,1.5-3.6,3.6H240.9z"/>
	<rect x="254.7" y="27.4" class="st0" width="3.2" height="19"/>
	<path class="st0" d="M270.1,46.4v-1.7c-0.9,1.1-2.4,2-4.5,2c-2.6,0-4.9-1.5-4.9-4.2v-0.1c0-3,2.4-4.5,5.6-4.5
		c1.7,0,2.7,0.2,3.8,0.6v-0.3c0-1.9-1.2-2.9-3.4-2.9c-1.5,0-2.7,0.3-3.9,0.9l-0.9-2.5c1.5-0.7,3-1.1,5.2-1.1c4.1,0,6,2.1,6,5.8v8.2
		H270.1z M270.2,40.6c-0.8-0.3-1.9-0.5-3.2-0.5c-2,0-3.2,0.8-3.2,2.1v0.1c0,1.3,1.2,2,2.7,2c2.1,0,3.6-1.2,3.6-2.9V40.6z"/>
	<polygon class="st0" points="284.6,28.1 287.6,28.1 297.4,40.7 297.4,28.1 300.5,28.1 300.5,46.4 297.8,46.4 287.8,33.4 
		287.8,46.4 284.6,46.4 	"/>
	<path class="st0" d="M313,46.4v-1.7c-0.9,1.1-2.4,2-4.5,2c-2.6,0-4.9-1.5-4.9-4.2v-0.1c0-3,2.4-4.5,5.6-4.5c1.7,0,2.7,0.2,3.8,0.6
		v-0.3c0-1.9-1.2-2.9-3.4-2.9c-1.5,0-2.7,0.3-3.9,0.9l-0.9-2.5c1.5-0.7,3-1.1,5.2-1.1c4.1,0,6,2.1,6,5.8v8.2H313z M313.1,40.6
		c-0.8-0.3-1.9-0.5-3.2-0.5c-2,0-3.2,0.8-3.2,2.1v0.1c0,1.3,1.2,2,2.7,2c2.1,0,3.6-1.2,3.6-2.9V40.6z"/>
	<path class="st0" d="M318.9,39.6L318.9,39.6c0-4,3-7.2,7.1-7.2c2.6,0,4.2,1,5.5,2.4l-2,2.1c-1-1-2-1.7-3.6-1.7c-2.3,0-4,2-4,4.4
		v0.1c0,2.4,1.7,4.4,4.1,4.4c1.5,0,2.6-0.7,3.6-1.7l1.9,1.9c-1.4,1.5-2.9,2.6-5.6,2.6C321.9,46.7,318.9,43.5,318.9,39.6"/>
	<path class="st0" d="M334.3,27.5h3.4v3h-3.4V27.5z M334.4,32.6h3.2v13.8h-3.2V32.6z"/>
	<path class="st0" d="M340.7,39.6L340.7,39.6c0-4,3.1-7.2,7.3-7.2c4.2,0,7.3,3.2,7.3,7.1v0.1c0,3.9-3.1,7.2-7.4,7.2
		C343.8,46.7,340.7,43.5,340.7,39.6 M352.2,39.6L352.2,39.6c0-2.5-1.7-4.5-4.2-4.5c-2.5,0-4.1,2-4.1,4.4v0.1c0,2.4,1.7,4.4,4.2,4.4
		C350.6,44,352.2,41.9,352.2,39.6 M349.5,26.6l2.9,1.3l-3.2,3h-2.4L349.5,26.6z"/>
	<path class="st0" d="M358.3,32.6h3.2v2.1c0.9-1.3,2.2-2.4,4.3-2.4c3.1,0,4.9,2.1,4.9,5.3v8.8h-3.2v-7.8c0-2.1-1.1-3.4-2.9-3.4
		c-1.8,0-3.1,1.3-3.1,3.4v7.8h-3.2V32.6z"/>
	<path class="st0" d="M21.8,34H18c-0.8,0-1.3-0.3-1.5-0.6c-0.2-0.2-0.3-0.6-0.4-0.9c0,0,0-0.1,0-0.1c0-0.3,0-0.7,0.1-1.1
		c0.5-2.5,1.5-4.2,2.3-5.2c-0.1,0-0.2-0.1-0.3-0.1c-0.5-0.3-0.8-0.9-0.7-1.6c0.1-0.8,0.9-1.7,1.1-1.8c1.3-1.5,3.2-1.6,3.5-1.6
		c0.3,0,2.8-0.1,4.2,2.6c1.6,3.2,2,5.9,2.4,8l0,0.1c0.1,0.4,0,0.7,0,0.9c0,0,0,0.1,0,0.1c-0.1,0.3-0.2,0.5-0.4,0.7
		c-0.3,0.4-0.8,0.6-1.5,0.7c-0.3,0-0.5,0.1-0.7,0.1c-0.1,0-0.1,0-0.2,0h-1.1c0,0,0,0,0,0c0,0,0,0,0,0H23v5.4h16.9
		c0-3.1-0.5-6.2-1.4-9.1c-0.9-2.8-2.2-5.2-3.8-7.4c-1.6-2.1-3.5-3.8-5.6-4.9c-2.1-1.2-4.4-1.8-6.8-1.8c-2.3,0-4.6,0.6-6.8,1.8
		c-2.1,1.2-4,2.8-5.6,4.9c-1.6,2.1-2.9,4.6-3.8,7.4c-0.9,2.9-1.4,5.9-1.4,9.1h16.9V34z"/>
	<path class="st1" d="M4.9,39.4c0,2.4,0.3,4.7,0.8,7c7.6-0.9,12.1-1.8,13.4-2.7c0.9-0.7,1.7-1.1,2.7-1v-3.3H4.9z"/>
	<path class="st1" d="M23,42.8c0.7,0.1,1.2,0.3,1.7,0.6c0.1,0,0.1,0,0.2,0c1,0,1.8,0.3,2.9,0.7c0.3,0.1,0.7,0.2,1.1,0.4
		c0.2,0.1,5.6,1.8,10.2,2c0.5-2.3,0.8-4.6,0.8-7H23V42.8z"/>
	<polyline class="st2" points="21.3,13.3 21.3,13.3 21.3,13.3 	"/>
	<path class="st2" d="M17.8,13.8"/>
	<polyline class="st2" points="17.8,13.8 17.8,13.8 17.8,13.8 17.8,13.8 	"/>
	<path class="st1" d="M29.9,50.2c-0.1,0.1-0.2,0.3-0.3,0.4c-0.3,0.3-0.7,0.4-1.1,0.4c-0.1,0.1-0.2,0.3-0.3,0.4
		c-0.3,0.3-0.7,0.6-1.5,0.6c-0.1,0.1-0.2,0.3-0.3,0.4c-0.4,0.4-0.9,0.5-1.4,0.4c-0.1,0.1-0.3,0.2-0.6,0.3c-0.3,0.1-0.8,0.2-1.4,0.1
		v4.5c0,0.3-0.3,0.6-0.6,0.6c-0.3,0-0.6-0.3-0.6-0.6v-4.3c-0.2,0.1-0.5,0.1-0.7,0.1c-0.1,0-0.2,0-0.3,0c-0.3-0.1-0.6-0.2-0.8-0.5
		c-0.4,0.1-1,0.1-1.5-0.2c-0.2-0.1-0.3-0.3-0.4-0.5c-0.2,0-0.3-0.1-0.5-0.1c-0.5-0.2-0.8-0.4-1-0.8c-0.1,0-0.3,0-0.4,0
		c-0.4-0.1-0.9-0.2-1.2-0.7c0-0.1-0.1-0.2-0.1-0.3c-2.4,1.2-5.2,2.5-6.4,3c0.5,0.8,1,1.6,1.6,2.3c1.6,2.1,3.5,3.8,5.6,4.9
		c1,0.5,2,1,3,1.3c0.1-0.2,0.3-0.4,0.4-0.5c1-0.6,2.8-0.2,3.3,0c0.5-0.1,2.4-0.6,3.3,0c0.2,0.1,0.3,0.3,0.4,0.5c1-0.3,2-0.7,3-1.3
		c2.1-1.2,4-2.8,5.6-4.9c0.5-0.7,1-1.4,1.5-2.2C34.9,53,31.8,51.7,29.9,50.2"/>
	<path class="st0" d="M24,65.6c0-0.1,0-0.3,0-0.4c0-0.1,0-0.2,0-0.4c0.6-0.1,1.5-0.4,2-1c0.3-0.4,0.4-0.8,0.4-1.3
		c0-0.4-0.3-0.8-0.6-1c-1-0.6-2.8-0.2-3.3,0c-0.5-0.1-2.4-0.6-3.3,0c-0.3,0.2-0.6,0.6-0.6,1c-0.1,0.5,0.1,0.9,0.4,1.3
		c0.5,0.6,1.5,0.9,2,1c0,0.1,0,0.2,0,0.4c0,0.1,0,0.3,0,0.4c-0.4,0.4-1.8,1.6-3.7,1.8v0c0.1,0.1,0.2,0.4,0.6,0.7
		c1.7-0.3,2.9-1.3,3.5-1.8c0.1,0.1,0.1,0.1,0.2,0.2c-0.1,0.5-0.6,1.7-2.7,2.2c0.3,0.2,0.8,0.3,1.3,0.4c1.5-0.7,2-1.7,2.2-2.3
		c0.1,0,0.2,0,0.3,0c0.1,0,0.2,0,0.3,0c0.2,0.6,0.7,1.6,2.2,2.3c0.5-0.1,0.9-0.2,1.3-0.4c-2.1-0.5-2.6-1.7-2.7-2.2
		c0.1-0.1,0.1-0.1,0.2-0.2c0.6,0.5,1.8,1.5,3.5,1.8c0.3-0.3,0.5-0.6,0.6-0.7C25.7,67.1,24.4,66,24,65.6"/>
	<path class="st1" d="M25.3,62.2c0.2,0.1,0.2,0.2,0.3,0.4c0,0.3,0,0.5-0.2,0.7c-0.2,0.3-0.6,0.5-1,0.6c0.2-0.4,0.2-0.8,0.1-1.1
		c-0.1-0.4-0.4-0.6-0.6-0.8C24.5,61.9,25,62,25.3,62.2"/>
	<path class="st1" d="M21,63.1c0.3-0.8,1.3-0.8,1.4-0.8h0c0,0,0.3,0,0.6,0.1c0.4,0.1,0.7,0.4,0.8,0.7c0.1,0.3-0.1,0.7-0.3,0.9
		c-0.3-0.2-0.7-0.4-1.1-0.4c-0.4,0-0.8,0.2-1.1,0.4C21.1,63.8,20.9,63.4,21,63.1"/>
	<path class="st1" d="M20.4,63.9c-0.4-0.1-0.7-0.3-1-0.6c-0.2-0.2-0.2-0.4-0.2-0.7c0-0.2,0.1-0.3,0.3-0.4c0.2-0.1,0.6-0.2,1-0.2
		c0.2,0,0.3,0,0.5,0c-0.2,0.2-0.5,0.4-0.6,0.8C20.2,63.2,20.2,63.6,20.4,63.9"/>
	<path class="st1" d="M21.6,65.2c0-0.5,0.4-0.8,0.8-0.8c0.5,0,0.8,0.4,0.8,0.8c0,0.5-0.4,0.8-0.8,0.8C22,66,21.6,65.6,21.6,65.2"/>
	<path class="st1" d="M27.1,68c-1.7-0.3-2.9-1.3-3.5-1.8c-0.1,0.1-0.1,0.1-0.2,0.2c0.1,0.5,0.6,1.7,2.7,2.2
		C26.5,68.5,26.8,68.2,27.1,68"/>
	<path class="st1" d="M21.2,66.3c-0.6,0.5-1.8,1.5-3.5,1.8c0.2,0.2,0.5,0.4,0.9,0.6c2.1-0.5,2.6-1.7,2.7-2.2
		C21.3,66.4,21.3,66.3,21.2,66.3"/>
	<path class="st2" d="M43.6,43.9c0-0.1,0-0.2-0.1-0.3c-0.1-0.1-0.2-0.1-0.3-0.1c0.1-0.2,0.1-0.3,0.2-0.5c0.3-0.7,0.4-1.5,0.4-2.5
		c0-0.1-0.1-0.2-0.2-0.3c-0.1-0.1-0.2-0.1-0.2-0.1c0.1-0.2,0.1-0.3,0.1-0.5c0.2-0.7,0.2-1.6,0.2-2.5c0-0.1-0.1-0.2-0.2-0.3
		c-0.1,0-0.2-0.1-0.3,0c0-0.2,0.1-0.4,0.1-0.5c0.1-0.8,0.1-1.6-0.1-2.5c0-0.1-0.1-0.2-0.2-0.3c-0.1,0-0.1,0-0.2,0
		c0-0.1,0-0.3,0.1-0.4c0.1-0.8,0-1.6-0.2-2.5c0-0.1-0.1-0.2-0.2-0.3c-0.1,0-0.2,0-0.3,0l0,0c0-0.2,0-0.4,0-0.6
		c0-0.8-0.2-1.6-0.5-2.4c0-0.1-0.1-0.2-0.3-0.2c-0.1,0-0.2,0-0.3,0.1c0-0.2,0-0.4,0-0.6c-0.1-0.8-0.4-1.6-0.8-2.4
		c-0.1-0.1-0.2-0.2-0.3-0.2c-0.1,0-0.2,0-0.3,0.1c0-0.2-0.1-0.3-0.1-0.5c-0.2-0.7-0.5-1.5-1.1-2.3c-0.1-0.1-0.2-0.2-0.3-0.2
		c-0.1,0-0.2,0.1-0.3,0.2c-0.1-0.2-0.1-0.4-0.2-0.6c-0.3-0.7-0.8-1.4-1.4-2.1c-0.1-0.1-0.2-0.1-0.3-0.1c-0.1,0-0.2,0.1-0.2,0.1
		c-0.1-0.2-0.2-0.4-0.3-0.6c-0.4-0.6-1-1.2-1.7-1.8c-0.1-0.1-0.2-0.1-0.3-0.1c-0.1,0-0.2,0.1-0.2,0.2c-0.5-0.6-1.1-1.1-2-1.4
		c0.1,0,0.3,0,0.5,0c1,0.1,1.7-0.2,1.7-0.2c0.2-0.1,0.3-0.3,0.3-0.5c0-0.2-0.2-0.4-0.4-0.4c-1.1-0.1-1.5-0.3-2-0.6
		c-0.1-0.1-0.2-0.1-0.3-0.2l2.6-0.4c0.2,0,0.4-0.2,0.4-0.5c0-0.2-0.2-0.4-0.4-0.5L31,11.7c0.3-0.1,0.6-0.2,1-0.3
		c1-0.3,1.5-0.8,1.5-0.8c0.2-0.1,0.2-0.4,0.1-0.6c-0.1-0.2-0.3-0.3-0.6-0.2c-1,0.4-1.5,0.3-2.1,0.3c-0.1,0-0.2,0-0.3,0l2.2-1.3
		c0.2-0.1,0.3-0.4,0.2-0.6c-0.1-0.2-0.3-0.3-0.5-0.3L30,8.5c0.2-0.2,0.5-0.4,0.8-0.7c0.8-0.7,1.1-1.3,1.1-1.3
		C32,6.3,32,6.1,31.8,5.9c-0.2-0.1-0.4-0.1-0.6,0c-0.8,0.7-1.3,0.9-1.8,1c-0.1,0-0.2,0.1-0.3,0.1L30.6,5c0.1-0.2,0.1-0.4,0-0.6
		c-0.2-0.2-0.4-0.2-0.6,0l-2.1,1.6C28,5.7,28.2,5.3,28.4,5c0.4-0.9,0.5-1.6,0.5-1.7c0-0.2-0.1-0.4-0.3-0.5c-0.2-0.1-0.4,0-0.5,0.2
		c-0.5,1-0.8,1.3-1.3,1.7c-0.1,0.1-0.2,0.1-0.3,0.2l0.6-2.5C27.1,2.2,27,2,26.8,1.9c-0.2-0.1-0.5,0-0.6,0.2l-1.3,2.2
		C25,4,25,3.7,25,3.3c0.1-1-0.2-1.7-0.2-1.7c-0.1-0.2-0.3-0.3-0.5-0.3c-0.2,0-0.4,0.2-0.4,0.4c0,1.1-0.3,1.5-0.6,2
		c-0.1,0.1-0.1,0.2-0.2,0.3l-0.4-2.6c0-0.2-0.2-0.4-0.5-0.4h0C22.2,1,22,1.2,22,1.4L21.6,4c-0.1-0.3-0.2-0.6-0.3-1
		c-0.3-1-0.8-1.5-0.8-1.5c-0.1-0.2-0.4-0.2-0.6-0.1c-0.2,0.1-0.3,0.3-0.2,0.6c0.4,1,0.3,1.5,0.3,2.1c0,0.1,0,0.2,0,0.4l-1.3-2.2
		c-0.1-0.2-0.4-0.3-0.6-0.2c-0.2,0.1-0.3,0.3-0.3,0.5L18.4,5c-0.2-0.2-0.4-0.5-0.7-0.8C17,3.4,16.4,3,16.4,3
		c-0.2-0.1-0.4-0.1-0.6,0.1c-0.1,0.2-0.1,0.4,0,0.6c0.7,0.8,0.9,1.3,1,1.8c0,0.1,0.1,0.2,0.1,0.3l-2.1-1.6c-0.2-0.1-0.4-0.1-0.6,0
		c-0.2,0.2-0.2,0.4,0,0.6l1.6,2.1c-0.3-0.2-0.6-0.3-0.9-0.5c-0.9-0.4-1.6-0.5-1.7-0.5c-0.2,0-0.4,0.1-0.5,0.3
		c-0.1,0.2,0,0.4,0.2,0.5c1,0.5,1.3,0.8,1.7,1.3c0.1,0.1,0.1,0.2,0.2,0.3l-2.5-0.6c-0.2-0.1-0.4,0.1-0.5,0.3c-0.1,0.2,0,0.5,0.2,0.6
		l2.2,1.3c-0.3,0-0.7-0.1-1-0.1c-1-0.1-1.7,0.2-1.7,0.2c-0.2,0.1-0.3,0.3-0.3,0.5c0,0.2,0.2,0.4,0.4,0.4c1.1,0.1,1.5,0.3,2,0.6
		c0.1,0.1,0.2,0.1,0.3,0.2l-2.6,0.4c-0.2,0-0.4,0.2-0.4,0.5c0,0.2,0.2,0.4,0.4,0.5l2.6,0.4c-0.3,0.1-0.7,0.2-1,0.3
		c-1,0.3-1.5,0.8-1.5,0.8c-0.2,0.1-0.2,0.4-0.1,0.6c0.1,0.2,0.3,0.3,0.6,0.2c0.6-0.2,1-0.3,1.4-0.3c-0.6,0.5-1,0.9-1.1,1.1
		c-0.1,0.1-0.2,0.3-0.3,0.4c0-0.1-0.1-0.1-0.2-0.2c-0.1,0-0.2,0-0.3,0.1c-0.7,0.6-1.3,1.2-1.7,1.8c-0.1,0.2-0.2,0.4-0.3,0.6
		C9,18.7,9,18.7,8.9,18.7c-0.1,0-0.2,0-0.3,0.1c-0.6,0.7-1.1,1.4-1.4,2.1C7,21,7,21.2,6.9,21.4c-0.1-0.1-0.1-0.1-0.2-0.1
		c-0.1,0-0.2,0-0.3,0.1c-0.5,0.7-0.9,1.5-1.2,2.2c-0.1,0.2-0.1,0.4-0.1,0.6c-0.1-0.1-0.2-0.1-0.3-0.1c-0.1,0-0.2,0.1-0.3,0.2
		c-0.4,0.8-0.7,1.6-0.8,2.4c0,0.2,0,0.4-0.1,0.6c-0.1-0.1-0.2-0.1-0.3-0.1c-0.1,0-0.2,0.1-0.3,0.2c-0.3,0.9-0.5,1.7-0.5,2.4
		c0,0.2,0,0.4,0,0.6c-0.1-0.1-0.2-0.1-0.3,0c-0.1,0-0.2,0.1-0.2,0.3c-0.2,0.9-0.3,1.7-0.2,2.5c0,0.1,0,0.3,0.1,0.4
		c-0.1,0-0.1,0-0.2,0c-0.1,0-0.2,0.1-0.2,0.3c-0.2,0.9-0.2,1.7-0.1,2.5c0,0.2,0.1,0.4,0.1,0.6c-0.1,0-0.1,0-0.1,0
		c-0.1,0.1-0.2,0.2-0.2,0.3c-0.1,0.9-0.1,1.7,0.1,2.5c0,0.2,0.1,0.3,0.1,0.5c-0.1,0-0.2,0-0.2,0.1C1.1,40.3,1,40.5,1,40.6
		c0,0.9,0.1,1.7,0.3,2.5c0.1,0.2,0.2,0.4,0.2,0.6c0,0,0,0,0,0c-0.1,0-0.2,0-0.3,0.1c-0.1,0.1-0.1,0.2-0.1,0.3
		c0.1,0.9,0.4,1.7,0.8,2.4c0.1,0.1,0.1,0.3,0.2,0.4c-0.1,0-0.1,0.1-0.2,0.1c-0.1,0.1-0.1,0.2-0.1,0.3c0.2,0.9,0.5,1.7,0.9,2.3
		C2.9,49.7,3,49.9,3.1,50c-0.1,0-0.2,0.1-0.2,0.1c-0.1,0.1-0.1,0.2-0.1,0.3c0.3,0.9,0.7,1.6,1.2,2.2c0.1,0.1,0.2,0.3,0.3,0.4
		c-0.1,0-0.2,0.1-0.2,0.2c-0.1,0.1-0.1,0.2,0,0.3c0.4,0.8,0.9,1.5,1.5,2c0.1,0.1,0.2,0.2,0.4,0.3c-0.1,0-0.1,0.1-0.2,0.2
		c-0.1,0.1,0,0.2,0,0.3c0.5,0.8,1.1,1.4,1.7,1.9c0.2,0.1,0.4,0.3,0.6,0.4c0,0-0.1,0-0.1,0c-0.1,0-0.2,0.1-0.2,0.3
		c0,0.1,0,0.2,0.1,0.3c0.6,0.7,1.3,1.2,1.9,1.6c0.5,0.3,1.1,0.5,1.6,0.6c0.5,0.1,0.9,0.1,1.3,0c0,0,0,0,0.1,0c1.1,0.8,2.3,1.5,3.6,2
		c1,0.4,2.1,0.8,3.2,1c0.2,0,0.4,0.1,0.6,0.1c-0.4-0.2-0.9-0.4-1.2-0.8c-0.1-0.1-0.1-0.1-0.1-0.2c-0.7-0.2-1.5-0.4-2.2-0.8
		c-1.2-0.5-2.3-1.1-3.4-1.9c0,0,0,0,0,0c0-0.4,0-0.7-0.1-1.1c0.8,0.6,1.5,1.1,2.2,1.6c1,0.6,2.1,1,3.2,1.3c0-0.1,0-0.1,0-0.2
		c0-0.2,0.1-0.4,0.2-0.5c-1-0.3-2-0.7-3-1.3c-2.1-1.2-4-2.8-5.6-4.9c-0.6-0.7-1.1-1.5-1.6-2.3c1.2-0.5,4-1.8,6.4-3
		c0,0.1,0,0.2,0.1,0.3c0.2,0.5,0.7,0.7,1.2,0.7c0.1,0,0.3,0,0.4,0c0.2,0.4,0.5,0.7,1,0.8c0.2,0.1,0.4,0.1,0.5,0.1
		c0.1,0.2,0.2,0.4,0.4,0.5c0.5,0.3,1.1,0.3,1.5,0.2c0.2,0.3,0.5,0.4,0.8,0.5c0.1,0,0.2,0,0.3,0c0.3,0,0.5-0.1,0.7-0.1v4.3
		c0,0.3,0.3,0.6,0.6,0.6c0.3,0,0.6-0.3,0.6-0.6v-4.5c0.6,0.1,1,0,1.4-0.1c0.3-0.1,0.5-0.2,0.6-0.3c0.6,0.1,1.1-0.1,1.4-0.4
		c0.1-0.1,0.2-0.3,0.3-0.4c0.8,0,1.2-0.3,1.5-0.6c0.1-0.2,0.2-0.3,0.3-0.4c0.5,0,0.9-0.2,1.1-0.4c0.1-0.1,0.2-0.3,0.3-0.4
		c1.9,1.5,5,2.8,6.4,3.4c-0.5,0.8-0.9,1.5-1.5,2.2c-1.6,2.1-3.5,3.8-5.6,4.9c-1,0.5-2,1-3,1.3c0.1,0.2,0.1,0.3,0.2,0.5
		c0,0.1,0,0.1,0,0.2c1.1-0.3,2.2-0.8,3.2-1.3c0.8-0.5,1.6-1,2.3-1.6c-0.1,0.4-0.1,0.7-0.1,1.1c0,0,0,0,0,0.1
		c-0.3,0.3-1.2,0.9-2.5,1.5c-1,0.5-2,0.8-3,1.1c0,0-0.1,0-0.1,0c0,0.1-0.1,0.1-0.1,0.2c-0.3,0.4-0.8,0.6-1.2,0.8
		c0.6-0.1,1.1-0.2,1.7-0.4c1.1-0.3,2.1-0.7,3.1-1.2c1.4-0.7,2.3-1.3,2.6-1.6c0,0,0,0,0.1,0c0.4,0.1,0.8,0.1,1.3,0
		c0.5-0.1,1.1-0.3,1.6-0.6c0.7-0.4,1.3-0.9,1.9-1.6c0.1-0.1,0.1-0.2,0.1-0.3c0-0.1-0.1-0.2-0.2-0.3c0,0,0,0-0.1,0
		c0.2-0.1,0.4-0.2,0.6-0.4c0.6-0.5,1.2-1.1,1.7-1.9c0.1-0.1,0.1-0.2,0-0.3c0-0.1-0.1-0.1-0.2-0.2c0.1-0.1,0.2-0.2,0.4-0.3
		c0.6-0.5,1-1.2,1.5-2c0.1-0.1,0.1-0.2,0-0.3c-0.1-0.1-0.2-0.2-0.3-0.2c0.1-0.1,0.3-0.3,0.4-0.4c0.5-0.6,0.9-1.3,1.2-2.2
		c0-0.1,0-0.2,0-0.3C41.9,50,41.8,50,41.7,50h0c0.1-0.1,0.2-0.3,0.3-0.4c0.4-0.6,0.8-1.4,1-2.3c0-0.1,0-0.2-0.1-0.3
		c-0.1-0.1-0.2-0.1-0.3-0.1c0.1-0.2,0.2-0.3,0.3-0.5C43.3,45.6,43.5,44.8,43.6,43.9 M43.2,41.1C43.2,41.1,43.2,41.1,43.2,41.1
		c0,0.6-0.2,1.2-0.3,1.7c-0.2,0.5-0.4,1-0.8,1.3c-0.4,0.4-0.8,0.7-0.9,0.8c0,0,0,0,0,0c0,0,0,0,0,0c-0.5-0.7-0.7-1.5-0.7-2.5
		c0-0.3,0-0.6,0.1-0.9c0,0,0,0,0,0c0,0,0,0,0,0c0.4,0.6,0.7,1.3,0.7,1.3c0,0.1,0.1,0.2,0.2,0.2c0.1,0,0.2-0.1,0.3-0.2
		C42.2,41.9,42.7,41.3,43.2,41.1C43.2,41.1,43.2,41.1,43.2,41.1 M43.1,37.8C43.1,37.8,43.1,37.8,43.1,37.8
		C43.1,37.8,43.1,37.8,43.1,37.8c0,0.6,0,1.2-0.1,1.7c-0.1,0.5-0.3,1-0.6,1.4c-0.3,0.5-0.7,0.7-0.8,0.8c0,0,0,0,0,0c0,0,0,0,0,0
		c-0.9-1-1-2.5-0.9-3.3c0,0,0,0,0,0c0,0,0,0,0,0c0.5,0.5,0.8,1.2,0.8,1.2c0,0.1,0.1,0.2,0.3,0.2c0.1,0,0.2-0.1,0.2-0.2
		C42.2,38.7,42.7,38.1,43.1,37.8 M42.7,34.5C42.8,34.5,42.8,34.5,42.7,34.5C42.8,34.5,42.8,34.5,42.7,34.5c0.1,0.6,0.1,1.2,0,1.7
		c-0.1,0.5-0.2,1-0.5,1.5c-0.3,0.5-0.6,0.8-0.8,0.9c0,0,0,0,0,0c0,0,0,0,0,0c-0.9-0.7-1.1-2.3-1.2-3.2c0,0,0,0,0,0c0,0,0,0,0,0
		c0.5,0.5,0.9,1,0.9,1.1c0.1,0.1,0.2,0.1,0.3,0.1c0.1,0,0.2-0.1,0.2-0.2C41.9,35.5,42.4,34.9,42.7,34.5 M42.2,31.3
		C42.2,31.3,42.2,31.3,42.2,31.3C42.3,31.3,42.3,31.3,42.2,31.3c0.1,0.6,0.2,1.2,0.1,1.7c-0.1,0.5-0.2,1-0.4,1.5
		c-0.3,0.5-0.6,0.8-0.7,0.9c0,0,0,0,0,0c0,0,0,0,0,0c-0.7-0.6-1.1-1.5-1.3-2.2c-0.1-0.3-0.1-0.6-0.2-0.9c0,0,0,0,0,0c0,0,0,0,0,0
		c0.5,0.4,1,1,1,1c0.1,0.1,0.2,0.1,0.3,0.1c0.1,0,0.2-0.1,0.2-0.2C41.5,32.4,41.9,31.7,42.2,31.3 M17.1,31.5c0,0,0-0.1,0-0.1
		c0.4-2.2,1.3-3.6,1.9-4.5c0.5-0.6,0.9-1,1.1-1.2c0.1,0,0.1-0.1,0.2-0.2c0.2-0.2,0.2-0.5,0.1-0.7c-0.2-0.2-0.5-0.3-0.7-0.1
		c0,0-0.1,0.1-0.2,0.2c-0.5,0.3-0.8,0.2-0.8,0.2c-0.2-0.1-0.2-0.3-0.2-0.6c0.1-0.5,0.6-1.1,0.8-1.3c0,0,0,0,0,0
		c1.1-1.3,2.8-1.3,2.8-1.3c0,0,0,0,0,0c0,0,0.5,0,1.2,0.2c0.9,0.3,1.6,0.9,2.1,1.8c0.7,1.3,1.2,2.6,1.5,4c-0.9-0.3-1.7-0.9-1.7-1
		c-0.2-0.2-0.5-0.2-0.7,0.1c-0.1,0.1-0.1,0.2-0.1,0.4c0,0.1,0.1,0.3,0.2,0.3c0,0,1.2,1,2.6,1.3c0.1,0.5,0.2,1,0.3,1.6
		c-0.5-0.2-1-0.4-1.4-0.5c-0.3-0.1-0.6-0.2-0.8-0.2c-1-0.4-1.8-1-1.8-1c-0.2-0.2-0.5-0.1-0.7,0.1c-0.2,0.2-0.1,0.5,0.1,0.7
		c0,0,0.9,0.7,2.1,1.2c0.3,0.1,0.6,0.2,0.9,0.3c1.2,0.3,1.8,0.6,1.8,1.2c0,0.1-0.1,0.2-0.2,0.3C27.1,33,26.3,33.1,26,33c0,0,0,0,0,0
		h-1.2c-0.2,0-1.4-0.1-2.4-0.7C19.8,30.7,18.6,30.9,17.1,31.5 M21.6,33H18c-0.4,0-0.6-0.1-0.8-0.3c0,0-0.1-0.1-0.1-0.1
		C18.7,32,19.5,31.7,21.6,33 M23,39.4V34h1.8c0,0,0,0,0,0c0,0,0,0,0,0h1.1c0,0,0.1,0,0.2,0c0.2,0,0.4,0,0.7-0.1
		c0.6-0.1,1.2-0.3,1.5-0.7c0.1-0.2,0.3-0.4,0.4-0.7c0,0,0-0.1,0-0.1c0.1-0.3,0.1-0.6,0-0.9l0-0.1c-0.3-2.1-0.7-4.8-2.4-8
		c-1.4-2.7-3.9-2.6-4.2-2.6c-0.2,0-2.2,0.1-3.5,1.6c-0.1,0.1-0.9,1-1.1,1.8c-0.1,0.7,0.1,1.3,0.7,1.6c0.1,0,0.2,0.1,0.3,0.1
		c-0.8,1-1.8,2.7-2.3,5.2c-0.1,0.4-0.1,0.8-0.1,1.1c0,0,0,0.1,0,0.1c0.1,0.4,0.2,0.7,0.4,0.9c0.2,0.3,0.7,0.6,1.5,0.6h3.8v5.4v3.3
		c-1,0-1.8,0.4-2.7,1c-1.3,0.9-5.9,1.8-13.4,2.7c-0.5-2.2-0.8-4.6-0.8-7c0-3.1,0.5-6.2,1.4-9.1c0.9-2.8,2.2-5.2,3.8-7.4
		c1.6-2.1,3.5-3.8,5.6-4.9c2.1-1.2,4.4-1.8,6.8-1.8c2.3,0,4.6,0.6,6.8,1.8c2.1,1.2,4,2.8,5.6,4.9c1.6,2.1,2.9,4.6,3.8,7.4
		c0.9,2.9,1.4,5.9,1.4,9.1c0,2.4-0.3,4.8-0.8,7c-4.6-0.3-10.1-2-10.2-2c-0.4-0.1-0.7-0.3-1.1-0.4c-1.1-0.4-2-0.7-2.9-0.7
		c-0.1,0-0.1,0-0.2,0c-0.6-0.3-1-0.5-1.7-0.6V39.4z M30.1,15.2c-0.3,0.1-0.7,0.3-1.2,0.4c-0.3,0.1-0.6,0.1-0.9,0.1
		c-0.7,0-1.2-0.2-1.7-0.5c0,0,0,0,0,0c0,0,0,0,0,0c0.2-0.1,0.6-0.3,1-0.4c0.5-0.1,1-0.1,1.4,0C29.2,14.7,29.7,14.9,30.1,15.2
		C30.1,15.1,30.1,15.1,30.1,15.2C30.1,15.1,30.1,15.1,30.1,15.2 M30.8,17C30.8,17,30.8,17,30.8,17C30.8,17,30.8,17,30.8,17
		c-0.2,0.1-0.5,0.2-0.9,0.2c0,0-0.1,0-0.1,0c-0.8,0-1.6-0.3-2.3-0.9c0,0,0,0,0,0c0,0,0,0,0,0c0.3-0.1,0.7-0.2,1-0.2
		C29.4,16.1,30.2,16.4,30.8,17 M27.2,14.1c-0.3,0.1-0.8,0.3-1.6,0.4c-0.1,0-0.2,0.1-0.2,0.2c0,0.1,0,0.2,0.1,0.3c0,0,0.6,0.4,1.1,1
		c0,0,0,0,0,0c0,0,0,0,0,0h0c-0.8,0-2.2-0.2-3.2-1.5c0,0,0,0,0,0c0.2-0.2,0.4-0.4,0.9-0.5C25,13.8,26,13.8,27.2,14.1
		C27.2,14.1,27.2,14.1,27.2,14.1C27.2,14.1,27.2,14.1,27.2,14.1 M23.8,13.6c-0.3,0.2-0.8,0.5-1.5,0.8c-0.1,0-0.2,0.1-0.2,0.3
		c0,0.1,0.1,0.2,0.2,0.3c0,0,0.7,0.3,1.2,0.7c0,0,0,0,0,0c0,0,0,0,0,0c-0.2,0-0.4,0-0.7,0c-0.8,0-1.9-0.1-2.7-0.8c0,0,0,0,0,0
		c0.1-0.2,0.4-0.4,0.7-0.7C21.5,13.6,22.6,13.4,23.8,13.6C23.8,13.5,23.8,13.5,23.8,13.6C23.8,13.5,23.8,13.6,23.8,13.6 M20.3,13.6
		c-0.2,0.3-0.6,0.7-1.4,1.1c-0.1,0.1-0.2,0.2-0.1,0.3c0,0.1,0.1,0.2,0.2,0.2c0,0,0.7,0.1,1.3,0.5c0,0,0,0,0,0c0,0,0,0,0,0
		c-0.3,0.1-0.6,0.2-0.9,0.2c-0.3,0-0.6,0.1-0.9,0.1c-0.5,0-1.1-0.1-1.6-0.3c0,0,0,0,0,0c0.1-0.2,0.2-0.5,0.6-0.8
		C18.1,14.2,19.1,13.8,20.3,13.6C20.3,13.6,20.3,13.6,20.3,13.6C20.3,13.6,20.3,13.6,20.3,13.6 M15.8,15.7c-0.1,0.1-0.1,0.2-0.1,0.3
		c0,0.1,0.1,0.2,0.3,0.2h0c0,0,0.3,0,0.7,0c0.3,0,0.5,0.1,0.7,0.2c0,0,0,0,0,0c0,0,0,0,0,0c-0.3,0.1-0.6,0.3-0.9,0.4
		c-0.6,0.2-1.2,0.3-1.6,0.3c-0.4,0-0.7-0.1-1-0.1c0,0,0,0,0,0c0.1-0.6,0.6-2,3.1-2.8c0,0,0,0,0,0c0,0,0,0,0,0
		C16.9,14.6,16.6,15.1,15.8,15.7 M40.6,30.2c0.1-1,0.4-1.7,0.7-2.1c0,0,0,0,0,0c0,0,0,0,0,0c0.2,0.6,0.3,1.2,0.3,1.7
		c0,0.5,0,1.1-0.2,1.5c-0.2,0.5-0.5,0.9-0.6,1c0,0,0,0,0,0c0,0,0,0,0,0c-0.7-0.4-1.2-1.1-1.6-2c-0.1-0.3-0.2-0.6-0.3-0.9
		c0,0,0,0,0,0c0,0,0,0,0,0c0.6,0.4,1.1,0.9,1.1,0.9c0.1,0.1,0.2,0.1,0.3,0.1C40.5,30.4,40.6,30.3,40.6,30.2 M39.5,27.2
		c0-1,0.2-1.7,0.5-2.1c0,0,0,0,0,0c0,0,0,0,0,0c0.3,0.6,0.4,1.1,0.5,1.7c0.1,0.5,0.1,1.1,0,1.5c-0.1,0.6-0.4,0.9-0.4,1.1
		c0,0,0,0,0,0c0,0,0,0,0,0c-0.7-0.4-1.3-1-1.8-1.9c-0.1-0.3-0.3-0.6-0.4-0.9c0,0,0,0,0,0c0,0,0,0,0,0c0.6,0.3,1.2,0.8,1.2,0.8
		c0.1,0.1,0.2,0.1,0.3,0C39.4,27.4,39.5,27.3,39.5,27.2 M38,24.7L38,24.7c0.1-0.1,0.1-0.2,0.1-0.3c-0.2-0.9,0-1.7,0.2-2.2
		c0,0,0,0,0,0c0,0,0,0,0,0c0.3,0.5,0.6,1.1,0.7,1.6c0.1,0.5,0.2,1,0.1,1.5c-0.1,0.6-0.2,1-0.3,1.1c0,0,0,0,0,0c0,0,0,0,0,0
		c-0.8-0.3-1.5-0.8-2-1.7c-0.2-0.3-0.3-0.5-0.4-0.8c0,0,0,0,0,0c0,0,0,0,0,0c0.7,0.2,1.3,0.7,1.3,0.7C37.7,24.7,37.9,24.7,38,24.7
		 M35.9,22.1c0.1,0.1,0.2,0.1,0.3,0c0.1-0.1,0.1-0.2,0.1-0.3c-0.3-0.8-0.2-1.6-0.1-2.1c0,0,0,0,0,0c0,0,0,0,0,0
		c0.4,0.5,0.7,1,0.9,1.4c0.2,0.5,0.3,1,0.4,1.5c0,0.5-0.1,1-0.1,1.2c0,0,0,0,0,0l0,0c-0.8-0.1-1.5-0.6-2.2-1.3
		c-0.2-0.2-0.4-0.5-0.6-0.8c0,0,0,0,0,0c0,0,0,0,0,0C35.3,21.7,35.9,22.1,35.9,22.1 M33.9,19.8c0.1,0,0.2,0,0.3-0.1
		c0.1-0.1,0.1-0.2,0-0.3c-0.4-0.9-0.5-1.6-0.5-2.1c0,0,0,0,0,0c0,0,0,0,0,0c0.5,0.4,0.8,0.8,1.1,1.3c0.3,0.5,0.5,0.9,0.6,1.4
		c0.1,0.6,0.1,1,0.1,1.2c0,0,0,0,0,0c0,0,0,0,0,0c-0.9,0-1.7-0.5-2.3-0.9c-0.3-0.2-0.5-0.4-0.8-0.7c0,0,0,0,0,0c0,0,0,0,0,0
		c0,0,0.1,0,0.1,0C33.3,19.5,33.9,19.8,33.9,19.8 M33.1,17.7c0.2,0.5,0.2,1.1,0.2,1.3c0,0,0,0,0,0c0,0-0.1,0-0.1,0
		c-1.1,0-2.4-0.7-3.1-1.2c0,0,0,0,0,0c0,0,0,0,0,0c0.7-0.1,1.4,0,1.4,0c0.1,0,0.2,0,0.3-0.1c0.1-0.1,0.1-0.2,0-0.3
		c-0.4-0.6-0.7-1.2-0.9-1.6c0,0,0,0,0,0c0,0,0,0,0,0C32,16.1,32.7,16.7,33.1,17.7 M12.9,14.4c0.1,0,0.1,0,0.2-0.1
		c0.7-0.2,1.3-0.4,1.6-0.5c0.7-0.2,1.2-0.5,1.3-0.5c0.1,0,0.1-0.1,0.1-0.2c0-0.1-0.1-0.1-0.2-0.1l-3.2-0.5l3.2-0.5
		c0.1,0,0.2-0.1,0.2-0.2c0-0.1-0.1-0.2-0.2-0.2c0,0-0.7-0.1-1.4-0.4c-0.2-0.1-0.4-0.2-0.6-0.3c-0.3-0.2-0.6-0.3-0.9-0.4
		c0.1,0,0.1,0,0.2,0c0.7,0,1.3,0.1,1.6,0.2c0.7,0.1,1.3,0,1.3,0c0.1,0,0.1-0.1,0.2-0.1c0-0.1,0-0.2-0.1-0.2l-2.8-1.7l3.1,0.8
		c0.1,0,0.2,0,0.2-0.1c0-0.1,0-0.2-0.1-0.2c0,0-0.6-0.4-1.1-0.9c-0.2-0.2-0.3-0.3-0.4-0.5c-0.2-0.3-0.4-0.5-0.7-0.7
		c0.1,0,0.1,0,0.2,0.1C15.2,7.5,15.7,7.8,16,8c0.6,0.4,1.2,0.5,1.2,0.5c0.1,0,0.2,0,0.2-0.1c0-0.1,0-0.2,0-0.2l-1.9-2.6l2.6,1.9
		c0.1,0.1,0.2,0,0.2,0c0.1-0.1,0.1-0.2,0-0.2c0-0.1-0.4-0.6-0.7-1.3c-0.1-0.2-0.1-0.4-0.2-0.6c-0.1-0.3-0.2-0.6-0.4-0.9
		c0,0,0.1,0.1,0.1,0.1c0.5,0.5,0.8,1,1,1.3c0.4,0.6,0.9,0.9,0.9,1c0.1,0,0.1,0,0.2,0c0.1,0,0.1-0.1,0.1-0.2l-0.8-3.1l1.7,2.8
		c0,0.1,0.1,0.1,0.2,0.1c0.1,0,0.1-0.1,0.1-0.2c0,0-0.2-0.7-0.1-1.5c0-0.2,0-0.4,0-0.6c0-0.3,0.1-0.6,0-1c0,0.1,0,0.1,0.1,0.2
		c0.2,0.7,0.4,1.3,0.4,1.6c0.2,0.7,0.5,1.2,0.5,1.3c0,0.1,0.1,0.1,0.2,0.1C21.9,6.1,22,6.1,22,6l0.4-3.2L22.9,6
		c0,0.1,0.1,0.2,0.2,0.2c0.1,0,0.2-0.1,0.2-0.2c0,0,0.1-0.7,0.4-1.4C23.8,4.4,23.9,4.2,24,4c0.2-0.3,0.3-0.6,0.4-0.9
		c0,0.1,0,0.1,0,0.2c0,0.7-0.1,1.3-0.2,1.6c-0.1,0.7,0,1.3,0,1.3c0,0.1,0.1,0.1,0.1,0.2c0.1,0,0.2,0,0.2-0.1l1.7-2.8l-0.8,3.1
		c0,0.1,0,0.2,0.1,0.2c0.1,0,0.2,0,0.2-0.1c0-0.1,0.4-0.6,0.9-1.1c0.2-0.2,0.3-0.3,0.5-0.4c0.3-0.2,0.5-0.4,0.7-0.7
		c0,0.1,0,0.1-0.1,0.2c-0.3,0.6-0.6,1.2-0.8,1.4c-0.4,0.6-0.5,1.2-0.5,1.2c0,0.1,0,0.2,0.1,0.2c0.1,0,0.2,0,0.2,0l2.6-1.9l-1.9,2.6
		c-0.1,0.1,0,0.2,0,0.2c0.1,0.1,0.2,0.1,0.2,0c0,0,0.6-0.4,1.3-0.7c0.2-0.1,0.4-0.1,0.6-0.2c0.3-0.1,0.6-0.2,0.9-0.4
		c0,0-0.1,0.1-0.1,0.1c-0.5,0.5-1,0.8-1.3,1c-0.6,0.4-1,0.9-1,0.9c0,0.1,0,0.1,0,0.2c0,0.1,0.1,0.1,0.2,0.1l3.1-0.8l-2.8,1.7
		c-0.1,0-0.1,0.1-0.1,0.2c0,0.1,0.1,0.1,0.2,0.1c0.1,0,0.7-0.2,1.5-0.1c0.2,0,0.4,0,0.6,0c0.3,0,0.6,0.1,1,0c-0.1,0-0.1,0-0.2,0.1
		c-0.7,0.2-1.3,0.4-1.6,0.4c-0.7,0.2-1.2,0.5-1.3,0.5c-0.1,0-0.1,0.1-0.1,0.2c0,0.1,0.1,0.1,0.2,0.1l3.2,0.5L29,13
		c-0.1,0-0.2,0.1-0.2,0.2c0,0.1,0.1,0.2,0.2,0.2c0.1,0,0.7,0.1,1.4,0.4c0.2,0.1,0.4,0.2,0.6,0.3c0.3,0.2,0.6,0.3,0.9,0.4
		c-0.1,0-0.1,0-0.2,0c-0.7,0-1.3-0.1-1.6-0.2l-0.1,0c-0.6-0.3-1.2-0.4-1.8-0.4c0,0,0,0,0,0c0-0.1-0.1-0.2-0.2-0.3
		c-0.9-0.3-1.7-0.5-2.4-0.5c-0.3,0-0.5,0-0.8,0.1c0,0,0-0.1,0-0.1C24.7,13,24.6,13,24.5,13c-0.9-0.1-1.7-0.1-2.5,0
		c-0.3,0.1-0.6,0.1-0.8,0.2c0-0.1,0-0.2-0.1-0.2c-0.1-0.1-0.2-0.1-0.3-0.1c-0.9,0.1-1.7,0.3-2.4,0.6c-0.2,0.1-0.4,0.2-0.5,0.3
		c0-0.1-0.1-0.2-0.1-0.2c-0.1-0.1-0.2-0.1-0.3-0.1c-0.9,0.2-1.7,0.6-2.3,1l0,0c-0.2,0-0.3,0-0.5,0c-0.1,0-0.6,0-0.6,0
		C13.6,14.4,13.3,14.3,12.9,14.4 M13.8,15.3C13.8,15.3,13.8,15.3,13.8,15.3C13.8,15.3,13.8,15.3,13.8,15.3c0,0.5-0.1,1.3-0.7,2.1
		c-0.1,0.1-0.1,0.2,0,0.3c0.1,0.1,0.2,0.1,0.3,0.1c0,0,0.7-0.1,1.4-0.1c0,0,0,0,0,0c0,0,0,0,0,0C14.2,18.2,13,19,11.7,19
		c0,0-0.1,0-0.1,0c0,0,0,0,0,0C11.5,18.4,11.7,16.8,13.8,15.3 M9.4,20c0.1-0.5,0.3-0.9,0.6-1.4c0.3-0.5,0.7-0.9,1.2-1.3c0,0,0,0,0,0
		c0,0,0,0,0,0c0,0.5-0.1,1.3-0.5,2.1c-0.1,0.1,0,0.2,0,0.3c0.1,0.1,0.2,0.1,0.3,0.1c0,0,0.7-0.2,1.4-0.2c0,0,0,0,0,0c0,0,0,0,0,0
		c-0.3,0.3-0.5,0.5-0.8,0.7c-0.6,0.4-1.4,0.9-2.1,0.9c0,0-0.1,0-0.1,0c0,0,0,0,0,0C9.3,21,9.2,20.6,9.4,20 M8.6,19.6
		C8.6,19.6,8.7,19.6,8.6,19.6C8.7,19.6,8.7,19.6,8.6,19.6c0.1,0.5,0.2,1.3-0.1,2.2c0,0.1,0,0.2,0.1,0.3c0.1,0.1,0.2,0.1,0.3,0
		c0,0,0.6-0.4,1.4-0.5c0,0,0,0,0,0c0,0,0,0,0,0c-0.5,0.7-1.5,1.9-2.8,2.1h0c0,0,0,0,0,0C7.3,23.1,7,21.6,8.6,19.6 M5.8,23.8
		c0.2-0.5,0.4-1,0.8-1.6c0,0,0,0,0,0c0,0,0,0,0,0c0.2,0.5,0.3,1.2,0.1,2.2c0,0.1,0,0.2,0.1,0.3c0.1,0.1,0.2,0,0.3,0
		c0,0,0.6-0.5,1.3-0.6c0,0,0,0,0,0c0,0,0,0,0,0C8.4,24.3,8.2,24.6,8,25c-0.6,0.8-1.3,1.3-2.1,1.5c0,0,0,0,0,0c0,0,0,0,0,0
		c-0.1-0.2-0.2-0.6-0.3-1.1C5.6,24.9,5.7,24.4,5.8,23.8 M4.3,26.8c0.1-0.5,0.3-1.1,0.5-1.7c0,0,0,0,0,0h0c0,0,0,0,0,0
		c0.2,0.4,0.5,1.2,0.4,2.1c0,0.1,0.1,0.2,0.2,0.3c0.1,0,0.2,0,0.3,0c0,0,0.6-0.5,1.3-0.8c0,0,0,0,0,0c0,0,0,0,0,0
		c-0.1,0.3-0.2,0.5-0.3,0.8c-0.4,0.8-1.1,1.5-1.9,1.9c0,0,0,0,0,0c0,0,0,0,0,0c-0.1-0.2-0.3-0.5-0.4-1.1C4.2,27.8,4.2,27.3,4.3,26.8
		 M3.5,28.1C3.5,28.1,3.5,28.1,3.5,28.1C3.5,28.1,3.5,28.1,3.5,28.1c0.3,0.4,0.7,1.1,0.7,2.1c0,0.1,0.1,0.2,0.2,0.2
		c0.1,0,0.2,0,0.3-0.1c0,0,0.5-0.6,1.2-1c0,0,0,0,0,0c0,0,0,0,0,0c0,0.3-0.1,0.6-0.2,0.8c-0.3,0.9-0.9,1.6-1.7,2.1c0,0,0,0,0,0
		c0,0,0,0,0,0c-0.1-0.1-0.4-0.5-0.6-1c-0.2-0.5-0.2-1-0.2-1.5C3.2,29.3,3.3,28.7,3.5,28.1 M2.5,31.3C2.5,31.3,2.5,31.3,2.5,31.3
		C2.5,31.3,2.6,31.3,2.5,31.3c0.4,0.4,0.8,1,1,2c0,0.1,0.1,0.2,0.2,0.2c0.1,0,0.2,0,0.3-0.1c0,0,0.4-0.6,1-1.1c0,0,0,0,0,0
		c0,0,0,0,0,0c0,0.3-0.1,0.6-0.1,0.8c-0.2,0.9-0.7,1.7-1.3,2.3c0,0,0,0,0,0c0,0,0,0,0,0c-0.2-0.1-0.4-0.4-0.7-0.9
		c-0.2-0.4-0.4-0.9-0.4-1.5C2.4,32.5,2.4,31.9,2.5,31.3 M2,34.5C2,34.5,2.1,34.5,2,34.5C2.1,34.5,2.1,34.5,2,34.5
		c0.4,0.4,0.8,1,1.1,1.9c0,0.1,0.1,0.2,0.2,0.2c0.1,0,0.2-0.1,0.3-0.2c0,0,0.3-0.6,0.8-1.1c0,0,0,0,0,0c0,0,0,0,0,0
		c0,0.3,0,0.6-0.1,1c-0.2,1-0.5,1.7-1.1,2.3c0,0,0,0,0,0c0,0,0,0,0,0c-0.1-0.1-0.5-0.4-0.7-0.9c-0.2-0.4-0.4-0.9-0.5-1.5
		C2,35.7,2,35.1,2,34.5 M1.8,37.8C1.8,37.8,1.8,37.8,1.8,37.8C1.8,37.8,1.8,37.8,1.8,37.8C1.9,37.9,2,38,2,38c0.3,0.3,0.7,0.9,1,1.7
		c0,0.1,0.2,0.2,0.3,0.2c0.1,0,0.2-0.1,0.2-0.2v0c0,0,0.1-0.7,0.7-1.2c0,0,0,0,0,0c0,0,0,0,0,0c0.1,0.4,0.1,1,0,1.6
		c-0.1,0.7-0.4,1.4-0.9,1.8c0,0,0,0,0,0c0,0,0,0,0,0C2.8,41.5,1.6,40.4,1.8,37.8 M1.7,41.1C1.7,41.1,1.7,41.1,1.7,41.1
		c0.1,0.1,0.2,0.1,0.2,0.2c0.3,0.3,0.8,0.8,1.1,1.5c0,0.1,0.1,0.2,0.2,0.2c0,0,0,0,0,0h0c0.1,0,0.2-0.1,0.2-0.2c0,0,0.3-0.7,0.8-1.3
		c0,0,0,0,0,0c0,0,0,0,0,0c0.1,0.7,0.2,2-0.8,3.4c0,0,0,0,0,0c0,0,0,0,0,0C3,44.6,1.8,43.7,1.7,41.1C1.6,41.1,1.6,41.1,1.7,41.1
		 M1.8,44.5C1.8,44.5,1.8,44.5,1.8,44.5C1.8,44.5,1.8,44.5,1.8,44.5c0.5,0.2,1.1,0.6,1.7,1.4C3.5,46,3.6,46.1,3.8,46
		c0.1,0,0.2-0.1,0.2-0.2v0l0,0l0,0c0,0,0.2-0.8,0.6-1.4c0,0,0,0,0,0c0,0,0,0,0,0c0.1,0.3,0.2,0.6,0.3,0.9c0.2,0.9,0,1.8-0.5,2.7
		c0,0,0,0,0,0c0,0,0,0,0,0c-0.2-0.1-0.6-0.2-1-0.6C3,47,2.7,46.6,2.4,46.1C2.2,45.6,2,45.1,1.8,44.5 M2.6,47.6
		C2.6,47.6,2.6,47.6,2.6,47.6C2.6,47.6,2.6,47.6,2.6,47.6c0.1,0,0.2,0.1,0.3,0.1c0.4,0.2,1,0.6,1.5,1.2C4.4,49,4.5,49.1,4.6,49
		c0.1,0,0.2-0.1,0.2-0.2c0,0,0.1-0.8,0.4-1.4c0,0,0,0,0,0c0,0,0,0,0,0c0.3,0.7,0.8,2.1,0.1,3.5c0,0,0,0,0,0c0,0,0,0,0,0
		C4.8,50.7,3.3,50.1,2.6,47.6 M4.5,52.3c-0.3-0.4-0.6-0.9-0.9-1.5c0,0,0,0,0,0c0,0,0,0,0,0c0.1,0,0.2,0.1,0.3,0.1
		c0.4,0.2,1,0.5,1.6,1C5.6,52,5.7,52,5.8,51.9c0.1,0,0.2-0.1,0.2-0.2c0,0,0-0.7,0.2-1.4c0,0,0,0,0,0c0,0,0,0,0,0
		c0.2,0.3,0.3,0.5,0.4,0.8C7,52,7,52.9,6.8,53.7c0,0,0,0,0,0l0,0c-0.2,0-0.6-0.1-1.1-0.4C5.2,53,4.8,52.7,4.5,52.3 M4.9,53.8
		C4.9,53.7,4.9,53.7,4.9,53.8C4.9,53.7,4.9,53.7,4.9,53.8c0.5,0.1,1.3,0.3,2,0.9c0.1,0.1,0.2,0.1,0.3,0c0.1-0.1,0.2-0.2,0.1-0.3
		c0,0-0.1-0.7,0.1-1.4c0,0,0,0,0,0c0,0,0,0,0,0c0.2,0.3,0.3,0.5,0.5,0.8c0.3,0.6,0.6,1.5,0.5,2.5c0,0,0,0,0,0h0
		c-0.2,0-0.6-0.1-1.1-0.3c-0.5-0.2-0.9-0.5-1.3-0.9C5.6,54.8,5.3,54.3,4.9,53.8 M11.2,59.2c0,0-0.3-0.7-0.3-1.4c0,0,0,0,0,0
		c0,0,0,0,0,0c0.6,0.5,1.7,1.6,1.6,3.1c0,0,0,0,0,0c-0.1,0-0.2,0-0.4,0c-0.2,0-0.4,0-0.6-0.1c-0.9-0.2-1.8-0.7-2.8-1.6c0,0,0,0,0,0
		c0,0,0,0,0,0c0.5-0.1,1.3-0.1,2.2,0.3c0.1,0,0.2,0,0.3-0.1C11.2,59.4,11.2,59.3,11.2,59.2 M8.7,57.2c0.1,0.1,0.2,0.1,0.3,0
		c0.1-0.1,0.1-0.2,0.1-0.3c0,0-0.2-0.7-0.1-1.4c0,0,0,0,0,0c0,0,0,0,0,0c0.5,0.6,1.4,1.9,1.3,3.2c0,0,0,0,0,0c0,0-0.1,0-0.1,0
		c-0.2,0-0.6,0-1-0.2c-0.5-0.2-0.9-0.4-1.4-0.7c-0.4-0.3-0.8-0.8-1.2-1.3c0,0,0,0,0,0c0,0,0,0,0,0C7.1,56.6,7.9,56.7,8.7,57.2
		 M19.3,50.1c-0.1,0.1-0.2,0.1-0.2,0.2c-0.6,0.4-0.9,0.8-1.1,1.3c-0.1,0-0.1,0-0.2-0.1c-0.4-0.1-0.5-0.4-0.5-0.5
		c0-0.2,0.1-0.4,0.4-0.8c0.4-0.4,0.7-0.6,1-0.6c0.1,0,0.2,0,0.3,0.1C19.2,49.9,19.3,50,19.3,50.1C19.3,50.1,19.3,50.1,19.3,50.1
		 M19.9,52.4c-0.2,0-0.7,0.1-0.9-0.1c-0.1,0-0.1-0.1-0.1-0.3c0-0.4,0.4-0.8,0.7-1c0.5-0.3,0.8-0.5,1-0.5c0.1,0,0.2,0,0.4,0.1
		c0.1,0.1,0.1,0.2,0.1,0.2c0,0.1-0.2,0.3-0.3,0.4C20.4,51.6,20,52,19.9,52.4 M22.2,52.4c-0.2,0.1-0.8,0.5-1.2,0.4
		c-0.1,0-0.2,0-0.3-0.2c0.2-0.4,0.6-0.7,1-0.9c0.5-0.3,0.7-0.1,0.7-0.1c0.1,0.1,0.1,0.2,0.1,0.3C22.6,52.1,22.3,52.3,22.2,52.4
		C22.2,52.4,22.2,52.4,22.2,52.4 M17.3,49.5c-0.1,0.1-0.1,0.1-0.2,0.2c-0.3,0.3-0.6,0.6-0.7,1c-0.1,0-0.1,0-0.2,0
		c-0.3,0-0.5-0.1-0.5-0.2c0,0-0.1-0.2,0.1-0.4c0.2-0.3,0.8-0.6,1.2-0.6c0,0,0.1,0,0.1,0c0,0,0,0,0,0C17.2,49.4,17.3,49.4,17.3,49.5
		 M29,50c-0.1,0.1-0.3,0.2-0.6,0.2c-0.4-0.5-1.4-1.7-2.6-2.3c-0.1-0.1-0.2-0.1-0.3,0c-0.1,0-0.2,0.1-0.3,0.2c-0.1,0.1-0.1,0.2,0,0.3
		c0,0.1,0.1,0.2,0.2,0.3c1.1,0.5,1.9,1.6,2.3,2c0,0.1-0.1,0.1-0.1,0.2c-0.2,0.2-0.4,0.3-0.7,0.3c-0.1-0.2-0.3-0.5-0.6-0.9
		c-0.4-0.4-1.2-1-1.2-1c-0.1-0.1-0.2-0.1-0.3-0.1c-0.1,0-0.2,0.1-0.3,0.2c-0.1,0.1-0.1,0.2-0.1,0.3c0,0.1,0.1,0.2,0.2,0.3
		c0.2,0.1,0.8,0.6,1,0.9c0.3,0.3,0.4,0.6,0.5,0.7c0,0.1-0.1,0.2-0.2,0.3c-0.2,0.2-0.4,0.2-0.6,0.2c-0.1-0.3-0.4-0.7-0.8-1.2
		c-0.2-0.2-0.5-0.2-0.6,0c-0.1,0.1-0.1,0.2-0.2,0.3c0,0.1,0,0.2,0.1,0.3c0.3,0.4,0.5,0.7,0.6,0.9c-0.1,0-0.2,0.1-0.2,0.1
		c-0.2,0.1-0.5,0.1-0.7,0.1c0.1-0.2,0.2-0.4,0.2-0.5c0-0.2,0-0.6-0.4-1c-0.2-0.2-0.6-0.4-1.1-0.3c0-0.3-0.2-0.5-0.4-0.7
		c-0.4-0.4-0.9-0.5-1.4-0.3v0c-0.1-0.2-0.3-0.5-0.7-0.7c-0.4-0.2-0.8-0.2-1.2-0.1c-0.4-0.3-0.9-0.4-1-0.4c-0.6-0.1-1.4,0.2-1.9,0.7
		c-2.6,1.4-5.9,2.9-7.2,3.5c-0.7-1.3-1.3-2.8-1.8-4.3C6.2,48,6.1,47.6,6,47.2c3.8-0.4,6.8-0.9,9.1-1.3c2.3-0.5,3.8-0.9,4.6-1.5
		c0.9-0.6,1.5-0.9,2.3-0.9c0.2,0,0.4,0,0.6,0.1c-0.2,0.1-0.3,0.2-0.5,0.3c-0.4,0.3-0.6,0.4-0.8,0.6c-0.2,0.2-0.3,0.3-0.6,0.4
		c-0.2,0.1-0.4,0.2-0.6,0.3c-0.5,0.3-0.9,0.5-1.1,0.8c-0.1,0.4-0.1,0.7,0.2,1.1c0.4,0.6,1.1,0.5,1.6,0.5c0.6,0,1.3-0.2,1.8-0.6
		c0.2-0.1,0.4-0.2,0.5-0.3c0.2-0.2,0.4-0.3,0.6-0.3c0,0,0,0,0,0c0.5-0.1,1-0.1,1.6,0.2c0.5,0.2,1.1,0.5,1.6,0.9
		c1.2,0.8,2.1,1.8,2.3,2.1C29.1,49.7,29.1,49.9,29,50 M30.6,49.7c-0.4-0.3-0.7-0.6-0.8-0.7c0,0,0,0,0,0l0,0c0,0-0.1-0.1-0.1-0.1
		c-0.4-0.5-1.3-1.4-2.4-2.1c-0.8-0.5-2.4-1.5-3.9-1.1c-0.3,0.1-0.6,0.2-0.9,0.4c-0.1,0.1-0.3,0.2-0.5,0.3c-0.5,0.3-1.1,0.4-1.4,0.4
		c-0.4,0-0.7,0-0.8-0.1c-0.1-0.1-0.1-0.2-0.1-0.2c0.1-0.1,0.4-0.3,0.6-0.4c0.2-0.1,0.5-0.2,0.7-0.4c0.3-0.2,0.5-0.3,0.7-0.5
		c0.2-0.1,0.4-0.3,0.7-0.5c0.4-0.3,0.9-0.3,1.7-0.3l0,0c0.1,0,0.2,0,0.4,0c0.1,0,0.2,0,0.3,0c0.8,0,1.5,0.2,2.6,0.6
		c0.3,0.1,0.7,0.2,1.1,0.4c0.1,0,1.5,0.5,3.5,1c1.7,0.4,4.3,0.9,6.7,1.1c-0.1,0.4-0.2,0.8-0.3,1.1c-0.5,1.6-1.1,3-1.9,4.4
		C35.4,52.3,32.5,51.1,30.6,49.7 M36.2,59.3c-1.2,1.1-2.1,1.5-2.8,1.6c-0.2,0-0.5,0.1-0.6,0.1c-0.2,0-0.3,0-0.4,0c0,0,0,0,0,0
		c0-0.8,0.3-1.6,0.9-2.4c0.2-0.2,0.4-0.5,0.7-0.7c0,0,0,0,0,0c0,0,0,0,0,0c-0.1,0.7-0.3,1.3-0.3,1.4c0,0.1,0,0.2,0.1,0.3
		c0.1,0.1,0.2,0.1,0.3,0.1C34.9,59.2,35.7,59.2,36.2,59.3C36.2,59.2,36.2,59.3,36.2,59.3C36.2,59.3,36.2,59.3,36.2,59.3 M38.2,56.6
		c-0.4,0.5-0.8,0.9-1.2,1.3c-0.4,0.3-0.9,0.6-1.4,0.7c-0.4,0.1-0.8,0.2-1,0.2c0,0-0.1,0-0.1,0c0,0,0,0,0,0c-0.1-0.8,0.2-1.6,0.7-2.4
		c0.2-0.3,0.4-0.5,0.6-0.7c0,0,0,0,0,0c0,0,0,0,0,0c0.1,0.7-0.1,1.4-0.1,1.4c0,0.1,0,0.2,0.1,0.3c0.1,0.1,0.2,0.1,0.3,0
		C37,56.7,37.7,56.6,38.2,56.6C38.2,56.5,38.2,56.5,38.2,56.6C38.3,56.5,38.3,56.6,38.2,56.6 M38.9,55.1c-0.4,0.4-0.8,0.7-1.3,0.9
		c-0.5,0.2-1,0.3-1.1,0.3h0c0,0,0,0,0,0c-0.1-0.8,0-1.6,0.5-2.5c0.1-0.3,0.3-0.5,0.5-0.8c0,0,0,0,0,0c0,0,0,0,0,0
		c0.1,0.7,0.1,1.4,0.1,1.4c0,0.1,0,0.2,0.1,0.3c0.1,0.1,0.2,0,0.3,0c0.8-0.6,1.5-0.8,2-0.9c0,0,0,0,0,0c0,0,0,0,0,0
		C39.6,54.3,39.3,54.8,38.9,55.1 M40.4,52.2c-0.3,0.4-0.7,0.8-1.2,1c-0.5,0.3-0.9,0.4-1.1,0.4l0,0c0,0,0,0,0,0
		c-0.2-0.8-0.2-1.7,0.1-2.6c0.1-0.3,0.2-0.5,0.4-0.8c0,0,0,0,0,0c0,0,0,0,0,0c0.2,0.7,0.3,1.4,0.3,1.4c0,0.1,0.1,0.2,0.2,0.2
		c0.1,0,0.2,0,0.3-0.1c0.6-0.7,1.2-1,1.6-1.1c0.1,0,0.2-0.1,0.3-0.1c0,0,0,0,0,0c0,0,0,0,0,0C41,51.3,40.7,51.8,40.4,52.2
		 M41.5,49.2c-0.3,0.5-0.7,0.8-1.1,1.1c-0.5,0.3-0.9,0.5-1.1,0.5c0,0,0,0,0,0c0,0,0,0,0,0c-0.4-0.9-0.3-1.9-0.1-2.6
		c0.1-0.3,0.2-0.6,0.3-0.9c0,0,0,0,0,0h0c0,0,0,0,0,0c0.3,0.7,0.4,1.4,0.4,1.4c0,0.1,0.1,0.2,0.2,0.2c0.1,0,0.2,0,0.3-0.1
		c0.6-0.7,1.3-1.1,1.8-1.3c0,0,0,0,0,0c0,0,0,0,0,0C42.1,48.2,41.8,48.7,41.5,49.2 M42.4,46c-0.2,0.5-0.5,0.9-0.9,1.2
		c-0.4,0.4-0.8,0.6-1,0.6c0,0,0,0,0,0c0,0,0,0,0,0c-0.4-0.7-0.6-1.6-0.4-2.6c0-0.3,0.1-0.6,0.2-0.9c0,0,0,0,0,0c0,0,0,0,0,0
		c0.4,0.6,0.6,1.4,0.6,1.4c0,0.1,0.1,0.2,0.2,0.2c0.1,0,0.2,0,0.3-0.1c0.5-0.8,1.1-1.3,1.6-1.5c0,0,0,0,0,0c0,0,0,0,0,0
		C42.8,45,42.6,45.5,42.4,46"/>
	<path class="st3" d="M28.2,13.9c0.6,0,1.2,0.1,1.8,0.4l0.1,0c0.3,0.1,0.9,0.2,1.6,0.2c0.1,0,0.1,0,0.2,0c-0.4-0.1-0.6-0.3-0.9-0.4
		c-0.2-0.1-0.4-0.2-0.6-0.3c-0.7-0.3-1.3-0.4-1.4-0.4c-0.1,0-0.2-0.1-0.2-0.2c0-0.1,0.1-0.2,0.2-0.2l3.2-0.5L29,12.1
		c-0.1,0-0.1-0.1-0.2-0.1c0-0.1,0-0.2,0.1-0.2c0,0,0.5-0.3,1.3-0.5c0.3-0.1,0.9-0.2,1.6-0.4c0.1,0,0.1,0,0.2-0.1c-0.4,0-0.7,0-1,0
		c-0.2,0-0.4,0-0.6,0c-0.8,0-1.4,0.1-1.5,0.1c-0.1,0-0.2,0-0.2-0.1c0-0.1,0-0.2,0.1-0.2l2.8-1.7l-3.1,0.8c-0.1,0-0.2,0-0.2-0.1
		c0-0.1,0-0.1,0-0.2c0,0,0.4-0.5,1-0.9c0.3-0.2,0.8-0.6,1.3-1c0,0,0.1-0.1,0.1-0.1c-0.3,0.2-0.6,0.3-0.9,0.4
		c-0.2,0.1-0.4,0.1-0.6,0.2c-0.7,0.3-1.3,0.7-1.3,0.7c-0.1,0.1-0.2,0-0.2,0c-0.1-0.1-0.1-0.2,0-0.2l1.9-2.6l-2.6,1.9
		c-0.1,0-0.1,0-0.2,0c-0.1,0-0.1-0.1-0.1-0.2c0,0,0.1-0.6,0.5-1.2c0.2-0.3,0.5-0.8,0.8-1.4c0-0.1,0-0.1,0.1-0.2
		c-0.2,0.3-0.5,0.5-0.7,0.7c-0.2,0.1-0.3,0.3-0.5,0.4c-0.6,0.5-0.9,1.1-0.9,1.1c0,0.1-0.1,0.1-0.2,0.1c-0.1,0-0.1-0.1-0.1-0.2
		l0.8-3.1l-1.7,2.8c0,0.1-0.1,0.1-0.2,0.1c-0.1,0-0.1-0.1-0.1-0.2c0,0-0.1-0.6,0-1.3c0.1-0.3,0.2-1,0.2-1.6c0-0.1,0-0.1,0-0.2
		C24.3,3.4,24.1,3.7,24,4c-0.1,0.2-0.2,0.4-0.3,0.6C23.4,5.3,23.2,6,23.2,6c0,0.1-0.1,0.2-0.2,0.2c-0.1,0-0.2-0.1-0.2-0.2l-0.5-3.2
		L22,6c0,0.1-0.1,0.1-0.1,0.2c-0.1,0-0.2,0-0.2-0.1c0-0.1-0.3-0.6-0.5-1.3c-0.1-0.3-0.2-0.9-0.4-1.6c0-0.1,0-0.1-0.1-0.2
		c0,0.4,0,0.7,0,1c0,0.2,0,0.4-0.1,0.6c0,0.8,0.1,1.4,0.1,1.5c0,0.1,0,0.2-0.1,0.2c-0.1,0-0.2,0-0.2-0.1l-1.7-2.8l0.8,3.1
		c0,0.1,0,0.2-0.1,0.2c-0.1,0-0.1,0-0.2,0c-0.1,0-0.5-0.4-0.9-1c-0.2-0.3-0.6-0.8-1-1.3c0,0-0.1-0.1-0.1-0.1
		c0.2,0.3,0.3,0.6,0.4,0.9c0.1,0.2,0.1,0.4,0.2,0.6c0.3,0.7,0.7,1.3,0.7,1.3c0.1,0.1,0,0.2,0,0.2c-0.1,0.1-0.2,0.1-0.2,0l-2.6-1.9
		l1.9,2.6c0,0.1,0,0.1,0,0.2c0,0.1-0.1,0.1-0.2,0.1c0,0-0.6-0.1-1.2-0.5c-0.3-0.2-0.8-0.5-1.4-0.8c-0.1,0-0.1,0-0.2-0.1
		c0.3,0.2,0.5,0.5,0.7,0.7c0.1,0.2,0.3,0.3,0.4,0.5c0.5,0.6,1.1,0.9,1.1,0.9c0.1,0,0.1,0.1,0.1,0.2c0,0.1-0.1,0.1-0.2,0.1l-3.1-0.8
		l2.8,1.7c0.1,0,0.1,0.1,0.1,0.2c0,0.1-0.1,0.1-0.2,0.1c0,0-0.6,0.1-1.3,0c-0.3-0.1-0.9-0.2-1.6-0.2c-0.1,0-0.1,0-0.2,0
		c0.4,0.1,0.6,0.3,0.9,0.4c0.2,0.1,0.4,0.2,0.6,0.3c0.7,0.3,1.4,0.4,1.4,0.4c0.1,0,0.2,0.1,0.2,0.2c0,0.1-0.1,0.2-0.2,0.2l-3.2,0.5
		l3.2,0.5c0.1,0,0.1,0.1,0.2,0.1c0,0.1,0,0.2-0.1,0.2c0,0-0.5,0.3-1.3,0.5c-0.3,0.1-0.9,0.2-1.6,0.5c-0.1,0-0.1,0-0.2,0.1
		c0.4,0,0.7,0,1,0c0,0,0.5,0,0.6,0c0.2,0,0.3,0,0.5,0l0,0c0.6-0.4,1.4-0.8,2.3-1c0.1,0,0.2,0,0.3,0.1c0.1,0.1,0.1,0.2,0.1,0.2
		c0.2-0.1,0.3-0.2,0.5-0.3c0.7-0.3,1.5-0.5,2.4-0.6c0.1,0,0.2,0,0.3,0.1c0.1,0.1,0.1,0.1,0.1,0.2c0.3-0.1,0.5-0.2,0.8-0.2
		c0.7-0.1,1.6-0.2,2.5,0c0.1,0,0.2,0.1,0.3,0.2c0,0,0,0.1,0,0.1c0.2,0,0.5-0.1,0.8-0.1c0.7,0,1.6,0.2,2.4,0.5
		C28.1,13.7,28.2,13.8,28.2,13.9C28.2,13.9,28.2,13.9,28.2,13.9"/>
	<path class="st2" d="M23.5,9.9c3.1-0.5,3.5,0.4,3.5,0.4s0.1,0.2,0.3,0.1c0,0,0.2,0,0.1-0.3c0,0-0.3-1-2-1.2c0,0-0.9-0.1-1.8,0.1
		c-0.3,0-0.4,0.7-0.4,0.7C23.3,9.9,23.5,9.9,23.5,9.9"/>
	<path class="st2" d="M20.9,10.5c-0.4-0.2-1.2-0.1-1.2-0.1c-1.4,0-1.8,0.9-1.8,0.9c-0.1,0.3,0.1,0.3,0.1,0.3
		c0.3,0.1,0.4-0.2,0.4-0.2s0.1-0.2,0.7-0.4c0,0.1-0.1,0.2-0.1,0.3c0,0.4,0.3,0.7,0.7,0.7c0.4,0,0.7-0.3,0.7-0.7c0-0.1,0-0.2-0.1-0.3
		c0.2,0.1,0.4,0.2,0.5,0.5c0.1,0.1,0.2,0.1,0.4,0.1c0.3,0,0.2-0.2,0.2-0.2C21.4,10.7,20.9,10.5,20.9,10.5"/>
	<path class="st2" d="M23.5,11.6c0.3,0,0.4,0,0.4-0.1c0.1-0.3,0.3-0.4,0.5-0.5c0,0.1-0.1,0.2-0.1,0.3c0,0.4,0.3,0.7,0.7,0.7
		c0.4,0,0.7-0.3,0.7-0.7c0-0.1,0-0.2-0.1-0.3c0.6,0.1,0.7,0.4,0.7,0.4s0.1,0.2,0.4,0.2c0,0,0.2,0,0.1-0.3c0,0-0.4-0.9-1.8-0.9
		c0,0-0.9,0-1.2,0.1c0,0-0.5,0.2-0.6,1C23.3,11.4,23.2,11.6,23.5,11.6"/>
	<path class="st2" d="M17.5,10.4c0.3,0.1,0.3-0.1,0.3-0.1s0.3-0.9,3.5-0.4c0,0,0.3,0.1,0.2-0.2c0,0-0.1-0.6-0.4-0.7
		C20.2,8.8,19.3,9,19.3,9c-1.7,0.2-2,1.2-2,1.2C17.2,10.4,17.5,10.4,17.5,10.4"/>
	<path class="st4" d="M36.2,59.2c-0.5-0.1-1.3-0.1-2.2,0.3c-0.1,0-0.2,0-0.3-0.1c-0.1-0.1-0.1-0.2-0.1-0.3c0,0,0.3-0.7,0.3-1.4
		c0,0,0,0,0,0c0,0,0,0,0,0c-0.3,0.2-0.5,0.4-0.7,0.7c-0.7,0.8-1,1.6-0.9,2.4c0,0,0,0,0,0c0.1,0,0.2,0,0.4,0c0.2,0,0.4,0,0.6-0.1
		C34.1,60.7,35,60.4,36.2,59.2C36.2,59.3,36.2,59.3,36.2,59.2C36.2,59.3,36.2,59.2,36.2,59.2"/>
	<path class="st4" d="M10.9,57.8C10.9,57.8,10.9,57.8,10.9,57.8C10.8,57.8,10.8,57.8,10.9,57.8c0,0.7,0.3,1.4,0.3,1.4
		c0,0.1,0,0.2-0.1,0.3c-0.1,0.1-0.2,0.1-0.3,0.1c-0.9-0.4-1.7-0.4-2.2-0.3c0,0,0,0,0,0c0,0,0,0,0,0c0.9,0.9,1.9,1.4,2.8,1.6
		c0.2,0,0.5,0.1,0.6,0.1c0.2,0,0.3,0,0.4,0c0,0,0,0,0,0C12.6,59.4,11.5,58.3,10.9,57.8"/>
	<path class="st4" d="M38.2,56.5c-0.5,0-1.3,0.2-2.1,0.7c-0.1,0.1-0.2,0.1-0.3,0c-0.1-0.1-0.1-0.2-0.1-0.3c0,0,0.1-0.7,0.1-1.4
		c0,0,0,0,0,0c0,0,0,0,0,0c-0.2,0.2-0.4,0.5-0.6,0.7c-0.5,0.8-0.8,1.7-0.7,2.4c0,0,0,0,0,0c0,0,0.1,0,0.1,0c0.2,0,0.6,0,1-0.2
		c0.5-0.2,0.9-0.4,1.4-0.7C37.5,57.5,37.9,57.1,38.2,56.5C38.3,56.6,38.3,56.5,38.2,56.5C38.2,56.5,38.2,56.5,38.2,56.5"/>
	<path class="st4" d="M39.9,53.7c-0.5,0.1-1.2,0.3-2,0.9c-0.1,0.1-0.2,0.1-0.3,0c-0.1-0.1-0.2-0.2-0.1-0.3c0,0,0.1-0.7-0.1-1.4
		c0,0,0,0,0,0c0,0,0,0,0,0c-0.2,0.3-0.3,0.5-0.5,0.8c-0.4,0.9-0.6,1.7-0.5,2.5c0,0,0,0,0,0h0c0.2,0,0.6-0.1,1.1-0.3
		c0.5-0.2,0.9-0.5,1.3-0.9C39.3,54.8,39.6,54.3,39.9,53.7C39.9,53.7,39.9,53.7,39.9,53.7C39.9,53.7,39.9,53.7,39.9,53.7"/>
	<path class="st4" d="M41.3,50.7c-0.1,0-0.2,0.1-0.3,0.1c-0.4,0.1-1,0.4-1.6,1.1c-0.1,0.1-0.2,0.1-0.3,0.1c-0.1,0-0.2-0.1-0.2-0.2
		c0,0,0-0.7-0.3-1.4c0,0,0,0,0,0c0,0,0,0,0,0c-0.1,0.3-0.3,0.5-0.4,0.8c-0.3,0.9-0.4,1.8-0.1,2.6c0,0,0,0,0,0l0,0
		c0.2,0,0.6-0.1,1.1-0.4c0.4-0.2,0.8-0.6,1.2-1C40.7,51.8,41,51.3,41.3,50.7C41.3,50.7,41.3,50.7,41.3,50.7
		C41.3,50.7,41.3,50.7,41.3,50.7"/>
	<path class="st4" d="M42.2,47.6c-0.5,0.2-1.1,0.6-1.8,1.3C40.4,49,40.3,49,40.2,49c-0.1,0-0.2-0.1-0.2-0.2c0,0-0.1-0.8-0.4-1.4
		c0,0,0,0,0,0c0,0,0,0,0,0c-0.1,0.3-0.2,0.6-0.3,0.9c-0.2,0.7-0.3,1.7,0.1,2.6c0,0,0,0,0,0c0,0,0,0,0,0c0.2,0,0.6-0.2,1.1-0.5
		c0.4-0.3,0.8-0.7,1.1-1.1C41.8,48.7,42.1,48.2,42.2,47.6C42.3,47.6,42.2,47.6,42.2,47.6C42.2,47.6,42.2,47.6,42.2,47.6"/>
	<path class="st4" d="M42.9,44.3c-0.4,0.2-1.1,0.7-1.6,1.5C41.2,45.9,41.1,46,41,46c-0.1,0-0.2-0.1-0.2-0.2c0,0-0.2-0.8-0.6-1.4
		c0,0,0,0,0,0c0,0,0,0,0,0C40.1,44.7,40,45,40,45.3c-0.1,1,0,1.9,0.4,2.6c0,0,0,0,0,0c0,0,0,0,0,0c0.2-0.1,0.6-0.3,1-0.6
		c0.4-0.3,0.7-0.8,0.9-1.2C42.6,45.5,42.8,45,42.9,44.3C42.9,44.3,42.9,44.3,42.9,44.3C42.9,44.3,42.9,44.3,42.9,44.3"/>
	<path class="st4" d="M41.7,42.7c0,0.1-0.2,0.2-0.3,0.2c-0.1,0-0.2-0.1-0.2-0.2c0,0-0.3-0.7-0.7-1.3c0,0,0,0,0,0c0,0,0,0,0,0
		c-0.1,0.3-0.1,0.6-0.1,0.9c0,1,0.2,1.8,0.7,2.5c0,0,0,0,0,0c0,0,0,0,0,0c0.1-0.1,0.5-0.3,0.9-0.8c0.3-0.4,0.6-0.8,0.8-1.3
		c0.2-0.5,0.3-1.1,0.3-1.7c0,0,0,0,0,0c0,0,0,0,0,0C42.7,41.3,42.2,41.9,41.7,42.7"/>
	<path class="st4" d="M41.6,39.8c-0.1,0-0.2-0.1-0.3-0.2c0,0-0.3-0.6-0.8-1.2c0,0,0,0,0,0c0,0,0,0,0,0c0,0.8,0.1,2.3,0.9,3.3
		c0,0,0,0,0,0c0,0,0,0,0,0c0.1-0.1,0.5-0.4,0.8-0.8c0.3-0.4,0.5-0.9,0.6-1.4c0.1-0.5,0.2-1.1,0.2-1.7c0,0,0,0,0,0c0,0,0,0,0,0
		c-0.4,0.3-0.9,0.9-1.2,1.8C41.8,39.7,41.7,39.8,41.6,39.8"/>
	<path class="st4" d="M41.5,36.6c-0.1,0-0.2,0-0.3-0.1c0,0-0.4-0.6-0.9-1.1c0,0,0,0,0,0c0,0,0,0,0,0c0.1,0.9,0.3,2.4,1.2,3.2
		c0,0,0,0,0,0c0,0,0,0,0,0c0.1-0.1,0.5-0.4,0.8-0.9c0.2-0.4,0.4-0.9,0.5-1.5c0.1-0.5,0.1-1.1,0-1.7c0,0,0,0,0,0c0,0,0,0,0,0
		c-0.3,0.4-0.8,1-1,1.9C41.7,36.5,41.6,36.6,41.5,36.6"/>
	<path class="st4" d="M41.1,33.5c-0.1,0-0.2,0-0.3-0.1c0,0-0.4-0.6-1-1c0,0,0,0,0,0c0,0,0,0,0,0c0,0.3,0.1,0.6,0.2,0.9
		c0.2,0.7,0.5,1.6,1.3,2.2c0,0,0,0,0,0c0,0,0,0,0,0c0.1-0.1,0.4-0.4,0.7-0.9c0.2-0.4,0.4-0.9,0.4-1.5c0.1-0.5,0-1.1-0.1-1.7
		c0,0,0,0,0,0c0,0,0,0,0,0c-0.3,0.4-0.8,1-0.9,2C41.3,33.4,41.2,33.5,41.1,33.5"/>
	<path class="st4" d="M40.4,30.5c-0.1,0-0.2,0-0.3-0.1c0,0-0.5-0.5-1.1-0.9c0,0,0,0,0,0c0,0,0,0,0,0c0.1,0.3,0.2,0.6,0.3,0.9
		c0.4,0.9,0.9,1.6,1.6,2c0,0,0,0,0,0c0,0,0,0,0,0c0.1-0.1,0.4-0.5,0.6-1c0.2-0.5,0.2-1,0.2-1.5c0-0.5-0.1-1.1-0.3-1.7c0,0,0,0,0,0
		c0,0,0,0,0,0c-0.3,0.4-0.6,1.1-0.7,2.1C40.6,30.3,40.5,30.4,40.4,30.5"/>
	<path class="st4" d="M39,27.5c0,0-0.6-0.5-1.2-0.8c0,0,0,0,0,0c0,0,0,0,0,0c0.1,0.3,0.2,0.6,0.4,0.8c0.5,0.9,1,1.5,1.8,1.9
		c0,0,0,0,0,0c0,0,0,0,0,0c0.1-0.1,0.3-0.5,0.4-1.1c0.1-0.5,0.1-1,0-1.5c-0.1-0.5-0.2-1.1-0.5-1.7c0,0,0,0,0,0c0,0,0,0,0,0
		c-0.2,0.4-0.5,1.2-0.5,2.1c0,0.1-0.1,0.2-0.2,0.3C39.2,27.5,39.1,27.5,39,27.5"/>
	<path class="st4" d="M36.3,24C36.3,24,36.3,24,36.3,24c0.1,0.3,0.3,0.6,0.4,0.9c0.5,0.8,1.2,1.4,2,1.7c0,0,0,0,0,0c0,0,0,0,0,0
		c0.1-0.1,0.3-0.6,0.3-1.1c0-0.5,0-1-0.1-1.5c-0.1-0.5-0.4-1.1-0.7-1.6c0,0,0,0,0,0c0,0,0,0,0,0c-0.2,0.5-0.3,1.2-0.2,2.2
		c0,0.1,0,0.2-0.1,0.3c-0.1,0.1-0.2,0-0.3,0C37.7,24.7,37.1,24.2,36.3,24C36.3,24,36.3,24,36.3,24"/>
	<path class="st4" d="M34.5,21.6C34.5,21.6,34.5,21.6,34.5,21.6c0.2,0.3,0.4,0.6,0.6,0.8c0.7,0.7,1.4,1.2,2.2,1.3l0,0c0,0,0,0,0,0
		c0.1-0.2,0.2-0.6,0.1-1.2c0-0.5-0.2-1-0.4-1.5c-0.2-0.5-0.5-1-0.9-1.4c0,0,0,0,0,0c0,0,0,0,0,0c-0.1,0.5-0.1,1.3,0.1,2.1
		c0,0.1,0,0.2-0.1,0.3c-0.1,0.1-0.2,0.1-0.3,0C35.9,22.1,35.3,21.7,34.5,21.6C34.6,21.6,34.5,21.6,34.5,21.6"/>
	<path class="st4" d="M34.2,19.7c-0.1,0.1-0.2,0.1-0.3,0.1c0,0-0.6-0.2-1.3-0.2c0,0-0.1,0-0.1,0c0,0,0,0,0,0c0,0,0,0,0,0
		c0.2,0.3,0.5,0.5,0.8,0.7c0.5,0.4,1.4,0.9,2.3,0.9c0,0,0,0,0,0c0,0,0,0,0,0c0-0.2,0.1-0.6-0.1-1.2c-0.1-0.5-0.3-1-0.6-1.4
		c-0.3-0.4-0.7-0.9-1.1-1.3c0,0,0,0,0,0c0,0,0,0,0,0c0,0.5,0.1,1.3,0.5,2.1C34.3,19.5,34.3,19.6,34.2,19.7"/>
	<path class="st4" d="M10.2,58.7c0,0,0.1,0,0.1,0c0,0,0,0,0,0c0.1-1.3-0.8-2.6-1.3-3.2c0,0,0,0,0,0c0,0,0,0,0,0
		c-0.1,0.7,0.1,1.4,0.1,1.4c0,0.1,0,0.2-0.1,0.3c-0.1,0.1-0.2,0.1-0.3,0c-0.8-0.5-1.6-0.7-2.1-0.7c0,0,0,0,0,0c0,0,0,0,0,0
		c0.4,0.5,0.8,0.9,1.2,1.3c0.4,0.3,0.9,0.6,1.4,0.7C9.6,58.7,10,58.7,10.2,58.7"/>
	<path class="st4" d="M8.4,56.3L8.4,56.3C8.4,56.3,8.4,56.3,8.4,56.3c0.2-1-0.1-1.9-0.4-2.5c-0.1-0.3-0.3-0.5-0.5-0.8c0,0,0,0,0,0
		c0,0,0,0,0,0c-0.1,0.7-0.1,1.4-0.1,1.4c0,0.1,0,0.2-0.1,0.3c-0.1,0.1-0.2,0-0.3,0c-0.8-0.6-1.5-0.8-2-0.9c0,0,0,0,0,0c0,0,0,0,0,0
		c0.3,0.5,0.7,1,1.1,1.4c0.4,0.4,0.8,0.7,1.3,0.9C7.8,56.2,8.2,56.3,8.4,56.3"/>
	<path class="st4" d="M6.7,53.7C6.7,53.7,6.7,53.7,6.7,53.7C6.8,53.7,6.8,53.7,6.7,53.7C7,52.9,7,52,6.6,51.1
		c-0.1-0.3-0.2-0.6-0.4-0.8c0,0,0,0,0,0c0,0,0,0,0,0C6,51,6,51.7,6,51.7c0,0.1-0.1,0.2-0.2,0.2c-0.1,0-0.2,0-0.3-0.1
		c-0.6-0.6-1.2-0.9-1.6-1c-0.1,0-0.2-0.1-0.3-0.1c0,0,0,0,0,0c0,0,0,0,0,0c0.2,0.6,0.5,1.1,0.9,1.5c0.3,0.4,0.7,0.8,1.2,1
		C6.1,53.6,6.6,53.7,6.7,53.7"/>
	<path class="st4" d="M5.4,50.9C5.4,50.9,5.4,50.9,5.4,50.9C5.4,50.9,5.4,50.9,5.4,50.9c0.7-1.4,0.2-2.8-0.1-3.5c0,0,0,0,0,0h0
		c0,0,0,0,0,0c-0.3,0.6-0.4,1.4-0.4,1.4c0,0.1-0.1,0.2-0.2,0.2c-0.1,0-0.2,0-0.3-0.1c-0.5-0.7-1.1-1-1.5-1.2c-0.1,0-0.2-0.1-0.3-0.1
		c0,0,0,0,0,0c0,0,0,0,0,0C3.3,50.1,4.8,50.7,5.4,50.9"/>
	<path class="st4" d="M3.4,47.3c0.4,0.4,0.9,0.6,1,0.6c0,0,0,0,0,0c0,0,0,0,0,0c0.5-0.8,0.6-1.7,0.5-2.7c-0.1-0.3-0.2-0.6-0.3-0.9
		c0,0,0,0,0,0c0,0,0,0,0,0C4.1,45,4,45.8,4,45.8l0,0l0,0c0,0.1-0.1,0.2-0.2,0.2c-0.1,0-0.2,0-0.3-0.1c-0.5-0.8-1.2-1.2-1.6-1.5
		c0,0,0,0,0,0c0,0,0,0,0,0c0.1,0.6,0.3,1.2,0.6,1.6C2.7,46.6,3,47,3.4,47.3"/>
	<path class="st4" d="M3.5,45C3.5,45,3.5,45,3.5,45C3.5,45,3.6,45,3.5,45c1-1.4,0.9-2.7,0.8-3.4c0,0,0,0,0,0c0,0,0,0,0,0
		c-0.5,0.6-0.8,1.3-0.8,1.3c0,0.1-0.1,0.2-0.2,0.2c0,0,0,0,0,0c-0.1,0-0.2-0.1-0.2-0.2c-0.3-0.8-0.8-1.3-1.1-1.5
		c-0.1-0.1-0.1-0.1-0.2-0.2c0,0,0,0,0,0c0,0,0,0,0,0C1.8,43.7,3,44.6,3.5,45"/>
	<path class="st4" d="M3.3,41.9C3.3,41.9,3.3,41.9,3.3,41.9C3.3,41.9,3.3,41.9,3.3,41.9c0.5-0.5,0.8-1.1,1-1.8
		c0.1-0.6,0.1-1.2,0-1.6c0,0,0,0,0,0c0,0,0,0,0,0c-0.6,0.5-0.7,1.2-0.7,1.2c0,0.1-0.1,0.2-0.2,0.2c-0.1,0-0.2-0.1-0.3-0.2
		c-0.3-0.8-0.7-1.3-1-1.7C2,38,1.9,37.9,1.8,37.8c0,0,0,0,0,0c0,0,0,0,0,0C1.6,40.4,2.8,41.5,3.3,41.9"/>
	<path class="st4" d="M2.5,37.7c0.3,0.5,0.6,0.8,0.7,0.9c0,0,0,0,0,0c0,0,0,0,0,0c0.6-0.5,1-1.3,1.1-2.3c0.1-0.3,0.1-0.6,0.1-1
		c0,0,0,0,0,0c0,0,0,0,0,0c-0.5,0.5-0.8,1.1-0.8,1.1c0,0.1-0.2,0.2-0.3,0.2c-0.1,0-0.2-0.1-0.2-0.2c-0.2-0.9-0.7-1.6-1-1.9
		c0,0,0,0,0,0c0,0,0,0,0,0c-0.1,0.6-0.1,1.2,0,1.7C2.1,36.8,2.3,37.3,2.5,37.7"/>
	<path class="st4" d="M2.9,34.5c0.2,0.5,0.5,0.8,0.7,0.9c0,0,0,0,0,0c0,0,0,0,0,0c0.7-0.6,1.1-1.4,1.3-2.3C5,32.9,5,32.6,5,32.3
		c0,0,0,0,0,0c0,0,0,0,0,0c-0.6,0.4-1,1-1,1.1c-0.1,0.1-0.2,0.1-0.3,0.1c-0.1,0-0.2-0.1-0.2-0.2c-0.2-0.9-0.6-1.6-0.9-2c0,0,0,0,0,0
		c0,0,0,0,0,0c-0.1,0.6-0.1,1.2-0.1,1.7C2.5,33.6,2.6,34.1,2.9,34.5"/>
	<path class="st4" d="M4,32.4C4,32.4,4,32.4,4,32.4C4,32.4,4,32.4,4,32.4c0.8-0.5,1.4-1.2,1.7-2.1c0.1-0.3,0.2-0.6,0.2-0.9
		c0,0,0,0,0,0c0,0,0,0,0,0c-0.7,0.4-1.2,1-1.2,1c-0.1,0.1-0.2,0.1-0.3,0.1c-0.1,0-0.2-0.1-0.2-0.2c-0.1-1-0.4-1.7-0.7-2.1
		c0,0,0,0,0,0c0,0,0,0,0,0c-0.2,0.6-0.3,1.2-0.3,1.7c0,0.5,0.1,1.1,0.2,1.5C3.6,31.9,3.9,32.3,4,32.4"/>
	<path class="st4" d="M4.8,29.4C4.8,29.4,4.8,29.4,4.8,29.4C4.8,29.4,4.8,29.4,4.8,29.4c0.9-0.4,1.5-1.1,2-1.9
		c0.1-0.3,0.2-0.5,0.3-0.8c0,0,0,0,0,0c0,0,0,0,0,0c-0.7,0.3-1.2,0.8-1.3,0.8c-0.1,0.1-0.2,0.1-0.3,0c-0.1,0-0.2-0.1-0.2-0.3
		c0-1-0.2-1.7-0.4-2.1c0,0,0,0,0,0h0c0,0,0,0,0,0c-0.3,0.6-0.4,1.1-0.5,1.7c-0.1,0.5-0.1,1.1,0,1.5C4.4,28.8,4.6,29.2,4.8,29.4"/>
	<path class="st4" d="M5.9,26.5C5.9,26.5,5.9,26.5,5.9,26.5C5.9,26.5,5.9,26.5,5.9,26.5C6.7,26.3,7.4,25.8,8,25
		c0.2-0.3,0.4-0.7,0.5-0.9c0,0,0,0,0,0c0,0,0,0,0,0c-0.8,0.1-1.3,0.6-1.3,0.6c-0.1,0.1-0.2,0.1-0.3,0c-0.1-0.1-0.2-0.2-0.1-0.3
		c0.2-0.9,0-1.7-0.1-2.2c0,0,0,0,0,0c0,0,0,0,0,0c-0.3,0.5-0.6,1.1-0.8,1.6c-0.2,0.5-0.2,1-0.2,1.5C5.7,25.9,5.8,26.3,5.9,26.5"/>
	<path class="st4" d="M7.5,23.7L7.5,23.7c1.3-0.2,2.3-1.4,2.8-2.1c0,0,0,0,0,0c0,0,0,0,0,0c-0.8,0.1-1.3,0.5-1.4,0.5
		c-0.1,0.1-0.2,0.1-0.3,0c-0.1-0.1-0.1-0.2-0.1-0.3c0.3-0.9,0.3-1.7,0.2-2.2c0,0,0,0,0,0c0,0,0,0,0,0C7,21.6,7.3,23.1,7.5,23.7
		C7.5,23.7,7.5,23.7,7.5,23.7"/>
	<path class="st4" d="M9.3,21.2C9.4,21.2,9.4,21.2,9.3,21.2c0.9,0,1.7-0.5,2.2-0.9c0.3-0.2,0.5-0.4,0.8-0.7c0,0,0,0,0,0c0,0,0,0,0,0
		c-0.7,0-1.4,0.2-1.4,0.2c-0.1,0-0.2,0-0.3-0.1c-0.1-0.1-0.1-0.2,0-0.3c0.4-0.9,0.5-1.6,0.5-2.1c0,0,0,0,0,0c0,0,0,0,0,0
		c-0.5,0.4-0.9,0.9-1.2,1.3C9.7,19,9.5,19.5,9.4,20C9.2,20.6,9.3,21,9.3,21.2C9.3,21.2,9.3,21.2,9.3,21.2"/>
	<path class="st4" d="M14.8,17.7c-0.7-0.1-1.4,0.1-1.4,0.1c-0.1,0-0.2,0-0.3-0.1c-0.1-0.1-0.1-0.2,0-0.3c0.5-0.8,0.7-1.6,0.7-2.1
		c0,0,0,0,0,0c0,0,0,0,0,0c-2.1,1.5-2.2,3.1-2.2,3.7c0,0,0,0,0,0c0,0,0.1,0,0.1,0C13,19,14.2,18.2,14.8,17.7
		C14.8,17.7,14.8,17.7,14.8,17.7C14.8,17.7,14.8,17.7,14.8,17.7"/>
	<path class="st4" d="M17.4,16.4c-0.2-0.1-0.5-0.1-0.7-0.2c-0.4-0.1-0.7,0-0.7,0h0c-0.1,0-0.2-0.1-0.3-0.2c0-0.1,0-0.2,0.1-0.3
		c0.7-0.6,1.1-1.2,1.2-1.6c0,0,0,0,0,0c0,0,0,0,0,0c-2.4,0.8-3,2.2-3.1,2.8c0,0,0,0,0,0c0.2,0.1,0.6,0.1,1,0.1c0.5,0,1-0.1,1.6-0.3
		C16.9,16.7,17.2,16.6,17.4,16.4C17.4,16.5,17.4,16.5,17.4,16.4C17.4,16.4,17.4,16.4,17.4,16.4"/>
	<path class="st4" d="M20.3,15.6c-0.6-0.3-1.3-0.5-1.3-0.5c-0.1,0-0.2-0.1-0.2-0.2c0-0.1,0-0.2,0.1-0.3c0.8-0.4,1.2-0.8,1.4-1.1
		c0,0,0,0,0,0c0,0,0,0,0,0c-1.2,0.2-2.2,0.6-2.9,1.2c-0.3,0.3-0.5,0.6-0.6,0.8c0,0,0,0,0,0c0.5,0.2,1.1,0.3,1.6,0.3
		c0.3,0,0.7,0,0.9-0.1C19.7,15.9,20,15.8,20.3,15.6C20.3,15.7,20.3,15.7,20.3,15.6C20.3,15.7,20.3,15.6,20.3,15.6"/>
	<path class="st4" d="M22.2,14.8c-0.1,0-0.2-0.1-0.2-0.3c0-0.1,0.1-0.2,0.2-0.3c0.8-0.2,1.3-0.5,1.5-0.8c0,0,0,0,0,0s0,0,0,0
		c-1.2-0.1-2.3,0.1-3,0.6c-0.4,0.2-0.6,0.5-0.7,0.7c0,0,0,0,0,0c0.8,0.6,1.9,0.8,2.7,0.8c0.3,0,0.5,0,0.7,0c0,0,0,0,0,0c0,0,0,0,0,0
		C22.9,15.1,22.2,14.8,22.2,14.8"/>
	<path class="st4" d="M25.4,15c-0.1-0.1-0.1-0.2-0.1-0.3c0-0.1,0.1-0.2,0.2-0.2c0.8-0.1,1.3-0.3,1.6-0.4c0,0,0,0,0,0c0,0,0,0,0,0
		c-1.2-0.3-2.2-0.3-3,0c-0.4,0.2-0.7,0.4-0.9,0.5c0,0,0,0,0,0c1,1.2,2.4,1.4,3.2,1.5h0c0,0,0,0,0,0c0,0,0,0,0,0
		C26,15.5,25.4,15,25.4,15"/>
	<path class="st4" d="M33.3,19C33.3,19,33.3,19,33.3,19c0-0.3,0-0.8-0.2-1.3c-0.4-0.9-1.1-1.6-2.2-2c0,0,0,0,0,0c0,0,0,0,0,0
		c0.2,0.4,0.4,1.1,0.9,1.6c0.1,0.1,0.1,0.2,0,0.3c-0.1,0.1-0.2,0.1-0.3,0.1c0,0-0.7-0.2-1.4,0c0,0,0,0,0,0c0,0,0,0,0,0
		c0.7,0.5,2,1.2,3.1,1.2C33.2,19,33.3,19,33.3,19"/>
	<path class="st4" d="M30.8,17C30.8,17,30.8,17,30.8,17c-0.6-0.7-1.4-1-2.3-0.9c-0.3,0-0.7,0.1-1,0.2c0,0,0,0,0,0s0,0,0,0
		c0.7,0.6,1.5,0.9,2.3,0.9c0,0,0.1,0,0.1,0C30.3,17.2,30.6,17.1,30.8,17C30.8,17,30.8,17,30.8,17"/>
	<path class="st4" d="M26.3,15.1C26.3,15.1,26.4,15.1,26.3,15.1c0.5,0.3,1,0.5,1.7,0.5c0.3,0,0.6,0,0.9-0.1c0.5-0.1,0.9-0.2,1.2-0.4
		c0,0,0,0,0,0c0,0,0,0,0,0c-0.4-0.2-0.9-0.4-1.3-0.5c-0.5-0.1-1-0.1-1.4,0C26.9,14.8,26.6,14.9,26.3,15.1
		C26.4,15.1,26.3,15.1,26.3,15.1"/>
	<path class="st5" d="M17.3,32.8C17.4,33,17.7,33,18,33h3.5c-2.1-1.3-2.9-1.1-4.4-0.4C17.2,32.7,17.3,32.7,17.3,32.8"/>
	<path class="st5" d="M25.9,31.2c-0.3-0.1-0.6-0.2-0.9-0.3c-1.1-0.4-2-1.2-2.1-1.2c-0.2-0.2-0.3-0.5-0.1-0.7
		c0.2-0.2,0.5-0.3,0.7-0.1c0,0,0.8,0.7,1.8,1c0.2,0.1,0.5,0.2,0.8,0.2c0.4,0.1,1,0.3,1.4,0.5c-0.1-0.6-0.2-1.1-0.3-1.6
		c-1.4-0.3-2.6-1.3-2.6-1.3c-0.1-0.1-0.2-0.2-0.2-0.3c0-0.1,0-0.3,0.1-0.4c0.2-0.2,0.5-0.2,0.7-0.1c0,0,0.8,0.6,1.7,1
		c-0.4-1.4-0.9-2.7-1.5-4c-0.5-0.9-1.2-1.5-2.1-1.8c-0.7-0.2-1.2-0.2-1.2-0.2c0,0,0,0,0,0c0,0-1.7,0-2.8,1.3c0,0,0,0,0,0
		c-0.2,0.2-0.7,0.8-0.8,1.3c0,0.3,0,0.5,0.2,0.6c0.1,0,0.3,0.2,0.8-0.2c0.1-0.1,0.2-0.2,0.2-0.2c0.2-0.2,0.5-0.1,0.7,0.1
		c0.2,0.2,0.1,0.5-0.1,0.7c-0.1,0.1-0.1,0.1-0.2,0.2c-0.2,0.2-0.6,0.6-1.1,1.2c-0.6,0.9-1.5,2.3-1.9,4.5c0,0,0,0.1,0,0.1
		c1.5-0.6,2.6-0.9,5.3,0.8c1,0.7,2.2,0.7,2.4,0.7h1.2c0,0,0,0,0,0c0.3,0,1.2,0,1.5-0.4c0.1-0.1,0.1-0.2,0.2-0.3
		C27.7,31.7,27.1,31.5,25.9,31.2"/>
	<path class="st6" d="M20.8,51.3c0.1-0.1,0.3-0.3,0.3-0.4c0-0.1,0-0.1-0.1-0.2c-0.1-0.1-0.2-0.1-0.4-0.1c-0.3,0-0.6,0.2-1,0.5
		c-0.3,0.2-0.8,0.6-0.7,1c0,0.2,0.1,0.2,0.1,0.3c0.2,0.2,0.7,0.1,0.9,0.1C20,52,20.4,51.6,20.8,51.3"/>
	<path class="st6" d="M22.6,51.9c0,0,0-0.1-0.1-0.3c0,0-0.2-0.2-0.7,0.1c-0.4,0.2-0.8,0.5-1,0.9c0.1,0.1,0.2,0.1,0.3,0.2
		c0.4,0.1,1-0.3,1.2-0.4c0,0,0,0,0,0C22.3,52.3,22.6,52.1,22.6,51.9"/>
	<path class="st6" d="M17.1,49.4c0,0-0.1,0-0.1,0c-0.4,0-0.9,0.3-1.2,0.6c-0.2,0.2-0.1,0.4-0.1,0.4c0,0.1,0.2,0.2,0.5,0.2
		c0.1,0,0.1,0,0.2,0c0.1-0.4,0.4-0.7,0.7-1c0.1-0.1,0.1-0.1,0.2-0.2C17.3,49.4,17.2,49.4,17.1,49.4C17.2,49.4,17.2,49.4,17.1,49.4"
		/>
	<path class="st6" d="M17.3,51.1c0,0.1,0,0.3,0.5,0.5c0.1,0,0.1,0,0.2,0.1c0.1-0.4,0.5-0.9,1.1-1.3c0.1-0.1,0.2-0.1,0.2-0.2
		c0,0,0-0.1,0-0.1c0-0.1-0.1-0.2-0.3-0.2c-0.1,0-0.2-0.1-0.3-0.1c-0.3,0-0.6,0.2-1,0.6C17.4,50.6,17.3,50.8,17.3,51.1"/>
	<path class="st6" d="M28.4,50.2c0.3,0,0.5-0.1,0.6-0.2c0.1-0.1,0.2-0.3,0.2-0.4c-0.3-0.3-1.1-1.4-2.3-2.1c-0.5-0.3-1-0.7-1.6-0.9
		c-0.6-0.2-1.1-0.3-1.6-0.2c0,0,0,0,0,0c-0.1,0-0.3,0.2-0.6,0.3c-0.1,0.1-0.3,0.2-0.5,0.3c-0.5,0.3-1.2,0.5-1.8,0.6
		c-0.5,0-1.2,0.1-1.6-0.5c-0.3-0.4-0.3-0.7-0.2-1.1c0.1-0.4,0.6-0.6,1.1-0.8c0.2-0.1,0.5-0.2,0.6-0.3c0.2-0.2,0.4-0.3,0.6-0.4
		c0.2-0.2,0.4-0.3,0.8-0.6c0.1-0.1,0.3-0.2,0.5-0.3c-0.2,0-0.4,0-0.6-0.1c-0.8-0.1-1.5,0.2-2.3,0.9c-0.8,0.5-2.3,1-4.6,1.5
		c-2.2,0.4-5.3,0.9-9.1,1.3c0.1,0.4,0.2,0.8,0.4,1.3c0.5,1.5,1.1,2.9,1.8,4.3c1.3-0.6,4.7-2.1,7.2-3.5c0.5-0.5,1.3-0.8,1.9-0.7
		c0.1,0,0.6,0.1,1,0.4c0.4-0.1,0.8-0.1,1.2,0.1c0.4,0.2,0.6,0.5,0.7,0.7l0,0c0.5-0.2,1-0.1,1.4,0.3c0.3,0.2,0.4,0.5,0.4,0.7
		c0.5-0.1,0.9,0.1,1.1,0.3c0.4,0.4,0.4,0.7,0.4,1c0,0.2-0.1,0.4-0.2,0.5c0.3,0,0.5,0,0.7-0.1c0.1,0,0.2-0.1,0.2-0.1
		c-0.1-0.2-0.3-0.6-0.6-0.9c-0.1-0.1-0.1-0.2-0.1-0.3c0-0.1,0.1-0.2,0.2-0.3c0.2-0.2,0.5-0.1,0.6,0c0.5,0.5,0.7,1,0.8,1.2
		c0.2,0,0.4,0,0.6-0.2c0.1-0.1,0.2-0.2,0.2-0.3c0-0.1-0.2-0.3-0.5-0.7c-0.3-0.3-0.8-0.7-1-0.9c-0.1-0.1-0.2-0.2-0.2-0.3
		c0-0.1,0-0.2,0.1-0.3c0.1-0.1,0.2-0.2,0.3-0.2c0.1,0,0.2,0,0.3,0.1c0,0,0.8,0.6,1.2,1c0.3,0.3,0.5,0.6,0.6,0.9
		c0.3,0,0.6-0.1,0.7-0.3c0.1-0.1,0.1-0.1,0.1-0.2c-0.3-0.5-1.2-1.5-2.3-2c-0.1-0.1-0.2-0.1-0.2-0.3c0-0.1,0-0.2,0-0.3
		c0.1-0.1,0.1-0.2,0.3-0.2c0.1,0,0.2,0,0.3,0C27,48.5,28,49.7,28.4,50.2"/>
	<path class="st6" d="M22.6,46c0.3-0.2,0.6-0.4,0.9-0.4c1.5-0.4,3,0.6,3.9,1.1c1.1,0.7,2,1.7,2.4,2.1c0,0,0,0,0.1,0.1l0,0
		c0,0,0,0,0,0c0.1,0.1,0.4,0.4,0.8,0.7c1.9,1.4,4.8,2.7,6,3.2c0.7-1.4,1.4-2.9,1.9-4.4c0.1-0.4,0.2-0.8,0.3-1.1
		c-2.4-0.2-5-0.7-6.7-1.1c-2-0.5-3.5-0.9-3.5-1c-0.4-0.1-0.8-0.3-1.1-0.4c-1.1-0.4-1.8-0.7-2.6-0.6c-0.1,0-0.2,0-0.3,0
		c-0.1,0-0.2,0-0.4,0l0,0c-0.7,0-1.2,0-1.7,0.3c-0.3,0.2-0.5,0.4-0.7,0.5c-0.2,0.2-0.4,0.3-0.7,0.5c-0.2,0.1-0.5,0.3-0.7,0.4
		c-0.2,0.1-0.5,0.3-0.6,0.4c0,0,0,0.1,0.1,0.2c0.1,0.2,0.4,0.1,0.8,0.1c0.4,0,1-0.2,1.4-0.4C22.3,46.2,22.5,46.1,22.6,46"/>
</g>
</svg>
