<svg xmlns="http://www.w3.org/2000/svg" viewBox="0 0 100 100"><defs><style>.cls-1{isolation:isolate;}.cls-2,.cls-3{fill:#009dd8;}.cls-2{opacity:0.7;}.cls-3{opacity:0.18;mix-blend-mode:multiply;}.cls-4{fill:#1460aa;}.cls-5{fill:#fff;}</style></defs><title>iconos gama azules</title><g class="cls-1"><g id="Layer_2" data-name="Layer 2"><path class="cls-2" d="M76.65,11.88a7.28,7.28,0,0,0-5.06,1,8.8,8.8,0,0,0-3.7,5.93c-1.54,7.05-2.94,10.45-9.12,11-6.21-.57-7.58-4-9.05-11.09a8.87,8.87,0,0,0-3.65-6,7.48,7.48,0,0,0-5-1.05,1.74,1.74,0,0,0-1.47,1.7l-.24,46.1a1.78,1.78,0,0,0,.6,1.32,1.75,1.75,0,0,0,1.39.4,4.21,4.21,0,0,1,2.76.57,5.89,5.89,0,0,1,2.24,3.92c1.32,6.38,2.69,13,12,13.81h.38C68,78.82,69.41,72.28,70.79,66a5.92,5.92,0,0,1,2.27-4,4.19,4.19,0,0,1,2.78-.58,1.73,1.73,0,0,0,2-1.7l.24-46.12A1.73,1.73,0,0,0,76.65,11.88Z"/><path class="cls-3" d="M76.65,11.88c-.41-.08-6.25-1.52-7.06,5.63C72,65.07,63.15,76.64,48.22,72.69a12.35,12.35,0,0,0,10.07,6.83h.38C68,78.82,69.41,72.28,70.79,66a5.92,5.92,0,0,1,2.27-4,4.19,4.19,0,0,1,2.78-.58,1.73,1.73,0,0,0,2-1.7l.24-46.12A1.73,1.73,0,0,0,76.65,11.88Z"/><path class="cls-4" d="M77.59,11.18,77,11.05a8.14,8.14,0,0,0-5.91,1.08A9.7,9.7,0,0,0,67,18.62c-1.6,7.35-2.78,9.81-8.24,10.3-5.53-.55-6.67-3-8.2-10.38a9.68,9.68,0,0,0-4-6.53,8.16,8.16,0,0,0-5.9-1.14l-.56.12a1.78,1.78,0,0,0-1.4,1.73l-.24,47.82a1.78,1.78,0,0,0,.66,1.39,1.74,1.74,0,0,0,1.49.35l.85-.19a3.29,3.29,0,0,1,2.15.45A5.12,5.12,0,0,1,45.47,66c1.49,7.2,3.18,13.62,12.8,14.44h.41c9.65-.73,11.41-7.11,13-14.31a5.22,5.22,0,0,1,1.87-3.37,3.44,3.44,0,0,1,2.15-.45l.86.19a1.79,1.79,0,0,0,1.51-.35,1.76,1.76,0,0,0,.67-1.38L79,12.92A1.78,1.78,0,0,0,77.59,11.18ZM76.11,59.7a5.92,5.92,0,0,0-4,.83,7.58,7.58,0,0,0-3,5c-1.5,6.89-2.91,11.64-10.56,12.22h-.09c-7.64-.68-9-5.46-10.44-12.44a7.49,7.49,0,0,0-3-5,5.88,5.88,0,0,0-4-.83L41.3,13.4a5.77,5.77,0,0,1,3.83.8A7.21,7.21,0,0,1,48,19.07c1.38,6.64,2.8,11.76,10.64,12.47h.22c7.76-.63,9.25-5.74,10.7-12.37a7.16,7.16,0,0,1,2.93-4.83,5.64,5.64,0,0,1,3.84-.76Z"/><path class="cls-5" d="M50.77,41.23c-2.85,0-4.65,2.38-4.65,5.21v0c0,2.84,1.77,5.18,4.62,5.18s4.65-2.37,4.65-5.21v0C55.39,43.58,53.62,41.23,50.77,41.23Zm1.83,5.24c0,1.59-.71,2.72-1.83,2.72s-1.86-1.14-1.86-2.75v0c0-1.6.73-2.73,1.83-2.73s1.86,1.16,1.86,2.76Z"/><path class="cls-5" d="M61.22,41.23c-2.84,0-4.65,2.38-4.65,5.21v0c0,2.84,1.78,5.18,4.63,5.18s4.65-2.37,4.65-5.21v0C65.85,43.58,64.07,41.23,61.22,41.23Zm1.84,5.24c0,1.59-.72,2.72-1.84,2.72s-1.86-1.14-1.86-2.75v0c0-1.6.73-2.73,1.84-2.73s1.86,1.16,1.86,2.76Z"/><polygon class="cls-5" points="66.34 42.19 66.87 44.34 68.56 43.94 68.56 51.45 71.29 51.45 71.29 41.36 69.28 41.36 66.34 42.19"/><rect class="cls-4" x="46.12" y="53.96" width="25.18" height="2.61" rx="1.01" ry="1.01"/><rect class="cls-4" x="46.12" y="36.32" width="25.18" height="2.61" rx="1.01" ry="1.01"/></g></g></svg>