<?xml version="1.0" encoding="utf-8"?>
<!-- Generator: Adobe Illustrator 22.1.0, SVG Export Plug-In . SVG Version: 6.00 Build 0)  -->
<svg version="1.1" id="Capa_1" xmlns="http://www.w3.org/2000/svg" xmlns:xlink="http://www.w3.org/1999/xlink" x="0px" y="0px"
	 viewBox="0 0 100 100" style="enable-background:new 0 0 100 100;" xml:space="preserve">
<style type="text/css">
	.st0{fill:#009DD8;}
	.st1{opacity:0.2;fill:#009DD8;enable-background:new    ;}
	.st2{opacity:0.5;fill:#009DD8;enable-background:new    ;}
	.st3{fill:#1460AA;}
	.st4{fill:#D2ECF7;}
	.st5{fill:#FFFFFF;}
	.st6{fill:#12B5E1;}
</style>
<title>plantilla svg celestes</title>
<g>
	<g id="Layer_2">
		<path class="st0" d="M68.1,47.5c-0.6,0.4-1.2,0.9-1.9,1.3c-4.4,2.7-11.3,3.3-16.7,2.2c-1.1,0.1-2.2,0.1-3.2,0h-0.1
			c-7.3,0.5-14.9,0.2-20.7-2.9c-2.1-0.2-4.1-1-5.8-2.2v18.8c0,3.1,2.6,5.7,5.7,5.7l0,0h43.7c3.3,0,6-2.7,6-6V43.3
			C73,45.1,70.7,46.5,68.1,47.5z"/>
		<path class="st1" d="M37.7,64.8c-6.2-1-13.3-3.3-18-7.7v7.6c0,3.1,2.6,5.7,5.7,5.7h0h43.7c3.3,0,6-2.7,6-6V48
			C67.5,60.8,52.7,67.1,37.7,64.8z"/>
		<path class="st2" d="M74.9,35.8c-0.3-3-2.8-5.3-5.9-5.4H25.4c-3.3,0-5.9,2.7-5.9,5.9v0.1c0.1,15.1,15.9,15.4,26.7,15.4
			C58.4,52.6,74.1,50.2,74.9,35.8z"/>
		<path class="st3" d="M69.1,29.5h-9.2v-5.7c0-3.6-3-6.6-6.6-6.6H41c-3.4,0-6.2,2.8-6.2,6.2l0,0v6.1h-9.2c-3.3,0-5.9,2.7-5.9,5.9
			v29.2c0,3.1,2.6,5.7,5.7,5.7h43.7c3.3,0,6-2.7,6-6V35.5C75.1,32.2,72.4,29.5,69.1,29.5z M38.1,23.8c0.1-1.5,1.4-2.7,2.9-2.7
			c0,0,0,0,0,0h12.7c1.5-0.1,2.8,1.1,2.9,2.7v5.7H38.1L38.1,23.8z M25.6,32.6h43.5c1.6,0,2.8,1.3,2.8,2.8v8.2
			c-3.7,3.5-8.5,5.4-13.6,5.4H35.5c-4.7,0-9.2-1.7-12.7-4.7v-8.9C22.8,33.9,24,32.6,25.6,32.6z M35.5,52.2h22.9
			c0.9,0,1.8-0.1,2.6-0.2v15.2H35V52.2L35.5,52.2z M22.8,64.7V48.3c2.7,1.9,5.9,3.1,9.1,3.6v15.4h-6.5
			C23.9,67.2,22.8,66.1,22.8,64.7z M69.1,67.2h-5V51.4c2.8-0.7,5.5-2,7.8-3.7v16.7C71.9,66,70.6,67.2,69.1,67.2z"/>
		<g>
			<path class="st4" d="M43.1,47.3h8.1l0,0v6.4c0,1.9-1.5,3.3-3.4,3.3h-1.4c-1.9,0-3.4-1.5-3.4-3.4c0,0,0,0,0,0L43.1,47.3L43.1,47.3
				z"/>
			<path class="st3" d="M47.9,58.3h-1.4c-2.6,0-4.7-2.1-4.7-4.7v-6.2c0-0.2,0-0.3,0-0.5l0,0c0.2-0.7,0.8-1.1,1.5-1
				c0.1,0,0.1,0,0.2,0h7.8c0.7,0,1.4,0.6,1.4,1.4v6.4C52.6,56.3,50.4,58.3,47.9,58.3z M44.5,48.6v5c0,1.1,0.9,2,2,2h1.4
				c1.1,0,2-0.9,2-2v-5H44.5z"/>
		</g>
		<path class="st5" d="M74.6,58.9c-7.7,0-13.9,6.2-13.9,13.9s6.2,13.9,13.9,13.9s13.9-6.2,13.9-13.9C88.5,65.2,82.2,58.9,74.6,58.9z
			"/>
		<path class="st3" d="M74.6,61.5c-6.3,0-11.4,5.1-11.4,11.4c0,6.3,5.1,11.4,11.4,11.4c6.3,0,11.4-5.1,11.4-11.4
			C85.9,66.6,80.8,61.5,74.6,61.5z M74.6,82c-5.1,0-9.2-4.1-9.2-9.2s4.1-9.2,9.2-9.2s9.2,4.1,9.2,9.2l0,0C83.7,77.9,79.6,82,74.6,82
			L74.6,82z"/>
		<polygon class="st6" points="79.7,67.5 73.2,73.2 69.5,69.5 67.4,71.3 73.3,78.6 73.3,78.6 81.7,69.2 		"/>
	</g>
</g>
</svg>
