<svg id="Layer_1" data-name="Layer 1" xmlns="http://www.w3.org/2000/svg" viewBox="0 0 489.01 122.97"><defs><style>.cls-1,.cls-2{fill:#231f20;}.cls-2{font-size:29.44px;font-family:EncodeSans-SemiBold, Encode Sans;font-weight:600;}.cls-3{letter-spacing:0.02em;}.cls-4{letter-spacing:0.01em;}.cls-5{letter-spacing:0.01em;}.cls-6{letter-spacing:0.02em;}.cls-7{letter-spacing:0.01em;}.cls-8{letter-spacing:0.02em;}.cls-9{letter-spacing:0.02em;}.cls-10{fill:#05b4e9;}.cls-11{fill:#fff;}.cls-12{fill:#ffc60b;}.cls-13{fill:#59aa47;}.cls-14{fill:#ef4123;}.cls-15{fill:#fcbc80;}</style></defs><title>argentina-presidencia-logo-linea</title><path class="cls-1" d="M124.51,84.89l-3-9.09a.76.76,0,0,0-.72-.52H108.18a.78.78,0,0,0-.73.52l-3,9.09a.75.75,0,0,1-.72.52H99.14a.76.76,0,0,1-.72-1l11.34-33.69a.75.75,0,0,1,.72-.52h8.09a.75.75,0,0,1,.72.52l11.34,33.69a.76.76,0,0,1-.72,1h-4.68a.76.76,0,0,1-.72-.52m-14.2-14.7h8.35a.77.77,0,0,0,.73-1L115.2,56.4a.76.76,0,0,0-1.44,0l-4.17,12.79a.77.77,0,0,0,.72,1"/><path class="cls-1" d="M135.27,59.46H139a.75.75,0,0,1,.75.65l.38,2.72h.34a7.33,7.33,0,0,1,3-2.76,9.17,9.17,0,0,1,4.1-.92,13.26,13.26,0,0,1,1.4.07.77.77,0,0,1,.67.77v4.13a.75.75,0,0,1-.82.75c-.46,0-1-.06-1.61-.06a9.26,9.26,0,0,0-3.65.76,6.65,6.65,0,0,0-2.65,2,.79.79,0,0,0-.17.49V84.65a.76.76,0,0,1-.76.76h-4.71a.76.76,0,0,1-.76-.76V60.21a.76.76,0,0,1,.76-.75"/><path class="cls-1" d="M157.19,96.08a28.19,28.19,0,0,1-3.52-.66.77.77,0,0,1-.56-.75V91.3a.76.76,0,0,1,1-.73,27.91,27.91,0,0,0,6.92.93,11.49,11.49,0,0,0,4.33-.68,4.65,4.65,0,0,0,2.46-2.17,8.45,8.45,0,0,0,.8-4v-2h-.31a8.38,8.38,0,0,1-3,2.19,10.16,10.16,0,0,1-9-.56,9.34,9.34,0,0,1-3.61-4.19A16.41,16.41,0,0,1,151.35,73q0-6.85,3.57-10.37t10.61-3.55a33.75,33.75,0,0,1,4.83.36,26.39,26.39,0,0,1,3.92.83.76.76,0,0,1,.53.73V83.58a16,16,0,0,1-1.46,7.32A9,9,0,0,1,168.93,95a18.38,18.38,0,0,1-7.49,1.32,34.58,34.58,0,0,1-4.25-.28M166.35,80a5.72,5.72,0,0,0,2-1.34.78.78,0,0,0,.21-.54V64.89a.78.78,0,0,0-.62-.76,16.6,16.6,0,0,0-3-.27,7.08,7.08,0,0,0-5.53,2q-1.84,2.05-1.85,6.52t1.55,6.27a5.5,5.5,0,0,0,4.42,1.82,7.34,7.34,0,0,0,2.75-.52"/><path class="cls-1" d="M201.32,74.3H186.83a.76.76,0,0,0-.75.86,8.1,8.1,0,0,0,.89,3.15,4.75,4.75,0,0,0,2.57,2.15,13.06,13.06,0,0,0,4.64.67,25.92,25.92,0,0,0,5.58-.69.76.76,0,0,1,.93.74v3.17a.76.76,0,0,1-.59.75,30,30,0,0,1-6.78.79,17.93,17.93,0,0,1-7.63-1.41,9.26,9.26,0,0,1-4.46-4.36,17.38,17.38,0,0,1-1.47-7.7,17.7,17.7,0,0,1,1.36-7.35A9.67,9.67,0,0,1,185,60.56a12.1,12.1,0,0,1,6.21-1.51q5.31,0,8.07,3.41t2.75,10.15v.93a.76.76,0,0,1-.75.76m-13.95-9.47A9.09,9.09,0,0,0,186,69.77a.77.77,0,0,0,.76.8h8.68a.77.77,0,0,0,.76-.8,9.41,9.41,0,0,0-1.29-4.94,4.33,4.33,0,0,0-3.73-1.71,4.52,4.52,0,0,0-3.83,1.71"/><path class="cls-1" d="M207.47,59.46h3.76a.76.76,0,0,1,.75.64l.32,2.09h.34a10,10,0,0,1,3.48-2.33,11.38,11.38,0,0,1,4.3-.81,8.49,8.49,0,0,1,6.35,2.37c1.56,1.58,2.33,4.07,2.33,7.48V84.65a.76.76,0,0,1-.76.76h-4.71a.76.76,0,0,1-.76-.76V69.26a5.15,5.15,0,0,0-1.1-3.7,4.27,4.27,0,0,0-3.18-1.11,7.75,7.75,0,0,0-3.1.66,6.37,6.37,0,0,0-2.36,1.74.77.77,0,0,0-.18.5v17.3a.76.76,0,0,1-.76.76h-4.72a.76.76,0,0,1-.76-.76V60.21a.76.76,0,0,1,.76-.75"/><path class="cls-1" d="M250.54,81.27v3.47a.78.78,0,0,1-.61.76,19.82,19.82,0,0,1-3.89.39q-9.22,0-9.23-9.3V65.19a.76.76,0,0,0-.76-.76h-3a.76.76,0,0,1-.76-.76V60.21a.75.75,0,0,1,.76-.75h3a.76.76,0,0,0,.75-.67l.94-7.92a.75.75,0,0,1,.75-.67h3.71A.76.76,0,0,1,243,51V58.7a.76.76,0,0,0,.76.76h5.74a.75.75,0,0,1,.76.75v3.46a.76.76,0,0,1-.76.76H243.8a.76.76,0,0,0-.76.76v10.4a7.83,7.83,0,0,0,.49,3,3.08,3.08,0,0,0,1.49,1.6,6,6,0,0,0,2.64.49,13.51,13.51,0,0,0,2-.18.76.76,0,0,1,.87.75"/><path class="cls-1" d="M255.09,54.14a3.72,3.72,0,0,1,0-5,5.44,5.44,0,0,1,5.93,0,3.72,3.72,0,0,1,0,5,5.49,5.49,0,0,1-5.93,0m-.18,30.51V60.21a.75.75,0,0,1,.76-.75h4.74a.75.75,0,0,1,.76.75V84.65a.76.76,0,0,1-.76.76h-4.74a.76.76,0,0,1-.76-.76"/><path class="cls-1" d="M267,59.46h3.75a.76.76,0,0,1,.75.64l.33,2.09h.33a10.14,10.14,0,0,1,3.49-2.33,11.37,11.37,0,0,1,4.29-.81,8.49,8.49,0,0,1,6.35,2.37q2.34,2.37,2.34,7.48V84.65a.76.76,0,0,1-.76.76h-4.72a.76.76,0,0,1-.76-.76V69.26a5.15,5.15,0,0,0-1.09-3.7,4.3,4.3,0,0,0-3.19-1.11,7.67,7.67,0,0,0-3.09.66,6.41,6.41,0,0,0-2.37,1.74.77.77,0,0,0-.18.5v17.3a.76.76,0,0,1-.76.76H267a.76.76,0,0,1-.76-.76V60.21a.76.76,0,0,1,.76-.75"/><path class="cls-1" d="M309.67,60a7,7,0,0,1,3.66,3.25,13.14,13.14,0,0,1,1.2,6.13V84.65a.76.76,0,0,1-.76.76H310a.76.76,0,0,1-.75-.64l-.33-2h-.33a7.3,7.3,0,0,1-3,2.35,10.2,10.2,0,0,1-4.08.79,10,10,0,0,1-4.4-.9,6.55,6.55,0,0,1-2.84-2.56,7.43,7.43,0,0,1-1-3.89,6.77,6.77,0,0,1,2.47-5.59c1.65-1.31,4.26-2.12,7.83-2.4l4.85-.45V69a6.53,6.53,0,0,0-.62-3.1,3.56,3.56,0,0,0-2-1.61,11.33,11.33,0,0,0-3.6-.47,23.91,23.91,0,0,0-3.45.27,21.93,21.93,0,0,0-2.61.54.76.76,0,0,1-1-.73v-3.2a.75.75,0,0,1,.54-.73,23.8,23.8,0,0,1,3.4-.67,31.77,31.77,0,0,1,4.12-.29,17.3,17.3,0,0,1,6.4,1m-3.55,20.88a6.36,6.36,0,0,0,2.1-1.44.76.76,0,0,0,.21-.54V74.56a.76.76,0,0,0-.82-.76l-3.43.31a6.55,6.55,0,0,0-3.58,1.18,3.21,3.21,0,0,0-1.13,2.63,3.29,3.29,0,0,0,1,2.61,4.26,4.26,0,0,0,3,.91,7.3,7.3,0,0,0,2.68-.52"/><text class="cls-2" transform="translate(329.72 85.41)"><tspan class="cls-3">P</tspan><tspan class="cls-4" x="19.39" y="0">r</tspan><tspan class="cls-5" x="31.03" y="0">esi</tspan><tspan class="cls-6" x="69.97" y="0">d</tspan><tspan class="cls-7" x="88.02" y="0">e</tspan><tspan class="cls-8" x="104.37" y="0">n</tspan><tspan class="cls-9" x="122.39" y="0">c</tspan><tspan class="cls-3" x="136.75" y="0">i</tspan><tspan x="144.89" y="0">a</tspan></text><path class="cls-10" d="M38.12,59.83h-6.7a3.28,3.28,0,0,1-2.68-1.12,3.44,3.44,0,0,1-.7-1.65.77.77,0,0,1,0-.15,6.13,6.13,0,0,1,.1-2,21,21,0,0,1,4.07-9.15,2.07,2.07,0,0,1-.46-.2,2.57,2.57,0,0,1-1.17-2.78,7.25,7.25,0,0,1,1.87-3.18,8.71,8.71,0,0,1,6.16-2.85A7.86,7.86,0,0,1,46,41.23a41.3,41.3,0,0,1,4.15,14.09l0,.18a4,4,0,0,1-.07,1.65.83.83,0,0,1,0,.15,3.06,3.06,0,0,1-.68,1.18,4.36,4.36,0,0,1-2.63,1.26,7.41,7.41,0,0,1-1.18.1H40.13V69.3H70a52,52,0,0,0-2.45-16,43.05,43.05,0,0,0-6.66-13,31.94,31.94,0,0,0-9.82-8.74,24.05,24.05,0,0,0-23.94,0,31.86,31.86,0,0,0-9.83,8.74,43.51,43.51,0,0,0-6.66,13,52.35,52.35,0,0,0-2.45,16h29.9Z"/><path class="cls-11" d="M8.22,69.3A53,53,0,0,0,9.64,81.57C23,80.05,31,78.48,33.36,76.89a7.56,7.56,0,0,1,4.76-1.8V69.3Z"/><path class="cls-11" d="M40.13,75.32a11.14,11.14,0,0,1,3.06,1h.29a13.28,13.28,0,0,1,5.19,1.17c.55.2,1.17.43,1.86.66.29.09,9.91,3.11,18,3.58A53.42,53.42,0,0,0,70,69.3H40.13Z"/><path class="cls-1" d="M37.15,23.15Z"/><path class="cls-11" d="M52.31,88.38a2.72,2.72,0,0,1-.55.78,3,3,0,0,1-2,.78,3,3,0,0,1-.5.78,3.07,3.07,0,0,1-2.61,1,3.51,3.51,0,0,1-.54.71,2.73,2.73,0,0,1-2.54.77,3.77,3.77,0,0,1-1,.6,4.16,4.16,0,0,1-2.4.2V102a1,1,0,0,1-2,0v-7.6a3.7,3.7,0,0,1-1.29.25,2.38,2.38,0,0,1-.53,0,2.46,2.46,0,0,1-1.42-.86,3.9,3.9,0,0,1-2.67-.39,2,2,0,0,1-.75-.94,4.83,4.83,0,0,1-.94-.2,2.61,2.61,0,0,1-1.76-1.47l-.69-.06a2.55,2.55,0,0,1-2-1.27,2.29,2.29,0,0,1-.16-.55c-4.26,2.19-9.12,4.38-11.31,5.34a40.39,40.39,0,0,0,2.76,4.15A31.86,31.86,0,0,0,27.16,107a25.71,25.71,0,0,0,5.28,2.23,2.49,2.49,0,0,1,.79-.86c1.71-1.11,5-.3,5.9,0,.92-.27,4.18-1.08,5.9,0a2.37,2.37,0,0,1,.78.86A25.79,25.79,0,0,0,51.1,107a32,32,0,0,0,9.83-8.74,40.5,40.5,0,0,0,2.6-3.89c-2.42-1-7.78-3.36-11.22-6"/><path class="cls-10" d="M41.87,115.53a2.72,2.72,0,0,0,.09-.69,2.59,2.59,0,0,0-.08-.63,6.35,6.35,0,0,0,3.55-1.79,2.91,2.91,0,0,0,.65-2.26A2.33,2.33,0,0,0,45,108.41c-1.71-1.11-5-.3-5.89,0-.93-.27-4.19-1.08-5.9,0a2.33,2.33,0,0,0-1.06,1.75,2.91,2.91,0,0,0,.65,2.26,6.33,6.33,0,0,0,3.57,1.79,2.59,2.59,0,0,0-.07.63,3,3,0,0,0,.08.67,11.44,11.44,0,0,1-6.51,3.17h0a5,5,0,0,0,1,1.2,12.73,12.73,0,0,0,6.17-3.15,2.27,2.27,0,0,0,.32.3c-.22.83-1.13,3-4.83,3.91a8.31,8.31,0,0,0,2.23.64,6.57,6.57,0,0,0,3.81-4,2.6,2.6,0,0,0,.56.06,3.07,3.07,0,0,0,.53,0,6.62,6.62,0,0,0,3.81,4,8.31,8.31,0,0,0,2.23-.64c-3.68-.92-4.6-3-4.82-3.9a2.27,2.27,0,0,0,.32-.3,12.79,12.79,0,0,0,6.16,3.14,5,5,0,0,0,1-1.2,11.49,11.49,0,0,1-6.49-3.15"/><path class="cls-11" d="M44.3,109.53a1,1,0,0,1,.46.78,1.57,1.57,0,0,1-.36,1.26,3.83,3.83,0,0,1-1.72,1.05,2.49,2.49,0,0,0,.14-2,3.07,3.07,0,0,0-1.07-1.41,4.33,4.33,0,0,1,2.55.31"/><path class="cls-11" d="M36.68,111.1c.5-1.34,2.37-1.36,2.45-1.36h0a3.71,3.71,0,0,1,1.07.17,2,2,0,0,1,1.37,1.19,1.71,1.71,0,0,1-.57,1.63,2.8,2.8,0,0,0-3.74,0,1.71,1.71,0,0,1-.58-1.64"/><path class="cls-11" d="M35.57,112.62a3.76,3.76,0,0,1-1.72-1.05,1.61,1.61,0,0,1-.36-1.26,1,1,0,0,1,.46-.78,3.19,3.19,0,0,1,1.69-.36,8.43,8.43,0,0,1,.86,0,3,3,0,0,0-1.06,1.41,2.43,2.43,0,0,0,.13,2"/><path class="cls-11" d="M37.65,114.84a1.49,1.49,0,1,1,1.49,1.49,1.49,1.49,0,0,1-1.49-1.49"/><path class="cls-11" d="M47.37,119.87a12.7,12.7,0,0,1-6.16-3.13,2.27,2.27,0,0,1-.32.3c.22.85,1.14,3,4.82,3.91a6.62,6.62,0,0,0,1.66-1.08"/><path class="cls-11" d="M37.05,116.73a12.73,12.73,0,0,1-6.17,3.14,6.35,6.35,0,0,0,1.66,1.07c3.7-.93,4.61-3.08,4.82-3.91a2.91,2.91,0,0,1-.31-.3"/><path class="cls-1" d="M76.54,77.27a.64.64,0,0,0-.22-.57.63.63,0,0,0-.45-.15,7.81,7.81,0,0,0,.35-.84A12.79,12.79,0,0,0,77,71.36a.65.65,0,0,0-.72-.65c.09-.26.18-.54.25-.82a12.81,12.81,0,0,0,.29-4.4.63.63,0,0,0-.33-.51.73.73,0,0,0-.46-.06,9.79,9.79,0,0,0,.21-1,13,13,0,0,0-.14-4.41.65.65,0,0,0-.73-.51c0-.23.08-.46.1-.68a13,13,0,0,0-.34-4.4.65.65,0,0,0-1-.37h0a9.32,9.32,0,0,0,0-1.06,13.13,13.13,0,0,0-.95-4.31.66.66,0,0,0-.47-.4.65.65,0,0,0-.49.1c0-.33,0-.66-.08-1a13.06,13.06,0,0,0-1.39-4.19.65.65,0,0,0-.5-.35.63.63,0,0,0-.48.15c0-.3-.11-.61-.19-.91a13.36,13.36,0,0,0-1.87-4,.68.68,0,0,0-.54-.28.66.66,0,0,0-.53.28,7.56,7.56,0,0,0-.39-1.06,13,13,0,0,0-2.49-3.65.66.66,0,0,0-.61-.19.71.71,0,0,0-.38.25,11.72,11.72,0,0,0-.58-1,13.06,13.06,0,0,0-3-3.18.64.64,0,0,0-.6-.1.63.63,0,0,0-.37.33,7.37,7.37,0,0,0-3.51-2.49c.26,0,.53.05.8.06a9.3,9.3,0,0,0,3.08-.28.8.8,0,0,0,.57-.88.81.81,0,0,0-.77-.71,6.92,6.92,0,0,1-3.59-1,5.64,5.64,0,0,0-.55-.29l4.55-.68a.81.81,0,0,0,0-1.61l-4.52-.65c.53-.14,1.14-.32,1.76-.53a9.26,9.26,0,0,0,2.74-1.45A.81.81,0,0,0,58,17.1a6.87,6.87,0,0,1-3.7.46l-.61-.06,3.93-2.36a.79.79,0,0,0,.33-1,.8.8,0,0,0-1-.48l-4.43,1.13c.43-.33.93-.73,1.43-1.18a9.21,9.21,0,0,0,2-2.38.79.79,0,0,0-.22-1,.82.82,0,0,0-1,0,6.78,6.78,0,0,1-3.24,1.84l-.58.18,2.73-3.68a.8.8,0,0,0-.08-1,.81.81,0,0,0-1.06-.08l-3.68,2.75c.28-.48.59-1,.88-1.65a9.84,9.84,0,0,0,.91-2.95A.8.8,0,0,0,50,4.75a.81.81,0,0,0-.95.43,7,7,0,0,1-2.29,3l-.46.38,1.12-4.43a.82.82,0,0,0-1.49-.62l-2.36,4c.08-.55.14-1.19.18-1.87a9.14,9.14,0,0,0-.29-3.08.82.82,0,0,0-1.59.2,6.84,6.84,0,0,1-1,3.6l-.27.52-.66-4.52a.82.82,0,0,0-.81-.69h0a.82.82,0,0,0-.8.7l-.63,4.49c-.14-.52-.32-1.12-.53-1.74A9.51,9.51,0,0,0,35.72,2.3a.81.81,0,0,0-1.39.79,6.83,6.83,0,0,1,.45,3.7c0,.2,0,.4-.06.62L32.34,3.46a.83.83,0,0,0-1-.33.81.81,0,0,0-.47,1L32,8.49c-.33-.43-.73-.92-1.17-1.41a9.46,9.46,0,0,0-2.37-2,.81.81,0,0,0-1,1.26,6.78,6.78,0,0,1,1.84,3.24l.18.59-3.7-2.74a.82.82,0,0,0-1.06.09.81.81,0,0,0-.07,1l2.74,3.66c-.46-.27-1-.57-1.62-.86a9.13,9.13,0,0,0-3-.91A.81.81,0,0,0,22.4,12a6.77,6.77,0,0,1,2.94,2.29l.39.47-4.46-1.12a.81.81,0,0,0-.61,1.48l3.95,2.35c-.54-.07-1.18-.14-1.85-.18a9.75,9.75,0,0,0-3.07.29.81.81,0,0,0,.2,1.59,6.87,6.87,0,0,1,3.59,1c.17.1.34.19.53.28l-4.54.67a.81.81,0,0,0,0,1.61L24,23.4c-.53.14-1.15.32-1.79.55a9.11,9.11,0,0,0-2.73,1.45.81.81,0,0,0,.79,1.38,7.7,7.7,0,0,1,2.41-.53,18.69,18.69,0,0,0-2,2c-.18.23-.35.47-.51.71a.7.7,0,0,0-.34-.27.64.64,0,0,0-.6.1,13.3,13.3,0,0,0-3,3.22,8.53,8.53,0,0,0-.57,1,.65.65,0,0,0-1-.09,13.22,13.22,0,0,0-2.5,3.65,9.41,9.41,0,0,0-.37,1,.64.64,0,0,0-1,.08,12.94,12.94,0,0,0-2,3.92,9.47,9.47,0,0,0-.25,1A.63.63,0,0,0,8,42.38a.64.64,0,0,0-.51.34A13,13,0,0,0,6,46.9c0,.33-.08.66-.1,1a.62.62,0,0,0-.54-.12.6.6,0,0,0-.46.4A12.87,12.87,0,0,0,4,52.49c0,.33,0,.66,0,1a.64.64,0,0,0-1,.4,13.07,13.07,0,0,0-.35,4.4c0,.25.07.51.11.75a.69.69,0,0,0-.28,0,.63.63,0,0,0-.38.47A13,13,0,0,0,2.08,64c0,.35.13.68.21,1A.54.54,0,0,0,2,65a.65.65,0,0,0-.36.5,13.08,13.08,0,0,0,.14,4.41c.07.29.14.57.23.84a.69.69,0,0,0-.42.1.6.6,0,0,0-.3.53,13,13,0,0,0,.6,4.37c.13.37.28.73.44,1.08l-.08,0a.63.63,0,0,0-.79.72,12.89,12.89,0,0,0,1.36,4.2c.12.23.25.45.39.67a.66.66,0,0,0-.29.17.62.62,0,0,0-.16.59,12.85,12.85,0,0,0,1.67,4.09c.17.27.36.53.55.78a.62.62,0,0,0-.43.25.61.61,0,0,0-.09.61,13.12,13.12,0,0,0,2.13,3.87c.19.23.39.45.59.66a.62.62,0,0,0-.37.29.63.63,0,0,0,0,.61,13.14,13.14,0,0,0,2.58,3.6c.2.2.42.39.64.57a.64.64,0,0,0-.33.32.63.63,0,0,0,0,.61,13.29,13.29,0,0,0,2.94,3.31,8.11,8.11,0,0,0,1,.69l-.13,0a.65.65,0,0,0-.41.46.64.64,0,0,0,.16.59,15.69,15.69,0,0,0,3.42,2.74,9.42,9.42,0,0,0,2.82,1.07,6.26,6.26,0,0,0,2.28,0,.27.27,0,0,0,.12,0,34,34,0,0,0,6.29,3.51,31.34,31.34,0,0,0,5.58,1.76l1.12.21a4.88,4.88,0,0,1-2.14-1.39,3,3,0,0,1-.25-.37,30.57,30.57,0,0,1-3.84-1.32,33.06,33.06,0,0,1-6-3.35l0-.07a6.19,6.19,0,0,0-.22-2,28.74,28.74,0,0,0,4,2.78,26.78,26.78,0,0,0,5.68,2.36c0-.11,0-.22,0-.34a2.57,2.57,0,0,1,.27-.89A25.71,25.71,0,0,1,27.16,107a31.86,31.86,0,0,1-9.83-8.74,38.75,38.75,0,0,1-2.75-4.15c2.18-1,7-3.15,11.3-5.34a2.29,2.29,0,0,0,.16.55,2.55,2.55,0,0,0,2,1.27l.69.06a2.61,2.61,0,0,0,1.76,1.47,4.83,4.83,0,0,0,.94.2,2,2,0,0,0,.75.94,3.9,3.9,0,0,0,2.67.39,2.41,2.41,0,0,0,1.42.86,2.38,2.38,0,0,0,.53,0,3.7,3.7,0,0,0,1.29-.25V102a1,1,0,0,0,2,0V94a4.16,4.16,0,0,0,2.4-.2,3.77,3.77,0,0,0,1-.6,2.76,2.76,0,0,0,2.55-.77,3.84,3.84,0,0,0,.53-.71,3.07,3.07,0,0,0,2.61-1,3,3,0,0,0,.5-.78,3,3,0,0,0,2-.78,2.72,2.72,0,0,0,.55-.78c3.44,2.67,8.8,5,11.22,6a40.5,40.5,0,0,1-2.6,3.89A32.08,32.08,0,0,1,51.1,107a25.79,25.79,0,0,1-5.29,2.23,2.43,2.43,0,0,1,.27.89,2,2,0,0,1,0,.34,26.57,26.57,0,0,0,5.68-2.36,28.89,28.89,0,0,0,4-2.81,6.33,6.33,0,0,0-.23,2s0,.06,0,.1a26.92,26.92,0,0,1-4.41,2.68,29.05,29.05,0,0,1-5.28,2l-.22.06a3.46,3.46,0,0,1-.22.31,5,5,0,0,1-2.19,1.41,27.48,27.48,0,0,0,3-.62,30.52,30.52,0,0,0,5.5-2.07,27.85,27.85,0,0,0,4.62-2.81l.09,0a6.31,6.31,0,0,0,2.29,0,9.42,9.42,0,0,0,2.82-1.07A15.23,15.23,0,0,0,65,104.53a.62.62,0,0,0,.17-.59.7.7,0,0,0-.41-.46l-.1,0a10.89,10.89,0,0,0,1-.7,13.29,13.29,0,0,0,2.94-3.31.63.63,0,0,0,0-.61.59.59,0,0,0-.32-.32c.22-.18.43-.37.64-.57a12.91,12.91,0,0,0,2.57-3.6.61.61,0,0,0,0-.61.62.62,0,0,0-.46-.31c.23-.23.44-.47.65-.72a13.12,13.12,0,0,0,2.13-3.87.64.64,0,0,0-.57-.86h0c.19-.23.37-.48.54-.73a13,13,0,0,0,1.74-4.07.63.63,0,0,0-.67-.79,9.25,9.25,0,0,0,.49-.87,13,13,0,0,0,1.22-4.24m-.76-5s0,0,0,0a11.47,11.47,0,0,1-.61,3,7.71,7.71,0,0,1-1.34,2.35A5.7,5.7,0,0,1,72.26,79h0l0,0a7,7,0,0,1-1.29-4.39,9.26,9.26,0,0,1,.18-1.65s0,0,0,0h0a8.4,8.4,0,0,1,1.23,2.27.49.49,0,0,0,.43.33.5.5,0,0,0,.46-.27,7.65,7.65,0,0,1,2.46-3h0m-.12-5.75h0s0,0,0,0a11.32,11.32,0,0,1-.3,3A7.72,7.72,0,0,1,74.31,72a5.78,5.78,0,0,1-1.45,1.48h0c-1.56-1.77-1.71-4.4-1.66-5.8a.05.05,0,0,1,0,0h0a10.65,10.65,0,0,1,1.41,2,.46.46,0,0,0,.45.27.47.47,0,0,0,.43-.32,7.55,7.55,0,0,1,2.16-3.18M75,60.65a0,0,0,0,1,0,0l0,0a11.26,11.26,0,0,1,0,3.07,7.78,7.78,0,0,1-.85,2.57,5.8,5.8,0,0,1-1.33,1.63h0c-1.55-1.28-2-4.05-2.16-5.59a.05.05,0,0,1,0,0h0a10.56,10.56,0,0,1,1.56,1.86A.48.48,0,0,0,73.2,64,7.6,7.6,0,0,1,75,60.65m-.92-5.55a0,0,0,0,1,0,0l0,0a11.13,11.13,0,0,1,.13,3.07,7.46,7.46,0,0,1-.72,2.6,5.73,5.73,0,0,1-1.23,1.67h0a7.43,7.43,0,0,1-2.2-3.88,12.33,12.33,0,0,1-.29-1.63s0,0,0,0h0a10.09,10.09,0,0,1,1.7,1.83.47.47,0,0,0,.49.2.48.48,0,0,0,.37-.37,7.55,7.55,0,0,1,1.68-3.47m-44.34.36c0-.08,0-.15,0-.23a19.73,19.73,0,0,1,3.38-7.94,13.06,13.06,0,0,1,2-2.16c.12-.09.25-.19.36-.29a.9.9,0,0,0,.13-1.24.91.91,0,0,0-1.24-.2l-.38.3c-.85.6-1.33.4-1.46.33a.88.88,0,0,1-.32-1,5.75,5.75,0,0,1,1.42-2.28l.05-.05a7.08,7.08,0,0,1,4.89-2.25h.08a6.06,6.06,0,0,1,2.11.31A6.25,6.25,0,0,1,44.5,42a34.92,34.92,0,0,1,2.73,7.07,11.54,11.54,0,0,1-3-1.69.91.91,0,0,0-1.28.13.88.88,0,0,0-.21.66,1,1,0,0,0,.33.62,12.5,12.5,0,0,0,4.65,2.31c.17.84.33,1.71.5,2.74A12.45,12.45,0,0,0,45.71,53a11.47,11.47,0,0,1-1.41-.43,14.86,14.86,0,0,1-3.18-1.83A.91.91,0,0,0,40,52.18a16.78,16.78,0,0,0,3.63,2.09,12.89,12.89,0,0,0,1.62.5c2.17.57,3.14,1,3.19,2.08a1.29,1.29,0,0,1-.27.45,3.88,3.88,0,0,1-2.73.79h-2.1a8.57,8.57,0,0,1-4.27-1.25c-4.6-3-6.7-2.5-9.28-1.38m7.85,2.63H31.42a1.66,1.66,0,0,1-1.34-.48,2.3,2.3,0,0,1-.15-.23c2.6-1.18,4-1.6,7.7.71m2.5,11.21V59.83h5.49a7.41,7.41,0,0,0,1.18-.1,4.36,4.36,0,0,0,2.63-1.26,3.06,3.06,0,0,0,.68-1.18s0-.1,0-.15a4.19,4.19,0,0,0,.06-1.65l0-.18A41.3,41.3,0,0,0,46,41.23a7.86,7.86,0,0,0-7.45-4.5,8.71,8.71,0,0,0-6.16,2.85,7.25,7.25,0,0,0-1.87,3.18,2.57,2.57,0,0,0,1.17,2.78,2.07,2.07,0,0,0,.46.2,21,21,0,0,0-4.07,9.15,6.12,6.12,0,0,0-.1,2,.68.68,0,0,0,0,.15,3.4,3.4,0,0,0,.7,1.65,3.28,3.28,0,0,0,2.68,1.12h6.7V75.09a7.56,7.56,0,0,0-4.76,1.8C31,78.48,23,80.05,9.64,81.57A53,53,0,0,1,8.22,69.3a52.35,52.35,0,0,1,2.45-16,43.51,43.51,0,0,1,6.66-13,31.86,31.86,0,0,1,9.83-8.74,24.05,24.05,0,0,1,23.94,0,32.08,32.08,0,0,1,9.83,8.74,43.26,43.26,0,0,1,6.65,13A52,52,0,0,1,70,69.3a53.42,53.42,0,0,1-1.45,12.45c-8.14-.47-17.76-3.49-18-3.58-.69-.23-1.31-.46-1.86-.65a13.13,13.13,0,0,0-5.19-1.18h-.29a11.14,11.14,0,0,0-3.06-1ZM52.77,26.5a12.12,12.12,0,0,1-2.12.62,8.76,8.76,0,0,1-1.57.15,5.12,5.12,0,0,1-3-.86s0,0,0,0,0,0,0,0a6.28,6.28,0,0,1,1.76-.69,6.21,6.21,0,0,1,2.54-.08,7.37,7.37,0,0,1,2.38.86s0,0,0,0,0,0,0,0m1.17,3.3s0,0,0,0a0,0,0,0,1,0,0,5.46,5.46,0,0,1-1.54.29h-.23a6.55,6.55,0,0,1-4-1.51l0,0,0,0a7.63,7.63,0,0,1,1.74-.33,4.93,4.93,0,0,1,4.06,1.56m-6.4-5.13a9.69,9.69,0,0,1-2.9.76.49.49,0,0,0-.41.36.47.47,0,0,0,.2.51,10.55,10.55,0,0,1,1.9,1.77s0,0,0,0,0,0,0,0h0a7.58,7.58,0,0,1-5.62-2.56,0,0,0,0,1,0,0,4.42,4.42,0,0,1,1.54-.93,8.81,8.81,0,0,1,5.32,0l0,0s0,0,0,0m-6-1A8.42,8.42,0,0,1,38.84,25a.48.48,0,0,0-.34.45.47.47,0,0,0,.31.46A8.21,8.21,0,0,1,41,27.18s0,0,0,0l0,0c-.34,0-.74.06-1.19.06A8,8,0,0,1,35,25.93a0,0,0,0,1,0,0,4.5,4.5,0,0,1,1.31-1.23,8.82,8.82,0,0,1,5.27-1l0,0s0,0,0,0m-6.14.1A6.49,6.49,0,0,1,33,25.67a.48.48,0,0,0,.13.9,10.3,10.3,0,0,1,2.38.8s0,0,0,0a0,0,0,0,1,0,0,11.08,11.08,0,0,1-1.58.4,9.89,9.89,0,0,1-1.65.15,6.64,6.64,0,0,1-2.86-.59s0,0,0,0a4.57,4.57,0,0,1,1-1.47,8.81,8.81,0,0,1,5-2.14h0v0m-7.91,3.77a.48.48,0,0,0-.14.53.5.5,0,0,0,.45.31h0a10.62,10.62,0,0,1,1.22.09,8.49,8.49,0,0,1,1.28.26s0,0,0,0a.05.05,0,0,1,0,0,11.7,11.7,0,0,1-1.52.64,8.81,8.81,0,0,1-2.89.52,6.44,6.44,0,0,1-1.7-.22.05.05,0,0,1,0,0c.2-1,1.14-3.51,5.42-5h0s0,0,0,0a7.77,7.77,0,0,1-2.16,2.75M71.17,53.14a7.67,7.67,0,0,1,1.18-3.66l0,0a0,0,0,0,1,0,0,11.51,11.51,0,0,1,.57,3,7.53,7.53,0,0,1-.37,2.68,5.8,5.8,0,0,1-1,1.82h0a7.1,7.1,0,0,1-2.77-3.58,10.08,10.08,0,0,1-.48-1.56.06.06,0,0,1,0,0h0a10.27,10.27,0,0,1,2,1.6.49.49,0,0,0,.51.13.47.47,0,0,0,.32-.42m-1.91-5.3a7.65,7.65,0,0,1,.8-3.76l0,0,0,0A11,11,0,0,1,71,47a7.37,7.37,0,0,1-.08,2.7,5.81,5.81,0,0,1-.79,1.9l0,0h0a7.16,7.16,0,0,1-3.14-3.28,10.53,10.53,0,0,1-.63-1.5s0,0,0,0h0a10.11,10.11,0,0,1,2.12,1.39.48.48,0,0,0,.79-.38M66.6,43.35h0a.49.49,0,0,0,.23-.49A7.6,7.6,0,0,1,67.18,39s0,0,0,0l0,0a11.37,11.37,0,0,1,1.21,2.83,7.37,7.37,0,0,1,.24,2.69,5.86,5.86,0,0,1-.56,2h0a7,7,0,0,1-3.59-2.92,8.69,8.69,0,0,1-.78-1.48,0,0,0,0,1,0,0s0,0,0,0a7.62,7.62,0,0,1,2.31,1.2.5.5,0,0,0,.54,0M63,38.75a.48.48,0,0,0,.56,0,.49.49,0,0,0,.17-.53,8.54,8.54,0,0,1-.24-3.79s0,0,0,0h0A11.71,11.71,0,0,1,65.18,37a7.8,7.8,0,0,1,.67,2.62,5.39,5.39,0,0,1-.24,2,0,0,0,0,1,0,0h0a7.19,7.19,0,0,1-3.93-2.31A11.37,11.37,0,0,1,60.55,38v0h0a5.5,5.5,0,0,1,2.43.83m-3.58-4.09A.48.48,0,0,0,60,34a7.67,7.67,0,0,1-.89-3.73s0,0,0,0h0a11.22,11.22,0,0,1,2,2.27A7.92,7.92,0,0,1,62.28,35a6.15,6.15,0,0,1,.13,2.1,0,0,0,0,1,0,0H62.3a7,7,0,0,1-4-1.6,14.34,14.34,0,0,1-1.37-1.24s0,0,0,0l0,0h.18a7.21,7.21,0,0,1,2.33.43M58,30.93a6.48,6.48,0,0,1,.42,2.34s0,0,0,0h-.25c-2,0-4.25-1.32-5.47-2.13a.05.05,0,0,1,0,0l0,0a6.74,6.74,0,0,1,2.44,0,.47.47,0,0,0,.52-.21.48.48,0,0,0,0-.55,9.84,9.84,0,0,1-1.53-2.86s0,0,0,0h0A5.92,5.92,0,0,1,58,30.93m-35.67-5.8.29-.11a25.16,25.16,0,0,1,2.81-.79,7.87,7.87,0,0,0,2.21-.87A.35.35,0,0,0,27.8,23a.32.32,0,0,0-.28-.25l-5.67-.83,5.67-.83a.33.33,0,0,0,0-.65,10.8,10.8,0,0,1-2.5-.76c-.38-.17-.71-.35-1-.51a8.68,8.68,0,0,0-1.62-.73h.3a25.62,25.62,0,0,1,2.9.34,7.34,7.34,0,0,0,2.38,0,.33.33,0,0,0,.27-.26.34.34,0,0,0-.16-.34l-4.92-2.92,5.56,1.39a.33.33,0,0,0,.38-.19.34.34,0,0,0-.14-.41,10.44,10.44,0,0,1-2-1.66c-.27-.3-.5-.57-.72-.85A9.12,9.12,0,0,0,25,12.3l.27.12a28,28,0,0,1,2.55,1.43,7.46,7.46,0,0,0,2.18,1,.32.32,0,0,0,.35-.14.33.33,0,0,0,0-.37L26.91,9.71l4.61,3.41a.33.33,0,0,0,.46-.46,10.31,10.31,0,0,1-1.23-2.31c-.14-.38-.25-.73-.35-1.07a8.52,8.52,0,0,0-.62-1.66,2.09,2.09,0,0,1,.2.22,24.21,24.21,0,0,1,1.81,2.3,8,8,0,0,0,1.65,1.71.32.32,0,0,0,.37,0,.31.31,0,0,0,.13-.35L32.52,6l3,4.9a.32.32,0,0,0,.4.14.35.35,0,0,0,.2-.38A10.13,10.13,0,0,1,35.83,8c0-.41.05-.77.09-1.11A8.68,8.68,0,0,0,36,5.12c0,.1.07.19.1.29a25.78,25.78,0,0,1,.79,2.81,7.55,7.55,0,0,0,.87,2.22.32.32,0,0,0,.34.14.34.34,0,0,0,.26-.27l.79-5.62L40,10.31a.32.32,0,0,0,.32.28.33.33,0,0,0,.33-.28,10.8,10.8,0,0,1,.76-2.51c.17-.36.34-.68.5-1a8.5,8.5,0,0,0,.74-1.63c0,.1,0,.2,0,.31a28.58,28.58,0,0,1-.34,2.9,7.37,7.37,0,0,0,0,2.38.31.31,0,0,0,.26.26.33.33,0,0,0,.34-.15L45.74,6l-1.4,5.55a.33.33,0,0,0,.6.25,10.79,10.79,0,0,1,1.66-2c.29-.28.57-.5.85-.73a8.59,8.59,0,0,0,1.3-1.22l-.12.27a26.67,26.67,0,0,1-1.43,2.55,7.55,7.55,0,0,0-1,2.19.32.32,0,0,0,.14.34.32.32,0,0,0,.37,0l4.58-3.42-3.4,4.59a.32.32,0,0,0,.45.46,10.64,10.64,0,0,1,2.31-1.23c.38-.14.72-.24,1.07-.34a9.67,9.67,0,0,0,1.67-.63l-.23.2a24.38,24.38,0,0,1-2.29,1.81,7.34,7.34,0,0,0-1.71,1.65.32.32,0,0,0,0,.37.33.33,0,0,0,.35.14l5.54-1.41-4.91,2.94a.33.33,0,0,0-.13.4.32.32,0,0,0,.38.2A10.49,10.49,0,0,1,53,18.61c.41,0,.76.05,1.11.09a9.34,9.34,0,0,0,1.78.06l-.28.1a26.42,26.42,0,0,1-2.81.79,7.52,7.52,0,0,0-2.22.87.32.32,0,0,0-.14.34.31.31,0,0,0,.27.26l5.66.81-5.67.85a.32.32,0,0,0-.27.32.31.31,0,0,0,.27.32,10.89,10.89,0,0,1,2.51.77c.36.17.68.34,1,.51a8.69,8.69,0,0,0,1.62.74h-.3a28,28,0,0,1-2.9-.35l-.15,0a8.11,8.11,0,0,0-3.13-.69v0a.65.65,0,0,0-.42-.47,13.37,13.37,0,0,0-4.29-.82,10.21,10.21,0,0,0-1.38.09.58.58,0,0,0-.06-.17.64.64,0,0,0-.49-.35,13.19,13.19,0,0,0-4.37.06,9.06,9.06,0,0,0-1.45.41.7.7,0,0,0-.17-.37.67.67,0,0,0-.53-.21,13.55,13.55,0,0,0-4.25,1,7.89,7.89,0,0,0-.92.46.66.66,0,0,0-.23-.43.66.66,0,0,0-.59-.13,13.43,13.43,0,0,0-4,1.81l-.07.05c-.3,0-.6,0-.88,0l-1.11-.09a9.49,9.49,0,0,0-1.79-.05m1.53,1.64h0s0,0,0,0a7.46,7.46,0,0,1-1.24,3.63.47.47,0,0,0,0,.53.47.47,0,0,0,.49.2A10.75,10.75,0,0,1,25.64,31l0,0s0,0,0,0a9.39,9.39,0,0,1-5.4,2.24H20a0,0,0,0,1,0,0c-.06-1.08.2-3.86,3.88-6.51M16.08,35a7.59,7.59,0,0,1,1.08-2.48,11.7,11.7,0,0,1,2.05-2.31,0,0,0,0,1,0,0s0,0,0,0A7.51,7.51,0,0,1,18.38,34a.47.47,0,0,0,.06.53.49.49,0,0,0,.52.15,9,9,0,0,1,2.4-.44l0,0s0,0,0,0A14.56,14.56,0,0,1,20,35.53a6.84,6.84,0,0,1-3.78,1.62H16a0,0,0,0,1,0,0,5.57,5.57,0,0,1,.09-2.1m-1.26-.66h0s0,0,0,0a7.48,7.48,0,0,1-.28,3.83.47.47,0,0,0,.17.53.46.46,0,0,0,.56,0,5.71,5.71,0,0,1,2.39-.83l0,0v0c-.87,1.21-2.66,3.3-5,3.69h0a0,0,0,0,1,0,0c-.34-1-.81-3.79,2.09-7.28m-5,7.48a11.28,11.28,0,0,1,1.33-2.77l0,0,0,0a7.65,7.65,0,0,1,.19,3.85.46.46,0,0,0,.24.51.47.47,0,0,0,.56-.08,4.69,4.69,0,0,1,2.34-1.14h0s0,0,0,0a10,10,0,0,1-.94,1.56A6.88,6.88,0,0,1,10,46.55h0s0,0,0,0a5.83,5.83,0,0,1-.48-2,7.45,7.45,0,0,1,.35-2.68M7.13,47A11.07,11.07,0,0,1,8,44.07s0,0,0,0h0s0,0,0,0a7.54,7.54,0,0,1,.76,3.78.48.48,0,0,0,.8.38,9.85,9.85,0,0,1,2.24-1.42h0s0,0,0,0a7.45,7.45,0,0,1-.51,1.41A7.42,7.42,0,0,1,8,51.63H8l0,0a5.6,5.6,0,0,1-.77-1.9A7.6,7.6,0,0,1,7.13,47M5.67,49.43l0,0,0,0A7.59,7.59,0,0,1,7,53.07a.45.45,0,0,0,.33.41.47.47,0,0,0,.51-.14,8.42,8.42,0,0,1,2-1.7h0s0,0,0,0a7.9,7.9,0,0,1-.33,1.5,6.82,6.82,0,0,1-3,3.76h0a5.74,5.74,0,0,1-1-1.81,7.67,7.67,0,0,1-.4-2.67,11.41,11.41,0,0,1,.52-3M4,55l0,0h0a7.7,7.7,0,0,1,1.68,3.47.45.45,0,0,0,.37.37.49.49,0,0,0,.49-.19,9.46,9.46,0,0,1,1.77-1.89h0s0,0,0,0a8.34,8.34,0,0,1-.2,1.49,7.59,7.59,0,0,1-2.37,4.06h0a5.62,5.62,0,0,1-1.22-1.65,7.53,7.53,0,0,1-.73-2.61A11.09,11.09,0,0,1,4,55m-.85,5.62,0,0s0,0,0,0A7.6,7.6,0,0,1,5.07,64a.48.48,0,0,0,.42.36A.49.49,0,0,0,6,64.12a6.82,6.82,0,0,1,1.49-2h0s0,0,0,0a10.42,10.42,0,0,1-.14,1.69,6.81,6.81,0,0,1-2,4h0A5.8,5.8,0,0,1,4,66.3a7.56,7.56,0,0,1-.85-2.57,11.65,11.65,0,0,1,0-3.07m-.46,5.92s0,0,0,0h0l.36.36a7.79,7.79,0,0,1,1.69,2.92.49.49,0,0,0,.49.33.5.5,0,0,0,.44-.4h0A4.07,4.07,0,0,1,7,67.63H7s0,0,0,0a8.88,8.88,0,0,1,0,2.79,5.66,5.66,0,0,1-1.64,3.24h0c-.89-.64-2.91-2.61-2.63-7.11m-.23,5.73h0a3.9,3.9,0,0,1,.4.31,8,8,0,0,1,2,2.73.46.46,0,0,0,.43.28h0a.5.5,0,0,0,.44-.29,9.41,9.41,0,0,1,1.36-2.27h0l0,0a7.39,7.39,0,0,1-1.36,6h0c-.94-.55-3.14-2.3-3.34-6.79,0,0,0,0,0,0m.29,6s0,0,0,0a0,0,0,0,1,0,0A7.65,7.65,0,0,1,5.7,80.83a.5.5,0,0,0,.49.21.48.48,0,0,0,.37-.37h0a9.91,9.91,0,0,1,1-2.5s0,0,0,0l0,0a7,7,0,0,1,.51,1.52,6.42,6.42,0,0,1-.79,4.7H7.27a5.85,5.85,0,0,1-1.79-1.09,7.47,7.47,0,0,1-1.66-2.14,11.71,11.71,0,0,1-1-2.89m1.36,5.54s0,0,0,0h0l.46.21a8,8,0,0,1,2.61,2.16.47.47,0,0,0,.84-.22,10.58,10.58,0,0,1,.74-2.48h0s0,0,0,0a7.45,7.45,0,0,1,.23,6.11s0,0,0,0h0c-1.05-.3-3.63-1.45-4.94-5.77M7.47,92a11.47,11.47,0,0,1-1.58-2.64.06.06,0,0,1,0,0h0l.48.16a8,8,0,0,1,2.84,1.85.48.48,0,0,0,.82-.32,9.68,9.68,0,0,1,.43-2.51l0,0s0,0,0,0A9.35,9.35,0,0,1,11.25,90a7,7,0,0,1,.25,4.55l0,0h0a5.93,5.93,0,0,1-2-.74,7.45,7.45,0,0,1-2-1.79m.81,2.63a0,0,0,0,1,0,0s0,0,0,0a7.64,7.64,0,0,1,3.53,1.61.47.47,0,0,0,.53,0,.48.48,0,0,0,.25-.47,8.46,8.46,0,0,1,.12-2.48s0,0,0,0,0,0,0,0a10.91,10.91,0,0,1,.84,1.43,7.36,7.36,0,0,1,.81,4.39,0,0,0,0,1,0,0h0a5.86,5.86,0,0,1-2-.51,7.74,7.74,0,0,1-2.24-1.54,11.9,11.9,0,0,1-1.87-2.44m11,9.58a9.21,9.21,0,0,1-.58-2.43s0,0,0,0h0c1.12.93,3,2.88,2.85,5.45,0,0,0,0,0,0a4.64,4.64,0,0,1-.74.06,5.67,5.67,0,0,1-1.14-.12,10.41,10.41,0,0,1-4.9-2.81,0,0,0,0,1,0,0l0,0a7.89,7.89,0,0,1,3.86.52.46.46,0,0,0,.51-.11.46.46,0,0,0,.1-.52M15,100.8a.5.5,0,0,0,.54,0,.48.48,0,0,0,.18-.51,8.2,8.2,0,0,1-.16-2.45s0,0,0,0h0c.92,1.1,2.42,3.29,2.28,5.61a0,0,0,0,1,0,0H17.6a6,6,0,0,1-1.84-.3,7.77,7.77,0,0,1-2.4-1.31,11.64,11.64,0,0,1-2.12-2.23,0,0,0,0,1,0,0s0,0,0,0A7.79,7.79,0,0,1,15,100.8M33.66,88.25c-.16.1-.31.2-.44.3a4.63,4.63,0,0,0-1.9,2.26l-.37-.1c-.78-.25-.82-.65-.84-.8,0-.4.19-.76.79-1.33a2.86,2.86,0,0,1,1.78-1,1.2,1.2,0,0,1,.52.12.9.9,0,0,1,.45.4.66.66,0,0,1,0,.15m1,3.94a2.6,2.6,0,0,1-1.58-.14.56.56,0,0,1-.24-.45c-.07-.67.79-1.38,1.31-1.74A3.83,3.83,0,0,1,36,89a1,1,0,0,1,.63.26c.16.14.25.27.24.38a1.32,1.32,0,0,1-.53.72,4.6,4.6,0,0,0-1.66,1.87m4.06.14a3.3,3.3,0,0,1-2.1.74.91.91,0,0,1-.48-.27,4.16,4.16,0,0,1,1.79-1.6c.9-.52,1.29-.22,1.3-.21.27.25.25.4.24.45,0,.32-.48.71-.69.84l-.06,0m-8.54-5.24-.37.33a4.06,4.06,0,0,0-1.18,1.75l-.33,0c-.51-.09-.8-.25-.85-.38s-.14-.3.16-.7a3,3,0,0,1,2.06-1h.25l.26,0m20.54,1a1.55,1.55,0,0,1-1.06.36A14,14,0,0,0,45,84.34a.76.76,0,0,0-.61,0,.8.8,0,0,0-.49,1,.76.76,0,0,0,.4.46,12.74,12.74,0,0,1,4,3.59,2,2,0,0,1-.24.37,1.62,1.62,0,0,1-1.31.5,7.1,7.1,0,0,0-1.06-1.53,14,14,0,0,0-2.11-1.79.77.77,0,0,0-.59-.14.83.83,0,0,0-.52.33.8.8,0,0,0-.13.6.77.77,0,0,0,.33.51,13.16,13.16,0,0,1,1.81,1.53,5.49,5.49,0,0,1,.83,1.17,1.85,1.85,0,0,1-.36.51,1.25,1.25,0,0,1-1.06.33,8.64,8.64,0,0,0-1.46-2.2.79.79,0,0,0-1.12-.07.8.8,0,0,0-.07,1.13,7.18,7.18,0,0,1,1.1,1.6,2.74,2.74,0,0,1-.42.21,2.62,2.62,0,0,1-1.28.15,2.12,2.12,0,0,0,.35-1,2.1,2.1,0,0,0-.71-1.76,2.2,2.2,0,0,0-1.92-.52A2.14,2.14,0,0,0,37.63,88a2.48,2.48,0,0,0-2.5-.51h0a2.38,2.38,0,0,0-1.22-1.22,2.71,2.71,0,0,0-2.13-.15A3.27,3.27,0,0,0,30,85.45a4.42,4.42,0,0,0-3.33,1.22c-4.55,2.43-10.41,5.07-12.79,6.12a45.56,45.56,0,0,1-3.16-7.53c-.23-.72-.45-1.47-.66-2.21,6.7-.77,12.08-1.56,16-2.34,4.12-.82,6.78-1.66,8.13-2.57,1.57-1.11,2.64-1.65,4.14-1.52.35,0,.67.06,1,.11a5.09,5.09,0,0,0-.82.45c-.63.44-1,.76-1.35,1a12,12,0,0,1-1,.78,9.43,9.43,0,0,1-1.11.59c-.93.45-1.66.81-1.9,1.45A2,2,0,0,0,33.41,83a2.91,2.91,0,0,0,2.81.88,7.87,7.87,0,0,0,3.24-1c.34-.19.63-.38.89-.55a3.65,3.65,0,0,1,1-.55h0a4.36,4.36,0,0,1,2.78.29A15.51,15.51,0,0,1,47,83.58a18.75,18.75,0,0,1,4.09,3.76,1.29,1.29,0,0,1-.36.73m2.89-.61a8.56,8.56,0,0,1-1.38-1.24h0l0,0L52.06,86a19.85,19.85,0,0,0-4.22-3.8c-1.47-.95-4.21-2.73-6.85-2a4.55,4.55,0,0,0-1.52.77c-.25.16-.51.33-.8.5a6.34,6.34,0,0,1-2.54.77c-.75,0-1.23,0-1.42-.22s-.16-.32-.14-.4A7.65,7.65,0,0,1,35.71,81,11.76,11.76,0,0,0,37,80.34a12.42,12.42,0,0,0,1.18-.89c.32-.26.69-.55,1.27-1a5,5,0,0,1,3-.6h.65l.49,0a12.23,12.23,0,0,1,4.61,1.09c.55.2,1.19.43,1.9.67.11,0,2.7.85,6.23,1.69a75.15,75.15,0,0,0,11.82,1.93c-.19.69-.39,1.37-.6,2a46.4,46.4,0,0,1-3.31,7.79,55.77,55.77,0,0,1-10.61-5.59m9.89,17a10.26,10.26,0,0,1-4.9,2.8,5.58,5.58,0,0,1-1.13.12,4.23,4.23,0,0,1-.75-.06s0,0,0,0A6,6,0,0,1,58.33,103a9.83,9.83,0,0,1,1.22-1.19h0a0,0,0,0,1,0,0,9.65,9.65,0,0,1-.61,2.39.5.5,0,0,0,.1.52.48.48,0,0,0,.52.11,7.79,7.79,0,0,1,3.85-.51l0,0a.06.06,0,0,1,0,0m3.61-4.81A11.3,11.3,0,0,1,65,101.84a7.77,7.77,0,0,1-2.4,1.31,6,6,0,0,1-1.84.3h-.23a0,0,0,0,1,0,0,7.05,7.05,0,0,1,1.27-4.32,10.33,10.33,0,0,1,1-1.32h0s0,0,0,0a10.29,10.29,0,0,1-.14,2.51.48.48,0,0,0,.2.49.51.51,0,0,0,.53,0,7.8,7.8,0,0,1,3.67-1.24s0,0,0,0,0,0,0,0m1.1-2.51a7.79,7.79,0,0,1-2.25,1.54,5.61,5.61,0,0,1-2,.51h0s0,0,0,0a7.1,7.1,0,0,1,.8-4.43,11.47,11.47,0,0,1,.85-1.41h0s0,0,0,0a9.73,9.73,0,0,1,.13,2.5.48.48,0,0,0,.25.47.47.47,0,0,0,.52,0A7.86,7.86,0,0,1,70,94.61h0v0a11.63,11.63,0,0,1-1.87,2.44M70.84,92a7.86,7.86,0,0,1-2,1.8,5.92,5.92,0,0,1-2,.73h0s0,0,0,0a7.22,7.22,0,0,1,.27-4.56,10.78,10.78,0,0,1,.66-1.43,0,0,0,0,1,0,0l0,0A11,11,0,0,1,68.23,91a.49.49,0,0,0,.32.43.45.45,0,0,0,.51-.13,7,7,0,0,1,2.83-1.92,4.91,4.91,0,0,1,.51-.15l0,0a0,0,0,0,1,0,0A11.41,11.41,0,0,1,70.84,92m2-5.37a7.68,7.68,0,0,1-1.86,2,5.65,5.65,0,0,1-1.87.92h0s0,0,0,0a7.58,7.58,0,0,1-.19-4.58,12.35,12.35,0,0,1,.51-1.6l0,0h0s0,0,0,0a11,11,0,0,1,.7,2.56.48.48,0,0,0,.84.24,7.93,7.93,0,0,1,3.1-2.33h0s0,0,0,0a11.71,11.71,0,0,1-1.3,2.78M74.34,81a7.41,7.41,0,0,1-1.59,2.2A5.65,5.65,0,0,1,71,84.3h0l0,0a7.46,7.46,0,0,1-.78-4.61,10.31,10.31,0,0,1,.32-1.62l0,0h0a11.1,11.1,0,0,1,1,2.5.48.48,0,0,0,.39.36.46.46,0,0,0,.48-.22A7.68,7.68,0,0,1,75.24,78h0a.05.05,0,0,1,0,0,11.17,11.17,0,0,1-1,2.91"/><path class="cls-12" d="M49.38,24.36a8.11,8.11,0,0,1,3.13.69l.15,0a28,28,0,0,0,2.9.35h.3a8.69,8.69,0,0,1-1.62-.74c-.31-.17-.62-.34-1-.51a10.89,10.89,0,0,0-2.51-.77.32.32,0,0,1,0-.64l5.66-.85-5.66-.81a.31.31,0,0,1-.27-.26.32.32,0,0,1,.14-.34,7.52,7.52,0,0,1,2.22-.87,26.42,26.42,0,0,0,2.81-.79l.28-.1a9.34,9.34,0,0,1-1.78-.06c-.35,0-.7-.08-1.11-.09a10.49,10.49,0,0,0-2.61.25.32.32,0,0,1-.38-.2.33.33,0,0,1,.13-.4l4.91-2.94-5.54,1.41a.34.34,0,0,1-.35-.13.35.35,0,0,1,0-.38,7.34,7.34,0,0,1,1.71-1.65,24.38,24.38,0,0,0,2.29-1.81l.23-.2a9.67,9.67,0,0,1-1.67.63c-.35.1-.69.2-1.07.34a10.64,10.64,0,0,0-2.31,1.23.32.32,0,0,1-.42,0,.34.34,0,0,1,0-.43l3.41-4.59-4.58,3.42a.31.31,0,0,1-.37,0,.32.32,0,0,1-.14-.34,7.55,7.55,0,0,1,1-2.19,27.53,27.53,0,0,0,1.43-2.54l.12-.28A8.59,8.59,0,0,1,47.45,9c-.28.23-.56.45-.85.73a10.79,10.79,0,0,0-1.66,2,.33.33,0,0,1-.6-.25L45.74,6l-2.93,4.92a.33.33,0,0,1-.34.15.31.31,0,0,1-.26-.26,7.35,7.35,0,0,1,0-2.38,28.49,28.49,0,0,0,.34-2.91c0-.09,0-.2,0-.3a7.93,7.93,0,0,1-.74,1.63c-.16.31-.33.63-.5,1a10.65,10.65,0,0,0-.76,2.5.33.33,0,0,1-.33.28.32.32,0,0,1-.32-.28l-.82-5.62-.79,5.62a.33.33,0,0,1-.26.27.32.32,0,0,1-.34-.14,7.55,7.55,0,0,1-.87-2.22,25.78,25.78,0,0,0-.79-2.81c0-.1-.06-.19-.1-.29a8.68,8.68,0,0,1-.06,1.79c0,.34-.08.7-.09,1.11a10.13,10.13,0,0,0,.25,2.61.35.35,0,0,1-.2.38.32.32,0,0,1-.4-.14l-3-4.9,1.42,5.53a.31.31,0,0,1-.13.35.32.32,0,0,1-.37,0,8,8,0,0,1-1.65-1.71A24.21,24.21,0,0,0,30,7.84a2.09,2.09,0,0,0-.2-.22,8.36,8.36,0,0,1,.62,1.67c.1.33.21.68.35,1.06A10.31,10.31,0,0,0,32,12.66a.33.33,0,0,1-.46.46l-4.6-3.41,3.43,4.58a.33.33,0,0,1,0,.37.32.32,0,0,1-.35.14,7.46,7.46,0,0,1-2.18-1,28,28,0,0,0-2.55-1.43L25,12.3a9.12,9.12,0,0,1,1.22,1.3c.22.28.45.55.72.85a10.44,10.44,0,0,0,2,1.66.34.34,0,0,1,.14.41.33.33,0,0,1-.38.19l-5.56-1.39,4.92,2.92a.34.34,0,0,1,.16.34.33.33,0,0,1-.27.26,7.34,7.34,0,0,1-2.38,0,25.62,25.62,0,0,0-2.9-.34h-.3a8.68,8.68,0,0,1,1.62.73c.29.16.62.34,1,.51a10.8,10.8,0,0,0,2.5.76.33.33,0,0,1,0,.65l-5.67.83,5.67.83a.32.32,0,0,1,.28.25.35.35,0,0,1-.15.35,7.87,7.87,0,0,1-2.21.87,25.16,25.16,0,0,0-2.81.79l-.29.11a8.68,8.68,0,0,1,1.79.06l1.11.08c.28,0,.58,0,.88,0l.07-.05a13.43,13.43,0,0,1,4-1.81.66.66,0,0,1,.59.13.66.66,0,0,1,.23.43A8.77,8.77,0,0,1,32,23.5a13.55,13.55,0,0,1,4.25-1,.67.67,0,0,1,.53.21.7.7,0,0,1,.17.37,9.24,9.24,0,0,1,1.44-.41,13.25,13.25,0,0,1,4.38-.06.64.64,0,0,1,.49.35.58.58,0,0,1,.06.17,10.21,10.21,0,0,1,1.38-.09,13.37,13.37,0,0,1,4.29.82.65.65,0,0,1,.42.46v0"/><path class="cls-1" d="M41.14,17.2c5.51-.87,6.11.72,6.11.72a.49.49,0,0,0,.6.25s.37,0,.18-.49c0,0-.6-1.8-3.53-2.11a11.66,11.66,0,0,0-3.16.09c-.49.08-.63,1.16-.63,1.16-.07.49.43.38.43.38"/><path class="cls-1" d="M36.44,18.27a6.88,6.88,0,0,0-2.2-.24c-2.49.09-3.15,1.63-3.15,1.63-.21.52.22.56.22.56a.56.56,0,0,0,.69-.29s.14-.44,1.17-.69a1.28,1.28,0,1,0,2.46.47,1.18,1.18,0,0,0-.11-.5,1.65,1.65,0,0,1,.92.82c.09.19.28.26.75.26s.39-.33.39-.33a2.46,2.46,0,0,0-1.14-1.69"/><path class="cls-1" d="M41,20.29c.47,0,.66-.07.75-.26a1.67,1.67,0,0,1,.91-.82,1.35,1.35,0,0,0-.1.5,1.28,1.28,0,1,0,2.46-.47c1,.25,1.16.69,1.16.69a.57.57,0,0,0,.69.29s.44,0,.22-.56c0,0-.65-1.54-3.14-1.63a7,7,0,0,0-2.21.24A2.46,2.46,0,0,0,40.64,20s-.12.33.39.33"/><path class="cls-1" d="M30.37,18.17a.47.47,0,0,0,.59-.25s.61-1.59,6.12-.72c0,0,.5.11.43-.38,0,0-.14-1.08-.63-1.16a11.64,11.64,0,0,0-3.16-.09c-2.93.31-3.54,2.11-3.54,2.11-.18.45.19.49.19.49"/><path class="cls-13" d="M63.46,104.36a7.79,7.79,0,0,0-3.85.51.48.48,0,0,1-.52-.11.5.5,0,0,1-.1-.52,9.65,9.65,0,0,0,.61-2.39,0,0,0,0,0,0,0h0A9.83,9.83,0,0,0,58.33,103a6,6,0,0,0-1.66,4.23s0,0,0,0a5.48,5.48,0,0,0,.75.06,5.58,5.58,0,0,0,1.13-.12,10.21,10.21,0,0,0,4.9-2.81s0,0,0,0l0,0"/><path class="cls-13" d="M18.76,101.79h0s0,0,0,0a9.21,9.21,0,0,0,.58,2.43.46.46,0,0,1-.1.52.46.46,0,0,1-.51.11,7.89,7.89,0,0,0-3.86-.52l0,0a0,0,0,0,0,0,0,10.41,10.41,0,0,0,4.9,2.81,5.58,5.58,0,0,0,1.14.11,5,5,0,0,0,.74,0s0,0,0,0c.12-2.57-1.73-4.52-2.85-5.45"/><path class="cls-13" d="M67.06,99.56a7.8,7.8,0,0,0-3.67,1.24.48.48,0,0,1-.73-.5,10.29,10.29,0,0,0,.14-2.51s0,0,0,0h0a10.33,10.33,0,0,0-1,1.32,7.05,7.05,0,0,0-1.27,4.32,0,0,0,0,0,0,0h.23a6,6,0,0,0,1.84-.3,7.77,7.77,0,0,0,2.4-1.31,11.3,11.3,0,0,0,2.11-2.23s0,0,0,0,0,0,0,0"/><path class="cls-13" d="M70,94.61a7.86,7.86,0,0,0-3.53,1.61.47.47,0,0,1-.52,0,.48.48,0,0,1-.25-.47,9.73,9.73,0,0,0-.13-2.5s0,0,0,0h0a11.47,11.47,0,0,0-.85,1.41,7.1,7.1,0,0,0-.8,4.43s0,0,0,0h0a5.61,5.61,0,0,0,2-.51,7.79,7.79,0,0,0,2.25-1.54,11.38,11.38,0,0,0,1.87-2.44v0h0"/><path class="cls-13" d="M72.4,89.19a4.91,4.91,0,0,0-.51.15,6.9,6.9,0,0,0-2.83,1.92.45.45,0,0,1-.51.13.49.49,0,0,1-.32-.43,11,11,0,0,0-.44-2.48l0,0a0,0,0,0,0,0,0,10.78,10.78,0,0,0-.66,1.43,7.22,7.22,0,0,0-.27,4.56.05.05,0,0,0,0,0h0a5.92,5.92,0,0,0,2-.73,7.86,7.86,0,0,0,2-1.8,11.61,11.61,0,0,0,1.6-2.71,0,0,0,0,0,0,0l0,0"/><path class="cls-13" d="M74.11,83.75A7.93,7.93,0,0,0,71,86.08a.48.48,0,0,1-.84-.25,11.11,11.11,0,0,0-.7-2.55s0,0,0,0l0,0a12.35,12.35,0,0,0-.51,1.6,7.54,7.54,0,0,0,.2,4.59s0,0,0,0h0A5.65,5.65,0,0,0,71,88.56a7.68,7.68,0,0,0,1.86-2,11.71,11.71,0,0,0,1.3-2.78s0,0,0,0h0"/><path class="cls-13" d="M75.24,78a7.68,7.68,0,0,0-2.79,2.68.46.46,0,0,1-.48.22.48.48,0,0,1-.39-.36,11.1,11.1,0,0,0-1-2.5h0l0,0a10.31,10.31,0,0,0-.32,1.62A7.46,7.46,0,0,0,71,84.29l0,0h0a5.75,5.75,0,0,0,1.73-1.14A7.62,7.62,0,0,0,74.34,81a11.37,11.37,0,0,0,1-2.92.05.05,0,0,0,0,0h0"/><path class="cls-13" d="M73.28,75.21a.5.5,0,0,1-.46.27.49.49,0,0,1-.43-.33,8.4,8.4,0,0,0-1.23-2.27h0s0,0,0,0a9.26,9.26,0,0,0-.18,1.65,7,7,0,0,0,1.29,4.39l0,0h0a5.7,5.7,0,0,0,1.59-1.32,7.71,7.71,0,0,0,1.34-2.35,11.47,11.47,0,0,0,.61-3s0,0,0,0h0a7.65,7.65,0,0,0-2.46,3"/><path class="cls-13" d="M73.07,70a.46.46,0,0,1-.45-.27,10.65,10.65,0,0,0-1.41-2,0,0,0,0,0,0,0,0,0,0,0,0,0,0c-.05,1.41.1,4,1.66,5.81h0A5.78,5.78,0,0,0,74.31,72a7.51,7.51,0,0,0,1.1-2.47,11.32,11.32,0,0,0,.3-3s0,0,0,0h0a7.55,7.55,0,0,0-2.16,3.18.47.47,0,0,1-.43.32"/><path class="cls-13" d="M72.81,64.39a.48.48,0,0,1-.48-.22,10.56,10.56,0,0,0-1.56-1.86h0a.05.05,0,0,0,0,0c.14,1.54.61,4.31,2.16,5.59h0a5.8,5.8,0,0,0,1.33-1.63,7.78,7.78,0,0,0,.85-2.57,11.26,11.26,0,0,0,0-3.07l0,0a0,0,0,0,0,0,0A7.6,7.6,0,0,0,73.2,64a.48.48,0,0,1-.39.36"/><path class="cls-13" d="M72.07,58.94a.47.47,0,0,1-.49-.2,10.09,10.09,0,0,0-1.7-1.83h0s0,0,0,0a12.33,12.33,0,0,0,.29,1.63,7.43,7.43,0,0,0,2.2,3.88h0a5.73,5.73,0,0,0,1.23-1.67,7.46,7.46,0,0,0,.72-2.6,11.53,11.53,0,0,0-.13-3.07l0,0s0,0,0,0a7.55,7.55,0,0,0-1.68,3.47.48.48,0,0,1-.37.37"/><path class="cls-13" d="M70.85,53.56a.49.49,0,0,1-.51-.13,10.27,10.27,0,0,0-2-1.6h0a.06.06,0,0,0,0,0,10.08,10.08,0,0,0,.48,1.56A7.1,7.1,0,0,0,71.58,57h0a6,6,0,0,0,1-1.82A7.32,7.32,0,0,0,73,52.5a11.08,11.08,0,0,0-.56-3,0,0,0,0,0,0,0l0,0a7.67,7.67,0,0,0-1.18,3.66.47.47,0,0,1-.32.42"/><path class="cls-13" d="M68.47,48.22a10.11,10.11,0,0,0-2.12-1.39h0s0,0,0,0a10.53,10.53,0,0,0,.63,1.5,7.19,7.19,0,0,0,3.13,3.28h0l0,0a5.79,5.79,0,0,0,.79-1.91A7.3,7.3,0,0,0,71,47a11,11,0,0,0-.87-3l0,0s0,0,0,0a7.65,7.65,0,0,0-.8,3.76.47.47,0,0,1-.27.45.49.49,0,0,1-.52-.07"/><path class="cls-13" d="M63.71,42.12a0,0,0,0,0,0,0,8.69,8.69,0,0,0,.78,1.48,7,7,0,0,0,3.59,2.92h0a5.86,5.86,0,0,0,.56-2,7.39,7.39,0,0,0-.24-2.69A11.37,11.37,0,0,0,67.24,39l0,0s0,0,0,0a7.6,7.6,0,0,0-.35,3.83.49.49,0,0,1-.23.49.5.5,0,0,1-.54,0,7.62,7.62,0,0,0-2.31-1.2s0,0,0,0"/><path class="cls-13" d="M60.55,37.93v0a12.33,12.33,0,0,0,1.1,1.38,7.23,7.23,0,0,0,3.93,2.3h0a0,0,0,0,0,0,0,5.39,5.39,0,0,0,.24-2A7.8,7.8,0,0,0,65.18,37a11.71,11.71,0,0,0-1.62-2.56h0s0,0,0,0a8.54,8.54,0,0,0,.24,3.79.49.49,0,0,1-.17.53.48.48,0,0,1-.56,0,5.36,5.36,0,0,0-2.43-.83h0"/><path class="cls-13" d="M60,34.53a.48.48,0,0,1-.53.13,7.21,7.21,0,0,0-2.33-.43h-.18l0,0s0,0,0,0a14.34,14.34,0,0,0,1.37,1.24,7,7,0,0,0,4,1.6h.08a0,0,0,0,0,0,0,6.15,6.15,0,0,0-.13-2.1,7.92,7.92,0,0,0-1.09-2.49,11.22,11.22,0,0,0-2-2.27h0s0,0,0,0A7.67,7.67,0,0,0,60,34a.48.48,0,0,1-.07.54"/><path class="cls-13" d="M17.6,103.45h.22a0,0,0,0,0,0,0c.14-2.32-1.36-4.51-2.28-5.61a0,0,0,0,0,0,0s0,0,0,0a8.2,8.2,0,0,0,.16,2.45.48.48,0,0,1-.18.51.48.48,0,0,1-.54,0,7.79,7.79,0,0,0-3.68-1.25s0,0,0,0a0,0,0,0,0,0,0,11.64,11.64,0,0,0,2.12,2.23,7.77,7.77,0,0,0,2.4,1.31,6,6,0,0,0,1.84.3"/><path class="cls-13" d="M14.42,99.15h0a0,0,0,0,0,0,0,7.36,7.36,0,0,0-.81-4.39,10.91,10.91,0,0,0-.84-1.43s0,0,0,0,0,0,0,0a8.46,8.46,0,0,0-.12,2.48.48.48,0,0,1-.25.47.47.47,0,0,1-.53,0,7.64,7.64,0,0,0-3.53-1.61s0,0,0,0a0,0,0,0,0,0,0,11.9,11.9,0,0,0,1.87,2.44,7.74,7.74,0,0,0,2.24,1.54,5.86,5.86,0,0,0,2,.51"/><path class="cls-13" d="M11.46,94.56h0l0,0A7,7,0,0,0,11.25,90a9.35,9.35,0,0,0-.69-1.47s0,0,0,0l0,0A9.68,9.68,0,0,0,10.07,91a.48.48,0,0,1-.82.32A8,8,0,0,0,6.41,89.5l-.48-.16h0a.06.06,0,0,0,0,0A11.13,11.13,0,0,0,7.47,92a7.45,7.45,0,0,0,2,1.79,5.93,5.93,0,0,0,2,.74"/><path class="cls-13" d="M9.07,89.59h0s0,0,0,0a7.45,7.45,0,0,0-.23-6.11s0,0,0,0h0a10.58,10.58,0,0,0-.74,2.48.47.47,0,0,1-.84.22A8,8,0,0,0,4.63,84l-.46-.21h0s0,0,0,0C5.44,88.14,8,89.29,9.07,89.59"/><path class="cls-13" d="M5.48,83.31A5.85,5.85,0,0,0,7.27,84.4h.05a6.42,6.42,0,0,0,.79-4.7,7,7,0,0,0-.51-1.52l0,0s0,0,0,0a9.91,9.91,0,0,0-1,2.5h0a.48.48,0,0,1-.37.37.5.5,0,0,1-.49-.21,7.65,7.65,0,0,0-2.88-2.58,0,0,0,0,0,0,0s0,0,0,0a11.31,11.31,0,0,0,1,2.89,7.47,7.47,0,0,0,1.66,2.14"/><path class="cls-13" d="M5.8,79.13h0a7.39,7.39,0,0,0,1.36-6l0,0h0a9.41,9.41,0,0,0-1.36,2.27.5.5,0,0,1-.44.29h0a.46.46,0,0,1-.43-.28,8,8,0,0,0-2-2.73,3.9,3.9,0,0,0-.4-.31h0s0,0,0,0c.2,4.49,2.4,6.24,3.34,6.79"/><path class="cls-13" d="M5.33,73.69h0A5.66,5.66,0,0,0,7,70.44a8.88,8.88,0,0,0,0-2.79s0,0,0,0H7a4.07,4.07,0,0,0-1.22,2.13.48.48,0,0,1-.93.06,7.82,7.82,0,0,0-1.69-2.91l-.36-.36h0s0,0,0,0c-.28,4.5,1.74,6.47,2.62,7.11"/><path class="cls-13" d="M4,66.3a5.8,5.8,0,0,0,1.31,1.61s0,0,0,0h0a6.81,6.81,0,0,0,2-4,10.32,10.32,0,0,0,.14-1.69s0,0,0,0h0a6.82,6.82,0,0,0-1.49,2,.49.49,0,0,1-.48.27A.48.48,0,0,1,5.07,64a7.6,7.6,0,0,0-1.84-3.38s0,0,0,0,0,0,0,0a11.18,11.18,0,0,0,0,3.06A7.56,7.56,0,0,0,4,66.3"/><path class="cls-13" d="M4.61,60.71a5.62,5.62,0,0,0,1.22,1.65h0A7.65,7.65,0,0,0,8.24,58.3a8.34,8.34,0,0,0,.2-1.49s0,0,0,0h0a9.46,9.46,0,0,0-1.77,1.89.49.49,0,0,1-.49.19.46.46,0,0,1-.37-.37A7.7,7.7,0,0,0,4.08,55h0l0,0a11.09,11.09,0,0,0-.14,3.06,7.53,7.53,0,0,0,.73,2.61"/><path class="cls-13" d="M6.57,56.94h0a6.82,6.82,0,0,0,3-3.76,7.83,7.83,0,0,0,.33-1.51,0,0,0,0,0,0,0h0a8.42,8.42,0,0,0-2,1.7.47.47,0,0,1-.51.14A.45.45,0,0,1,7,53.07a7.59,7.59,0,0,0-1.24-3.65s0,0,0,0l0,0a11.41,11.41,0,0,0-.52,3,7.67,7.67,0,0,0,.4,2.67,5.74,5.74,0,0,0,1,1.81"/><path class="cls-13" d="M8,51.61l0,0H8a7.39,7.39,0,0,0,3.42-3.39,7.12,7.12,0,0,0,.51-1.4s0,0,0,0h0a10.32,10.32,0,0,0-2.25,1.42.45.45,0,0,1-.52.07.47.47,0,0,1-.27-.45,7.54,7.54,0,0,0-.76-3.78s0,0,0,0h0s0,0,0,0A11.46,11.46,0,0,0,7.13,47a7.6,7.6,0,0,0,.06,2.7A5.6,5.6,0,0,0,8,51.61"/><path class="cls-13" d="M10,46.53s0,0,0,0h0a6.88,6.88,0,0,0,3.64-2.73,10.82,10.82,0,0,0,.94-1.56s0,0,0,0h0a4.69,4.69,0,0,0-2.34,1.14.48.48,0,0,1-.8-.43,7.65,7.65,0,0,0-.19-3.85s0,0,0,0l0,0a11.28,11.28,0,0,0-1.33,2.77,7.45,7.45,0,0,0-.35,2.68,5.76,5.76,0,0,0,.48,2"/><path class="cls-13" d="M12.76,41.67h0c2.32-.39,4.11-2.48,5-3.69v0l0,0a5.64,5.64,0,0,0-2.4.84.48.48,0,0,1-.72-.55,7.48,7.48,0,0,0,.28-3.83s0,0,0,0h0c-2.9,3.49-2.43,6.26-2.09,7.28a0,0,0,0,0,0,0"/><path class="cls-13" d="M16,37.15h.17A6.84,6.84,0,0,0,20,35.53a14.56,14.56,0,0,0,1.41-1.24s0,0,0,0l0,0a9,9,0,0,0-2.4.44.48.48,0,0,1-.58-.68,7.52,7.52,0,0,0,.89-3.74,0,0,0,0,0,0,0,0,0,0,0,0,0,0,11.46,11.46,0,0,0-2.05,2.32A7.5,7.5,0,0,0,16.08,35,5.52,5.52,0,0,0,16,37.12a0,0,0,0,0,0,0"/><path class="cls-13" d="M25.64,31a10.75,10.75,0,0,0-2.47.15.47.47,0,0,1-.49-.2.47.47,0,0,1,0-.53,7.46,7.46,0,0,0,1.24-3.63s0,0,0,0h0c-3.68,2.65-3.94,5.43-3.88,6.51a0,0,0,0,0,0,0h.24a9.39,9.39,0,0,0,5.4-2.24s0,0,0,0l0,0"/><path class="cls-13" d="M30.35,28.75a8.9,8.9,0,0,0-1.29-.26,8.35,8.35,0,0,0-1.22-.09h0a.48.48,0,0,1-.31-.84,7.77,7.77,0,0,0,2.16-2.75s0,0,0,0h0c-4.28,1.45-5.22,3.95-5.42,5a.08.08,0,0,0,0,0,6.44,6.44,0,0,0,1.7.22,8.81,8.81,0,0,0,2.89-.52,11.7,11.7,0,0,0,1.52-.64.05.05,0,0,0,0,0s0,0,0,0"/><path class="cls-13" d="M35.47,27.37a10.3,10.3,0,0,0-2.38-.8.48.48,0,0,1-.13-.9,6.49,6.49,0,0,0,2.47-1.88v0s0,0,0,0a8.81,8.81,0,0,0-5,2.14,4.57,4.57,0,0,0-1,1.47s0,0,0,0a6.64,6.64,0,0,0,2.86.59,9.89,9.89,0,0,0,1.65-.15,11.08,11.08,0,0,0,1.58-.4,0,0,0,0,0,0,0s0,0,0,0"/><path class="cls-13" d="M38.81,25.92a.47.47,0,0,1-.31-.46.48.48,0,0,1,.34-.45,8.42,8.42,0,0,0,2.73-1.32s0,0,0,0l0,0a8.79,8.79,0,0,0-5.28,1A4.43,4.43,0,0,0,35,25.89a0,0,0,0,0,0,0,8,8,0,0,0,4.79,1.37c.45,0,.85,0,1.19-.06l0,0s0,0,0,0a8.21,8.21,0,0,0-2.16-1.26"/><path class="cls-13" d="M44.43,26.3a.47.47,0,0,1-.2-.51.49.49,0,0,1,.41-.36,9.69,9.69,0,0,0,2.9-.76s0,0,0,0l0,0a8.74,8.74,0,0,0-5.32,0,4.42,4.42,0,0,0-1.54.93,0,0,0,0,0,0,0,7.58,7.58,0,0,0,5.62,2.56h0s0,0,0,0,0,0,0,0a10.55,10.55,0,0,0-1.9-1.77"/><path class="cls-13" d="M58.39,33.3s0,0,0,0A6.48,6.48,0,0,0,58,30.93a5.92,5.92,0,0,0-3.88-3.45h0s0,0,0,0a9.84,9.84,0,0,0,1.53,2.86.48.48,0,0,1,0,.55.47.47,0,0,1-.52.21,6.74,6.74,0,0,0-2.44,0l0,0a.05.05,0,0,0,0,0c1.22.81,3.5,2.13,5.47,2.13h.25"/><path class="cls-13" d="M54,29.83s0,0,0,0a4.93,4.93,0,0,0-4.06-1.56,7.63,7.63,0,0,0-1.74.33l0,0,0,0a6.55,6.55,0,0,0,4,1.51h.23a5.46,5.46,0,0,0,1.54-.29,0,0,0,0,0,0,0"/><path class="cls-13" d="M46.08,26.38s0,0,0,0a5.14,5.14,0,0,0,3,.86,8.76,8.76,0,0,0,1.57-.15,12.12,12.12,0,0,0,2.12-.62s0,0,0,0,0,0,0,0a7.37,7.37,0,0,0-2.38-.86,6.21,6.21,0,0,0-2.54.08,6.28,6.28,0,0,0-1.76.69s0,0,0,0"/><path class="cls-14" d="M30.08,57.61a1.66,1.66,0,0,0,1.34.48h6.21c-3.73-2.31-5.1-1.89-7.7-.71a2.3,2.3,0,0,0,.15.23"/><path class="cls-14" d="M45.24,54.77a14.79,14.79,0,0,1-1.62-.5A16.78,16.78,0,0,1,40,52.18a.91.91,0,0,1,1.13-1.43,14.86,14.86,0,0,0,3.18,1.83,11.47,11.47,0,0,0,1.41.43,12.45,12.45,0,0,1,2.51.86c-.17-1-.33-1.9-.5-2.74a12.67,12.67,0,0,1-4.65-2.31,1,1,0,0,1-.33-.62.88.88,0,0,1,.21-.66.91.91,0,0,1,1.28-.13,11.23,11.23,0,0,0,3,1.69A34.92,34.92,0,0,0,44.5,42a6.25,6.25,0,0,0-3.68-3.26,6.06,6.06,0,0,0-2.11-.31h-.08a7.16,7.16,0,0,0-4.89,2.26l-.05.05a5.75,5.75,0,0,0-1.42,2.28.88.88,0,0,0,.32,1c.13.07.61.27,1.46-.33l.38-.3a.91.91,0,0,1,1.24.2.9.9,0,0,1-.13,1.24c-.11.1-.24.2-.36.29a13.06,13.06,0,0,0-2,2.16,19.73,19.73,0,0,0-3.38,7.94c0,.08,0,.15,0,.22,2.58-1.11,4.68-1.58,9.28,1.39a8.57,8.57,0,0,0,4.27,1.25h2.1a3.88,3.88,0,0,0,2.73-.79,1.29,1.29,0,0,0,.27-.45c0-1.07-1-1.51-3.19-2.08"/><path class="cls-15" d="M36.3,90.32a1.32,1.32,0,0,0,.53-.72c0-.11-.08-.24-.24-.38A1,1,0,0,0,36,89a3.79,3.79,0,0,0-1.83.9c-.52.36-1.38,1.07-1.31,1.74a.56.56,0,0,0,.24.45,2.6,2.6,0,0,0,1.58.14,4.6,4.6,0,0,1,1.66-1.87"/><path class="cls-15" d="M39.45,91.44s0-.2-.24-.45c0,0-.4-.31-1.3.21a4.16,4.16,0,0,0-1.79,1.6.91.91,0,0,0,.48.27,3.3,3.3,0,0,0,2.1-.74l.06,0c.21-.13.66-.52.69-.84"/><path class="cls-15" d="M29.83,87h-.18a3,3,0,0,0-2.06,1c-.3.4-.2.63-.16.7s.34.29.85.38l.33,0a4,4,0,0,1,1.18-1.74l.37-.35-.26,0h-.07"/><path class="cls-15" d="M30.11,89.91c0,.15.06.55.84.8l.37.1a4.63,4.63,0,0,1,1.9-2.26c.13-.1.28-.2.44-.3a.66.66,0,0,0,0-.15.9.9,0,0,0-.45-.4,1.2,1.2,0,0,0-.52-.12,2.86,2.86,0,0,0-1.78,1c-.6.57-.81.93-.79,1.33"/><path class="cls-15" d="M49.64,88.43a1.55,1.55,0,0,0,1.06-.36,1.29,1.29,0,0,0,.36-.73A18.75,18.75,0,0,0,47,83.58a16.21,16.21,0,0,0-2.8-1.53,4.42,4.42,0,0,0-2.78-.28h0a3.65,3.65,0,0,0-1,.55c-.26.17-.55.36-.89.55a7.87,7.87,0,0,1-3.24,1A2.91,2.91,0,0,1,33.41,83,2,2,0,0,1,33.1,81c.24-.64,1-1,1.9-1.45A9.43,9.43,0,0,0,36.11,79a12,12,0,0,0,1-.78c.34-.28.72-.6,1.35-1a5.09,5.09,0,0,1,.82-.45l-1-.11c-1.5-.13-2.57.41-4.14,1.52-1.35.91-4,1.75-8.13,2.57-3.92.78-9.3,1.57-16,2.34.21.74.43,1.49.66,2.21a45.56,45.56,0,0,0,3.16,7.53c2.38-1.05,8.24-3.69,12.79-6.12A4.42,4.42,0,0,1,30,85.45a3.27,3.27,0,0,1,1.75.68,2.71,2.71,0,0,1,2.13.15,2.32,2.32,0,0,1,1.21,1.22h0a2.48,2.48,0,0,1,2.5.51,2.14,2.14,0,0,1,.78,1.32,2.2,2.2,0,0,1,1.92.52A2.1,2.1,0,0,1,41,91.61a2.12,2.12,0,0,1-.35,1A2.62,2.62,0,0,0,42,92.42a2.74,2.74,0,0,0,.42-.21,7.18,7.18,0,0,0-1.1-1.6.82.82,0,0,1-.2-.58.79.79,0,0,1,.27-.55.8.8,0,0,1,1.13.07,8.82,8.82,0,0,1,1.45,2.2A1.25,1.25,0,0,0,45,91.42a2,2,0,0,0,.36-.5,5.2,5.2,0,0,0-.83-1.18,13.16,13.16,0,0,0-1.81-1.53.77.77,0,0,1-.33-.51.8.8,0,0,1,.13-.6.86.86,0,0,1,.52-.33.77.77,0,0,1,.59.14,14,14,0,0,1,2.11,1.79,7.1,7.1,0,0,1,1.06,1.53,1.62,1.62,0,0,0,1.31-.5,2,2,0,0,0,.24-.37,12.74,12.74,0,0,0-4-3.59A.8.8,0,0,1,44,84.7a.77.77,0,0,1,.45-.4.76.76,0,0,1,.61,0,14,14,0,0,1,4.6,4.09"/><path class="cls-15" d="M39.47,81A4.55,4.55,0,0,1,41,80.23c2.64-.72,5.38,1.06,6.85,2A19.85,19.85,0,0,1,52.06,86l.11.14,0,0h0a8.56,8.56,0,0,0,1.38,1.24A55.77,55.77,0,0,0,64.2,93.05a46.4,46.4,0,0,0,3.31-7.79c.21-.66.41-1.34.6-2A75.15,75.15,0,0,1,56.29,81.3c-3.53-.84-6.12-1.65-6.23-1.69l-1.91-.67a12.15,12.15,0,0,0-4.6-1.09l-.49,0h-.65a5,5,0,0,0-3,.61c-.58.41-1,.7-1.27,1a12.42,12.42,0,0,1-1.18.89,11.76,11.76,0,0,1-1.27.68,8.19,8.19,0,0,0-1.14.63c0,.08,0,.16.14.4s.67.26,1.42.22a6.34,6.34,0,0,0,2.54-.77c.29-.17.55-.34.8-.5"/></svg>