<?xml version="1.0" encoding="utf-8"?>
<!-- Generator: Adobe Illustrator 21.0.2, SVG Export Plug-In . SVG Version: 6.00 Build 0)  -->
<svg version="1.1" id="Layer_1" xmlns="http://www.w3.org/2000/svg" xmlns:xlink="http://www.w3.org/1999/xlink" x="0px" y="0px"
	 viewBox="0 0 178 66.8" style="enable-background:new 0 0 178 66.8;" xml:space="preserve">
<style type="text/css">
	.st0{fill:#FFFFFF;}
</style>
<title>MockUp-LogosPRESIDENCIA-PBA</title>
<path class="st0" d="M47.2,31.9c0-1.2-0.6-2.3-1.6-2.9l0,0c-2.1-1.3-2.8-4.1-1.5-6.3c0.1-0.1,0.1-0.2,0.2-0.3l0,0
	c0.9-1.3,0.8-3-0.3-4.2c-0.7-0.8-5.5-6.9-18.1-14.4c-1.6-1-3.6-0.9-5.1,0.2l-7.6,5.5l0,0c-0.7,0.5-1.6,0.7-2.5,0.7H4.9
	c-1.9,0-3.4,1.5-3.4,3.4c0,0,0,0,0,0v46.2c0,0.8,0.3,1.6,0.8,2.2c0.9,1,1.9,1.8,3.1,2.5c1.6,1,3.7,0.6,4.7-1
	c0.4-0.6,0.5-1.2,0.5-1.8v-9.2c0-1.9,1.5-3.4,3.4-3.4c0,0,0,0,0,0c0.5,0,1,0.1,1.5,0.3l0,0c11.7,4.9,25.2-0.5,30.1-12.2
	c0.6-1.4,1.1-2.9,1.4-4.4C47.1,32.4,47.1,32.1,47.2,31.9"/>
<path class="st0" d="M60.8,35.6c0-0.4,0.3-0.8,0.7-0.8c0,0,0.1,0,0.1,0H66c2.8,0,4.5,1.7,4.5,4.2s-1.7,4.2-4.5,4.2h-3.2
	c-0.1,0-0.1,0-0.1,0.1c0,0,0,0,0,0V48c0.1,0.5-0.3,1-0.8,1s-1-0.3-1-0.8c0-0.1,0-0.1,0-0.2L60.8,35.6z M68.8,39c0-1.5-1-2.5-2.8-2.5
	h-3.2c-0.1,0-0.1,0-0.1,0.1c0,0,0,0,0,0v4.8c0,0.1,0,0.1,0.1,0.1c0,0,0,0,0,0H66C67.8,41.5,68.8,40.5,68.8,39"/>
<path class="st0" d="M72,48.1v-8.3c-0.1-0.5,0.3-0.9,0.8-1c0.5-0.1,0.9,0.3,1,0.8c0,0.1,0,0.1,0,0.2v0.5l0,0c0.5-1,1.5-1.6,2.6-1.5
	c0.5,0,1,0.1,1.5,0.3c0.3,0.1,0.5,0.4,0.5,0.8c0,0.5-0.3,0.9-0.8,0.9c0,0,0,0-0.1,0c-0.2,0-0.3,0-0.4-0.1c-0.4-0.2-0.7-0.2-1.1-0.3
	c-1.5,0-2.1,1.3-2.1,2.9V48c0.1,0.5-0.3,0.9-0.8,1c-0.5,0.1-0.9-0.3-1-0.8C72,48.1,72,48.1,72,48.1"/>
<path class="st0" d="M79.3,46.4c-0.2-0.8-0.3-1.7-0.3-2.5c0-0.9,0.1-1.7,0.3-2.5c0.9-2.2,3.3-3.2,5.5-2.4c1.1,0.4,2,1.3,2.4,2.4
	c0.3,0.8,0.4,1.7,0.3,2.5c0,0.9-0.1,1.7-0.3,2.5c-0.9,2.2-3.3,3.2-5.5,2.4C80.6,48.4,79.8,47.5,79.3,46.4 M85.5,45.9
	c0.2-0.7,0.3-1.3,0.2-2c0-0.7,0-1.3-0.2-2c-0.5-1.2-1.8-1.9-3.1-1.4c-0.7,0.2-1.2,0.8-1.4,1.4c-0.2,0.6-0.3,1.3-0.2,2
	c0,0.7,0,1.3,0.2,2c0.5,1.2,1.8,1.9,3.1,1.4C84.8,47.1,85.3,46.6,85.5,45.9"/>
<path class="st0" d="M91.5,47.9l-3-7.8c-0.1-0.1-0.1-0.3-0.1-0.4c0-0.4,0.3-0.8,0.8-0.8c0,0,0,0,0.1,0c0.4,0,0.7,0.3,0.8,0.6
	l2.6,6.9l0,0l2.5-6.9c0.1-0.4,0.4-0.6,0.8-0.6c0.4,0,0.8,0.3,0.8,0.8c0,0,0,0,0,0.1c0,0.2,0,0.3-0.1,0.4l-3,7.8
	c-0.3,0.8-0.6,1.1-1.2,1.1S91.8,48.7,91.5,47.9"/>
<path class="st0" d="M98.3,35.8c0-0.6,0.5-1.1,1.2-1.1s1.2,0.5,1.2,1.2c0,0.6-0.5,1.1-1.2,1.1C98.8,36.9,98.3,36.4,98.3,35.8
	 M98.6,39.8c-0.1-0.5,0.3-0.9,0.8-1c0.5-0.1,0.9,0.3,1,0.8c0,0.1,0,0.1,0,0.2v8.3c0.1,0.5-0.3,0.9-0.8,1c-0.5,0.1-0.9-0.3-1-0.8
	c0-0.1,0-0.1,0-0.2V39.8z"/>
<path class="st0" d="M102.9,39.8c-0.1-0.5,0.3-0.9,0.8-1c0.5-0.1,0.9,0.3,1,0.8c0,0.1,0,0.1,0,0.2V40l0,0c0.6-0.9,1.7-1.4,2.8-1.4
	c2.2,0,3.5,1.5,3.5,3.8V48c0.1,0.5-0.3,0.9-0.8,1c-0.5,0.1-0.9-0.3-1-0.8c0-0.1,0-0.1,0-0.2v-5.1c0-1.6-0.7-2.5-2.2-2.5
	c-1.2,0-2.3,0.9-2.3,2.2c0,0.1,0,0.2,0,0.3v5.3c0.1,0.5-0.3,0.9-0.8,1c-0.5,0.1-0.9-0.3-1-0.8c0-0.1,0-0.1,0-0.2L102.9,39.8z"/>
<path class="st0" d="M113.2,46.4c-0.2-0.8-0.3-1.7-0.3-2.5c0-0.9,0.1-1.7,0.3-2.5c0.8-2.2,3.3-3.3,5.5-2.4c0.6,0.3,1.2,0.7,1.7,1.2
	c0.2,0.2,0.2,0.4,0.3,0.6c0,0.4-0.3,0.8-0.7,0.8c0,0,0,0,0,0c-0.3,0-0.6-0.2-0.8-0.4c-0.5-0.6-1.2-0.9-1.9-0.8
	c-1-0.1-1.9,0.6-2.2,1.6c-0.2,0.7-0.3,1.3-0.2,2c0,0.7,0.1,1.3,0.2,2c0.3,1,1.2,1.6,2.2,1.6c0.7,0,1.4-0.3,1.9-0.8
	c0.2-0.2,0.5-0.4,0.8-0.4c0.4,0,0.8,0.3,0.8,0.7c0,0,0,0,0,0c0,0.2-0.1,0.5-0.3,0.7c-0.8,1-2,1.5-3.2,1.5
	C115.4,49.2,113.7,48.1,113.2,46.4"/>
<path class="st0" d="M122.3,35.8c0-0.6,0.5-1.1,1.2-1.1s1.2,0.5,1.2,1.2c0,0.6-0.5,1.1-1.2,1.1C122.9,36.9,122.3,36.4,122.3,35.8
	 M122.6,39.8c-0.1-0.5,0.3-0.9,0.8-1c0.5-0.1,0.9,0.3,1,0.8c0,0.1,0,0.1,0,0.2v8.3c0.1,0.5-0.3,0.9-0.8,1c-0.5,0.1-0.9-0.3-1-0.8
	c0-0.1,0-0.1,0-0.2V39.8z"/>
<path class="st0" d="M135,48.2c0,0.5-0.4,0.8-0.8,0.8c0,0,0,0,0,0c-0.3,0-0.6-0.2-0.8-0.4l-0.4-0.6l0,0c-0.8,0.8-1.9,1.3-3.1,1.2
	c-2.2,0-3.5-1.1-3.5-3c0-2.1,1.4-3.1,3.9-3.1h2.3c0.1,0,0.1,0,0.1-0.1c0,0,0,0,0,0v-0.5c0-1.4-0.6-2.2-2.4-2.2c-0.7,0-1.4,0.2-2,0.5
	c-0.2,0.1-0.3,0.1-0.5,0.2c-0.4,0-0.7-0.3-0.8-0.6c0,0,0-0.1,0-0.1c0-0.3,0.2-0.6,0.4-0.7c0.9-0.5,1.9-0.8,3-0.8
	c2.7,0,3.9,1.3,3.9,3.7V46c0,0.3,0,0.7,0.2,1l0.4,0.7C135,47.8,135,48,135,48.2 M132.7,45.7v-1.1c0-0.1,0-0.1-0.1-0.1c0,0,0,0,0,0
	h-2c-1.7,0-2.5,0.5-2.5,1.6s0.8,1.6,2.1,1.6C131.7,47.6,132.7,46.9,132.7,45.7"/>
<path class="st0" d="M60.8,17.9c-0.1-0.7,0.5-1.3,1.2-1.4c0.1,0,0.1,0,0.2,0h4.4c3.1,0,4.5,1.5,4.5,3.8c0.1,1.2-0.6,2.4-1.6,3l0,0
	c1.2,0.6,2,1.9,1.9,3.2c0,2.8-1.8,4.1-4.9,4.1h-4.2c-0.7,0.1-1.3-0.5-1.3-1.1c0-0.1,0-0.1,0-0.2L60.8,17.9z M66.2,22.4
	c1.2,0,1.9-0.6,1.9-1.7s-0.7-1.6-1.9-1.6H64c-0.1,0-0.1,0-0.1,0.1c0,0,0,0,0,0v3.1c0,0.1,0,0.1,0.1,0.1L66.2,22.4z M64,28.3h2.3
	c1,0.1,1.9-0.6,2-1.6c0.1-1-0.6-1.9-1.6-2c-0.1,0-0.3,0-0.4,0H64c-0.1,0-0.1,0-0.1,0.1c0,0,0,0,0,0v3.3C63.9,28.2,63.9,28.3,64,28.3
	C64,28.3,64,28.3,64,28.3"/>
<path class="st0" d="M78.9,29.8L78.9,29.8c-0.7,0.8-1.7,1.3-2.7,1.2c-2.2,0-3.4-1.6-3.4-3.8v-5.2c-0.1-0.8,0.5-1.5,1.3-1.5
	c0.1,0,0.1,0,0.2,0c0.8,0,1.4,0.6,1.4,1.4c0,0.1,0,0.1,0,0.2v4.6c0,1.1,0.5,1.8,1.5,1.8s1.5-0.7,1.5-1.8v-4.6c0-0.8,0.7-1.5,1.5-1.5
	c0.8,0,1.5,0.7,1.5,1.5c0,0,0,0,0,0v7.3c0.1,0.8-0.5,1.5-1.3,1.5c-0.1,0-0.1,0-0.2,0C79.7,30.9,79.1,30.5,78.9,29.8"/>
<path class="st0" d="M83.7,28.1c-0.2-0.8-0.4-1.6-0.3-2.4c0-0.8,0.1-1.6,0.3-2.4c0.6-1.8,2.4-3,4.3-2.9c1.9-0.2,3.7,1,4.3,2.8
	c0.2,0.8,0.4,1.6,0.3,2.4c0.1,0.5-0.3,0.9-0.8,1c-0.1,0-0.1,0-0.2,0h-5.3c-0.1,0-0.1,0-0.1,0.1c0,0,0,0,0,0c0,0.2,0,0.4,0.1,0.6
	c0.3,0.9,1.2,1.4,2.1,1.3c0.7,0,1.3-0.2,1.9-0.5c0.3-0.2,0.6-0.3,1-0.3c0.6,0,1,0.4,1.1,0.9c0,0,0,0.1,0,0.1c0,0.4-0.2,0.8-0.6,1
	c-1.1,0.8-2.3,1.1-3.6,1.1C85.9,31,84.3,29.9,83.7,28.1 M89.7,24.7c0.1,0,0.1,0,0.1-0.1c0,0,0,0,0,0c0-0.3,0-0.5-0.1-0.8
	c-0.2-0.7-0.9-1.2-1.7-1.1c-0.7-0.1-1.4,0.4-1.7,1.1c-0.1,0.2-0.1,0.5-0.1,0.8c0,0.1,0,0.1,0.1,0.1c0,0,0,0,0,0H89.7z"/>
<path class="st0" d="M100.3,29.3v-4.6c0-1.1-0.5-1.8-1.6-1.8s-1.6,0.7-1.6,1.8v4.6c0.1,0.8-0.5,1.5-1.3,1.6s-1.5-0.5-1.6-1.3
	c0-0.1,0-0.2,0-0.2v-7.2c-0.1-0.8,0.5-1.5,1.3-1.5c0.1,0,0.1,0,0.2,0c0.7,0,1.3,0.4,1.4,1.1l0,0c0.7-0.8,1.6-1.2,2.7-1.2
	c2.2,0,3.4,1.6,3.4,3.8v5.1c0,0.8-0.7,1.5-1.5,1.5C100.9,30.8,100.3,30.1,100.3,29.3C100.3,29.3,100.3,29.3,100.3,29.3"/>
<path class="st0" d="M105.1,28.1c-0.2-0.8-0.4-1.6-0.3-2.4c0-0.8,0.1-1.6,0.3-2.4c1-2.4,3.8-3.5,6.2-2.5c1.1,0.5,2,1.4,2.5,2.5
	c0.2,0.8,0.4,1.6,0.3,2.4c0,0.8-0.1,1.6-0.3,2.4c-1,2.4-3.8,3.5-6.2,2.5C106.4,30.1,105.6,29.2,105.1,28.1 M111,27.4
	c0.1-0.5,0.2-1.1,0.2-1.7c0-0.6,0-1.1-0.2-1.7c-0.3-0.9-1.2-1.3-2.1-1c-0.5,0.2-0.9,0.5-1,1c-0.2,0.6-0.2,1.1-0.2,1.7
	c0,0.6,0,1.1,0.2,1.7c0.3,0.9,1.2,1.3,2.1,1C110.5,28.2,110.8,27.8,111,27.4"/>
<path class="st0" d="M116,30c-0.4-0.2-0.7-0.7-0.7-1.2c0-0.7,0.5-1.2,1.2-1.2c0,0,0,0,0,0c0.3,0,0.6,0.1,0.9,0.3
	c0.7,0.5,1.6,0.7,2.5,0.7c1.1,0,1.6-0.4,1.6-0.9s-0.3-0.7-1.5-0.9l-1.1-0.1c-2.2-0.3-3.3-1.3-3.3-3.1c0-2,1.5-3.3,4.2-3.3
	c1.1,0,2.1,0.2,3.1,0.7c0.5,0.2,0.8,0.6,0.8,1.1c0,0.6-0.5,1.1-1.1,1.1c0,0,0,0-0.1,0c-0.3,0-0.6-0.1-0.8-0.3
	c-0.6-0.3-1.3-0.4-2-0.4c-0.9,0-1.3,0.3-1.3,0.8s0.3,0.7,1.4,0.8l1.1,0.1c2.4,0.3,3.3,1.4,3.3,3.1c0,2.1-1.6,3.5-4.5,3.5
	C118.4,31,117.1,30.7,116,30"/>
<path class="st0" d="M129.9,28.8l3.8-10.6c0.4-1.1,1-1.8,2.1-1.8s1.7,0.7,2.1,1.8l3.8,10.6c0.1,0.2,0.1,0.4,0.1,0.6
	c0,0.8-0.6,1.4-1.4,1.4c0,0,0,0-0.1,0c-0.7,0-1.3-0.4-1.4-1.1l-0.6-1.7h-5l-0.6,1.7c-0.2,0.6-0.8,1.1-1.4,1.1
	c-0.8,0-1.5-0.6-1.5-1.4c0,0,0,0,0-0.1C129.8,29.2,129.9,29,129.9,28.8 M137.5,25.5l-1.6-5h-0.1l-1.6,5H137.5z"/>
<path class="st0" d="M143,18c0-0.9,0.7-1.6,1.6-1.6s1.7,0.7,1.7,1.6c0,0.9-0.7,1.6-1.7,1.6l0,0C143.7,19.7,143,18.9,143,18
	C143,18,143,18,143,18 M143.2,29.3v-7.3c-0.1-0.8,0.5-1.5,1.3-1.6c0.8-0.1,1.5,0.5,1.6,1.3c0,0.1,0,0.2,0,0.2v7.3
	c0.1,0.8-0.5,1.5-1.3,1.6c-0.8,0.1-1.5-0.5-1.6-1.3C143.2,29.5,143.2,29.4,143.2,29.3"/>
<path class="st0" d="M148.2,29.3v-7.2c-0.1-0.8,0.5-1.5,1.3-1.5c0.1,0,0.1,0,0.2,0c0.7,0,1.3,0.4,1.4,1.1l0,0l0,0
	c0.6-0.8,1.5-1.3,2.5-1.3c0.4,0,0.7,0.1,1.1,0.2c0.5,0.2,0.8,0.7,0.8,1.2c0.1,0.8-0.5,1.4-1.3,1.5c0,0-0.1,0-0.1,0
	c-0.2,0-0.4,0-0.6-0.1c-0.2-0.1-0.5-0.1-0.8-0.1c-1.1,0-1.5,0.8-1.5,2.1v4.1c0,0.8-0.7,1.5-1.5,1.5
	C148.8,30.8,148.2,30.1,148.2,29.3C148.2,29.3,148.2,29.3,148.2,29.3"/>
<path class="st0" d="M156,28.1c-0.2-0.8-0.4-1.6-0.3-2.4c0-0.8,0.1-1.6,0.3-2.4c0.6-1.8,2.4-3,4.4-2.9c1.9-0.2,3.7,1,4.4,2.8
	c0.2,0.8,0.3,1.6,0.3,2.4c0.1,0.5-0.3,0.9-0.8,1c-0.1,0-0.2,0-0.2,0h-5.3c-0.1,0-0.1,0-0.1,0.1c0,0,0,0,0,0c0,0.2,0,0.4,0.1,0.6
	c0.3,0.9,1.2,1.4,2.1,1.3c0.7,0,1.3-0.2,1.9-0.5c0.3-0.2,0.6-0.3,1-0.3c0.6,0,1,0.4,1.1,0.9c0,0,0,0.1,0,0.1c0,0.4-0.2,0.8-0.6,1
	c-1.1,0.8-2.3,1.1-3.6,1.1C158.2,31,156.6,29.9,156,28.1 M162,24.7c0.1,0,0.1,0,0.1-0.1c0,0,0,0,0,0c0-0.3,0-0.5-0.1-0.8
	c-0.2-0.7-0.9-1.2-1.7-1.1c-0.7-0.1-1.4,0.4-1.7,1.1c-0.1,0.2-0.1,0.5-0.1,0.8c0,0.1,0,0.1,0.1,0.1c0,0,0,0,0,0H162z"/>
<path class="st0" d="M166.8,30c-0.4-0.2-0.7-0.7-0.7-1.2c0-0.7,0.5-1.2,1.2-1.2c0.3,0,0.6,0.1,0.9,0.3c0.7,0.5,1.6,0.7,2.5,0.7
	c1.1,0,1.6-0.4,1.6-0.9s-0.3-0.7-1.5-0.9l-1.1-0.1c-2.2-0.3-3.3-1.3-3.3-3.1c0-2,1.5-3.3,4.2-3.3c1.1,0,2.1,0.2,3.1,0.7
	c0.5,0.2,0.8,0.6,0.9,1.1c0,0.6-0.5,1.1-1.1,1.1c0,0,0,0-0.1,0c-0.3,0-0.6-0.1-0.8-0.3c-0.6-0.3-1.3-0.4-2-0.4
	c-0.9,0-1.3,0.3-1.3,0.8s0.3,0.7,1.4,0.8l1.1,0.1c2.4,0.3,3.4,1.4,3.4,3.1c0,2.1-1.6,3.5-4.5,3.5C169.2,31,167.9,30.6,166.8,30"/>
</svg>
