<?xml version="1.0" encoding="utf-8"?>
<!-- Generator: Adobe Illustrator 24.2.1, SVG Export Plug-In . SVG Version: 6.00 Build 0)  -->
<svg version="1.1" id="Capa_1" xmlns="http://www.w3.org/2000/svg" xmlns:xlink="http://www.w3.org/1999/xlink" x="0px" y="0px"
	 viewBox="0 0 207.9 82" style="enable-background:new 0 0 207.9 82;" xml:space="preserve">
<style type="text/css">
	.st0{fill:#FFFFFF;}
</style>
<g>
	<g>
		<g>
			<g>
				<g>
					<path class="st0" d="M55,63.8l-1.2-3.7c0-0.1-0.2-0.2-0.3-0.2h-5.1c-0.1,0-0.3,0.1-0.3,0.2l-1.2,3.7c0,0.1-0.2,0.2-0.3,0.2
						h-1.9c-0.2,0-0.4-0.2-0.3-0.4L49,50c0-0.1,0.2-0.2,0.3-0.2h3.3c0.1,0,0.2,0.1,0.3,0.2l4.6,13.6c0.1,0.2-0.1,0.4-0.3,0.4h-1.9
						C55.1,64,55,64,55,63.8z M49.2,57.9h3.4c0.2,0,0.4-0.2,0.3-0.4l-1.7-5.2c-0.1-0.3-0.5-0.3-0.6,0l-1.7,5.2
						C48.9,57.7,49,57.9,49.2,57.9z"/>
					<path class="st0" d="M59.3,53.5h1.5c0.2,0,0.3,0.1,0.3,0.3l0.2,1.1h0.1c0.3-0.5,0.7-0.9,1.2-1.1c0.5-0.3,1.1-0.4,1.7-0.4
						c0.2,0,0.4,0,0.6,0c0.2,0,0.3,0.2,0.3,0.3v1.7c0,0.2-0.2,0.3-0.3,0.3c-0.2,0-0.4,0-0.7,0c-0.5,0-1,0.1-1.5,0.3
						c-0.4,0.2-0.8,0.5-1.1,0.8c0,0.1-0.1,0.1-0.1,0.2v6.7c0,0.2-0.1,0.3-0.3,0.3h-1.9c-0.2,0-0.3-0.1-0.3-0.3v-9.9
						C59,53.7,59.2,53.5,59.3,53.5z"/>
					<path class="st0" d="M68.2,68.4c-0.5-0.1-1-0.2-1.4-0.3c-0.1,0-0.2-0.2-0.2-0.3v-1.4c0-0.2,0.2-0.3,0.4-0.3
						c1,0.3,1.9,0.4,2.8,0.4c0.7,0,1.3-0.1,1.8-0.3c0.4-0.2,0.8-0.5,1-0.9c0.2-0.4,0.3-0.9,0.3-1.6v-0.8h-0.1
						c-0.3,0.4-0.7,0.7-1.2,0.9c-0.5,0.2-1,0.3-1.6,0.3c-0.8,0-1.4-0.2-2-0.5c-0.6-0.4-1.1-0.9-1.5-1.7c-0.4-0.8-0.5-1.7-0.5-2.9
						c0-1.8,0.5-3.2,1.4-4.2c1-0.9,2.4-1.4,4.3-1.4c0.6,0,1.3,0,2,0.1c0.6,0.1,1.1,0.2,1.6,0.3c0.1,0,0.2,0.2,0.2,0.3v9.1
						c0,1.2-0.2,2.2-0.6,3c-0.4,0.8-1,1.3-1.8,1.7c-0.8,0.4-1.8,0.5-3,0.5C69.4,68.5,68.8,68.4,68.2,68.4z M71.9,61.8
						c0.3-0.1,0.6-0.3,0.8-0.5c0.1-0.1,0.1-0.1,0.1-0.2v-5.3c0-0.1-0.1-0.3-0.3-0.3c-0.4-0.1-0.8-0.1-1.2-0.1c-1,0-1.7,0.3-2.2,0.8
						c-0.5,0.6-0.7,1.4-0.7,2.6c0,1.2,0.2,2,0.6,2.5c0.4,0.5,1,0.7,1.8,0.7C71.2,62.1,71.6,62,71.9,61.8z"/>
					<path class="st0" d="M86.1,59.5h-5.9c-0.2,0-0.3,0.2-0.3,0.3c0.1,0.5,0.2,0.9,0.4,1.3c0.2,0.4,0.6,0.7,1,0.9
						c0.5,0.2,1.1,0.3,1.9,0.3c0.7,0,1.4-0.1,2.3-0.3c0.2,0,0.4,0.1,0.4,0.3v1.3c0,0.1-0.1,0.3-0.2,0.3c-0.9,0.2-1.8,0.3-2.7,0.3
						c-1.3,0-2.3-0.2-3.1-0.6c-0.8-0.4-1.4-1-1.8-1.8c-0.4-0.8-0.6-1.8-0.6-3.1c0-1.2,0.2-2.2,0.5-3c0.4-0.8,0.9-1.4,1.6-1.8
						c0.7-0.4,1.5-0.6,2.5-0.6c1.4,0,2.5,0.5,3.3,1.4c0.7,0.9,1.1,2.3,1.1,4.1v0.4C86.4,59.4,86.2,59.5,86.1,59.5z M80.4,55.7
						c-0.3,0.4-0.5,1.1-0.5,2c0,0.2,0.1,0.3,0.3,0.3h3.5c0.2,0,0.3-0.1,0.3-0.3c0-0.9-0.2-1.6-0.5-2C83.1,55.2,82.6,55,82,55
						C81.3,55,80.8,55.2,80.4,55.7z"/>
					<path class="st0" d="M88.6,53.5h1.5c0.2,0,0.3,0.1,0.3,0.3l0.1,0.8h0.1c0.4-0.4,0.9-0.7,1.4-0.9c0.5-0.2,1.1-0.3,1.7-0.3
						c1.1,0,1.9,0.3,2.6,1c0.6,0.6,0.9,1.6,0.9,3v6.4c0,0.2-0.1,0.3-0.3,0.3h-1.9c-0.2,0-0.3-0.1-0.3-0.3v-6.2
						c0-0.7-0.1-1.2-0.4-1.5c-0.3-0.3-0.7-0.4-1.3-0.4c-0.4,0-0.8,0.1-1.3,0.3c-0.4,0.2-0.7,0.4-1,0.7c0,0.1-0.1,0.1-0.1,0.2v7
						c0,0.2-0.1,0.3-0.3,0.3h-1.9c-0.2,0-0.3-0.1-0.3-0.3v-9.9C88.3,53.7,88.4,53.5,88.6,53.5z"/>
					<path class="st0" d="M106,62.4v1.4c0,0.1-0.1,0.3-0.2,0.3c-0.5,0.1-1.1,0.2-1.6,0.2c-2.5,0-3.7-1.3-3.7-3.8v-4.6
						c0-0.2-0.1-0.3-0.3-0.3h-1.2c-0.2,0-0.3-0.1-0.3-0.3v-1.4c0-0.2,0.1-0.3,0.3-0.3h1.2c0.2,0,0.3-0.1,0.3-0.3l0.4-3.2
						c0-0.2,0.1-0.3,0.3-0.3h1.5c0.2,0,0.3,0.1,0.3,0.3v3.1c0,0.2,0.1,0.3,0.3,0.3h2.3c0.2,0,0.3,0.1,0.3,0.3v1.4
						c0,0.2-0.1,0.3-0.3,0.3h-2.3c-0.2,0-0.3,0.1-0.3,0.3v4.2c0,0.5,0.1,0.9,0.2,1.2c0.1,0.3,0.3,0.5,0.6,0.6
						c0.3,0.1,0.6,0.2,1.1,0.2c0.2,0,0.5,0,0.8-0.1C105.8,62,106,62.2,106,62.4z"/>
					<path class="st0" d="M107.8,51.4c-0.3-0.2-0.4-0.6-0.4-1c0-0.4,0.1-0.8,0.4-1c0.3-0.2,0.7-0.4,1.2-0.4s0.9,0.1,1.2,0.4
						c0.3,0.2,0.4,0.6,0.4,1c0,0.4-0.1,0.8-0.4,1c-0.3,0.2-0.7,0.4-1.2,0.4S108.1,51.6,107.8,51.4z M107.8,63.7v-9.9
						c0-0.2,0.1-0.3,0.3-0.3h1.9c0.2,0,0.3,0.1,0.3,0.3v9.9c0,0.2-0.1,0.3-0.3,0.3h-1.9C107.9,64,107.8,63.9,107.8,63.7z"/>
					<path class="st0" d="M112.7,53.5h1.5c0.2,0,0.3,0.1,0.3,0.3l0.1,0.8h0.1c0.4-0.4,0.9-0.7,1.4-0.9c0.5-0.2,1.1-0.3,1.7-0.3
						c1.1,0,1.9,0.3,2.6,1c0.6,0.6,0.9,1.6,0.9,3v6.4c0,0.2-0.1,0.3-0.3,0.3h-1.9c-0.2,0-0.3-0.1-0.3-0.3v-6.2
						c0-0.7-0.1-1.2-0.4-1.5c-0.3-0.3-0.7-0.4-1.3-0.4c-0.4,0-0.8,0.1-1.3,0.3c-0.4,0.2-0.7,0.4-1,0.7c0,0.1-0.1,0.1-0.1,0.2v7
						c0,0.2-0.1,0.3-0.3,0.3h-1.9c-0.2,0-0.3-0.1-0.3-0.3v-9.9C112.4,53.7,112.5,53.5,112.7,53.5z"/>
					<path class="st0" d="M129.9,53.8c0.7,0.3,1.2,0.7,1.5,1.3c0.3,0.6,0.5,1.4,0.5,2.5v6.2c0,0.2-0.1,0.3-0.3,0.3h-1.5
						c-0.2,0-0.3-0.1-0.3-0.3l-0.1-0.8h-0.1c-0.3,0.4-0.7,0.7-1.2,0.9c-0.5,0.2-1,0.3-1.7,0.3c-0.7,0-1.3-0.1-1.8-0.4
						c-0.5-0.2-0.9-0.6-1.2-1c-0.3-0.4-0.4-1-0.4-1.6c0-1,0.3-1.7,1-2.3c0.7-0.5,1.7-0.9,3.2-1l2-0.2v-0.4c0-0.5-0.1-1-0.3-1.3
						c-0.2-0.3-0.4-0.5-0.8-0.6c-0.4-0.1-0.8-0.2-1.5-0.2c-0.4,0-0.9,0-1.4,0.1c-0.4,0.1-0.7,0.1-1.1,0.2c-0.2,0.1-0.4-0.1-0.4-0.3
						v-1.3c0-0.1,0.1-0.3,0.2-0.3c0.4-0.1,0.9-0.2,1.4-0.3c0.6-0.1,1.1-0.1,1.7-0.1C128.4,53.4,129.3,53.5,129.9,53.8z M128.5,62.2
						c0.3-0.1,0.6-0.3,0.9-0.6c0.1-0.1,0.1-0.1,0.1-0.2v-1.8c0-0.2-0.2-0.3-0.3-0.3l-1.4,0.1c-0.7,0.1-1.1,0.2-1.4,0.5
						c-0.3,0.3-0.5,0.6-0.5,1.1c0,0.5,0.1,0.8,0.4,1.1c0.3,0.2,0.7,0.4,1.2,0.4C127.8,62.4,128.1,62.4,128.5,62.2z"/>
				</g>
				<g>
					<path class="st0" d="M138.9,55.4c0.9-0.2,1.7-0.3,2.5-0.3c1.3,0,2.2,0.3,2.9,0.8c0.6,0.5,0.9,1.3,0.9,2.4c0,1-0.3,1.8-0.9,2.3
						c-0.6,0.5-1.6,0.8-2.8,0.8c-0.2,0-0.5,0-1,0V64h-1.6V55.4z M143.2,59.7c0.4-0.3,0.5-0.8,0.5-1.4c0-0.7-0.2-1.2-0.5-1.5
						c-0.3-0.3-0.9-0.5-1.6-0.5c-0.4,0-0.7,0-1.1,0.1v3.7c0.3,0,0.6,0.1,1,0.1C142.2,60.1,142.8,60,143.2,59.7z"/>
					<path class="st0" d="M146.7,57.5h1.3l0.1,0.8h0.1c0.2-0.3,0.4-0.5,0.8-0.7c0.3-0.2,0.7-0.2,1-0.2c0.2,0,0.3,0,0.5,0v1.4
						c-0.2,0-0.4,0-0.6,0c-0.3,0-0.6,0.1-0.9,0.2c-0.3,0.1-0.5,0.3-0.7,0.5V64h-1.6V57.5z"/>
					<path class="st0" d="M156.7,61.3h-4c0,0.4,0.1,0.8,0.2,1c0.1,0.2,0.4,0.4,0.6,0.5s0.7,0.2,1.2,0.2c0.5,0,1-0.1,1.6-0.2v1.2
						c-0.6,0.2-1.2,0.2-1.8,0.2c-0.8,0-1.4-0.1-1.9-0.4c-0.5-0.2-0.9-0.6-1.1-1.1c-0.2-0.5-0.4-1.1-0.4-1.9c0-0.7,0.1-1.3,0.3-1.8
						c0.2-0.5,0.6-0.9,1-1.1c0.4-0.3,0.9-0.4,1.6-0.4c0.9,0,1.6,0.3,2,0.9c0.5,0.6,0.7,1.4,0.7,2.5V61.3z M153,58.9
						c-0.2,0.3-0.3,0.8-0.3,1.4h2.6c0-0.7-0.1-1.1-0.3-1.4c-0.2-0.3-0.5-0.4-0.9-0.4C153.5,58.5,153.2,58.6,153,58.9z"/>
					<path class="st0" d="M157.8,63.9v-1.2c0.6,0.2,1.3,0.3,2,0.3c0.5,0,0.8-0.1,1-0.2c0.2-0.1,0.3-0.3,0.3-0.6
						c0-0.2-0.1-0.4-0.2-0.5c-0.1-0.1-0.3-0.2-0.6-0.2l-1-0.2c-0.6-0.1-1-0.3-1.3-0.6c-0.3-0.3-0.4-0.7-0.4-1.2
						c0-0.4,0.1-0.8,0.3-1.1c0.2-0.3,0.5-0.5,1-0.7c0.4-0.2,1-0.2,1.6-0.2c0.6,0,1.2,0.1,1.7,0.2v1.2c-0.5-0.1-1.1-0.2-1.6-0.2
						c-1,0-1.5,0.3-1.5,0.8c0,0.2,0.1,0.3,0.2,0.5c0.1,0.1,0.3,0.2,0.6,0.3l1,0.2c0.6,0.1,1,0.3,1.3,0.6c0.3,0.3,0.4,0.7,0.4,1.2
						c0,0.4-0.1,0.8-0.3,1.1c-0.2,0.3-0.5,0.5-0.9,0.7c-0.4,0.2-0.9,0.2-1.5,0.2C159.1,64.2,158.4,64.1,157.8,63.9z"/>
					<path class="st0" d="M163.9,56.2c-0.2-0.1-0.2-0.4-0.2-0.6c0-0.3,0.1-0.5,0.2-0.6c0.2-0.1,0.4-0.2,0.7-0.2
						c0.3,0,0.6,0.1,0.7,0.2c0.2,0.1,0.2,0.4,0.2,0.6c0,0.3-0.1,0.5-0.2,0.6c-0.2,0.1-0.4,0.2-0.7,0.2
						C164.3,56.4,164.1,56.4,163.9,56.2z M163.9,64v-6.5h1.6V64H163.9z"/>
					<path class="st0" d="M168.2,63.8c-0.4-0.2-0.7-0.6-0.9-1.1c-0.2-0.5-0.3-1.1-0.3-1.8c0-1.1,0.3-2,0.9-2.6
						c0.6-0.6,1.4-0.9,2.6-0.9c0.3,0,0.6,0,0.9,0.1v-3.1h1.6V64h-1.3l-0.1-0.7h-0.1c-0.2,0.2-0.4,0.4-0.7,0.6
						c-0.3,0.1-0.6,0.2-1,0.2C169,64.2,168.6,64,168.2,63.8z M170.6,62.7c0.2-0.1,0.4-0.2,0.6-0.4v-3.6c-0.3-0.1-0.6-0.1-0.9-0.1
						c-0.6,0-1.1,0.2-1.4,0.5c-0.3,0.3-0.5,0.9-0.5,1.6c0,0.8,0.1,1.3,0.4,1.6c0.3,0.3,0.6,0.5,1.1,0.5
						C170.2,62.9,170.4,62.8,170.6,62.7z"/>
					<path class="st0" d="M179.8,61.3h-4c0,0.4,0.1,0.8,0.2,1c0.1,0.2,0.4,0.4,0.6,0.5c0.3,0.1,0.7,0.2,1.2,0.2c0.5,0,1-0.1,1.6-0.2
						v1.2c-0.6,0.2-1.2,0.2-1.8,0.2c-0.8,0-1.4-0.1-1.9-0.4c-0.5-0.2-0.9-0.6-1.1-1.1c-0.2-0.5-0.4-1.1-0.4-1.9
						c0-0.7,0.1-1.3,0.3-1.8s0.6-0.9,1-1.1c0.4-0.3,0.9-0.4,1.6-0.4c0.9,0,1.6,0.3,2,0.9c0.5,0.6,0.7,1.4,0.7,2.5V61.3z M176.1,58.9
						c-0.2,0.3-0.3,0.8-0.3,1.4h2.6c0-0.7-0.1-1.1-0.3-1.4c-0.2-0.3-0.5-0.4-0.9-0.4C176.6,58.5,176.3,58.6,176.1,58.9z"/>
					<path class="st0" d="M181.1,57.5h1.3l0.1,0.7h0.1c0.2-0.3,0.5-0.4,0.9-0.6c0.3-0.1,0.7-0.2,1.1-0.2c0.7,0,1.2,0.2,1.6,0.6
						c0.4,0.4,0.6,1,0.6,1.9V64h-1.6v-4c0-0.4-0.1-0.7-0.3-0.9c-0.2-0.2-0.4-0.3-0.8-0.3c-0.3,0-0.5,0.1-0.8,0.2
						c-0.3,0.1-0.5,0.3-0.6,0.5V64h-1.6V57.5z"/>
					<path class="st0" d="M188.9,63.3c-0.5-0.6-0.8-1.4-0.8-2.5c0-1.1,0.3-2,0.9-2.5c0.6-0.5,1.4-0.8,2.5-0.8c0.5,0,1,0.1,1.4,0.2
						v1.3c-0.4-0.1-0.8-0.1-1.2-0.1c-0.5,0-0.8,0.1-1.1,0.2c-0.3,0.1-0.5,0.4-0.7,0.7c-0.1,0.3-0.2,0.7-0.2,1.2
						c0,0.8,0.2,1.3,0.4,1.6c0.3,0.3,0.8,0.5,1.4,0.5c0.2,0,0.4,0,0.6-0.1c0.2,0,0.5-0.1,0.8-0.2v1.3c-0.5,0.2-1,0.3-1.6,0.3
						C190.3,64.2,189.5,63.9,188.9,63.3z"/>
					<path class="st0" d="M194.3,56.2c-0.2-0.1-0.2-0.4-0.2-0.6c0-0.3,0.1-0.5,0.2-0.6c0.2-0.1,0.4-0.2,0.7-0.2
						c0.3,0,0.6,0.1,0.7,0.2s0.2,0.4,0.2,0.6c0,0.3-0.1,0.5-0.2,0.6s-0.4,0.2-0.7,0.2C194.7,56.4,194.4,56.4,194.3,56.2z M194.2,64
						v-6.5h1.6V64H194.2z"/>
					<path class="st0" d="M201.3,57.7c0.4,0.2,0.7,0.4,0.9,0.8c0.2,0.4,0.3,0.9,0.3,1.5v4h-1.3l-0.1-0.7H201
						c-0.2,0.3-0.4,0.5-0.8,0.6c-0.3,0.1-0.6,0.2-1,0.2c-0.4,0-0.8-0.1-1.1-0.2c-0.3-0.2-0.5-0.4-0.7-0.6c-0.2-0.3-0.2-0.6-0.2-1
						c0-0.6,0.2-1.1,0.6-1.4c0.4-0.3,1.1-0.5,2-0.6l1.2-0.1v-0.3c0-0.3-0.1-0.6-0.2-0.8c-0.1-0.2-0.3-0.3-0.5-0.4
						c-0.2-0.1-0.5-0.1-0.9-0.1c-0.3,0-0.6,0-0.9,0.1c-0.3,0-0.6,0.1-0.9,0.2v-1.2c0.3-0.1,0.6-0.2,1-0.2c0.4,0,0.7-0.1,1-0.1
						C200.4,57.4,200.9,57.5,201.3,57.7z M200.4,62.9c0.2-0.1,0.4-0.2,0.6-0.4v-1.4l-1.1,0.1c-0.4,0-0.7,0.1-0.9,0.3
						c-0.2,0.2-0.3,0.4-0.3,0.7c0,0.3,0.1,0.5,0.3,0.7c0.2,0.2,0.4,0.2,0.7,0.2C200,63,200.2,63,200.4,62.9z"/>
				</g>
			</g>
		</g>
		<g>
			<g>
				<path class="st0" d="M21.1,36.4L21.1,36.4L21.1,36.4c0.4-0.1,0.8-0.1,1.2-0.1c1.1,0,1.3,0.4,1.3,0.4c0,0,0,0.1,0.2,0.1
					c0,0,0,0,0.1,0c0,0,0.1,0,0.1,0c0,0,0-0.1,0-0.1c0,0-0.3-0.7-1.4-0.8c0,0-0.6-0.1-1.3,0c-0.2,0-0.2,0.4-0.2,0.5c0,0,0,0.1,0,0.1
					C21,36.5,21.1,36.5,21.1,36.4"/>
				<path class="st0" d="M19.2,36.9L19.2,36.9c-0.3-0.1-0.9-0.1-0.9-0.1c-1,0-1.2,0.6-1.2,0.6c0,0.1,0,0.1,0,0.1c0,0,0.1,0,0.1,0
					c0.2,0,0.3-0.1,0.3-0.1c0,0,0.1-0.2,0.5-0.3c0,0,0,0,0,0c0,0,0,0,0,0c0,0.1,0,0.1,0,0.2c0,0.3,0.2,0.5,0.5,0.5
					c0.3,0,0.5-0.2,0.5-0.5c0-0.1,0-0.1,0-0.2c0,0,0,0,0,0c0,0,0,0,0,0c0.2,0.1,0.3,0.2,0.4,0.3c0,0.1,0.1,0.1,0.3,0.1
					c0,0,0.1,0,0.1,0c0,0,0-0.1,0-0.1C19.6,37.1,19.2,36.9,19.2,36.9"/>
				<path class="st0" d="M21.1,37.7c0.2,0,0.3,0,0.3-0.1c0.1-0.2,0.2-0.3,0.4-0.3c0,0,0,0,0,0c0,0,0,0,0,0c0,0.1,0,0.1,0,0.2
					c0,0.3,0.2,0.5,0.5,0.5c0.3,0,0.5-0.2,0.5-0.5c0-0.1,0-0.1,0-0.2c0,0,0,0,0,0c0,0,0,0,0,0c0.4,0.1,0.5,0.3,0.5,0.3
					c0,0,0.1,0.1,0.2,0.1c0,0,0.1,0,0.1,0c0,0,0-0.1,0-0.1c0,0-0.3-0.6-1.2-0.6c-0.1,0-0.6,0-0.9,0.1c0,0-0.3,0.2-0.4,0.7
					c0,0,0,0,0,0.1C21,37.7,21,37.7,21.1,37.7"/>
				<path class="st0" d="M16.8,36.8L16.8,36.8C16.8,36.8,16.8,36.8,16.8,36.8C16.8,36.8,16.9,36.8,16.8,36.8c0.2,0,0.2-0.1,0.2-0.1
					c0,0,0.3-0.7,2.5-0.3c0,0,0.1,0,0.1,0c0,0,0-0.1,0-0.1c0,0-0.1-0.4-0.2-0.5c-0.2,0-0.5-0.1-0.8-0.1c-0.3,0-0.5,0-0.5,0
					c-1.2,0.1-1.4,0.8-1.4,0.8C16.7,36.7,16.7,36.8,16.8,36.8C16.8,36.8,16.8,36.8,16.8,36.8"/>
				<path class="st0" d="M35.4,60.7c0-0.1,0-0.2-0.1-0.2c-0.1,0-0.1-0.1-0.2-0.1c0.1-0.1,0.1-0.2,0.1-0.4c0.2-0.5,0.3-1.1,0.3-1.8
					c0-0.1,0-0.2-0.1-0.2c-0.1,0-0.1-0.1-0.2,0c0-0.1,0.1-0.2,0.1-0.3c0.1-0.5,0.2-1.1,0.1-1.8c0-0.1-0.1-0.2-0.1-0.2
					c-0.1,0-0.1,0-0.2,0c0-0.1,0.1-0.3,0.1-0.4c0.1-0.5,0.1-1.1-0.1-1.8c0-0.1-0.1-0.2-0.1-0.2c0,0-0.1,0-0.1,0c0-0.1,0-0.2,0-0.3
					c0.1-0.5,0-1.1-0.1-1.8c0-0.1-0.1-0.1-0.2-0.2c-0.1,0-0.2,0-0.2,0c0,0,0,0,0,0c0-0.1,0-0.3,0-0.5c0-0.5-0.1-1.1-0.4-1.7
					c0-0.1-0.1-0.1-0.2-0.2c-0.1,0-0.1,0-0.2,0c0-0.1,0-0.3,0-0.4c-0.1-0.5-0.3-1.1-0.6-1.7c0-0.1-0.1-0.1-0.2-0.1
					c-0.1,0-0.1,0-0.2,0.1c0-0.1,0-0.3-0.1-0.4c-0.1-0.5-0.4-1.1-0.8-1.6c0-0.1-0.1-0.1-0.2-0.1c-0.1,0-0.2,0-0.2,0.1c0,0,0,0,0,0
					c0-0.1-0.1-0.3-0.2-0.4c-0.2-0.5-0.6-1-1-1.5c-0.1-0.1-0.1-0.1-0.2-0.1c-0.1,0-0.1,0.1-0.2,0.1c-0.1-0.1-0.2-0.3-0.2-0.4
					c-0.3-0.5-0.7-0.9-1.2-1.3c-0.1-0.1-0.2-0.1-0.2,0c-0.1,0-0.1,0.1-0.2,0.1c-0.3-0.4-0.7-0.8-1.3-1c0.1,0,0.1,0,0.2,0
					c0.7,0,1.2-0.1,1.3-0.1c0.2-0.1,0.3-0.2,0.3-0.4c0-0.2-0.2-0.3-0.3-0.3c-0.8,0-1.1-0.2-1.4-0.4c0,0-0.1,0-0.1-0.1l1.7-0.3
					c0.2,0,0.3-0.2,0.3-0.4c0-0.2-0.1-0.3-0.3-0.4l-1.6-0.2c0.2-0.1,0.4-0.1,0.5-0.2c0.7-0.2,1.1-0.6,1.1-0.6
					c0.1-0.1,0.2-0.3,0.1-0.5c-0.1-0.2-0.3-0.2-0.4-0.2c-0.7,0.3-1.1,0.2-1.5,0.2c0,0-0.1,0-0.1,0l1.5-0.9c0.2-0.1,0.2-0.3,0.2-0.5
					c-0.1-0.2-0.3-0.3-0.4-0.2l-1.6,0.4c0.1-0.1,0.3-0.2,0.4-0.4c0.5-0.5,0.8-1,0.8-1c0.1-0.2,0-0.4-0.1-0.5c-0.1-0.1-0.3-0.1-0.5,0
					c-0.6,0.5-0.9,0.6-1.3,0.7c0,0-0.1,0-0.1,0l1-1.4c0.1-0.1,0.1-0.4,0-0.5c-0.1-0.1-0.3-0.1-0.5,0l-1.3,1c0.1-0.2,0.2-0.3,0.3-0.5
					c0.3-0.6,0.4-1.2,0.4-1.2c0-0.2-0.1-0.3-0.3-0.4c-0.2,0-0.4,0-0.4,0.2c-0.3,0.7-0.6,0.9-0.9,1.2c0,0-0.1,0-0.1,0.1l0.4-1.7
					c0-0.2,0-0.4-0.2-0.4c-0.2-0.1-0.4,0-0.5,0.2l-0.8,1.4c0-0.2,0-0.4,0-0.6c0-0.7-0.1-1.2-0.1-1.3c-0.1-0.2-0.2-0.3-0.4-0.3
					c-0.2,0-0.3,0.2-0.3,0.4c0,0.8-0.2,1.1-0.4,1.4c0,0,0,0.1-0.1,0.1l-0.2-1.7c0-0.2-0.2-0.3-0.4-0.3c-0.2,0-0.3,0.1-0.4,0.3
					L19.7,32c-0.1-0.2-0.1-0.3-0.2-0.5c-0.2-0.7-0.6-1.1-0.6-1.1c-0.1-0.1-0.3-0.2-0.5-0.1c-0.2,0.1-0.2,0.3-0.2,0.4
					c0.3,0.7,0.2,1.1,0.2,1.5c0,0,0,0.1,0,0.1l-0.9-1.5c-0.1-0.2-0.3-0.2-0.5-0.2C17,30.8,16.9,31,17,31.2l0.4,1.6
					c-0.1-0.1-0.2-0.3-0.3-0.4c-0.5-0.5-0.9-0.8-1-0.8c-0.2-0.1-0.4,0-0.5,0.1c-0.1,0.1-0.1,0.3,0,0.5c0.5,0.6,0.6,0.9,0.7,1.3
					c0,0,0,0.1,0,0.1l-1.4-1c-0.1-0.1-0.4-0.1-0.5,0c-0.1,0.1-0.1,0.3,0,0.5l1,1.3c-0.2-0.1-0.3-0.2-0.5-0.3
					c-0.7-0.3-1.2-0.4-1.2-0.4c-0.2,0-0.3,0.1-0.4,0.3c0,0.2,0,0.4,0.2,0.4c0.7,0.3,0.9,0.6,1.2,0.9c0,0,0,0.1,0.1,0.1L13.1,35
					c-0.2,0-0.4,0.1-0.4,0.2c-0.1,0.2,0,0.4,0.2,0.5l1.4,0.8c-0.2,0-0.4,0-0.5,0c-0.7,0-1.2,0.1-1.3,0.1c-0.2,0.1-0.3,0.2-0.3,0.4
					c0,0.2,0.2,0.3,0.3,0.3c0.8,0,1.1,0.2,1.4,0.4c0,0,0.1,0,0.1,0.1L12.4,38c-0.2,0-0.3,0.2-0.3,0.4c0,0.2,0.1,0.3,0.3,0.4L14,39
					c-0.2,0.1-0.4,0.1-0.5,0.2c-0.7,0.2-1.1,0.6-1.1,0.6c-0.1,0.1-0.2,0.3-0.1,0.5c0.1,0.2,0.3,0.2,0.4,0.2c0.4-0.1,0.6-0.2,0.9-0.2
					c-0.5,0.4-0.7,0.6-0.8,0.8c-0.1,0.1-0.1,0.2-0.2,0.3c0-0.1-0.1-0.1-0.1-0.1c-0.1,0-0.2,0-0.2,0c-0.5,0.4-0.9,0.8-1.2,1.3
					c-0.1,0.1-0.2,0.3-0.2,0.4c0-0.1-0.1-0.1-0.2-0.1c-0.1,0-0.2,0-0.2,0.1c-0.4,0.5-0.8,1-1,1.5c-0.1,0.1-0.1,0.3-0.2,0.4
					c0,0-0.1-0.1-0.2-0.1c-0.1,0-0.2,0-0.2,0.1c-0.4,0.5-0.7,1.1-0.8,1.6c0,0.1-0.1,0.3-0.1,0.4c0,0,0,0,0,0
					c-0.1-0.1-0.1-0.1-0.2-0.1c-0.1,0-0.2,0.1-0.2,0.1c-0.3,0.6-0.5,1.1-0.6,1.7c0,0.1,0,0.3,0,0.4c0,0,0,0,0,0
					c-0.1-0.1-0.1-0.1-0.2-0.1c-0.1,0-0.1,0.1-0.2,0.2c-0.2,0.6-0.3,1.2-0.4,1.7c0,0.1,0,0.3,0,0.4c-0.1,0-0.2-0.1-0.2,0
					c-0.1,0-0.1,0.1-0.2,0.2c-0.2,0.6-0.2,1.2-0.1,1.8c0,0.1,0,0.2,0,0.3c0,0-0.1,0-0.1,0c-0.1,0-0.1,0.1-0.1,0.2
					c-0.1,0.6-0.1,1.2-0.1,1.8c0,0.1,0.1,0.3,0.1,0.4c0,0-0.1,0-0.1,0c-0.1,0-0.1,0.1-0.1,0.2c-0.1,0.6-0.1,1.2,0.1,1.8
					c0,0.1,0.1,0.2,0.1,0.4c-0.1,0-0.1,0-0.2,0c-0.1,0-0.1,0.1-0.1,0.2c0,0.7,0.1,1.2,0.2,1.8c0.1,0.2,0.1,0.3,0.2,0.5
					c0,0-0.1,0-0.1,0c-0.1,0-0.2,0-0.2,0.1c-0.1,0.1-0.1,0.1-0.1,0.2c0.1,0.6,0.3,1.2,0.5,1.7c0.1,0.1,0.1,0.2,0.2,0.3
					c0,0-0.1,0-0.1,0.1C5.7,63,5.7,63,5.7,63.1c0.1,0.6,0.4,1.2,0.7,1.6c0.1,0.1,0.2,0.2,0.2,0.3c-0.1,0-0.1,0-0.2,0.1
					c-0.1,0.1-0.1,0.2,0,0.2c0.2,0.6,0.5,1.1,0.9,1.6c0.1,0.1,0.2,0.2,0.3,0.3c-0.1,0-0.1,0.1-0.2,0.1c0,0.1,0,0.2,0,0.2
					c0.3,0.6,0.6,1.1,1,1.5c0.1,0.1,0.2,0.2,0.3,0.2c-0.1,0-0.1,0.1-0.1,0.1c0,0.1,0,0.2,0,0.2c0.4,0.5,0.7,1,1.2,1.3
					c0.1,0.1,0.3,0.2,0.4,0.3c0,0-0.1,0-0.1,0c-0.1,0-0.1,0.1-0.2,0.2c0,0.1,0,0.2,0.1,0.2c0.4,0.5,0.9,0.8,1.4,1.1
					c0.4,0.2,0.8,0.4,1.1,0.4c0.3,0.1,0.6,0.1,0.9,0c0.8,0.6,1.7,1.1,2.6,1.5c0.7,0.3,1.5,0.6,2.3,0.7c0.1,0,0.2,0,0.3,0.1l0.3,0
					c0.2,0.1,0.3,0.1,0.4,0.1c0,0.1,0,0.2,0,0.2c0,0.1,0,0.2,0,0.3c-0.3,0.3-1.2,1.1-2.6,1.3l-0.1,0l0,0.1c0.1,0.1,0.2,0.3,0.4,0.4
					l0,0l0,0c1.2-0.2,2.1-0.9,2.5-1.3c0,0,0.1,0.1,0.1,0.1c-0.1,0.3-0.5,1.2-1.8,1.5l-0.1,0l0.1,0.1c0.2,0.1,0.5,0.2,0.8,0.2l0,0
					l0,0c1-0.5,1.4-1.2,1.5-1.6c0.1,0,0.3,0,0.4,0c0.1,0.4,0.5,1.1,1.5,1.6l0,0l0,0c0.3,0,0.6-0.1,0.8-0.2l0.1-0.1l-0.1,0
					c-1.4-0.4-1.7-1.2-1.8-1.5c0,0,0.1-0.1,0.1-0.1c0.4,0.4,1.3,1,2.5,1.3l0,0l0,0c0.2-0.2,0.3-0.4,0.4-0.4l0-0.1l-0.1,0
					c-1.3-0.2-2.2-0.9-2.5-1.3c0-0.1,0-0.2,0-0.3c0-0.1,0-0.2,0-0.2c0.1,0,0.3-0.1,0.4-0.1l0.3-0.1c0.4-0.1,0.7-0.1,1-0.2
					c0.8-0.2,1.5-0.5,2.2-0.8c1-0.5,1.7-1,1.9-1.2c0.3,0,0.6,0,0.9,0c0.4-0.1,0.8-0.2,1.1-0.4c0.5-0.3,0.9-0.6,1.4-1.1
					c0.1-0.1,0.1-0.1,0.1-0.2c0-0.1-0.1-0.1-0.2-0.2c0,0,0,0-0.1,0c0.1-0.1,0.3-0.2,0.4-0.3c0.4-0.3,0.8-0.8,1.2-1.3
					c0-0.1,0.1-0.2,0-0.2c0-0.1-0.1-0.1-0.1-0.1c0.1-0.1,0.2-0.2,0.3-0.2c0.4-0.4,0.7-0.9,1-1.5c0-0.1,0-0.2,0-0.2
					c0-0.1-0.1-0.1-0.2-0.1c0.1-0.1,0.2-0.2,0.3-0.3c0.3-0.4,0.6-0.9,0.9-1.6c0-0.1,0-0.2,0-0.2c0-0.1-0.1-0.1-0.2-0.1c0,0,0,0,0,0
					h0c0.1-0.1,0.2-0.2,0.2-0.3c0.3-0.5,0.5-1,0.7-1.6c0-0.1,0-0.2-0.1-0.2c-0.1-0.1-0.1-0.1-0.2-0.1c0.1-0.1,0.1-0.2,0.2-0.4
					C35.1,62,35.3,61.4,35.4,60.7 M35.1,58.7L35.1,58.7C35.1,58.7,35.1,58.7,35.1,58.7c0,0.5-0.1,0.9-0.2,1.2
					c-0.1,0.4-0.3,0.7-0.5,1c-0.3,0.3-0.5,0.5-0.6,0.5c0,0,0,0,0,0c0,0,0,0,0,0c-0.4-0.5-0.5-1.1-0.5-1.8c0-0.2,0-0.4,0.1-0.7
					c0,0,0,0,0,0c0,0,0,0,0,0c0.3,0.4,0.5,0.9,0.5,0.9c0,0.1,0.1,0.1,0.2,0.1c0,0,0,0,0,0c0.1,0,0.1,0,0.2-0.1
					C34.4,59.3,34.8,58.9,35.1,58.7C35.1,58.7,35.1,58.7,35.1,58.7 M35,56.4C35,56.4,35,56.4,35,56.4C35.1,56.4,35.1,56.4,35,56.4
					c0.1,0.5,0,0.9-0.1,1.3c-0.1,0.4-0.2,0.7-0.4,1c-0.2,0.3-0.5,0.5-0.6,0.6c0,0,0,0,0,0c0,0,0,0,0,0c-0.6-0.7-0.7-1.8-0.7-2.4
					c0,0,0,0,0,0c0,0,0,0,0,0c0.3,0.4,0.6,0.8,0.6,0.8c0,0.1,0.1,0.1,0.2,0.1c0.1,0,0.1-0.1,0.2-0.1C34.4,57,34.8,56.6,35,56.4
					 M34.8,54L34.8,54C34.8,54,34.8,54,34.8,54C34.8,54,34.8,54,34.8,54c0.1,0.5,0.1,0.9,0,1.3c-0.1,0.4-0.2,0.7-0.3,1
					c-0.2,0.4-0.4,0.6-0.5,0.7c0,0,0,0,0,0c0,0,0,0,0,0c-0.6-0.5-0.8-1.6-0.9-2.3c0,0,0,0,0,0c0,0,0,0,0,0c0.4,0.3,0.6,0.7,0.6,0.8
					c0,0.1,0.1,0.1,0.2,0.1c0.1,0,0.1-0.1,0.1-0.1C34.2,54.7,34.5,54.3,34.8,54 M34.4,51.8L34.4,51.8C34.4,51.8,34.4,51.8,34.4,51.8
					C34.4,51.8,34.4,51.8,34.4,51.8c0.1,0.5,0.1,0.9,0.1,1.3c0,0.4-0.1,0.7-0.3,1.1c-0.2,0.4-0.4,0.6-0.5,0.7c0,0,0,0,0,0
					c0,0,0,0,0,0c-0.5-0.4-0.8-1.1-0.9-1.6c-0.1-0.2-0.1-0.4-0.1-0.7c0,0,0,0,0,0c0,0,0,0,0,0c0.4,0.3,0.7,0.7,0.7,0.7
					c0,0.1,0.1,0.1,0.2,0.1c0.1,0,0.1-0.1,0.1-0.1C33.9,52.5,34.2,52,34.4,51.8 M22.3,64c0,0.1,0.1,0.1,0.1,0.2
					c0.8,0.4,1.4,1.2,1.6,1.5c0,0,0,0,0,0c0,0.1-0.1,0.1-0.1,0.2C23.9,66,23.7,66,23.4,66c0,0,0,0,0,0c0,0,0,0,0,0
					c-0.1-0.2-0.2-0.4-0.4-0.6c-0.3-0.3-0.8-0.7-0.8-0.7c-0.1-0.1-0.3-0.1-0.4,0.1c-0.1,0.1-0.1,0.3,0.1,0.4
					c0.1,0.1,0.6,0.4,0.7,0.6c0.2,0.3,0.3,0.4,0.3,0.5c0,0,0,0,0,0c0,0.1-0.1,0.2-0.2,0.2c-0.1,0.1-0.3,0.2-0.5,0.1c0,0,0,0,0,0
					c-0.1-0.2-0.3-0.5-0.6-0.9c-0.1-0.1-0.3-0.1-0.4,0c-0.1,0-0.1,0.1-0.1,0.2c0,0.1,0,0.1,0.1,0.2c0.2,0.3,0.4,0.5,0.5,0.7
					c0,0,0,0,0,0c-0.1,0-0.1,0.1-0.2,0.1C21.3,67,21.1,67,20.9,67c0,0,0,0,0,0s0,0,0,0c0.1-0.1,0.2-0.3,0.2-0.4c0-0.2,0-0.4-0.3-0.7
					c-0.1-0.1-0.4-0.3-0.8-0.2c0,0,0,0,0,0c0,0,0,0,0,0c0-0.2-0.1-0.4-0.3-0.5c-0.3-0.2-0.6-0.3-1-0.2c0,0,0,0,0,0l0,0c0,0,0,0,0,0
					c0-0.1-0.2-0.3-0.5-0.5c-0.3-0.1-0.6-0.1-0.8-0.1c0,0,0,0,0,0c-0.3-0.2-0.6-0.3-0.7-0.3c-0.4-0.1-1,0.1-1.3,0.5c0,0,0,0,0,0
					c-1.9,1-4.2,2.1-5.2,2.5c0,0,0,0,0,0c0,0,0,0,0,0c-0.5-1-0.9-2-1.3-3.1c-0.1-0.3-0.2-0.6-0.3-0.9c0,0,0,0,0,0c0,0,0,0,0,0
					c2.7-0.3,4.9-0.6,6.5-0.9c1.7-0.3,2.7-0.7,3.3-1l0,0c0.6-0.5,1.1-0.7,1.7-0.6c0.2,0,0.4,0,0.5,0.1c0,0,0,0,0,0c0,0,0,0,0,0
					c-0.2,0.1-0.3,0.1-0.4,0.2c-0.3,0.2-0.4,0.3-0.5,0.4c-0.1,0.1-0.2,0.2-0.4,0.3c-0.1,0.1-0.3,0.2-0.4,0.2
					c-0.4,0.2-0.7,0.3-0.7,0.6l0,0l0,0c-0.1,0.3-0.1,0.5,0.1,0.7c0.3,0.4,0.7,0.4,1.1,0.3c0.4,0,0.9-0.2,1.3-0.4
					c0.1-0.1,0.3-0.2,0.4-0.2c0.2-0.1,0.3-0.2,0.4-0.2c0,0,0,0,0,0c0.3-0.1,0.7-0.1,1.1,0.1c0.4,0.2,0.8,0.4,1.1,0.6
					c0.9,0.6,1.5,1.3,1.7,1.5c0,0,0,0,0,0c0,0.1-0.1,0.2-0.2,0.3c-0.1,0.1-0.3,0.2-0.5,0.2c0,0,0,0,0,0c-0.3-0.4-1-1.2-1.8-1.7
					c-0.1-0.1-0.3,0-0.4,0.1C22.3,63.8,22.3,63.9,22.3,64 M20.2,66.8C20.2,66.9,20.2,66.9,20.2,66.8L20.2,66.8
					c-0.1,0.1-0.5,0.3-0.8,0.3c0,0-0.1,0-0.1,0c-0.1,0-0.1,0-0.2-0.1c0,0,0,0,0,0c0.1-0.3,0.5-0.5,0.7-0.7c0.4-0.2,0.6-0.1,0.6-0.1
					c0.1,0.1,0.1,0.2,0.1,0.2C20.5,66.6,20.3,66.8,20.2,66.8L20.2,66.8L20.2,66.8z M17,65.3c0.4-0.4,0.7-0.5,1-0.4
					c0.1,0,0.2,0.1,0.2,0.2c0,0,0,0.1,0,0.1c0,0,0,0,0,0c-0.1,0-0.1,0.1-0.2,0.1c-0.4,0.3-0.7,0.6-0.8,0.9c0,0,0,0,0,0h0
					c-0.1,0-0.1,0-0.2,0c-0.3-0.1-0.4-0.3-0.4-0.4C16.6,65.7,16.7,65.5,17,65.3 M16.6,64.9c-0.2,0.2-0.4,0.4-0.5,0.7c0,0,0,0,0,0h0
					c-0.1,0-0.1,0-0.2,0c-0.2,0-0.3-0.1-0.4-0.2c0,0-0.1-0.1,0.1-0.3c0.2-0.3,0.7-0.5,0.9-0.4c0,0,0,0,0,0c0,0,0.1,0,0.2,0
					c0,0,0,0,0,0c0,0,0,0,0,0C16.7,64.8,16.7,64.8,16.6,64.9 M18.3,65.8c0.5-0.4,0.8-0.5,1-0.3c0.1,0.1,0.1,0.1,0.1,0.2
					c0,0.1-0.1,0.2-0.2,0.3c-0.3,0.2-0.5,0.5-0.7,0.8c0,0,0,0,0,0c-0.1,0-0.2,0-0.3,0c-0.1,0-0.3,0-0.4-0.1c0,0-0.1-0.1-0.1-0.2
					C17.7,66.2,18.1,65.9,18.3,65.8 M23.9,41.1C23.9,41.1,23.9,41.1,23.9,41.1C23.9,41.1,23.9,41.1,23.9,41.1
					c0.2-0.1,0.5-0.2,0.7-0.2c0.7,0,1.2,0.2,1.6,0.6c0,0,0,0,0,0c0,0,0,0,0,0c-0.1,0-0.4,0.1-0.6,0.1c0,0-0.1,0-0.1,0
					C25,41.7,24.5,41.5,23.9,41.1 M24.7,42h-8.8c1.4-0.7,2.9-1.1,4.4-1.1C21.8,41,23.3,41.3,24.7,42 M25.8,40.2
					c-0.2,0.1-0.5,0.2-0.9,0.3c-0.2,0-0.4,0.1-0.6,0.1c-0.5,0-0.9-0.1-1.2-0.4c0,0,0,0,0,0c0,0,0,0,0,0c0.2-0.1,0.4-0.2,0.7-0.3
					c0.3-0.1,0.7-0.1,1,0C25.2,39.9,25.5,40,25.8,40.2C25.8,40.2,25.8,40.2,25.8,40.2C25.8,40.2,25.8,40.2,25.8,40.2 M23.7,39.5
					c-0.2,0.1-0.6,0.2-1.2,0.3c-0.1,0-0.1,0.1-0.2,0.1c0,0.1,0,0.2,0.1,0.2c0,0,0.4,0.3,0.8,0.7c0,0,0,0,0,0c0,0,0,0,0,0
					c-0.5,0-1.5-0.2-2.3-1c0,0,0,0,0,0c0.1-0.1,0.3-0.3,0.6-0.4C22.1,39.2,22.9,39.2,23.7,39.5C23.7,39.5,23.7,39.5,23.7,39.5
					C23.7,39.5,23.7,39.5,23.7,39.5 M21.3,39.1c-0.2,0.1-0.5,0.4-1.1,0.5c-0.1,0-0.1,0.1-0.1,0.2c0,0.1,0,0.1,0.1,0.2
					c0,0,0.5,0.2,0.9,0.5c0,0,0,0,0,0c0,0,0,0,0,0c-0.2,0-0.3,0-0.5,0c-0.5,0-1.3-0.1-1.9-0.6c0,0,0,0,0,0c0.1-0.1,0.3-0.3,0.5-0.5
					C19.7,39.1,20.4,39,21.3,39.1C21.3,39.1,21.3,39.1,21.3,39.1C21.3,39.1,21.3,39.1,21.3,39.1 M18.8,39.1c-0.1,0.2-0.4,0.5-1,0.8
					c-0.1,0-0.1,0.1-0.1,0.2c0,0.1,0.1,0.1,0.1,0.2c0,0,0.5,0.1,1,0.3c0,0,0,0,0,0c0,0,0,0,0,0c-0.2,0.1-0.4,0.1-0.6,0.2
					c-0.2,0-0.5,0.1-0.7,0.1c-0.4,0-0.8-0.1-1.2-0.2c0,0,0,0,0,0c0.1-0.1,0.2-0.4,0.4-0.6C17.2,39.5,17.9,39.2,18.8,39.1
					C18.8,39.1,18.8,39.1,18.8,39.1C18.9,39.1,18.9,39.1,18.8,39.1 M16.5,39.5L16.5,39.5c-0.1,0.3-0.4,0.7-0.9,1.1
					c-0.1,0-0.1,0.1-0.1,0.2c0,0.1,0.1,0.1,0.2,0.1h0c0,0,0.2,0,0.5,0c0.2,0,0.4,0.1,0.5,0.1c0,0,0,0,0,0c0,0,0,0,0,0
					c-0.2,0.1-0.4,0.2-0.6,0.3c-0.4,0.1-0.8,0.2-1.2,0.2c-0.2,0-0.5,0-0.7-0.1c0,0,0,0,0,0C14.4,41.1,14.8,40.1,16.5,39.5
					C16.5,39.5,16.5,39.5,16.5,39.5C16.5,39.5,16.5,39.5,16.5,39.5 M25.8,42.6c0.5,0.3,0.9,0.7,1.4,1H13.5c0.4-0.4,0.9-0.7,1.4-1
					H25.8z M27.8,44.3c0.3,0.3,0.6,0.7,0.9,1h-6.6c-0.9-0.6-1.8-0.6-2-0.6c-0.1,0-1,0-1.8,0.6h-6.3c0.3-0.4,0.6-0.7,0.9-1H27.8z
					 M18.1,52c-0.6,0-1,0.1-1.6,0.4c0,0,0,0,0,0c0,0,0,0,0,0c0-0.1,0-0.1,0-0.2c0.3-1.6,0.9-2.6,1.4-3.2c0.3-0.5,0.7-0.8,0.8-0.9
					c0,0,0.1-0.1,0.1-0.1c0.1-0.1,0.2-0.3,0-0.4c-0.1-0.1-0.3-0.2-0.4-0.1c0,0-0.1,0-0.2,0.1c-0.2,0.2-0.5,0.2-0.6,0.1
					c-0.1-0.1-0.2-0.2-0.1-0.4c0.1-0.3,0.4-0.8,0.6-0.9c0,0,0,0,0,0c0.8-0.9,2-0.9,2-0.9c0,0,0.4,0,0.9,0.1c0.7,0.2,1.2,0.7,1.5,1.3
					c0.5,0.9,0.9,1.9,1.1,2.9c0,0,0,0,0,0c0,0,0,0,0,0c-0.7-0.2-1.3-0.7-1.3-0.7c-0.1-0.1-0.3-0.1-0.5,0c-0.1,0.1-0.1,0.3,0,0.5
					c0,0,0.9,0.7,1.9,0.9c0,0,0,0,0,0c0.1,0.4,0.1,0.7,0.2,1.2c0,0,0,0,0,0c0,0,0,0,0,0c-0.3-0.2-0.7-0.3-1.1-0.4
					c-0.2-0.1-0.4-0.1-0.6-0.2c-0.7-0.3-1.3-0.7-1.3-0.7c-0.1-0.1-0.3-0.1-0.5,0.1c-0.1,0.1-0.1,0.3,0.1,0.5c0,0,0.7,0.5,1.4,0.8
					c0.2,0.1,0.4,0.1,0.6,0.2c0.9,0.2,1.3,0.4,1.3,0.9c0,0,0,0,0,0c0,0.1-0.1,0.1-0.1,0.2c-0.3,0.3-0.8,0.3-1,0.3c0,0-0.9,0-0.9,0
					c-0.2,0-1,0-1.7-0.5C19.4,52.3,18.7,52,18.1,52 M19.8,53.4C19.8,53.4,19.8,53.4,19.8,53.4l-2.6,0c-0.3,0-0.5-0.1-0.6-0.2
					c0,0-0.1-0.1-0.1-0.1c0,0,0,0,0,0C17.8,52.5,18.3,52.4,19.8,53.4C19.8,53.4,19.9,53.4,19.8,53.4 M20.7,55.7h12
					c0,0.4,0.1,0.7,0.1,1.1h-12V55.7z M20.7,55.1v-1h11.8c0.1,0.3,0.1,0.7,0.1,1H20.7z M24.5,53.5c0.1-0.1,0.2-0.3,0.3-0.5
					c0,0,0,0,0-0.1c0-0.2,0.1-0.3,0-0.5h7.4c0.1,0.3,0.2,0.7,0.2,1H24.5z M24.7,51.8c0-0.3-0.1-0.7-0.2-1h7.2c0,0.1,0.1,0.2,0.1,0.3
					c0.1,0.3,0.2,0.5,0.2,0.8H24.7z M24.4,50.2c-0.1-0.3-0.2-0.7-0.3-1h6.9c0.1,0.3,0.3,0.7,0.4,1H24.4z M24,48.6
					c-0.1-0.3-0.2-0.7-0.4-1h6.7c0.2,0.3,0.4,0.7,0.5,1H24z M23.3,46.9c-0.1-0.1-0.1-0.3-0.2-0.4c-0.1-0.2-0.3-0.4-0.4-0.6h6.5
					c0.2,0.3,0.5,0.7,0.7,1H23.3z M17.6,45.9c-0.1,0.1-0.5,0.6-0.7,1h-6.2c0.2-0.4,0.5-0.7,0.7-1H17.6z M16.9,47.5
					c0,0.3,0.2,0.6,0.5,0.7c0.1,0,0.1,0.1,0.2,0.1c0,0,0,0,0,0c0,0,0,0,0,0c-0.1,0.1-0.1,0.1-0.2,0.2H9.9c0.2-0.4,0.4-0.7,0.5-1
					H16.9z M17,49.2c-0.2,0.3-0.4,0.6-0.5,1H9.2c0.1-0.4,0.3-0.7,0.4-1H17z M16.2,50.8c-0.1,0.3-0.2,0.7-0.3,1H8.6
					c0.1-0.3,0.1-0.5,0.2-0.8c0-0.1,0.1-0.2,0.1-0.3H16.2z M15.9,52.4c0,0.1,0,0.3,0,0.4c0,0,0,0,0,0.1c0,0.2,0.1,0.4,0.2,0.6H8.3
					c0.1-0.4,0.1-0.7,0.2-1H15.9z M19.9,54.1v1H8c0-0.4,0.1-0.7,0.1-1H19.9z M19.9,55.7v1.1h-12c0-0.4,0-0.8,0.1-1.1H19.9z
					 M19.9,57.4v2.4c0,0,0,0,0,0c0,0,0,0,0,0c0,0,0,0-0.1,0c-0.7,0-1.2,0.3-1.8,0.7c-1,0.6-4.2,1.3-9.6,1.9c0,0,0,0,0,0
					c-0.4-1.6-0.6-3.3-0.6-5c0,0,0-0.1,0-0.1H19.9z M23.8,62.8c-0.6-0.4-1.7-1.1-2.7-0.8c-0.2,0-0.4,0.2-0.6,0.3
					c-0.1,0.1-0.2,0.1-0.3,0.2c-0.3,0.2-0.8,0.3-1,0.3c-0.3,0-0.5,0-0.6-0.1c-0.1-0.1-0.1-0.2-0.1-0.2c0,0,0,0,0,0
					c0.1-0.1,0.3-0.2,0.5-0.3c0.2-0.1,0.4-0.2,0.5-0.3c0.2-0.1,0.3-0.2,0.5-0.4c0.1-0.1,0.3-0.2,0.5-0.4c0.3-0.2,0.7-0.2,1.2-0.3
					c0.1,0,0.2,0,0.3,0c0.1,0,0.1,0,0.2,0c0.6,0,1.1,0.2,1.9,0.4c0.2,0.1,0.5,0.2,0.8,0.3c0,0,0,0,0,0c0,0,1,0.3,2.5,0.7
					c1.2,0.3,3.1,0.7,4.8,0.8c0,0,0,0,0,0c0,0,0,0,0,0c-0.1,0.3-0.2,0.6-0.3,0.9c-0.4,1.1-0.8,2.2-1.3,3.2c0,0,0,0,0,0c0,0,0,0,0,0
					c-0.8-0.3-2.9-1.3-4.3-2.3c-0.3-0.2-0.5-0.4-0.6-0.5c0,0,0,0,0,0c0,0,0,0,0,0l0,0c0,0,0-0.1,0-0.1C25.2,64,24.6,63.3,23.8,62.8
					 M24.9,61.1c-0.3-0.1-0.5-0.2-0.7-0.3c-0.8-0.3-1.4-0.5-2.1-0.5c0,0-0.1,0-0.1,0c0,0,0,0,0,0c-0.4-0.2-0.7-0.3-1.2-0.4
					c0,0,0,0,0,0v-2.5h12.1c0,0,0,0.1,0,0.1c0,1.7-0.2,3.4-0.6,5c0,0,0,0,0,0h0C28.9,62.4,25.1,61.2,24.9,61.1 M33.7,49.5
					C33.7,49.5,33.7,49.5,33.7,49.5C33.7,49.5,33.7,49.5,33.7,49.5c0.2,0.4,0.3,0.8,0.3,1.2c0,0.4,0,0.8-0.1,1.1
					c-0.1,0.4-0.3,0.6-0.4,0.7c0,0,0,0,0,0c0,0,0,0,0,0c-0.5-0.3-0.9-0.8-1.1-1.5c-0.1-0.2-0.1-0.4-0.2-0.6c0,0,0,0,0,0c0,0,0,0,0,0
					c0.4,0.3,0.8,0.6,0.8,0.6c0,0.1,0.1,0.1,0.2,0c0.1,0,0.1-0.1,0.1-0.2C33.3,50.3,33.5,49.8,33.7,49.5 M32.3,49
					c0.1,0,0.1-0.1,0.1-0.2c0-0.7,0.2-1.2,0.3-1.5c0,0,0,0,0,0c0,0,0,0,0,0c0.2,0.4,0.3,0.8,0.4,1.2c0.1,0.4,0,0.8,0,1.1
					c-0.1,0.4-0.3,0.7-0.3,0.8c0,0,0,0,0,0c0,0,0,0,0,0c-0.5-0.3-0.9-0.7-1.3-1.3c-0.1-0.2-0.2-0.4-0.3-0.6c0,0,0,0,0,0c0,0,0,0,0,0
					c0.5,0.2,0.9,0.6,0.9,0.6C32.2,49,32.3,49.1,32.3,49L32.3,49 M31.4,47c0.1,0,0.1-0.1,0.1-0.2c-0.1-0.7,0-1.2,0.1-1.5
					c0,0,0,0,0,0h0c0,0,0,0,0,0c0.2,0.4,0.4,0.8,0.5,1.1c0.1,0.4,0.1,0.7,0.1,1.1c0,0.4-0.2,0.7-0.2,0.8c0,0,0,0,0,0c0,0,0,0,0,0
					c-0.6-0.2-1.1-0.6-1.5-1.2c-0.1-0.2-0.2-0.4-0.3-0.6c0,0,0,0,0,0c0,0,0,0,0,0c0.5,0.1,0.9,0.5,0.9,0.5
					C31.2,47.1,31.3,47.1,31.4,47 M29.9,45.2c0.1,0,0.1,0,0.2,0c0.1,0,0.1-0.1,0.1-0.2c-0.2-0.6-0.2-1.2-0.1-1.5c0,0,0,0,0,0
					c0,0,0,0,0,0c0.3,0.3,0.5,0.7,0.7,1c0.2,0.4,0.2,0.7,0.3,1.1c0,0.4,0,0.7-0.1,0.8c0,0,0,0,0,0h0c-0.6-0.1-1.1-0.4-1.6-0.9
					c-0.2-0.2-0.3-0.4-0.4-0.6c0,0,0,0,0,0c0,0,0,0,0,0C29.5,44.9,29.9,45.2,29.9,45.2 M28.5,43.5c0.1,0,0.2,0,0.2,0
					c0.1-0.1,0.1-0.1,0-0.2c-0.3-0.6-0.4-1.2-0.4-1.5c0,0,0,0,0,0c0,0,0,0,0,0c0.3,0.3,0.6,0.6,0.8,0.9c0.2,0.3,0.4,0.7,0.4,1
					c0.1,0.4,0.1,0.7,0.1,0.9c0,0,0,0,0,0c0,0,0,0,0,0c-0.6,0-1.2-0.4-1.6-0.7c-0.2-0.1-0.4-0.3-0.6-0.5c0,0,0,0,0,0c0,0,0,0,0,0
					C28,43.3,28.5,43.5,28.5,43.5 M27.9,42c0.2,0.4,0.2,0.8,0.2,0.9c0,0,0,0,0,0c0,0-0.1,0-0.1,0c-0.8,0-1.7-0.5-2.2-0.9
					c0,0,0,0,0,0c0,0,0,0,0,0c0.5-0.1,1,0,1,0c0.1,0,0.2,0,0.2-0.1c0-0.1,0-0.2,0-0.2c-0.3-0.4-0.5-0.8-0.6-1.2c0,0,0,0,0,0
					c0,0,0,0,0,0C27.2,40.9,27.7,41.3,27.9,42 M13.2,39.8C13.2,39.8,13.2,39.8,13.2,39.8C13.2,39.8,13.2,39.8,13.2,39.8
					c0.2-0.1,0.3-0.2,0.5-0.2c0.5-0.2,0.9-0.3,1.1-0.3c0.5-0.1,0.9-0.3,0.9-0.3c0,0,0,0,0-0.1c0,0,0,0-0.1-0.1L13,38.4c0,0,0,0,0,0
					c0,0,0,0,0,0l2.7-0.4c0,0,0.1,0,0.1-0.1c0,0,0-0.1-0.1-0.1c0,0-0.5-0.1-1-0.3c-0.2-0.1-0.3-0.1-0.4-0.2c-0.3-0.2-0.6-0.3-1-0.4
					c0,0,0,0,0,0c0,0,0,0,0,0c0.2,0,0.4,0,0.5,0c0.5,0,0.9,0.1,1.2,0.1c0.5,0.1,0.9,0,0.9,0c0,0,0,0,0.1-0.1c0,0,0-0.1,0-0.1
					l-2.3-1.4c0,0,0,0,0,0c0,0,0,0,0,0l2.6,0.7c0,0,0.1,0,0.1,0c0,0,0-0.1,0-0.1c0,0-0.4-0.3-0.8-0.7c-0.1-0.1-0.2-0.2-0.3-0.3
					c-0.2-0.3-0.4-0.5-0.8-0.8c0,0,0,0,0,0c0,0,0,0,0,0c0.2,0.1,0.3,0.1,0.5,0.2c0.4,0.2,0.8,0.5,1,0.6c0.4,0.3,0.8,0.4,0.9,0.4
					c0,0,0.1,0,0.1,0c0,0,0-0.1,0-0.1l-1.6-2.2c0,0,0,0,0,0c0,0,0,0,0,0l2.2,1.6c0,0,0.1,0,0.1,0c0,0,0-0.1,0-0.1c0,0-0.3-0.4-0.5-1
					c-0.1-0.2-0.1-0.3-0.1-0.4c-0.1-0.3-0.2-0.6-0.5-1c0,0,0,0,0,0c0,0,0,0,0,0c0.1,0.1,0.3,0.2,0.4,0.4c0.3,0.4,0.6,0.7,0.7,0.9
					c0.3,0.4,0.6,0.7,0.6,0.7c0,0,0.1,0,0.1,0c0,0,0,0,0-0.1l-0.7-2.6c0,0,0,0,0,0c0,0,0,0,0,0l1.4,2.3c0,0,0.1,0,0.1,0
					c0,0,0,0,0-0.1c0,0-0.1-0.5-0.1-1.1c0-0.2,0-0.3,0-0.5c0-0.3,0.1-0.6,0-1.1c0,0,0,0,0,0c0,0,0,0,0,0c0.1,0.2,0.2,0.3,0.2,0.5
					c0.2,0.5,0.3,0.9,0.3,1.1c0.1,0.5,0.3,0.8,0.3,0.9c0,0,0,0,0.1,0c0,0,0,0,0.1-0.1l0.4-2.6c0,0,0,0,0,0c0,0,0,0,0,0l0.4,2.6
					c0,0,0,0.1,0.1,0.1c0,0,0.1,0,0.1-0.1c0,0,0.1-0.5,0.3-1c0.1-0.2,0.1-0.3,0.2-0.4c0.2-0.3,0.3-0.6,0.4-1c0,0,0,0,0,0
					c0,0,0,0,0,0c0,0.2,0,0.4,0,0.5c0,0.5-0.1,1-0.1,1.2c-0.1,0.5,0,0.9,0,0.9c0,0,0,0,0.1,0.1c0,0,0.1,0,0.1,0l1.4-2.3c0,0,0,0,0,0
					c0,0,0,0,0,0l-0.7,2.6c0,0,0,0.1,0,0.1c0,0,0.1,0,0.1,0c0,0,0.3-0.4,0.7-0.8c0.1-0.1,0.2-0.2,0.3-0.3c0.3-0.2,0.5-0.4,0.8-0.8
					c0,0,0,0,0,0c0,0,0,0,0,0c-0.1,0.2-0.1,0.3-0.2,0.5c-0.2,0.4-0.5,0.8-0.6,1c-0.3,0.4-0.4,0.8-0.4,0.9c0,0,0,0.1,0,0.1
					c0,0,0.1,0,0.1,0l2.1-1.6c0,0,0,0,0,0c0,0,0,0,0,0l-1.6,2.2c0,0,0,0.1,0,0.1c0,0,0.1,0,0.1,0c0,0,0.4-0.3,0.9-0.5
					c0.2-0.1,0.3-0.1,0.4-0.1c0.3-0.1,0.6-0.2,1-0.5c0,0,0,0,0,0c0,0,0,0,0,0c-0.1,0.1-0.2,0.3-0.4,0.4c-0.4,0.3-0.7,0.6-0.9,0.7
					c-0.4,0.3-0.7,0.6-0.7,0.7c0,0,0,0.1,0,0.1c0,0,0,0,0.1,0l2.6-0.7c0,0,0,0,0,0c0,0,0,0,0,0L24.8,37c0,0,0,0.1,0,0.1
					c0,0,0,0,0.1,0c0,0,0.5-0.1,1.1-0.1c0.2,0,0.3,0,0.5,0c0.3,0,0.6,0.1,1.1,0c0,0,0,0,0,0c0,0,0,0,0,0c-0.2,0.1-0.3,0.2-0.5,0.2
					c-0.5,0.2-0.9,0.3-1.1,0.3c-0.5,0.1-0.9,0.3-0.9,0.3c0,0,0,0,0,0.1c0,0,0,0,0.1,0.1l2.6,0.4c0,0,0,0,0,0c0,0,0,0,0,0L25,38.8
					c0,0-0.1,0-0.1,0.1c0,0,0,0.1,0.1,0.1c0,0,0.5,0.1,1,0.3c0.2,0.1,0.3,0.1,0.4,0.2c0.3,0.2,0.6,0.3,1,0.4c0,0,0,0,0,0
					c0,0,0,0,0,0c-0.1,0-0.2,0-0.3,0c-0.1,0-0.2,0-0.2,0c-0.5,0-0.9-0.1-1.2-0.1c0,0,0,0-0.1,0c0,0,0,0,0,0
					c-0.4-0.2-0.8-0.3-1.3-0.3c0,0,0,0,0,0c0,0,0,0,0,0c0,0,0,0,0,0c0,0,0,0,0-0.1c0-0.1-0.1-0.1-0.1-0.1c-0.5-0.2-1-0.3-1.4-0.3
					c0,0,0,0-0.1,0l0,0c0,0,0,0,0,0c0,0,0,0-0.1,0l0,0c0,0,0,0,0,0c0,0-0.1,0-0.1,0c0,0,0,0,0,0c-0.2,0-0.4,0-0.6,0c0,0,0,0,0,0
					c0,0,0,0,0,0c0,0,0,0,0,0c0,0,0-0.1,0-0.1c0,0,0,0,0,0c0-0.1-0.1-0.1-0.2-0.1c0,0-0.1,0-0.1,0c0,0,0,0,0,0l0,0c0,0-0.1,0-0.1,0
					c0,0,0,0,0,0c0,0-0.1,0-0.1,0c-0.5,0-1,0-1.4,0.1c-0.1,0-0.2,0-0.3,0.1c0,0,0,0,0,0c0,0,0,0-0.1,0l0,0c0,0,0,0-0.1,0l0,0
					c-0.1,0-0.1,0-0.2,0.1c0,0,0,0,0,0c0,0,0,0,0,0l0,0c0,0,0,0,0,0c0,0,0,0,0,0l0,0c0-0.1,0-0.1,0-0.2l0,0c0,0,0,0,0,0l0,0
					c0,0-0.1,0-0.1,0c-0.6,0.1-1.2,0.2-1.7,0.4c-0.2,0.1-0.3,0.1-0.5,0.2c0,0,0,0,0,0c0,0,0,0,0,0c0,0,0-0.1,0-0.1v0c0,0,0,0,0,0
					c0-0.1,0-0.1-0.1-0.2l0,0c0,0,0,0,0,0l0,0c0,0,0,0,0,0l0,0c0,0-0.1,0-0.1,0c-0.6,0.2-1.2,0.4-1.6,0.7c0,0,0,0,0,0l0,0
					c0,0,0,0,0,0c-0.1,0-0.3,0-0.4,0c-0.1,0-0.4,0-0.5,0C13.9,39.7,13.6,39.7,13.2,39.8 M14.2,40.3L14.2,40.3
					C14.2,40.3,14.2,40.3,14.2,40.3C14.2,40.3,14.2,40.3,14.2,40.3c0,0.4-0.1,0.9-0.5,1.5c0,0.1,0,0.1,0,0.2c0,0.1,0.1,0.1,0.2,0.1
					c0,0,0.5-0.1,1-0.1c0,0,0,0,0,0c0,0,0,0,0,0c-0.4,0.3-1.3,0.9-2.2,0.9c0,0-0.1,0-0.1,0c0,0,0,0,0,0
					C12.6,42.5,12.7,41.4,14.2,40.3 M11,43.7c0.1-0.3,0.2-0.7,0.4-1c0.2-0.3,0.5-0.6,0.8-0.9c0,0,0,0,0,0c0,0,0,0,0,0
					c0,0.4,0,0.9-0.4,1.5c0,0.1,0,0.1,0,0.2c0,0.1,0.1,0.1,0.2,0.1c0,0,0.5-0.2,1-0.2c0,0,0,0,0,0c0,0,0,0,0,0
					c-0.2,0.2-0.4,0.4-0.6,0.5c-0.4,0.3-1,0.7-1.5,0.7c0,0,0,0-0.1,0c0,0,0,0,0,0C11,44.4,11,44.1,11,43.7 M10.5,43.4L10.5,43.4
					C10.5,43.4,10.6,43.4,10.5,43.4C10.6,43.4,10.6,43.4,10.5,43.4c0.1,0.4,0.1,0.9-0.1,1.6c0,0.1,0,0.2,0.1,0.2c0.1,0,0.1,0,0.2,0
					c0,0,0.4-0.3,1-0.3c0,0,0,0,0,0c0,0,0,0,0,0c-0.3,0.5-1.1,1.3-2,1.5h0c0,0,0,0,0,0C9.6,45.9,9.4,44.8,10.5,43.4 M8.5,46.4
					c0.1-0.4,0.3-0.7,0.5-1.1c0,0,0,0,0,0c0,0,0,0,0,0c0.1,0.3,0.2,0.9,0.1,1.6c0,0.1,0,0.2,0.1,0.2c0.1,0,0.2,0,0.2,0
					c0,0,0.4-0.4,0.9-0.5c0,0,0,0,0,0c0,0,0,0,0,0c-0.1,0.2-0.2,0.4-0.4,0.6c-0.4,0.6-0.9,0.9-1.5,1.1c0,0,0,0,0,0c0,0,0,0,0,0
					c-0.1-0.1-0.2-0.4-0.2-0.8C8.4,47.2,8.4,46.8,8.5,46.4 M7.4,48.5c0.1-0.4,0.2-0.8,0.4-1.2c0,0,0,0,0,0c0,0,0,0,0,0
					c0.2,0.3,0.3,0.8,0.3,1.5c0,0.1,0,0.1,0.1,0.2c0.1,0,0.1,0,0.2,0c0,0,0.4-0.4,0.9-0.6c0,0,0,0,0,0c0,0,0,0,0,0
					c0,0.2-0.1,0.4-0.2,0.6c-0.3,0.6-0.8,1.1-1.4,1.4c0,0,0,0,0,0c0,0,0,0,0,0c-0.1-0.1-0.2-0.4-0.3-0.8C7.4,49.3,7.4,48.9,7.4,48.5
					 M6.9,49.5C6.9,49.5,6.9,49.5,6.9,49.5C6.9,49.5,6.9,49.5,6.9,49.5c0.2,0.3,0.5,0.8,0.5,1.5c0,0.1,0.1,0.1,0.1,0.2
					c0.1,0,0.1,0,0.2-0.1c0,0,0.3-0.4,0.8-0.7c0,0,0,0,0,0c0,0,0,0,0,0c0,0.2-0.1,0.4-0.1,0.6c-0.2,0.6-0.6,1.2-1.2,1.5c0,0,0,0,0,0
					c0,0,0,0,0,0c-0.1-0.1-0.3-0.3-0.4-0.7c-0.1-0.3-0.2-0.7-0.2-1.1C6.7,50.3,6.7,49.9,6.9,49.5 M6.2,51.8L6.2,51.8
					C6.2,51.7,6.2,51.7,6.2,51.8C6.2,51.7,6.2,51.7,6.2,51.8c0.3,0.3,0.6,0.7,0.7,1.4c0,0.1,0.1,0.1,0.1,0.1c0.1,0,0.1,0,0.2-0.1
					c0,0,0.3-0.5,0.7-0.8c0,0,0,0,0,0c0,0,0,0,0,0c0,0.2,0,0.4-0.1,0.6c-0.2,0.7-0.5,1.2-1,1.6c0,0,0,0,0,0c0,0,0,0,0,0
					c-0.1-0.1-0.3-0.3-0.5-0.7c-0.2-0.3-0.3-0.7-0.3-1.1C6.1,52.6,6.1,52.2,6.2,51.8 M5.9,54C5.9,54,5.9,54,5.9,54
					C5.9,54,5.9,54,5.9,54c0.3,0.2,0.6,0.7,0.8,1.4c0,0.1,0.1,0.1,0.2,0.1c0.1,0,0.1,0,0.2-0.1c0,0,0.2-0.5,0.6-0.8c0,0,0,0,0,0
					c0,0,0,0,0,0c0,0.2,0,0.5-0.1,0.7C7.4,56,7.2,56.6,6.8,57c0,0,0,0,0,0c0,0,0,0,0,0c-0.1-0.1-0.3-0.3-0.5-0.7
					c-0.2-0.3-0.3-0.7-0.3-1C5.8,54.9,5.8,54.5,5.9,54 M5.7,56.4L5.7,56.4C5.7,56.4,5.7,56.4,5.7,56.4C5.7,56.4,5.7,56.4,5.7,56.4
					c0.1,0,0.1,0.1,0.2,0.1c0.2,0.2,0.5,0.6,0.7,1.2c0,0.1,0.1,0.1,0.2,0.1c0,0,0,0,0,0c0.1,0,0.2-0.1,0.2-0.2c0,0,0.1-0.5,0.5-0.9
					c0,0,0,0,0,0c0,0,0,0,0,0c0,0.3,0.1,0.7,0,1.1c-0.1,0.5-0.3,1-0.7,1.3c0,0,0,0,0,0c0,0,0,0,0,0C6.4,59,5.5,58.2,5.7,56.4
					 M5.6,58.7C5.6,58.7,5.6,58.7,5.6,58.7c0.1,0,0.1,0.1,0.2,0.1C6,59.1,6.3,59.4,6.6,60c0,0.1,0.1,0.1,0.2,0.1l0,0l0,0
					c0.1,0,0.1,0,0.2-0.1c0,0,0.2-0.5,0.6-0.9c0,0,0,0,0,0s0,0,0,0c0.1,0.5,0.2,1.5-0.5,2.4c0,0,0,0,0,0c0,0,0,0,0,0
					C6.5,61.3,5.6,60.6,5.6,58.7C5.6,58.7,5.6,58.7,5.6,58.7 M5.7,61.2L5.7,61.2C5.7,61.1,5.7,61.1,5.7,61.2
					C5.7,61.1,5.7,61.1,5.7,61.2c0.4,0.1,0.8,0.4,1.2,1c0,0.1,0.1,0.1,0.2,0.1c0.1,0,0.1-0.1,0.1-0.1c0,0,0,0,0,0c0,0,0.1-0.6,0.4-1
					c0,0,0,0,0,0h0c0,0,0,0,0,0c0.1,0.2,0.2,0.4,0.2,0.6c0.1,0.7,0,1.3-0.3,1.9c0,0,0,0,0,0c0,0,0,0,0,0c-0.1,0-0.4-0.2-0.7-0.4
					c-0.3-0.2-0.5-0.5-0.7-0.9C5.9,62,5.8,61.6,5.7,61.2 M6.2,63.4L6.2,63.4C6.2,63.4,6.2,63.4,6.2,63.4C6.2,63.4,6.3,63.4,6.2,63.4
					c0.1,0,0.2,0,0.2,0.1c0.3,0.1,0.7,0.4,1.1,0.9c0,0.1,0.1,0.1,0.2,0.1c0.1,0,0.1-0.1,0.1-0.2c0,0,0.1-0.5,0.3-1c0,0,0,0,0,0
					c0,0,0,0,0,0c0.2,0.5,0.5,1.5,0.1,2.5c0,0,0,0,0,0c0,0,0,0,0,0C7.8,65.6,6.8,65.1,6.2,63.4 M7.6,66.7c-0.2-0.3-0.5-0.7-0.6-1.1
					c0,0,0,0,0,0c0,0,0,0,0,0c0.1,0,0.1,0,0.2,0.1c0.3,0.1,0.7,0.3,1.1,0.8c0.1,0.1,0.1,0.1,0.2,0c0.1,0,0.1-0.1,0.1-0.2
					c0,0,0-0.5,0.2-1c0,0,0,0,0,0c0,0,0,0,0,0C9,65.5,9,65.7,9.1,65.9c0.2,0.7,0.3,1.3,0.1,1.8c0,0,0,0,0,0l0,0
					c-0.1,0-0.4-0.1-0.8-0.3C8.1,67.3,7.8,67,7.6,66.7 M7.9,67.8C7.9,67.8,7.9,67.8,7.9,67.8C7.9,67.7,7.9,67.7,7.9,67.8
					c0.4,0,0.9,0.2,1.4,0.6c0.1,0,0.1,0.1,0.2,0c0.1,0,0.1-0.1,0.1-0.2c0,0-0.1-0.5,0.1-1c0,0,0,0,0,0c0,0,0,0,0,0
					c0.1,0.2,0.2,0.4,0.3,0.6c0.2,0.4,0.4,1.1,0.3,1.8c0,0,0,0,0,0c-0.2,0-0.5,0-0.8-0.2c-0.3-0.1-0.6-0.4-0.9-0.6
					C8.4,68.5,8.1,68.2,7.9,67.8 M10,70.7c-0.3-0.2-0.6-0.5-0.9-0.9c0,0,0,0,0,0c0,0,0,0,0,0c0.4,0,0.9,0.1,1.5,0.5
					c0.1,0,0.1,0,0.2,0s0.1-0.1,0.1-0.2c0,0-0.1-0.5-0.1-1c0,0,0,0,0,0c0,0,0,0,0,0c0.4,0.4,1,1.3,0.9,2.3c0,0,0,0,0,0
					c0,0-0.1,0-0.1,0c-0.2,0-0.4,0-0.7-0.1C10.6,71.1,10.3,70.9,10,70.7 M13.3,72.9c-0.1,0-0.2,0-0.3,0c-0.2,0-0.3,0-0.5,0
					c-0.6-0.1-1.3-0.5-2-1.1c0,0,0,0,0,0c0,0,0,0,0,0c0.4,0,0.9,0,1.6,0.2c0.1,0,0.1,0,0.2,0s0.1-0.1,0-0.2c0,0-0.2-0.5-0.2-1
					c0,0,0,0,0,0c0,0,0,0,0,0C12.6,71,13.3,71.8,13.3,72.9C13.3,72.9,13.3,72.9,13.3,72.9 M17.7,74.8c-0.5-0.1-1-0.3-1.5-0.5
					c-0.9-0.4-1.7-0.8-2.5-1.4c0,0,0,0,0,0c0-0.3,0-0.6-0.1-0.9c0,0,0,0,0,0c0,0,0,0,0,0c0.6,0.5,1.1,0.9,1.7,1.2
					c0.7,0.4,1.4,0.7,2.1,0.9v0l0.2,0.1C17.5,74.4,17.6,74.6,17.7,74.8L17.7,74.8z M18.9,74.2c-0.1,0.3-0.1,0.5,0.1,0.8c0,0,0,0,0,0
					c0,0,0,0,0,0c0,0,0,0,0,0c-0.3-0.1-0.6-0.3-0.7-0.4c-0.1-0.2-0.2-0.3-0.2-0.5c0-0.2,0.1-0.3,0.2-0.3c0.2-0.1,0.6-0.2,1-0.1
					c0,0,0,0,0,0c0,0,0,0,0,0C19.1,73.8,19,74,18.9,74.2 M20.3,76.6c-0.3,0-0.6-0.3-0.6-0.6c0-0.3,0.3-0.6,0.6-0.6s0.6,0.3,0.6,0.6
					C21,76.3,20.7,76.6,20.3,76.6 M21.1,75.1C21.1,75.1,21.1,75.1,21.1,75.1c-0.2-0.2-0.5-0.3-0.8-0.3c-0.3,0-0.5,0.1-0.7,0.3
					c0,0,0,0,0,0c0,0,0,0,0,0c-0.2-0.2-0.3-0.4-0.2-0.7c0.2-0.6,1-0.6,1-0.6h0c0.1,0,0.2,0,0.4,0.1c0.3,0.1,0.5,0.3,0.6,0.5
					C21.4,74.7,21.3,74.9,21.1,75.1 M22.5,74.6c-0.1,0.2-0.4,0.3-0.7,0.4c0,0,0,0,0,0c0,0,0,0,0,0c0,0,0,0,0,0
					c0.1-0.3,0.1-0.5,0.1-0.8c-0.1-0.2-0.2-0.4-0.4-0.6c0,0,0,0,0,0c0,0,0,0,0,0c0.3,0,0.8,0,1,0.1c0.1,0.1,0.2,0.2,0.2,0.3
					C22.6,74.3,22.6,74.5,22.5,74.6 M27,72.9C27,72.9,27,72.9,27,72.9c-0.2,0.1-0.8,0.6-1.8,1.1c-0.7,0.3-1.4,0.6-2.1,0.8l-0.1,0
					c0.1-0.2,0.2-0.5,0.2-0.7l0.2-0.1v0c0.7-0.2,1.4-0.5,2.1-0.9c0.6-0.4,1.2-0.8,1.7-1.2c0,0,0,0,0,0c0,0,0,0,0,0
					C27,72.2,27,72.6,27,72.9 M25.2,72.8c-0.7,0.4-1.4,0.7-2.1,0.9l-0.1,0c-0.1-0.1-0.2-0.2-0.3-0.3c-0.7-0.4-2-0.1-2.3,0
					c0,0,0,0,0,0c-0.4-0.1-1.7-0.4-2.3,0c-0.1,0.1-0.2,0.2-0.3,0.3l-0.1,0c-0.7-0.2-1.4-0.5-2-0.9c-1.5-0.8-2.8-2-4-3.5
					c-0.4-0.5-0.8-1.1-1.1-1.7c0,0,0,0,0,0c0,0,0,0,0,0c0.8-0.3,2.8-1.3,4.6-2.2c0,0,0,0,0,0c0,0,0,0,0,0c0,0.1,0,0.1,0.1,0.2
					c0.1,0.3,0.5,0.5,0.8,0.5c0.1,0,0.2,0,0.3,0c0,0,0,0,0,0c0.1,0.3,0.4,0.5,0.7,0.6c0.1,0,0.2,0.1,0.4,0.1c0,0,0,0,0,0
					c0.1,0.2,0.2,0.3,0.3,0.4c0.3,0.2,0.8,0.2,1.1,0.2c0,0,0,0,0,0c0.2,0.2,0.3,0.3,0.6,0.3c0.2,0,0.5,0,0.7-0.1c0,0,0,0,0,0
					c0,0,0,0,0,0v3.1c0,0.2,0.2,0.4,0.4,0.4c0.2,0,0.4-0.2,0.4-0.4v-3.2c0,0,0,0,0,0c0,0,0,0,0,0c0.4,0.1,0.8,0,1-0.1
					c0.2-0.1,0.3-0.2,0.4-0.2c0,0,0,0,0,0c0.4,0.1,0.7,0,1-0.3c0.1-0.1,0.2-0.2,0.2-0.3c0,0,0,0,0,0h0c0,0,0.1,0,0.1,0
					c0.5,0,0.8-0.2,1-0.4c0.1-0.1,0.1-0.2,0.2-0.3c0,0,0,0,0,0c0.3,0,0.6-0.1,0.8-0.3c0.1-0.1,0.2-0.2,0.2-0.3c0,0,0,0,0,0
					c0,0,0,0,0,0c1.4,1.1,3.6,2.1,4.5,2.4c0,0,0,0,0,0c0,0,0,0,0,0c-0.3,0.6-0.7,1.1-1,1.6C28,70.8,26.6,72,25.2,72.8 M30.1,71.7
					L30.1,71.7c-0.8,0.8-1.5,1-2,1.1c-0.2,0-0.3,0-0.5,0c-0.1,0-0.2,0-0.3,0c0,0,0,0,0,0c0-0.6,0.2-1.2,0.7-1.7
					c0.1-0.2,0.3-0.3,0.5-0.5c0,0,0,0,0,0c0,0,0,0,0,0c-0.1,0.5-0.2,1-0.2,1c0,0.1,0,0.1,0,0.2c0.1,0.1,0.1,0.1,0.2,0
					C29.2,71.6,29.8,71.6,30.1,71.7C30.1,71.7,30.1,71.7,30.1,71.7C30.1,71.7,30.1,71.7,30.1,71.7 M31.6,69.8
					c-0.3,0.4-0.6,0.7-0.9,0.9c-0.3,0.2-0.6,0.4-1,0.5c-0.3,0.1-0.6,0.1-0.7,0.1c0,0-0.1,0-0.1,0c0,0,0,0,0,0c0-0.6,0.1-1.2,0.5-1.8
					c0.1-0.2,0.3-0.4,0.4-0.5c0,0,0,0,0,0c0,0,0,0,0,0c0,0.5,0,1-0.1,1c0,0.1,0,0.1,0.1,0.2c0.1,0,0.1,0,0.2,0
					C30.7,69.9,31.2,69.8,31.6,69.8C31.6,69.7,31.6,69.7,31.6,69.8C31.6,69.8,31.6,69.8,31.6,69.8 M32.8,67.8
					c-0.2,0.4-0.5,0.7-0.8,1c-0.3,0.3-0.6,0.5-0.9,0.6c-0.4,0.2-0.7,0.2-0.8,0.2c0,0,0,0,0,0c-0.1-0.6,0-1.2,0.3-1.8
					c0.1-0.2,0.2-0.4,0.3-0.6c0,0,0,0,0,0c0,0,0,0,0,0c0.1,0.5,0.1,1,0.1,1c0,0.1,0,0.1,0.1,0.2c0.1,0,0.1,0,0.2,0
					C31.9,68,32.4,67.8,32.8,67.8C32.8,67.7,32.8,67.7,32.8,67.8C32.8,67.8,32.8,67.8,32.8,67.8 M33.7,65.6L33.7,65.6
					c-0.2,0.4-0.4,0.8-0.6,1.1c-0.2,0.3-0.5,0.5-0.8,0.7c-0.3,0.2-0.6,0.3-0.8,0.3l0,0c0,0,0,0,0,0c-0.2-0.6-0.1-1.2,0.1-1.8
					c0.1-0.2,0.2-0.4,0.3-0.6c0,0,0,0,0,0c0,0,0,0,0,0c0.2,0.5,0.2,1,0.2,1c0,0.1,0.1,0.1,0.1,0.2c0.1,0,0.1,0,0.2,0c0,0,0,0,0,0
					c0.4-0.5,0.9-0.7,1.1-0.8C33.6,65.6,33.7,65.6,33.7,65.6C33.7,65.6,33.7,65.6,33.7,65.6C33.7,65.6,33.7,65.6,33.7,65.6
					 M34.4,63.4L34.4,63.4c-0.1,0.4-0.3,0.8-0.5,1.1c-0.2,0.3-0.5,0.6-0.7,0.8c-0.3,0.2-0.6,0.3-0.8,0.4c0,0,0,0,0,0c0,0,0,0,0,0
					c-0.3-0.7-0.2-1.4-0.1-1.9c0.1-0.2,0.1-0.4,0.2-0.6c0,0,0,0,0,0s0,0,0,0c0.2,0.5,0.3,1,0.3,1c0,0.1,0.1,0.1,0.1,0.2
					c0.1,0,0.1,0,0.2-0.1C33.6,63.8,34.1,63.5,34.4,63.4C34.4,63.4,34.4,63.4,34.4,63.4C34.4,63.4,34.4,63.4,34.4,63.4 M34.5,62.2
					c-0.2,0.3-0.4,0.6-0.6,0.9c-0.3,0.3-0.6,0.4-0.7,0.5c0,0,0,0,0,0c0,0,0,0,0,0c-0.3-0.5-0.4-1.2-0.3-1.9c0-0.2,0.1-0.4,0.1-0.7
					c0,0,0,0,0,0c0,0,0,0,0,0c0.3,0.4,0.4,1,0.4,1c0,0.1,0.1,0.1,0.1,0.1c0.1,0,0.1,0,0.2-0.1c0.4-0.6,0.8-0.9,1.1-1.1c0,0,0,0,0,0
					c0,0,0,0,0,0C34.8,61.5,34.7,61.9,34.5,62.2"/>
			</g>
		</g>
	</g>
</g>
</svg>
