<?xml version="1.0" encoding="utf-8"?>
<!-- Generator: Adobe Illustrator 24.2.1, SVG Export Plug-In . SVG Version: 6.00 Build 0)  -->
<svg version="1.1" id="Capa_1" xmlns="http://www.w3.org/2000/svg" xmlns:xlink="http://www.w3.org/1999/xlink" x="0px" y="0px"
	 viewBox="0 0 149.3 82" style="enable-background:new 0 0 149.3 82;" xml:space="preserve">
<style type="text/css">
	.st0{fill:#FFFFFF;}
</style>
<g>
	<g>
		<g>
			<path class="st0" d="M56.2,58.3L55,54.5c0-0.1-0.2-0.2-0.3-0.2h-5.2c-0.1,0-0.3,0.1-0.3,0.2L48,58.3c0,0.1-0.2,0.2-0.3,0.2h-1.9
				c-0.2,0-0.4-0.2-0.3-0.4l4.7-13.9c0-0.1,0.2-0.2,0.3-0.2h3.3c0.1,0,0.3,0.1,0.3,0.2l4.7,13.9c0.1,0.2-0.1,0.4-0.3,0.4h-1.9
				C56.4,58.5,56.3,58.4,56.2,58.3z M50.4,52.2h3.4c0.2,0,0.4-0.2,0.3-0.4l-1.7-5.3c-0.1-0.3-0.5-0.3-0.6,0l-1.7,5.3
				C50,52,50.1,52.2,50.4,52.2z"/>
			<path class="st0" d="M60.7,47.8h1.5c0.2,0,0.3,0.1,0.3,0.3l0.2,1.1h0.1c0.3-0.5,0.7-0.9,1.2-1.1c0.5-0.3,1.1-0.4,1.7-0.4
				c0.2,0,0.4,0,0.6,0c0.2,0,0.3,0.2,0.3,0.3v1.7c0,0.2-0.2,0.3-0.3,0.3c-0.2,0-0.4,0-0.7,0c-0.5,0-1,0.1-1.5,0.3
				c-0.5,0.2-0.8,0.5-1.1,0.8c0,0.1-0.1,0.1-0.1,0.2v6.9c0,0.2-0.1,0.3-0.3,0.3h-1.9c-0.2,0-0.3-0.1-0.3-0.3V48.1
				C60.3,47.9,60.5,47.8,60.7,47.8z"/>
			<path class="st0" d="M69.7,62.9c-0.5-0.1-1-0.2-1.5-0.3c-0.1,0-0.2-0.2-0.2-0.3v-1.4c0-0.2,0.2-0.4,0.4-0.3c1,0.3,2,0.4,2.9,0.4
				c0.7,0,1.3-0.1,1.8-0.3c0.5-0.2,0.8-0.5,1-0.9c0.2-0.4,0.3-1,0.3-1.6v-0.8h-0.1c-0.3,0.4-0.7,0.7-1.2,0.9c-0.5,0.2-1,0.3-1.6,0.3
				c-0.8,0-1.5-0.2-2.1-0.6c-0.6-0.4-1.1-0.9-1.5-1.7c-0.4-0.8-0.6-1.8-0.6-2.9c0-1.9,0.5-3.3,1.5-4.3c1-1,2.4-1.5,4.4-1.5
				c0.6,0,1.3,0,2,0.1c0.6,0.1,1.1,0.2,1.6,0.3c0.1,0,0.2,0.2,0.2,0.3v9.3c0,1.2-0.2,2.2-0.6,3c-0.4,0.8-1,1.3-1.8,1.7
				c-0.8,0.4-1.8,0.5-3.1,0.5C70.9,63,70.3,63,69.7,62.9z M73.5,56.2c0.3-0.1,0.6-0.3,0.8-0.6c0.1-0.1,0.1-0.1,0.1-0.2V50
				c0-0.2-0.1-0.3-0.3-0.3c-0.4-0.1-0.8-0.1-1.2-0.1c-1,0-1.8,0.3-2.3,0.8c-0.5,0.6-0.8,1.5-0.8,2.7c0,1.2,0.2,2.1,0.6,2.6
				c0.4,0.5,1,0.8,1.8,0.8C72.7,56.5,73.1,56.4,73.5,56.2z"/>
			<path class="st0" d="M87.9,53.9h-6c-0.2,0-0.3,0.2-0.3,0.4c0.1,0.5,0.2,1,0.4,1.3c0.2,0.4,0.6,0.7,1.1,0.9
				c0.5,0.2,1.1,0.3,1.9,0.3c0.7,0,1.5-0.1,2.3-0.3c0.2,0,0.4,0.1,0.4,0.3V58c0,0.1-0.1,0.3-0.2,0.3c-0.9,0.2-1.9,0.3-2.8,0.3
				c-1.3,0-2.3-0.2-3.1-0.6c-0.8-0.4-1.4-1-1.8-1.8c-0.4-0.8-0.6-1.9-0.6-3.2c0-1.2,0.2-2.2,0.6-3c0.4-0.8,0.9-1.4,1.6-1.9
				c0.7-0.4,1.6-0.6,2.6-0.6c1.5,0,2.6,0.5,3.3,1.4c0.8,0.9,1.1,2.3,1.1,4.2v0.4C88.2,53.8,88.1,53.9,87.9,53.9z M82.1,50
				c-0.3,0.4-0.5,1.1-0.6,2c0,0.2,0.1,0.3,0.3,0.3h3.6c0.2,0,0.3-0.1,0.3-0.3c0-0.9-0.2-1.6-0.5-2c-0.3-0.5-0.9-0.7-1.5-0.7
				C83,49.3,82.5,49.5,82.1,50z"/>
			<path class="st0" d="M90.4,47.8H92c0.2,0,0.3,0.1,0.3,0.3l0.1,0.9h0.1c0.4-0.4,0.9-0.7,1.4-1c0.6-0.2,1.1-0.3,1.8-0.3
				c1.1,0,2,0.3,2.6,1c0.6,0.7,1,1.7,1,3.1v6.5c0,0.2-0.1,0.3-0.3,0.3h-1.9c-0.2,0-0.3-0.1-0.3-0.3v-6.4c0-0.7-0.2-1.2-0.5-1.5
				s-0.7-0.5-1.3-0.5c-0.4,0-0.9,0.1-1.3,0.3c-0.4,0.2-0.7,0.4-1,0.7c0,0.1-0.1,0.1-0.1,0.2v7.1c0,0.2-0.1,0.3-0.3,0.3h-1.9
				c-0.2,0-0.3-0.1-0.3-0.3V48.1C90.1,47.9,90.3,47.8,90.4,47.8z"/>
			<path class="st0" d="M108.2,56.8v1.4c0,0.1-0.1,0.3-0.3,0.3c-0.5,0.1-1.1,0.2-1.6,0.2c-2.5,0-3.8-1.3-3.8-3.8v-4.7
				c0-0.2-0.1-0.3-0.3-0.3H101c-0.2,0-0.3-0.1-0.3-0.3v-1.4c0-0.2,0.1-0.3,0.3-0.3h1.3c0.2,0,0.3-0.1,0.3-0.3l0.4-3.3
				c0-0.2,0.2-0.3,0.3-0.3h1.5c0.2,0,0.3,0.1,0.3,0.3v3.2c0,0.2,0.1,0.3,0.3,0.3h2.4c0.2,0,0.3,0.1,0.3,0.3v1.4
				c0,0.2-0.1,0.3-0.3,0.3h-2.4c-0.2,0-0.3,0.1-0.3,0.3v4.3c0,0.5,0.1,0.9,0.2,1.2c0.1,0.3,0.3,0.5,0.6,0.7c0.3,0.1,0.6,0.2,1.1,0.2
				c0.2,0,0.5,0,0.8-0.1C108,56.4,108.2,56.6,108.2,56.8z"/>
			<path class="st0" d="M110.1,45.6c-0.3-0.2-0.4-0.6-0.4-1c0-0.5,0.1-0.8,0.4-1c0.3-0.2,0.7-0.4,1.2-0.4s1,0.1,1.2,0.4
				c0.3,0.2,0.4,0.6,0.4,1c0,0.5-0.1,0.8-0.4,1c-0.3,0.2-0.7,0.4-1.2,0.4S110.4,45.8,110.1,45.6z M110,58.2V48.1
				c0-0.2,0.1-0.3,0.3-0.3h2c0.2,0,0.3,0.1,0.3,0.3v10.1c0,0.2-0.1,0.3-0.3,0.3h-2C110.2,58.5,110,58.3,110,58.2z"/>
			<path class="st0" d="M115,47.8h1.5c0.2,0,0.3,0.1,0.3,0.3l0.1,0.9h0.1c0.4-0.4,0.9-0.7,1.4-1c0.6-0.2,1.1-0.3,1.8-0.3
				c1.1,0,2,0.3,2.6,1c0.6,0.7,1,1.7,1,3.1v6.5c0,0.2-0.1,0.3-0.3,0.3h-1.9c-0.2,0-0.3-0.1-0.3-0.3v-6.4c0-0.7-0.2-1.2-0.5-1.5
				c-0.3-0.3-0.7-0.5-1.3-0.5c-0.4,0-0.9,0.1-1.3,0.3c-0.4,0.2-0.7,0.4-1,0.7c0,0.1-0.1,0.1-0.1,0.2v7.1c0,0.2-0.1,0.3-0.3,0.3H115
				c-0.2,0-0.3-0.1-0.3-0.3V48.1C114.7,47.9,114.8,47.8,115,47.8z"/>
			<path class="st0" d="M132.6,48c0.7,0.3,1.2,0.7,1.5,1.3c0.3,0.6,0.5,1.5,0.5,2.5v6.3c0,0.2-0.1,0.3-0.3,0.3h-1.6
				c-0.2,0-0.3-0.1-0.3-0.3l-0.1-0.8h-0.1c-0.3,0.4-0.7,0.7-1.2,1c-0.5,0.2-1.1,0.3-1.7,0.3c-0.7,0-1.3-0.1-1.8-0.4
				c-0.5-0.2-0.9-0.6-1.2-1.1c-0.3-0.5-0.4-1-0.4-1.6c0-1,0.3-1.8,1-2.3c0.7-0.5,1.8-0.9,3.2-1l2-0.2v-0.4c0-0.5-0.1-1-0.3-1.3
				c-0.2-0.3-0.4-0.5-0.8-0.7c-0.4-0.1-0.9-0.2-1.5-0.2c-0.4,0-0.9,0-1.4,0.1c-0.4,0.1-0.7,0.1-1.1,0.2c-0.2,0.1-0.4-0.1-0.4-0.3
				v-1.3c0-0.1,0.1-0.3,0.2-0.3c0.4-0.1,0.9-0.2,1.4-0.3c0.6-0.1,1.2-0.1,1.7-0.1C131,47.6,131.9,47.7,132.6,48z M131.1,56.6
				c0.3-0.1,0.6-0.3,0.9-0.6c0.1-0.1,0.1-0.1,0.1-0.2V54c0-0.2-0.2-0.3-0.3-0.3l-1.4,0.1c-0.7,0.1-1.2,0.2-1.5,0.5
				c-0.3,0.3-0.5,0.6-0.5,1.1c0,0.5,0.1,0.8,0.4,1.1c0.3,0.2,0.7,0.4,1.2,0.4C130.4,56.8,130.8,56.8,131.1,56.6z"/>
		</g>
		<g>
			<path class="st0" d="M45.5,65.6c0.8-0.1,1.5-0.2,2.2-0.2c1.1,0,2,0.2,2.5,0.7c0.6,0.4,0.8,1.1,0.8,2.1c0,0.9-0.3,1.6-0.8,2.1
				c-0.6,0.5-1.4,0.7-2.5,0.7c-0.2,0-0.5,0-0.9,0v2.4h-1.4V65.6z M49.2,69.5c0.3-0.3,0.5-0.7,0.5-1.3c0-0.6-0.2-1-0.5-1.3
				c-0.3-0.3-0.8-0.4-1.4-0.4c-0.3,0-0.6,0-0.9,0.1v3.3c0.2,0,0.5,0.1,0.9,0.1C48.4,69.9,48.9,69.7,49.2,69.5z"/>
			<path class="st0" d="M52.3,67.6h1.1l0.1,0.8h0.1c0.2-0.3,0.4-0.5,0.7-0.6c0.3-0.1,0.6-0.2,0.9-0.2c0.2,0,0.3,0,0.5,0v1.3
				c-0.1,0-0.3,0-0.5,0c-0.3,0-0.5,0.1-0.8,0.2c-0.3,0.1-0.5,0.3-0.6,0.5v3.9h-1.4V67.6z"/>
			<path class="st0" d="M61.2,70.9h-3.6c0,0.4,0.1,0.7,0.2,0.9s0.3,0.4,0.6,0.5c0.3,0.1,0.6,0.1,1,0.1c0.4,0,0.9-0.1,1.4-0.2v1.1
				c-0.6,0.1-1.1,0.2-1.6,0.2c-0.7,0-1.3-0.1-1.7-0.3c-0.4-0.2-0.8-0.5-1-1c-0.2-0.4-0.3-1-0.3-1.7c0-0.6,0.1-1.2,0.3-1.6
				c0.2-0.4,0.5-0.8,0.9-1c0.4-0.2,0.8-0.3,1.4-0.3c0.8,0,1.4,0.3,1.8,0.8c0.4,0.5,0.6,1.3,0.6,2.3V70.9z M58,68.8
				c-0.2,0.3-0.3,0.7-0.3,1.3h2.3c0-0.6-0.1-1-0.3-1.3c-0.2-0.3-0.5-0.4-0.8-0.4C58.4,68.4,58.1,68.5,58,68.8z"/>
			<path class="st0" d="M62.2,73.2v-1c0.6,0.2,1.1,0.3,1.7,0.3c0.4,0,0.7-0.1,0.9-0.2c0.2-0.1,0.3-0.3,0.3-0.5c0-0.2,0-0.3-0.1-0.4
				c-0.1-0.1-0.3-0.2-0.5-0.2l-0.9-0.2c-0.5-0.1-0.9-0.3-1.2-0.6c-0.2-0.3-0.4-0.6-0.4-1.1c0-0.4,0.1-0.7,0.3-0.9
				c0.2-0.3,0.5-0.5,0.9-0.6c0.4-0.1,0.9-0.2,1.4-0.2c0.5,0,1,0.1,1.5,0.2v1c-0.5-0.1-0.9-0.2-1.4-0.2c-0.9,0-1.3,0.2-1.3,0.7
				c0,0.2,0,0.3,0.1,0.4c0.1,0.1,0.3,0.2,0.5,0.2l0.9,0.2c0.5,0.1,0.9,0.3,1.2,0.5c0.2,0.3,0.4,0.6,0.4,1.1c0,0.4-0.1,0.7-0.3,1
				c-0.2,0.3-0.5,0.5-0.8,0.6c-0.4,0.1-0.8,0.2-1.3,0.2C63.3,73.4,62.8,73.4,62.2,73.2z"/>
			<path class="st0" d="M67.7,66.4c-0.1-0.1-0.2-0.3-0.2-0.6c0-0.2,0.1-0.4,0.2-0.6s0.4-0.2,0.7-0.2c0.3,0,0.5,0.1,0.7,0.2
				s0.2,0.3,0.2,0.6c0,0.2-0.1,0.4-0.2,0.6c-0.1,0.1-0.4,0.2-0.7,0.2C68,66.6,67.8,66.5,67.7,66.4z M67.6,73.3v-5.8H69v5.8H67.6z"/>
			<path class="st0" d="M71.4,73.1c-0.4-0.2-0.6-0.5-0.8-0.9c-0.2-0.4-0.3-1-0.3-1.6c0-1,0.3-1.8,0.8-2.3c0.5-0.5,1.3-0.8,2.3-0.8
				c0.2,0,0.5,0,0.8,0.1v-2.7h1.4v8.5h-1.2l-0.1-0.6h-0.1c-0.2,0.2-0.4,0.4-0.7,0.5c-0.3,0.1-0.6,0.2-0.9,0.2
				C72.2,73.4,71.8,73.3,71.4,73.1z M73.6,72.2c0.2-0.1,0.4-0.2,0.5-0.4v-3.2c-0.2-0.1-0.5-0.1-0.8-0.1c-0.6,0-1,0.2-1.3,0.5
				c-0.3,0.3-0.4,0.8-0.4,1.5c0,0.7,0.1,1.1,0.3,1.4c0.2,0.3,0.6,0.4,1,0.4C73.2,72.3,73.4,72.2,73.6,72.2z"/>
			<path class="st0" d="M81.7,70.9h-3.6c0,0.4,0.1,0.7,0.2,0.9s0.3,0.4,0.6,0.5c0.3,0.1,0.6,0.1,1,0.1c0.4,0,0.9-0.1,1.4-0.2v1.1
				c-0.6,0.1-1.1,0.2-1.6,0.2c-0.7,0-1.3-0.1-1.7-0.3c-0.4-0.2-0.8-0.5-1-1c-0.2-0.4-0.3-1-0.3-1.7c0-0.6,0.1-1.2,0.3-1.6
				c0.2-0.4,0.5-0.8,0.9-1c0.4-0.2,0.8-0.3,1.4-0.3c0.8,0,1.4,0.3,1.8,0.8c0.4,0.5,0.6,1.3,0.6,2.3V70.9z M78.5,68.8
				c-0.2,0.3-0.3,0.7-0.3,1.3h2.3c0-0.6-0.1-1-0.3-1.3c-0.2-0.3-0.5-0.4-0.8-0.4C78.9,68.4,78.6,68.5,78.5,68.8z"/>
			<path class="st0" d="M82.9,67.6h1.1l0.1,0.6h0.1c0.2-0.2,0.5-0.4,0.8-0.5c0.3-0.1,0.6-0.2,1-0.2c0.6,0,1.1,0.2,1.4,0.5
				c0.3,0.4,0.5,0.9,0.5,1.7v3.7h-1.4v-3.6c0-0.4-0.1-0.7-0.2-0.8c-0.2-0.2-0.4-0.2-0.7-0.2c-0.2,0-0.5,0-0.7,0.1
				c-0.2,0.1-0.4,0.2-0.6,0.4v4.1h-1.4V67.6z"/>
			<path class="st0" d="M89.8,72.7c-0.5-0.5-0.7-1.2-0.7-2.2c0-1,0.3-1.8,0.8-2.2c0.5-0.5,1.3-0.7,2.3-0.7c0.4,0,0.9,0,1.3,0.1v1.1
				c-0.4-0.1-0.7-0.1-1.1-0.1c-0.4,0-0.7,0.1-1,0.2c-0.3,0.1-0.5,0.3-0.6,0.6c-0.1,0.3-0.2,0.6-0.2,1.1c0,0.7,0.1,1.1,0.4,1.4
				c0.3,0.3,0.7,0.4,1.2,0.4c0.2,0,0.4,0,0.6-0.1c0.2,0,0.4-0.1,0.7-0.2v1.1c-0.5,0.1-0.9,0.2-1.4,0.2C91,73.4,90.3,73.2,89.8,72.7z
				"/>
			<path class="st0" d="M94.6,66.4c-0.1-0.1-0.2-0.3-0.2-0.6c0-0.2,0.1-0.4,0.2-0.6s0.4-0.2,0.7-0.2c0.3,0,0.5,0.1,0.7,0.2
				s0.2,0.3,0.2,0.6c0,0.2-0.1,0.4-0.2,0.6c-0.1,0.1-0.4,0.2-0.7,0.2C95,66.6,94.7,66.5,94.6,66.4z M94.6,73.3v-5.8h1.4v5.8H94.6z"
				/>
			<path class="st0" d="M100.8,67.7c0.4,0.1,0.6,0.4,0.8,0.7c0.2,0.3,0.3,0.8,0.3,1.4v3.6h-1.1l-0.1-0.6h-0.1
				c-0.2,0.2-0.4,0.4-0.7,0.5c-0.3,0.1-0.6,0.2-0.9,0.2c-0.4,0-0.7-0.1-1-0.2c-0.3-0.1-0.5-0.3-0.6-0.6c-0.1-0.2-0.2-0.5-0.2-0.9
				c0-0.5,0.2-1,0.5-1.2c0.4-0.3,0.9-0.5,1.7-0.5l1.1-0.1v-0.2c0-0.3,0-0.5-0.1-0.7c-0.1-0.2-0.2-0.3-0.4-0.4
				c-0.2-0.1-0.5-0.1-0.8-0.1c-0.2,0-0.5,0-0.8,0.1c-0.3,0-0.5,0.1-0.8,0.2v-1.1c0.3-0.1,0.6-0.1,0.9-0.2c0.3,0,0.6-0.1,0.9-0.1
				C100,67.5,100.5,67.5,100.8,67.7z M100,72.3c0.2-0.1,0.4-0.2,0.5-0.4v-1.2l-0.9,0.1c-0.4,0-0.6,0.1-0.8,0.3
				c-0.2,0.1-0.3,0.3-0.3,0.6c0,0.3,0.1,0.4,0.2,0.6c0.1,0.1,0.4,0.2,0.7,0.2C99.7,72.4,99.9,72.4,100,72.3z"/>
		</g>
	</g>
	<g>
		<path class="st0" d="M21.7,35.7L21.7,35.7L21.7,35.7c0.5-0.1,0.9-0.1,1.2-0.1c1.1,0,1.3,0.4,1.3,0.4c0,0,0,0.1,0.2,0.1
			c0,0,0,0,0.1,0c0,0,0.1,0,0.1,0c0,0,0-0.1,0-0.1c0,0-0.3-0.7-1.4-0.9c0,0-0.6-0.1-1.3,0c-0.2,0-0.2,0.5-0.2,0.5c0,0.1,0,0.1,0,0.1
			C21.6,35.7,21.7,35.7,21.7,35.7"/>
		<path class="st0" d="M19.8,36.2L19.8,36.2c-0.3-0.1-0.9-0.1-0.9-0.1c-1,0-1.3,0.6-1.3,0.7c0,0.1,0,0.1,0,0.2c0,0,0.1,0,0.1,0
			c0.2,0,0.3-0.1,0.3-0.1c0,0,0.1-0.2,0.5-0.3c0,0,0,0,0,0c0,0,0,0,0,0c0,0.1,0,0.1,0,0.2c0,0.3,0.2,0.5,0.5,0.5
			c0.3,0,0.5-0.2,0.5-0.5c0-0.1,0-0.1,0-0.2c0,0,0,0,0,0c0,0,0,0,0,0c0.2,0.1,0.3,0.2,0.4,0.4c0,0.1,0.1,0.1,0.3,0.1
			c0,0,0.1,0,0.1,0c0,0,0-0.1,0-0.1C20.1,36.3,19.8,36.2,19.8,36.2"/>
		<path class="st0" d="M21.7,37c0.2,0,0.3,0,0.3-0.1c0.1-0.2,0.2-0.3,0.4-0.4c0,0,0,0,0,0s0,0,0,0c0,0.1,0,0.1,0,0.2
			c0,0.3,0.2,0.5,0.5,0.5c0.3,0,0.5-0.2,0.5-0.5c0-0.1,0-0.1,0-0.2c0,0,0,0,0,0c0,0,0,0,0,0c0.4,0.1,0.5,0.3,0.5,0.3
			c0,0,0.1,0.1,0.3,0.1c0,0,0.1,0,0.1-0.1c0,0,0-0.1,0-0.2c0,0-0.3-0.6-1.3-0.7c-0.1,0-0.6,0-0.9,0.1c0,0-0.3,0.2-0.5,0.7
			c0,0,0,0.1,0,0.1C21.6,37,21.6,37,21.7,37"/>
		<path class="st0" d="M17.3,36.1L17.3,36.1C17.3,36.1,17.3,36.1,17.3,36.1C17.3,36.1,17.4,36.1,17.3,36.1c0.2,0,0.2-0.1,0.2-0.1
			c0,0,0.3-0.7,2.5-0.3c0,0,0.1,0,0.1,0c0,0,0-0.1,0-0.1c0,0-0.1-0.4-0.2-0.5c-0.2,0-0.5-0.1-0.8-0.1c-0.3,0-0.5,0-0.5,0
			c-1.2,0.1-1.4,0.8-1.4,0.9C17.2,36,17.2,36,17.3,36.1C17.3,36.1,17.3,36.1,17.3,36.1"/>
		<path class="st0" d="M36.2,60.5c0-0.1,0-0.2-0.1-0.2c-0.1,0-0.1-0.1-0.2-0.1c0.1-0.1,0.1-0.2,0.2-0.4c0.2-0.5,0.3-1.1,0.3-1.8
			c0-0.1,0-0.2-0.1-0.2c-0.1,0-0.1-0.1-0.2,0c0-0.1,0.1-0.2,0.1-0.4c0.1-0.5,0.2-1.1,0.1-1.8c0-0.1-0.1-0.2-0.1-0.2
			c-0.1,0-0.1,0-0.2,0c0-0.1,0.1-0.3,0.1-0.4c0.1-0.5,0.1-1.2-0.1-1.8c0-0.1-0.1-0.2-0.2-0.2c0,0-0.1,0-0.1,0c0-0.1,0-0.2,0-0.3
			c0.1-0.6,0-1.2-0.1-1.8c0-0.1-0.1-0.2-0.2-0.2c-0.1,0-0.2,0-0.2,0c0,0,0,0,0,0c0-0.2,0-0.3,0-0.5c0-0.6-0.1-1.2-0.4-1.8
			c0-0.1-0.1-0.1-0.2-0.2c-0.1,0-0.2,0-0.2,0c0-0.1,0-0.3,0-0.4c-0.1-0.6-0.3-1.1-0.6-1.7c0-0.1-0.1-0.1-0.2-0.1
			c-0.1,0-0.1,0-0.2,0.1c0-0.1,0-0.3-0.1-0.4c-0.1-0.5-0.4-1.1-0.8-1.6c0-0.1-0.1-0.1-0.2-0.1c-0.1,0-0.2,0-0.2,0.1c0,0,0,0,0,0
			c0-0.2-0.1-0.3-0.2-0.5c-0.2-0.5-0.6-1-1-1.5c-0.1-0.1-0.2-0.1-0.2-0.1c-0.1,0-0.1,0.1-0.2,0.1c-0.1-0.1-0.2-0.3-0.2-0.4
			c-0.3-0.5-0.7-0.9-1.2-1.3c-0.1-0.1-0.2-0.1-0.2,0c-0.1,0-0.1,0.1-0.2,0.1c-0.3-0.4-0.8-0.8-1.3-1c0.1,0,0.1,0,0.2,0
			c0.7,0,1.3-0.1,1.3-0.1c0.2-0.1,0.3-0.2,0.3-0.4c0-0.2-0.2-0.3-0.4-0.3c-0.8,0-1.1-0.2-1.5-0.4c0,0-0.1,0-0.1-0.1L29,38
			c0.2,0,0.3-0.2,0.3-0.4c0-0.2-0.1-0.3-0.3-0.4L27.3,37c0.2-0.1,0.4-0.1,0.5-0.2c0.7-0.2,1.1-0.6,1.1-0.6c0.1-0.1,0.2-0.3,0.1-0.5
			c-0.1-0.2-0.3-0.2-0.5-0.2c-0.7,0.3-1.1,0.2-1.5,0.2c0,0-0.1,0-0.1,0l1.5-0.9c0.2-0.1,0.2-0.3,0.2-0.5c-0.1-0.2-0.3-0.3-0.4-0.2
			l-1.6,0.4c0.1-0.1,0.3-0.2,0.4-0.4c0.6-0.5,0.8-1,0.8-1c0.1-0.2,0-0.4-0.1-0.5c-0.1-0.1-0.3-0.1-0.5,0c-0.6,0.5-0.9,0.6-1.3,0.7
			c0,0-0.1,0-0.1,0l1-1.4c0.1-0.1,0.1-0.4,0-0.5s-0.3-0.1-0.5,0l-1.3,1c0.1-0.2,0.2-0.3,0.3-0.5c0.3-0.7,0.4-1.2,0.4-1.2
			c0-0.2-0.1-0.4-0.3-0.4c-0.2,0-0.4,0-0.4,0.2c-0.3,0.7-0.6,0.9-0.9,1.2c0,0-0.1,0-0.1,0.1l0.4-1.7c0-0.2,0-0.4-0.2-0.4
			c-0.2-0.1-0.4,0-0.5,0.2l-0.9,1.5c0-0.2,0-0.4,0-0.6c0-0.7-0.1-1.3-0.1-1.3c-0.1-0.2-0.2-0.3-0.4-0.3c-0.2,0-0.3,0.2-0.3,0.4
			c0,0.8-0.2,1.1-0.4,1.5c0,0,0,0.1-0.1,0.1l-0.3-1.7c0-0.2-0.2-0.3-0.4-0.3c-0.2,0-0.3,0.1-0.4,0.3l-0.2,1.6
			c-0.1-0.2-0.1-0.4-0.2-0.5c-0.2-0.7-0.6-1.1-0.6-1.1c-0.1-0.1-0.3-0.2-0.5-0.1c-0.2,0.1-0.2,0.3-0.2,0.5c0.3,0.7,0.2,1.1,0.2,1.5
			c0,0,0,0.1,0,0.1L18.2,30c-0.1-0.2-0.3-0.2-0.5-0.2c-0.2,0.1-0.3,0.3-0.2,0.4l0.4,1.6c-0.1-0.1-0.2-0.3-0.4-0.4
			c-0.5-0.5-0.9-0.8-1-0.8c-0.2-0.1-0.4,0-0.5,0.1c-0.1,0.1-0.1,0.3,0,0.5c0.5,0.6,0.6,0.9,0.7,1.3c0,0,0,0.1,0,0.1l-1.4-1
			c-0.1-0.1-0.4-0.1-0.5,0c-0.1,0.1-0.1,0.3,0,0.5l1,1.3c-0.2-0.1-0.3-0.2-0.5-0.3c-0.7-0.3-1.2-0.4-1.2-0.4c-0.2,0-0.4,0.1-0.4,0.3
			c0,0.2,0,0.4,0.2,0.4c0.7,0.3,0.9,0.6,1.2,0.9c0,0,0,0.1,0.1,0.1l-1.7-0.4c-0.2,0-0.4,0.1-0.4,0.2c-0.1,0.2,0,0.4,0.2,0.5l1.4,0.9
			c-0.2,0-0.4,0-0.6,0c-0.7,0-1.3,0.1-1.3,0.1c-0.2,0.1-0.3,0.2-0.3,0.4c0,0.2,0.2,0.3,0.4,0.3c0.8,0,1.1,0.2,1.5,0.4
			c0,0,0.1,0,0.1,0.1l-1.7,0.3c-0.2,0-0.3,0.2-0.3,0.4c0,0.2,0.1,0.3,0.3,0.4l1.7,0.2c-0.2,0.1-0.4,0.1-0.5,0.2
			c-0.7,0.2-1.1,0.6-1.1,0.6c-0.1,0.1-0.2,0.3-0.1,0.5c0.1,0.2,0.3,0.2,0.5,0.2c0.4-0.1,0.7-0.2,0.9-0.2c-0.5,0.4-0.7,0.7-0.8,0.8
			c-0.1,0.1-0.2,0.2-0.2,0.3c0-0.1-0.1-0.1-0.1-0.1c-0.1,0-0.2,0-0.2,0c-0.5,0.4-0.9,0.9-1.2,1.3c-0.1,0.1-0.2,0.3-0.2,0.4
			c0-0.1-0.1-0.1-0.2-0.1c-0.1,0-0.2,0-0.2,0.1c-0.5,0.5-0.8,1-1,1.5c-0.1,0.1-0.1,0.3-0.2,0.4c0,0-0.1-0.1-0.2-0.1
			c-0.1,0-0.2,0-0.2,0.1c-0.4,0.5-0.7,1.1-0.8,1.6c0,0.1-0.1,0.3-0.1,0.4c0,0,0,0,0,0c-0.1-0.1-0.1-0.1-0.2-0.1
			c-0.1,0-0.2,0.1-0.2,0.1c-0.3,0.6-0.5,1.2-0.6,1.7c0,0.1,0,0.3,0,0.4c0,0,0,0,0,0c-0.1-0.1-0.1-0.1-0.2-0.1
			c-0.1,0-0.2,0.1-0.2,0.2c-0.2,0.6-0.4,1.2-0.4,1.8c0,0.1,0,0.3,0,0.4c-0.1,0-0.2-0.1-0.2,0c-0.1,0-0.1,0.1-0.2,0.2
			C6,51.5,5.9,52.1,6,52.6c0,0.1,0,0.2,0,0.3c0,0-0.1,0-0.1,0c-0.1,0-0.1,0.1-0.2,0.2c-0.1,0.7-0.1,1.3-0.1,1.8
			c0,0.1,0.1,0.3,0.1,0.4c0,0-0.1,0-0.1,0c-0.1,0-0.1,0.1-0.1,0.2c-0.1,0.7-0.1,1.3,0.1,1.8c0,0.1,0.1,0.2,0.1,0.4
			c-0.1,0-0.1,0-0.2,0c-0.1,0-0.1,0.1-0.1,0.2c0,0.7,0.1,1.3,0.2,1.8c0.1,0.2,0.1,0.3,0.2,0.5c0,0-0.1,0-0.1,0c-0.1,0-0.2,0-0.2,0.1
			c-0.1,0.1-0.1,0.1-0.1,0.2c0.1,0.7,0.3,1.2,0.6,1.7c0.1,0.1,0.1,0.2,0.2,0.3c0,0-0.1,0-0.1,0.1C6,62.7,6,62.8,6,62.9
			c0.2,0.6,0.4,1.2,0.7,1.7c0.1,0.1,0.2,0.2,0.2,0.3c-0.1,0-0.1,0-0.2,0.1c-0.1,0.1-0.1,0.2,0,0.2c0.2,0.6,0.5,1.2,0.9,1.6
			c0.1,0.1,0.2,0.2,0.3,0.3c-0.1,0-0.1,0.1-0.2,0.1c0,0.1,0,0.2,0,0.2C8,68.1,8.3,68.6,8.7,69C8.8,69,8.9,69.1,9,69.2
			c-0.1,0-0.1,0.1-0.1,0.1c0,0.1,0,0.2,0,0.2c0.4,0.6,0.8,1,1.2,1.4c0.1,0.1,0.3,0.2,0.4,0.3c0,0-0.1,0-0.1,0
			c-0.1,0-0.1,0.1-0.2,0.2c0,0.1,0,0.2,0.1,0.2c0.5,0.5,0.9,0.9,1.4,1.1c0.4,0.2,0.8,0.4,1.2,0.4c0.3,0.1,0.6,0.1,0.9,0
			c0.8,0.6,1.7,1.1,2.6,1.5c0.8,0.3,1.5,0.6,2.3,0.7c0.1,0,0.2,0,0.3,0.1l0.3,0c0.2,0.1,0.3,0.1,0.4,0.1c0,0.1,0,0.2,0,0.2
			c0,0.1,0,0.2,0,0.3c-0.3,0.3-1.2,1.1-2.6,1.3l-0.1,0l0,0.1c0.1,0.1,0.2,0.3,0.4,0.4l0,0l0,0c1.2-0.2,2.1-0.9,2.5-1.3
			c0,0,0.1,0.1,0.1,0.1c-0.1,0.4-0.5,1.2-1.9,1.6l-0.1,0l0.1,0.1c0.3,0.1,0.5,0.2,0.8,0.2l0,0l0,0c1.1-0.5,1.4-1.2,1.6-1.6
			c0.1,0,0.3,0,0.4,0c0.1,0.4,0.5,1.1,1.6,1.6l0,0l0,0c0.3,0,0.6-0.1,0.8-0.2l0.1-0.1l-0.1,0c-1.4-0.4-1.8-1.2-1.9-1.6
			c0,0,0.1-0.1,0.1-0.1c0.4,0.4,1.3,1,2.5,1.3l0,0l0,0c0.2-0.2,0.3-0.4,0.4-0.4l0-0.1l-0.1,0c-1.3-0.2-2.2-0.9-2.6-1.3
			c0-0.1,0-0.2,0-0.3c0-0.1,0-0.2,0-0.2c0.1,0,0.3-0.1,0.4-0.1l0.3-0.1c0.4-0.1,0.7-0.1,1.1-0.2c0.8-0.2,1.5-0.5,2.3-0.9
			c1-0.5,1.7-1,1.9-1.2c0.3,0.1,0.6,0,0.9,0c0.4-0.1,0.8-0.2,1.2-0.4c0.5-0.3,0.9-0.6,1.4-1.1c0.1-0.1,0.1-0.2,0.1-0.2
			c0-0.1-0.1-0.2-0.2-0.2c0,0,0,0-0.1,0c0.1-0.1,0.3-0.2,0.4-0.3c0.4-0.3,0.8-0.8,1.2-1.4c0-0.1,0.1-0.2,0-0.2
			c0-0.1-0.1-0.1-0.1-0.1c0.1-0.1,0.2-0.2,0.3-0.2c0.4-0.4,0.8-0.9,1.1-1.5c0-0.1,0-0.2,0-0.2c0-0.1-0.1-0.1-0.2-0.1
			c0.1-0.1,0.2-0.2,0.3-0.3c0.4-0.4,0.6-1,0.9-1.6c0-0.1,0-0.2,0-0.2c0-0.1-0.1-0.1-0.2-0.1c0,0,0,0,0,0h0c0.1-0.1,0.2-0.2,0.2-0.3
			c0.3-0.5,0.5-1,0.7-1.7c0-0.1,0-0.2-0.1-0.2c-0.1-0.1-0.1-0.1-0.2-0.1c0.1-0.1,0.1-0.2,0.2-0.4C36,61.7,36.2,61.1,36.2,60.5
			 M35.9,58.4L35.9,58.4C36,58.4,36,58.4,35.9,58.4c0,0.5-0.1,0.9-0.2,1.3c-0.1,0.4-0.3,0.7-0.5,1c-0.3,0.3-0.6,0.5-0.7,0.5
			c0,0,0,0,0,0c0,0,0,0,0,0c-0.4-0.5-0.5-1.1-0.5-1.8c0-0.2,0-0.5,0.1-0.7c0,0,0,0,0,0c0,0,0,0,0,0c0.3,0.4,0.5,0.9,0.5,0.9
			c0,0.1,0.1,0.1,0.2,0.1c0,0,0,0,0,0c0.1,0,0.1,0,0.2-0.1C35.2,59,35.6,58.6,35.9,58.4C35.9,58.4,35.9,58.4,35.9,58.4 M35.9,56
			C35.9,56,35.9,56,35.9,56C35.9,56,35.9,56,35.9,56c0.1,0.5,0,0.9-0.1,1.3c-0.1,0.4-0.2,0.7-0.5,1c-0.2,0.3-0.5,0.5-0.6,0.6
			c0,0,0,0,0,0c0,0,0,0,0,0c-0.6-0.7-0.7-1.8-0.7-2.4c0,0,0,0,0,0c0,0,0,0,0,0c0.3,0.4,0.6,0.8,0.6,0.8c0,0.1,0.1,0.1,0.2,0.1
			c0.1,0,0.1-0.1,0.2-0.1C35.2,56.7,35.6,56.2,35.9,56 M35.6,53.6L35.6,53.6C35.6,53.6,35.6,53.6,35.6,53.6
			C35.7,53.6,35.7,53.6,35.6,53.6c0.1,0.5,0.1,0.9,0,1.3c-0.1,0.4-0.2,0.7-0.3,1.1c-0.2,0.4-0.5,0.6-0.5,0.7c0,0,0,0,0,0
			c0,0,0,0,0,0c-0.6-0.5-0.8-1.7-0.9-2.3c0,0,0,0,0,0c0,0,0,0,0,0c0.4,0.3,0.6,0.8,0.6,0.8c0,0.1,0.1,0.1,0.2,0.1
			c0.1,0,0.1-0.1,0.2-0.1C35,54.3,35.4,53.9,35.6,53.6 M35.2,51.3L35.2,51.3C35.3,51.3,35.3,51.3,35.2,51.3
			C35.3,51.3,35.3,51.3,35.2,51.3c0.1,0.5,0.1,0.9,0.1,1.3c0,0.4-0.1,0.8-0.3,1.1c-0.2,0.4-0.4,0.6-0.5,0.7c0,0,0,0,0,0c0,0,0,0,0,0
			c-0.5-0.5-0.8-1.1-0.9-1.6c-0.1-0.2-0.1-0.4-0.1-0.7c0,0,0,0,0,0c0,0,0,0,0,0c0.4,0.3,0.7,0.8,0.7,0.8c0,0.1,0.1,0.1,0.2,0.1
			c0.1,0,0.1-0.1,0.1-0.1C34.7,52.1,35,51.6,35.2,51.3 M22.9,63.8c0,0.1,0.1,0.1,0.1,0.2c0.8,0.4,1.4,1.2,1.7,1.5c0,0,0,0,0,0
			c0,0.1-0.1,0.1-0.1,0.2c-0.1,0.1-0.3,0.2-0.6,0.2c0,0,0,0,0,0c0,0,0,0,0,0c-0.1-0.2-0.2-0.4-0.4-0.6c-0.3-0.3-0.8-0.7-0.9-0.7
			c-0.1-0.1-0.3-0.1-0.4,0.1s-0.1,0.3,0.1,0.4c0.1,0.1,0.6,0.4,0.8,0.6c0.2,0.3,0.3,0.4,0.4,0.5c0,0,0,0,0,0c0,0.1-0.1,0.2-0.2,0.2
			c-0.1,0.1-0.3,0.2-0.5,0.1c0,0,0,0,0,0c-0.1-0.2-0.3-0.5-0.6-0.9c-0.1-0.1-0.3-0.1-0.4,0c-0.1,0.1-0.1,0.1-0.1,0.2
			c0,0.1,0,0.1,0.1,0.2c0.2,0.3,0.4,0.5,0.5,0.7c0,0,0,0,0,0c-0.1,0-0.1,0.1-0.2,0.1c-0.2,0.1-0.4,0.1-0.6,0.1c0,0,0,0,0,0s0,0,0,0
			c0.1-0.1,0.2-0.3,0.2-0.4c0-0.2,0-0.4-0.3-0.7c-0.1-0.1-0.4-0.3-0.8-0.2c0,0,0,0,0,0c0,0,0,0,0,0c0-0.2-0.1-0.4-0.3-0.6
			c-0.3-0.2-0.6-0.3-1-0.2c0,0,0,0,0,0l0,0c0,0,0,0,0,0c-0.1-0.1-0.2-0.4-0.5-0.5c-0.3-0.1-0.6-0.2-0.9-0.1c0,0,0,0,0,0
			c-0.3-0.2-0.6-0.3-0.7-0.3c-0.4-0.1-1,0.2-1.3,0.5c0,0,0,0,0,0c-1.9,1-4.3,2.1-5.3,2.5c0,0,0,0,0,0c0,0,0,0,0,0
			c-0.5-1-1-2-1.3-3.1c-0.1-0.3-0.2-0.6-0.3-1c0,0,0,0,0,0c0,0,0,0,0,0c2.8-0.3,5-0.6,6.6-1c1.7-0.3,2.8-0.7,3.3-1l0,0
			c0.7-0.5,1.1-0.7,1.7-0.6c0.2,0,0.4,0,0.5,0.1c0,0,0,0,0,0c0,0,0,0,0,0c-0.2,0.1-0.3,0.1-0.4,0.2c-0.3,0.2-0.4,0.3-0.6,0.4
			c-0.1,0.1-0.3,0.2-0.4,0.3c-0.1,0.1-0.3,0.2-0.5,0.2c-0.4,0.2-0.7,0.3-0.8,0.6l0,0l0,0c-0.1,0.3-0.1,0.5,0.1,0.8
			c0.3,0.4,0.7,0.4,1.1,0.3c0.4,0,0.9-0.2,1.3-0.4c0.1-0.1,0.3-0.2,0.4-0.2c0.2-0.1,0.3-0.2,0.4-0.2c0,0,0,0,0,0
			c0.3-0.1,0.7-0.1,1.2,0.1c0.4,0.2,0.8,0.4,1.2,0.6c0.9,0.6,1.5,1.3,1.7,1.6c0,0,0,0,0,0c0,0.1-0.1,0.2-0.2,0.3
			c-0.1,0.1-0.3,0.2-0.5,0.2c0,0,0,0,0,0c-0.3-0.4-1-1.2-1.9-1.7c-0.1-0.1-0.3,0-0.4,0.1C22.9,63.6,22.9,63.7,22.9,63.8 M20.8,66.7
			C20.8,66.7,20.8,66.7,20.8,66.7L20.8,66.7C20.6,66.8,20.3,67,20,67c0,0-0.1,0-0.1,0c-0.1,0-0.1,0-0.2-0.1c0,0,0,0,0,0
			c0.1-0.3,0.5-0.5,0.8-0.7c0.4-0.2,0.6-0.1,0.6-0.1c0.1,0.1,0.1,0.2,0.1,0.2C21.1,66.4,20.9,66.6,20.8,66.7L20.8,66.7L20.8,66.7z
			 M17.5,65.1c0.4-0.4,0.7-0.5,1-0.4c0.1,0,0.2,0.1,0.2,0.2c0,0,0,0.1,0,0.1c0,0,0,0,0,0c-0.1,0-0.1,0.1-0.2,0.1
			c-0.4,0.3-0.7,0.6-0.8,0.9c0,0,0,0,0,0h0c-0.1,0-0.1,0-0.2,0c-0.3-0.1-0.4-0.3-0.4-0.4C17.2,65.5,17.2,65.3,17.5,65.1 M17.1,64.7
			c-0.2,0.2-0.4,0.4-0.5,0.7c0,0,0,0,0,0h0c-0.1,0-0.1,0-0.2,0c-0.2,0-0.3-0.1-0.4-0.2c0,0-0.1-0.2,0.1-0.3c0.2-0.3,0.7-0.5,1-0.4
			c0,0,0,0,0,0c0,0,0.1,0,0.2,0c0,0,0,0,0,0c0,0,0,0,0,0C17.2,64.5,17.2,64.6,17.1,64.7 M18.8,65.6c0.5-0.4,0.8-0.5,1.1-0.3
			c0.1,0.1,0.1,0.1,0.1,0.2c0,0.1-0.1,0.2-0.2,0.3c-0.3,0.2-0.6,0.5-0.7,0.8c0,0,0,0,0,0c-0.1,0-0.2,0-0.3,0c-0.1,0-0.3,0-0.4-0.1
			c0,0-0.1-0.1-0.1-0.2C18.2,66.1,18.6,65.8,18.8,65.6 M24.6,40.4C24.6,40.4,24.6,40.4,24.6,40.4C24.6,40.4,24.6,40.4,24.6,40.4
			c0.2-0.1,0.5-0.2,0.7-0.2c0.7,0,1.2,0.2,1.7,0.6c0,0,0,0,0,0c0,0,0,0,0,0c-0.1,0-0.4,0.1-0.6,0.1c0,0-0.1,0-0.1,0
			C25.7,41.1,25.1,40.8,24.6,40.4 M25.4,41.4h-8.9c1.4-0.7,2.9-1.1,4.5-1.1C22.4,40.3,23.9,40.7,25.4,41.4 M26.5,39.5
			c-0.2,0.1-0.5,0.2-0.9,0.3c-0.2,0-0.4,0.1-0.6,0.1c-0.5,0-0.9-0.1-1.2-0.4c0,0,0,0,0,0c0,0,0,0,0,0c0.2-0.1,0.4-0.2,0.7-0.3
			c0.3-0.1,0.7-0.1,1,0C25.9,39.2,26.2,39.3,26.5,39.5C26.5,39.5,26.5,39.5,26.5,39.5C26.5,39.5,26.5,39.5,26.5,39.5 M24.4,38.8
			c-0.2,0.1-0.6,0.2-1.2,0.3c-0.1,0-0.1,0.1-0.2,0.1c0,0.1,0,0.2,0.1,0.2c0,0,0.5,0.3,0.8,0.7c0,0,0,0,0,0c0,0,0,0,0,0
			c-0.5,0-1.6-0.2-2.3-1.1c0,0,0,0,0,0c0.1-0.1,0.3-0.3,0.6-0.4C22.8,38.5,23.5,38.5,24.4,38.8C24.4,38.8,24.4,38.8,24.4,38.8
			C24.4,38.8,24.4,38.8,24.4,38.8 M21.9,38.4c-0.2,0.2-0.5,0.4-1.1,0.5c-0.1,0-0.1,0.1-0.1,0.2c0,0.1,0,0.2,0.1,0.2
			c0,0,0.5,0.2,0.9,0.5c0,0,0,0,0,0c0,0,0,0,0,0c-0.2,0-0.3,0-0.5,0c-0.6,0-1.4-0.1-2-0.6c0,0,0,0,0,0c0.1-0.1,0.3-0.3,0.5-0.5
			C20.3,38.4,21,38.3,21.9,38.4C21.9,38.3,21.9,38.4,21.9,38.4C21.9,38.4,21.9,38.4,21.9,38.4 M19.4,38.4c-0.1,0.2-0.4,0.5-1,0.8
			c-0.1,0-0.1,0.1-0.1,0.2c0,0.1,0.1,0.1,0.2,0.2c0,0,0.5,0.1,1,0.3c0,0,0,0,0,0c0,0,0,0,0,0c-0.2,0.1-0.4,0.1-0.7,0.2
			c-0.2,0-0.5,0.1-0.7,0.1c-0.4,0-0.8-0.1-1.2-0.2c0,0,0,0,0,0c0.1-0.1,0.2-0.4,0.4-0.6C17.8,38.8,18.5,38.5,19.4,38.4
			C19.4,38.4,19.4,38.4,19.4,38.4C19.4,38.4,19.4,38.4,19.4,38.4 M17,38.8L17,38.8c-0.1,0.3-0.4,0.7-0.9,1.1
			c-0.1,0.1-0.1,0.1-0.1,0.2c0,0.1,0.1,0.1,0.2,0.1h0c0,0,0.2,0,0.5,0c0.2,0,0.4,0.1,0.5,0.1c0,0,0,0,0,0c0,0,0,0,0,0
			c-0.2,0.1-0.4,0.2-0.6,0.3c-0.4,0.1-0.8,0.2-1.2,0.2c-0.2,0-0.5,0-0.7-0.1c0,0,0,0,0,0C14.9,40.4,15.2,39.4,17,38.8
			C17,38.8,17,38.8,17,38.8C17,38.8,17,38.8,17,38.8 M26.4,42c0.5,0.3,1,0.7,1.4,1.1H14c0.5-0.4,0.9-0.7,1.4-1.1H26.4z M28.5,43.7
			c0.3,0.3,0.7,0.7,1,1.1h-6.8c-0.9-0.7-1.9-0.6-2-0.6c-0.1,0-1,0-1.9,0.6h-6.5c0.3-0.4,0.6-0.7,1-1.1H28.5z M18.7,51.5
			c-0.6,0-1.1,0.1-1.6,0.4c0,0,0,0,0,0c0,0,0,0,0,0c0-0.1,0-0.1,0-0.2c0.3-1.6,0.9-2.7,1.4-3.3c0.3-0.5,0.7-0.8,0.8-0.9
			c0,0,0.1-0.1,0.1-0.1c0.1-0.1,0.2-0.3,0-0.5c-0.1-0.1-0.3-0.2-0.4-0.1c0,0-0.1,0-0.2,0.1c-0.2,0.2-0.5,0.2-0.6,0.1
			c-0.1-0.1-0.2-0.2-0.2-0.4c0.1-0.4,0.4-0.8,0.6-1c0,0,0,0,0,0c0.8-0.9,2-0.9,2-0.9c0,0,0.4,0,0.9,0.1c0.7,0.2,1.2,0.7,1.5,1.4
			c0.5,1,0.9,1.9,1.1,3c0,0,0,0,0,0c0,0,0,0,0,0C23.6,49,23,48.6,23,48.5c-0.1-0.1-0.3-0.1-0.5,0c-0.1,0.1-0.1,0.4,0,0.5
			c0,0,0.9,0.7,1.9,0.9c0,0,0,0,0,0c0.1,0.4,0.1,0.8,0.2,1.2c0,0,0,0,0,0c0,0,0,0,0,0c-0.3-0.2-0.7-0.3-1.1-0.4
			c-0.2-0.1-0.4-0.1-0.6-0.2c-0.7-0.3-1.3-0.8-1.3-0.8c-0.1-0.1-0.4-0.1-0.5,0.1c-0.1,0.1-0.1,0.4,0.1,0.5c0,0,0.7,0.5,1.5,0.9
			c0.2,0.1,0.4,0.1,0.7,0.2c0.9,0.2,1.3,0.4,1.3,0.9c0,0,0,0,0,0c0,0.1-0.1,0.1-0.1,0.2c-0.3,0.3-0.8,0.3-1.1,0.3c0,0-0.9,0-0.9,0
			c-0.2,0-1,0-1.8-0.5C20,51.8,19.3,51.6,18.7,51.5 M20.4,52.9C20.4,52.9,20.4,52.9,20.4,52.9l-2.7,0c-0.3,0-0.5-0.1-0.6-0.2
			c0,0-0.1-0.1-0.1-0.1c0,0,0,0,0,0C18.3,52,18.8,51.9,20.4,52.9C20.4,52.9,20.4,52.9,20.4,52.9 M21.3,55.3h12.2
			c0,0.4,0.1,0.8,0.1,1.1H21.3V55.3z M21.3,54.7v-1.1h12c0.1,0.4,0.1,0.7,0.1,1.1H21.3z M25.1,53c0.1-0.1,0.2-0.3,0.3-0.5
			c0,0,0,0,0-0.1c0-0.2,0.1-0.3,0-0.5H33c0.1,0.4,0.2,0.7,0.2,1.1H25.1z M25.4,51.4c-0.1-0.3-0.1-0.7-0.2-1.1h7.3
			c0,0.1,0.1,0.2,0.1,0.3c0.1,0.3,0.2,0.5,0.2,0.8H25.4z M25.1,49.7c-0.1-0.3-0.2-0.7-0.3-1.1h7c0.2,0.3,0.3,0.7,0.4,1.1H25.1z
			 M24.6,48c-0.1-0.3-0.3-0.7-0.4-1.1H31c0.2,0.3,0.4,0.7,0.6,1.1H24.6z M23.9,46.4c-0.1-0.1-0.1-0.3-0.2-0.4
			c-0.1-0.2-0.3-0.5-0.4-0.6h6.6c0.3,0.3,0.5,0.7,0.7,1.1H23.9z M18.1,45.3c-0.1,0.2-0.5,0.6-0.7,1.1h-6.3c0.2-0.4,0.5-0.7,0.7-1.1
			H18.1z M17.4,47c0,0.3,0.2,0.6,0.5,0.7c0.1,0,0.1,0.1,0.2,0.1c0,0,0,0,0,0c0,0,0,0,0,0C18,47.9,18,48,17.9,48h-7.7
			c0.2-0.4,0.4-0.7,0.6-1.1H17.4z M17.5,48.7c-0.2,0.3-0.4,0.7-0.5,1.1H9.5c0.1-0.4,0.3-0.7,0.4-1.1H17.5z M16.7,50.3
			c-0.1,0.3-0.2,0.7-0.3,1.1H9c0.1-0.3,0.2-0.5,0.2-0.8c0-0.1,0.1-0.2,0.1-0.3H16.7z M16.3,52c0,0.2,0,0.3,0,0.4c0,0,0,0,0,0.1
			c0,0.2,0.1,0.4,0.2,0.6h-8c0.1-0.4,0.1-0.7,0.2-1.1H16.3z M20.5,53.6v1.1H8.4c0-0.4,0.1-0.7,0.1-1.1H20.5z M20.5,55.3v1.1H8.2
			c0-0.4,0-0.8,0.1-1.1H20.5z M20.5,57.1v2.5c0,0,0,0,0,0c0,0,0,0,0,0c0,0-0.1,0-0.1,0c-0.7,0-1.2,0.3-1.9,0.7
			c-1,0.7-4.2,1.3-9.7,1.9c0,0,0,0,0,0c-0.4-1.6-0.6-3.3-0.6-5.1c0,0,0-0.1,0-0.1H20.5z M24.5,62.5c-0.6-0.4-1.7-1.1-2.8-0.8
			c-0.2,0-0.4,0.2-0.6,0.3c-0.1,0.1-0.2,0.1-0.3,0.2c-0.3,0.2-0.8,0.3-1.1,0.3c-0.3,0-0.5,0-0.6-0.1C19,62.3,19,62.3,19,62.2
			c0,0,0,0,0,0c0.1-0.1,0.3-0.2,0.5-0.3c0.2-0.1,0.4-0.2,0.5-0.3c0.2-0.1,0.3-0.2,0.5-0.4c0.1-0.1,0.3-0.2,0.5-0.4
			c0.3-0.2,0.7-0.2,1.2-0.3c0.1,0,0.2,0,0.3,0c0.1,0,0.1,0,0.2,0c0.6,0,1.1,0.2,1.9,0.4c0.2,0.1,0.5,0.2,0.8,0.3c0,0,0,0,0,0
			c0,0,1.1,0.3,2.6,0.7c1.3,0.3,3.1,0.7,4.9,0.8c0,0,0,0,0,0c0,0,0,0,0,0c-0.1,0.3-0.2,0.6-0.3,0.9c-0.4,1.1-0.8,2.2-1.4,3.2
			c0,0,0,0,0,0c0,0,0,0,0,0c-0.9-0.4-3-1.3-4.4-2.3c-0.3-0.2-0.5-0.4-0.6-0.5c0,0,0,0,0,0c0,0,0,0,0,0l0,0c0,0,0-0.1,0-0.1
			C25.9,63.7,25.3,63.1,24.5,62.5 M25.6,60.8c-0.3-0.1-0.5-0.2-0.8-0.3c-0.8-0.3-1.4-0.5-2.1-0.5c0,0-0.1,0-0.1,0c0,0,0,0,0,0
			c-0.4-0.2-0.7-0.3-1.2-0.4c0,0,0,0,0,0v-2.6h12.3c0,0,0,0.1,0,0.1c0,1.8-0.2,3.5-0.6,5.1c0,0,0,0,0,0h0
			C29.7,62.1,25.7,60.9,25.6,60.8 M34.5,49C34.5,49,34.5,49,34.5,49C34.6,49,34.6,49,34.5,49c0.2,0.4,0.3,0.9,0.3,1.3
			c0,0.4,0,0.8-0.1,1.1c-0.1,0.4-0.3,0.7-0.4,0.8c0,0,0,0,0,0c0,0,0,0,0,0c-0.5-0.3-0.9-0.8-1.1-1.5c-0.1-0.2-0.1-0.4-0.2-0.6
			c0,0,0,0,0,0c0,0,0,0,0,0c0.4,0.3,0.8,0.7,0.8,0.7c0.1,0.1,0.1,0.1,0.2,0.1c0.1,0,0.1-0.1,0.1-0.2C34.1,49.8,34.3,49.3,34.5,49
			 M33.1,48.5c0.1,0,0.1-0.1,0.1-0.2c0-0.7,0.2-1.2,0.3-1.6c0,0,0,0,0,0c0,0,0,0,0,0c0.2,0.4,0.3,0.8,0.4,1.2c0.1,0.4,0,0.8,0,1.1
			c-0.1,0.4-0.3,0.7-0.3,0.8c0,0,0,0,0,0c0,0,0,0,0,0c-0.5-0.3-1-0.7-1.3-1.4c-0.1-0.2-0.2-0.4-0.3-0.6c0,0,0,0,0,0c0,0,0,0,0,0
			c0.5,0.2,0.9,0.6,0.9,0.6C33,48.5,33.1,48.5,33.1,48.5L33.1,48.5 M32.2,46.5c0.1,0,0.1-0.1,0.1-0.2c-0.1-0.7,0-1.2,0.1-1.6
			c0,0,0,0,0,0h0c0,0,0,0,0,0c0.2,0.4,0.4,0.8,0.5,1.2c0.1,0.4,0.1,0.8,0.1,1.1c0,0.4-0.2,0.7-0.2,0.8c0,0,0,0,0,0c0,0,0,0,0,0
			c-0.6-0.2-1.1-0.6-1.5-1.2c-0.1-0.2-0.2-0.4-0.3-0.6c0,0,0,0,0,0c0,0,0,0,0,0c0.5,0.1,0.9,0.5,1,0.5C32,46.5,32.1,46.5,32.2,46.5
			 M30.7,44.6c0.1,0,0.2,0,0.2,0c0.1,0,0.1-0.1,0.1-0.2c-0.2-0.6-0.2-1.2-0.1-1.6c0,0,0,0,0,0c0,0,0,0,0,0c0.3,0.3,0.5,0.7,0.7,1.1
			c0.2,0.4,0.3,0.7,0.3,1.1c0,0.4-0.1,0.7-0.1,0.8c0,0,0,0,0,0l0,0c-0.6-0.1-1.1-0.4-1.6-1c-0.2-0.2-0.3-0.4-0.5-0.6c0,0,0,0,0,0
			c0,0,0,0,0,0C30.3,44.3,30.7,44.6,30.7,44.6 M29.2,42.9c0.1,0,0.2,0,0.2,0c0.1-0.1,0.1-0.1,0-0.2c-0.3-0.6-0.4-1.2-0.4-1.5
			c0,0,0,0,0,0c0,0,0,0,0,0c0.3,0.3,0.6,0.6,0.8,0.9c0.2,0.3,0.4,0.7,0.4,1c0.1,0.4,0.1,0.7,0.1,0.9c0,0,0,0,0,0c0,0,0,0,0,0
			c-0.7,0-1.3-0.4-1.7-0.7c-0.2-0.2-0.4-0.3-0.6-0.5c0,0,0,0,0,0c0,0,0,0,0,0C28.7,42.7,29.2,42.9,29.2,42.9 M28.7,41.4
			c0.2,0.4,0.2,0.8,0.2,1c0,0,0,0,0,0c0,0-0.1,0-0.1,0c-0.8,0-1.8-0.6-2.3-0.9c0,0,0,0,0,0c0,0,0,0,0,0c0.5-0.1,1,0,1,0
			c0.1,0,0.2,0,0.2-0.1c0-0.1,0-0.2,0-0.2c-0.3-0.4-0.5-0.9-0.6-1.2c0,0,0,0,0,0c0,0,0,0,0,0C27.9,40.2,28.4,40.7,28.7,41.4
			 M13.6,39.1C13.6,39.1,13.6,39.1,13.6,39.1C13.6,39.1,13.6,39.1,13.6,39.1c0.2-0.1,0.3-0.2,0.5-0.2c0.5-0.2,0.9-0.3,1.2-0.3
			c0.5-0.1,0.9-0.3,0.9-0.4c0,0,0,0,0-0.1c0,0,0,0-0.1-0.1l-2.7-0.4c0,0,0,0,0,0c0,0,0,0,0,0l2.7-0.4c0,0,0.1,0,0.1-0.1
			c0,0,0-0.1-0.1-0.1c0,0-0.5-0.1-1-0.3c-0.2-0.1-0.3-0.1-0.4-0.2c-0.3-0.2-0.6-0.3-1.1-0.4c0,0,0,0,0,0c0,0,0,0,0,0
			c0.2,0,0.4,0,0.6,0c0.5,0,1,0.1,1.2,0.1c0.5,0.1,0.9,0,1,0c0,0,0.1,0,0.1-0.1c0,0,0-0.1,0-0.1L14,34.8c0,0,0,0,0,0c0,0,0,0,0,0
			l2.7,0.7c0,0,0.1,0,0.1,0c0,0,0-0.1,0-0.1c0,0-0.4-0.3-0.8-0.7c-0.1-0.1-0.2-0.2-0.3-0.4c-0.2-0.3-0.4-0.5-0.8-0.8c0,0,0,0,0,0
			c0,0,0,0,0,0c0.2,0.1,0.3,0.1,0.5,0.2c0.5,0.2,0.9,0.5,1.1,0.6c0.4,0.3,0.9,0.4,0.9,0.4c0,0,0.1,0,0.1,0c0,0,0-0.1,0-0.1l-1.6-2.2
			c0,0,0,0,0,0c0,0,0,0,0,0l2.2,1.6c0,0,0.1,0,0.1,0c0,0,0-0.1,0-0.1c0,0-0.3-0.4-0.5-1c-0.1-0.2-0.1-0.3-0.1-0.4
			c-0.1-0.3-0.2-0.6-0.5-1c0,0,0,0,0,0c0,0,0,0,0,0c0.1,0.1,0.3,0.3,0.4,0.4c0.3,0.4,0.6,0.8,0.7,1c0.3,0.4,0.6,0.7,0.7,0.7
			c0,0,0.1,0,0.1,0c0,0,0,0,0-0.1L18,30.7c0,0,0,0,0,0c0,0,0,0,0,0l1.4,2.4c0,0,0.1,0,0.1,0c0,0,0,0,0-0.1c0,0-0.1-0.5-0.1-1.1
			c0-0.2,0-0.3,0-0.5c0-0.4,0.1-0.7,0-1.1c0,0,0,0,0,0c0,0,0,0,0,0c0.1,0.2,0.2,0.3,0.2,0.5c0.2,0.5,0.3,0.9,0.3,1.2
			c0.1,0.5,0.3,0.9,0.3,0.9c0,0,0,0,0.1,0c0,0,0,0,0.1-0.1l0.4-2.7c0,0,0,0,0,0c0,0,0,0,0,0l0.4,2.7c0,0,0,0.1,0.1,0.1
			c0,0,0.1,0,0.1-0.1c0,0,0.1-0.5,0.3-1c0.1-0.2,0.1-0.3,0.2-0.4c0.2-0.3,0.3-0.6,0.4-1.1c0,0,0,0,0,0c0,0,0,0,0,0
			c0,0.2,0,0.4,0,0.6c0,0.5-0.1,1-0.1,1.2c-0.1,0.5,0,0.9,0,1c0,0,0,0.1,0.1,0.1c0,0,0.1,0,0.1,0l1.4-2.4c0,0,0,0,0,0c0,0,0,0,0,0
			l-0.7,2.7c0,0,0,0.1,0,0.1c0,0,0.1,0,0.1,0c0,0,0.3-0.4,0.7-0.8c0.1-0.1,0.2-0.2,0.4-0.3c0.3-0.2,0.5-0.4,0.8-0.8c0,0,0,0,0,0
			c0,0,0,0,0,0c-0.1,0.2-0.1,0.4-0.2,0.5c-0.2,0.5-0.5,0.9-0.6,1.1c-0.3,0.4-0.4,0.9-0.4,0.9c0,0,0,0.1,0,0.1c0,0,0.1,0,0.1,0
			l2.2-1.6c0,0,0,0,0,0c0,0,0,0,0,0l-1.6,2.2c0,0,0,0.1,0,0.1c0,0,0.1,0,0.1,0c0,0,0.4-0.3,1-0.5c0.2-0.1,0.3-0.1,0.4-0.1
			c0.3-0.1,0.6-0.2,1-0.5c0,0,0,0,0,0c0,0,0,0,0,0c-0.1,0.1-0.2,0.3-0.4,0.4c-0.4,0.3-0.8,0.6-0.9,0.7c-0.4,0.3-0.7,0.6-0.7,0.7
			c0,0,0,0.1,0,0.1c0,0,0,0,0.1,0l2.6-0.7c0,0,0,0,0,0c0,0,0,0,0,0l-2.3,1.4c0,0,0,0.1,0,0.1c0,0,0,0,0.1,0c0,0,0.5-0.1,1.1-0.1
			c0.2,0,0.3,0,0.5,0c0.4,0,0.7,0.1,1.1,0c0,0,0,0,0,0c0,0,0,0,0,0c-0.2,0.1-0.3,0.2-0.5,0.2c-0.5,0.2-0.9,0.3-1.2,0.3
			c-0.5,0.1-0.9,0.3-0.9,0.3c0,0,0,0,0,0.1c0,0,0,0,0.1,0.1l2.7,0.4c0,0,0,0,0,0c0,0,0,0,0,0l-2.7,0.4c0,0-0.1,0-0.1,0.1
			c0,0,0,0.1,0.1,0.1c0,0,0.5,0.1,1,0.3c0.2,0.1,0.3,0.1,0.4,0.2c0.3,0.2,0.6,0.3,1.1,0.4c0,0,0,0,0,0c0,0,0,0,0,0
			c-0.1,0-0.2,0-0.3,0c-0.1,0-0.2,0-0.2,0c-0.5,0-1-0.1-1.2-0.1c0,0,0,0-0.1,0c0,0,0,0,0,0c-0.4-0.2-0.9-0.3-1.3-0.3c0,0,0,0,0,0
			c0,0,0,0,0,0c0,0,0,0,0,0c0,0,0,0,0-0.1c0-0.1-0.1-0.1-0.1-0.1c-0.5-0.2-1-0.3-1.4-0.3c0,0,0,0-0.1,0l0,0c0,0,0,0,0,0
			c0,0,0,0-0.1,0l0,0c0,0,0,0,0,0c0,0-0.1,0-0.1,0c0,0,0,0,0,0c-0.2,0-0.4,0-0.6,0c0,0,0,0,0,0c0,0,0,0,0,0c0,0,0,0,0,0
			c0,0,0-0.1,0-0.1c0,0,0,0,0,0c0-0.1-0.1-0.1-0.2-0.1c0,0-0.1,0-0.1,0c0,0,0,0,0,0l0,0c0,0-0.1,0-0.1,0c0,0,0,0,0,0
			c0,0-0.1,0-0.1,0c-0.5,0-1,0-1.4,0.1c-0.1,0-0.2,0.1-0.3,0.1c0,0,0,0,0,0c0,0,0,0-0.1,0l0,0c0,0,0,0-0.1,0l0,0
			c-0.1,0-0.1,0-0.2,0.1c0,0,0,0,0,0c0,0,0,0,0,0l0,0c0,0,0,0,0,0c0,0,0,0,0,0l0,0c0-0.1,0-0.1-0.1-0.2l0,0c0,0,0,0,0,0l0,0
			c0,0-0.1-0.1-0.1,0c-0.7,0.1-1.2,0.2-1.7,0.4c-0.2,0.1-0.3,0.2-0.5,0.2c0,0,0,0,0,0c0,0,0,0,0,0c0,0,0-0.1,0-0.1c0,0,0,0,0,0
			c0,0,0,0,0,0c0-0.1,0-0.1-0.1-0.2l0,0c0,0,0,0,0,0l0,0c0,0,0,0,0,0l0,0c0,0-0.1,0-0.1,0c-0.6,0.2-1.2,0.4-1.6,0.7c0,0,0,0,0,0l0,0
			c0,0,0,0,0,0c-0.1,0-0.3,0-0.4,0c-0.1,0-0.4,0-0.5,0C14.4,39,14.1,39,13.6,39.1 M14.6,39.6L14.6,39.6
			C14.6,39.6,14.7,39.6,14.6,39.6C14.7,39.6,14.7,39.7,14.6,39.6c0,0.4-0.1,0.9-0.5,1.5c0,0.1,0,0.1,0,0.2c0,0.1,0.1,0.1,0.2,0.1
			c0,0,0.5-0.1,1-0.1c0,0,0,0,0,0c0,0,0,0,0,0c-0.4,0.3-1.3,0.9-2.2,0.9c0,0-0.1,0-0.1,0c0,0,0,0,0,0C13,41.9,13.1,40.7,14.6,39.6
			 M11.4,43c0.1-0.3,0.2-0.7,0.4-1c0.2-0.3,0.5-0.7,0.8-1c0,0,0,0,0,0s0,0,0,0c0,0.4,0,0.9-0.4,1.5c0,0.1,0,0.1,0,0.2
			c0,0.1,0.1,0.1,0.2,0.1c0,0,0.5-0.2,1-0.2c0,0,0,0,0,0c0,0,0,0,0,0c-0.2,0.2-0.4,0.4-0.6,0.5c-0.4,0.3-1,0.7-1.6,0.7
			c0,0,0,0-0.1,0c0,0,0,0,0,0C11.4,43.8,11.3,43.5,11.4,43 M10.9,42.8L10.9,42.8C10.9,42.8,10.9,42.8,10.9,42.8
			C11,42.8,11,42.8,10.9,42.8c0.1,0.4,0.1,0.9-0.1,1.6c0,0.1,0,0.2,0.1,0.2c0.1,0,0.2,0.1,0.2,0c0,0,0.4-0.3,1-0.3c0,0,0,0,0,0
			c0,0,0,0,0,0c-0.4,0.5-1.1,1.4-2,1.5h0c0,0,0,0,0,0C9.9,45.4,9.7,44.2,10.9,42.8 M8.9,45.9c0.1-0.4,0.3-0.8,0.5-1.1c0,0,0,0,0,0
			c0,0,0,0,0,0c0.1,0.3,0.2,0.9,0.1,1.6c0,0.1,0,0.2,0.1,0.2c0.1,0,0.2,0,0.2,0c0,0,0.4-0.4,1-0.5c0,0,0,0,0,0c0,0,0,0,0,0
			c-0.1,0.2-0.2,0.4-0.4,0.6c-0.4,0.6-0.9,1-1.5,1.1c0,0,0,0,0,0c0,0,0,0,0,0c-0.1-0.1-0.2-0.4-0.2-0.8C8.7,46.6,8.8,46.2,8.9,45.9
			 M7.8,48c0.1-0.4,0.2-0.8,0.4-1.2c0,0,0,0,0,0c0,0,0,0,0,0c0.2,0.3,0.3,0.9,0.3,1.6c0,0.1,0,0.1,0.1,0.2c0.1,0,0.1,0,0.2,0
			c0,0,0.4-0.4,0.9-0.6c0,0,0,0,0,0c0,0,0,0,0,0c-0.1,0.2-0.1,0.4-0.2,0.6c-0.3,0.6-0.8,1.1-1.4,1.4c0,0,0,0,0,0c0,0,0,0,0,0
			c-0.1-0.1-0.2-0.4-0.3-0.8C7.7,48.8,7.7,48.4,7.8,48 M7.2,49C7.2,49,7.2,49,7.2,49C7.2,49,7.2,49,7.2,49c0.2,0.3,0.5,0.8,0.5,1.5
			c0,0.1,0.1,0.1,0.1,0.2c0.1,0,0.2,0,0.2-0.1c0,0,0.4-0.4,0.8-0.7c0,0,0,0,0,0c0,0,0,0,0,0c0,0.2-0.1,0.4-0.1,0.6
			c-0.2,0.7-0.6,1.2-1.2,1.6c0,0,0,0,0,0c0,0,0,0,0,0c-0.1-0.1-0.3-0.4-0.4-0.7C7,51,7,50.6,7,50.2C7,49.8,7,49.4,7.2,49 M6.5,51.3
			L6.5,51.3C6.5,51.3,6.5,51.3,6.5,51.3C6.5,51.3,6.5,51.3,6.5,51.3c0.3,0.3,0.6,0.7,0.7,1.4c0,0.1,0.1,0.1,0.1,0.1
			c0.1,0,0.1,0,0.2-0.1c0,0,0.3-0.5,0.7-0.8c0,0,0,0,0,0c0,0,0,0,0,0c0,0.2,0,0.4-0.1,0.6c-0.2,0.7-0.5,1.2-1,1.7c0,0,0,0,0,0
			c0,0,0,0,0,0c-0.1-0.1-0.3-0.3-0.5-0.7c-0.2-0.3-0.3-0.7-0.3-1.1C6.4,52.2,6.4,51.7,6.5,51.3 M6.1,53.6
			C6.1,53.6,6.2,53.6,6.1,53.6C6.2,53.6,6.2,53.6,6.1,53.6c0.3,0.3,0.6,0.7,0.8,1.4c0,0.1,0.1,0.1,0.2,0.1c0.1,0,0.2,0,0.2-0.1
			c0,0,0.2-0.5,0.6-0.8c0,0,0,0,0,0c0,0,0,0,0,0c0,0.2,0,0.5-0.1,0.7c-0.1,0.7-0.4,1.3-0.8,1.7c0,0,0,0,0,0c0,0,0,0,0,0
			c-0.1-0.1-0.3-0.3-0.5-0.7c-0.2-0.3-0.3-0.7-0.3-1.1C6.1,54.5,6.1,54.1,6.1,53.6 M6,56L6,56C6,56,6,56,6,56C6,56,6,56,6,56
			c0.1,0,0.1,0.1,0.2,0.1c0.2,0.2,0.5,0.6,0.7,1.2c0,0.1,0.1,0.1,0.2,0.1c0,0,0,0,0,0c0.1,0,0.2-0.1,0.2-0.2c0,0,0.1-0.5,0.5-0.9
			c0,0,0,0,0,0c0,0,0,0,0,0c0,0.3,0.1,0.7,0,1.2c-0.1,0.5-0.3,1-0.7,1.3c0,0,0,0,0,0c0,0,0,0,0,0C6.7,58.7,5.8,57.9,6,56 M5.9,58.4
			C5.9,58.4,5.9,58.4,5.9,58.4c0.1,0,0.1,0.1,0.2,0.1c0.2,0.2,0.6,0.6,0.8,1.1c0,0.1,0.1,0.1,0.2,0.1l0,0l0,0c0.1,0,0.1,0,0.2-0.1
			c0,0,0.2-0.5,0.6-0.9c0,0,0,0,0,0c0,0,0,0,0,0c0.1,0.5,0.2,1.5-0.6,2.5c0,0,0,0,0,0c0,0,0,0,0,0C6.8,61,5.9,60.3,5.9,58.4
			C5.9,58.4,5.9,58.4,5.9,58.4 M6,60.9L6,60.9C6,60.9,6,60.9,6,60.9C6,60.8,6,60.8,6,60.9c0.4,0.1,0.8,0.5,1.2,1
			C7.2,62,7.3,62,7.4,62c0.1,0,0.1-0.1,0.1-0.1c0,0,0,0,0,0c0,0,0.1-0.6,0.4-1c0,0,0,0,0,0h0c0,0,0,0,0,0c0.1,0.2,0.2,0.4,0.2,0.6
			c0.1,0.7,0,1.3-0.3,1.9c0,0,0,0,0,0c0,0,0,0,0,0c-0.1,0-0.4-0.2-0.7-0.5c-0.3-0.2-0.5-0.5-0.7-0.9C6.2,61.7,6.1,61.3,6,60.9
			 M6.5,63.2L6.5,63.2C6.5,63.1,6.5,63.1,6.5,63.2C6.6,63.1,6.6,63.1,6.5,63.2c0.1,0,0.2,0,0.2,0.1c0.3,0.1,0.7,0.4,1.1,0.9
			c0,0.1,0.1,0.1,0.2,0.1c0.1,0,0.1-0.1,0.1-0.2c0,0,0.1-0.6,0.3-1c0,0,0,0,0,0c0,0,0,0,0,0c0.2,0.5,0.5,1.5,0.1,2.5c0,0,0,0,0,0
			c0,0,0,0,0,0C8.1,65.4,7.1,64.9,6.5,63.2 M7.9,66.5c-0.2-0.3-0.5-0.7-0.6-1.1c0,0,0,0,0,0c0,0,0,0,0,0c0.1,0,0.1,0,0.2,0.1
			c0.3,0.1,0.7,0.3,1.2,0.8c0.1,0.1,0.1,0.1,0.2,0c0.1,0,0.1-0.1,0.1-0.2c0,0,0-0.5,0.2-1c0,0,0,0,0,0c0,0,0,0,0,0
			c0.1,0.2,0.2,0.4,0.3,0.6c0.2,0.7,0.3,1.3,0.1,1.9c0,0,0,0,0,0l0,0c-0.1,0-0.4-0.1-0.8-0.3C8.4,67.1,8.2,66.8,7.9,66.5 M8.2,67.6
			C8.2,67.6,8.2,67.6,8.2,67.6C8.2,67.6,8.3,67.6,8.2,67.6c0.4,0,0.9,0.2,1.5,0.6c0.1,0,0.1,0.1,0.2,0c0.1,0,0.1-0.1,0.1-0.2
			c0,0-0.1-0.5,0.1-1c0,0,0,0,0,0c0,0,0,0,0,0c0.1,0.2,0.2,0.4,0.3,0.6c0.2,0.4,0.5,1.1,0.3,1.8c0,0,0,0,0,0c-0.2,0-0.5,0-0.8-0.2
			c-0.3-0.1-0.6-0.4-0.9-0.6C8.7,68.4,8.5,68,8.2,67.6 M10.3,70.6C10,70.3,9.7,70,9.5,69.7c0,0,0,0,0,0c0,0,0,0,0,0
			c0.4,0,0.9,0.1,1.5,0.5c0.1,0,0.1,0,0.2,0s0.1-0.1,0.1-0.2c0,0-0.1-0.5-0.1-1c0,0,0,0,0,0c0,0,0,0,0,0c0.4,0.5,1,1.4,0.9,2.3
			c0,0,0,0,0,0c0,0-0.1,0-0.1,0c-0.2,0-0.4,0-0.8-0.1C11,71,10.6,70.8,10.3,70.6 M13.7,72.8c-0.1,0-0.2,0-0.3,0c-0.2,0-0.3,0-0.5,0
			c-0.7-0.1-1.3-0.5-2-1.2c0,0,0,0,0,0c0,0,0,0,0,0c0.4,0,0.9,0,1.6,0.2c0.1,0,0.1,0,0.2,0c0.1-0.1,0.1-0.1,0-0.2c0,0-0.2-0.5-0.2-1
			c0,0,0,0,0,0c0,0,0,0,0,0C13,70.9,13.8,71.7,13.7,72.8C13.7,72.8,13.7,72.8,13.7,72.8 M18.2,74.8c-0.5-0.1-1-0.3-1.6-0.5
			c-0.9-0.4-1.7-0.8-2.5-1.4c0,0,0,0,0,0c0-0.3,0-0.6-0.1-0.9c0,0,0,0,0,0c0,0,0,0,0,0c0.6,0.5,1.2,0.9,1.7,1.2
			c0.7,0.4,1.4,0.7,2.1,0.9v0l0.2,0.1C18.1,74.4,18.1,74.6,18.2,74.8L18.2,74.8z M19.4,74.2c-0.1,0.3-0.1,0.5,0.1,0.8c0,0,0,0,0,0
			c0,0,0,0,0,0c0,0,0,0,0,0c-0.3-0.1-0.6-0.3-0.7-0.4c-0.1-0.2-0.2-0.3-0.2-0.5c0-0.2,0.1-0.3,0.2-0.3c0.2-0.1,0.6-0.2,1.1-0.1
			c0,0,0,0,0,0c0,0,0,0,0,0C19.6,73.8,19.5,74,19.4,74.2 M20.9,76.6c-0.4,0-0.6-0.3-0.6-0.6c0-0.4,0.3-0.6,0.6-0.6s0.6,0.3,0.6,0.6
			C21.5,76.3,21.3,76.6,20.9,76.6 M21.7,75.1C21.7,75.1,21.7,75.1,21.7,75.1c-0.2-0.2-0.5-0.3-0.8-0.3c-0.3,0-0.5,0.1-0.8,0.3
			c0,0,0,0,0,0c0,0,0,0,0,0c-0.2-0.2-0.3-0.4-0.2-0.7c0.2-0.6,1-0.6,1-0.6h0c0.1,0,0.2,0,0.4,0.1c0.3,0.1,0.5,0.3,0.6,0.5
			C22,74.6,21.9,74.9,21.7,75.1 M23.1,74.6c-0.1,0.2-0.4,0.3-0.7,0.4c0,0,0,0,0,0c0,0,0,0,0,0c0,0,0,0,0,0c0.1-0.3,0.1-0.5,0.1-0.8
			c-0.1-0.2-0.2-0.4-0.4-0.6c0,0,0,0,0,0c0,0,0,0,0,0c0.3,0,0.8,0,1.1,0.1c0.1,0.1,0.2,0.2,0.2,0.3C23.3,74.3,23.2,74.4,23.1,74.6
			 M27.7,72.8C27.7,72.8,27.7,72.8,27.7,72.8c-0.2,0.2-0.9,0.7-1.9,1.2c-0.7,0.3-1.4,0.6-2.2,0.8l-0.1,0c0.1-0.2,0.2-0.5,0.2-0.7
			l0.2-0.1v0c0.7-0.2,1.4-0.5,2.1-0.9c0.6-0.4,1.2-0.8,1.8-1.3c0,0,0,0,0,0c0,0,0,0,0,0C27.7,72.2,27.7,72.5,27.7,72.8 M25.8,72.7
			c-0.7,0.4-1.4,0.7-2.1,0.9l-0.1,0c-0.1-0.1-0.2-0.3-0.3-0.3c-0.7-0.5-2-0.1-2.4,0c0,0,0,0,0,0c-0.4-0.1-1.7-0.4-2.4,0
			c-0.1,0.1-0.2,0.2-0.3,0.3l-0.1,0c-0.7-0.2-1.4-0.5-2.1-0.9c-1.5-0.8-2.9-2.1-4-3.6c-0.4-0.5-0.8-1.1-1.1-1.7c0,0,0,0,0,0
			c0,0,0,0,0,0c0.8-0.4,2.9-1.3,4.6-2.2c0,0,0,0,0,0c0,0,0,0,0,0c0,0.1,0,0.2,0.1,0.2c0.1,0.3,0.5,0.5,0.8,0.5c0.1,0,0.2,0,0.3,0
			c0,0,0,0,0,0c0.1,0.3,0.4,0.5,0.7,0.6c0.1,0,0.2,0.1,0.4,0.1c0,0,0,0,0,0c0.1,0.2,0.2,0.3,0.3,0.4c0.3,0.2,0.8,0.2,1.1,0.2
			c0,0,0,0,0,0c0.2,0.2,0.3,0.3,0.6,0.4c0.2,0,0.5,0,0.7-0.1c0,0,0,0,0,0c0,0,0,0,0,0v3.1c0,0.2,0.2,0.4,0.4,0.4
			c0.2,0,0.4-0.2,0.4-0.4v-3.3c0,0,0,0,0,0c0,0,0,0,0,0c0.4,0.1,0.8,0,1-0.1c0.2-0.1,0.3-0.2,0.4-0.2c0,0,0,0,0,0
			c0.4,0.1,0.8,0,1-0.3c0.1-0.1,0.2-0.2,0.2-0.3c0,0,0,0,0,0h0c0,0,0.1,0,0.1,0c0.5,0,0.8-0.2,1-0.4c0.1-0.1,0.2-0.2,0.2-0.3
			c0,0,0,0,0,0c0.3,0,0.6-0.1,0.8-0.3c0.1-0.1,0.2-0.2,0.2-0.3c0,0,0,0,0,0c0,0,0,0,0,0c1.4,1.1,3.7,2.1,4.6,2.5c0,0,0,0,0,0
			c0,0,0,0,0,0c-0.3,0.6-0.7,1.1-1.1,1.6C28.7,70.7,27.3,71.9,25.8,72.7 M30.9,71.6L30.9,71.6c-0.8,0.8-1.6,1.1-2,1.2
			c-0.2,0-0.3,0-0.5,0c-0.1,0-0.2,0-0.3,0c0,0,0,0,0,0c0-0.6,0.2-1.2,0.7-1.8c0.1-0.2,0.3-0.3,0.5-0.5c0,0,0,0,0,0c0,0,0,0,0,0
			c-0.1,0.5-0.2,1-0.3,1c0,0.1,0,0.1,0,0.2c0.1,0.1,0.1,0.1,0.2,0C30,71.6,30.5,71.6,30.9,71.6C30.9,71.6,30.9,71.6,30.9,71.6
			C30.9,71.6,30.9,71.6,30.9,71.6 M32.4,69.7c-0.3,0.4-0.6,0.7-0.9,0.9c-0.3,0.2-0.6,0.4-1,0.5c-0.3,0.1-0.6,0.1-0.8,0.1
			c0,0-0.1,0-0.1,0c0,0,0,0,0,0c0-0.6,0.1-1.2,0.5-1.8c0.1-0.2,0.3-0.4,0.4-0.5c0,0,0,0,0,0c0,0,0,0,0,0c0,0.5,0,1-0.1,1
			c0,0.1,0,0.1,0.1,0.2c0.1,0,0.1,0,0.2,0C31.4,69.8,32,69.6,32.4,69.7C32.4,69.6,32.4,69.6,32.4,69.7
			C32.4,69.6,32.4,69.7,32.4,69.7 M33.6,67.6c-0.2,0.4-0.5,0.7-0.8,1c-0.3,0.3-0.6,0.5-0.9,0.6c-0.4,0.2-0.7,0.2-0.8,0.2
			c0,0,0,0,0,0c-0.1-0.6,0-1.2,0.3-1.8c0.1-0.2,0.2-0.4,0.3-0.6c0,0,0,0,0,0c0,0,0,0,0,0c0.1,0.5,0.1,1,0.1,1c0,0.1,0,0.1,0.1,0.2
			c0.1,0,0.1,0,0.2,0C32.7,67.8,33.2,67.6,33.6,67.6C33.6,67.6,33.6,67.6,33.6,67.6C33.6,67.6,33.6,67.6,33.6,67.6 M34.6,65.4
			L34.6,65.4c-0.2,0.4-0.4,0.8-0.7,1.1c-0.3,0.3-0.5,0.6-0.8,0.7c-0.3,0.2-0.7,0.3-0.8,0.3l0,0c0,0,0,0,0,0
			c-0.2-0.6-0.1-1.2,0.1-1.9c0.1-0.2,0.2-0.4,0.3-0.6c0,0,0,0,0,0c0,0,0,0,0,0c0.2,0.5,0.2,1,0.2,1c0,0.1,0.1,0.1,0.1,0.2
			c0.1,0,0.1,0,0.2,0c0,0,0,0,0,0c0.4-0.5,0.9-0.7,1.2-0.8C34.4,65.4,34.5,65.4,34.6,65.4C34.6,65.4,34.6,65.4,34.6,65.4
			C34.6,65.4,34.6,65.4,34.6,65.4 M35.3,63.1L35.3,63.1c-0.1,0.4-0.3,0.8-0.5,1.1c-0.2,0.3-0.5,0.6-0.8,0.8
			c-0.3,0.2-0.7,0.4-0.8,0.4c0,0,0,0,0,0c0,0,0,0,0,0c-0.3-0.7-0.2-1.4-0.1-1.9c0.1-0.2,0.1-0.4,0.2-0.7c0,0,0,0,0,0c0,0,0,0,0,0
			c0.2,0.5,0.3,1,0.3,1.1c0,0.1,0.1,0.1,0.1,0.2c0.1,0,0.1,0,0.2-0.1C34.4,63.5,34.9,63.3,35.3,63.1C35.3,63.1,35.3,63.1,35.3,63.1
			C35.3,63.1,35.3,63.1,35.3,63.1 M35.4,62c-0.2,0.4-0.4,0.7-0.7,0.9c-0.3,0.3-0.6,0.4-0.7,0.5c0,0,0,0,0,0c0,0,0,0,0,0
			c-0.3-0.5-0.4-1.2-0.3-1.9c0-0.2,0.1-0.4,0.1-0.7c0,0,0,0,0,0c0,0,0,0,0,0c0.3,0.5,0.4,1,0.4,1c0,0.1,0.1,0.1,0.2,0.1
			c0.1,0,0.1,0,0.2-0.1c0.4-0.6,0.8-0.9,1.1-1.1c0,0,0,0,0,0c0,0,0,0,0,0C35.7,61.2,35.5,61.6,35.4,62"/>
	</g>
</g>
</svg>
