<?xml version="1.0" encoding="utf-8"?>
<!-- Generator: Adobe Illustrator 24.2.1, SVG Export Plug-In . SVG Version: 6.00 Build 0)  -->
<svg version="1.1" id="Capa_1" xmlns="http://www.w3.org/2000/svg" xmlns:xlink="http://www.w3.org/1999/xlink" x="0px" y="0px"
	 viewBox="0 0 188.4 82" style="enable-background:new 0 0 188.4 82;" xml:space="preserve">
<style type="text/css">
	.st0{fill:#FFFFFF;}
	.st1{fill:#68C6F0;}
</style>
<g>
	<g>
		<g>
			<g>
				<path class="st0" d="M125.2,55.8c-1.1,0-2.2-0.1-3-0.4c-0.9-0.3-1.7-0.7-2.3-1.3c-0.6-0.6-1.1-1.4-1.4-2.3
					c-0.3-0.9-0.5-2.1-0.5-3.4c0-1.7,0.3-3.1,0.9-4.2c0.6-1.1,1.4-1.9,2.5-2.5c1.1-0.5,2.4-0.8,4-0.8c0.6,0,1.1,0,1.6,0.1
					c0.5,0.1,1,0.2,1.5,0.3v2.2c-0.5-0.1-1-0.2-1.5-0.3c-0.5-0.1-1-0.1-1.5-0.1c-1.1,0-2,0.2-2.7,0.5c-0.7,0.3-1.3,0.9-1.6,1.7
					c-0.4,0.8-0.5,1.8-0.5,3.1c0,1.3,0.2,2.3,0.5,3.1s0.9,1.3,1.6,1.7c0.7,0.3,1.6,0.5,2.6,0.5c0.5,0,1,0,1.5-0.1
					c0.5-0.1,1-0.2,1.5-0.4v2.2c-0.5,0.2-1,0.3-1.6,0.4C126.4,55.7,125.8,55.8,125.2,55.8z"/>
				<path class="st0" d="M133.1,55.8c-1.1,0-1.9-0.3-2.5-0.8c-0.6-0.6-0.9-1.3-0.9-2.2c0-1,0.3-1.8,1-2.3c0.7-0.6,1.8-0.9,3.3-1
					l2.5-0.2l0.3,1.5l-2.5,0.2c-0.7,0.1-1.2,0.2-1.5,0.5c-0.3,0.3-0.5,0.6-0.5,1.1c0,0.5,0.1,0.8,0.4,1.1c0.3,0.2,0.7,0.4,1.2,0.4
					c0.4,0,0.7-0.1,1.1-0.2c0.4-0.1,0.7-0.4,1-0.7v-4.2c0-0.5-0.1-1-0.3-1.3c-0.2-0.3-0.4-0.5-0.8-0.7c-0.4-0.1-0.9-0.2-1.5-0.2
					c-0.4,0-0.9,0-1.4,0.1c-0.5,0.1-1,0.2-1.5,0.3v-2c0.5-0.2,1.1-0.3,1.7-0.3c0.6-0.1,1.2-0.1,1.7-0.1c1.1,0,1.9,0.1,2.6,0.4
					c0.7,0.3,1.2,0.7,1.5,1.3c0.3,0.6,0.5,1.5,0.5,2.6v6.6h-2.1l-0.2-1.1H136c-0.3,0.4-0.8,0.8-1.3,1
					C134.2,55.7,133.7,55.8,133.1,55.8z"/>
				<path class="st0" d="M144,55.8c-0.6,0-1.2,0-1.7-0.1c-0.6-0.1-1.1-0.2-1.6-0.3v-1.9c0.5,0.2,1.1,0.3,1.6,0.4
					c0.5,0.1,1.1,0.1,1.6,0.1c0.8,0,1.3-0.1,1.7-0.3c0.3-0.2,0.5-0.6,0.5-1c0-0.3-0.1-0.6-0.3-0.8c-0.2-0.2-0.5-0.3-0.9-0.4
					l-1.6-0.3c-1-0.2-1.7-0.5-2.2-1c-0.4-0.5-0.7-1.2-0.7-2c0-1,0.4-1.8,1.2-2.4c0.8-0.6,2-0.9,3.6-0.9c0.5,0,1,0,1.5,0.1
					c0.5,0.1,0.9,0.1,1.3,0.3V47c-0.4-0.1-0.9-0.2-1.3-0.3c-0.4-0.1-0.9-0.1-1.4-0.1c-0.6,0-1.1,0.1-1.5,0.2
					c-0.4,0.1-0.6,0.3-0.7,0.5c-0.1,0.2-0.2,0.4-0.2,0.7c0,0.3,0.1,0.5,0.3,0.7c0.2,0.2,0.5,0.3,0.9,0.4l1.6,0.3
					c1,0.2,1.7,0.5,2.2,1s0.7,1.2,0.7,2c0,1-0.4,1.9-1.2,2.5C146.6,55.5,145.5,55.8,144,55.8z"/>
				<path class="st0" d="M153.3,55.8c-1.1,0-1.9-0.3-2.5-0.8c-0.6-0.6-0.9-1.3-0.9-2.2c0-1,0.3-1.8,1-2.3c0.7-0.6,1.8-0.9,3.3-1
					l2.5-0.2l0.3,1.5l-2.5,0.2c-0.7,0.1-1.2,0.2-1.5,0.5c-0.3,0.3-0.5,0.6-0.5,1.1c0,0.5,0.1,0.8,0.4,1.1c0.3,0.2,0.7,0.4,1.2,0.4
					c0.4,0,0.7-0.1,1.1-0.2c0.4-0.1,0.7-0.4,1-0.7v-4.2c0-0.5-0.1-1-0.3-1.3c-0.2-0.3-0.4-0.5-0.8-0.7s-0.9-0.2-1.5-0.2
					c-0.4,0-0.9,0-1.4,0.1c-0.5,0.1-1,0.2-1.5,0.3v-2c0.5-0.2,1.1-0.3,1.7-0.3c0.6-0.1,1.2-0.1,1.7-0.1c1.1,0,1.9,0.1,2.6,0.4
					c0.7,0.3,1.2,0.7,1.5,1.3c0.3,0.6,0.5,1.5,0.5,2.6v6.6h-2.1l-0.2-1.1h-0.1c-0.3,0.4-0.8,0.8-1.3,1
					C154.5,55.7,153.9,55.8,153.3,55.8z"/>
				<path class="st0" d="M118.5,75.1V60.9c0.4-0.1,0.9-0.2,1.3-0.2c0.5-0.1,1-0.1,1.5-0.2c0.5,0,1-0.1,1.5-0.1c2,0,3.6,0.4,4.6,1.1
					c1,0.7,1.5,1.9,1.5,3.5c0,1-0.2,1.9-0.7,2.5c-0.5,0.7-1.2,1.2-2.1,1.5c-0.9,0.3-2,0.5-3.3,0.5c-0.3,0-0.6,0-0.9,0
					c-0.3,0-0.5,0-0.8,0v5.6H118.5z M122.9,67.6c1.2,0,2.1-0.2,2.7-0.6s0.9-1.1,0.9-2c0-0.6-0.1-1.1-0.4-1.5
					c-0.2-0.4-0.6-0.7-1.1-0.8c-0.5-0.2-1.1-0.3-1.9-0.3c-0.4,0-0.7,0-1.1,0c-0.3,0-0.6,0.1-0.9,0.1v4.9c0.2,0,0.4,0,0.6,0
					c0.2,0,0.4,0,0.6,0C122.4,67.6,122.6,67.6,122.9,67.6z M127.2,75.1l-4.8-6.8h2.8l4.9,6.8H127.2z"/>
				<path class="st0" d="M135.7,75.3c-1,0-1.9-0.2-2.6-0.6c-0.7-0.4-1.3-1-1.7-1.8c-0.4-0.8-0.6-1.9-0.6-3.1c0-1.3,0.2-2.3,0.6-3.1
					c0.4-0.8,1-1.4,1.7-1.8c0.7-0.4,1.6-0.6,2.7-0.6c1,0,1.9,0.2,2.7,0.6c0.7,0.4,1.3,1,1.7,1.8c0.4,0.8,0.6,1.9,0.6,3.1
					c0,1.3-0.2,2.3-0.6,3.1c-0.4,0.8-1,1.4-1.7,1.8C137.6,75.1,136.7,75.3,135.7,75.3z M135.7,73.3c0.5,0,0.9-0.1,1.3-0.3
					c0.4-0.2,0.6-0.6,0.8-1.1c0.2-0.5,0.3-1.2,0.3-2.1c0-0.9-0.1-1.6-0.3-2.2c-0.2-0.5-0.5-0.9-0.8-1.1c-0.4-0.2-0.8-0.3-1.3-0.3
					c-0.5,0-0.9,0.1-1.3,0.3c-0.4,0.2-0.6,0.6-0.8,1.1c-0.2,0.5-0.3,1.2-0.3,2.1c0,0.9,0.1,1.6,0.3,2.2c0.2,0.5,0.5,0.9,0.8,1.1
					C134.7,73.2,135.2,73.3,135.7,73.3z"/>
				<path class="st0" d="M145.8,75.3c-0.6,0-1.2,0-1.7-0.1c-0.6-0.1-1.1-0.2-1.6-0.3v-1.9c0.5,0.2,1.1,0.3,1.6,0.4
					c0.5,0.1,1.1,0.1,1.6,0.1c0.8,0,1.3-0.1,1.7-0.3c0.3-0.2,0.5-0.6,0.5-1c0-0.3-0.1-0.6-0.3-0.8c-0.2-0.2-0.5-0.3-0.9-0.4
					l-1.6-0.3c-1-0.2-1.7-0.5-2.2-1c-0.4-0.5-0.7-1.2-0.7-2c0-1,0.4-1.8,1.2-2.4s2-0.9,3.6-0.9c0.5,0,1,0,1.5,0.1
					c0.5,0.1,0.9,0.1,1.3,0.3v1.9c-0.4-0.1-0.9-0.2-1.3-0.3c-0.4-0.1-0.9-0.1-1.4-0.1c-0.6,0-1.1,0.1-1.5,0.2
					c-0.4,0.1-0.6,0.3-0.7,0.5c-0.1,0.2-0.2,0.4-0.2,0.7c0,0.3,0.1,0.5,0.3,0.7c0.2,0.2,0.5,0.3,0.9,0.4l1.6,0.3
					c1,0.2,1.7,0.5,2.2,1s0.7,1.2,0.7,2c0,1-0.4,1.9-1.2,2.5C148.4,75,147.2,75.3,145.8,75.3z"/>
				<path class="st0" d="M155.1,75.3c-1.1,0-1.9-0.3-2.5-0.8c-0.6-0.6-0.9-1.3-0.9-2.2c0-1,0.3-1.8,1-2.3c0.7-0.6,1.8-0.9,3.3-1
					l2.5-0.2l0.3,1.5l-2.5,0.2c-0.7,0.1-1.2,0.2-1.5,0.5c-0.3,0.3-0.5,0.6-0.5,1.1c0,0.5,0.1,0.8,0.4,1.1c0.3,0.2,0.7,0.4,1.2,0.4
					c0.4,0,0.7-0.1,1.1-0.2c0.4-0.1,0.7-0.4,1-0.7v-4.2c0-0.5-0.1-1-0.3-1.3c-0.2-0.3-0.4-0.5-0.8-0.7c-0.4-0.1-0.9-0.2-1.5-0.2
					c-0.4,0-0.9,0-1.4,0.1c-0.5,0.1-1,0.2-1.5,0.3v-2c0.5-0.2,1.1-0.3,1.7-0.3c0.6-0.1,1.2-0.1,1.7-0.1c1.1,0,1.9,0.1,2.6,0.4
					c0.7,0.3,1.2,0.7,1.5,1.3c0.3,0.6,0.5,1.5,0.5,2.6v6.6h-2.1l-0.2-1.1H158c-0.3,0.4-0.8,0.8-1.3,1
					C156.3,75.2,155.7,75.3,155.1,75.3z"/>
				<path class="st0" d="M166.9,75.3c-0.8,0-1.5-0.2-2.2-0.5c-0.7-0.4-1.2-0.9-1.6-1.7c-0.4-0.8-0.6-1.8-0.6-3.1
					c0-1.3,0.2-2.3,0.6-3.2c0.4-0.9,1.1-1.5,1.9-1.9c0.8-0.4,1.9-0.7,3.1-0.7c0.2,0,0.5,0,0.7,0c0.2,0,0.5,0,0.7,0.1v-5.1h2.6v15.9
					h-2.2l-0.2-1.1h-0.1c-0.3,0.4-0.7,0.7-1.2,1C168.1,75.2,167.5,75.3,166.9,75.3z M167.6,73.2c0.4,0,0.7-0.1,1.1-0.2
					c0.4-0.2,0.7-0.4,0.9-0.7v-5.9c-0.2,0-0.4-0.1-0.7-0.1c-0.3,0-0.5,0-0.8,0c-1,0-1.8,0.3-2.3,0.8c-0.5,0.6-0.8,1.5-0.8,2.7
					c0,0.9,0.1,1.6,0.3,2.1c0.2,0.5,0.5,0.8,0.9,1C166.7,73.1,167.1,73.2,167.6,73.2z"/>
				<path class="st0" d="M177.8,75.3c-1.1,0-1.9-0.3-2.5-0.8c-0.6-0.6-0.9-1.3-0.9-2.2c0-1,0.3-1.8,1-2.3c0.7-0.6,1.8-0.9,3.3-1
					l2.5-0.2l0.3,1.5l-2.5,0.2c-0.7,0.1-1.2,0.2-1.5,0.5c-0.3,0.3-0.5,0.6-0.5,1.1c0,0.5,0.1,0.8,0.4,1.1c0.3,0.2,0.7,0.4,1.2,0.4
					c0.4,0,0.7-0.1,1.1-0.2c0.4-0.1,0.7-0.4,1-0.7v-4.2c0-0.5-0.1-1-0.3-1.3c-0.2-0.3-0.4-0.5-0.8-0.7c-0.4-0.1-0.9-0.2-1.5-0.2
					c-0.4,0-0.9,0-1.4,0.1c-0.5,0.1-1,0.2-1.5,0.3v-2c0.5-0.2,1.1-0.3,1.7-0.3c0.6-0.1,1.2-0.1,1.7-0.1c1.1,0,1.9,0.1,2.6,0.4
					c0.7,0.3,1.2,0.7,1.5,1.3c0.3,0.6,0.5,1.5,0.5,2.6v6.6H181l-0.2-1.1h-0.1c-0.3,0.4-0.8,0.8-1.3,1
					C178.9,75.2,178.4,75.3,177.8,75.3z"/>
			</g>
		</g>
		<g>
			<rect x="53" y="5.8" class="st1" width="9.1" height="2.1"/>
			<rect x="53" y="10" class="st1" width="9.1" height="2.1"/>
			<rect x="53" y="7.9" class="st0" width="9.1" height="2.1"/>
			<path class="st0" d="M85,41.1h2.1c0.1,0,0.2-0.1,0.2-0.2v-2.1c0-0.1-0.1-0.2-0.2-0.2H85c-0.1,0-0.2,0.1-0.2,0.2v2.1
				C84.8,41,84.9,41.1,85,41.1z M85.2,39h1.7v1.7h-1.7V39z"/>
			<path class="st0" d="M94.1,41.1h2.1c0.1,0,0.2-0.1,0.2-0.2v-2.1c0-0.1-0.1-0.2-0.2-0.2h-2.1c-0.1,0-0.2,0.1-0.2,0.2v2.1
				C93.9,41,94,41.1,94.1,41.1z M94.3,39H96v1.7h-1.7V39z"/>
			<path class="st0" d="M52.8,48.3c-2.4,0-4.4,2-4.4,4.4s2,4.4,4.4,4.4s4.4-2,4.4-4.4S55.2,48.3,52.8,48.3z M52.8,55.4
				c-1.5,0-2.7-1.2-2.7-2.7c0-1.5,1.2-2.7,2.7-2.7c1.5,0,2.7,1.2,2.7,2.7C55.5,54.2,54.3,55.4,52.8,55.4z"/>
			<path class="st0" d="M36.2,71.2H41c0.2,0,0.3-0.1,0.3-0.3V62c0-0.2-0.1-0.3-0.3-0.3h-4.7c-0.2,0-0.3,0.1-0.3,0.3v8.9
				C36,71.1,36.1,71.2,36.2,71.2z M36.5,62.3h4.1v8.4h-4.1V62.3z"/>
			<path class="st0" d="M27.2,71.2h5.5c0.2,0,0.3-0.1,0.3-0.3V62h0c0,0,0,0,0,0v-0.1c0,0,0,0,0-0.1C33,60.3,31.6,59,30,59
				c-1.6,0-3,1.3-3,2.9c0,0,0,0,0,0.1v9C26.9,71.1,27.1,71.2,27.2,71.2z M27.5,62c0-1.4,1.1-2.5,2.5-2.5c1.4,0,2.5,1.1,2.5,2.5v8.6
				h-5V62z"/>
			<path class="st0" d="M15.8,71.2h6.1c0.2,0,0.3-0.1,0.3-0.3v-9.5h0l0,0v-0.1c0,0,0,0,0-0.1C22,60.1,20.7,59,18.8,59
				c-1.6,0-3.2,0.9-3.3,2.4c0,0,0,0,0,0v9.6C15.5,71.1,15.6,71.2,15.8,71.2z M16.1,61.5c0-0.9,1.1-1.9,2.8-1.9
				c1.5,0,2.8,0.9,2.8,1.9v9.2h-5.5V61.5z"/>
			<path class="st0" d="M7.4,71.2h6.1c0.2,0,0.3-0.1,0.3-0.3v-9.5h0l0,0v-0.1c0,0,0,0,0-0.1c-0.1-1.2-1.4-2.3-3.3-2.3
				c-1.6,0-3.2,0.9-3.3,2.4c0,0,0,0,0,0v9.6C7.1,71.1,7.2,71.2,7.4,71.2z M7.6,61.5c0-0.9,1.1-1.9,2.8-1.9c1.5,0,2.8,0.9,2.8,1.9
				v9.2H7.6V61.5z"/>
			<path class="st0" d="M92.2,71.2h6.1c0.2,0,0.3-0.1,0.3-0.3v-9.5h0l0,0v-0.1c0,0,0,0,0-0.1c-0.1-1.2-1.4-2.3-3.3-2.3
				c-1.6,0-3.2,0.9-3.3,2.4c0,0,0,0,0,0v9.6C92,71.1,92.1,71.2,92.2,71.2z M92.5,61.5c0-0.9,1.1-1.9,2.8-1.9c1.5,0,2.8,0.9,2.8,1.9
				v9.2h-5.5V61.5z"/>
			<path class="st0" d="M83.8,71.2h6.1c0.2,0,0.3-0.1,0.3-0.3v-9.5h0l0,0v-0.1c0,0,0,0,0-0.1c-0.1-1.2-1.4-2.3-3.3-2.3
				c-1.6,0-3.2,0.9-3.3,2.4c0,0,0,0,0,0v9.6C83.5,71.1,83.7,71.2,83.8,71.2z M84.1,61.5c0-0.9,1.1-1.9,2.8-1.9
				c1.5,0,2.8,0.9,2.8,1.9v9.2h-5.5V61.5z"/>
			<path class="st0" d="M52.8,20.3c-1.3,0-2.4,1.1-2.4,2.4c0,1.3,1.1,2.4,2.4,2.4c1.3,0,2.4-1.1,2.4-2.4
				C55.2,21.4,54.1,20.3,52.8,20.3z M52.8,24.3c-0.9,0-1.6-0.7-1.6-1.6c0-0.9,0.7-1.6,1.6-1.6c0.9,0,1.6,0.7,1.6,1.6
				C54.3,23.6,53.6,24.3,52.8,24.3z"/>
			<path class="st0" d="M83.5,54.3c0,0.2,0.1,0.3,0.3,0.3h5.9c0.2,0,0.3-0.1,0.3-0.3v-5.9c0,0,0,0,0,0c-0.1-1.7-1.5-3.1-3.3-3.1
				c-1.8,0-3.2,1.4-3.3,3.1c0,0,0,0,0,0v0.1l0,0h0V54.3z M84.1,48.5c0-1.5,1.2-2.6,2.7-2.6c1.5,0,2.7,1.2,2.7,2.7V54h-5.3V48.5z"/>
			<path class="st0" d="M92,54.3c0,0.2,0.1,0.3,0.3,0.3h5.9c0.2,0,0.3-0.1,0.3-0.3v-5.9c0,0,0,0,0,0c-0.1-1.7-1.5-3.1-3.3-3.1
				c-1.8,0-3.2,1.4-3.3,3.1c0,0,0,0,0,0v0.1l0,0h0V54.3z M92.6,48.5c0-1.5,1.2-2.6,2.7-2.6c1.5,0,2.7,1.2,2.7,2.7V54h-5.3V48.5z"/>
			<path class="st0" d="M64.6,71.2h4.7c0.2,0,0.3-0.1,0.3-0.3V62c0-0.2-0.1-0.3-0.3-0.3h-4.7c-0.2,0-0.3,0.1-0.3,0.3v8.9
				C64.3,71.1,64.4,71.2,64.6,71.2z M64.9,62.3H69v8.4h-4.1V62.3z"/>
			<path class="st0" d="M72.5,71.2h6.1v-9.3h0c0-1.6-1.4-3-3-3c-1.7,0-3,1.3-3,3h0V62c0,0,0,0,0,0h0V71.2z M73.1,62
				c0-1.4,1.1-2.5,2.5-2.5c1.4,0,2.5,1.1,2.5,2.5v8.6h-5V62z"/>
			<path class="st0" d="M9.3,41.1h2.1c0.1,0,0.2-0.1,0.2-0.2v-2.1c0-0.1-0.1-0.2-0.2-0.2H9.3c-0.1,0-0.2,0.1-0.2,0.2v2.1
				C9.1,41,9.2,41.1,9.3,41.1z M9.5,39h1.7v1.7H9.5V39z"/>
			<path class="st0" d="M18.4,41.1h2.1c0.1,0,0.2-0.1,0.2-0.2v-2.1c0-0.1-0.1-0.2-0.2-0.2h-2.1c-0.1,0-0.2,0.1-0.2,0.2v2.1
				C18.2,41,18.3,41.1,18.4,41.1z M18.6,39h1.7v1.7h-1.7V39z"/>
			<rect x="52.5" y="7.9" class="st0" width="0.6" height="0"/>
			<path class="st0" d="M53,5.3C53,5.1,52.9,5,52.7,5c-0.2,0-0.3,0.1-0.3,0.3v0.5H53V5.3z"/>
			<path class="st0" d="M82,74.4V57.3h17.6v-1.1H82V42.7h17.6v-0.4H82v-4.7h17.6V37H82v-1h17.6v-0.6H82v-2.6c0,0,0,0,0,0l1.6-2
				c0.1-0.1,0.1-0.2,0-0.3c0-0.1-0.1-0.2-0.3-0.2H82v-4c0-0.2-0.1-0.3-0.3-0.3H64.5c-0.1-0.9-0.6-1.5-1.4-1.5
				c-1.3,0-1.5-0.7-1.7-1.7c-0.3-1.1-0.7-2.5-3-2.5v-1.4c0-0.2-0.1-0.3-0.3-0.3c-0.9,0-1.5-0.4-2.2-0.9c-0.8-0.5-1.6-1.1-2.9-1.2
				v-4.4h-0.6v4.4c-1.3,0.1-2.1,0.7-2.9,1.2c-0.7,0.5-1.3,0.9-2.2,0.9c-0.2,0-0.3,0.1-0.3,0.3v1.4c-2.3,0-2.7,1.4-3,2.5
				c-0.3,1-0.5,1.7-1.7,1.7c-0.8,0-1.3,0.5-1.4,1.5H23.8c-0.2,0-0.3,0.1-0.3,0.3v4h-1.2c-0.1,0-0.2,0.1-0.3,0.2c0,0.1,0,0.2,0,0.3
				l1.5,1.9v2.7H5.5V36h17.9v1H5.5v0.6h17.9v4.7H5.5v0.4h17.9v10.5h-1.3v-5.5h0c0-1.4-1.2-2.5-2.6-2.5c-1,0-1.9,0.6-2.3,1.4
				c-0.4-0.8-1.3-1.4-2.3-1.4c-1,0-1.9,0.6-2.3,1.4c-0.4-0.8-1.3-1.4-2.3-1.4c-1,0-1.9,0.6-2.3,1.4c-0.4-0.8-1.3-1.4-2.3-1.4
				c-0.1,0-0.2,0-0.3,0v0.6c0.1,0,0.2,0,0.3,0c1.1,0,2,0.9,2,2V48H7.7c-0.2,0-0.4,0.2-0.4,0.4s0.2,0.4,0.4,0.4h0.1v4.4H5.5v0.6h2
				v2.4h-2v1.1h17.9v17.1H5.5v1.5h18.2H24h57.6h0.1h17.9v-1.5H82z M12.1,56.2H8.7v-2.4h3.5V56.2z M12.4,48L12.4,48
				c-0.3,0-0.5,0.2-0.5,0.4s0.2,0.4,0.4,0.4h0.1v4.4h-4v-4.4h0.1c0.2,0,0.4-0.2,0.4-0.4S8.7,48,8.5,48H8.4v-0.2h0c0,0,0,0,0,0
				c0-1.1,0.9-2,2-2c1.1,0,2,0.9,2,2V48z M16.7,56.2h-3.5v-2.4h3.5V56.2z M17,48L17,48c-0.3,0-0.5,0.2-0.5,0.4s0.2,0.4,0.4,0.4H17
				v4.4h-4v-4.4h0.1c0.2,0,0.4-0.2,0.4-0.4S13.3,48,13.1,48H13v-0.2h0c0,0,0,0,0,0c0-1.1,0.9-2,2-2c1.1,0,2,0.9,2,2V48z M21.3,56.2
				h-3.5v-2.4h3.5V56.2z M21.6,53.2h-4v-4.4h0.1c0.2,0,0.4-0.2,0.4-0.4S17.9,48,17.7,48h-0.1v-0.2h0c0,0,0,0,0,0c0-1.1,0.9-2,2-2
				c1.1,0,2,0.9,2,2V53.2z M23.5,56.2h-1v-2.4h1V56.2z M58.4,20.9c1.9,0,2.1,1,2.4,2.1c0.3,1,0.6,2.1,2.3,2.1c0.5,0,0.8,0.3,0.8,0.9
				h-5.5V20.9z M49.9,18.2c0.8-0.5,1.6-1.1,2.9-1.1c1.3,0,2.1,0.6,2.9,1.1c0.2,0.2,0.5,0.3,0.7,0.5h-7.1
				C49.5,18.5,49.7,18.4,49.9,18.2z M47.7,19.7h10.2V26H47.7V19.7z M42.4,25.1c1.7,0,2-1.1,2.3-2.1c0.3-1.1,0.6-2.1,2.4-2.1v5.1
				h-5.5C41.6,25.5,41.9,25.1,42.4,25.1z M43.6,57v16.2H24V56.8h19.6V57z M29.8,48.9v7.3h-2.3v-7.3H29.8z M27.5,48.5v-0.2
				c0-1.3,1-2.4,2.3-2.5v2.6H27.5z M32.5,48.9v7.3h-2.3v-7.3H32.5z M30.2,48.5v-2.6c1.3,0.1,2.3,1.2,2.3,2.5v0.2H30.2z M36.5,56
				v-7.4h4.1V56H36.5z M60.7,57v18.3H44.8V57v-3.1c0-4.4,3.6-7.9,8-7.9s8,3.6,8,8V57z M81.4,73.2H61.8V57v-0.2h19.6V73.2z M64.9,56
				v-7.4H69V56H64.9z M75.3,48.9v7.3h-2.3v-7.3H75.3z M73.1,48.5v-0.2c0-1.3,1-2.4,2.3-2.5v2.6H73.1z M78,48.9v7.3h-2.3v-7.3H78z
				 M75.8,48.5v-2.6C77,45.9,78,47,78,48.3v0.2H75.8z M81.4,56.2h-2.8v-8h0c0-1.6-1.4-3-3-3c-1.7,0-3,1.3-3,3h0v0.1l0,0h0v7.9h-2.9
				v-7.9c0-0.2-0.1-0.3-0.3-0.3h-4.7c-0.2,0-0.3,0.1-0.3,0.3v7.9h-2.5V54c0-5-4.1-9.1-9.1-9.1s-9.1,4.1-9.1,9.1v2.3h-2.4v-7.9
				c0-0.2-0.1-0.3-0.3-0.3h-4.7c-0.2,0-0.3,0.1-0.3,0.3v7.9H33v-7.9h0l0,0v-0.1h0c0-1.6-1.4-3-3-3s-3,1.3-3,3h0v8H24V43.8h3
				c0,0,0,0,0.1,0s0,0,0.1,0h3.7c0,0,0,0,0.1,0h0h0c0,0,0,0,0.1,0h3.7c0,0,0,0,0.1,0h0h0c0,0,0,0,0.1,0h3.7c0,0,0,0,0.1,0
				c0,0,0,0,0.1,0h3.2c0,0,0,0,0.1,0c0,0,0,0,0.1,0h4.2c0,0,0,0,0.1,0c0,0,0,0,0.1,0h4.2c0,0,0,0,0.1,0s0,0,0.1,0H55c0,0,0,0,0.1,0
				c0,0,0,0,0.1,0h4.2c0,0,0,0,0.1,0s0,0,0.1,0h4.2c0,0,0,0,0.1,0s0,0,0.1,0h2.9c0,0,0,0,0.1,0s0,0,0.1,0h3.7c0,0,0,0,0.1,0h0h0
				c0,0,0,0,0.1,0h3.7c0,0,0,0,0.1,0h0l0,0c0,0,0,0,0.1,0h3.7c0,0,0,0,0.1,0s0,0,0.1,0h2.9V56.2z M30.5,37.7h0.1v4.6h-3.2v-5.5
				c0-1,0.7-1.9,1.6-1.9c0.9,0,1.6,0.8,1.6,1.9v0.2h-0.1c-0.2,0-0.3,0.1-0.3,0.3S30.3,37.7,30.5,37.7z M31.4,37.1h-0.1v-0.2
				c0-1,0.7-1.9,1.6-1.9c0.9,0,1.6,0.8,1.6,1.9v0.2h-0.1c-0.2,0-0.3,0.1-0.3,0.3s0.1,0.3,0.3,0.3h0.1v4.6h-3.2v-4.6h0.1
				c0.2,0,0.3-0.1,0.3-0.3S31.5,37.1,31.4,37.1z M35.2,37.1h-0.1v-0.2c0-1,0.7-1.9,1.6-1.9c0.9,0,1.6,0.8,1.6,1.9v5.5h-3.2v-4.6h0.1
				c0.2,0,0.3-0.1,0.3-0.3S35.4,37.1,35.2,37.1z M45.9,37.7H46v4.6h-3.8v-5.5c0-1,0.8-1.9,1.9-1.9s1.9,0.8,1.9,1.9v0.2h-0.1
				c-0.2,0-0.3,0.1-0.3,0.3S45.8,37.7,45.9,37.7z M46.8,37.1h-0.1v-0.2c0-1,0.8-1.9,1.9-1.9c1,0,1.9,0.8,1.9,1.9v0.2h-0.1
				c-0.2,0-0.3,0.1-0.3,0.3s0.1,0.3,0.3,0.3h0.1v4.6h-3.8v-4.6h0.1c0.2,0,0.3-0.1,0.3-0.3S46.9,37.1,46.8,37.1z M51.1,37.1H51v-0.2
				l0,0l0,0c0-1,0.8-1.9,1.9-1.9c1,0,1.9,0.8,1.9,1.9v0.2h-0.1c-0.2,0-0.3,0.1-0.3,0.3s0.1,0.3,0.3,0.3h0.1v4.6H51v-4.6h0.1
				c0.2,0,0.3-0.1,0.3-0.3S51.3,37.1,51.1,37.1z M55.5,37.1h-0.1v-0.2l0,0l0,0c0-1,0.8-1.9,1.9-1.9c1,0,1.9,0.8,1.9,1.9v0.2h-0.1
				c-0.2,0-0.3,0.1-0.3,0.3s0.1,0.3,0.3,0.3h0.1v4.6h-3.8v-4.6h0.1c0.2,0,0.3-0.1,0.3-0.3S55.7,37.1,55.5,37.1z M59.9,37.1h-0.1
				v-0.2l0,0l0,0c0-1,0.8-1.9,1.9-1.9c1,0,1.9,0.8,1.9,1.9v5.5h0h-3.7v-4.6h0.1c0.2,0,0.3-0.1,0.3-0.3S60.1,37.1,59.9,37.1z
				 M70.3,37.7h0.1v4.6h-3.2v-5.5c0-1,0.7-1.9,1.6-1.9c0.9,0,1.6,0.8,1.6,1.9v0.2h-0.1c-0.2,0-0.3,0.1-0.3,0.3S70.1,37.7,70.3,37.7z
				 M71.2,37.1L71.2,37.1l-0.1-0.2c0-1,0.7-1.9,1.6-1.9c0.9,0,1.6,0.8,1.6,1.9v0.2h-0.1c-0.2,0-0.3,0.1-0.3,0.3s0.1,0.3,0.3,0.3h0.1
				v4.6h-3.2v-4.6h0.1c0.2,0,0.3-0.1,0.3-0.3S71.3,37.1,71.2,37.1z M75,37.1L75,37.1l-0.1-0.2c0-1,0.7-1.9,1.6-1.9
				c0.9,0,1.6,0.8,1.6,1.9v5.5h-3.2v-4.6H75c0.2,0,0.3-0.1,0.3-0.3S75.2,37.1,75,37.1z M81.4,35.4v1.8v0.4v4.8h-2.7v-5.5
				c0,0,0,0,0-0.1c-0.1-1.3-1-2.4-2.2-2.4c-0.8,0-1.5,0.5-1.9,1.2c-0.4-0.7-1.1-1.2-1.9-1.2c-0.8,0-1.5,0.5-1.9,1.2
				c-0.4-0.7-1.1-1.2-1.9-1.2c-1.2,0-2.2,1.1-2.2,2.4c0,0,0,0,0,0.1v0.1l0,0l0,0v5.5h-2.4v-5.5l0,0l0,0v-0.1c0,0,0,0,0-0.1
				c-0.1-1.3-1.2-2.4-2.5-2.4c-0.9,0-1.8,0.5-2.2,1.3c-0.4-0.8-1.2-1.3-2.2-1.3c-0.9,0-1.8,0.5-2.2,1.3c-0.4-0.8-1.2-1.3-2.2-1.3
				c-0.9,0-1.8,0.5-2.2,1.3c-0.4-0.8-1.2-1.3-2.2-1.3c-0.9,0-1.8,0.5-2.2,1.3c-0.4-0.8-1.2-1.3-2.2-1.3c-1.3,0-2.4,1.1-2.5,2.4
				c0,0,0,0,0,0.1v5.5h-2.7v-5.5l0,0l0,0v-0.1c0,0,0,0,0-0.1c-0.1-1.3-1-2.4-2.2-2.4c-0.8,0-1.5,0.5-1.9,1.2
				c-0.4-0.7-1.1-1.2-1.9-1.2c-0.8,0-1.5,0.5-1.9,1.2c-0.4-0.7-1.1-1.2-1.9-1.2c-1.2,0-2.2,1.1-2.2,2.4c0,0,0,0,0,0.1v5.5H24v-4.8
				V37v-1.6v-2.5h57.4V35.4z M81.4,30.3H24v-3.7h4.7v2.1c0,0.2,0.1,0.3,0.3,0.3c0.2,0,0.3-0.1,0.3-0.3v-2.1h1v2.1
				c0,0.2,0.1,0.3,0.3,0.3c0.2,0,0.3-0.1,0.3-0.3v-2.1h1v2.1c0,0.2,0.1,0.3,0.3,0.3c0.2,0,0.3-0.1,0.3-0.3v-2.1h1v2.1
				c0,0.2,0.1,0.3,0.3,0.3c0.2,0,0.3-0.1,0.3-0.3v-2.1h1v2.1c0,0.2,0.1,0.3,0.3,0.3s0.3-0.1,0.3-0.3v-2.1h1v2.1
				c0,0.2,0.1,0.3,0.3,0.3c0.2,0,0.3-0.1,0.3-0.3v-2.1h31.4v2.1c0,0.2,0.1,0.3,0.3,0.3c0.2,0,0.3-0.1,0.3-0.3v-2.1h1v2.1
				c0,0.2,0.1,0.3,0.3,0.3c0.2,0,0.3-0.1,0.3-0.3v-2.1h1v2.1c0,0.2,0.1,0.3,0.3,0.3s0.3-0.1,0.3-0.3v-2.1h1v2.1
				c0,0.2,0.1,0.3,0.3,0.3c0.2,0,0.3-0.1,0.3-0.3v-2.1h1v2.1c0,0.2,0.1,0.3,0.3,0.3c0.2,0,0.3-0.1,0.3-0.3v-2.1h1v2.1
				c0,0.2,0.1,0.3,0.3,0.3c0.2,0,0.3-0.1,0.3-0.3v-2.1h4.6V30.3z"/>
			<rect x="52.5" y="10" class="st0" width="0.6" height="0"/>
			<rect x="52.5" y="5.8" class="st0" width="0.6" height="2.1"/>
			<rect x="52.5" y="7.9" class="st0" width="0.6" height="2.1"/>
			<rect x="52.5" y="10" class="st0" width="0.6" height="2.1"/>
		</g>
	</g>
</g>
</svg>
