<svg xmlns="http://www.w3.org/2000/svg" viewBox="0 0 100 100"><defs><style>.cls-1{isolation:isolate;}.cls-2,.cls-6{fill:#fff;}.cls-3{fill:#009dd8;}.cls-4{fill:#1460aa;}.cls-5{fill:#51b7d6;opacity:0.15;mix-blend-mode:multiply;}.cls-6{font-size:13px;font-family:GothamRounded-Bold, Gotham Rounded;font-weight:700;letter-spacing:-0.03em;}.cls-7{letter-spacing:-0.03em;}</style></defs><title>plantilla svg celestes</title><g class="cls-1"><g id="Layer_2" data-name="Layer 2"><rect class="cls-2" x="18.38" y="28.51" width="63.26" height="43.81" rx="3.52" ry="3.52"/><rect class="cls-3" x="18.38" y="28.51" width="63.84" height="42.97" rx="2.42" ry="2.42"/><path class="cls-4" d="M78.61,26.55H21.39a4.67,4.67,0,0,0-4.67,4.66V68.79a4.67,4.67,0,0,0,4.67,4.66H78.61a4.67,4.67,0,0,0,4.67-4.66V31.21A4.67,4.67,0,0,0,78.61,26.55Zm2,42.24a2,2,0,0,1-2,2H21.39a2,2,0,0,1-2-2V31.21a2,2,0,0,1,2-2H78.61a2,2,0,0,1,2,2Z"/><path class="cls-5" d="M48.27,65.58C24,65.36,22.34,52.88,18.38,40.77v28.3a2.43,2.43,0,0,0,2.42,2.42h59a2.43,2.43,0,0,0,2.42-2.42v-3.5S55.6,65.65,48.27,65.58Z"/><text class="cls-6" transform="translate(31.6 65.44)">A<tspan class="cls-7" x="9.57" y="0">ZUL</tspan></text><rect class="cls-2" x="39.27" y="33.1" width="21.46" height="16.22" rx="2.18" ry="2.18"/><path class="cls-2" d="M56.82,44l.81,0s0-1.91-.07-3.09v-.06a5.33,5.33,0,0,0-6-5.37c-4,.25-4.94,3.52-6.76,4.15-3.59,1.23-2.07,4.74-2.07,4.74h.8a2.45,2.45,0,0,0,4.62,0h4a2.46,2.46,0,0,0,4,.91A2.34,2.34,0,0,0,56.82,44Zm-10.16.45a1.18,1.18,0,0,1-.86.36,1.23,1.23,0,0,1-1.23-1.23,1.25,1.25,0,0,1,1.23-1.23A1.26,1.26,0,0,1,47,43.58,1.19,1.19,0,0,1,46.66,44.45Zm4.86-4.53-4.8,0c1.48-1.71,2.7-3.1,4.8-3.24Zm3.75,4.53a1.22,1.22,0,0,1-.87.36,1.25,1.25,0,0,1-1.23-1.23,1.26,1.26,0,0,1,1.23-1.23,1.25,1.25,0,0,1,1.23,1.23A1.22,1.22,0,0,1,55.27,44.45Zm-3-4.53v-3.2a3.83,3.83,0,0,1,3.84,3.17Z"/><path class="cls-4" d="M56.82,44l.81,0s0-1.91-.07-3.09v-.06a5.33,5.33,0,0,0-6-5.37c-4,.25-4.94,3.52-6.76,4.15-3.59,1.23-2.07,4.74-2.07,4.74h.8a2.45,2.45,0,0,0,4.62,0h4a2.46,2.46,0,0,0,4,.91A2.34,2.34,0,0,0,56.82,44Zm-10.16.45a1.18,1.18,0,0,1-.86.36,1.23,1.23,0,0,1-1.23-1.23,1.25,1.25,0,0,1,1.23-1.23A1.26,1.26,0,0,1,47,43.58,1.19,1.19,0,0,1,46.66,44.45Zm4.86-4.53-4.8,0c1.48-1.71,2.7-3.1,4.8-3.24Zm3.75,4.53a1.22,1.22,0,0,1-.87.36,1.25,1.25,0,0,1-1.23-1.23,1.26,1.26,0,0,1,1.23-1.23,1.25,1.25,0,0,1,1.23,1.23A1.22,1.22,0,0,1,55.27,44.45Zm-3-4.53v-3.2a3.83,3.83,0,0,1,3.84,3.17Z"/><path class="cls-3" d="M61.21,43.58a4.66,4.66,0,1,0,4.65,4.65A4.65,4.65,0,0,0,61.21,43.58Z"/><circle class="cls-2" cx="61.21" cy="48.29" r="3.18"/><path class="cls-4" d="M61.21,44.44A3.8,3.8,0,1,0,65,48.23,3.8,3.8,0,0,0,61.21,44.44Zm0,6.86a3.07,3.07,0,1,1,3.06-3.07A3.07,3.07,0,0,1,61.21,51.3Z"/><polygon class="cls-4" points="62.93 46.43 60.75 48.35 59.52 47.11 58.83 47.72 60.78 50.15 60.78 50.15 63.59 47 62.93 46.43"/></g></g></svg>