<?xml version="1.0" encoding="utf-8"?>
<!-- Generator: Adobe Illustrator 22.1.0, SVG Export Plug-In . SVG Version: 6.00 Build 0)  -->
<svg version="1.1" id="Capa_1" xmlns="http://www.w3.org/2000/svg" xmlns:xlink="http://www.w3.org/1999/xlink" x="0px" y="0px"
	 viewBox="0 0 100 100" style="enable-background:new 0 0 100 100;" xml:space="preserve">
<style type="text/css">
	.st0{fill:#7ED9ED;}
	.st1{opacity:0.71;fill:#007CAD;enable-background:new    ;}
	.st2{fill:#0DBFD1;}
	.st3{fill:#1460AA;}
	.st4{fill:#FFFFFF;}
	.st5{opacity:0.15;fill:#0094D4;enable-background:new    ;}
</style>
<title>plantilla svg celestes</title>
<g>
	<g id="Layer_2">
		<path class="st0" d="M21.9,28.1h56.2c1.9,0,3.5,1.6,3.5,3.5v36.8c0,1.9-1.6,3.5-3.5,3.5H21.9c-1.9,0-3.5-1.6-3.5-3.5V31.6
			C18.4,29.7,19.9,28.1,21.9,28.1z"/>
		<path class="st1" d="M42.4,46.5c0,0-4.6-4.9-7.8-3.3c-2,1.2-3.6,3-4.5,5.2l1.6,5.4l10.4,11.5L52.3,56c0,0,3.9-4.4,3.5-7.2
			c-0.3-1.8-4-7.4-7.8-5.9C45.9,43.6,44,44.9,42.4,46.5z"/>
		<path class="st2" d="M49.6,49.7l-2.6-3c0,0-3-4-2.8-6.3s3.8-6,5.8-6.2s7.5,3.6,7.6,3.5c0.7-1.6,2.1-2.8,3.8-3.1
			c1.9-0.5,4-0.1,5.6,1.1c1.3,0.8,3.9,2.9,2.7,5.6S59,55.6,59,55.6l-1.9,1.9L49.6,49.7z"/>
		<path class="st3" d="M57.6,58.8c-0.5,0-1-0.2-1.3-0.6l-0.1-0.1c-0.1-0.1-8.3-9.6-10.2-11.7L45.7,46l0.5-0.3
			c0.6-0.4,1.4-0.7,2.2-0.7c0.3,0,0.7,0,1,0.1h0.2l0.1,0.1c2.1,2.4,6,6.9,8,9.2c2.4-2.8,8.4-9.8,9.3-10.7c0.8-0.8,1.2-2,1.2-3.1
			c0-2.5-2.1-4.6-4.6-4.6c-1.9,0-3.6,1.2-4.3,2.9c-0.3,0.9-1.3,1.3-2.2,1c-0.5-0.2-0.8-0.5-1-1c-0.9-2.4-3.6-3.6-5.9-2.7
			c-1.7,0.6-2.8,2.2-3,4v0.4l-0.4,0.1c-0.8,0.2-1.5,0.4-2.3,0.8L43.8,42l-0.1-0.8c0-0.2,0-0.4,0-0.6c0-4.4,3.6-8,8-8
			c2.2,0,4.3,0.9,5.9,2.6c3-3.2,8.1-3.5,11.3-0.5c1.6,1.5,2.6,3.6,2.6,5.9c0,2-0.7,3.9-2.1,5.4c-0.9,1-8.1,9.4-10.3,11.9l-0.2,0.2
			C58.6,58.5,58.1,58.7,57.6,58.8L57.6,58.8z"/>
		<path class="st4" d="M63.4,33.2c4.1,0,7.5,3.3,7.5,7.5c0,1.9-0.7,3.7-2,5.1c-1,1.2-10.3,11.9-10.5,12l-0.1,0.1
			c-0.2,0.3-0.6,0.4-0.9,0.4l0,0c-0.3,0-0.7-0.1-0.9-0.4l-0.1-0.1c-0.1-0.1-8.3-9.6-10.2-11.7c0.8-0.5,1.8-0.7,2.8-0.4
			c2.2,2.6,6.5,7.5,8.4,9.6c2.3-2.7,8.8-10.2,9.7-11.1c1.9-2.1,1.8-5.3-0.3-7.2c-2.1-1.9-5.3-1.8-7.2,0.3c-0.4,0.5-0.8,1-1,1.6
			c-0.2,0.6-0.9,0.9-1.5,0.7c-0.3-0.1-0.6-0.4-0.7-0.7c-1-2.6-3.9-4-6.5-3c-1.9,0.7-3.2,2.5-3.3,4.5c-0.8,0.2-1.6,0.5-2.4,0.8
			c0-0.2,0-0.3,0-0.5c0.1-4.1,3.4-7.4,7.6-7.4c2.2,0,4.4,1.1,5.8,2.8C59,34.3,61.1,33.2,63.4,33.2 M63.4,32.2
			c-2.2,0-4.3,0.9-5.9,2.4c-1.6-1.5-3.7-2.4-5.9-2.4c-4.7,0-8.5,3.8-8.5,8.5c0,0.2,0,0.4,0,0.6l0.1,1.5l1.3-0.7
			c0.7-0.3,1.4-0.6,2.1-0.8l0.8-0.2l0-0.8c0.1-2.3,2.1-4,4.3-3.8c1.6,0.1,3,1.1,3.6,2.6c0.4,1.1,1.7,1.7,2.8,1.3
			c0.6-0.2,1.1-0.7,1.3-1.3c0.8-2.1,3.2-3.2,5.3-2.4c2.1,0.8,3.2,3.2,2.4,5.3c-0.2,0.5-0.5,1-0.8,1.3c-0.8,0.9-6,6.9-8.9,10.3
			c-2-2.4-5.6-6.5-7.6-8.8l-0.2-0.2l-0.3-0.1c-0.4-0.1-0.7-0.1-1.1-0.2c-0.9,0-1.7,0.3-2.4,0.7l-1,0.6l0.8,0.9
			c1.9,2.1,10.1,11.6,10.2,11.7l0.1,0.1c0.8,0.9,2.2,1,3.1,0.2c0.1-0.1,0.1-0.1,0.2-0.2l0.1-0.1l0,0c4.3-5,9.6-11.2,10.4-12
			c3.2-3.5,2.9-8.8-0.5-12C67.6,33.1,65.5,32.3,63.4,32.2L63.4,32.2z"/>
		<path class="st3" d="M42.4,67.3c-0.5,0-1-0.2-1.3-0.6l-0.3-0.4c-6-6.9-9.6-11.1-10.2-11.7c-3-3.3-2.7-8.3,0.5-11.3
			c1.5-1.3,3.4-2.1,5.4-2.1c2.2,0,4.4,1,5.9,2.6c3-3.2,8.1-3.5,11.3-0.5c1.6,1.5,2.6,3.6,2.6,5.9c0,0.6-0.1,1.2-0.2,1.8l-0.2,1
			l-3-3.5v-0.1c-0.4-2.5-2.8-4.2-5.3-3.8c-1.7,0.3-3,1.4-3.6,3c-0.2,0.7-0.9,1.1-1.6,1.1c-0.7,0-1.3-0.4-1.6-1.1
			c-1-2.3-3.7-3.4-6.1-2.4c-1.6,0.7-2.7,2.3-2.8,4c0,1.1,0.4,2.3,1.2,3.1c0.9,1,7.6,8.7,9.3,10.7c2.1-2.4,6.3-7.3,8.3-9.6l0.4-0.4
			l2.2,2.6l-0.3,0.3c-2.6,3-8.5,9.8-9.2,10.6l-0.2,0.2C43.4,67.1,43,67.3,42.4,67.3L42.4,67.3z"/>
		<path class="st4" d="M48.3,41.7c4.1,0,7.5,3.4,7.5,7.5c0,0.6-0.1,1.1-0.2,1.7l-2.3-2.7c-0.5-2.8-3.2-4.6-6-4
			c-1.7,0.3-3.2,1.6-3.8,3.2c-0.2,0.6-0.9,0.9-1.5,0.7c-0.3-0.1-0.6-0.4-0.7-0.7c-1-2.6-4-4-6.6-3c-2.6,1-4,4-3,6.6
			c0.2,0.6,0.6,1.2,1,1.6c0.9,1,7.3,8.4,9.7,11.1c1.9-2.2,6.5-7.6,8.7-10l1.6,1.8c-2.8,3.2-9.2,10.6-9.3,10.7l-0.1,0.1
			c-0.2,0.3-0.6,0.4-0.9,0.4l0,0c-0.3,0-0.7-0.2-0.9-0.4l-0.1-0.1c-0.1-0.1-9.4-10.9-10.4-12c-2.8-3-2.6-7.8,0.4-10.6
			s7.8-2.6,10.6,0.4c0.2,0.2,0.3,0.3,0.4,0.5C43.9,42.8,46,41.8,48.3,41.7 M48.3,40.7c-2.2,0-4.3,0.9-5.9,2.4
			c-3.5-3.1-8.9-2.7-12,0.8c-2.7,3.1-2.8,7.8-0.2,11c0.7,0.8,6.1,7,10.4,12h0l0.1,0.1c0.4,0.5,1,0.8,1.7,0.8c0.6,0,1.2-0.3,1.7-0.8
			l0.1-0.1l0.1-0.1c1.5-1.8,6.8-7.8,9.2-10.6l0.6-0.7l-0.6-0.7l-1.6-1.8l-0.8-0.9l-0.8,0.9c-2,2.3-6.1,7-7.9,9.1
			c-2.3-2.7-8.1-9.3-8.9-10.3c-1.5-1.7-1.4-4.3,0.3-5.8c1.7-1.5,4.3-1.4,5.8,0.3c0.3,0.4,0.6,0.8,0.8,1.3c0.4,1.1,1.7,1.7,2.8,1.3
			c0.6-0.2,1-0.7,1.3-1.3c0.8-2.1,3.2-3.2,5.3-2.4c1.3,0.5,2.3,1.6,2.6,3v0.3l0.2,0.2l2.3,2.7l1.3,1.5l0.4-1.9
			c0.1-0.6,0.2-1.2,0.2-1.9C56.8,44.5,53,40.7,48.3,40.7L48.3,40.7z"/>
		<path class="st5" d="M48,66.2C23.7,66,22,53.5,18.1,41.4v28.3c0,1.3,1.1,2.4,2.4,2.4h59c1.3,0,2.4-1.1,2.4-2.4v-3.5
			C81.9,66.2,55.3,66.2,48,66.2z"/>
		<path class="st3" d="M78.6,26.6H21.4c-2.6,0-4.7,2.1-4.7,4.7v37.6c0,2.6,2.1,4.7,4.7,4.7h57.2c2.6,0,4.7-2.1,4.7-4.7V31.2
			C83.3,28.6,81.2,26.5,78.6,26.6z M80.6,68.8c0,1.1-0.9,2-2,2H21.4c-1.1,0-2-0.9-2-2V31.2c0-1.1,0.9-2,2-2h57.2c1.1,0,2,0.9,2,2
			V68.8z"/>
		<polygon class="st5" points="49.6,47.3 52.5,50.6 50.7,52.7 47.5,49.7 		"/>
		<path class="st5" d="M46.9,49.4c0.5-0.8,1.3-1.4,2.3-1.4c1.1-0.2,2.2,0.1,3.1,0.8l0.8,1L49.2,52L46.9,49.4z"/>
	</g>
</g>
</svg>
