<svg xmlns="http://www.w3.org/2000/svg" viewBox="0 0 100 100"><defs><style>.cls-1{isolation:isolate;}.cls-2{fill:#fff;}.cls-3{fill:#7ed9ed;}.cls-4{fill:#51b7d6;opacity:0.15;mix-blend-mode:multiply;}.cls-5,.cls-6{fill:#1460aa;}.cls-6{font-size:13px;font-family:GothamRounded-Bold, Gotham Rounded;font-weight:700;letter-spacing:-0.03em;}.cls-7{fill:#009dd8;}</style></defs><title>plantilla svg celestes</title><g class="cls-1"><g id="Layer_2" data-name="Layer 2"><rect class="cls-2" x="18.38" y="28.51" width="63.26" height="43.81" rx="3.52" ry="3.52"/><rect class="cls-3" x="18.38" y="28.51" width="63.84" height="42.97" rx="2.42" ry="2.42"/><path class="cls-4" d="M48.27,65.58C24,65.36,22.34,52.88,18.38,40.77v28.3a2.43,2.43,0,0,0,2.42,2.42h59a2.43,2.43,0,0,0,2.42-2.42v-3.5S55.6,65.65,48.27,65.58Z"/><path class="cls-5" d="M78.61,26.55H21.39a4.67,4.67,0,0,0-4.67,4.66V68.79a4.67,4.67,0,0,0,4.67,4.66H78.61a4.67,4.67,0,0,0,4.67-4.66V31.21A4.67,4.67,0,0,0,78.61,26.55Zm2,42.24a2,2,0,0,1-2,2H21.39a2,2,0,0,1-2-2V31.21a2,2,0,0,1,2-2H78.61a2,2,0,0,1,2,2Z"/><text class="cls-6" transform="translate(35.69 47.21)">CUD</text><circle class="cls-7" cx="50" cy="57.5" r="7.04"/><path class="cls-2" d="M54,57a.61.61,0,0,0-.48-.19l-2.2.12,1.21-1.37a.73.73,0,0,0,.15-.69.6.6,0,0,0-.28-.4l-2.89-1.68a.62.62,0,0,0-.73.07l-1.41,1.26a.62.62,0,0,0,0,.89.63.63,0,0,0,.89.05l1.06-1,.89.51L48.56,56.4a3.18,3.18,0,0,0-1.69.83l.82.81a2.07,2.07,0,0,1,3.46,1.54A2,2,0,0,1,50.61,61l.82.81A3.25,3.25,0,0,0,52,58.16l.85,0-.21,2.54a.63.63,0,0,0,.58.68h0a.64.64,0,0,0,.63-.58l.26-3.26A.6.6,0,0,0,54,57Z"/><path class="cls-2" d="M52.8,54.3a1.06,1.06,0,1,0-1.06-1A1,1,0,0,0,52.8,54.3Z"/><path class="cls-2" d="M49.08,61.65a2.07,2.07,0,0,1-1.71-3.24l-.83-.82a3.23,3.23,0,0,0,2.54,5.21,3.28,3.28,0,0,0,2-.68l-.83-.83A2,2,0,0,1,49.08,61.65Z"/></g></g></svg>