<?xml version="1.0" encoding="utf-8"?>
<!-- Generator: Adobe Illustrator 19.2.1, SVG Export Plug-In . SVG Version: 6.00 Build 0)  -->
<svg version="1.1" id="Layer_1" xmlns="http://www.w3.org/2000/svg" xmlns:xlink="http://www.w3.org/1999/xlink" x="0px" y="0px"
	 viewBox="0 0 118 70" style="enable-background:new 0 0 118 70;" xml:space="preserve">
<style type="text/css">
	.st0{fill:#F38EA2;}
</style>
<g>
	<g>
		<g>
			<rect x="23.1" y="27.4" class="st0" width="71.6" height="2.1"/>
			<path class="st0" d="M58.9,49.2c-2.4,0-4.3,1.9-4.3,4.3v14.9h8.6V53.5C63.2,51.1,61.2,49.2,58.9,49.2z"/>
			<path class="st0" d="M21.1,33.4h1.3v16.8h26v2h-26v16.3h1.7v0H25V55.3h9.6v13.1h0.9v0h1.7v0H38V55.3h9.6v13.1h0.9v0h1.7v0H51
				l0-15.5c0-4.3,3.5-7.9,7.8-7.9c4.3,0,7.9,3.5,7.9,7.9l0,15.5h0.9v0h1.7v0h0.9V55.3h9.6v13.1h0.9v0h1.7v0h0.9V55.3h9.6v13.1h0.9v0
				h1.7V52.1h-26v-2h26l0-16.8h1.3v-2H21.1V33.4z M83.2,39.2c0-2.6,2.2-4.8,4.8-4.8c2.6,0,4.8,2.2,4.8,4.8V47h-9.6V39.2z M70.1,34.7
				h9.6v12.4h-9.6V34.7z M50.9,34.8h16v9.2c-0.6-0.5-1.2-1-1.8-1.4c-0.5-0.3-1-0.6-1.6-0.9c-0.1,0-0.1-0.1-0.2-0.1
				c-0.1,0-0.1,0-0.1-0.1c-1.3-0.6-2.7-0.9-4.2-0.9c-1.5,0-2.9,0.3-4.2,0.9c0,0-0.1,0-0.1,0.1c-0.1,0-0.1,0-0.2,0.1
				c-0.6,0.3-1.2,0.6-1.6,0.9c-0.7,0.4-1.3,0.9-1.8,1.5V34.8z M38,34.8h9.6V47H38V34.8z M25,39.2c0-2.6,2.2-4.8,4.8-4.8
				c2.6,0,4.8,2.2,4.8,4.8V47H25V39.2z"/>
			<path class="st0" d="M73.4,23.3l-4-3.8V14H64l-0.3-0.7c-0.8-1.7-2.4-2.9-4.2-3.1V6.9h7.4v-5h-7.4h-1.1h-0.1v8.3
				c-1.8,0.2-3.5,1.4-4.2,3.1L53.8,14h-5.3v5.5l-4.1,3.8H21.1v2.1h75.7v-2.1H73.4z M58.9,18.4c-1.7,0-3.1-1.4-3.1-3.1
				c0-1.7,1.4-3.1,3.1-3.1c1.7,0,3.1,1.4,3.1,3.1C62,17.1,60.6,18.4,58.9,18.4z"/>
		</g>
		<path class="st0" d="M116.8,47.2c-0.2-0.9-0.6-2.5-2.1-3.5c-1-0.8-2.2-1.2-3.5-1.2c-1.2,0-2.2,0.4-3.1,1c-1.7,1-2.3,2.8-2.5,3.8
			h-7.7v16.9h19v-16v-0.5L116.8,47.2z M105.3,61.2h-4.9V50h4.9V61.2z M114,61.2h-5.6V48.1c0-1.6,1.3-2.8,2.8-2.8
			c1.6,0,2.8,1.3,2.8,2.8V61.2z"/>
		<path class="st0" d="M1,47.6v0.5v16h19V47.2h-7.7c-0.2-1-0.8-2.8-2.5-3.8c-0.9-0.6-2-1-3.1-1c-1.3,0-2.5,0.5-3.5,1.2
			c-1.5,1-2,2.6-2.1,3.5L1,47.6z M12.5,50h4.9v11.2h-4.9V50z M3.8,48.1c0-1.6,1.3-2.8,2.8-2.8c1.6,0,2.8,1.3,2.8,2.8v13.1H3.8V48.1z
			"/>
	</g>
</g>
</svg>
