<?xml version="1.0" encoding="utf-8"?>
<!-- Generator: Adobe Illustrator 22.1.0, SVG Export Plug-In . SVG Version: 6.00 Build 0)  -->
<svg version="1.1" id="Capa_1" xmlns="http://www.w3.org/2000/svg" xmlns:xlink="http://www.w3.org/1999/xlink" x="0px" y="0px"
	 viewBox="0 0 100 100" style="enable-background:new 0 0 100 100;" xml:space="preserve">
<style type="text/css">
	.st0{fill:#009DD8;}
	.st1{fill:#7ED9ED;}
	.st2{opacity:0.15;fill:#0094D4;enable-background:new    ;}
	.st3{fill:#1460AA;}
</style>
<title>plantilla svg celestes</title>
<g>
	<g id="Layer_2">
		<path class="st0" d="M76.2,32.1c0-3.8-3.1-6.9-6.9-6.9l0,0H30.8c-3.8,0-6.9,3.1-6.9,6.9l0,0v6.2h52.3V32.1z"/>
		<path class="st1" d="M23.8,37.7v33.5c0,3.8,3.1,7,6.9,7h38.4c3.8,0,6.9-3.2,6.9-7V37.7H23.8z M51.2,68.2c-1.1,0.9-2.7,0.7-3.6-0.4
			c0,0,0,0,0-0.1c-0.3-0.2-0.5-0.5-0.4-0.8l0,0c-0.2-0.6-0.2-1.1,0-1.7l0,0c0-2.3-0.4-4.5-0.5-6.8c-0.1-2.7,0.2-5.4,0-8.1
			c-0.4-0.4-0.5-1-0.1-1.5c0.2-0.9,1.3-1.2,1.8-0.6c0.5-0.6,1.3-0.8,2.5,0.1c0.1,0.1,0.2,0.2,0.2,0.3c0.6,0,1.1,0.4,1.1,1
			c0,1-0.1,2-0.3,3c0,0.2-0.2,0.4-0.3,0.5v1.3c0.1,0.9,0.1,1.8,0.1,2.7c0.2,0.2,0.4,0.4,0.4,0.7c0.2,2-0.1,4.1-0.7,6
			C52.8,64.8,52.7,67.2,51.2,68.2z"/>
		<path class="st2" d="M70.6,79.2L70.6,79.2c1.3-1.8,2.8-3.4,4.3-5c0.1-0.2,0.2-0.3,0.3-0.4c-8,0-17.5,0-21.5,0
			C29.5,73.5,27.8,61.1,23.8,49v19.9c1,4,1.9,8,5,10.8h38.7C68.6,79.6,69.6,79.4,70.6,79.2z"/>
		<path class="st3" d="M39,70.3h22c1.6,0,2.9-1.3,2.9-2.9c0-0.5-0.1-1-0.4-1.4L52.2,45.8c-0.8-1.4-2.6-1.9-4-1.1
			c-0.5,0.3-0.9,0.7-1.1,1.2L36.4,66c-0.7,1.4-0.2,3.2,1.3,3.9C38.1,70.1,38.5,70.3,39,70.3z M51.6,49.3l-0.5,13h-3.2l-0.5-13H51.6z
			 M48,64.9c0.4-0.4,1-0.6,1.5-0.6c0.6,0,1.1,0.2,1.6,0.6c0.8,0.8,0.8,2.1,0,2.9c-0.9,0.8-2.2,0.8-3.1,0c-0.4-0.4-0.6-0.9-0.6-1.4
			C47.4,65.8,47.6,65.3,48,64.9z"/>
		<path class="st3" d="M70.3,24.5H64v-4.2c0-1.5-1.2-2.7-2.7-2.7c-1.5,0-2.7,1.2-2.7,2.7v4.2H41.4v-4.2c0-1.5-1.2-2.7-2.7-2.7
			c-1.5,0-2.7,1.2-2.7,2.7v4.2h-6.3c-4,0-7.2,3.2-7.2,7.2v38.3c0,5.7,4.6,10.3,10.3,10.3h34.3c5.7,0,10.3-4.6,10.3-10.3V31.8
			C77.5,27.8,74.3,24.5,70.3,24.5z M74.8,70.1c0,4.2-3.4,7.6-7.7,7.7H32.8c-4.2,0-7.6-3.4-7.6-7.7V38.7h49.6V70.1z M74.8,36.1H25.2
			v-4.3c0-2.5,2-4.5,4.5-4.5H36v3.6c0,1.5,1.2,2.7,2.7,2.7c1.5,0,2.7-1.2,2.7-2.7v-3.6h17.2v3.6c0,1.5,1.2,2.7,2.7,2.7
			c1.5,0,2.7-1.2,2.7-2.7l0,0v-3.6h6.3c2.5,0,4.5,2,4.5,4.5V36.1z"/>
	</g>
</g>
</svg>
