<svg xmlns="http://www.w3.org/2000/svg" viewBox="0 0 100 100"><defs><style>.cls-1{isolation:isolate;}.cls-2{fill:#009dd8;stroke:#009dd8;stroke-miterlimit:10;stroke-width:2px;}.cls-3,.cls-6{fill:#51b7d6;}.cls-3{opacity:0.15;}.cls-3,.cls-5{mix-blend-mode:multiply;}.cls-4{fill:#1460aa;}.cls-5{opacity:0.3;}.cls-7{fill:#fff;}</style></defs><title>plantilla svg celestes</title><g class="cls-1"><g id="Layer_2" data-name="Layer 2"><path class="cls-2" d="M25.18,29.28a4.54,4.54,0,0,1,4.53-4.52H70.29a4.53,4.53,0,0,1,4.53,4.52V67.6a7.65,7.65,0,0,1-7.65,7.64H32.83a7.65,7.65,0,0,1-7.65-7.64Z"/><path class="cls-3" d="M75.35,71.08c-7.95,0-17.43,0-21.36,0-24.26-.23-25.93-12.7-29.89-24.81V68.61A8.38,8.38,0,0,0,32.46,77H68.51A23.35,23.35,0,0,0,75.35,71.08Z"/><path class="cls-4" d="M70.29,22.07H29.71a7.23,7.23,0,0,0-7.22,7.21V67.6A10.35,10.35,0,0,0,32.83,77.93H67.17A10.35,10.35,0,0,0,77.51,67.6V29.28A7.23,7.23,0,0,0,70.29,22.07ZM74.82,67.6a7.65,7.65,0,0,1-7.65,7.64H32.83a7.65,7.65,0,0,1-7.65-7.64V29.28a4.54,4.54,0,0,1,4.53-4.52H70.29a4.53,4.53,0,0,1,4.53,4.52Z"/><g class="cls-5"><path class="cls-6" d="M56.32,60.6a2.12,2.12,0,0,0-1.62,0,2,2,0,0,0-1.14,1.13,8.09,8.09,0,1,1-9.63-10.93,2.12,2.12,0,0,0,1.27-1,2.11,2.11,0,0,0-.8-2.86,2.08,2.08,0,0,0-1.6-.2A12.3,12.3,0,1,0,57.43,63.36a2.09,2.09,0,0,0,0-1.61A2.16,2.16,0,0,0,56.32,60.6Z"/><circle class="cls-6" cx="48.12" cy="35.19" r="4.06"/><path class="cls-6" d="M65.85,65.33l-.95.11-2.65-9.65a2.09,2.09,0,0,0-1.93-1.54l-8.17-.38L51.45,47l6.41,4.15a2,2,0,0,0,1.58.29A2.1,2.1,0,0,0,61.06,49a2.05,2.05,0,0,0-.92-1.32L50.05,41.12a2.1,2.1,0,0,0-3.24,2l1.34,13a2.09,2.09,0,0,0,2,1.89l8.45.39,2.73,9.91a2.11,2.11,0,0,0,2,1.55l.23,0,2.74-.31a2.1,2.1,0,1,0-.47-4.18Z"/></g><path class="cls-7" d="M55.32,59.6a2.12,2.12,0,0,0-1.62,0,2,2,0,0,0-1.14,1.13,8.09,8.09,0,1,1-9.63-10.93,2.12,2.12,0,0,0,1.27-1,2.11,2.11,0,0,0-.8-2.86,2.08,2.08,0,0,0-1.6-.2A12.3,12.3,0,1,0,56.43,62.36a2.09,2.09,0,0,0,0-1.61A2.16,2.16,0,0,0,55.32,59.6Z"/><circle class="cls-7" cx="47.12" cy="34.19" r="4.06"/><path class="cls-7" d="M64.85,64.33l-.95.11-2.65-9.65a2.09,2.09,0,0,0-1.93-1.54l-8.17-.38L50.45,46l6.41,4.15a2,2,0,0,0,1.58.29A2.1,2.1,0,0,0,60.06,48a2.05,2.05,0,0,0-.92-1.32L49.05,40.12a2.1,2.1,0,0,0-3.24,2l1.34,13a2.09,2.09,0,0,0,2,1.89l8.45.39,2.73,9.91a2.11,2.11,0,0,0,2,1.55l.23,0,2.74-.31a2.1,2.1,0,1,0-.47-4.18Z"/></g></g></svg>