<svg xmlns="http://www.w3.org/2000/svg" xmlns:xlink="http://www.w3.org/1999/xlink" viewBox="4537 1154 148.83 148.83">
  <defs>
    <style>
      .cls-1 {
        fill: #0094d6;
      }

      .cls-2 {
        clip-path: url(#clip-path);
      }

      .cls-3, .cls-5 {
        fill: #1e120d;
      }

      .cls-3 {
        opacity: 0.2;
      }

      .cls-4 {
        fill: #ffbd9c;
      }

      .cls-5 {
        opacity: 0.15;
      }
    </style>
    <clipPath id="clip-path">
      <circle id="Ellipse_2" data-name="Ellipse 2" cx="74.415" cy="74.415" r="74.415"/>
    </clipPath>
  </defs>
  <g id="mano_azul_gracias" transform="translate(4537 1154)">
    <circle id="Ellipse_1" data-name="Ellipse 1" class="cls-1" cx="74.415" cy="74.415" r="74.415" transform="translate(0 0)"/>
    <g id="Group_257" data-name="Group 257" transform="translate(0 0)">
      <g id="Group_256" data-name="Group 256" class="cls-2">
        <path id="Path_431" data-name="Path 431" class="cls-3" d="M111.619,80.1c21.878-21.447,13.818-27.06,11.947-26.628-3.023.72-10.219,11.227-14.25,15.113A137.217,137.217,0,0,1,94.778,80.675a226.7,226.7,0,0,0,15.689-28.931c5.9-13.386,2.015-34.257-3.886-33.537-6.909.72,1.3,16.265-7.2,32.242-7.2,13.674-12.666,17.416-12.666,17.416s4.462-18.424,2.591-37.136c-1.3-12.522-12.522-26.484-16.121-18.28-1.727,4.03,6.333,8.78,5.614,26.916C78.082,56.638,69.014,77.8,69.014,77.8c2.3-18.856-7.485-28.212-13.674-32.1C43.393,38.07,27.7,53.9,27.7,53.9c7.916,12.954,13.962-2.735,23.749,4.75C61.1,66.138,59.946,81.539,53.9,86,39.363,96.22,31.3,85.425,33.749,71.9,36.916,55.486,25.4,56.638,25.4,56.638,18.78,70.024,13.31,95.213,47.855,119.25h0l-.288,11.083h0l-.144,6.189c-1.008,41.31,18.712,45.052,27.78,37.567l-7.053-53.4C79.089,110.758,97.369,94.061,111.619,80.1Z" transform="translate(9 4.391)"/>
        <g id="Group_255" data-name="Group 255" transform="translate(24.535 9.924)">
          <path id="Path_432" data-name="Path 432" class="cls-4" d="M43.752,158.755l.576-41.885h0C9.639,92.832,15.4,67.068,22.162,53.538c0,0,11.515-1.151,8.348,15.257C27.919,82.325,35.979,93.12,50.517,82.9c6.189-4.318,7.341-19.863-2.447-27.348-9.644-7.485-15.833,8.2-23.749-4.75,0,0,15.689-15.833,27.636-8.2,6.189,3.886,15.977,13.242,13.674,32.1,0,0,9.212-21.159,9.788-38.431.72-17.992-7.341-22.742-5.614-26.916,3.6-8.2,14.825,5.757,16.121,18.28,1.871,18.712-2.591,37.136-2.591,37.136s5.614-3.6,12.81-17.272c8.348-15.977.144-31.522,7.2-32.242,6.045-.576,9.932,20.151,3.886,33.537A237.247,237.247,0,0,1,91.683,77.719,137.218,137.218,0,0,0,106.22,65.628c3.886-3.886,11.227-14.394,14.25-15.113,1.727-.432,9.788,5.182-11.947,26.628-14.25,13.962-32.1,31.81-42.749,41.742l3.6,43.325Z" transform="translate(-17.046 -6.894)"/>
          <path id="Path_433" data-name="Path 433" class="cls-5" d="M35.6,99.335v38.287l26.916.576L58.774,96.6C46.683,99.047,41.933,99.335,35.6,99.335Z" transform="translate(-8.894 32.519)"/>
        </g>
      </g>
    </g>
  </g>
</svg>
