<?xml version="1.0" encoding="utf-8"?>
<!-- Generator: Adobe Illustrator 22.1.0, SVG Export Plug-In . SVG Version: 6.00 Build 0)  -->
<svg version="1.1" id="Capa_1" xmlns="http://www.w3.org/2000/svg" xmlns:xlink="http://www.w3.org/1999/xlink" x="0px" y="0px"
	 viewBox="0 0 76 56" style="enable-background:new 0 0 76 56;" xml:space="preserve">
<style type="text/css">
	.st0{fill:#64C4E7;}
	.st1{opacity:0.15;fill:#51B7D6;enable-background:new    ;}
	.st2{fill:#1460AA;}
	.st3{fill:#FFFFFF;}
	.st4{fill:#12B5E1;}
</style>
<g>
	<title>plantilla svg celestes</title>
	<g>
		<g id="Layer_2">
			<path class="st0" d="M8.8,6.5h59c1.3,0,2.4,1.1,2.4,2.4V47c0,1.3-1.1,2.4-2.4,2.4h-59c-1.3,0-2.4-1.1-2.4-2.4V8.9
				C6.4,7.6,7.5,6.5,8.8,6.5z"/>
			<path class="st1" d="M36.3,43.6C12,43.4,10.3,30.9,6.4,18.8v28.3c0,1.3,1.1,2.4,2.4,2.4h59c1.3,0,2.4-1.1,2.4-2.4v-3.5
				C70.2,43.6,43.6,43.7,36.3,43.6z"/>
			<path class="st2" d="M66.6,4.6H9.4c-2.6,0-4.7,2.1-4.7,4.7v37.6c0,2.6,2.1,4.7,4.7,4.7h57.2c2.6,0,4.7-2.1,4.7-4.7V9.2
				C71.3,6.6,69.2,4.5,66.6,4.6z M68.6,46.8c0,1.1-0.9,2-2,2H9.4c-1.1,0-2-0.9-2-2V9.2c0-1.1,0.9-2,2-2h57.2c1.1,0,2,0.9,2,2V46.8z"
				/>
			<path class="st2" d="M22,14h29.8c1.2,0,2.2,1,2.2,2.2v21.4c0,1.2-1,2.2-2.2,2.2H22c-1.2,0-2.2-1-2.2-2.2V16.1
				C19.9,14.9,20.8,14,22,14z"/>
			<path class="st3" d="M47.8,31.3l1.3,0.1c0,0,0-3-0.1-4.9v-0.1c0-1.4-0.8-9.1-9.6-8.5c-6.3,0.4-7.8,5.6-10.7,6.6
				c-5.7,2-3.3,7.5-3.3,7.5h1.3c0.2,0.5,0.5,1,0.9,1.4c1.5,1.5,4,1.5,5.5,0c0.4-0.4,0.7-0.9,0.9-1.4h6.3c0.2,0.5,0.5,1,0.9,1.4
				c1.5,1.5,4,1.5,5.5,0C47.3,32.8,47.6,32.1,47.8,31.3z M31.6,32c-0.8,0.7-2.1,0.7-2.8-0.2c-0.3-0.3-0.5-0.8-0.5-1.2
				c0.2-1.1,1.3-1.8,2.4-1.5c0.7,0.2,1.3,0.8,1.5,1.5C32.2,31.1,32,31.6,31.6,32z M39.3,24.8l-7.6,0.1c2.4-2.7,4.3-4.9,7.6-5.2V24.8
				z M45.3,32c-0.4,0.4-0.9,0.6-1.4,0.6c-1.1,0-2-0.9-2-2s0.9-2,2-2s2,0.9,2,2C46,31.1,45.7,31.6,45.3,32L45.3,32z M40.5,24.8v-5.1
				c4.6,0.2,5.6,3.3,6.1,5L40.5,24.8z"/>
			<path class="st0" d="M54.1,31.8c-4.1,0-7.4,3.3-7.4,7.4s3.3,7.4,7.4,7.4s7.4-3.3,7.4-7.4l0,0C61.5,35.1,58.2,31.8,54.1,31.8z"/>
			<circle class="st3" cx="54.1" cy="39.3" r="5.1"/>
			<path class="st2" d="M54.1,33.2c-3.3,0-6,2.7-6,6s2.7,6,6,6c3.3,0,6-2.7,6-6C60.1,35.9,57.4,33.2,54.1,33.2z M54.1,44.1
				c-2.7,0-4.9-2.2-4.9-4.9s2.2-4.9,4.9-4.9c2.7,0,4.9,2.2,4.9,4.9C59,41.9,56.8,44.1,54.1,44.1z"/>
			<polygon class="st4" points="56.9,36.3 53.4,39.4 51.5,37.4 50.3,38.4 53.4,42.3 53.4,42.3 57.9,37.3 			"/>
		</g>
	</g>
</g>
</svg>
